## ElementId 200623
## Vertice Count:12
## Triangle Count:20
mtllib 200623.mtl
o 200623

v -8.4556 0 -6.8818
v -8.4556 0 4.3182
v -8.4556 4 4.3182
v -8.4556 4 -6.8818
v -8.2556 0 -6.8818
v -8.2556 4 -6.8818
v -8.2556 4 -6.6818
v -8.2556 4 4.1182
v -8.2556 4 4.3182
v -8.2556 0 4.3182
v -8.2556 0 4.1182
v -8.2556 0 -6.6818
vt -0.1 0
vt 11.1 0
vt 11.1 4
vt -0.1 4
vt 0.1 0
vt 0.1 4
vt -10.9 4
vt -11.1 4
vt -11.1 0
vt -10.9 0
vt 11.1 0.1
vt -0.1 0.1
vt -0.1 -0.1
vt 0.1 -0.1
vt 10.9 -0.1
vt 11.1 -0.1
vt 10.9 0.1
vt 0.1 0.1
vt 10.9 4
vt 10.9 0
vn -0.3048 0 0
vn 0.3048 0 0
vn 0 -0.3048 0
vn 0 0.3048 0
vn 0 0 0.3048
vn 0 0 -0.3048

usemtl 33525
f 4/4/1 1/1/1 3/3/1
f 2/2/1 3/3/1 1/1/1
f 10/9/2 11/10/2 8/7/2
f 8/7/2 9/8/2 10/9/2
f 11/10/2 12/1/2 8/7/2
f 12/1/2 5/5/2 7/4/2
f 6/6/2 7/4/2 5/5/2
f 12/1/2 7/4/2 8/7/2
f 2/11/3 1/12/3 12/14/3
f 12/14/3 1/12/3 5/13/3
f 2/11/3 12/14/3 11/15/3
f 11/15/3 10/16/3 2/11/3
f 4/13/4 3/16/4 8/17/4
f 8/17/4 3/16/4 9/11/4
f 4/13/4 8/17/4 7/18/4
f 7/18/4 6/12/4 4/13/4
f 3/4/5 2/1/5 10/5/5
f 10/5/5 9/6/5 3/4/5
f 6/19/6 5/20/6 1/2/6
f 1/2/6 4/3/6 6/19/6
