## ElementId 200702
## Vertice Count:10
## Triangle Count:16
mtllib 200702.mtl
o 200702

v 7.7444 0 4.1182
v 7.7444 0 -3.8818
v 7.7444 4 -3.8818
v 7.7444 4 4.1182
v 7.5444 0 4.1182
v 7.5444 4 4.1182
v 7.5444 4 -3.6818
v 7.5444 4 -3.8818
v 7.5444 0 -3.8818
v 7.5444 0 -3.6818
vt 0.1 0
vt 8.1 0
vt 8.1 4
vt 0.1 4
vt -0.1 0
vt -0.1 4
vt -7.9 4
vt -8.1 4
vt -8.1 0
vt -7.9 0
vt 8.1 0.1
vt 0.1 0.1
vt 0.1 -0.1
vt 7.9 -0.1
vt 8.1 -0.1
vt 7.9 0.1
vn 0.3048 0 0
vn -0.3048 0 0
vn 0 -0.3048 0
vn 0 0.3048 0
vn 0 0 0.3048
vn 0 0 -0.3048

usemtl 33525
f 4/4/1 1/1/1 3/3/1
f 2/2/1 3/3/1 1/1/1
f 8/8/2 9/9/2 7/7/2
f 7/7/2 9/9/2 10/10/2
f 10/10/2 5/5/2 6/6/2
f 10/10/2 6/6/2 7/7/2
f 2/11/3 1/12/3 10/14/3
f 5/13/3 10/14/3 1/12/3
f 10/14/3 9/15/3 2/11/3
f 4/13/4 3/15/4 7/16/4
f 8/11/4 7/16/4 3/15/4
f 7/16/4 6/12/4 4/13/4
f 5/5/5 1/1/5 4/4/5
f 4/4/5 6/6/5 5/5/5
f 3/6/6 2/5/6 9/1/6
f 9/1/6 8/4/6 3/6/6
