## ElementId 200812
## Vertice Count:12
## Triangle Count:20
mtllib 200812.mtl
o 200812

v -8.2556 -0.4 -6.6818
v 2.5444 -0.4 -6.6818
v 2.5444 -0.4 -3.6818
v 7.5444 -0.4 -3.6818
v 7.5444 -0.4 4.1182
v -8.2556 -0.4 4.1182
v -8.2556 0 -6.6818
v -8.2556 0 4.1182
v 7.5444 0 4.1182
v 7.5444 0 -3.6818
v 2.5444 0 -3.6818
v 2.5444 0 -6.6818
vt -8.2556 -6.6818
vt 2.5444 -6.6818
vt 2.5444 -3.6818
vt 7.5444 -3.6818
vt 7.5444 4.1182
vt -8.2556 4.1182
vt -8.2556 6.6818
vt -8.2556 -4.1182
vt 7.5444 -4.1182
vt 7.5444 3.6818
vt 2.5444 3.6818
vt 2.5444 6.6818
vt 2.5444 0.4
vt -8.2556 0.4
vt -8.2556 0
vt 2.5444 0
vt 3.6818 -0.4
vt 6.6818 -0.4
vt 6.6818 0
vt 3.6818 0
vt 7.5444 0.4
vt 7.5444 0
vt -4.1182 -0.4
vt -4.1182 0
vt -8.2556 -0.4
vt 7.5444 -0.4
vt -6.6818 -0.4
vt 4.1182 -0.4
vt 4.1182 0
vt -6.6818 0
vn 0 -0.3048 0
vn 0 0.3048 0
vn 0 0 -0.3048
vn 0.3048 0 0
vn 0 0 0.3048
vn -0.3048 0 0

usemtl 20490
f 6/6/1 1/1/1 3/3/1
f 3/3/1 1/1/1 2/2/1
f 6/6/1 3/3/1 5/5/1
f 4/4/1 5/5/1 3/3/1
f 11/11/2 9/9/2 10/10/2
f 11/11/2 7/7/2 8/8/2
f 7/7/2 11/11/2 12/12/2
f 11/11/2 8/8/2 9/9/2
f 2/13/3 1/14/3 12/16/3
f 7/15/3 12/16/3 1/14/3
f 3/17/4 2/18/4 12/19/4
f 12/19/4 11/20/4 3/17/4
f 4/21/3 3/13/3 11/16/3
f 11/16/3 10/22/3 4/21/3
f 5/23/4 4/17/4 10/20/4
f 10/20/4 9/24/4 5/23/4
f 6/25/5 5/26/5 9/22/5
f 9/22/5 8/15/5 6/25/5
f 1/27/6 6/28/6 8/29/6
f 8/29/6 7/30/6 1/27/6
