## ElementId 200869
## Vertice Count:18
## Triangle Count:32
mtllib 200869.mtl
o 200869

v -2.8556 7.1177 -1.2818
v -8.2556 4 -6.6818
v 2.5444 4 -6.6818
v -8.2556 4 4.1182
v 7.5444 4 4.1182
v 3.6444 6.2517 0.2182
v 7.5444 4 -3.6818
v -1.3556 6.2517 0.2182
v 2.5444 4 -3.6818
v -8.2556 4.3464 -6.6818
v -2.8556 7.4641 -1.2818
v 2.5444 4.3464 -6.6818
v -8.2556 4.3464 4.1182
v 7.5444 4.3464 4.1182
v 7.5444 4.3464 -3.6818
v 3.6444 6.5981 0.2182
v -1.3556 6.5981 0.2182
v 2.5444 4.3464 -3.6818
vt -2.8556 0.4487
vt -8.2556 -5.7866
vt 2.5444 -5.7866
vt 6.6818 -7.1495
vt 1.2818 -0.9142
vt -4.1182 -7.1495
vt 4.1182 -6.5337
vt 0.2182 -2.0303
vt -3.6818 -6.5337
vt 8.2556 -3.5664
vt 2.8556 2.6689
vt 1.3556 0.9369
vt -3.6444 0.9369
vt -7.5444 -3.5664
vt -6.6818 -2.2035
vt -3.6818 -2.2035
vt 0.2182 2.2998
vt -1.2818 4.0318
vt 7.5444 -3.1886
vt 3.6444 1.3148
vt -1.3556 1.3148
vt 2.5444 -3.1886
vt 8.2556 -5.6134
vt 2.8556 0.622
vt -2.5444 -5.6134
vt -6.6818 -6.9763
vt 4.1182 -6.9763
vt -1.2818 -0.7409
vt -4.1182 -6.3605
vt 3.6818 -6.3605
vt -0.2182 -1.8571
vt -8.2556 -3.3932
vt 7.5444 -3.3932
vt 3.6444 1.1101
vt -1.3556 1.1101
vt -2.8556 2.8421
vt 3.6818 -2.0303
vt 6.6818 -2.0303
vt 1.2818 4.2051
vt -0.2182 2.473
vt -7.5444 -3.0154
vt -2.5444 -3.0154
vt 1.3556 1.488
vt -3.6444 1.488
vt 4.1182 0
vt 4.1182 0.3464
vt -6.6818 0.3464
vt -6.6818 0
vt 7.5444 0
vt 7.5444 0.3464
vt -8.2556 0.3464
vt -8.2556 0
vt 3.6818 0
vt 3.6818 0.3464
vt -4.1182 0.3464
vt -4.1182 0
vt -2.5444 0
vt -2.5444 0.3464
vt -7.5444 0.3464
vt -7.5444 0
vt 6.6818 0
vt 6.6818 0.3464
vt 8.2556 0
vt 8.2556 0.3464
vn 0 -0.264 0.1524
vn 0.1524 -0.264 0
vn -0.1524 -0.264 0
vn 0 -0.264 -0.1524
vn 0 0.264 -0.1524
vn -0.1524 0.264 0
vn 0.1524 0.264 0
vn 0 0.264 0.1524
vn -0.3048 0 0
vn 0 0 0.3048
vn 0.3048 0 0
vn 0 0 -0.3048

usemtl 28309
f 1/1/1 2/2/1 3/3/1
f 1/5/2 4/6/2 2/4/2
f 6/8/3 7/9/3 5/7/3
f 8/12/4 4/10/4 1/11/4
f 6/13/4 5/14/4 8/12/4
f 4/10/4 8/12/4 5/14/4
f 9/16/3 8/17/3 1/18/3
f 1/18/3 3/15/3 9/16/3
f 9/22/1 7/19/1 6/20/1
f 6/20/1 8/21/1 9/22/1
f 12/25/5 10/23/5 11/24/5
f 10/26/6 13/27/6 11/28/6
f 14/29/7 15/30/7 16/31/7
f 11/36/8 13/32/8 17/35/8
f 17/35/8 14/33/8 16/34/8
f 14/33/8 17/35/8 13/32/8
f 11/39/7 17/40/7 18/37/7
f 18/37/7 12/38/7 11/39/7
f 16/44/5 15/41/5 18/42/5
f 18/42/5 17/43/5 16/44/5
f 10/47/9 2/48/9 4/45/9
f 4/45/9 13/46/9 10/47/9
f 13/51/10 4/52/10 5/49/10
f 5/49/10 14/50/10 13/51/10
f 14/55/11 5/56/11 7/53/11
f 7/53/11 15/54/11 14/55/11
f 15/59/12 7/60/12 9/57/12
f 9/57/12 18/58/12 15/59/12
f 18/54/11 9/53/11 3/61/11
f 3/61/11 12/62/11 18/54/11
f 12/58/12 3/57/12 2/63/12
f 2/63/12 10/64/12 12/58/12
