## ElementId 200804
## Vertice Count:8
## Triangle Count:12
mtllib 200804.mtl
o 200804

v 2.5444 0 -6.8818
v -8.2556 0 -6.8818
v -8.2556 4 -6.8818
v 2.5444 4 -6.8818
v 2.5444 0 -6.6818
v 2.5444 4 -6.6818
v -8.2556 4 -6.6818
v -8.2556 0 -6.6818
vt 0.1 0
vt 10.9 0
vt 10.9 4
vt 0.1 4
vt -0.1 0
vt -0.1 4
vt -10.9 4
vt -10.9 0
vt 10.9 0.1
vt 0.1 0.1
vt 0.1 -0.1
vt 10.9 -0.1
vn 0 0 -0.3048
vn 0 0 0.3048
vn 0 -0.3048 0
vn 0 0.3048 0
vn -0.3048 0 0
vn 0.3048 0 0

usemtl 33525
f 4/4/1 1/1/1 3/3/1
f 2/2/1 3/3/1 1/1/1
f 7/7/2 8/8/2 6/6/2
f 5/5/2 6/6/2 8/8/2
f 2/9/3 1/10/3 5/11/3
f 5/11/3 8/12/3 2/9/3
f 4/11/4 3/12/4 7/9/4
f 7/9/4 6/10/4 4/11/4
f 2/5/5 8/1/5 7/4/5
f 7/4/5 3/6/5 2/5/5
f 5/5/6 1/1/6 4/4/6
f 4/4/6 6/6/6 5/5/6
