## ElementId 124920
## Vertice Count:16
## Triangle Count:26
mtllib 124920.mtl
o 124920

v -0.6164 -0.1002 9.5011
v -0.6164 0.9498 9.5011
v -0.6164 -0.1002 9.6722
v -0.6164 0.9498 9.6722
v -0.6164 -0.1002 10.8011
v -0.6164 0.9498 10.8011
v 1.4836 -0.1002 10.8011
v 1.4836 0.9498 10.8011
v 1.4836 -0.1002 16.1011
v 1.4836 0.9498 16.1011
v -2.5164 -0.1002 16.8011
v -2.5164 -0.0788 16.8011
v 1.4836 -0.1002 16.8011
v 1.4836 -0.0788 16.8011
v 1.4836 -0.0448 16.1011
v -2.5164 -0.1002 9.5011
vt 6.6 0
vt 6.4289 0
vt 5.3 0
vt 5.3 2.1
vt 0 2.1
vt 0 0
vt 0 4
vt 0.7 4
vt 6 4
vt 6 1.9
vt 7.3 1.9
vt 7.3 0
vn -0.3048 0 0
vn -0.1363 0 0.2726
vn -0.2726 0 0.1363
vn 0 0 0.3048
vn 0.2726 0 0.1363
vn 0.1363 0 0.2726
vn 0.3048 0 0
vn 0 0.3048 0

usemtl 79450
f 1/1/1 4/2/1 2/1/1
f 1/1/1 3/2/1 4/2/1
f 3/2/1 6/3/3 4/2/1
f 3/2/1 5/3/2 6/3/3
f 5/3/2 8/4/2 6/3/3
f 5/3/2 7/4/3 8/4/2
f 7/4/3 10/5/1 8/4/2
f 7/4/3 9/5/1 10/5/1
f 11/6/4 14/7/6 12/6/4
f 11/6/4 13/7/5 14/7/6
f 13/7/5 15/8/7 14/7/6
f 13/7/5 9/8/7 15/8/7
f 11/6/4 14/7/6 12/6/4
f 11/6/4 13/7/5 14/7/6
f 13/7/5 15/8/7 14/7/6
f 13/7/5 9/8/7 15/8/7
f 1/1/1 6/3/3 2/1/1
f 1/1/1 5/3/2 6/3/3
f 5/3/2 8/4/2 6/3/3
f 5/3/2 7/4/3 8/4/2
f 7/4/3 10/5/1 8/4/2
f 7/4/3 9/5/1 10/5/1
f 1/11/8 16/12/8 5/10/8
f 5/10/8 16/12/8 11/6/8
f 5/10/8 13/7/8 7/9/8
f 13/7/8 5/10/8 11/6/8
