## ElementId 125312
## Vertice Count:18
## Triangle Count:22
mtllib 125312.mtl
o 125312

v 2.7836 0.9498 8.2711
v 2.7836 0.3348 8.2711
v 2.7836 0.9498 8.1711
v 2.7836 0.3396 8.1711
v 1.4836 0.9498 16.1011
v 1.4836 -0.0448 16.1011
v 7.2836 0.9498 16.1011
v 7.2836 -0.0448 16.1011
v 7.2836 0.9498 10.7011
v 7.2836 0.217 10.7011
v 0.9436 0.9498 8.1711
v 0.9436 0.9498 9.5011
v -0.6164 0.9498 9.5011
v -0.6164 0.9498 10.8011
v 1.4836 0.9498 10.8011
v 3.0836 0.9498 10.7011
v 3.0836 0.9498 9.4711
v 2.7836 0.9498 9.4711
vt 0 0.6151
vt 0 0
vt 0.1 0.6151
vt 0.1 0.0048
vt 0 5.8
vt 5.4 5.8
vt 7.93 1.56
vt 6.6 1.56
vt 6.6 0
vt 5.3 0
vt 5.3 2.1
vt 0 2.1
vt 0 7.9
vt 5.4 7.9
vt 5.4 3.7
vt 6.63 3.7
vt 6.63 3.4
vt 7.93 3.4
vn -0.3048 0 0
vn 0 0 -0.3048
vn -0.2726 0 -0.1363
vn -0.1363 0 -0.2726
vn 0 0.3048 0

usemtl 79450
f 1/1/1 4/4/1 2/2/1
f 1/1/1 3/3/1 4/4/1
f 5/2/2 8/5/4 6/2/2
f 5/2/2 7/5/3 8/5/4
f 7/5/3 10/6/1 8/5/4
f 7/5/3 9/6/1 10/6/1
f 1/1/1 4/4/1 2/2/1
f 1/1/1 3/3/1 4/4/1
f 5/2/2 8/5/4 6/2/2
f 5/2/2 7/5/3 8/5/4
f 7/5/3 10/6/1 8/5/4
f 7/5/3 9/6/1 10/6/1
f 15/11/5 5/12/5 16/15/5
f 14/10/5 15/11/5 12/8/5
f 12/8/5 13/9/5 14/10/5
f 18/17/5 11/7/5 12/8/5
f 12/8/5 15/11/5 18/17/5
f 16/15/5 7/13/5 9/14/5
f 7/13/5 16/15/5 5/12/5
f 18/17/5 3/18/5 11/7/5
f 17/16/5 18/17/5 16/15/5
f 16/15/5 18/17/5 15/11/5
