## ElementId 125732
## Vertice Count:65
## Triangle Count:146
mtllib 125732.mtl
o 125732

v 7.4836 5.3 4.5011
v 7.2836 5.3 4.5011
v 3.0836 5.3 4.5011
v 2.8836 5.3 4.5011
v -0.4164 5.3 4.5011
v -0.6164 5.3 4.5011
v -2.3164 5.3 4.5011
v -2.3164 -0.2 4.5011
v -0.6164 -0.2 4.5011
v -0.4164 -0.2 4.5011
v 2.8836 -0.2 4.5011
v 3.0836 -0.2 4.5011
v 7.2836 -0.2 4.5011
v 7.4436 -0.2 4.5011
v 7.4436 0.65 4.5011
v 7.4836 0.65 4.5011
v 7.4836 5 4.5011
v 6.4336 3.55 4.5011
v 6.4336 1.75 4.5011
v 3.9336 1.75 4.5011
v 3.9336 3.55 4.5011
v -1.0164 2 4.5011
v -1.0164 1 4.5011
v -1.9164 1 4.5011
v -1.9164 2 4.5011
v -1.0164 4.6 4.5011
v -1.0164 3.6 4.5011
v -1.9164 3.6 4.5011
v -1.9164 4.6 4.5011
v 2.2336 2 4.5011
v 2.2336 1 4.5011
v 0.2336 1 4.5011
v 0.2336 2 4.5011
v 2.2336 4.6 4.5011
v 2.2336 3.6 4.5011
v 0.2336 3.6 4.5011
v 0.2336 4.6 4.5011
v -2.3164 -0.2 4.3011
v -2.3164 5.3 4.3011
v 3.0836 5.3 4.3011
v 7.4836 5.3 4.3011
v 7.4836 5 4.3011
v 7.4836 0.65 4.3011
v 7.4436 0.65 4.3011
v 7.4436 -0.2 4.3011
v 6.4336 1.75 4.3011
v 6.4336 3.55 4.3011
v 3.9336 3.55 4.3011
v 3.9336 1.75 4.3011
v -1.0164 1 4.3011
v -1.0164 2 4.3011
v -1.9164 2 4.3011
v -1.9164 1 4.3011
v -1.0164 3.6 4.3011
v -1.0164 4.6 4.3011
v -1.9164 4.6 4.3011
v -1.9164 3.6 4.3011
v 2.2336 1 4.3011
v 2.2336 2 4.3011
v 0.2336 2 4.3011
v 0.2336 1 4.3011
v 2.2336 3.6 4.3011
v 2.2336 4.6 4.3011
v 0.2336 4.6 4.3011
v 0.2336 3.6 4.3011
vt 9.94 5.5
vt 9.74 5.5
vt 5.54 5.5
vt 5.34 5.5
vt 2.04 5.5
vt 1.84 5.5
vt 0.14 5.5
vt 0.14 0
vt 1.84 0
vt 2.04 0
vt 5.34 0
vt 5.54 0
vt 9.74 0
vt 9.9 0
vt 9.9 0.85
vt 9.94 0.85
vt 9.94 5.2
vt 8.89 3.75
vt 8.89 1.95
vt 6.39 1.95
vt 6.39 3.75
vt 1.44 2.2
vt 1.44 1.2
vt 0.54 1.2
vt 0.54 2.2
vt 1.44 4.8
vt 1.44 3.8
vt 0.54 3.8
vt 0.54 4.8
vt 4.69 2.2
vt 4.69 1.2
vt 2.69 1.2
vt 2.69 2.2
vt 4.69 4.8
vt 4.69 3.8
vt 2.69 3.8
vt 2.69 4.8
vt -0.14 0
vt -0.14 5.5
vt -5.54 5.5
vt -9.94 5.5
vt -9.94 5.2
vt -9.94 0.85
vt -9.9 0.85
vt -9.9 0
vt -8.89 1.95
vt -8.89 3.75
vt -6.39 3.75
vt -6.39 1.95
vt -1.44 1.2
vt -1.44 2.2
vt -0.54 2.2
vt -0.54 1.2
vt -1.44 3.8
vt -1.44 4.8
vt -0.54 4.8
vt -0.54 3.8
vt -4.69 1.2
vt -4.69 2.2
vt -2.69 2.2
vt -2.69 1.2
vt -4.69 3.8
vt -4.69 4.8
vt -2.69 4.8
vt -2.69 3.8
vt 0.14 0.1
vt 0.14 -0.1
vt 9.9 -0.1
vt 9.9 0.1
vt 9.74 0.1
vt 5.54 0.1
vt 5.34 0.1
vt 2.04 0.1
vt 1.84 0.1
vt 1.84 -0.1
vt 2.04 -0.1
vt 5.34 -0.1
vt 5.54 -0.1
vt 9.74 -0.1
vt 9.94 -0.1
vt 9.94 0.1
vt 0.1 5.5
vt -0.1 5.5
vt -0.1 5.2
vt -0.1 0.85
vt 0.1 0.85
vt 0.1 5.2
vt -0.1 0
vt 0.1 0
vt -0.1 3.75
vt -0.1 1.95
vt 0.1 1.95
vt 0.1 3.75
vt 6.39 -0.1
vt 8.89 -0.1
vt 8.89 0.1
vt 6.39 0.1
vt -0.1 2.2
vt -0.1 1.2
vt 0.1 1.2
vt 0.1 2.2
vt 0.54 -0.1
vt 1.44 -0.1
vt 1.44 0.1
vt 0.54 0.1
vt -0.1 4.8
vt -0.1 3.8
vt 0.1 3.8
vt 0.1 4.8
vt 2.69 -0.1
vt 4.69 -0.1
vt 4.69 0.1
vt 2.69 0.1
vn 0 0 0.3048
vn 0 0 -0.3048
vn 0 -0.3048 0
vn 0 0.3048 0
vn 0.3048 0 0
vn -0.3048 0 0

usemtl 197629
f 8/8/1 24/24/1 25/25/1
f 23/23/1 24/24/1 9/9/1
f 24/24/1 8/8/1 9/9/1
f 8/8/1 25/25/1 7/7/1
f 10/10/1 32/32/1 23/23/1
f 22/22/1 32/32/1 33/33/1
f 22/22/1 23/23/1 32/32/1
f 25/25/1 22/22/1 27/27/1
f 10/10/1 11/11/1 32/32/1
f 23/23/1 9/9/1 10/10/1
f 36/36/1 22/22/1 33/33/1
f 6/6/1 7/7/1 29/29/1
f 29/29/1 7/7/1 28/28/1
f 29/29/1 26/26/1 6/6/1
f 28/28/1 7/7/1 25/25/1
f 27/27/1 36/36/1 37/37/1
f 27/27/1 28/28/1 25/25/1
f 26/26/1 5/5/1 6/6/1
f 26/26/1 37/37/1 5/5/1
f 5/5/1 37/37/1 4/4/1
f 37/37/1 26/26/1 27/27/1
f 22/22/1 36/36/1 27/27/1
f 33/33/1 35/35/1 36/36/1
f 11/11/1 12/12/1 31/31/1
f 31/31/1 20/20/1 30/30/1
f 20/20/1 31/31/1 12/12/1
f 12/12/1 19/19/1 20/20/1
f 11/11/1 31/31/1 32/32/1
f 13/13/1 14/14/1 15/15/1
f 19/19/1 15/15/1 16/16/1
f 15/15/1 19/19/1 13/13/1
f 19/19/1 16/16/1 18/18/1
f 13/13/1 19/19/1 12/12/1
f 21/21/1 34/34/1 35/35/1
f 34/34/1 3/3/1 4/4/1
f 21/21/1 3/3/1 34/34/1
f 34/34/1 4/4/1 37/37/1
f 35/35/1 30/30/1 21/21/1
f 33/33/1 30/30/1 35/35/1
f 18/18/1 2/2/1 3/3/1
f 21/21/1 30/30/1 20/20/1
f 2/2/1 17/17/1 1/1/1
f 17/17/1 2/2/1 18/18/1
f 18/18/1 16/16/1 17/17/1
f 18/18/1 3/3/1 21/21/1

usemtl 31
f 44/44/2 45/45/2 46/46/2
f 43/43/2 44/44/2 46/46/2
f 45/45/2 49/49/2 46/46/2
f 49/49/2 45/45/2 58/58/2
f 59/59/2 49/49/2 58/58/2
f 59/59/2 60/60/2 62/62/2
f 48/48/2 49/49/2 59/59/2
f 45/45/2 38/38/2 58/58/2
f 43/43/2 46/46/2 47/47/2
f 41/41/2 42/42/2 47/47/2
f 47/47/2 42/42/2 43/43/2
f 41/41/2 47/47/2 40/40/2
f 48/48/2 62/62/2 63/63/2
f 62/62/2 48/48/2 59/59/2
f 40/40/2 63/63/2 64/64/2
f 63/63/2 40/40/2 48/48/2
f 48/48/2 40/40/2 47/47/2
f 60/60/2 61/61/2 51/51/2
f 51/51/2 61/61/2 50/50/2
f 65/65/2 60/60/2 51/51/2
f 53/53/2 38/38/2 52/52/2
f 38/38/2 53/53/2 50/50/2
f 38/38/2 39/39/2 52/52/2
f 38/38/2 50/50/2 61/61/2
f 61/61/2 58/58/2 38/38/2
f 54/54/2 51/51/2 52/52/2
f 65/65/2 54/54/2 64/64/2
f 65/65/2 51/51/2 54/54/2
f 64/64/2 54/54/2 55/55/2
f 56/56/2 39/39/2 55/55/2
f 39/39/2 56/56/2 57/57/2
f 57/57/2 52/52/2 39/39/2
f 55/55/2 39/39/2 64/64/2
f 52/52/2 57/57/2 54/54/2
f 64/64/2 39/39/2 40/40/2
f 60/60/2 65/65/2 62/62/2
f 9/74/3 8/66/3 38/67/3
f 14/69/3 13/70/3 45/68/3
f 10/73/3 38/67/3 11/72/3
f 38/67/3 10/73/3 9/74/3
f 12/71/3 11/72/3 45/68/3
f 45/68/3 11/72/3 38/67/3
f 12/71/3 45/68/3 13/70/3
f 2/79/4 1/80/4 41/81/4
f 39/66/4 7/67/4 6/75/4
f 39/66/4 6/75/4 5/76/4
f 40/71/4 3/78/4 2/79/4
f 40/71/4 4/77/4 3/78/4
f 40/71/4 39/66/4 5/76/4
f 40/71/4 5/76/4 4/77/4
f 40/71/4 2/79/4 41/81/4
f 17/84/5 16/85/5 43/86/5
f 1/83/5 17/84/5 42/87/5
f 43/86/5 42/87/5 17/84/5
f 42/87/5 41/82/5 1/83/5
f 38/88/6 8/89/6 7/82/6
f 7/82/6 39/83/6 38/88/6
f 47/90/6 46/91/6 19/92/6
f 19/92/6 18/93/6 47/90/6
f 48/94/3 47/95/3 18/96/3
f 18/96/3 21/97/3 48/94/3
f 49/92/5 48/93/5 21/90/5
f 21/90/5 20/91/5 49/92/5
f 46/96/4 49/97/4 19/95/4
f 20/94/4 19/95/4 49/97/4
f 51/98/6 50/99/6 23/100/6
f 23/100/6 22/101/6 51/98/6
f 52/102/3 51/103/3 25/105/3
f 22/104/3 25/105/3 51/103/3
f 53/100/5 52/101/5 25/98/5
f 25/98/5 24/99/5 53/100/5
f 50/104/4 53/105/4 24/102/4
f 24/102/4 23/103/4 50/104/4
f 55/106/6 54/107/6 27/108/6
f 27/108/6 26/109/6 55/106/6
f 56/102/3 55/103/3 29/105/3
f 26/104/3 29/105/3 55/103/3
f 57/108/5 56/109/5 29/106/5
f 29/106/5 28/107/5 57/108/5
f 54/104/4 57/105/4 28/102/4
f 28/102/4 27/103/4 54/104/4
f 59/98/6 58/99/6 31/100/6
f 31/100/6 30/101/6 59/98/6
f 60/110/3 59/111/3 30/112/3
f 30/112/3 33/113/3 60/110/3
f 61/100/5 60/101/5 33/98/5
f 33/98/5 32/99/5 61/100/5
f 58/112/4 61/113/4 31/111/4
f 32/110/4 31/111/4 61/113/4
f 63/106/6 62/107/6 35/108/6
f 35/108/6 34/109/6 63/106/6
f 64/110/3 63/111/3 34/112/3
f 34/112/3 37/113/3 64/110/3
f 65/108/5 64/109/5 37/106/5
f 37/106/5 36/107/5 65/108/5
f 62/112/4 65/113/4 35/111/4
f 36/110/4 35/111/4 65/113/4
f 14/88/5 45/89/5 44/86/5
f 44/86/5 15/85/5 14/88/5
f 15/69/3 44/68/3 43/80/3
f 43/80/3 16/81/3 15/69/3
