## ElementId 125977
## Vertice Count:18
## Triangle Count:32
mtllib 125977.mtl
o 125977

v -0.6164 5.3 8.2711
v -0.6164 -0.2 8.2711
v 0.9436 -0.2 8.2711
v 1.1436 -0.2 8.2711
v 2.5836 -0.2 8.2711
v 2.7836 -0.2 8.2711
v 3.0836 -0.2 8.2711
v 3.0836 4.9882 8.2711
v 3.0836 5.2 8.2711
v 3.0836 5.3 8.2711
v -0.6164 -0.2 8.0711
v -0.6164 5.3 8.0711
v -0.4164 5.3 8.0711
v 2.8836 5.3 8.0711
v 3.0836 5.3 8.0711
v 3.0836 -0.2 8.0711
v 2.8836 -0.2 8.0711
v -0.4164 -0.2 8.0711
vt -0.1 5.5
vt -0.1 0
vt 1.46 0
vt 1.66 0
vt 3.1 0
vt 3.3 0
vt 3.6 0
vt 3.6 5.1882
vt 3.6 5.4
vt 3.6 5.5
vt 0.1 0
vt 0.1 5.5
vt -3.4 5.5
vt -3.6 5.5
vt -3.6 0
vt -3.4 0
vt 3.6 0.1
vt 3.3 0.1
vt 3.1 0.1
vt 1.66 0.1
vt 1.46 0.1
vt -0.1 0.1
vt -0.1 -0.1
vt 0.1 -0.1
vt 3.4 -0.1
vt 3.6 -0.1
vt 3.4 0.1
vt 0.1 0.1
vt -3.87 0
vt -3.67 0
vt -3.67 5.5
vt -3.87 5.5
vt -3.87 5.4
vt -3.87 5.1882
vt 3.87 5.5
vt 3.67 5.5
vt 3.67 0
vt 3.87 0
vn 0 0 0.3048
vn 0 0 -0.3048
vn 0 -0.3048 0
vn 0 0.3048 0
vn 0.3048 0 0
vn -0.3048 0 0

usemtl 197629
f 8/8/1 1/1/1 3/3/1
f 3/3/1 1/1/1 2/2/1
f 4/4/1 8/8/1 3/3/1
f 4/4/1 5/5/1 8/8/1
f 6/6/1 7/7/1 8/8/1
f 10/10/1 1/1/1 9/9/1
f 1/1/1 8/8/1 9/9/1
f 5/5/1 6/6/1 8/8/1

usemtl 90484
f 16/15/2 17/16/2 15/14/2
f 14/13/2 15/14/2 17/16/2
f 17/16/2 13/1/2 14/13/2
f 18/2/2 11/11/2 12/12/2
f 12/12/2 13/1/2 18/2/2
f 18/2/2 13/1/2 17/16/2
f 10/32/5 9/33/5 15/31/5
f 8/34/5 16/30/5 15/31/5
f 16/30/5 8/34/5 7/29/5
f 8/34/5 15/31/5 9/33/5
f 12/36/6 11/37/6 2/38/6
f 2/38/6 1/35/6 12/36/6

usemtl 31
f 3/21/3 2/22/3 18/24/3
f 17/25/3 6/18/3 5/19/3
f 7/17/3 6/18/3 17/25/3
f 18/24/3 4/20/3 3/21/3
f 17/25/3 16/26/3 7/17/3
f 17/25/3 4/20/3 18/24/3
f 17/25/3 5/19/3 4/20/3
f 18/24/3 2/22/3 11/23/3
f 1/23/4 10/26/4 14/27/4
f 14/27/4 10/26/4 15/17/4
f 1/23/4 14/27/4 13/28/4
f 13/28/4 12/22/4 1/23/4
