## ElementId 126052
## Vertice Count:26
## Triangle Count:56
mtllib 126052.mtl
o 126052

v -2.3164 -0.2 10.9011
v 1.3836 -0.2 10.9011
v 1.5836 -0.2 10.9011
v 1.5836 5.3 10.9011
v 1.3836 5.3 10.9011
v -2.3164 5.3 10.9011
v -1.2164 2.6 10.9011
v -2.1164 2.6 10.9011
v -2.1164 4.7 10.9011
v -1.2164 4.7 10.9011
v -1.2164 0 10.9011
v -2.1164 0 10.9011
v -2.1164 2.1 10.9011
v -1.2164 2.1 10.9011
v 1.5836 -0.2 10.7011
v -2.3164 -0.2 10.7011
v -2.3164 5.3 10.7011
v 1.5836 5.3 10.7011
v -2.1164 2.6 10.7011
v -1.2164 2.6 10.7011
v -1.2164 4.7 10.7011
v -2.1164 4.7 10.7011
v -2.1164 0 10.7011
v -1.2164 0 10.7011
v -1.2164 2.1 10.7011
v -2.1164 2.1 10.7011
vt 0.1 0
vt 3.8 0
vt 4 0
vt 4 5.5
vt 3.8 5.5
vt 0.1 5.5
vt 1.2 2.8
vt 0.3 2.8
vt 0.3 4.9
vt 1.2 4.9
vt 1.2 0.2
vt 0.3 0.2
vt 0.3 2.3
vt 1.2 2.3
vt -4 0
vt -0.1 0
vt -0.1 5.5
vt -4 5.5
vt -0.3 2.8
vt -1.2 2.8
vt -1.2 4.9
vt -0.3 4.9
vt -0.3 0.2
vt -1.2 0.2
vt -1.2 2.3
vt -0.3 2.3
vt 4 0.1
vt 3.8 0.1
vt 0.1 0.1
vt 0.1 -0.1
vt 4 -0.1
vt 3.8 -0.1
vt 0.3 -0.1
vt 1.2 -0.1
vt 1.2 0.1
vt 0.3 0.1
vt -0.1 4.9
vt -0.1 2.8
vt 0.1 2.8
vt 0.1 4.9
vt -0.1 2.3
vt -0.1 0.2
vt 0.1 0.2
vt 0.1 2.3
vn 0 0 0.3048
vn 0 0 -0.3048
vn 0 -0.3048 0
vn 0 0.3048 0
vn -0.3048 0 0
vn 0.3048 0 0

usemtl 197629
f 1/1/1 11/11/1 12/12/1
f 11/11/1 1/1/1 2/2/1
f 1/1/1 12/12/1 13/13/1
f 6/6/1 9/9/1 10/10/1
f 9/9/1 6/6/1 8/8/1
f 8/8/1 6/6/1 1/1/1
f 14/14/1 8/8/1 13/13/1
f 1/1/1 13/13/1 8/8/1
f 7/7/1 14/14/1 2/2/1
f 2/2/1 14/14/1 11/11/1
f 7/7/1 2/2/1 3/3/1
f 10/10/1 7/7/1 5/5/1
f 4/4/1 5/5/1 7/7/1
f 7/7/1 3/3/1 4/4/1
f 10/10/1 5/5/1 6/6/1
f 7/7/1 8/8/1 14/14/1

usemtl 90484
f 15/15/2 24/24/2 25/25/2
f 24/24/2 15/15/2 16/16/2
f 19/19/2 20/20/2 25/25/2
f 15/15/2 25/25/2 20/20/2
f 18/18/2 20/20/2 21/21/2
f 20/20/2 18/18/2 15/15/2
f 18/18/2 21/21/2 17/17/2
f 26/26/2 23/23/2 16/16/2
f 16/16/2 23/23/2 24/24/2
f 26/26/2 16/16/2 19/19/2
f 19/19/2 17/17/2 22/22/2
f 17/17/2 19/19/2 16/16/2
f 22/22/2 17/17/2 21/21/2
f 26/26/2 19/19/2 25/25/2
f 4/17/6 3/16/6 15/1/6
f 15/1/6 18/6/6 4/17/6

usemtl 31
f 2/28/3 16/30/3 15/31/3
f 16/30/3 2/28/3 1/29/3
f 2/28/3 15/31/3 3/27/3
f 5/32/4 18/27/4 17/29/4
f 18/27/4 5/32/4 4/31/4
f 5/32/4 17/29/4 6/30/4
f 16/16/5 1/1/5 6/6/5
f 6/6/5 17/17/5 16/16/5
f 8/33/4 7/34/4 20/35/4
f 20/35/4 19/36/4 8/33/4
f 9/37/6 8/38/6 19/39/6
f 19/39/6 22/40/6 9/37/6
f 10/35/3 9/36/3 21/34/3
f 22/33/3 21/34/3 9/36/3
f 7/39/5 10/40/5 21/37/5
f 21/37/5 20/38/5 7/39/5
f 12/33/4 11/34/4 24/35/4
f 24/35/4 23/36/4 12/33/4
f 13/41/6 12/42/6 23/43/6
f 23/43/6 26/44/6 13/41/6
f 14/35/3 13/36/3 25/34/3
f 26/33/3 25/34/3 13/36/3
f 11/43/5 14/44/5 25/41/5
f 25/41/5 24/42/5 11/43/5
