## ElementId 126849
## Vertice Count:28
## Triangle Count:60
mtllib 126849.mtl
o 126849

v -0.6164 -0.2 4.5011
v -0.6164 -0.2 6.6711
v -0.6164 -0.2 6.8711
v -0.6164 -0.2 8.0711
v -0.6164 5.3 8.0711
v -0.6164 5.3 6.8711
v -0.6164 5.3 6.6711
v -0.6164 5.3 4.5011
v -0.6164 2.6 7.9211
v -0.6164 2.6 7.0211
v -0.6164 4.7 7.0211
v -0.6164 4.7 7.9211
v -0.6164 0 7.0211
v -0.6164 2.1 7.0211
v -0.6164 2.1 7.9211
v -0.6164 0 7.9211
v -0.4164 -0.2 8.0711
v -0.4164 -0.2 4.5011
v -0.4164 5.3 4.5011
v -0.4164 5.3 8.0711
v -0.4164 2.6 7.0211
v -0.4164 2.6 7.9211
v -0.4164 4.7 7.9211
v -0.4164 4.7 7.0211
v -0.4164 0 7.0211
v -0.4164 0 7.9211
v -0.4164 2.1 7.9211
v -0.4164 2.1 7.0211
vt 0.1 0
vt 2.27 0
vt 2.47 0
vt 3.67 0
vt 3.67 5.5
vt 2.47 5.5
vt 2.27 5.5
vt 0.1 5.5
vt 3.52 2.8
vt 2.62 2.8
vt 2.62 4.9
vt 3.52 4.9
vt 2.62 0.2
vt 2.62 2.3
vt 3.52 2.3
vt 3.52 0.2
vt -3.67 0
vt -0.1 0
vt -0.1 5.5
vt -3.67 5.5
vt -2.62 2.8
vt -3.52 2.8
vt -3.52 4.9
vt -2.62 4.9
vt -2.62 0.2
vt -3.52 0.2
vt -3.52 2.3
vt -2.62 2.3
vt 3.67 0.1
vt 2.47 0.1
vt 2.27 0.1
vt 0.1 0.1
vt 0.1 -0.1
vt 3.67 -0.1
vt 2.27 -0.1
vt 2.47 -0.1
vt 2.62 0.1
vt 2.62 -0.1
vt 3.52 -0.1
vt 3.52 0.1
vt -0.1 2.8
vt 0.1 2.8
vt 0.1 4.9
vt -0.1 4.9
vt -0.1 2.3
vt -0.1 0.2
vt 0.1 0.2
vt 0.1 2.3
vn -0.3048 0 0
vn 0.3048 0 0
vn 0 -0.3048 0
vn 0 0.3048 0
vn 0 0 -0.3048
vn 0 0 0.3048

usemtl 90484
f 1/1/1 2/2/1 14/14/1
f 2/2/1 13/13/1 14/14/1
f 13/13/1 2/2/1 3/3/1
f 1/1/1 14/14/1 10/10/1
f 11/11/1 7/7/1 8/8/1
f 10/10/1 11/11/1 8/8/1
f 7/7/1 11/11/1 6/6/1
f 8/8/1 1/1/1 10/10/1
f 14/14/1 9/9/1 10/10/1
f 15/15/1 9/9/1 14/14/1
f 16/16/1 4/4/1 15/15/1
f 16/16/1 13/13/1 3/3/1
f 3/3/1 4/4/1 16/16/1
f 15/15/1 4/4/1 9/9/1
f 5/5/1 6/6/1 12/12/1
f 5/5/1 12/12/1 9/9/1
f 9/9/1 4/4/1 5/5/1
f 12/12/1 6/6/1 11/11/1

usemtl 197629
f 17/17/2 26/26/2 27/27/2
f 26/26/2 17/17/2 25/25/2
f 17/17/2 27/27/2 22/22/2
f 20/20/2 22/22/2 23/23/2
f 22/22/2 20/20/2 17/17/2
f 20/20/2 23/23/2 24/24/2
f 27/27/2 28/28/2 22/22/2
f 25/25/2 18/18/2 28/28/2
f 18/18/2 25/25/2 17/17/2
f 28/28/2 18/18/2 21/21/2
f 21/21/2 22/22/2 28/28/2
f 24/24/2 21/21/2 19/19/2
f 19/19/2 21/21/2 18/18/2
f 24/24/2 19/19/2 20/20/2
f 6/36/4 5/34/4 20/29/4
f 7/35/4 20/29/4 19/32/4
f 20/29/4 7/35/4 6/36/4
f 7/35/4 19/32/4 8/33/4

usemtl 31
f 4/29/3 3/30/3 17/34/3
f 2/31/3 18/33/3 17/34/3
f 18/33/3 2/31/3 1/32/3
f 2/31/3 17/34/3 3/30/3
f 18/18/5 1/1/5 8/8/5
f 8/8/5 19/19/5 18/18/5
f 4/18/6 17/1/6 20/8/6
f 20/8/6 5/19/6 4/18/6
f 22/40/4 10/38/4 9/39/4
f 10/38/4 22/40/4 21/37/4
f 22/41/5 9/42/5 12/43/5
f 12/43/5 23/44/5 22/41/5
f 24/38/3 12/40/3 11/37/3
f 12/40/3 24/38/3 23/39/3
f 21/42/6 11/44/6 10/41/6
f 11/44/6 21/42/6 24/43/6
f 26/40/4 25/37/4 13/38/4
f 13/38/4 16/39/4 26/40/4
f 27/45/5 26/46/5 16/47/5
f 16/47/5 15/48/5 27/45/5
f 28/38/3 27/39/3 14/37/3
f 15/40/3 14/37/3 27/39/3
f 25/47/6 28/48/6 14/45/6
f 14/45/6 13/46/6 25/47/6
