## ElementId 128302
## Vertice Count:28
## Triangle Count:52
mtllib 128302.mtl
o 128302

v 7.2836 5.2 4.5011
v 7.2836 5.2 16.1011
v 1.3836 5.2 16.1011
v 1.3836 5.2 16.6011
v -2.3164 5.2 16.6011
v -2.3164 5.2 10.9011
v 1.3236 5.2 10.9011
v 1.3236 5.2 9.5011
v 2.8836 5.2 9.5011
v 2.8836 5.2 8.0711
v -2.3164 5.2 8.0711
v -2.3164 5.2 3.8211
v 2.9636 5.2 3.8211
v 2.9636 5.2 4.5011
v 7.2836 5.3 4.5011
v 2.9636 5.3 4.5011
v 2.9636 5.3 3.8211
v -2.3164 5.3 3.8211
v -2.3164 5.3 8.0711
v 2.8836 5.3 8.0711
v 2.8836 5.3 9.5011
v 1.3236 5.3 9.5011
v 1.3236 5.3 10.9011
v -2.3164 5.3 10.9011
v -2.3164 5.3 16.6011
v 1.3836 5.3 16.6011
v 1.3836 5.3 16.1011
v 7.2836 5.3 16.1011
vt 7.2836 4.5011
vt 7.2836 16.1011
vt 1.3836 16.1011
vt 1.3836 16.6011
vt -2.3164 16.6011
vt -2.3164 10.9011
vt 1.3236 10.9011
vt 1.3236 9.5011
vt 2.8836 9.5011
vt 2.8836 8.0711
vt -2.3164 8.0711
vt -2.3164 3.8211
vt 2.9636 3.8211
vt 2.9636 4.5011
vt 7.2836 -4.5011
vt 2.9636 -4.5011
vt 2.9636 -3.8211
vt -2.3164 -3.8211
vt -2.3164 -8.0711
vt 2.8836 -8.0711
vt 2.8836 -9.5011
vt 1.3236 -9.5011
vt 1.3236 -10.9011
vt -2.3164 -10.9011
vt -2.3164 -16.6011
vt 1.3836 -16.6011
vt 1.3836 -16.1011
vt 7.2836 -16.1011
vt -16.1011 4.15
vt -4.5011 4.15
vt -4.5011 4.25
vt -16.1011 4.25
vt 1.3836 4.15
vt 7.2836 4.15
vt 7.2836 4.25
vt 1.3836 4.25
vt -16.6011 4.15
vt -16.6011 4.25
vt -2.3164 4.15
vt -2.3164 4.25
vt 10.9011 4.15
vt 16.6011 4.15
vt 16.6011 4.25
vt 10.9011 4.25
vt 1.3236 -4.15
vt -2.3164 -4.15
vt -2.3164 -4.25
vt 1.3236 -4.25
vt 9.5011 4.15
vt 9.5011 4.25
vt 2.8836 -4.15
vt 2.8836 -4.25
vt 8.0711 4.15
vt 8.0711 4.25
vt 2.8836 4.15
vt 2.8836 4.25
vt 3.8211 4.15
vt 3.8211 4.25
vt 2.9636 -4.15
vt 2.9636 -4.25
vt -3.8211 4.15
vt -3.8211 4.25
vt 7.2836 -4.15
vt 7.2836 -4.25
vn 0 -0.3048 0
vn 0 0.3048 0
vn 0.3048 0 0
vn 0 0 0.3048
vn -0.3048 0 0
vn 0 0 -0.3048

usemtl 54872
f 14/14/1 1/1/1 10/10/1
f 13/13/1 14/14/1 12/12/1
f 12/12/1 14/14/1 11/11/1
f 14/14/1 10/10/1 11/11/1
f 10/10/1 1/1/1 9/9/1
f 7/7/1 9/9/1 2/2/1
f 2/2/1 9/9/1 1/1/1
f 7/7/1 2/2/1 3/3/1
f 7/7/1 3/3/1 6/6/1
f 6/6/1 3/3/1 5/5/1
f 3/3/1 4/4/1 5/5/1
f 7/7/1 8/8/1 9/9/1
f 27/27/2 28/28/2 23/23/2
f 21/21/2 28/28/2 15/15/2
f 23/23/2 28/28/2 21/21/2
f 26/26/2 27/27/2 25/25/2
f 24/24/2 25/25/2 27/27/2
f 23/23/2 24/24/2 27/27/2
f 23/23/2 21/21/2 22/22/2
f 15/15/2 16/16/2 20/20/2
f 16/16/2 17/17/2 18/18/2
f 19/19/2 20/20/2 16/16/2
f 16/16/2 18/18/2 19/19/2
f 20/20/2 21/21/2 15/15/2
f 2/29/3 1/30/3 15/31/3
f 15/31/3 28/32/3 2/29/3
f 3/33/4 2/34/4 28/35/4
f 28/35/4 27/36/4 3/33/4
f 4/37/3 3/29/3 27/32/3
f 27/32/3 26/38/3 4/37/3
f 5/39/4 4/33/4 26/36/4
f 26/36/4 25/40/4 5/39/4
f 6/41/5 5/42/5 25/43/5
f 25/43/5 24/44/5 6/41/5
f 7/45/6 6/46/6 24/47/6
f 24/47/6 23/48/6 7/45/6
f 8/49/5 7/41/5 23/44/5
f 23/44/5 22/50/5 8/49/5
f 9/51/6 8/45/6 22/48/6
f 22/48/6 21/52/6 9/51/6
f 10/53/5 9/49/5 21/50/5
f 21/50/5 20/54/5 10/53/5
f 11/39/4 10/55/4 20/56/4
f 20/56/4 19/40/4 11/39/4
f 12/57/5 11/53/5 19/54/5
f 19/54/5 18/58/5 12/57/5
f 13/59/6 12/46/6 18/47/6
f 18/47/6 17/60/6 13/59/6
f 14/30/3 13/61/3 17/62/3
f 17/62/3 16/31/3 14/30/3
f 1/63/6 14/59/6 16/60/6
f 16/60/6 15/64/6 1/63/6
