## ElementId 129555
## Vertice Count:43
## Triangle Count:94
mtllib 129555.mtl
o 129555

v -2.5164 5.3 4.5011
v -2.3164 5.3 4.5011
v 2.8836 5.3 4.5011
v 3.0836 5.3 4.5011
v 7.2836 5.3 4.5011
v 7.4836 5.3 4.5011
v 7.4836 8.3476 4.5011
v 7.4836 8.5 4.5011
v 7.2836 8.5 4.5011
v 3.0836 8.5 4.5011
v 2.8836 8.5 4.5011
v -2.5164 8.5 4.5011
v 6.4336 8.1 4.5011
v 6.4336 6.3 4.5011
v 3.9336 6.3 4.5011
v 3.9336 8.1 4.5011
v -1.0164 8.1 4.5011
v -1.0164 6.3 4.5011
v -1.9164 6.3 4.5011
v -1.9164 8.1 4.5011
v 2.2336 8.1 4.5011
v 2.2336 6.3 4.5011
v 0.2336 6.3 4.5011
v 0.2336 8.1 4.5011
v 7.4836 5.3 4.3011
v -2.3164 5.3 4.3011
v -2.5164 5.3 4.3011
v -2.5164 8.5 4.3011
v -2.3964 8.5 4.3011
v 7.4836 8.5 4.3011
v 7.4836 8.3476 4.3011
v 6.4336 6.3 4.3011
v 6.4336 8.1 4.3011
v 3.9336 8.1 4.3011
v 3.9336 6.3 4.3011
v -1.0164 6.3 4.3011
v -1.0164 8.1 4.3011
v -1.9164 8.1 4.3011
v -1.9164 6.3 4.3011
v 2.2336 6.3 4.3011
v 2.2336 8.1 4.3011
v 0.2336 8.1 4.3011
v 0.2336 6.3 4.3011
vt -0.06 0
vt 0.14 0
vt 5.34 0
vt 5.54 0
vt 9.74 0
vt 9.94 0
vt 9.94 3.0476
vt 9.94 3.2
vt 9.74 3.2
vt 5.54 3.2
vt 5.34 3.2
vt -0.06 3.2
vt 8.89 2.8
vt 8.89 1
vt 6.39 1
vt 6.39 2.8
vt 1.44 2.8
vt 1.44 1
vt 0.54 1
vt 0.54 2.8
vt 4.69 2.8
vt 4.69 1
vt 2.69 1
vt 2.69 2.8
vt -9.94 0
vt -0.14 0
vt 0.06 0
vt 0.06 3.2
vt -9.94 3.2
vt -9.94 3.0476
vt -8.89 1
vt -8.89 2.8
vt -6.39 2.8
vt -6.39 1
vt -1.44 1
vt -1.44 2.8
vt -0.54 2.8
vt -0.54 1
vt -4.69 1
vt -4.69 2.8
vt -2.69 2.8
vt -2.69 1
vt 9.94 0.1
vt 9.74 0.1
vt 5.54 0.1
vt 5.34 0.1
vt 0.14 0.1
vt -0.06 0.1
vt -0.06 -0.1
vt 0.14 -0.1
vt 9.94 -0.1
vt 5.34 -0.1
vt 5.54 -0.1
vt 9.74 -0.1
vt 0.06 0.1
vt 0.1 5.3
vt 0.1 8.5
vt -0.1 8.5
vt -0.1 5.3
vt -0.1 0
vt 0.1 0
vt 0.1 3.0476
vt 0.1 3.2
vt -0.1 3.2
vt -0.1 3.0476
vt -0.1 2.8
vt -0.1 1
vt 0.1 1
vt 0.1 2.8
vt 6.39 -0.1
vt 8.89 -0.1
vt 8.89 0.1
vt 6.39 0.1
vt 0.54 -0.1
vt 1.44 -0.1
vt 1.44 0.1
vt 0.54 0.1
vt 2.69 -0.1
vt 4.69 -0.1
vt 4.69 0.1
vt 2.69 0.1
vn 0 0 0.3048
vn 0 0 -0.3048
vn 0 -0.3048 0
vn 0 0.3048 0
vn -0.3048 0 0
vn 0.3048 0 0

usemtl 197629
f 1/1/1 2/2/1 19/19/1
f 19/19/1 2/2/1 18/18/1
f 1/1/1 19/19/1 12/12/1
f 2/2/1 23/23/1 18/18/1
f 23/23/1 2/2/1 3/3/1
f 23/23/1 3/3/1 22/22/1
f 24/24/1 18/18/1 23/23/1
f 12/12/1 20/20/1 17/17/1
f 20/20/1 12/12/1 19/19/1
f 12/12/1 17/17/1 24/24/1
f 24/24/1 17/17/1 18/18/1
f 16/16/1 21/21/1 22/22/1
f 12/12/1 24/24/1 11/11/1
f 11/11/1 24/24/1 21/21/1
f 22/22/1 3/3/1 4/4/1
f 16/16/1 22/22/1 15/15/1
f 15/15/1 4/4/1 14/14/1
f 21/21/1 16/16/1 10/10/1
f 14/14/1 5/5/1 6/6/1
f 5/5/1 14/14/1 4/4/1
f 14/14/1 6/6/1 7/7/1
f 10/10/1 11/11/1 21/21/1
f 10/10/1 16/16/1 13/13/1
f 10/10/1 13/13/1 9/9/1
f 9/9/1 7/7/1 8/8/1
f 7/7/1 9/9/1 13/13/1
f 13/13/1 14/14/1 7/7/1
f 15/15/1 22/22/1 4/4/1

usemtl 31
f 25/25/2 32/31/2 31/30/2
f 32/31/2 25/25/2 35/34/2
f 40/39/2 35/34/2 25/25/2
f 25/25/2 26/26/2 40/39/2
f 34/33/2 35/34/2 40/39/2
f 30/29/2 31/30/2 33/32/2
f 34/33/2 40/39/2 41/40/2
f 34/33/2 41/40/2 30/29/2
f 33/32/2 34/33/2 30/29/2
f 31/30/2 32/31/2 33/32/2
f 30/29/2 41/40/2 29/12/2
f 42/41/2 43/42/2 36/35/2
f 36/35/2 43/42/2 26/26/2
f 39/38/2 26/26/2 27/27/2
f 26/26/2 39/38/2 36/35/2
f 39/38/2 27/27/2 28/28/2
f 43/42/2 40/39/2 26/26/2
f 42/41/2 37/36/2 29/12/2
f 42/41/2 36/35/2 37/36/2
f 38/37/2 28/28/2 29/12/2
f 28/28/2 38/37/2 39/38/2
f 38/37/2 29/12/2 37/36/2
f 42/41/2 29/12/2 41/40/2
f 2/47/3 1/48/3 26/50/3
f 6/43/3 5/44/3 25/51/3
f 26/50/3 3/46/3 2/47/3
f 4/45/3 3/46/3 25/51/3
f 25/51/3 3/46/3 26/50/3
f 4/45/3 25/51/3 5/44/3
f 26/50/3 1/48/3 27/49/3
f 10/53/4 9/54/4 30/43/4
f 9/54/4 8/51/4 30/43/4
f 11/52/4 30/43/4 29/55/4
f 30/43/4 11/52/4 10/53/4
f 28/48/4 12/49/4 29/55/4
f 29/55/4 12/49/4 11/52/4
f 7/65/6 6/60/6 25/61/6
f 8/64/6 7/65/6 31/62/6
f 25/61/6 31/62/6 7/65/6
f 31/62/6 30/63/6 8/64/6
f 33/66/5 32/67/5 14/68/5
f 14/68/5 13/69/5 33/66/5
f 34/70/3 33/71/3 13/72/3
f 13/72/3 16/73/3 34/70/3
f 35/68/6 34/69/6 16/66/6
f 16/66/6 15/67/6 35/68/6
f 32/72/4 35/73/4 14/71/4
f 15/70/4 14/71/4 35/73/4
f 37/66/5 36/67/5 18/68/5
f 18/68/5 17/69/5 37/66/5
f 38/74/3 37/75/3 20/77/3
f 17/76/3 20/77/3 37/75/3
f 39/68/6 38/69/6 20/66/6
f 20/66/6 19/67/6 39/68/6
f 36/76/4 39/77/4 19/74/4
f 19/74/4 18/75/4 36/76/4
f 41/66/5 40/67/5 22/68/5
f 22/68/5 21/69/5 41/66/5
f 42/78/3 41/79/3 21/80/3
f 21/80/3 24/81/3 42/78/3
f 43/68/6 42/69/6 24/66/6
f 24/66/6 23/67/6 43/68/6
f 40/80/4 43/81/4 22/79/4
f 23/78/4 22/79/4 43/81/4

usemtl 90484
f 28/58/5 27/59/5 1/56/5
f 1/56/5 12/57/5 28/58/5
