## ElementId 129554
## Vertice Count:22
## Triangle Count:40
mtllib 129554.mtl
o 129554

v -2.3164 11.7 15.5011
v -2.3164 9.1238 15.5011
v -2.3164 8.5 15.5011
v -2.3164 5.3 15.5011
v -2.3164 5.3 10.9011
v -2.3164 5.3 10.7011
v -2.3164 5.3 8.2711
v -2.3164 5.3 8.0711
v -2.3164 5.3 4.5011
v -2.3164 11.7 4.5011
v -2.3164 11.7 8.0711
v -2.3164 11.7 8.2711
v -2.3164 11.7 10.7011
v -2.3164 11.7 10.9011
v -2.3164 11.7 15.4011
v -2.5164 5.3 15.5011
v -2.5164 8.5 15.5011
v -2.5164 11.7 15.5011
v -2.5164 11.7 4.5011
v -2.5164 8.5 4.5011
v -2.5164 5.3 4.5011
v -2.3964 11.7 15.5011
vt 0 6.4
vt 0 3.8238
vt 0 3.2
vt 0 0
vt 4.6 0
vt 4.8 0
vt 7.23 0
vt 7.43 0
vt 11 0
vt 11 6.4
vt 7.43 6.4
vt 7.23 6.4
vt 4.8 6.4
vt 4.6 6.4
vt 0.1 6.4
vt -11 6.4
vt -11 3.2
vt -11 0
vt 11 0.1
vt 7.43 0.1
vt 7.23 0.1
vt 4.8 0.1
vt 4.6 0.1
vt 0 0.1
vt 0 -0.1
vt 11 -0.1
vt 0.1 -0.1
vt 4.6 -0.1
vt 4.8 -0.1
vt 7.23 -0.1
vt 7.43 -0.1
vt 0 -0.02
vt 0.02 6.4
vt -0.1 6.4
vt -0.1 3.2
vt -0.1 0
vt 0.1 0
vt 0.1 3.2
vt 0.1 3.8238
vn 0.3048 0 0
vn -0.3048 0 0
vn 0 -0.3048 0
vn 0 0.3048 0
vn 0 0 0.3048
vn 0 0 -0.3048

usemtl 90484
f 4/4/1 5/5/1 3/3/1
f 3/3/1 5/5/1 14/14/1
f 1/1/1 2/2/1 15/15/1
f 14/14/1 15/15/1 2/2/1
f 2/2/1 3/3/1 14/14/1
f 5/5/1 6/6/1 14/14/1
f 6/6/1 7/7/1 12/12/1
f 7/7/1 8/8/1 11/11/1
f 11/11/1 8/8/1 9/9/1
f 12/12/1 13/13/1 6/6/1
f 11/11/1 12/12/1 7/7/1
f 9/9/1 10/10/1 11/11/1
f 6/6/1 13/13/1 14/14/1
f 20/17/2 21/18/2 16/4/2
f 19/16/2 20/17/2 18/1/2
f 16/4/2 17/3/2 20/17/2
f 17/3/2 18/1/2 20/17/2
f 21/26/3 9/19/3 8/20/3
f 8/20/3 7/21/3 21/26/3
f 5/23/3 16/25/3 6/22/3
f 16/25/3 5/23/3 4/24/3
f 6/22/3 21/26/3 7/21/3
f 21/26/3 6/22/3 16/25/3
f 12/30/4 11/31/4 19/19/4
f 22/32/4 1/25/4 15/27/4
f 11/31/4 10/26/4 19/19/4
f 13/29/4 19/19/4 18/24/4
f 19/19/4 13/29/4 12/30/4
f 18/24/4 22/32/4 15/27/4
f 18/24/4 14/28/4 13/29/4
f 18/24/4 15/27/4 14/28/4
f 3/38/5 2/39/5 17/35/5
f 4/37/5 3/38/5 17/35/5
f 2/39/5 1/15/5 22/33/5
f 18/34/5 17/35/5 2/39/5
f 16/36/5 4/37/5 17/35/5
f 2/39/5 22/33/5 18/34/5
f 10/34/6 9/36/6 20/38/6
f 21/37/6 20/38/6 9/36/6
f 19/15/6 10/34/6 20/38/6
