## ElementId 129557
## Vertice Count:18
## Triangle Count:32
mtllib 129557.mtl
o 129557

v 1.3836 5.3 10.9011
v 1.3836 5.3 11.6511
v 1.3836 7.4 11.6511
v 1.3836 7.4 12.5511
v 1.3836 5.3 12.5511
v 1.3836 5.3 15.5011
v 1.3836 8.5 15.5011
v 1.3836 8.5 10.9011
v 1.5836 7.4 11.6511
v 1.5836 5.3 11.6511
v 1.5836 5.3 10.9011
v 1.5836 8.5 10.9011
v 1.5836 8.5 15.4011
v 1.5836 8.5 15.5011
v 1.5836 5.3 15.5011
v 1.5836 5.3 15.4011
v 1.5836 5.3 12.5511
v 1.5836 7.4 12.5511
vt 0.1 0
vt 0.85 0
vt 0.85 2.1
vt 1.75 2.1
vt 1.75 0
vt 4.7 0
vt 4.7 3.2
vt 0.1 3.2
vt -0.85 2.1
vt -0.85 0
vt -0.1 0
vt -0.1 3.2
vt -4.6 3.2
vt -4.7 3.2
vt -4.7 0
vt -4.6 0
vt -1.75 0
vt -1.75 2.1
vt 0.1 -0.1
vt 0.85 -0.1
vt 0.85 0.1
vt 0.1 0.1
vt 1.75 -0.1
vt 4.6 -0.1
vt 4.7 -0.1
vt 4.7 0.1
vt 1.75 0.1
vt 4.6 0.1
vt -0.1 2.1
vt 0.1 2.1
vn -0.3048 0 0
vn 0.3048 0 0
vn 0 -0.3048 0
vn 0 0 0.3048
vn 0 0.3048 0
vn 0 0 -0.3048

usemtl 90484
f 1/1/1 2/2/1 3/3/1
f 8/8/1 3/3/1 4/4/1
f 3/3/1 8/8/1 1/1/1
f 5/5/1 6/6/1 4/4/1
f 4/4/1 7/7/1 8/8/1
f 7/7/1 4/4/1 6/6/1
f 15/15/2 16/16/2 13/13/2
f 15/15/2 13/13/2 14/14/2
f 13/13/2 16/16/2 18/18/2
f 13/13/2 18/18/2 12/12/2
f 16/16/2 17/17/2 18/18/2
f 10/10/2 11/11/2 9/9/2
f 9/9/2 11/11/2 12/12/2
f 9/9/2 12/12/2 18/18/2

usemtl 31
f 2/21/3 1/22/3 10/20/3
f 11/19/3 10/20/3 1/22/3
f 6/26/3 5/27/3 16/24/3
f 16/24/3 15/25/3 6/26/3
f 16/24/3 5/27/3 17/23/3
f 7/12/4 6/11/4 15/1/4
f 15/1/4 14/8/4 7/12/4
f 8/19/5 7/25/5 13/28/5
f 14/26/5 13/28/5 7/25/5
f 13/28/5 12/22/5 8/19/5
f 11/11/6 1/1/6 8/8/6
f 8/8/6 12/12/6 11/11/6
f 3/29/4 2/11/4 10/1/4
f 10/1/4 9/30/4 3/29/4
f 4/27/3 3/21/3 18/23/3
f 9/20/3 18/23/3 3/21/3
f 5/1/6 4/30/6 18/29/6
f 18/29/6 17/11/6 5/1/6
