## ElementId 129561
## Vertice Count:16
## Triangle Count:28
mtllib 129561.mtl
o 129561

v 2.8836 7.4 7.9711
v 2.8836 5.3 7.9711
v 2.8836 5.3 8.0711
v 2.8836 8.5 8.0711
v 2.8836 8.5 4.5011
v 2.8836 5.3 4.5011
v 2.8836 5.3 7.0711
v 2.8836 7.4 7.0711
v 3.0836 5.3 8.0711
v 3.0836 5.3 7.9711
v 3.0836 7.4 7.9711
v 3.0836 7.4 7.0711
v 3.0836 5.3 7.0711
v 3.0836 5.3 4.5011
v 3.0836 8.5 4.5011
v 3.0836 8.5 8.0711
vt 3.57 2.1
vt 3.57 0
vt 3.67 0
vt 3.67 3.2
vt 0.1 3.2
vt 0.1 0
vt 2.67 0
vt 2.67 2.1
vt -3.67 0
vt -3.57 0
vt -3.57 2.1
vt -2.67 2.1
vt -2.67 0
vt -0.1 0
vt -0.1 3.2
vt -3.67 3.2
vt 3.67 0.1
vt 3.57 0.1
vt 3.57 -0.1
vt 3.67 -0.1
vt 2.67 0.1
vt 0.1 0.1
vt 0.1 -0.1
vt 2.67 -0.1
vt -0.1 2.1
vt 0.1 2.1
vn -0.3048 0 0
vn 0.3048 0 0
vn 0 -0.3048 0
vn 0 0.3048 0
vn 0 0 -0.3048
vn 0 0 0.3048

usemtl 90484
f 6/6/1 7/7/1 8/8/1
f 5/5/1 8/8/1 4/4/1
f 8/8/1 5/5/1 6/6/1
f 2/2/1 3/3/1 1/1/1
f 1/1/1 4/4/1 8/8/1
f 4/4/1 1/1/1 3/3/1
f 9/9/2 10/10/2 11/11/2
f 16/16/2 11/11/2 12/12/2
f 11/11/2 16/16/2 9/9/2
f 13/13/2 14/14/2 12/12/2
f 12/12/2 15/15/2 16/16/2
f 15/15/2 12/12/2 14/14/2
f 3/17/3 2/18/3 9/20/3
f 10/19/3 9/20/3 2/18/3
f 7/21/3 6/22/3 14/23/3
f 14/23/3 13/24/3 7/21/3
f 5/23/4 4/20/4 16/17/4
f 16/17/4 15/22/4 5/23/4
f 14/14/5 6/6/5 5/5/5
f 5/5/5 15/15/5 14/14/5
f 3/14/6 9/6/6 16/5/6
f 16/5/6 4/15/6 3/14/6
f 11/25/5 10/14/5 2/6/5
f 2/6/5 1/26/5 11/25/5
f 12/24/3 11/19/3 8/21/3
f 1/18/3 8/21/3 11/19/3
f 13/6/6 12/26/6 8/25/6
f 8/25/6 7/14/6 13/6/6
