## ElementId 130457
## Vertice Count:12
## Triangle Count:20
mtllib 130457.mtl
o 130457

v 3.0836 5.3 12.9011
v 7.2836 5.3 12.9011
v 7.2836 8.5 12.9011
v 3.0836 8.5 12.9011
v 3.0836 5.3 12.7011
v 3.0836 8.5 12.7011
v 4.9236 8.5 12.7011
v 5.0436 8.5 12.7011
v 7.2836 8.5 12.7011
v 7.2836 5.3 12.7011
v 5.0436 5.3 12.7011
v 4.9236 5.3 12.7011
vt 0.1 0
vt 4.3 0
vt 4.3 3.2
vt 0.1 3.2
vt -0.1 0
vt -0.1 3.2
vt -1.94 3.2
vt -2.06 3.2
vt -4.3 3.2
vt -4.3 0
vt -2.06 0
vt -1.94 0
vt 4.3 0.1
vt 0.1 0.1
vt 0.1 -0.1
vt 1.94 -0.1
vt 2.06 -0.1
vt 4.3 -0.1
vt 2.06 0.1
vt 1.94 0.1
vn 0 0 0.3048
vn 0 0 -0.3048
vn 0 -0.3048 0
vn 0 0.3048 0
vn 0.3048 0 0
vn -0.3048 0 0

usemtl 90484
f 4/4/1 1/1/1 2/2/1
f 2/2/1 3/3/1 4/4/1
f 10/10/2 11/11/2 9/9/2
f 8/8/2 9/9/2 11/11/2
f 11/11/2 7/7/2 8/8/2
f 12/12/2 5/5/2 6/6/2
f 6/6/2 7/7/2 12/12/2
f 12/12/2 7/7/2 11/11/2

usemtl 31
f 2/13/3 1/14/3 11/17/3
f 11/17/3 1/14/3 12/16/3
f 2/13/3 11/17/3 10/18/3
f 5/15/3 12/16/3 1/14/3
f 4/15/4 3/18/4 8/19/4
f 8/19/4 3/18/4 9/13/4
f 4/15/4 8/19/4 7/20/4
f 7/20/4 6/14/4 4/15/4
f 2/5/5 10/1/5 9/4/5
f 9/4/5 3/6/5 2/5/5
f 5/5/6 1/1/6 4/4/6
f 4/4/6 6/6/6 5/5/6
