## ElementId 131711
## Vertice Count:30
## Triangle Count:64
mtllib 131711.mtl
o 131711

v -2.5164 11.7 4.5011
v -2.5164 8.5 4.5011
v 2.8836 8.5 4.5011
v 3.0836 8.5 4.5011
v 3.0836 11.3 4.5011
v 3.0836 11.7 4.5011
v 2.8836 11.7 4.5011
v -2.3164 11.7 4.5011
v -1.0164 9.5 4.5011
v -1.9164 9.5 4.5011
v -1.9164 11.3 4.5011
v -1.0164 11.3 4.5011
v 2.3836 9.5 4.5011
v 0.3836 9.5 4.5011
v 0.3836 11.3 4.5011
v 2.3836 11.3 4.5011
v -2.5164 8.5 4.3011
v -2.5164 9.5 4.3011
v -2.5164 11.7 4.3011
v 3.0836 11.7 4.3011
v 3.0836 11.3 4.3011
v 3.0836 8.5 4.3011
v -1.0164 9.5 4.3011
v -1.0164 11.3 4.3011
v -1.9164 11.3 4.3011
v -1.9164 9.5 4.3011
v 2.3836 9.5 4.3011
v 2.3836 11.3 4.3011
v 0.3836 11.3 4.3011
v 0.3836 9.5 4.3011
vt -0.06 3.2
vt -0.06 0
vt 5.34 0
vt 5.54 0
vt 5.54 2.8
vt 5.54 3.2
vt 5.34 3.2
vt 0.14 3.2
vt 1.44 1
vt 0.54 1
vt 0.54 2.8
vt 1.44 2.8
vt 4.84 1
vt 2.84 1
vt 2.84 2.8
vt 4.84 2.8
vt 0.06 0
vt 0.06 1
vt 0.06 3.2
vt -5.54 3.2
vt -5.54 2.8
vt -5.54 0
vt -1.44 1
vt -1.44 2.8
vt -0.54 2.8
vt -0.54 1
vt -4.84 1
vt -4.84 2.8
vt -2.84 2.8
vt -2.84 1
vt 5.54 0.1
vt 5.34 0.1
vt -0.06 0.1
vt -0.06 -0.1
vt 5.54 -0.1
vt 0.14 -0.1
vt 5.34 -0.1
vt -0.1 3.2
vt -0.1 2.8
vt 0.1 2.8
vt 0.1 3.2
vt -0.1 0
vt 0.1 0
vt 0.1 11.7
vt -0.1 11.7
vt -0.1 9.5
vt -0.1 8.5
vt 0.1 8.5
vt -0.1 1
vt 0.1 1
vt 0.54 -0.1
vt 1.44 -0.1
vt 1.44 0.1
vt 0.54 0.1
vt 2.84 -0.1
vt 4.84 -0.1
vt 4.84 0.1
vt 2.84 0.1
vn 0 0 0.3048
vn 0 0 -0.3048
vn 0 -0.3048 0
vn 0 0.3048 0
vn 0.3048 0 0
vn -0.3048 0 0

usemtl 90484
f 2/2/1 10/10/1 1/1/1
f 10/10/1 2/2/1 9/9/1
f 14/14/1 9/9/1 2/2/1
f 2/2/1 3/3/1 14/14/1
f 12/12/1 9/9/1 14/14/1
f 8/8/1 1/1/1 11/11/1
f 11/11/1 12/12/1 8/8/1
f 1/1/1 10/10/1 11/11/1
f 8/8/1 12/12/1 15/15/1
f 14/14/1 15/15/1 12/12/1
f 3/3/1 4/4/1 13/13/1
f 14/14/1 3/3/1 13/13/1
f 13/13/1 4/4/1 5/5/1
f 16/16/1 7/7/1 15/15/1
f 7/7/1 16/16/1 5/5/1
f 5/5/1 6/6/1 7/7/1
f 16/16/1 13/13/1 5/5/1
f 15/15/1 7/7/1 8/8/1
f 22/22/2 30/30/2 27/27/2
f 30/30/2 22/22/2 17/17/2
f 22/22/2 27/27/2 21/21/2
f 20/20/2 21/21/2 28/28/2
f 28/28/2 29/29/2 20/20/2
f 28/28/2 21/21/2 27/27/2
f 20/20/2 29/29/2 19/19/2
f 30/30/2 24/24/2 29/29/2
f 26/26/2 17/17/2 18/18/2
f 17/17/2 26/26/2 23/23/2
f 26/26/2 18/18/2 25/25/2
f 23/23/2 24/24/2 30/30/2
f 25/25/2 19/19/2 24/24/2
f 18/18/2 19/19/2 25/25/2
f 24/24/2 19/19/2 29/29/2
f 17/17/2 23/23/2 30/30/2
f 3/32/3 17/34/3 22/35/3
f 17/34/3 3/32/3 2/33/3
f 3/32/3 22/35/3 4/31/3
f 1/34/4 8/36/4 19/33/4
f 7/37/4 20/31/4 19/33/4
f 20/31/4 7/37/4 6/35/4
f 7/37/4 19/33/4 8/36/4
f 6/38/5 5/39/5 21/40/5
f 21/40/5 20/41/5 6/38/5
f 5/39/5 4/42/5 22/43/5
f 22/43/5 21/40/5 5/39/5
f 18/46/6 2/48/6 1/44/6
f 2/48/6 18/46/6 17/47/6
f 18/46/6 1/44/6 19/45/6
f 24/39/6 23/49/6 9/50/6
f 9/50/6 12/40/6 24/39/6
f 25/51/3 24/52/3 11/54/3
f 12/53/3 11/54/3 24/52/3
f 26/50/5 25/40/5 11/39/5
f 11/39/5 10/49/5 26/50/5
f 23/53/4 26/54/4 10/51/4
f 10/51/4 9/52/4 23/53/4
f 28/39/6 27/49/6 13/50/6
f 13/50/6 16/40/6 28/39/6
f 29/55/3 28/56/3 16/57/3
f 16/57/3 15/58/3 29/55/3
f 30/50/5 29/40/5 15/39/5
f 15/39/5 14/49/5 30/50/5
f 27/57/4 30/58/4 13/56/4
f 14/55/4 13/56/4 30/58/4
