## ElementId 131717
## Vertice Count:9
## Triangle Count:14
mtllib 131717.mtl
o 131717

v 2.8836 11.7 4.5011
v 2.8836 8.5 4.5011
v 2.8836 8.5 8.0711
v 2.8836 11.7 8.0711
v 3.0836 8.5 4.5011
v 3.0836 11.3 4.5011
v 3.0836 11.7 4.5011
v 3.0836 11.7 8.0711
v 3.0836 8.5 8.0711
vt 0.1 3.2
vt 0.1 0
vt 3.67 0
vt 3.67 3.2
vt -0.1 0
vt -0.1 2.8
vt -0.1 3.2
vt -3.67 3.2
vt -3.67 0
vt 3.67 0.1
vt 0.1 0.1
vt 0.1 -0.1
vt 3.67 -0.1
vn -0.3048 0 0
vn 0.3048 0 0
vn 0 -0.3048 0
vn 0 0.3048 0
vn 0 0 0.3048
vn 0 0 -0.3048

usemtl 90484
f 1/1/1 2/2/1 4/4/1
f 3/3/1 4/4/1 2/2/1
f 8/8/2 9/9/2 6/6/2
f 5/5/2 6/6/2 9/9/2
f 6/6/2 7/7/2 8/8/2
f 3/10/3 2/11/3 5/12/3
f 5/12/3 9/13/3 3/10/3
f 1/12/4 4/13/4 8/10/4
f 8/10/4 7/11/4 1/12/4
f 3/5/5 9/2/5 8/1/5
f 8/1/5 4/7/5 3/5/5
f 6/6/6 2/2/6 1/1/6
f 2/2/6 6/6/6 5/5/6
f 1/1/6 7/7/6 6/6/6
