## ElementId 134263
## Vertice Count:24
## Triangle Count:44
mtllib 134263.mtl
o 134263

v 6.1136 9.6 4.2711
v 6.1136 9.48 4.2711
v 6.1136 9.48 4.5311
v 6.1136 9.6 4.5311
v 7.5136 9.6 4.2711
v 7.2536 9.6 4.5311
v 7.2536 9.48 4.5311
v 7.5136 9.48 4.2711
v 3.0836 8.62 4.3011
v 3.0836 8.5 4.3011
v 3.0836 8.5 4.5011
v 3.0836 8.62 4.5011
v 7.4836 8.62 4.3011
v 7.2836 8.62 4.5011
v 7.2836 8.5 4.5011
v 7.4836 8.5 4.3011
v 6.1436 8.62 4.3011
v 6.1436 8.62 4.5011
v 6.1436 9.48 4.5011
v 7.4836 8.62 4.5011
v 7.4836 9.48 4.5011
v 7.2836 9.48 4.5011
v 6.1436 9.48 4.3011
v 7.4836 9.48 4.3011
vt -0.13 0.06
vt -0.13 -0.06
vt 0.13 -0.06
vt 0.13 0.06
vt 1.0112 0
vt 0.6435 0
vt 0.6435 -0.12
vt 1.0112 -0.12
vt 0 0.12
vt 0 0
vt 1.4 0
vt 1.4 0.12
vt 0 0.23
vt 0 -0.03
vt 1.4 -0.03
vt 1.14 0.23
vt 0 -0.12
vt 1.14 -0.12
vt 1.14 0
vt 0 0.03
vt 0 -0.23
vt 1.14 -0.23
vt 1.4 0.03
vt -0.1 0.06
vt -0.1 -0.06
vt 0.1 -0.06
vt 0.1 0.06
vt 3.1113 0
vt 2.8284 0
vt 2.8284 -0.12
vt 3.1113 -0.12
vt 3.06 0
vt 4.4 0
vt 4.4 0.12
vt 0 0.2
vt 4.2 0.2
vt 4.2 -0.12
vt 4.2 0
vt 0 -0.2
vt 3.06 -0.2
vt 4.2 -0.2
vt 3.16 0.98
vt 3.16 0.12
vt 4.3 0.12
vt 4.5 0.12
vt 4.5 0.98
vt 4.3 0.98
vt -3.16 0.12
vt -3.16 0.98
vt -4.5 0.98
vt -4.5 0.12
vt 0.1 0.12
vt 0.1 0.98
vt -0.1 0.98
vt -0.1 0.12
vt 4.5 0.1
vt 4.3 0.1
vt 3.16 0.1
vt 3.16 -0.1
vt 4.5 -0.1
vt 4.3 -0.1
vn -0.3048 0 0
vn 0.2155 0 0.2155
vn 0 0 -0.3048
vn 0 -0.3048 0
vn 0 0 0.3048
vn 0 0.3048 0
vn 0.3048 0 0

usemtl 54872
f 1/1/1 3/3/1 4/4/1
f 3/3/1 1/1/1 2/2/1
f 8/8/2 5/5/2 7/7/2
f 6/6/2 7/7/2 5/5/2
f 2/9/3 1/10/3 5/11/3
f 5/11/3 8/12/3 2/9/3
f 3/13/4 2/14/4 7/16/4
f 8/15/4 7/16/4 2/14/4
f 4/10/5 3/17/5 7/18/5
f 7/18/5 6/19/5 4/10/5
f 1/20/6 4/21/6 6/22/6
f 6/22/6 5/23/6 1/20/6
f 10/25/1 11/26/1 12/27/1
f 12/27/1 9/24/1 10/25/1
f 16/31/2 13/28/2 15/30/2
f 14/29/2 15/30/2 13/28/2
f 10/9/3 9/10/3 17/32/3
f 17/32/3 13/33/3 16/34/3
f 17/32/3 16/34/3 10/9/3
f 11/35/4 10/10/4 15/36/4
f 16/33/4 15/36/4 10/10/4
f 12/10/5 11/17/5 18/32/5
f 18/32/5 15/37/5 14/38/5
f 15/37/5 18/32/5 11/17/5
f 9/10/6 12/39/6 18/40/6
f 9/10/6 18/40/6 17/32/6
f 17/32/6 14/41/6 13/33/6
f 14/41/6 17/32/6 18/40/6

usemtl 31
f 19/42/5 18/43/5 14/44/5
f 19/42/5 14/44/5 22/47/5
f 22/47/5 20/45/5 21/46/5
f 20/45/5 22/47/5 14/44/5
f 24/50/3 13/51/3 17/48/3
f 17/48/3 23/49/3 24/50/3
f 18/52/1 19/53/1 17/55/1
f 23/54/1 17/55/1 19/53/1
f 21/54/7 20/55/7 13/52/7
f 13/52/7 24/53/7 21/54/7
f 14/57/4 18/58/4 17/59/4
f 13/60/4 20/56/4 14/57/4
f 17/59/4 13/60/4 14/57/4
f 22/61/6 23/58/6 19/59/6
f 21/60/6 24/56/6 22/61/6
f 23/58/6 22/61/6 24/56/6
