## ElementId 135217
## Vertice Count:16
## Triangle Count:28
mtllib 135217.mtl
o 135217

v 5.0836 14.4 8.2711
v 5.0836 14.4 10.7011
v 5.0836 11.7 10.7011
v 5.0836 11.7 10.5311
v 5.0836 13.8 10.5311
v 5.0836 13.8 9.7311
v 5.0836 11.7 9.7311
v 5.0836 11.7 8.2711
v 4.8836 14.4 10.7011
v 4.8836 14.4 8.2711
v 4.8836 11.7 8.2711
v 4.8836 11.7 9.7311
v 4.8836 13.8 9.7311
v 4.8836 13.8 10.5311
v 4.8836 11.7 10.5311
v 4.8836 11.7 10.7011
vt 2.53 2.7
vt 0.1 2.7
vt 0.1 0
vt 0.27 0
vt 0.27 2.1
vt 1.07 2.1
vt 1.07 0
vt 2.53 0
vt -0.1 2.7
vt -2.53 2.7
vt -2.53 0
vt -1.07 0
vt -1.07 2.1
vt -0.27 2.1
vt -0.27 0
vt -0.1 0
vt 0.1 0.1
vt 0.1 -0.1
vt 0.27 -0.1
vt 0.27 0.1
vt 2.53 -0.1
vt 2.53 0.1
vt 1.07 0.1
vt 1.07 -0.1
vt 0.1 2.1
vt -0.1 2.1
vn 0.3048 0 0
vn -0.3048 0 0
vn 0 -0.3048 0
vn 0 0.3048 0
vn 0 0 0.3048
vn 0 0 -0.3048

usemtl 90484
f 3/3/1 4/4/1 5/5/1
f 2/2/1 5/5/1 6/6/1
f 5/5/1 2/2/1 3/3/1
f 7/7/1 8/8/1 6/6/1
f 6/6/1 1/1/1 2/2/1
f 1/1/1 6/6/1 8/8/1
f 11/11/2 12/12/2 13/13/2
f 10/10/2 13/13/2 9/9/2
f 13/13/2 10/10/2 11/11/2
f 15/15/2 16/16/2 14/14/2
f 14/14/2 9/9/2 13/13/2
f 9/9/2 14/14/2 16/16/2
f 4/20/3 3/17/3 16/18/3
f 16/18/3 15/19/3 4/20/3
f 8/22/3 7/23/3 12/24/3
f 12/24/3 11/21/3 8/22/3
f 2/18/4 1/21/4 9/17/4
f 10/22/4 9/17/4 1/21/4
f 16/16/5 3/3/5 2/2/5
f 2/2/5 9/9/5 16/16/5
f 8/16/6 11/3/6 10/2/6
f 10/2/6 1/9/6 8/16/6
f 5/26/6 15/3/6 14/25/6
f 15/3/6 5/26/6 4/16/6
f 5/20/3 14/19/3 13/24/3
f 13/24/3 6/23/3 5/20/3
f 6/25/5 13/26/5 12/16/5
f 12/16/5 7/3/5 6/25/5
