## ElementId 135207
## Vertice Count:46
## Triangle Count:104
mtllib 135207.mtl
o 135207

v 2.8836 11.7 14.2011
v -2.3164 11.7 14.2011
v -2.5164 11.7 14.2011
v -2.5164 14.9608 14.2011
v -2.3164 14.9608 14.2011
v 2.8836 14.9608 14.2011
v -0.0164 12.1 14.2011
v -0.0164 13.9 14.2011
v -0.9164 13.9 14.2011
v -0.9164 12.1 14.2011
v 1.1836 12.1 14.2011
v 1.1836 13.9 14.2011
v 0.2836 13.9 14.2011
v 0.2836 12.1 14.2011
v -1.2164 12.1 14.2011
v -1.2164 13.9 14.2011
v -2.1164 13.9 14.2011
v -2.1164 12.1 14.2011
v 1.7336 11.8 14.2011
v 2.6336 11.8 14.2011
v 2.6336 13.9 14.2011
v 1.7336 13.9 14.2011
v -2.5164 11.7 14.4011
v -2.3964 11.7 14.4011
v 2.8836 11.7 14.4011
v 2.8836 14.0766 14.4011
v 2.8836 14.886 14.4011
v -2.5164 14.886 14.4011
v -2.5164 13.0145 14.4011
v -0.0164 13.9 14.4011
v -0.0164 12.1 14.4011
v -0.9164 12.1 14.4011
v -0.9164 13.9 14.4011
v 1.1836 13.9 14.4011
v 1.1836 12.1 14.4011
v 0.2836 12.1 14.4011
v 0.2836 13.9 14.4011
v -1.2164 13.9 14.4011
v -1.2164 12.1 14.4011
v -2.1164 12.1 14.4011
v -2.1164 13.9 14.4011
v 1.7336 11.8 14.4011
v 1.7336 13.9 14.4011
v 2.6336 13.9 14.4011
v 2.6336 11.8 14.4011
v 2.8836 14.9234 14.3011
vt 0.1 0
vt 5.3 0
vt 5.5 0
vt 5.5 3.2608
vt 5.3 3.2608
vt 0.1 3.2608
vt 3 0.4
vt 3 2.2
vt 3.9 2.2
vt 3.9 0.4
vt 1.8 0.4
vt 1.8 2.2
vt 2.7 2.2
vt 2.7 0.4
vt 4.2 0.4
vt 4.2 2.2
vt 5.1 2.2
vt 5.1 0.4
vt 1.25 0.1
vt 0.35 0.1
vt 0.35 2.2
vt 1.25 2.2
vt -5.5 0
vt -5.38 0
vt -0.1 0
vt -0.1 2.3766
vt -0.1 3.1861
vt -5.5 3.1861
vt -5.5 1.3145
vt -3 2.2
vt -3 0.4
vt -3.9 0.4
vt -3.9 2.2
vt -1.8 2.2
vt -1.8 0.4
vt -2.7 0.4
vt -2.7 2.2
vt -4.2 2.2
vt -4.2 0.4
vt -5.1 0.4
vt -5.1 2.2
vt -1.25 0.1
vt -1.25 2.2
vt -0.35 2.2
vt -0.35 0.1
vt 5.5 0.1
vt 5.3 0.1
vt 0.1 0.1
vt 0.1 -0.1
vt 5.38 -0.1
vt 5.5 -0.1
vt 0.1 -1.2356
vt 5.3 -1.2356
vt 5.5 -1.2356
vt 5.5 -1.0221
vt 0.1 -1.0221
vt 0.1 -1.1289
vt 0.1 1.3145
vt 0.1 3.1861
vt -0.1 3.2608
vt 0 3.2234
vt -0.1 2.2
vt -0.1 0.4
vt 0.1 0.4
vt 0.1 2.2
vt 3.9 0.1
vt 3 0.1
vt 3 -0.1
vt 3.9 -0.1
vt 2.7 0.1
vt 1.8 0.1
vt 1.8 -0.1
vt 2.7 -0.1
vt 4.2 0.1
vt 4.2 -0.1
vt 5.1 -0.1
vt 5.1 0.1
vt 0.35 -0.1
vt 1.25 -0.1
vt -0.1 0.1
vn 0 0 -0.3048
vn 0 0 0.3048
vn 0 -0.3048 0
vn 0 0.2855 0.1067
vn -0.3048 0 0
vn 0.3048 0 0
vn 0 0.3048 0

usemtl 90484
f 1/1/1 20/20/1 21/21/1
f 20/20/1 1/1/1 19/19/1
f 19/19/1 14/14/1 11/11/1
f 14/14/1 19/19/1 7/7/1
f 1/1/1 2/2/1 19/19/1
f 22/22/1 19/19/1 11/11/1
f 6/6/1 21/21/1 22/22/1
f 21/21/1 6/6/1 1/1/1
f 6/6/1 22/22/1 12/12/1
f 6/6/1 13/13/1 5/5/1
f 12/12/1 22/22/1 11/11/1
f 7/7/1 8/8/1 13/13/1
f 13/13/1 6/6/1 12/12/1
f 5/5/1 13/13/1 8/8/1
f 13/13/1 14/14/1 7/7/1
f 16/16/1 10/10/1 15/15/1
f 15/15/1 10/10/1 2/2/1
f 18/18/1 2/2/1 3/3/1
f 2/2/1 18/18/1 15/15/1
f 18/18/1 3/3/1 17/17/1
f 10/10/1 7/7/1 2/2/1
f 10/10/1 16/16/1 9/9/1
f 9/9/1 16/16/1 5/5/1
f 17/17/1 4/4/1 5/5/1
f 4/4/1 17/17/1 3/3/1
f 17/17/1 5/5/1 16/16/1
f 9/9/1 5/5/1 8/8/1
f 2/2/1 7/7/1 19/19/1
f 23/23/2 24/24/2 40/40/2
f 39/39/2 40/40/2 24/24/2
f 32/32/2 39/39/2 24/24/2
f 38/38/2 39/39/2 32/32/2
f 24/24/2 31/31/2 32/32/2
f 23/23/2 40/40/2 29/29/2
f 28/28/2 29/29/2 41/41/2
f 29/29/2 40/40/2 41/41/2
f 28/28/2 41/41/2 38/38/2
f 32/32/2 33/33/2 38/38/2
f 38/38/2 33/33/2 28/28/2
f 28/28/2 33/33/2 30/30/2
f 24/24/2 42/42/2 31/31/2
f 37/37/2 30/30/2 31/31/2
f 35/35/2 36/36/2 42/42/2
f 42/42/2 25/25/2 45/45/2
f 25/25/2 42/42/2 24/24/2
f 35/35/2 42/42/2 43/43/2
f 36/36/2 31/31/2 42/42/2
f 44/44/2 45/45/2 25/25/2
f 35/35/2 43/43/2 34/34/2
f 27/27/2 37/37/2 34/34/2
f 34/34/2 43/43/2 27/27/2
f 27/27/2 28/28/2 37/37/2
f 44/44/2 26/26/2 27/27/2
f 26/26/2 44/44/2 25/25/2
f 44/44/2 27/27/2 43/43/2
f 37/37/2 28/28/2 30/30/2
f 37/37/2 31/31/2 36/36/2
f 2/47/3 1/48/3 25/49/3
f 3/46/3 2/47/3 24/50/3
f 25/49/3 24/50/3 2/47/3
f 24/50/3 23/51/3 3/46/3
f 4/54/4 28/55/4 5/53/4
f 5/53/4 28/55/4 27/56/4
f 27/56/4 46/57/4 5/53/4
f 46/57/4 6/52/4 5/53/4
f 4/60/5 3/25/5 29/58/5
f 23/1/5 29/58/5 3/25/5
f 29/58/5 28/59/5 4/60/5
f 26/26/6 6/6/6 46/61/6
f 1/1/6 6/6/6 26/26/6
f 1/1/6 26/26/6 25/25/6
f 46/61/6 27/27/6 26/26/6
f 8/62/5 7/63/5 30/65/5
f 31/64/5 30/65/5 7/63/5
f 9/66/3 8/67/3 30/68/3
f 30/68/3 33/69/3 9/66/3
f 10/64/6 9/65/6 32/63/6
f 33/62/6 32/63/6 9/65/6
f 7/68/7 10/69/7 31/67/7
f 32/66/7 31/67/7 10/69/7
f 12/62/5 11/63/5 34/65/5
f 35/64/5 34/65/5 11/63/5
f 13/70/3 12/71/3 34/72/3
f 34/72/3 37/73/3 13/70/3
f 14/64/6 13/65/6 36/63/6
f 37/62/6 36/63/6 13/65/6
f 11/72/7 14/73/7 35/71/7
f 36/70/7 35/71/7 14/73/7
f 15/63/5 39/64/5 38/65/5
f 38/65/5 16/62/5 15/63/5
f 17/77/3 38/75/3 41/76/3
f 38/75/3 17/77/3 16/74/3
f 17/65/6 41/62/6 40/63/6
f 40/63/6 18/64/6 17/65/6
f 18/76/7 40/77/7 39/74/7
f 39/74/7 15/75/7 18/76/7
f 20/78/7 19/79/7 42/19/7
f 42/19/7 45/20/7 20/78/7
f 21/62/5 20/80/5 45/48/5
f 45/48/5 44/65/5 21/62/5
f 22/19/3 21/20/3 43/79/3
f 44/78/3 43/79/3 21/20/3
f 19/48/6 22/65/6 43/62/6
f 43/62/6 42/80/6 19/48/6
