## ElementId 135216
## Vertice Count:36
## Triangle Count:72
mtllib 135216.mtl
o 135216

v -2.3164 16.1946 10.9011
v -2.3164 11.7 10.9011
v 1.7336 11.7 10.9011
v 1.7336 13.8 10.9011
v 2.6336 13.8 10.9011
v 2.6336 11.7 10.9011
v 2.8836 11.7 10.9011
v 3.0836 11.7 10.9011
v 7.2836 11.7 10.9011
v 7.2836 14.4 10.9011
v 3.0836 14.4 10.9011
v 3.0836 16.1946 10.9011
v 2.8836 16.1946 10.9011
v 4.1036 11.8 10.9011
v 3.2036 11.8 10.9011
v 3.2036 13.9 10.9011
v 4.1036 13.9 10.9011
v -2.3164 11.7 10.7011
v -2.3164 16.2694 10.7011
v 2.8836 16.2694 10.7011
v 3.0836 16.2694 10.7011
v 3.0836 14.4 10.7011
v 4.8836 14.4 10.7011
v 5.0836 14.4 10.7011
v 7.2836 14.4 10.7011
v 7.2836 11.7 10.7011
v 5.0836 11.7 10.7011
v 4.8836 11.7 10.7011
v 2.6336 11.7 10.7011
v 2.6336 13.8 10.7011
v 1.7336 13.8 10.7011
v 1.7336 11.7 10.7011
v 3.2036 11.8 10.7011
v 4.1036 11.8 10.7011
v 4.1036 13.9 10.7011
v 3.2036 13.9 10.7011
vt 0.1 4.4946
vt 0.1 0
vt 4.15 0
vt 4.15 2.1
vt 5.05 2.1
vt 5.05 0
vt 5.3 0
vt 5.5 0
vt 9.7 0
vt 9.7 2.7
vt 5.5 2.7
vt 5.5 4.4946
vt 5.3 4.4946
vt 6.52 0.1
vt 5.62 0.1
vt 5.62 2.2
vt 6.52 2.2
vt -0.1 0
vt -0.1 4.5694
vt -5.3 4.5694
vt -5.5 4.5694
vt -5.5 2.7
vt -7.3 2.7
vt -7.5 2.7
vt -9.7 2.7
vt -9.7 0
vt -7.5 0
vt -7.3 0
vt -5.05 0
vt -5.05 2.1
vt -4.15 2.1
vt -4.15 0
vt -5.62 0.1
vt -6.52 0.1
vt -6.52 2.2
vt -5.62 2.2
vt 0.1 0.1
vt 0.1 -0.1
vt 4.15 -0.1
vt 4.15 0.1
vt 9.7 -0.1
vt 9.7 0.1
vt 5.5 0.1
vt 5.3 0.1
vt 5.05 0.1
vt 5.05 -0.1
vt 7.3 -0.1
vt 7.5 -0.1
vt 0.1 2.7
vt -0.1 2.7
vt 7.5 0.1
vt 7.3 0.1
vt 5.5 -0.1
vt 0.1 4.5694
vt -0.1 4.4946
vt 0.1 1.4804
vt 5.3 1.4804
vt 5.5 1.4804
vt 5.5 1.6939
vt 5.3 1.6939
vt 0.1 1.6939
vt -0.1 2.1
vt 0.1 2.1
vt 6.52 -0.1
vt 5.62 -0.1
vt -0.1 0.1
vt 0.1 2.2
vt -0.1 2.2
vn 0 0 0.3048
vn 0 0 -0.3048
vn 0 -0.3048 0
vn -0.3048 0 0
vn 0.3048 0 0
vn 0 0.3048 0
vn 0 0.2855 0.1067

usemtl 90484
f 2/2/1 3/3/1 4/4/1
f 5/5/1 6/6/1 15/15/1
f 1/1/1 4/4/1 13/13/1
f 4/4/1 1/1/1 2/2/1
f 4/4/1 11/11/1 13/13/1
f 5/5/1 11/11/1 4/4/1
f 15/15/1 6/6/1 7/7/1
f 15/15/1 16/16/1 5/5/1
f 15/15/1 8/8/1 14/14/1
f 14/14/1 9/9/1 17/17/1
f 9/9/1 14/14/1 8/8/1
f 11/11/1 12/12/1 13/13/1
f 11/11/1 17/17/1 10/10/1
f 10/10/1 17/17/1 9/9/1
f 17/17/1 11/11/1 16/16/1
f 5/5/1 16/16/1 11/11/1
f 7/7/1 8/8/1 15/15/1
f 25/25/2 26/26/2 27/27/2
f 27/27/2 28/28/2 35/35/2
f 33/33/2 34/34/2 29/29/2
f 34/34/2 35/35/2 28/28/2
f 25/25/2 27/27/2 24/24/2
f 24/24/2 35/35/2 23/23/2
f 24/24/2 27/27/2 35/35/2
f 23/23/2 35/35/2 22/22/2
f 34/34/2 28/28/2 29/29/2
f 30/30/2 36/36/2 33/33/2
f 31/31/2 32/32/2 18/18/2
f 31/31/2 18/18/2 19/19/2
f 30/30/2 31/31/2 22/22/2
f 22/22/2 35/35/2 36/36/2
f 31/31/2 20/20/2 22/22/2
f 22/22/2 36/36/2 30/30/2
f 22/22/2 20/20/2 21/21/2
f 19/19/2 20/20/2 31/31/2
f 30/30/2 33/33/2 29/29/2
f 3/40/3 2/37/3 32/39/3
f 18/38/3 32/39/3 2/37/3
f 8/43/3 7/44/3 29/46/3
f 27/48/3 9/42/3 8/43/3
f 29/46/3 7/44/3 6/45/3
f 28/47/3 27/48/3 8/43/3
f 26/41/3 9/42/3 27/48/3
f 8/43/3 29/46/3 28/47/3
f 18/18/4 2/2/4 1/1/4
f 1/1/4 19/19/4 18/18/4
f 9/18/5 26/2/5 25/49/5
f 25/49/5 10/50/5 9/18/5
f 11/53/6 10/41/6 24/51/6
f 24/51/6 10/41/6 25/42/6
f 11/53/6 24/51/6 23/52/6
f 23/52/6 22/43/6 11/53/6
f 12/55/5 11/50/5 22/49/5
f 22/49/5 21/54/5 12/55/5
f 19/61/7 1/56/7 20/60/7
f 20/60/7 1/56/7 13/57/7
f 12/58/7 21/59/7 20/60/7
f 12/58/7 20/60/7 13/57/7
f 30/62/4 29/18/4 6/2/4
f 6/2/4 5/63/4 30/62/4
f 31/39/3 30/46/3 4/40/3
f 5/45/3 4/40/3 30/46/3
f 32/2/5 31/63/5 4/62/5
f 4/62/5 3/18/5 32/2/5
f 15/65/6 34/14/6 33/15/6
f 34/14/6 15/65/6 14/64/6
f 15/66/5 33/37/5 36/67/5
f 36/67/5 16/68/5 15/66/5
f 16/15/3 36/65/3 35/64/3
f 35/64/3 17/14/3 16/15/3
f 14/37/4 35/68/4 34/66/4
f 35/68/4 14/37/4 17/67/4
