## ElementId 135204
## Vertice Count:20
## Triangle Count:36
mtllib 135204.mtl
o 135204

v -2.3164 11.7 14.2011
v -2.3164 11.7 10.9011
v -2.3164 11.7 10.7011
v -2.3164 11.7 8.2711
v -2.3164 11.7 8.0711
v -2.3164 11.7 4.5011
v -2.3164 11.7 4.3011
v -2.3164 14.5122 4.3011
v -2.3164 14.5869 4.5011
v -2.3164 15.9217 8.0711
v -2.3164 15.9965 8.2711
v -2.3164 16.5872 9.8511
v -2.3164 16.2694 10.7011
v -2.3164 16.1946 10.9011
v -2.3164 14.9608 14.2011
v -2.5164 11.7 14.2011
v -2.5164 14.9608 14.2011
v -2.5164 16.5872 9.8511
v -2.5164 14.5122 4.3011
v -2.5164 11.7 4.3011
vt 0.1 0
vt 3.4 0
vt 3.6 0
vt 6.03 0
vt 6.23 0
vt 9.8 0
vt 10 0
vt 10 2.8122
vt 9.8 2.8869
vt 6.23 4.2217
vt 6.03 4.2965
vt 4.45 4.8872
vt 3.6 4.5694
vt 3.4 4.4946
vt 0.1 3.2608
vt -0.1 0
vt -0.1 3.2608
vt -4.45 4.8872
vt -10 2.8122
vt -10 0
vt 10 0.1
vt 9.8 0.1
vt 6.23 0.1
vt 6.03 0.1
vt 3.6 0.1
vt 3.4 0.1
vt 0.1 0.1
vt 0.1 -0.1
vt 10 -0.1
vt -0.1 2.8122
vt 0.1 2.8122
vt 1.2356 -0.1
vt 4.7587 -0.1
vt 4.9723 -0.1
vt 5.8797 -0.1
vt 5.8797 0.1
vt 1.2356 0.1
vt 2.4566 -0.1
vt 4.1435 -0.1
vt 4.357 -0.1
vt 8.1684 -0.1
vt 8.3819 -0.1
vt 8.3819 0.1
vt 2.4566 0.1
vn 0.3048 0 0
vn -0.3048 0 0
vn 0 -0.3048 0
vn 0 0 -0.3048
vn 0 0 0.3048
vn 0 0.2855 0.1067
vn 0 0.2855 -0.1067

usemtl 90484
f 15/15/1 1/1/1 2/2/1
f 14/14/1 2/2/1 3/3/1
f 14/14/1 15/15/1 2/2/1
f 11/11/1 12/12/1 13/13/1
f 14/14/1 3/3/1 13/13/1
f 13/13/1 3/3/1 11/11/1
f 10/10/1 4/4/1 5/5/1
f 5/5/1 6/6/1 9/9/1
f 7/7/1 8/8/1 6/6/1
f 10/10/1 11/11/1 4/4/1
f 9/9/1 10/10/1 5/5/1
f 6/6/1 8/8/1 9/9/1
f 4/4/1 11/11/1 3/3/1
f 19/19/2 20/20/2 18/18/2
f 18/18/2 16/16/2 17/17/2
f 16/16/2 18/18/2 20/20/2
f 2/26/3 1/27/3 16/28/3
f 20/29/3 7/21/3 6/22/3
f 3/25/3 16/28/3 4/24/3
f 16/28/3 3/25/3 2/26/3
f 5/23/3 4/24/3 20/29/3
f 20/29/3 4/24/3 16/28/3
f 5/23/3 20/29/3 6/22/3
f 8/30/4 7/16/4 20/1/4
f 20/1/4 19/31/4 8/30/4
f 17/17/5 1/1/5 15/15/5
f 1/1/5 17/17/5 16/16/5
f 18/36/6 17/37/6 14/33/6
f 14/33/6 17/37/6 15/32/6
f 18/36/6 14/33/6 13/34/6
f 13/34/6 12/35/6 18/36/6
f 9/41/7 8/42/7 19/43/7
f 10/40/7 19/43/7 18/44/7
f 19/43/7 10/40/7 9/41/7
f 11/39/7 18/44/7 12/38/7
f 18/44/7 11/39/7 10/40/7
