## ElementId 135205
## Vertice Count:28
## Triangle Count:60
mtllib 135205.mtl
o 135205

v -2.3164 11.7 4.5011
v 2.8836 11.7 4.5011
v 3.0836 11.7 4.5011
v 3.0836 12.5 4.5011
v 3.0836 14.5869 4.5011
v 2.8836 14.5869 4.5011
v -2.3164 14.5869 4.5011
v -1.0164 12.5 4.5011
v -1.9164 12.5 4.5011
v -1.9164 14.3 4.5011
v -1.0164 14.3 4.5011
v 2.3836 12.5 4.5011
v 0.3836 12.5 4.5011
v 0.3836 14.3 4.5011
v 2.3836 14.3 4.5011
v -2.3164 11.7 4.3011
v -2.3164 14.5122 4.3011
v 3.0836 14.5122 4.3011
v 3.0836 12.5 4.3011
v 3.0836 11.7 4.3011
v -1.0164 12.5 4.3011
v -1.0164 14.3 4.3011
v -1.9164 14.3 4.3011
v -1.9164 12.5 4.3011
v 2.3836 12.5 4.3011
v 2.3836 14.3 4.3011
v 0.3836 14.3 4.3011
v 0.3836 12.5 4.3011
vt 0.1 0
vt 5.3 0
vt 5.5 0
vt 5.5 0.8
vt 5.5 2.8869
vt 5.3 2.8869
vt 0.1 2.8869
vt 1.4 0.8
vt 0.5 0.8
vt 0.5 2.6
vt 1.4 2.6
vt 4.8 0.8
vt 2.8 0.8
vt 2.8 2.6
vt 4.8 2.6
vt -0.1 0
vt -0.1 2.8122
vt -5.5 2.8122
vt -5.5 0.8
vt -5.5 0
vt -1.4 0.8
vt -1.4 2.6
vt -0.5 2.6
vt -0.5 0.8
vt -4.8 0.8
vt -4.8 2.6
vt -2.8 2.6
vt -2.8 0.8
vt 5.5 0.1
vt 5.3 0.1
vt 0.1 0.1
vt 0.1 -0.1
vt 5.5 -0.1
vt 0.1 -1.1047
vt 5.3 -1.1047
vt 5.5 -1.1047
vt 5.5 -0.8912
vt 0.1 -0.8912
vt 0.1 0.8
vt 0.1 2.8122
vt -0.1 2.8869
vt -0.1 0.8
vt -0.1 2.6
vt 0.1 2.6
vt 0.5 -0.1
vt 1.4 -0.1
vt 1.4 0.1
vt 0.5 0.1
vt 2.8 -0.1
vt 4.8 -0.1
vt 4.8 0.1
vt 2.8 0.1
vn 0 0 0.3048
vn 0 0 -0.3048
vn 0 -0.3048 0
vn 0 0.2855 -0.1067
vn 0.3048 0 0
vn -0.3048 0 0
vn 0 0.3048 0

usemtl 90484
f 1/1/1 8/8/1 9/9/1
f 8/8/1 1/1/1 13/13/1
f 1/1/1 9/9/1 7/7/1
f 7/7/1 10/10/1 11/11/1
f 7/7/1 9/9/1 10/10/1
f 11/11/1 13/13/1 14/14/1
f 13/13/1 11/11/1 8/8/1
f 7/7/1 11/11/1 14/14/1
f 1/1/1 2/2/1 13/13/1
f 12/12/1 2/2/1 4/4/1
f 3/3/1 4/4/1 2/2/1
f 12/12/1 4/4/1 15/15/1
f 14/14/1 15/15/1 6/6/1
f 5/5/1 6/6/1 15/15/1
f 15/15/1 4/4/1 5/5/1
f 14/14/1 6/6/1 7/7/1
f 12/12/1 13/13/1 2/2/1
f 20/20/2 25/25/2 19/19/2
f 25/25/2 20/20/2 28/28/2
f 19/19/2 25/25/2 26/26/2
f 19/19/2 26/26/2 18/18/2
f 18/18/2 26/26/2 27/27/2
f 20/20/2 16/16/2 28/28/2
f 21/21/2 16/16/2 24/24/2
f 16/16/2 21/21/2 28/28/2
f 24/24/2 16/16/2 17/17/2
f 27/27/2 22/22/2 17/17/2
f 28/28/2 22/22/2 27/27/2
f 23/23/2 17/17/2 22/22/2
f 17/17/2 23/23/2 24/24/2
f 27/27/2 17/17/2 18/18/2
f 22/22/2 28/28/2 21/21/2
f 2/30/3 16/32/3 20/33/3
f 16/32/3 2/30/3 1/31/3
f 2/30/3 20/33/3 3/29/3
f 5/36/4 18/37/4 6/35/4
f 6/35/4 17/38/4 7/34/4
f 17/38/4 6/35/4 18/37/4
f 4/42/5 3/16/5 19/39/5
f 5/41/5 4/42/5 18/40/5
f 20/1/5 19/39/5 3/16/5
f 19/39/5 18/40/5 4/42/5
f 17/17/6 1/1/6 7/7/6
f 1/1/6 17/17/6 16/16/6
f 22/43/6 21/42/6 8/39/6
f 8/39/6 11/44/6 22/43/6
f 23/45/3 22/46/3 10/48/3
f 11/47/3 10/48/3 22/46/3
f 24/39/5 23/44/5 10/43/5
f 10/43/5 9/42/5 24/39/5
f 21/47/7 24/48/7 9/45/7
f 9/45/7 8/46/7 21/47/7
f 26/43/6 25/42/6 12/39/6
f 12/39/6 15/44/6 26/43/6
f 27/49/3 26/50/3 15/51/3
f 15/51/3 14/52/3 27/49/3
f 28/39/5 27/44/5 14/43/5
f 14/43/5 13/42/5 28/39/5
f 25/51/7 28/52/7 12/50/7
f 13/49/7 12/50/7 28/52/7
