## ElementId 137265
## Vertice Count:24
## Triangle Count:44
mtllib 137265.mtl
o 137265

v 2.7836 0.6498 8.2711
v 2.7836 0.9498 8.2711
v 2.7836 0.6498 8.5773
v 2.7836 0.9498 8.5773
v 2.7836 0.6498 9.4711
v 2.7836 0.9498 9.4711
v 3.0836 0.6498 9.4711
v 3.0836 0.9498 9.4711
v 3.0836 0.6498 10.7011
v 3.0836 0.9498 10.7011
v 7.2836 0.6498 10.7011
v 7.2836 0.9498 10.7011
v 3.0836 0.6498 8.1711
v 3.0836 0.3396 8.1711
v 3.0836 0.6498 8.2711
v 3.0836 0.3348 8.2711
v 2.7836 0.3348 8.2711
v 3.0836 0.6498 4.5011
v 3.0836 0.5176 4.5011
v 7.2836 0.6498 4.5011
v 7.2836 0.5176 4.5011
v 7.2836 0.6498 7.1281
v 7.2836 0.3902 7.1281
v 7.2836 0.217 10.7011
vt 2.43 0
vt 2.1239 0
vt 1.23 0
vt 1.23 0.3
vt 0 0.3
vt 0 4.5
vt 0.3 0.3151
vt 0.3 0.0048
vt 0.3 0
vt 0 0.3151
vt 0 0
vt 6.2 0
vt 6.2 4.2
vt 3.573 4.2
vt 0 4.2
vt 0 0.4329
vt 3.573 0.4329
vt 3.573 0.1732
vt 6.2 0.4329
vt 6.2 0.3006
vt 4.2 0.1323
vt 4.2 0
vt 0 0.1323
vt 6.2 4.5
vt 6.2 0.3
vt 2.43 0.3
vn -0.3048 0 0
vn -0.1363 0 0.2726
vn -0.2726 0 0.1363
vn 0 0 0.3048
vn 0.3048 0 0
vn 0.1363 0 0.2726
vn 0.2726 0 0.1363
vn 0 0 -0.3048
vn 0.2726 0 -0.1363
vn 0.1363 0 -0.2726
vn 0 0.3048 0

usemtl 79450
f 1/1/1 4/2/1 2/1/1
f 1/1/1 3/2/1 4/2/1
f 3/2/1 6/3/3 4/2/1
f 3/2/1 5/3/2 6/3/3
f 5/3/2 8/4/2 6/3/3
f 5/3/2 7/4/3 8/4/2
f 7/4/3 10/5/3 8/4/2
f 7/4/3 9/5/2 10/5/3
f 9/5/2 12/6/4 10/5/3
f 9/5/2 11/6/4 12/6/4
f 13/7/5 16/9/7 14/8/5
f 13/7/5 15/7/6 16/9/7
f 15/7/6 17/11/4 16/9/7
f 15/7/6 1/10/4 17/11/4
f 18/12/8 21/13/10 19/12/8
f 18/12/8 20/13/9 21/13/10
f 20/13/9 23/14/5 21/13/10
f 20/13/9 22/14/5 23/14/5
f 22/14/5 24/15/5 23/14/5
f 22/14/5 11/15/5 24/15/5
f 11/16/1 23/18/1 24/11/1
f 11/16/1 22/17/1 23/18/1
f 22/17/1 21/20/1 23/18/1
f 22/17/1 20/19/1 21/20/1
f 13/7/5 16/9/7 14/8/5
f 13/7/5 15/7/6 16/9/7
f 15/7/6 17/11/4 16/9/7
f 15/7/6 1/10/4 17/11/4
f 20/21/4 19/11/4 21/22/4
f 20/21/4 18/23/4 19/11/4
f 1/1/1 6/3/3 2/1/1
f 1/1/1 5/3/2 6/3/3
f 5/3/2 8/4/2 6/3/3
f 5/3/2 7/4/3 8/4/2
f 7/4/3 10/5/3 8/4/2
f 7/4/3 9/5/2 10/5/3
f 9/5/2 12/6/4 10/5/3
f 9/5/2 11/6/4 12/6/4
f 1/1/11 5/3/11 7/4/11
f 7/4/11 11/6/11 15/26/11
f 11/6/11 7/4/11 9/5/11
f 15/26/11 20/24/11 18/25/11
f 20/24/11 15/26/11 11/6/11
f 7/4/11 15/26/11 1/1/11
