## ElementId 139996
## Vertice Count:18
## Triangle Count:36
mtllib 139996.mtl
o 139996

v 7.2836 8.5 8.2711
v 7.2836 8.5 10.7011
v 7.2836 11.7 10.7011
v 7.2836 11.7 8.2711
v 7.2836 11.1 9.9511
v 7.2836 9.5 9.9511
v 7.2836 9.5 9.0511
v 7.2836 11.1 9.0511
v 7.4836 8.5 10.7011
v 7.4836 8.5 8.2711
v 7.4836 11.4 8.2711
v 7.4836 11.7 8.2711
v 7.4836 11.7 10.7011
v 7.4836 11.4 10.7011
v 7.4836 9.5 9.9511
v 7.4836 11.1 9.9511
v 7.4836 11.1 9.0511
v 7.4836 9.5 9.0511
vt 0.1 0
vt 2.53 0
vt 2.53 3.2
vt 0.1 3.2
vt 1.78 2.6
vt 1.78 1
vt 0.88 1
vt 0.88 2.6
vt -2.53 0
vt -0.1 0
vt -0.1 2.9
vt -0.1 3.2
vt -2.53 3.2
vt -2.53 2.9
vt -1.78 1
vt -1.78 2.6
vt -0.88 2.6
vt -0.88 1
vt 2.53 0.1
vt 0.1 0.1
vt 0.1 -0.1
vt 2.53 -0.1
vt 0.1 2.9
vt -0.1 2.6
vt -0.1 1
vt 0.1 1
vt 0.1 2.6
vt 0.88 -0.1
vt 1.78 -0.1
vt 1.78 0.1
vt 0.88 0.1
vn -0.3048 0 0
vn 0.3048 0 0
vn 0 -0.3048 0
vn 0 0.3048 0
vn 0 0 0.3048
vn 0 0 -0.3048

usemtl 90484
f 1/1/1 7/7/1 4/4/1
f 7/7/1 1/1/1 2/2/1
f 4/4/1 8/8/1 3/3/1
f 8/8/1 4/4/1 7/7/1
f 6/6/1 2/2/1 3/3/1
f 2/2/1 6/6/1 7/7/1
f 5/5/1 3/3/1 8/8/1
f 3/3/1 5/5/1 6/6/1
f 9/9/2 15/15/2 14/14/2
f 15/15/2 9/9/2 18/18/2
f 13/13/2 14/14/2 16/16/2
f 16/16/2 14/14/2 15/15/2
f 13/13/2 16/16/2 17/17/2
f 18/18/2 10/10/2 11/11/2
f 10/10/2 18/18/2 9/9/2
f 17/17/2 11/11/2 12/12/2
f 11/11/2 17/17/2 18/18/2
f 17/17/2 12/12/2 13/13/2
f 2/19/3 1/20/3 10/21/3
f 10/21/3 9/22/3 2/19/3
f 4/21/4 3/22/4 12/20/4
f 13/19/4 12/20/4 3/22/4
f 3/12/5 2/10/5 14/23/5
f 9/1/5 14/23/5 2/10/5
f 13/4/5 3/12/5 14/23/5
f 11/11/6 1/1/6 4/4/6
f 1/1/6 11/11/6 10/10/6
f 4/4/6 12/12/6 11/11/6
f 16/24/6 15/25/6 6/26/6
f 6/26/6 5/27/6 16/24/6
f 17/28/3 16/29/3 8/31/3
f 5/30/3 8/31/3 16/29/3
f 18/26/5 17/27/5 8/24/5
f 8/24/5 7/25/5 18/26/5
f 15/30/4 18/31/4 7/28/4
f 7/28/4 6/29/4 15/30/4
