## ElementId 143630
## Vertice Count:25
## Triangle Count:50
mtllib 143630.mtl
o 143630

v 7.2836 5.3 10.9011
v 7.2836 5.3 12.7011
v 7.2836 5.3 12.9011
v 7.2836 5.3 16.1011
v 7.2836 5.3 16.3011
v 7.2836 8.3476 16.3011
v 7.2836 8.5 16.3011
v 7.2836 8.5 16.1011
v 7.2836 8.5 12.9011
v 7.2836 8.5 12.7011
v 7.2836 8.5 10.9011
v 7.2836 7.9 12.2511
v 7.2836 6.3 12.2511
v 7.2836 6.3 11.3511
v 7.2836 7.9 11.3511
v 7.4836 5.3 16.3011
v 7.4836 5.3 10.9011
v 7.4836 8.3476 10.9011
v 7.4836 8.5 10.9011
v 7.4836 8.5 16.3011
v 7.4836 8.3476 16.3011
v 7.4836 6.3 12.2511
v 7.4836 7.9 12.2511
v 7.4836 7.9 11.3511
v 7.4836 6.3 11.3511
vt 0.1 0
vt 1.9 0
vt 2.1 0
vt 5.3 0
vt 5.5 0
vt 5.5 3.0476
vt 5.5 3.2
vt 5.3 3.2
vt 2.1 3.2
vt 1.9 3.2
vt 0.1 3.2
vt 1.45 2.6
vt 1.45 1
vt 0.55 1
vt 0.55 2.6
vt -5.5 0
vt -0.1 0
vt -0.1 3.0476
vt -0.1 3.2
vt -5.5 3.2
vt -5.5 3.0476
vt -1.45 1
vt -1.45 2.6
vt -0.55 2.6
vt -0.55 1
vt 5.5 0.1
vt 5.3 0.1
vt 2.1 0.1
vt 1.9 0.1
vt 0.1 0.1
vt 0.1 -0.1
vt 5.5 -0.1
vt 1.9 -0.1
vt 2.1 -0.1
vt 5.3 -0.1
vt 0.1 3.0476
vt -0.1 2.6
vt -0.1 1
vt 0.1 1
vt 0.1 2.6
vt 0.55 -0.1
vt 1.45 -0.1
vt 1.45 0.1
vt 0.55 0.1
vn -0.3048 0 0
vn 0.3048 0 0
vn 0 -0.3048 0
vn 0 0.3048 0
vn 0 0 0.3048
vn 0 0 -0.3048

usemtl 90484
f 14/14/1 2/2/1 13/13/1
f 2/2/1 14/14/1 1/1/1
f 1/1/1 14/14/1 11/11/1
f 11/11/1 15/15/1 10/10/1
f 15/15/1 11/11/1 14/14/1
f 12/12/1 10/10/1 15/15/1
f 9/9/1 10/10/1 12/12/1
f 12/12/1 13/13/1 9/9/1
f 3/3/1 9/9/1 13/13/1
f 4/4/1 5/5/1 6/6/1
f 3/3/1 4/4/1 8/8/1
f 9/9/1 3/3/1 8/8/1
f 6/6/1 7/7/1 8/8/1
f 4/4/1 6/6/1 8/8/1
f 3/3/1 13/13/1 2/2/1

usemtl 31
f 16/16/2 22/22/2 21/21/2
f 22/22/2 16/16/2 17/17/2
f 20/20/2 21/21/2 23/23/2
f 23/23/2 21/21/2 22/22/2
f 20/20/2 23/23/2 19/19/2
f 25/25/2 17/17/2 18/18/2
f 17/17/2 25/25/2 22/22/2
f 24/24/2 18/18/2 19/19/2
f 18/18/2 24/24/2 25/25/2
f 24/24/2 19/19/2 23/23/2
f 5/26/3 4/27/3 16/32/3
f 2/29/3 17/31/3 3/28/3
f 17/31/3 2/29/3 1/30/3
f 3/28/3 16/32/3 4/27/3
f 16/32/3 3/28/3 17/31/3
f 8/35/4 7/32/4 20/26/4
f 9/34/4 20/26/4 19/30/4
f 20/26/4 9/34/4 8/35/4
f 10/33/4 19/30/4 11/31/4
f 19/30/4 10/33/4 9/34/4
f 6/18/5 5/17/5 16/1/5
f 7/19/5 6/18/5 21/36/5
f 16/1/5 21/36/5 6/18/5
f 21/36/5 20/11/5 7/19/5
f 18/18/6 1/1/6 11/11/6
f 1/1/6 18/18/6 17/17/6
f 11/11/6 19/19/6 18/18/6
f 23/37/6 22/38/6 13/39/6
f 13/39/6 12/40/6 23/37/6
f 24/41/3 23/42/3 15/44/3
f 12/43/3 15/44/3 23/42/3
f 25/39/5 24/40/5 15/37/5
f 15/37/5 14/38/5 25/39/5
f 22/43/4 25/44/4 14/41/4
f 14/41/4 13/42/4 22/43/4
