## ElementId 144336
## Vertice Count:10
## Triangle Count:16
mtllib 144336.mtl
o 144336

v 2.9636 5 3.8211
v 2.9636 5 4.3011
v 2.9636 5.8 4.3011
v 2.9636 5.8 3.8211
v 3.0836 5.8 3.8211
v 3.0836 5.8 4.3011
v 3.0836 5.3 4.3011
v 3.0836 5 4.3011
v 3.0836 5 3.8211
v 3.0836 5.3 3.8211
vt 0.06 -0.3
vt 0.54 -0.3
vt 0.54 0.5
vt 0.06 0.5
vt -0.06 0.5
vt -0.54 0.5
vt -0.54 0
vt -0.54 -0.3
vt -0.06 -0.3
vt -0.06 0
vt 0.54 0.06
vt 0.06 0.06
vt 0.06 -0.06
vt 0.54 -0.06
vt 0.06 0
vn -0.3048 0 0
vn 0.3048 0 0
vn 0 -0.3048 0
vn 0 0.3048 0
vn 0 0 -0.3048
vn 0 0 0.3048

usemtl 197629
f 4/4/1 1/1/1 2/2/1
f 2/2/1 3/3/1 4/4/1
f 4/13/4 3/14/4 6/11/4
f 6/11/4 5/12/4 4/13/4

usemtl 31
f 7/7/2 8/8/2 10/10/2
f 6/6/2 7/7/2 5/5/2
f 9/9/2 10/10/2 8/8/2
f 10/10/2 5/5/2 7/7/2
f 2/11/3 1/12/3 9/13/3
f 9/13/3 8/14/3 2/11/3
f 10/10/5 1/1/5 4/4/5
f 1/1/5 10/10/5 9/9/5
f 4/4/5 5/5/5 10/10/5
f 3/5/6 2/9/6 7/15/6
f 8/1/6 7/15/6 2/9/6
f 6/4/6 3/5/6 7/15/6
