## ElementId 144508
## Vertice Count:36
## Triangle Count:68
mtllib 144508.mtl
o 144508

v -2.3964 9.5 4.3011
v -2.3964 -0.2 4.3011
v -2.3964 -0.2 3.7611
v -2.3964 4.7 3.7611
v -2.3964 4.7 3.7011
v -2.3964 4.76 3.7011
v -2.3964 4.76 3.6411
v -2.3964 4.82 3.6411
v -2.3964 4.82 3.5811
v -2.3964 4.8645 3.5761
v -2.3964 4.9068 3.5613
v -2.3964 4.9447 3.5375
v -2.3964 4.9764 3.5058
v -2.3964 5.0002 3.4679
v -2.3964 5.015 3.4256
v -2.3964 5.02 3.3811
v -2.3964 9.5 3.3811
v -2.5164 -0.2 4.3011
v -2.5164 5.3 4.3011
v -2.5164 8.5 4.3011
v -2.5164 9.5 4.3011
v -2.5164 9.5 3.3811
v -2.5164 5.02 3.3811
v -2.5164 5.015 3.4256
v -2.5164 5.0002 3.4679
v -2.5164 4.9764 3.5058
v -2.5164 4.9447 3.5375
v -2.5164 4.9068 3.5613
v -2.5164 4.8645 3.5761
v -2.5164 4.82 3.5811
v -2.5164 4.82 3.6411
v -2.5164 4.76 3.6411
v -2.5164 4.76 3.7011
v -2.5164 4.7 3.7011
v -2.5164 4.7 3.7611
v -2.5164 -0.2 3.7611
vt 0.1 9.5
vt 0.1 -0.2
vt 0.64 -0.2
vt 0.64 4.7
vt 0.7 4.7
vt 0.7 4.76
vt 0.76 4.76
vt 0.76 4.82
vt 0.82 4.82
vt 0.825 4.8645
vt 0.8398 4.9068
vt 0.8636 4.9447
vt 0.8953 4.9764
vt 0.9332 5.0002
vt 0.9755 5.015
vt 1.02 5.02
vt 1.02 9.5
vt -0.1 -0.2
vt -0.1 5.3
vt -0.1 8.5
vt -0.1 9.5
vt -1.02 9.5
vt -1.02 5.02
vt -0.9755 5.015
vt -0.9332 5.0002
vt -0.8953 4.9764
vt -0.8636 4.9447
vt -0.8398 4.9068
vt -0.825 4.8645
vt -0.82 4.82
vt -0.76 4.82
vt -0.76 4.76
vt -0.7 4.76
vt -0.7 4.7
vt -0.64 4.7
vt -0.64 -0.2
vt 0.64 0.06
vt 0.1 0.06
vt 0.1 -0.06
vt 0.64 -0.06
vt -0.06 4.7
vt -0.06 -0.2
vt 0.06 -0.2
vt 0.06 4.7
vt 0.7 0.06
vt 0.7 -0.06
vt -0.06 4.76
vt 0.06 4.76
vt 0.76 0.06
vt 0.76 -0.06
vt -0.06 4.82
vt 0.06 4.82
vt 0.82 0.06
vt 0.82 -0.06
vt -0.5866 -0.06
vt -0.5417 -0.06
vt -0.4969 -0.06
vt -0.452 -0.06
vt -0.4071 -0.06
vt -0.3622 -0.06
vt -0.3173 -0.06
vt -0.2725 -0.06
vt -0.2725 0.06
vt -0.3173 0.06
vt -0.3622 0.06
vt -0.4071 0.06
vt -0.452 0.06
vt -0.4969 0.06
vt -0.5417 0.06
vt -0.5866 0.06
vt -0.06 9.5
vt -0.06 5.02
vt 0.06 5.02
vt 0.06 9.5
vt 1.02 -0.06
vt 1.02 0.06
vt -0.06 8.5
vt -0.06 5.3
vn 0.3048 0 0
vn -0.3048 0 0
vn 0 -0.3048 0
vn 0 0 -0.3048
vn 0 -0.2972 -0.0678
vn 0 -0.2746 -0.1322
vn 0 -0.2383 -0.19
vn 0 -0.19 -0.2383
vn 0 -0.1322 -0.2746
vn 0 -0.0678 -0.2972
vn 0 0.3048 0
vn 0 0 0.3048

usemtl 90484
f 2/2/1 4/4/1 1/1/1
f 4/4/1 2/2/1 3/3/1
f 4/4/1 5/5/1 6/6/1
f 6/6/1 12/12/1 4/4/1
f 4/4/1 12/12/1 1/1/1
f 7/7/1 8/8/1 6/6/1
f 12/12/1 6/6/1 8/8/1
f 11/11/1 8/8/1 10/10/1
f 13/13/1 1/1/1 12/12/1
f 12/12/1 8/8/1 11/11/1
f 15/15/1 1/1/1 14/14/1
f 15/15/1 16/16/1 17/17/1
f 17/17/1 1/1/1 15/15/1
f 1/1/1 13/13/1 14/14/1
f 10/10/1 8/8/1 9/9/1
f 19/19/2 26/26/2 27/27/2
f 31/31/2 28/28/2 29/29/2
f 19/19/2 27/27/2 28/28/2
f 20/20/2 22/22/2 23/23/2
f 19/19/2 24/24/2 25/25/2
f 19/19/2 23/23/2 24/24/2
f 26/26/2 19/19/2 25/25/2
f 29/29/2 30/30/2 31/31/2
f 33/33/2 34/34/2 35/35/2
f 36/36/2 18/18/2 35/35/2
f 35/35/2 18/18/2 19/19/2
f 33/33/2 35/35/2 19/19/2
f 32/32/2 33/33/2 31/31/2
f 21/21/2 22/22/2 20/20/2
f 23/23/2 19/19/2 20/20/2
f 33/33/2 19/19/2 31/31/2
f 28/28/2 31/31/2 19/19/2
f 3/37/3 2/38/3 18/39/3
f 18/39/3 36/40/3 3/37/3
f 4/41/4 3/42/4 35/44/4
f 36/43/4 35/44/4 3/42/4
f 5/45/3 4/37/3 34/46/3
f 35/40/3 34/46/3 4/37/3
f 6/47/4 5/41/4 33/48/4
f 34/44/4 33/48/4 5/41/4
f 7/49/3 6/45/3 32/50/3
f 33/46/3 32/50/3 6/45/3
f 8/51/4 7/47/4 31/52/4
f 32/48/4 31/52/4 7/47/4
f 9/53/3 8/49/3 30/54/3
f 31/50/3 30/54/3 8/49/3
f 10/61/10 9/62/4 29/64/10
f 11/60/9 10/61/10 28/65/9
f 12/59/8 11/60/9 27/66/8
f 29/64/10 9/62/4 30/63/4
f 28/65/9 10/61/10 29/64/10
f 28/65/9 27/66/8 11/60/9
f 27/66/8 26/67/7 12/59/8
f 14/57/6 13/58/7 25/68/6
f 15/56/5 14/57/6 24/69/5
f 16/55/3 15/56/5 23/70/3
f 25/68/6 13/58/7 26/67/7
f 24/69/5 14/57/6 25/68/6
f 24/69/5 23/70/3 15/56/5
f 12/59/8 26/67/7 13/58/7
f 17/71/4 16/72/4 23/73/4
f 23/73/4 22/74/4 17/71/4
f 1/39/11 17/75/11 21/38/11
f 22/76/11 21/38/11 17/75/11
f 21/71/12 20/77/12 1/74/12
f 19/78/12 2/43/12 1/74/12
f 2/43/12 19/78/12 18/42/12
f 19/78/12 1/74/12 20/77/12
