## ElementId 144851
## Vertice Count:10
## Triangle Count:16
mtllib 144851.mtl
o 144851

v 7.2836 11.3 4.5011
v 7.2836 11.3 8.0711
v 7.2836 11.7 8.0711
v 7.2836 11.7 4.5011
v 7.4836 11.3 8.0711
v 7.4836 11.3 4.5011
v 7.4836 11.4 4.5011
v 7.4836 11.7 4.5011
v 7.4836 11.7 8.0711
v 7.4836 11.4 8.0711
vt 0.1 -0.4
vt 3.67 -0.4
vt 3.67 0
vt 0.1 0
vt -3.67 -0.4
vt -0.1 -0.4
vt -0.1 -0.3
vt -0.1 0
vt -3.67 0
vt -3.67 -0.3
vt 3.67 0.1
vt 0.1 0.1
vt 0.1 -0.1
vt 3.67 -0.1
vt 0.1 -0.3
vn -0.3048 0 0
vn 0.3048 0 0
vn 0 -0.3048 0
vn 0 0.3048 0
vn 0 0 0.3048
vn 0 0 -0.3048

usemtl 54872
f 4/4/1 1/1/1 2/2/1
f 2/2/1 3/3/1 4/4/1
f 10/10/2 5/5/2 6/6/2
f 9/9/2 10/10/2 8/8/2
f 6/6/2 7/7/2 10/10/2
f 7/7/2 8/8/2 10/10/2
f 2/11/3 1/12/3 6/13/3
f 6/13/3 5/14/3 2/11/3
f 4/13/4 3/14/4 9/11/4
f 9/11/4 8/12/4 4/13/4
f 3/8/5 2/6/5 10/15/5
f 5/1/5 10/15/5 2/6/5
f 9/4/5 3/8/5 10/15/5
f 7/7/6 1/1/6 4/4/6
f 1/1/6 7/7/6 6/6/6
f 4/4/6 8/8/6 7/7/6
