## ElementId 145802
## Vertice Count:16
## Triangle Count:28
mtllib 145802.mtl
o 145802

v -2.5164 16.5872 9.8511
v 3.0836 16.5872 9.8511
v 3.0836 14.5 15.4337
v -2.5164 14.5 15.4337
v -2.5164 14.5 4.2686
v 3.0836 14.5 4.2686
v 3.0836 14.5068 15.7011
v 3.0836 16.694 9.8511
v -2.5164 16.694 9.8511
v -2.5164 14.5068 15.7011
v 3.0836 14.5068 4.0011
v -2.5164 14.5068 4.0011
v 3.0836 14.5 4.0011
v -2.5164 14.5 4.0011
v -2.5164 14.5 15.7011
v 3.0836 14.5 15.7011
vt 2.5164 -7.5157
vt -3.0836 -7.5157
vt -3.0836 -13.4757
vt 2.5164 -13.4757
vt 3.0836 10.9388
vt -2.5164 10.9388
vt -2.5164 4.9788
vt 3.0836 4.9788
vt 3.0836 -13.7239
vt 3.0836 -7.4783
vt -2.5164 -7.4783
vt -2.5164 -13.7239
vt 2.5164 10.9762
vt -3.0836 10.9762
vt -3.0836 4.7307
vt 2.5164 4.7307
vt 2.5164 2.8068
vt -3.0836 2.8068
vt -3.0836 2.8
vt 2.5164 2.8
vt 3.0836 2.8068
vt -2.5164 2.8068
vt -2.5164 2.8
vt 3.0836 2.8
vt -9.8511 4.994
vt -15.7011 2.8068
vt -15.7011 2.8
vt -15.4337 2.8
vt -9.8511 4.8872
vt -4.2686 2.8
vt -4.0011 2.8
vt -4.0011 2.8068
vt 15.7011 2.8068
vt 9.8511 4.994
vt 4.0011 2.8068
vt 4.0011 2.8
vt 4.2686 2.8
vt 9.8511 4.8872
vt 15.4337 2.8
vt 15.7011 2.8
vt -2.5164 15.4337
vt 3.0836 15.4337
vt 3.0836 15.7011
vt -2.5164 15.7011
vt 3.0836 4.2686
vt -2.5164 4.2686
vt -2.5164 4.0011
vt 3.0836 4.0011
vn 0 -0.2855 -0.1067
vn 0 -0.2855 0.1067
vn 0 0.2855 0.1067
vn 0 0.2855 -0.1067
vn 0 0 -0.3048
vn 0 0 0.3048
vn 0.3048 0 0
vn -0.3048 0 0
vn 0 -0.3048 0

usemtl 54872
f 2/2/1 4/4/1 1/1/1
f 4/4/1 2/2/1 3/3/1
f 5/7/2 6/8/2 2/5/2
f 2/5/2 1/6/2 5/7/2
f 9/11/3 10/12/3 8/10/3
f 7/9/3 8/10/3 10/12/3
f 8/14/4 11/15/4 9/13/4
f 12/16/4 9/13/4 11/15/4
f 11/18/5 13/19/5 12/17/5
f 14/20/5 12/17/5 13/19/5
f 10/22/6 15/23/6 7/21/6
f 16/24/6 7/21/6 15/23/6
f 16/27/7 3/28/7 7/26/7
f 8/25/7 3/28/7 2/29/7
f 3/28/7 8/25/7 7/26/7
f 6/30/7 13/31/7 11/32/7
f 11/32/7 8/25/7 6/30/7
f 6/30/7 8/25/7 2/29/7
f 14/36/8 5/37/8 12/35/8
f 9/34/8 5/37/8 1/38/8
f 5/37/8 9/34/8 12/35/8
f 4/39/8 15/40/8 10/33/8
f 10/33/8 9/34/8 4/39/8
f 4/39/8 9/34/8 1/38/8
f 3/42/9 16/43/9 15/44/9
f 15/44/9 4/41/9 3/42/9
f 13/48/9 6/45/9 5/46/9
f 5/46/9 14/47/9 13/48/9
