## ElementId 147719
## Vertice Count:29
## Triangle Count:58
mtllib 147719.mtl
o 147719

v 7.2836 5.3 16.3011
v 7.2836 5.3 16.1011
v 7.2836 5.3 10.8011
v 7.2836 -0.2 10.8011
v 7.2836 -0.2 10.9011
v 7.2836 -0.2 16.1011
v 7.2836 -0.2 16.2611
v 7.2836 0.65 16.2611
v 7.2836 0.65 16.3011
v 7.2836 5 16.3011
v 7.2836 3.85 14.7511
v 7.2836 2.05 14.7511
v 7.2836 2.05 12.2511
v 7.2836 3.85 12.2511
v 7.4836 5.3 10.8011
v 7.4836 5.3 10.9011
v 7.4836 5.3 16.3011
v 7.4836 5 16.3011
v 7.4836 0.65 16.3011
v 7.4836 0.65 10.8011
v 7.4836 5 10.8011
v 7.4836 2.05 14.7511
v 7.4836 3.85 14.7511
v 7.4836 3.85 12.2511
v 7.4836 2.05 12.2511
v 7.4436 -0.2 10.8011
v 7.4436 -0.2 16.2611
v 7.4436 0.65 10.8011
v 7.4436 0.65 16.2611
vt 5.5 5.5
vt 5.3 5.5
vt 0 5.5
vt 0 0
vt 0.1 0
vt 5.3 0
vt 5.46 0
vt 5.46 0.85
vt 5.5 0.85
vt 5.5 5.2
vt 3.95 4.05
vt 3.95 2.25
vt 1.45 2.25
vt 1.45 4.05
vt -0.1 5.5
vt -5.5 5.5
vt -5.5 5.2
vt -5.5 0.85
vt 0 0.85
vt 0 5.2
vt -3.95 2.25
vt -3.95 4.05
vt -1.45 4.05
vt -1.45 2.25
vt 5.46 0.1
vt 5.3 0.1
vt 0.1 0.1
vt 0 0.1
vt 0 -0.06
vt 5.46 -0.06
vt 0 -0.1
vt 5.3 -0.1
vt 5.5 -0.1
vt 5.5 0.1
vt 0.1 5.5
vt -0.1 5.2
vt -0.1 0.85
vt 0.1 0.85
vt 0.1 5.2
vt -0.06 0.85
vt -0.06 0
vt -0.1 2.25
vt 0.1 2.25
vt 0.1 4.05
vt -0.1 4.05
vt 3.95 -0.1
vt 3.95 0.1
vt 1.45 0.1
vt 1.45 -0.1
vt -5.46 0.85
vt -5.46 0
vt 0.06 0
vt 0.06 0.85
vt -0.1 0
vn -0.3048 0 0
vn 0.3048 0 0
vn 0 -0.3048 0
vn 0 0.3048 0
vn 0 0 0.3048
vn 0 0 -0.3048

usemtl 197629
f 4/4/1 5/5/1 13/13/1
f 12/12/1 13/13/1 6/6/1
f 4/4/1 13/13/1 3/3/1
f 2/2/1 3/3/1 14/14/1
f 14/14/1 3/3/1 13/13/1
f 11/11/1 12/12/1 10/10/1
f 2/2/1 14/14/1 11/11/1
f 13/13/1 5/5/1 6/6/1
f 8/8/1 6/6/1 7/7/1
f 11/11/1 10/10/1 2/2/1
f 8/8/1 9/9/1 12/12/1
f 10/10/1 1/1/1 2/2/1
f 9/9/1 10/10/1 12/12/1
f 8/8/1 12/12/1 6/6/1

usemtl 31
f 19/18/2 22/21/2 18/17/2
f 22/21/2 19/18/2 20/19/2
f 17/16/2 18/17/2 23/22/2
f 23/22/2 18/17/2 22/21/2
f 17/16/2 23/22/2 16/15/2
f 21/20/2 24/23/2 25/24/2
f 20/19/2 25/24/2 22/21/2
f 21/20/2 25/24/2 20/19/2
f 16/15/2 21/20/2 15/3/2
f 21/20/2 16/15/2 24/23/2
f 24/23/2 16/15/2 23/22/2
f 5/27/3 4/28/3 26/29/3
f 6/26/3 26/29/3 27/30/3
f 26/29/3 6/26/3 5/27/3
f 6/26/3 27/30/3 7/25/3
f 2/32/4 1/33/4 17/34/4
f 3/31/4 2/32/4 16/27/4
f 17/34/4 16/27/4 2/32/4
f 16/27/4 15/28/4 3/31/4
f 10/36/5 9/37/5 19/38/5
f 1/15/5 10/36/5 18/39/5
f 19/38/5 18/39/5 10/36/5
f 18/39/5 17/35/5 1/15/5
f 4/5/6 3/35/6 28/40/6
f 28/40/6 3/35/6 21/36/6
f 4/5/6 28/40/6 26/41/6
f 20/37/6 28/40/6 21/36/6
f 21/36/6 3/35/6 15/15/6
f 22/42/6 12/43/6 11/44/6
f 11/44/6 23/45/6 22/42/6
f 23/46/3 11/47/3 14/48/3
f 14/48/3 24/49/3 23/46/3
f 24/44/5 14/45/5 13/42/5
f 13/42/5 25/43/5 24/44/5
f 22/47/4 13/49/4 12/46/4
f 13/49/4 22/47/4 25/48/4
f 29/50/2 26/4/2 28/19/2
f 26/4/2 29/50/2 27/51/2
f 29/30/3 28/29/3 20/31/3
f 19/33/3 29/30/3 20/31/3
f 29/30/3 19/33/3 9/34/3
f 8/25/3 29/30/3 9/34/3
f 8/37/5 27/52/5 29/53/5
f 27/52/5 8/37/5 7/54/5
