## ElementId 147813
## Vertice Count:108
## Triangle Count:208
mtllib 147813.mtl
o 147813

v 1.1336 4.85 16.6811
v 1.1336 3.65 16.6811
v 0.3836 3.65 16.6811
v 0.3836 4.85 16.6811
v 1.1336 4.85 16.6911
v 0.3836 4.85 16.6911
v 0.3836 3.65 16.6911
v 1.1336 3.65 16.6911
v 1.1336 4.85 16.6711
v 1.1336 3.65 16.6711
v 1.1336 3.65 16.7011
v 1.1336 4.85 16.7011
v 1.1836 4.9 16.7011
v 1.1836 3.6 16.7011
v 1.1836 3.6 16.6711
v 1.1836 4.9 16.6711
v 0.3836 3.65 16.6711
v 0.3836 3.65 16.7011
v 0.3336 3.6 16.7011
v 0.3336 3.6 16.6711
v 0.3836 4.85 16.6711
v 0.3836 4.85 16.7011
v 0.3336 4.9 16.7011
v 0.3336 4.9 16.6711
v 0.3336 4.85 16.7111
v 0.3336 3.65 16.7111
v -0.4164 3.65 16.7111
v -0.4164 4.85 16.7111
v 0.3336 4.85 16.7211
v -0.4164 4.85 16.7211
v -0.4164 3.65 16.7211
v 0.3336 3.65 16.7211
v 0.3336 4.85 16.7011
v 0.3336 3.65 16.7011
v 0.3336 3.65 16.7311
v 0.3336 4.85 16.7311
v 0.3836 4.9 16.7311
v 0.3836 3.6 16.7311
v 0.3836 3.6 16.7011
v 0.3836 4.9 16.7011
v -0.4164 3.65 16.7011
v -0.4164 3.65 16.7311
v -0.4664 3.6 16.7311
v -0.4664 3.6 16.7011
v -0.4164 4.85 16.7011
v -0.4164 4.85 16.7311
v -0.4664 4.9 16.7311
v -0.4664 4.9 16.7011
v -0.5164 4.85 16.7111
v -0.5164 3.65 16.7111
v -1.2664 3.65 16.7111
v -1.2664 4.85 16.7111
v -0.5164 4.85 16.7211
v -1.2664 4.85 16.7211
v -1.2664 3.65 16.7211
v -0.5164 3.65 16.7211
v -0.5164 4.85 16.7011
v -0.5164 3.65 16.7011
v -0.5164 3.65 16.7311
v -0.5164 4.85 16.7311
v -1.2664 3.65 16.7011
v -1.2664 3.65 16.7311
v -1.3164 3.6 16.7311
v -1.3164 3.6 16.7011
v -1.2664 4.85 16.7011
v -1.2664 4.85 16.7311
v -1.3164 4.9 16.7311
v -1.3164 4.9 16.7011
v -1.3164 4.85 16.6811
v -1.3164 3.65 16.6811
v -2.0664 3.65 16.6811
v -2.0664 4.85 16.6811
v -1.3164 4.85 16.6911
v -2.0664 4.85 16.6911
v -2.0664 3.65 16.6911
v -1.3164 3.65 16.6911
v -1.3164 4.85 16.6711
v -1.3164 3.65 16.6711
v -1.3164 3.65 16.7011
v -1.3164 4.85 16.7011
v -1.2664 4.9 16.7011
v -1.2664 3.6 16.7011
v -1.2664 3.6 16.6711
v -1.2664 4.9 16.6711
v -2.0664 3.65 16.6711
v -2.0664 3.65 16.7011
v -2.1164 3.6 16.7011
v -2.1164 3.6 16.6711
v -2.0664 4.85 16.6711
v -2.0664 4.85 16.7011
v -2.1164 4.9 16.7011
v -2.1164 4.9 16.6711
v -2.1914 4.975 16.8611
v -2.1914 3.525 16.8611
v 1.2586 3.525 16.8611
v 1.2586 4.975 16.8611
v -2.1164 4.9 16.8611
v 1.1836 4.9 16.8611
v 1.1836 3.6 16.8611
v -2.1164 3.6 16.8611
v -2.1914 4.975 16.8011
v 1.2586 4.975 16.8011
v 1.2586 3.525 16.8011
v -2.1914 3.525 16.8011
v -2.1164 4.9 16.8011
v -2.1164 3.6 16.8011
v 1.1836 3.6 16.8011
v 1.1836 4.9 16.8011
vt 0.375 1.25
vt 0.375 0.05
vt -0.375 0.05
vt -0.375 1.25
vt 0.9846 0.005
vt 0.9846 -0.005
vt 0.2346 -0.005
vt 0.2346 0.005
vt 0.005 0.05
vt -0.005 0.05
vt -0.005 1.25
vt 0.005 1.25
vt -0.2346 0.005
vt -0.2346 -0.005
vt -0.9846 -0.005
vt -0.9846 0.005
vt 0.015 1.25
vt 0.015 0.05
vt -0.015 0.05
vt -0.015 1.25
vt 0.015 1.3
vt 0.015 0
vt -0.015 0
vt -0.015 1.3
vt 0.2346 0.015
vt 0.9846 0.015
vt 0.9846 -0.015
vt 0.2346 -0.015
vt -0.1846 -0.015
vt -1.0346 -0.015
vt -1.0346 0.015
vt -0.1846 0.015
vt -0.425 0
vt -0.425 1.3
vt 0.425 1.3
vt 0.425 0
vt -0.9846 0.015
vt -0.2346 0.015
vt -0.2346 -0.015
vt -0.9846 -0.015
vt 1.0346 -0.015
vt 0.1846 -0.015
vt 0.1846 0.015
vt 1.0346 0.015
vt 5.225 2.375
vt 5.225 0.925
vt 1.775 0.925
vt 1.775 2.375
vt 5.15 2.3
vt 1.85 2.3
vt 1.85 1
vt 5.15 1
vt -5.225 2.375
vt -1.775 2.375
vt -1.775 0.925
vt -5.225 0.925
vt -5.15 2.3
vt -5.15 1
vt -1.85 1
vt -1.85 2.3
vt 0.06 1
vt 0 1
vt 0 2.3
vt 0.06 2.3
vt 1.2404 -0.06
vt 1.2404 0
vt 4.5404 0
vt 4.5404 -0.06
vt -0.06 2.3
vt -0.06 1
vt -4.5404 -0.06
vt -4.5404 0
vt -1.2404 0
vt -1.2404 -0.06
vt 1.1654 -0.06
vt 1.1654 0
vt 4.6154 0
vt 4.6154 -0.06
vt 0.06 0.925
vt 0 0.925
vt 0 2.375
vt 0.06 2.375
vt -4.6154 -0.06
vt -4.6154 0
vt -1.1654 0
vt -1.1654 -0.06
vt -0.06 2.375
vt -0.06 0.925
vn 0 0 -0.3048
vn 0 0 0.3048
vn 0 0.3048 0
vn -0.3048 0 0
vn 0 -0.3048 0
vn 0.3048 0 0

usemtl 33
f 4/4/1 1/1/1 2/2/1
f 2/2/1 3/3/1 4/4/1
f 5/4/2 6/1/2 7/2/2
f 7/2/2 8/3/2 5/4/2
f 5/7/3 1/8/3 4/5/3
f 4/5/3 6/6/3 5/7/3
f 6/11/4 4/12/4 3/9/4
f 3/9/4 7/10/4 6/11/4
f 7/15/5 3/16/5 2/13/5
f 2/13/5 8/14/5 7/15/5
f 8/9/6 2/10/6 1/11/6
f 1/11/6 5/12/6 8/9/6
f 28/4/1 25/1/1 26/2/1
f 26/2/1 27/3/1 28/4/1
f 29/4/2 30/1/2 31/2/2
f 31/2/2 32/3/2 29/4/2
f 29/7/3 25/8/3 28/5/3
f 28/5/3 30/6/3 29/7/3
f 30/11/4 28/12/4 27/9/4
f 27/9/4 31/10/4 30/11/4
f 31/15/5 27/16/5 26/13/5
f 26/13/5 32/14/5 31/15/5
f 32/9/6 26/10/6 25/11/6
f 25/11/6 29/12/6 32/9/6
f 52/4/1 49/1/1 50/2/1
f 50/2/1 51/3/1 52/4/1
f 53/4/2 54/1/2 55/2/2
f 55/2/2 56/3/2 53/4/2
f 53/7/3 49/8/3 52/5/3
f 52/5/3 54/6/3 53/7/3
f 54/11/4 52/12/4 51/9/4
f 51/9/4 55/10/4 54/11/4
f 55/15/5 51/16/5 50/13/5
f 50/13/5 56/14/5 55/15/5
f 56/9/6 50/10/6 49/11/6
f 49/11/6 53/12/6 56/9/6
f 72/4/1 69/1/1 70/2/1
f 70/2/1 71/3/1 72/4/1
f 73/4/2 74/1/2 75/2/2
f 75/2/2 76/3/2 73/4/2
f 73/7/3 69/8/3 72/5/3
f 72/5/3 74/6/3 73/7/3
f 74/11/4 72/12/4 71/9/4
f 71/9/4 75/10/4 74/11/4
f 75/15/5 71/16/5 70/13/5
f 70/13/5 76/14/5 75/15/5
f 76/9/6 70/10/6 69/11/6
f 69/11/6 73/12/6 76/9/6

usemtl 274500
f 11/19/4 12/20/4 9/17/4
f 9/17/4 10/18/4 11/19/4
f 15/23/6 16/24/6 13/21/6
f 13/21/6 14/22/6 15/23/6
f 17/26/3 11/28/3 10/25/3
f 11/28/3 17/26/3 18/27/3
f 19/30/5 15/32/5 14/29/5
f 15/32/5 19/30/5 20/31/5
f 22/17/6 18/18/6 17/19/6
f 17/19/6 21/20/6 22/17/6
f 24/21/4 20/22/4 19/23/4
f 19/23/4 23/24/4 24/21/4
f 18/2/2 22/1/2 23/35/2
f 12/4/2 23/35/2 22/1/2
f 11/3/2 18/2/2 19/36/2
f 23/35/2 19/36/2 18/2/2
f 11/3/2 13/34/2 12/4/2
f 23/35/2 12/4/2 13/34/2
f 19/36/2 14/33/2 11/3/2
f 13/34/2 11/3/2 14/33/2
f 9/38/5 22/40/5 21/37/5
f 22/40/5 9/38/5 12/39/5
f 21/4/1 17/3/1 20/33/1
f 10/2/1 20/33/1 17/3/1
f 9/1/1 21/4/1 24/34/1
f 20/33/1 24/34/1 21/4/1
f 9/1/1 15/36/1 10/2/1
f 20/33/1 10/2/1 15/36/1
f 24/34/1 16/35/1 9/1/1
f 15/36/1 9/1/1 16/35/1
f 13/42/3 24/44/3 23/41/3
f 24/44/3 13/42/3 16/43/3
f 35/19/4 36/20/4 33/17/4
f 33/17/4 34/18/4 35/19/4
f 39/23/6 40/24/6 37/21/6
f 37/21/6 38/22/6 39/23/6
f 41/26/3 35/28/3 34/25/3
f 35/28/3 41/26/3 42/27/3
f 43/30/5 39/32/5 38/29/5
f 39/32/5 43/30/5 44/31/5
f 46/17/6 42/18/6 41/19/6
f 41/19/6 45/20/6 46/17/6
f 48/21/4 44/22/4 43/23/4
f 43/23/4 47/24/4 48/21/4
f 42/2/2 46/1/2 47/35/2
f 36/4/2 47/35/2 46/1/2
f 35/3/2 42/2/2 43/36/2
f 47/35/2 43/36/2 42/2/2
f 35/3/2 37/34/2 36/4/2
f 47/35/2 36/4/2 37/34/2
f 43/36/2 38/33/2 35/3/2
f 37/34/2 35/3/2 38/33/2
f 33/38/5 46/40/5 45/37/5
f 46/40/5 33/38/5 36/39/5
f 45/4/1 41/3/1 44/33/1
f 34/2/1 44/33/1 41/3/1
f 33/1/1 45/4/1 48/34/1
f 44/33/1 48/34/1 45/4/1
f 33/1/1 39/36/1 34/2/1
f 44/33/1 34/2/1 39/36/1
f 48/34/1 40/35/1 33/1/1
f 39/36/1 33/1/1 40/35/1
f 37/42/3 48/44/3 47/41/3
f 48/44/3 37/42/3 40/43/3
f 59/19/4 60/20/4 57/17/4
f 57/17/4 58/18/4 59/19/4
f 44/23/6 48/24/6 47/21/6
f 47/21/6 43/22/6 44/23/6
f 61/26/3 59/28/3 58/25/3
f 59/28/3 61/26/3 62/27/3
f 63/30/5 44/32/5 43/29/5
f 44/32/5 63/30/5 64/31/5
f 66/17/6 62/18/6 61/19/6
f 61/19/6 65/20/6 66/17/6
f 68/21/4 64/22/4 63/23/4
f 63/23/4 67/24/4 68/21/4
f 62/2/2 66/1/2 67/35/2
f 60/4/2 67/35/2 66/1/2
f 59/3/2 62/2/2 63/36/2
f 67/35/2 63/36/2 62/2/2
f 59/3/2 47/34/2 60/4/2
f 67/35/2 60/4/2 47/34/2
f 63/36/2 43/33/2 59/3/2
f 47/34/2 59/3/2 43/33/2
f 57/38/5 66/40/5 65/37/5
f 66/40/5 57/38/5 60/39/5
f 65/4/1 61/3/1 64/33/1
f 58/2/1 64/33/1 61/3/1
f 57/1/1 65/4/1 68/34/1
f 64/33/1 68/34/1 65/4/1
f 57/1/1 44/36/1 58/2/1
f 64/33/1 58/2/1 44/36/1
f 68/34/1 48/35/1 57/1/1
f 44/36/1 57/1/1 48/35/1
f 47/42/3 68/44/3 67/41/3
f 68/44/3 47/42/3 48/43/3
f 79/19/4 80/20/4 77/17/4
f 77/17/4 78/18/4 79/19/4
f 83/23/6 84/24/6 81/21/6
f 81/21/6 82/22/6 83/23/6
f 85/26/3 79/28/3 78/25/3
f 79/28/3 85/26/3 86/27/3
f 87/30/5 83/32/5 82/29/5
f 83/32/5 87/30/5 88/31/5
f 90/17/6 86/18/6 85/19/6
f 85/19/6 89/20/6 90/17/6
f 92/21/4 88/22/4 87/23/4
f 87/23/4 91/24/4 92/21/4
f 86/2/2 90/1/2 91/35/2
f 80/4/2 91/35/2 90/1/2
f 79/3/2 86/2/2 87/36/2
f 91/35/2 87/36/2 86/2/2
f 79/3/2 81/34/2 80/4/2
f 91/35/2 80/4/2 81/34/2
f 87/36/2 82/33/2 79/3/2
f 81/34/2 79/3/2 82/33/2
f 77/38/5 90/40/5 89/37/5
f 90/40/5 77/38/5 80/39/5
f 89/4/1 85/3/1 88/33/1
f 78/2/1 88/33/1 85/3/1
f 77/1/1 89/4/1 92/34/1
f 88/33/1 92/34/1 89/4/1
f 77/1/1 83/36/1 78/2/1
f 88/33/1 78/2/1 83/36/1
f 92/34/1 84/35/1 77/1/1
f 83/36/1 77/1/1 84/35/1
f 81/42/3 92/44/3 91/41/3
f 92/44/3 81/42/3 84/43/3

usemtl 274516
f 97/49/2 98/50/2 96/48/2
f 99/51/2 96/48/2 98/50/2
f 100/52/2 97/49/2 93/45/2
f 96/48/2 93/45/2 97/49/2
f 100/52/2 95/47/2 99/51/2
f 96/48/2 99/51/2 95/47/2
f 93/45/2 94/46/2 100/52/2
f 95/47/2 100/52/2 94/46/2
f 106/58/1 107/59/1 103/55/1
f 108/60/1 103/55/1 107/59/1
f 105/57/1 106/58/1 104/56/1
f 103/55/1 104/56/1 106/58/1
f 105/57/1 102/54/1 108/60/1
f 103/55/1 108/60/1 102/54/1
f 104/56/1 101/53/1 105/57/1
f 102/54/1 105/57/1 101/53/1
f 105/63/6 97/64/6 100/61/6
f 100/61/6 106/62/6 105/63/6
f 106/67/3 100/68/3 99/65/3
f 99/65/3 107/66/3 106/67/3
f 107/62/4 99/70/4 98/69/4
f 98/69/4 108/63/4 107/62/4
f 108/73/5 98/74/5 97/71/5
f 97/71/5 105/72/5 108/73/5
f 101/77/3 93/78/3 96/75/3
f 96/75/3 102/76/3 101/77/3
f 103/80/6 96/82/6 95/79/6
f 96/82/6 103/80/6 102/81/6
f 103/85/5 95/86/5 94/83/5
f 94/83/5 104/84/5 103/85/5
f 101/81/4 94/88/4 93/87/4
f 94/88/4 101/81/4 104/80/4
