## ElementId 150879
## Vertice Count:10
## Triangle Count:16
mtllib 150879.mtl
o 150879

v 1.1836 2.9 17.1611
v 1.1836 2.9 16.8011
v 1.1836 3.3 16.8011
v 1.1836 3.3 17.1611
v 1.0636 2.9 17.1611
v 1.0636 3.3 17.1611
v 1.0636 3.3 17.0411
v 1.0636 3.3 16.8011
v 1.0636 2.9 16.8011
v 1.0636 2.9 17.0411
vt -0.06 0.3
vt 0.3 0.3
vt 0.3 0.7
vt -0.06 0.7
vt 0.06 0.3
vt 0.06 0.7
vt -0.3 0.7
vt -0.3 0.3
vt 0.3 0.06
vt -0.06 0.06
vt -0.06 -0.06
vt 0.06 -0.06
vt 0.3 -0.06
vt 0.06 0.06
vt 3.24 0.3
vt 3.24 0.7
vt 3.12 0.7
vt 3.12 0.3
vn 0.3048 0 0
vn -0.3048 0 0
vn 0 -0.3048 0
vn 0 0.3048 0
vn 0 0 0.3048
vn 0 0 -0.3048

usemtl 90484
f 4/4/1 1/1/1 2/2/1
f 2/2/1 3/3/1 4/4/1
f 8/7/2 9/8/2 10/1/2
f 8/7/2 10/1/2 7/4/2
f 10/1/2 6/6/2 7/4/2
f 6/6/2 10/1/2 5/5/2
f 2/9/3 1/10/3 10/12/3
f 5/11/3 10/12/3 1/10/3
f 10/12/3 9/13/3 2/9/3
f 4/11/4 3/13/4 7/14/4
f 8/9/4 7/14/4 3/13/4
f 7/14/4 6/10/4 4/11/4
f 6/17/5 5/18/5 1/15/5
f 1/15/5 4/16/5 6/17/5
f 2/1/6 9/5/6 8/6/6
f 8/6/6 3/4/6 2/1/6
