## ElementId 195883
## Vertice Count:179
## Triangle Count:285
mtllib 195883.mtl
o 195883

v 0.8114 15.0141 14.5824
v 0.8054 15.0428 14.5931
v 0.788 15.0671 14.6021
v 0.7621 15.0834 14.608
v 0.7314 15.0892 14.61
v 0.7008 15.0835 14.6077
v 0.6749 15.0673 14.6015
v 0.6575 15.043 14.5923
v 0.6514 15.0144 14.5816
v 0.6594 15.0144 14.5816
v 0.6652 15.0407 14.5915
v 0.6815 15.0629 14.5999
v 0.7057 15.0773 14.6054
v 0.7341 15.0816 14.6072
v 0.762 15.0752 14.605
v 0.7851 15.0591 14.5991
v 0.7996 15.0359 14.5904
v 0.8033 15.0091 14.5805
v 0.8638 14.9915 14.5742
v 0.9268 14.9849 14.5721
v 0.99 14.9896 14.5742
v 1.0511 15.0055 14.5805
v 1.0482 15.0125 14.5831
v 0.99 14.9972 14.577
v 0.9297 14.9923 14.5749
v 0.8695 14.998 14.5767
v 0.8045 15.0967 14.3463
v 0.8543 15.0813 14.3408
v 0.9061 15.0734 14.3382
v 0.9585 15.0733 14.3384
v 1.0103 15.0808 14.3415
v 1.0601 15.0959 14.3474
v 1.0628 15.0889 14.3448
v 1.0107 15.0732 14.3387
v 0.9565 15.0656 14.3355
v 0.9017 15.0663 14.3355
v 0.8477 15.0752 14.3385
v 0.7959 15.092 14.3445
v 0.7947 15.1166 14.3537
v 0.7831 15.1386 14.3619
v 0.7631 15.1545 14.3677
v 0.7379 15.1615 14.3702
v 0.7119 15.1585 14.3689
v 0.6893 15.1459 14.3641
v 0.6741 15.1259 14.3565
v 0.6687 15.1019 14.3475
v 0.6607 15.1019 14.3475
v 0.6665 15.1283 14.3574
v 0.6828 15.1504 14.3657
v 0.707 15.1648 14.3712
v 0.7354 15.1692 14.373
v 0.7633 15.1628 14.3708
v 0.7864 15.1467 14.3649
v 0.8009 15.1234 14.3563
v 0.7936 15.135 14.3606
v 0.7967 15.0549 14.5976
v 0.8001 15.0896 14.4771
v 0.8056 15.0756 14.4719
v 0.8084 15.0284 14.5877
v 0.8027 15.11 14.3513
v 0.775 15.0753 14.605
v 0.7748 15.1547 14.3678
v 0.7694 15.1199 14.4883
v 0.7549 15.1259 14.4904
v 0.7493 15.166 14.3719
v 0.7468 15.0863 14.609
v 0.6879 15.0754 14.6046
v 0.6949 15.1576 14.3685
v 0.6845 15.1136 14.4854
v 0.6732 15.1031 14.4814
v 0.6746 15.1394 14.3615
v 0.6662 15.0552 14.5969
v 0.6541 15.027 14.5863
v 0.6636 15.1151 14.3524
v 0.656 15.0574 14.4666
v 0.6594 15.079 14.4724
v 0.6649 15.0896 14.483
v 0.7212 15.167 14.3721
v 0.7161 15.0863 14.6089
v 0.7259 15.129 14.4914
v 0.7405 15.1267 14.4973
v 0.7919 15.1017 14.4816
v 0.7816 15.1134 14.4807
v 0.808 15.0554 14.4643
v 0.6973 15.1214 14.4884
v 0.7111 15.1249 14.495
v 0.6817 15.1359 14.3603
v 0.6733 15.0518 14.5957
v 0.6727 15.0891 14.4762
v 0.6666 15.0753 14.471
v 0.6623 15.0275 14.5866
v 0.6714 15.1139 14.352
v 0.6936 15.0701 14.6027
v 0.7006 15.1522 14.3665
v 0.7024 15.1154 14.4862
v 0.7175 15.1202 14.4881
v 0.7249 15.16 14.3695
v 0.7199 15.0794 14.6063
v 0.7736 15.0672 14.602
v 0.7731 15.1466 14.3648
v 0.7794 15.1036 14.4822
v 0.7895 15.092 14.4779
v 0.7889 15.1276 14.3578
v 0.7923 15.0475 14.5948
v 0.8016 15.0211 14.5849
v 0.7953 15.1043 14.3491
v 0.7998 15.0481 14.4695
v 0.7988 15.0699 14.4697
v 0.7955 15.0761 14.4894
v 0.7505 15.158 14.3689
v 0.7481 15.0784 14.6061
v 0.7429 15.1209 14.4885
v 0.7299 15.1164 14.5042
v 0.6811 15.1002 14.4804
v 0.6913 15.113 14.4717
v 0.6641 15.0581 14.4646
v 0.7679 15.112 14.4853
v 0.7558 15.1136 14.4994
v 0.8335 15.0003 14.5773
v 0.8953 14.9882 14.5731
v 0.9584 14.9872 14.5731
v 1.0206 14.9975 14.5773
v 1.0553 15.0353 14.4962
v 1.0542 15.0542 14.4652
v 1.0512 15.0333 14.5242
v 1.0591 15.0621 14.4205
v 1.0572 15.0751 14.4063
v 1.0493 15.0199 14.562
v 1.0532 15.0204 14.5383
v 1.0494 15.0097 14.582
v 1.0512 15.0188 14.5535
v 1.0526 15.0289 14.5246
v 1.0527 15.0438 14.4947
v 1.0572 15.0487 14.4583
v 1.0557 15.0646 14.4358
v 1.0549 15.0453 14.4786
v 1.0563 15.0561 14.4493
v 1.0577 15.0666 14.4199
v 1.0609 15.0755 14.3826
v 1.0592 15.0768 14.3907
v 1.0587 15.0855 14.3769
v 1.0615 15.0924 14.3461
v 1.0618 15.0814 14.3659
v 1.0605 15.0807 14.3751
v 1.0597 15.0838 14.374
v 1.0623 15.0902 14.3453
v 1.0612 15.0865 14.3594
v 1.0605 15.0886 14.3595
v 1.0499 15.0161 14.5661
v 1.0502 15.0076 14.5813
v 1.0522 15.0129 14.5594
v 1.0503 15.0266 14.5431
v 1.0505 15.0219 14.551
v 1.0514 15.0276 14.5343
v 1.0522 15.0331 14.5187
v 1.0539 15.0368 14.5015
v 1.052 15.0386 14.5094
v 1.0531 15.0393 14.5014
v 1.0538 15.045 14.4855
v 1.0547 15.0504 14.4695
v 1.0534 15.049 14.48
v 1.0557 15.0504 14.4636
v 1.0581 15.0554 14.4394
v 1.0568 15.0527 14.4526
v 1.0575 15.0591 14.4358
v 1.0506 15.0132 14.5681
v 1.0568 15.0617 14.4348
v 1.0519 15.0239 14.5391
v 1.0542 15.0279 14.5172
v 1.0562 15.042 14.4772
v 1.0549 15.0594 14.4505
v 1.0564 15.0699 14.4211
v 1.058 15.0728 14.4056
v 1.0589 15.0705 14.405
v 1.06 15.0688 14.4016
v 1.0599 15.0744 14.3911
v 1.0585 15.065 14.4181
v 1.0579 15.0803 14.3916
v 1.0594 15.0907 14.3622
vt 0.16 4.1834
vt 0.1539 4.214
vt 0.1366 4.24
vt 0.1106 4.2573
vt 0.08 4.2634
vt 0.0494 4.2573
vt 0.0234 4.24
vt 0.0061 4.214
vt 0 4.1834
vt 0.008 4.1834
vt 0.0137 4.2116
vt 0.03 4.2352
vt 0.0543 4.2507
vt 0.0827 4.2554
vt 0.1106 4.2486
vt 0.1336 4.2314
vt 0.1482 4.2066
vt 0.1518 4.1781
vt 0.2124 4.1593
vt 0.2754 4.1524
vt 0.3386 4.1576
vt 0.3997 4.1747
vt 0.3968 4.1821
vt 0.3385 4.1657
vt 0.2783 4.1604
vt 0.2181 4.1664
vt -0.1518 4.1781
vt -0.2016 4.1618
vt -0.2534 4.1535
vt -0.3058 4.1534
vt -0.3576 4.1616
vt -0.4074 4.1778
vt -0.4101 4.1702
vt -0.3579 4.1534
vt -0.3037 4.1452
vt -0.249 4.1458
vt -0.195 4.1552
vt -0.1432 4.1731
vt -0.142 4.1993
vt -0.1304 4.2229
vt -0.1103 4.2398
vt -0.0852 4.2472
vt -0.0591 4.2439
vt -0.0366 4.2304
vt -0.0214 4.2091
vt -0.016 4.1834
vt -0.008 4.1834
vt -0.0137 4.2116
vt -0.03 4.2352
vt -0.0543 4.2507
vt -0.0827 4.2554
vt -0.1106 4.2486
vt -0.1336 4.2314
vt -0.1482 4.2066
vt -0.1283 0.1361
vt -0.0981 0.1361
vt -0.0679 0.1361
vt -0.0378 0.1361
vt -0.0076 0.1361
vt 0.0226 0.1362
vt 0.0527 0.1362
vt 0.0829 0.1362
vt 0.1131 0.1362
vt 0.1157 0.3864
vt 0.0856 0.3863
vt 0.0554 0.3863
vt 0.0252 0.3863
vt -0.005 0.3863
vt -0.0351 0.3863
vt -0.0653 0.3863
vt -0.0955 0.3862
vt -0.1256 0.3862
vt -0.083 0.1361
vt -0.0804 0.3862
vt -0.0892 0.2612
vt -0.1051 0.2612
vt -0.1106 0.3862
vt -0.1132 0.1361
vt -0.0502 0.3863
vt -0.0529 0.1361
vt -0.044 0.2612
vt -0.0281 0.2612
vt -0.0227 0.1361
vt -0.02 0.3863
vt 0.0403 0.3863
vt 0.0377 0.1362
vt 0.0465 0.2612
vt 0.0624 0.2613
vt 0.0678 0.1362
vt 0.0705 0.3863
vt 0.1025 0.3863
vt 0.098 0.1362
vt 0.1144 0.2635
vt 0.0918 0.2613
vt 0.0772 0.2675
vt 0.0075 0.1362
vt 0.0101 0.3863
vt 0.0013 0.2612
vt -0.0134 0.2674
vt -0.0739 0.2612
vt -0.059 0.2564
vt -0.127 0.2611
vt 0.0312 0.2612
vt 0.0163 0.2661
vt -0.6016 0
vt -0.5936 0
vt -0.6016 0.25
vt -0.6096 0.25
vt -0.2708 0.1363
vt -0.2432 0.1362
vt -0.2155 0.1362
vt -0.1878 0.1361
vt -0.1602 0.1361
vt -0.1325 0.136
vt -0.1048 0.136
vt -0.0771 0.1359
vt -0.0495 0.1359
vt -0.052 0.386
vt -0.0796 0.3861
vt -0.1073 0.3861
vt -0.135 0.3862
vt -0.1627 0.3862
vt -0.1903 0.3863
vt -0.218 0.3863
vt -0.2457 0.3864
vt -0.2734 0.3865
vt -0.2293 0.1362
vt -0.2319 0.3864
vt -0.2375 0.2613
vt -0.2535 0.2613
vt -0.2595 0.3864
vt -0.257 0.1363
vt -0.2042 0.3863
vt -0.2017 0.1362
vt -0.196 0.2612
vt -0.18 0.2612
vt -0.174 0.1361
vt -0.1765 0.3863
vt -0.1212 0.3862
vt -0.1186 0.136
vt -0.113 0.2611
vt -0.097 0.2611
vt -0.091 0.136
vt -0.0935 0.3861
vt -0.0644 0.3861
vt -0.0633 0.1359
vt -0.0508 0.2684
vt -0.0715 0.261
vt -0.0844 0.2774
vt -0.1463 0.1361
vt -0.1488 0.3862
vt -0.1545 0.2612
vt -0.1674 0.2775
vt -0.2229 0.2613
vt -0.2093 0.2486
vt -0.2721 0.2614
vt -0.1275 0.2611
vt -0.1411 0.2738
vt 0.0936 0.1326
vt 0.1464 0.1326
vt 0.1993 0.1326
vt 0.2521 0.1326
vt 0.3049 0.1325
vt 0.3578 0.1325
vt 0.3568 0.3826
vt 0.2908 0.3827
vt 0.2247 0.3827
vt 0.1587 0.3827
vt 0.0927 0.3827
vt 0.1257 0.3827
vt 0.1917 0.3827
vt 0.2578 0.3827
vt 0.3238 0.3827
vt -3.748 0.3996
vt -3.756 0.4003
vt -3.7862 0.1517
vt -3.7783 0.151
vt -3.7674 0.2399
vt -3.7711 0.276
vt -3.7787 0.2139
vt -3.7577 0.3197
vt -3.7636 0.3381
vt -3.7835 0.174
vt -3.7729 0.1955
vt -3.7831 0.1514
vt -3.7784 0.1811
vt -3.7746 0.2115
vt -3.7749 0.2449
vt -3.7626 0.2798
vt -3.7673 0.3071
vt -3.7688 0.2601
vt -3.7654 0.2912
vt -3.7618 0.3223
vt -3.7529 0.3596
vt -3.7579 0.353
vt -3.7598 0.3692
vt -3.752 0.3999
vt -3.7507 0.3773
vt -3.7543 0.3687
vt -3.7568 0.3711
vt -3.7496 0.3997
vt -3.7525 0.3854
vt -3.7546 0.3862
vt -3.7817 0.1686
vt -3.7807 0.1512
vt -3.7756 0.1732
vt -3.7811 0.1939
vt -3.7803 0.1847
vt -3.7779 0.2023
vt -3.7759 0.2186
vt -3.7714 0.2357
vt -3.7768 0.2294
vt -3.7737 0.237
vt -3.7718 0.2537
vt -3.7695 0.2706
vt -3.773 0.2605
vt -3.7667 0.2758
vt -3.7602 0.2998
vt -3.7638 0.2868
vt -3.7621 0.3047
vt -3.7799 0.1655
vt -3.7641 0.3067
vt -3.7766 0.1963
vt -3.7701 0.2177
vt -3.765 0.2599
vt -3.7692 0.2915
vt -3.7654 0.3226
vt -3.7611 0.3379
vt -3.7586 0.3374
vt -3.7553 0.3397
vt -3.7558 0.3516
vt -3.7595 0.3231
vt -3.7617 0.3537
vt -3.7579 0.3847
vt -0.3924 0.1328
vt -0.342 0.1328
vt -0.2915 0.1328
vt -0.241 0.1328
vt -0.1905 0.1328
vt -0.1401 0.1328
vt -0.1388 0.383
vt -0.2019 0.383
vt -0.2649 0.3829
vt -0.328 0.3829
vt -0.3911 0.3829
vn 0 0 0.3048
vn 0 0 -0.3048
vn 0.3038 -0.0224 -0.0095
vn 0.2884 0.0982 -0.0095
vn 0.227 0.2032 -0.0096
vn 0.1294 0.2758 -0.0096
vn 0.0112 0.3044 -0.0097
vn -0.1088 0.2846 -0.0097
vn -0.2114 0.2193 -0.0097
vn -0.2804 0.1192 -0.0097
vn -0.3046 0 -0.0097
vn -0.2815 0.1166 -0.0098
vn -0.2154 0.2154 -0.0098
vn -0.1166 0.2815 -0.0098
vn 0 0.3046 -0.0098
vn 0.1166 0.2815 -0.0098
vn 0.2154 0.2154 -0.0099
vn 0.2814 0.1166 -0.0099
vn 0.3046 0 -0.01
vn 0.263 0.1538 -0.0096
vn 0.2533 0.1692 -0.0099
vn 0.2728 0.1355 -0.0098
vn 0.295 0.076 -0.0098
vn 0.2988 0.0594 -0.01
vn 0.3022 0.0387 -0.0095
vn 0.1692 0.2533 -0.0099
vn 0.1819 0.2444 -0.0096
vn 0.1498 0.2653 -0.0098
vn 0.0915 0.2906 -0.0097
vn 0.0718 0.2961 -0.0097
vn 0.0594 0.2988 -0.0098
vn -0.1693 0.2533 -0.0098
vn -0.1634 0.2571 -0.0097
vn -0.1909 0.2374 -0.0097
vn -0.236 0.1926 -0.0097
vn -0.2509 0.1727 -0.0097
vn -0.2533 0.1693 -0.0098
vn -0.3001 0.0524 -0.0097
vn -0.2985 0.0608 -0.0097
vn -0.2912 0.0894 -0.0097
vn -0.2687 0.1436 -0.0097
vn -0.0498 0.3006 -0.0097
vn -0.0594 0.2988 -0.0098
vn -0.0248 0.3036 -0.0097
vn 0.0337 0.3028 -0.0098
vn 0.2401 0.1875 -0.0098
vn 0.199 0.2307 -0.0097
vn 0.3045 -0.0108 -0.0098
vn -0.1394 0.2709 -0.0097
vn -0.0839 0.2929 -0.0098
vn 0 -0.3048 0
vn 0.3046 0 0.0097
vn 0.279 -0.1222 0.0097
vn 0.2065 -0.2239 0.0097
vn 0.0993 -0.288 0.0097
vn -0.0246 -0.3037 0.0097
vn -0.1444 -0.2683 0.0096
vn -0.2399 -0.1878 0.0096
vn -0.2951 -0.0757 0.0095
vn -0.3007 0.049 0.0094
vn -0.3038 0.0224 0.0101
vn -0.2884 -0.0982 0.01
vn -0.227 -0.2032 0.0099
vn -0.1294 -0.2758 0.0099
vn -0.0112 -0.3044 0.0098
vn 0.1088 -0.2846 0.0098
vn 0.2114 -0.2193 0.0098
vn 0.2804 -0.1192 0.0098
vn 0.2481 -0.1768 0.0097
vn 0.2509 -0.1727 0.0098
vn 0.266 -0.1484 0.0097
vn 0.2933 -0.0822 0.0097
vn 0.2985 -0.0608 0.0097
vn 0.2982 -0.0624 0.0097
vn 0.1634 -0.2571 0.0098
vn 0.1562 -0.2615 0.0097
vn 0.1328 -0.2742 0.0097
vn 0.0651 -0.2976 0.0097
vn 0.0382 -0.3022 0.0097
vn 0.0498 -0.3005 0.0098
vn -0.1818 -0.2444 0.0099
vn -0.1963 -0.233 0.0096
vn -0.2121 -0.2186 0.0098
vn -0.2573 -0.163 0.0098
vn -0.2733 -0.1346 0.0095
vn -0.263 -0.1538 0.0099
vn -0.3029 -0.0324 0.01
vn -0.3043 -0.0137 0.0095
vn -0.3027 0.0344 0.0098
vn -0.2992 -0.0575 0.0098
vn -0.2827 -0.1136 0.0098
vn -0.0863 -0.2922 0.0096
vn -0.0718 -0.2961 0.0098
vn -0.0484 -0.3008 0.0098
vn 0.0093 -0.3045 0.0098
vn 0.2284 -0.2016 0.0097
vn 0.1839 -0.2429 0.0097
vn -0.1608 -0.2588 0.0098
vn -0.1059 -0.2856 0.0098
vn -0.1224 -0.279 0.0098
vn -0.0761 -0.295 0.0098
vn -0.0278 -0.3034 0.0097
vn 0.0212 -0.3039 0.0098
vn 0.0697 -0.2966 0.0098
vn 0.1164 -0.2815 0.0099
vn 0.1096 -0.2842 0.0096
vn 0.0537 -0.2999 0.0097
vn -0.0042 -0.3046 0.0097
vn -0.062 -0.2983 0.0097
vn -0.1175 -0.2811 0.0097
vn -0.0901 -0.291 0.0097
vn -0.0332 -0.3028 0.0097
vn 0.0249 -0.3036 0.0097
vn 0.082 -0.2934 0.0097
vn 0.2871 0.1018 0.0102
vn 0.2871 0.1018 0.0104
vn 0.2842 0.1096 0.0102
vn 0.2842 0.1096 0.0099
vn 0.2853 0.1068 0.01
vn 0.2857 0.1057 0.0103
vn 0.285 0.1077 0.0102
vn 0.2862 0.1043 0.0101
vn 0.2864 0.1037 0.0104
vn 0.2845 0.1089 0.0102
vn 0.2848 0.1082 0.01
vn 0.2842 0.1096 0.0101
vn 0.2846 0.1087 0.0101
vn 0.2849 0.1077 0.0101
vn 0.2853 0.1067 0.0103
vn 0.2858 0.1056 0.01
vn 0.2861 0.1047 0.0103
vn 0.2855 0.1062 0.0102
vn 0.2859 0.1052 0.0102
vn 0.2862 0.1042 0.0102
vn 0.2867 0.103 0.0101
vn 0.2866 0.1033 0.0103
vn 0.2868 0.1028 0.0104
vn 0.2871 0.1018 0.0103
vn 0.2869 0.1025 0.0101
vn 0.2868 0.1028 0.0102
vn 0.2868 0.1027 0.0103
vn 0.287 0.1022 0.0102
vn 0.287 0.1022 0.0103
vn 0.2844 0.1091 0.0101
vn 0.2842 0.1096 0.01
vn 0.2845 0.1089 0.0099
vn 0.2847 0.1083 0.0102
vn 0.2846 0.1086 0.0101
vn 0.2848 0.108 0.0102
vn 0.285 0.1075 0.0102
vn 0.2852 0.107 0.0101
vn 0.2851 0.1072 0.0103
vn 0.2852 0.1069 0.0102
vn 0.2854 0.1064 0.0102
vn 0.2856 0.1059 0.0102
vn 0.2855 0.1062 0.0103
vn 0.2857 0.1057 0.0102
vn 0.286 0.1049 0.0101
vn 0.2858 0.1054 0.0101
vn 0.286 0.1048 0.0102
vn 0.2844 0.1092 0.01
vn 0.2861 0.1047 0.0102
vn 0.2848 0.1082 0.0101
vn 0.285 0.1075 0.01
vn 0.2855 0.1062 0.01
vn 0.2859 0.1052 0.0103
vn 0.2862 0.1042 0.0104
vn 0.2864 0.1038 0.0103
vn 0.2864 0.1038 0.0102
vn 0.2864 0.1037 0.0101
vn 0.2866 0.1033 0.0102
vn 0.2863 0.1042 0.0102
vn 0.2866 0.1033 0.0104
vn 0.2869 0.1023 0.0104
vn -0.1167 0.2814 -0.0099
vn -0.0711 0.2962 -0.0098
vn -0.0236 0.3037 -0.0098
vn 0.0244 0.3037 -0.0097
vn 0.0718 0.2961 -0.0098
vn 0.1175 0.2811 -0.0098
vn 0.1127 0.2831 -0.0097
vn 0.0581 0.299 -0.0097
vn 0.0016 0.3046 -0.0097
vn -0.055 0.2996 -0.0097
vn -0.1096 0.2842 -0.0096

usemtl 191881
f 20/20/1 21/21/1 25/25/1
f 25/25/1 21/21/1 24/24/1
f 20/20/1 25/25/1 26/26/1
f 24/24/1 22/22/1 23/23/1
f 22/22/1 24/24/1 21/21/1
f 18/18/1 19/19/1 1/1/1
f 26/26/1 19/19/1 20/20/1
f 1/1/1 19/19/1 26/26/1
f 2/2/1 17/17/1 1/1/1
f 8/8/1 9/9/1 10/10/1
f 17/17/1 18/18/1 1/1/1
f 2/2/1 3/3/1 16/16/1
f 16/16/1 3/3/1 15/15/1
f 15/15/1 4/4/1 14/14/1
f 4/4/1 15/15/1 3/3/1
f 14/14/1 4/4/1 5/5/1
f 8/8/1 11/11/1 7/7/1
f 7/7/1 11/11/1 12/12/1
f 11/11/1 8/8/1 10/10/1
f 13/13/1 5/5/1 6/6/1
f 7/7/1 12/12/1 6/6/1
f 6/6/1 12/12/1 13/13/1
f 14/14/1 5/5/1 13/13/1
f 16/16/1 17/17/1 2/2/1
f 36/36/2 37/37/2 28/28/2
f 28/28/2 37/37/2 27/27/2
f 36/36/2 28/28/2 29/29/2
f 46/46/2 47/47/2 48/48/2
f 38/38/2 27/27/2 37/37/2
f 39/39/2 27/27/2 38/38/2
f 35/35/2 30/30/2 34/34/2
f 30/30/2 35/35/2 29/29/2
f 34/34/2 30/30/2 31/31/2
f 32/32/2 33/33/2 31/31/2
f 31/31/2 33/33/2 34/34/2
f 35/35/2 36/36/2 29/29/2
f 44/44/2 45/45/2 49/49/2
f 48/48/2 45/45/2 46/46/2
f 49/49/2 45/45/2 48/48/2
f 50/50/2 43/43/2 44/44/2
f 51/51/2 43/43/2 50/50/2
f 50/50/2 44/44/2 49/49/2
f 42/42/2 43/43/2 51/51/2
f 39/39/2 40/40/2 54/54/2
f 54/54/2 40/40/2 53/53/2
f 39/39/2 54/54/2 27/27/2
f 41/41/2 42/42/2 52/52/2
f 41/41/2 53/53/2 40/40/2
f 52/52/2 53/53/2 41/41/2
f 42/42/2 51/51/2 52/52/2
f 54/56/4 55/73/20 57/75/22
f 57/75/22 2/71/18 58/76/23
f 63/81/28 4/69/16 61/79/26
f 67/85/32 85/103/49 69/87/34
f 81/99/45 65/83/30 51/59/7
f 63/81/28 64/82/29 4/69/16
f 84/102/48 60/78/25 58/76/23
f 69/87/34 85/103/49 68/86/33
f 57/75/22 58/76/23 54/56/4
f 56/74/21 57/75/22 82/100/46
f 56/74/21 2/71/18 57/75/22
f 55/73/20 82/100/46 57/75/22
f 52/58/6 63/81/28 62/80/27
f 82/100/46 55/73/20 53/57/5
f 81/99/45 66/84/31 64/82/29
f 66/84/31 4/69/16 64/82/29
f 69/87/34 7/66/13 67/85/32
f 64/82/29 52/58/6 65/83/30
f 69/87/34 70/88/35 7/66/13
f 3/70/17 82/100/46 83/101/47
f 64/82/29 63/81/28 52/58/6
f 75/93/11 73/91/38 76/94/40
f 59/77/24 84/102/48 58/76/23
f 81/99/45 80/98/44 5/68/15
f 69/87/34 68/86/33 49/61/9
f 77/95/41 72/90/37 70/88/35
f 60/78/25 54/56/4 58/76/23
f 6/67/14 79/97/43 86/104/50
f 75/93/11 76/94/40 74/92/39
f 61/79/26 3/70/17 83/101/47
f 63/81/28 83/101/47 62/80/27
f 79/97/43 80/98/44 86/104/50
f 51/59/7 80/98/44 81/99/45
f 58/76/23 2/71/18 59/77/24
f 67/85/32 6/67/14 85/103/49
f 70/88/35 69/87/34 49/61/9
f 70/88/35 49/61/9 71/89/36
f 48/62/10 76/94/40 77/95/41
f 74/92/39 47/63/11 75/93/11
f 77/95/41 71/89/36 48/62/10
f 72/90/37 7/66/13 70/88/35
f 74/92/39 76/94/40 48/62/10
f 77/95/41 76/94/40 8/65/12
f 75/93/11 9/64/11 73/91/38
f 73/91/38 8/65/12 76/94/40
f 72/90/37 77/95/41 8/65/12
f 77/95/41 70/88/35 71/89/36
f 51/59/7 78/96/42 80/98/44
f 78/96/42 50/60/8 86/104/50
f 86/104/50 50/60/8 85/103/49
f 79/97/43 5/68/15 80/98/44
f 66/84/31 81/99/45 5/68/15
f 81/99/45 64/82/29 65/83/30
f 53/57/5 62/80/27 83/101/47
f 56/74/21 82/100/46 3/70/17
f 61/79/26 83/101/47 63/81/28
f 53/57/5 83/101/47 82/100/46
f 84/102/48 59/77/24 1/72/19
f 27/55/3 60/78/25 84/102/48
f 68/86/33 85/103/49 50/60/8
f 78/96/42 86/104/50 80/98/44
f 6/67/14 86/104/50 85/103/49
f 9/108/51 47/105/51 10/107/51
f 46/106/51 10/107/51 47/105/51
f 45/110/53 87/127/69 89/129/71
f 89/129/71 11/125/68 90/130/72
f 95/135/77 13/123/66 93/133/75
f 99/139/81 117/157/98 101/141/83
f 113/153/95 97/137/79 42/113/56
f 95/135/77 96/136/78 13/123/66
f 116/156/52 92/132/74 90/130/72
f 101/141/83 117/157/98 100/140/82
f 89/129/71 90/130/72 45/110/53
f 88/128/70 89/129/71 114/154/96
f 88/128/70 11/125/68 89/129/71
f 87/127/69 114/154/96 89/129/71
f 43/112/55 95/135/77 94/134/76
f 114/154/96 87/127/69 44/111/54
f 113/153/95 98/138/80 96/136/78
f 98/138/80 13/123/66 96/136/78
f 101/141/83 16/120/63 99/139/81
f 96/136/78 43/112/55 97/137/79
f 101/141/83 102/142/84 16/120/63
f 12/124/67 114/154/96 115/155/97
f 96/136/78 95/135/77 43/112/55
f 107/147/89 105/145/87 108/148/90
f 91/131/73 116/156/52 90/130/72
f 113/153/95 112/152/94 14/122/65
f 101/141/83 100/140/82 40/115/58
f 109/149/91 104/144/86 102/142/84
f 92/132/74 45/110/53 90/130/72
f 15/121/64 111/151/93 118/158/99
f 107/147/89 108/148/90 106/146/88
f 93/133/75 12/124/67 115/155/97
f 95/135/77 115/155/97 94/134/76
f 111/151/93 112/152/94 118/158/99
f 42/113/56 112/152/94 113/153/95
f 90/130/72 11/125/68 91/131/73
f 99/139/81 15/121/64 117/157/98
f 102/142/84 101/141/83 40/115/58
f 102/142/84 40/115/58 103/143/85
f 39/116/59 108/148/90 109/149/91
f 39/116/59 106/146/88 108/148/90
f 109/149/91 103/143/85 39/116/59
f 104/144/86 16/120/63 102/142/84
f 38/117/60 107/147/89 106/146/88
f 109/149/91 108/148/90 17/119/62
f 107/147/89 18/118/61 105/145/87
f 105/145/87 17/119/62 108/148/90
f 104/144/86 109/149/91 17/119/62
f 109/149/91 102/142/84 103/143/85
f 42/113/56 110/150/92 112/152/94
f 110/150/92 41/114/57 118/158/99
f 118/158/99 41/114/57 117/157/98
f 111/151/93 14/122/65 112/152/94
f 98/138/80 113/153/95 14/122/65
f 113/153/95 96/136/78 97/137/79
f 44/111/54 94/134/76 115/155/97
f 88/128/70 114/154/96 12/124/67
f 93/133/75 115/155/97 95/135/77
f 44/111/54 115/155/97 114/154/96
f 116/156/52 91/131/73 10/126/52
f 46/109/52 92/132/74 116/156/52
f 100/140/82 117/157/98 41/114/57
f 110/150/92 118/158/99 112/152/94
f 15/121/64 118/158/99 117/157/98
f 36/161/102 20/167/108 120/171/112
f 119/170/111 18/169/110 38/159/100
f 38/159/100 37/160/101 119/170/111
f 37/160/101 36/161/102 19/168/109
f 37/160/101 19/168/109 119/170/111
f 120/171/112 19/168/109 36/161/102
f 21/166/107 35/162/103 34/163/104
f 122/173/114 33/164/105 22/165/106
f 35/162/103 21/166/107 121/172/113
f 33/164/105 122/173/114 34/163/104
f 122/173/114 21/166/107 34/163/104
f 35/162/103 20/167/108 36/161/102
f 121/172/113 20/167/108 35/162/103
f 165/220/160 137/192/133 164/219/159
f 155/210/150 158/213/153 157/212/152
f 150/205/145 166/221/161 130/185/126
f 172/227/167 173/228/168 127/182/123
f 158/213/153 159/214/154 133/188/129
f 131/186/127 153/208/148 149/204/144
f 174/229/169 140/195/136 173/228/168
f 154/209/149 168/223/163 132/187/128
f 151/206/146 150/205/145 22/177/118
f 151/206/146 131/186/127 166/221/161
f 23/176/117 130/185/126 149/204/144
f 129/184/125 132/187/128 168/223/163
f 132/187/128 169/224/164 156/211/151
f 155/210/150 125/180/121 154/209/149
f 136/191/132 156/211/151 123/178/119
f 132/187/128 156/211/151 155/210/150
f 167/222/162 138/193/134 172/227/167
f 162/217/157 136/191/132 170/225/165
f 171/226/166 124/179/120 160/215/155
f 162/217/157 137/192/133 160/215/155
f 134/189/130 164/219/159 162/217/157
f 165/220/160 167/222/162 137/192/133
f 140/195/136 174/229/169 176/231/171
f 143/198/139 146/201/115 147/202/142
f 145/200/141 140/195/136 144/199/140
f 143/198/139 33/174/115 146/201/115
f 140/195/136 176/231/171 144/199/140
f 140/195/136 178/233/173 173/228/168
f 179/234/174 145/200/141 148/203/143
f 143/198/139 144/199/140 139/194/135
f 148/203/143 32/175/116 179/234/174
f 145/200/141 144/199/140 147/202/142
f 145/200/141 147/202/142 148/203/143
f 147/202/142 146/201/115 142/197/138
f 147/202/142 142/197/138 148/203/143
f 143/198/139 147/202/142 144/199/140
f 142/197/138 32/175/116 148/203/143
f 179/234/174 141/196/137 145/200/141
f 152/207/147 153/208/148 154/209/149
f 23/176/117 149/204/144 128/183/124
f 149/204/144 166/221/161 131/186/127
f 154/209/149 125/180/121 152/207/147
f 129/184/125 131/186/127 151/206/146
f 149/204/144 153/208/148 128/183/124
f 128/183/124 153/208/148 152/207/147
f 168/223/163 153/208/148 131/186/127
f 154/209/149 132/187/128 155/210/150
f 132/187/128 129/184/125 169/224/164
f 158/213/153 155/210/150 156/211/151
f 134/189/130 162/217/157 170/225/165
f 159/214/154 158/213/153 156/211/151
f 157/212/152 158/213/153 133/188/129
f 157/212/152 125/180/121 155/210/150
f 159/214/154 156/211/151 136/191/132
f 160/215/155 159/214/154 136/191/132
f 160/215/155 161/216/156 159/214/154
f 162/217/157 160/215/155 136/191/132
f 167/222/162 171/226/166 137/192/133
f 161/216/156 160/215/155 124/179/120
f 161/216/156 133/188/129 159/214/154
f 165/220/160 126/181/122 177/232/172
f 162/217/157 164/219/159 137/192/133
f 134/189/130 163/218/158 164/219/159
f 165/220/160 164/219/159 163/218/158
f 126/181/122 165/220/160 163/218/158
f 167/222/162 165/220/160 138/193/134
f 130/185/126 166/221/161 149/204/144
f 151/206/146 166/221/161 150/205/145
f 173/228/168 172/227/167 138/193/134
f 167/222/162 135/190/131 171/226/166
f 153/208/148 168/223/163 154/209/149
f 129/184/125 168/223/163 131/186/127
f 136/191/132 123/178/119 170/225/165
f 123/178/119 156/211/151 169/224/164
f 171/226/166 160/215/155 137/192/133
f 174/229/169 173/228/168 138/193/134
f 135/190/131 167/222/162 172/227/167
f 145/200/141 178/233/173 140/195/136
f 138/193/134 177/232/172 174/229/169
f 177/232/172 175/230/170 174/229/169
f 176/231/171 175/230/170 139/194/135
f 175/230/170 176/231/171 174/229/169
f 144/199/140 176/231/171 139/194/135
f 165/220/160 177/232/172 138/193/134
f 175/230/170 177/232/172 126/181/122
f 178/233/173 145/200/141 141/196/137
f 127/182/123 173/228/168 178/233/173
f 23/245/185 31/236/176 24/244/184
f 31/236/176 23/245/185 32/235/175
f 24/244/184 31/236/176 30/237/177
f 30/237/177 25/243/183 24/244/184
f 26/242/182 29/238/178 28/239/179
f 1/241/181 28/239/179 27/240/180
f 29/238/178 26/242/182 25/243/183
f 26/242/182 28/239/179 1/241/181
f 29/238/178 25/243/183 30/237/177
