## ElementId 196194
## Vertice Count:179
## Triangle Count:285
mtllib 196194.mtl
o 196194

v -1.9626 15.8546 7.3679
v -1.9046 15.8385 7.3736
v -1.8444 15.8328 7.3754
v -1.7841 15.8377 7.3732
v -1.7259 15.853 7.3672
v -1.723 15.846 7.3698
v -1.784 15.8301 7.3761
v -1.8472 15.8254 7.3782
v -1.9103 15.832 7.3761
v -1.9708 15.8496 7.3698
v -1.9745 15.8764 7.3598
v -1.989 15.8996 7.3512
v -2.0121 15.9157 7.3453
v -2.04 15.9221 7.3431
v -2.0683 15.9178 7.3449
v -2.0926 15.9034 7.3504
v -2.1089 15.8812 7.3587
v -2.1146 15.8549 7.3686
v -2.1226 15.8549 7.3687
v -2.1165 15.8835 7.3579
v -2.0992 15.9078 7.3487
v -2.0733 15.924 7.3425
v -2.0426 15.9297 7.3403
v -2.012 15.9239 7.3423
v -1.9861 15.9076 7.3482
v -1.9687 15.8833 7.3572
v -1.9696 15.9372 7.604
v -1.9732 15.9639 7.594
v -1.9877 15.9872 7.5854
v -2.0108 16.0033 7.5795
v -2.0387 16.0097 7.5772
v -2.0671 16.0053 7.579
v -2.0913 15.9909 7.5845
v -2.1076 15.9688 7.5929
v -2.1134 15.9424 7.6028
v -2.1054 15.9424 7.6028
v -2.1 15.9664 7.5937
v -2.0847 15.9864 7.5862
v -2.0622 15.999 7.5814
v -2.0362 16.002 7.5801
v -2.011 15.995 7.5826
v -1.991 15.9791 7.5884
v -1.9794 15.9571 7.5966
v -1.9782 15.9325 7.6057
v -1.9264 15.9156 7.6118
v -1.8724 15.9068 7.6148
v -1.8176 15.9061 7.6147
v -1.7634 15.9137 7.6116
v -1.7113 15.9294 7.6055
v -1.7139 15.9364 7.6028
v -1.7638 15.9213 7.6088
v -1.8156 15.9138 7.6119
v -1.868 15.9139 7.6121
v -1.9197 15.9218 7.6094
v -1.9805 15.9755 7.5897
v -1.9774 15.8954 7.3527
v -1.974 15.9301 7.4732
v -1.9684 15.9161 7.4784
v -1.9657 15.8689 7.3626
v -1.9714 15.9505 7.599
v -1.999 15.9158 7.3452
v -1.9992 15.9952 7.5824
v -2.0047 15.9604 7.462
v -2.0192 15.9664 7.4599
v -2.0247 16.0065 7.5784
v -2.0273 15.9268 7.3413
v -2.0862 15.9159 7.3456
v -2.0792 15.9981 7.5818
v -2.0896 15.9541 7.4649
v -2.1009 15.9436 7.4688
v -2.0995 15.9799 7.5887
v -2.1079 15.8957 7.3533
v -2.12 15.8675 7.3639
v -2.1105 15.9556 7.5978
v -2.1181 15.8979 7.4837
v -2.1147 15.9195 7.4779
v -2.1092 15.9301 7.4673
v -2.0529 16.0075 7.5781
v -2.0579 15.9268 7.3414
v -2.0482 15.9695 7.4589
v -2.0336 15.9672 7.453
v -1.9821 15.9422 7.4687
v -1.9925 15.9539 7.4695
v -1.9661 15.8959 7.4859
v -2.0768 15.9619 7.4619
v -2.063 15.9654 7.4553
v -2.0924 15.9764 7.59
v -2.1008 15.8923 7.3546
v -2.1014 15.9296 7.474
v -2.1075 15.9158 7.4793
v -2.1118 15.868 7.3637
v -2.1027 15.9544 7.5982
v -2.0805 15.9106 7.3476
v -2.0735 15.9927 7.5838
v -2.0717 15.9559 7.4641
v -2.0565 15.9607 7.4622
v -2.0492 16.0005 7.5807
v -2.0542 15.9199 7.344
v -2.0005 15.9077 7.3483
v -2.001 15.9871 7.5855
v -1.9947 15.9441 7.468
v -1.9846 15.9325 7.4723
v -1.9852 15.9681 7.5925
v -1.9817 15.888 7.3555
v -1.9725 15.8616 7.3653
v -1.9788 15.9448 7.6012
v -1.9743 15.8886 7.4808
v -1.9753 15.9104 7.4805
v -1.9786 15.9166 7.4608
v -2.0236 15.9985 7.5813
v -2.026 15.9189 7.3442
v -2.0312 15.9614 7.4618
v -2.0442 15.9569 7.4461
v -2.093 15.9407 7.4699
v -2.0827 15.9535 7.4786
v -2.11 15.8986 7.4857
v -2.0061 15.9525 7.465
v -2.0183 15.9541 7.4509
v -1.9406 15.8408 7.3729
v -1.8788 15.8287 7.3771
v -1.8156 15.8277 7.3771
v -1.7535 15.838 7.3729
v -1.7188 15.8758 7.4541
v -1.7199 15.8947 7.485
v -1.7229 15.8738 7.4261
v -1.715 15.9026 7.5298
v -1.7169 15.9156 7.5439
v -1.7248 15.8604 7.3883
v -1.7209 15.8609 7.4119
v -1.7247 15.8502 7.3682
v -1.7229 15.8593 7.3967
v -1.7214 15.8694 7.4257
v -1.7214 15.8843 7.4556
v -1.7169 15.8892 7.4919
v -1.7184 15.9051 7.5145
v -1.7192 15.8858 7.4717
v -1.7178 15.8966 7.501
v -1.7164 15.9071 7.5304
v -1.7131 15.916 7.5676
v -1.7149 15.9173 7.5595
v -1.7154 15.926 7.5734
v -1.7126 15.9329 7.6042
v -1.7123 15.9219 7.5844
v -1.7136 15.9212 7.5752
v -1.7144 15.9243 7.5763
v -1.7118 15.9307 7.605
v -1.7129 15.927 7.5909
v -1.7136 15.9291 7.5908
v -1.7242 15.8566 7.3842
v -1.7239 15.8481 7.369
v -1.7219 15.8534 7.3909
v -1.7238 15.8671 7.4072
v -1.7236 15.8624 7.3992
v -1.7226 15.8681 7.416
v -1.7219 15.8736 7.4315
v -1.7202 15.8773 7.4487
v -1.7221 15.8791 7.4408
v -1.721 15.8798 7.4489
v -1.7203 15.8855 7.4647
v -1.7194 15.8909 7.4808
v -1.7206 15.8895 7.4703
v -1.7184 15.8909 7.4867
v -1.716 15.8959 7.5109
v -1.7173 15.8932 7.4977
v -1.7166 15.8996 7.5145
v -1.7235 15.8537 7.3822
v -1.7173 15.9022 7.5155
v -1.7222 15.8644 7.4112
v -1.7198 15.8683 7.433
v -1.7178 15.8825 7.473
v -1.7192 15.8999 7.4997
v -1.7177 15.9104 7.5292
v -1.7161 15.9133 7.5447
v -1.7152 15.911 7.5453
v -1.7141 15.9093 7.5487
v -1.7142 15.9149 7.5592
v -1.7156 15.9055 7.5321
v -1.7162 15.9208 7.5587
v -1.7147 15.9312 7.5881
vt 0.16 4.1834
vt 0.2181 4.1664
vt 0.2783 4.1604
vt 0.3385 4.1657
vt 0.3968 4.1821
vt 0.3997 4.1747
vt 0.3386 4.1576
vt 0.2754 4.1524
vt 0.2124 4.1593
vt 0.1518 4.1781
vt 0.1482 4.2066
vt 0.1336 4.2314
vt 0.1106 4.2486
vt 0.0827 4.2554
vt 0.0543 4.2507
vt 0.03 4.2352
vt 0.0137 4.2116
vt 0.008 4.1834
vt 0 4.1834
vt 0.0061 4.214
vt 0.0234 4.24
vt 0.0494 4.2573
vt 0.08 4.2634
vt 0.1106 4.2573
vt 0.1366 4.24
vt 0.1539 4.214
vt -0.1518 4.1781
vt -0.1482 4.2066
vt -0.1336 4.2314
vt -0.1106 4.2486
vt -0.0827 4.2554
vt -0.0543 4.2507
vt -0.03 4.2352
vt -0.0137 4.2116
vt -0.008 4.1834
vt -0.016 4.1834
vt -0.0214 4.2091
vt -0.0366 4.2304
vt -0.0591 4.2439
vt -0.0852 4.2472
vt -0.1103 4.2398
vt -0.1304 4.2229
vt -0.142 4.1993
vt -0.1432 4.1731
vt -0.195 4.1552
vt -0.249 4.1458
vt -0.3037 4.1452
vt -0.3579 4.1534
vt -0.4101 4.1702
vt -0.4074 4.1778
vt -0.3576 4.1616
vt -0.3058 4.1534
vt -0.2534 4.1535
vt -0.2016 4.1618
vt -0.1283 0.1361
vt -0.1256 0.3862
vt -0.0955 0.3862
vt -0.0653 0.3863
vt -0.0351 0.3863
vt -0.005 0.3863
vt 0.0252 0.3863
vt 0.0554 0.3863
vt 0.0856 0.3863
vt 0.1157 0.3864
vt 0.1131 0.1362
vt 0.0829 0.1362
vt 0.0527 0.1362
vt 0.0226 0.1362
vt -0.0076 0.1361
vt -0.0378 0.1361
vt -0.0679 0.1361
vt -0.0981 0.1361
vt -0.083 0.1361
vt -0.0804 0.3862
vt -0.0892 0.2612
vt -0.1051 0.2612
vt -0.1106 0.3862
vt -0.1132 0.1361
vt -0.0502 0.3863
vt -0.0529 0.1361
vt -0.044 0.2612
vt -0.0281 0.2612
vt -0.0227 0.1361
vt -0.02 0.3863
vt 0.0403 0.3863
vt 0.0377 0.1362
vt 0.0465 0.2612
vt 0.0624 0.2613
vt 0.0678 0.1362
vt 0.0705 0.3863
vt 0.1025 0.3863
vt 0.098 0.1362
vt 0.1144 0.2635
vt 0.0918 0.2613
vt 0.0772 0.2675
vt 0.0075 0.1362
vt 0.0101 0.3863
vt 0.0013 0.2612
vt -0.0134 0.2674
vt -0.0739 0.2612
vt -0.059 0.2564
vt -0.127 0.2611
vt 0.0312 0.2612
vt 0.0163 0.2661
vt -0.6016 0
vt -0.6096 0.25
vt -0.6016 0.25
vt -0.5936 0
vt -0.2708 0.1363
vt -0.2734 0.3865
vt -0.2457 0.3864
vt -0.218 0.3863
vt -0.1903 0.3863
vt -0.1627 0.3862
vt -0.135 0.3862
vt -0.1073 0.3861
vt -0.0796 0.3861
vt -0.052 0.386
vt -0.0495 0.1359
vt -0.0771 0.1359
vt -0.1048 0.136
vt -0.1325 0.136
vt -0.1602 0.1361
vt -0.1878 0.1361
vt -0.2155 0.1362
vt -0.2432 0.1362
vt -0.2293 0.1362
vt -0.2319 0.3864
vt -0.2375 0.2613
vt -0.2535 0.2613
vt -0.2595 0.3864
vt -0.257 0.1363
vt -0.2042 0.3863
vt -0.2017 0.1362
vt -0.196 0.2612
vt -0.18 0.2612
vt -0.174 0.1361
vt -0.1765 0.3863
vt -0.1212 0.3862
vt -0.1186 0.136
vt -0.113 0.2611
vt -0.097 0.2611
vt -0.091 0.136
vt -0.0935 0.3861
vt -0.0644 0.3861
vt -0.0633 0.1359
vt -0.0508 0.2684
vt -0.0715 0.261
vt -0.0844 0.2774
vt -0.1463 0.1361
vt -0.1488 0.3862
vt -0.1545 0.2612
vt -0.1674 0.2775
vt -0.2229 0.2613
vt -0.2093 0.2486
vt -0.2721 0.2614
vt -0.1275 0.2611
vt -0.1411 0.2738
vt 0.0936 0.1326
vt 0.0927 0.3827
vt 0.1587 0.3827
vt 0.2247 0.3827
vt 0.2908 0.3827
vt 0.3568 0.3826
vt 0.3578 0.1325
vt 0.3049 0.1325
vt 0.2521 0.1326
vt 0.1993 0.1326
vt 0.1464 0.1326
vt 0.1257 0.3827
vt 0.1917 0.3827
vt 0.2578 0.3827
vt 0.3238 0.3827
vt -3.748 0.3996
vt -3.7783 0.151
vt -3.7862 0.1517
vt -3.756 0.4003
vt -3.7674 0.2399
vt -3.7711 0.276
vt -3.7787 0.2139
vt -3.7577 0.3197
vt -3.7636 0.3381
vt -3.7835 0.174
vt -3.7729 0.1955
vt -3.7831 0.1514
vt -3.7784 0.1811
vt -3.7746 0.2115
vt -3.7749 0.2449
vt -3.7626 0.2798
vt -3.7673 0.3071
vt -3.7688 0.2601
vt -3.7654 0.2912
vt -3.7618 0.3223
vt -3.7529 0.3596
vt -3.7579 0.353
vt -3.7598 0.3692
vt -3.752 0.3999
vt -3.7507 0.3773
vt -3.7543 0.3687
vt -3.7568 0.3711
vt -3.7496 0.3997
vt -3.7525 0.3854
vt -3.7546 0.3862
vt -3.7817 0.1686
vt -3.7807 0.1512
vt -3.7756 0.1732
vt -3.7811 0.1939
vt -3.7803 0.1847
vt -3.7779 0.2023
vt -3.7759 0.2186
vt -3.7714 0.2357
vt -3.7768 0.2294
vt -3.7737 0.237
vt -3.7718 0.2537
vt -3.7695 0.2706
vt -3.773 0.2605
vt -3.7667 0.2758
vt -3.7602 0.2998
vt -3.7638 0.2868
vt -3.7621 0.3047
vt -3.7799 0.1655
vt -3.7641 0.3067
vt -3.7766 0.1963
vt -3.7701 0.2177
vt -3.765 0.2599
vt -3.7692 0.2915
vt -3.7654 0.3226
vt -3.7611 0.3379
vt -3.7586 0.3374
vt -3.7553 0.3397
vt -3.7558 0.3516
vt -3.7595 0.3231
vt -3.7617 0.3537
vt -3.7579 0.3847
vt -0.3924 0.1328
vt -0.3911 0.3829
vt -0.328 0.3829
vt -0.2649 0.3829
vt -0.2019 0.383
vt -0.1388 0.383
vt -0.1401 0.1328
vt -0.1905 0.1328
vt -0.241 0.1328
vt -0.2915 0.1328
vt -0.342 0.1328
vn 0 0 -0.3048
vn 0 0 0.3048
vn 0.3038 -0.0224 0.0095
vn 0.3046 0 0.01
vn 0.2814 0.1166 0.0099
vn 0.2154 0.2154 0.0099
vn 0.1166 0.2815 0.0098
vn 0 0.3046 0.0098
vn -0.1166 0.2815 0.0098
vn -0.2154 0.2154 0.0098
vn -0.2815 0.1166 0.0098
vn -0.3046 0 0.0097
vn -0.2804 0.1192 0.0097
vn -0.2114 0.2193 0.0097
vn -0.1088 0.2846 0.0097
vn 0.0112 0.3044 0.0097
vn 0.1294 0.2758 0.0096
vn 0.227 0.2032 0.0096
vn 0.2884 0.0982 0.0095
vn 0.263 0.1538 0.0096
vn 0.2533 0.1692 0.0099
vn 0.2728 0.1355 0.0098
vn 0.295 0.076 0.0098
vn 0.2988 0.0594 0.01
vn 0.3022 0.0387 0.0095
vn 0.1692 0.2533 0.0099
vn 0.1819 0.2444 0.0096
vn 0.1498 0.2653 0.0098
vn 0.0915 0.2906 0.0097
vn 0.0718 0.2961 0.0097
vn 0.0594 0.2988 0.0098
vn -0.1693 0.2533 0.0098
vn -0.1634 0.2571 0.0097
vn -0.1909 0.2374 0.0097
vn -0.236 0.1926 0.0097
vn -0.2509 0.1727 0.0097
vn -0.2533 0.1693 0.0098
vn -0.3001 0.0524 0.0097
vn -0.2985 0.0608 0.0097
vn -0.2912 0.0894 0.0097
vn -0.2687 0.1436 0.0097
vn -0.0498 0.3006 0.0097
vn -0.0594 0.2988 0.0098
vn -0.0248 0.3036 0.0097
vn 0.0337 0.3028 0.0098
vn 0.2401 0.1875 0.0098
vn 0.199 0.2307 0.0097
vn 0.3045 -0.0108 0.0098
vn -0.1394 0.2709 0.0097
vn -0.0839 0.2929 0.0098
vn 0 -0.3048 0
vn 0.3046 0 -0.0097
vn 0.2804 -0.1192 -0.0098
vn 0.2114 -0.2193 -0.0098
vn 0.1088 -0.2846 -0.0098
vn -0.0112 -0.3044 -0.0098
vn -0.1294 -0.2758 -0.0099
vn -0.227 -0.2032 -0.0099
vn -0.2884 -0.0982 -0.01
vn -0.3038 0.0224 -0.0101
vn -0.3007 0.049 -0.0094
vn -0.2951 -0.0757 -0.0095
vn -0.2399 -0.1878 -0.0096
vn -0.1444 -0.2683 -0.0096
vn -0.0246 -0.3037 -0.0097
vn 0.0993 -0.288 -0.0097
vn 0.2065 -0.2239 -0.0097
vn 0.279 -0.1222 -0.0097
vn 0.2481 -0.1768 -0.0097
vn 0.2509 -0.1727 -0.0098
vn 0.266 -0.1484 -0.0097
vn 0.2933 -0.0822 -0.0097
vn 0.2985 -0.0608 -0.0097
vn 0.2982 -0.0624 -0.0097
vn 0.1634 -0.2571 -0.0098
vn 0.1562 -0.2615 -0.0097
vn 0.1328 -0.2742 -0.0097
vn 0.0651 -0.2976 -0.0097
vn 0.0382 -0.3022 -0.0097
vn 0.0498 -0.3005 -0.0098
vn -0.1818 -0.2444 -0.0099
vn -0.1963 -0.233 -0.0096
vn -0.2121 -0.2186 -0.0098
vn -0.2573 -0.163 -0.0098
vn -0.2733 -0.1346 -0.0095
vn -0.263 -0.1538 -0.0099
vn -0.3029 -0.0324 -0.01
vn -0.3043 -0.0137 -0.0095
vn -0.3027 0.0344 -0.0098
vn -0.2992 -0.0575 -0.0098
vn -0.2827 -0.1136 -0.0098
vn -0.0863 -0.2922 -0.0096
vn -0.0718 -0.2961 -0.0098
vn -0.0484 -0.3008 -0.0098
vn 0.0093 -0.3045 -0.0098
vn 0.2284 -0.2016 -0.0097
vn 0.1839 -0.2429 -0.0097
vn -0.1608 -0.2588 -0.0098
vn -0.1059 -0.2856 -0.0098
vn -0.1224 -0.279 -0.0098
vn -0.1175 -0.2811 -0.0097
vn -0.062 -0.2983 -0.0097
vn -0.0042 -0.3046 -0.0097
vn 0.0537 -0.2999 -0.0097
vn 0.1096 -0.2842 -0.0096
vn 0.1164 -0.2815 -0.0099
vn 0.0697 -0.2966 -0.0098
vn 0.0212 -0.3039 -0.0098
vn -0.0278 -0.3034 -0.0097
vn -0.0761 -0.295 -0.0098
vn -0.0901 -0.291 -0.0097
vn -0.0332 -0.3028 -0.0097
vn 0.0249 -0.3036 -0.0097
vn 0.082 -0.2934 -0.0097
vn 0.2871 0.1018 -0.0102
vn 0.2842 0.1096 -0.0099
vn 0.2842 0.1096 -0.0102
vn 0.2871 0.1018 -0.0104
vn 0.2853 0.1068 -0.01
vn 0.2857 0.1057 -0.0103
vn 0.285 0.1077 -0.0102
vn 0.2862 0.1043 -0.0101
vn 0.2864 0.1037 -0.0104
vn 0.2845 0.1089 -0.0102
vn 0.2848 0.1082 -0.01
vn 0.2842 0.1096 -0.0101
vn 0.2846 0.1087 -0.0101
vn 0.2849 0.1077 -0.0101
vn 0.2853 0.1067 -0.0103
vn 0.2858 0.1056 -0.01
vn 0.2861 0.1047 -0.0103
vn 0.2855 0.1062 -0.0102
vn 0.2859 0.1052 -0.0102
vn 0.2862 0.1042 -0.0102
vn 0.2867 0.103 -0.0101
vn 0.2866 0.1033 -0.0103
vn 0.2868 0.1028 -0.0104
vn 0.2871 0.1018 -0.0103
vn 0.2869 0.1025 -0.0101
vn 0.2868 0.1028 -0.0102
vn 0.2868 0.1027 -0.0103
vn 0.287 0.1022 -0.0102
vn 0.287 0.1022 -0.0103
vn 0.2844 0.1091 -0.0101
vn 0.2842 0.1096 -0.01
vn 0.2845 0.1089 -0.0099
vn 0.2847 0.1083 -0.0102
vn 0.2846 0.1086 -0.0101
vn 0.2848 0.108 -0.0102
vn 0.285 0.1075 -0.0102
vn 0.2852 0.107 -0.0101
vn 0.2851 0.1072 -0.0103
vn 0.2852 0.1069 -0.0102
vn 0.2854 0.1064 -0.0102
vn 0.2856 0.1059 -0.0102
vn 0.2855 0.1062 -0.0103
vn 0.2857 0.1057 -0.0102
vn 0.286 0.1049 -0.0101
vn 0.2858 0.1054 -0.0101
vn 0.286 0.1048 -0.0102
vn 0.2844 0.1092 -0.01
vn 0.2861 0.1047 -0.0102
vn 0.2848 0.1082 -0.0101
vn 0.285 0.1075 -0.01
vn 0.2855 0.1062 -0.01
vn 0.2859 0.1052 -0.0103
vn 0.2862 0.1042 -0.0104
vn 0.2864 0.1038 -0.0103
vn 0.2864 0.1038 -0.0102
vn 0.2864 0.1037 -0.0101
vn 0.2866 0.1033 -0.0102
vn 0.2863 0.1042 -0.0102
vn 0.2866 0.1033 -0.0104
vn 0.2869 0.1023 -0.0104
vn -0.1167 0.2814 0.0099
vn -0.1096 0.2842 0.0096
vn -0.055 0.2996 0.0097
vn 0.0016 0.3046 0.0097
vn 0.0581 0.299 0.0097
vn 0.1127 0.2831 0.0097
vn 0.1175 0.2811 0.0098
vn 0.0718 0.2961 0.0098
vn 0.0244 0.3037 0.0097
vn -0.0236 0.3037 0.0098
vn -0.0711 0.2962 0.0098

usemtl 191881
f 3/3/1 7/7/1 8/8/1
f 4/4/1 7/7/1 3/3/1
f 2/2/1 3/3/1 8/8/1
f 5/5/1 6/6/1 4/4/1
f 7/7/1 4/4/1 6/6/1
f 1/1/1 9/9/1 10/10/1
f 8/8/1 9/9/1 2/2/1
f 2/2/1 9/9/1 1/1/1
f 1/1/1 11/11/1 26/26/1
f 18/18/1 19/19/1 20/20/1
f 1/1/1 10/10/1 11/11/1
f 12/12/1 25/25/1 26/26/1
f 13/13/1 25/25/1 12/12/1
f 14/14/1 24/24/1 13/13/1
f 25/25/1 13/13/1 24/24/1
f 23/23/1 24/24/1 14/14/1
f 21/21/1 17/17/1 20/20/1
f 16/16/1 17/17/1 21/21/1
f 18/18/1 20/20/1 17/17/1
f 22/22/1 23/23/1 15/15/1
f 22/22/1 16/16/1 21/21/1
f 15/15/1 16/16/1 22/22/1
f 15/15/1 23/23/1 14/14/1
f 26/26/1 11/11/1 12/12/1
f 54/54/2 45/45/2 46/46/2
f 27/27/2 45/45/2 54/54/2
f 53/53/2 54/54/2 46/46/2
f 34/34/2 35/35/2 36/36/2
f 45/45/2 27/27/2 44/44/2
f 44/44/2 27/27/2 43/43/2
f 48/48/2 52/52/2 47/47/2
f 53/53/2 47/47/2 52/52/2
f 51/51/2 52/52/2 48/48/2
f 51/51/2 49/49/2 50/50/2
f 48/48/2 49/49/2 51/51/2
f 53/53/2 46/46/2 47/47/2
f 33/33/2 37/37/2 38/38/2
f 36/36/2 37/37/2 34/34/2
f 34/34/2 37/37/2 33/33/2
f 38/38/2 39/39/2 32/32/2
f 32/32/2 39/39/2 31/31/2
f 33/33/2 38/38/2 32/32/2
f 31/31/2 39/39/2 40/40/2
f 28/28/2 42/42/2 43/43/2
f 29/29/2 42/42/2 28/28/2
f 27/27/2 28/28/2 43/43/2
f 30/30/2 40/40/2 41/41/2
f 42/42/2 29/29/2 41/41/2
f 41/41/2 29/29/2 30/30/2
f 30/30/2 31/31/2 40/40/2
f 57/75/22 55/73/20 28/72/19
f 58/76/23 26/57/5 57/75/22
f 61/79/26 24/59/7 63/81/28
f 69/87/34 85/103/49 67/85/32
f 31/69/16 65/83/30 81/99/45
f 24/59/7 64/82/29 63/81/28
f 58/76/23 60/78/25 84/102/48
f 68/86/33 85/103/49 69/87/34
f 28/72/19 58/76/23 57/75/22
f 82/100/46 57/75/22 56/74/21
f 57/75/22 26/57/5 56/74/21
f 57/75/22 82/100/46 55/73/20
f 62/80/27 63/81/28 30/70/17
f 29/71/18 55/73/20 82/100/46
f 64/82/29 66/84/31 81/99/45
f 64/82/29 24/59/7 66/84/31
f 67/85/32 21/62/10 69/87/34
f 65/83/30 30/70/17 64/82/29
f 21/62/10 70/88/35 69/87/34
f 83/101/47 82/100/46 25/58/6
f 30/70/17 63/81/28 64/82/29
f 76/94/40 73/91/38 75/93/12
f 58/76/23 84/102/48 59/77/24
f 23/60/8 80/98/44 81/99/45
f 33/67/14 68/86/33 69/87/34
f 70/88/35 72/90/37 77/95/41
f 58/76/23 28/72/19 60/78/25
f 86/104/50 79/97/43 22/61/9
f 74/92/39 76/94/40 75/93/12
f 83/101/47 25/58/6 61/79/26
f 62/80/27 83/101/47 63/81/28
f 86/104/50 80/98/44 79/97/43
f 81/99/45 80/98/44 31/69/16
f 59/77/24 26/57/5 58/76/23
f 85/103/49 22/61/9 67/85/32
f 33/67/14 69/87/34 70/88/35
f 71/89/36 33/67/14 70/88/35
f 77/95/41 76/94/40 34/66/13
f 75/93/12 35/65/12 74/92/39
f 34/66/13 71/89/36 77/95/41
f 70/88/35 21/62/10 72/90/37
f 34/66/13 76/94/40 74/92/39
f 20/63/11 76/94/40 77/95/41
f 73/91/38 19/64/12 75/93/12
f 76/94/40 20/63/11 73/91/38
f 20/63/11 77/95/41 72/90/37
f 71/89/36 70/88/35 77/95/41
f 80/98/44 78/96/42 31/69/16
f 86/104/50 32/68/15 78/96/42
f 85/103/49 32/68/15 86/104/50
f 80/98/44 23/60/8 79/97/43
f 23/60/8 81/99/45 66/84/31
f 65/83/30 64/82/29 81/99/45
f 83/101/47 62/80/27 29/71/18
f 25/58/6 82/100/46 56/74/21
f 63/81/28 83/101/47 61/79/26
f 82/100/46 83/101/47 29/71/18
f 1/56/4 59/77/24 84/102/48
f 84/102/48 60/78/25 27/55/3
f 32/68/15 85/103/49 68/86/33
f 80/98/44 86/104/50 78/96/42
f 85/103/49 86/104/50 22/61/9
f 18/107/51 35/105/51 19/106/51
f 35/105/51 18/107/51 36/108/51
f 89/129/71 87/127/69 37/126/68
f 90/130/72 17/111/53 89/129/71
f 93/133/75 15/113/55 95/135/77
f 101/141/83 117/157/98 99/139/81
f 40/123/65 97/137/79 113/153/95
f 15/113/55 96/136/78 95/135/77
f 90/130/72 92/132/74 116/156/52
f 100/140/82 117/157/98 101/141/83
f 37/126/68 90/130/72 89/129/71
f 114/154/96 89/129/71 88/128/70
f 89/129/71 17/111/53 88/128/70
f 89/129/71 114/154/96 87/127/69
f 94/134/76 95/135/77 39/124/66
f 38/125/67 87/127/69 114/154/96
f 96/136/78 98/138/80 113/153/95
f 96/136/78 15/113/55 98/138/80
f 99/139/81 12/116/58 101/141/83
f 97/137/79 39/124/66 96/136/78
f 12/116/58 102/142/84 101/141/83
f 115/155/97 114/154/96 16/112/54
f 39/124/66 95/135/77 96/136/78
f 108/148/90 105/145/87 107/147/89
f 90/130/72 116/156/52 91/131/73
f 14/114/56 112/152/94 113/153/95
f 42/121/63 100/140/82 101/141/83
f 102/142/84 104/144/86 109/149/91
f 90/130/72 37/126/68 92/132/74
f 118/158/99 111/151/93 13/115/57
f 106/146/88 108/148/90 107/147/89
f 115/155/97 16/112/54 93/133/75
f 94/134/76 115/155/97 95/135/77
f 118/158/99 112/152/94 111/151/93
f 113/153/95 112/152/94 40/123/65
f 91/131/73 17/111/53 90/130/72
f 117/157/98 13/115/57 99/139/81
f 42/121/63 101/141/83 102/142/84
f 103/143/85 42/121/63 102/142/84
f 109/149/91 108/148/90 43/120/62
f 108/148/90 106/146/88 43/120/62
f 43/120/62 103/143/85 109/149/91
f 102/142/84 12/116/58 104/144/86
f 106/146/88 107/147/89 44/119/61
f 11/117/59 108/148/90 109/149/91
f 105/145/87 10/118/60 107/147/89
f 108/148/90 11/117/59 105/145/87
f 11/117/59 109/149/91 104/144/86
f 103/143/85 102/142/84 109/149/91
f 112/152/94 110/150/92 40/123/65
f 118/158/99 41/122/64 110/150/92
f 117/157/98 41/122/64 118/158/99
f 112/152/94 14/114/56 111/151/93
f 14/114/56 113/153/95 98/138/80
f 97/137/79 96/136/78 113/153/95
f 115/155/97 94/134/76 38/125/67
f 16/112/54 114/154/96 88/128/70
f 95/135/77 115/155/97 93/133/75
f 114/154/96 115/155/97 38/125/67
f 18/110/52 91/131/73 116/156/52
f 116/156/52 92/132/74 36/109/52
f 41/122/64 117/157/98 100/140/82
f 112/152/94 118/158/99 110/150/92
f 117/157/98 118/158/99 13/115/57
f 120/171/112 8/162/103 46/168/109
f 44/159/100 10/160/101 119/170/111
f 119/170/111 45/169/110 44/159/100
f 9/161/102 46/168/109 45/169/110
f 119/170/111 9/161/102 45/169/110
f 46/168/109 9/161/102 120/171/112
f 48/166/107 47/167/108 7/163/104
f 6/164/105 49/165/106 122/173/114
f 121/172/113 7/163/104 47/167/108
f 48/166/107 122/173/114 49/165/106
f 48/166/107 7/163/104 122/173/114
f 46/168/109 8/162/103 47/167/108
f 47/167/108 8/162/103 121/172/113
f 164/219/159 137/192/133 165/220/160
f 157/212/152 158/213/153 155/210/150
f 130/185/126 166/221/161 150/205/145
f 127/182/123 173/228/168 172/227/167
f 133/188/129 159/214/154 158/213/153
f 149/204/144 153/208/148 131/186/127
f 173/228/168 140/195/136 174/229/169
f 132/187/128 168/223/163 154/209/149
f 6/175/116 150/205/145 151/206/146
f 166/221/161 131/186/127 151/206/146
f 149/204/144 130/185/126 5/176/117
f 168/223/163 132/187/128 129/184/125
f 156/211/151 169/224/164 132/187/128
f 154/209/149 125/180/121 155/210/150
f 123/178/119 156/211/151 136/191/132
f 155/210/150 156/211/151 132/187/128
f 172/227/167 138/193/134 167/222/162
f 170/225/165 136/191/132 162/217/157
f 160/215/155 124/179/120 171/226/166
f 160/215/155 137/192/133 162/217/157
f 162/217/157 164/219/159 134/189/130
f 137/192/133 167/222/162 165/220/160
f 176/231/171 174/229/169 140/195/136
f 147/202/142 146/201/115 143/198/139
f 144/199/140 140/195/136 145/200/141
f 146/201/115 49/174/115 143/198/139
f 144/199/140 176/231/171 140/195/136
f 173/228/168 178/233/173 140/195/136
f 148/203/143 145/200/141 179/234/174
f 139/194/135 144/199/140 143/198/139
f 179/234/174 50/177/118 148/203/143
f 147/202/142 144/199/140 145/200/141
f 148/203/143 147/202/142 145/200/141
f 142/197/138 146/201/115 147/202/142
f 148/203/143 142/197/138 147/202/142
f 144/199/140 147/202/142 143/198/139
f 148/203/143 50/177/118 142/197/138
f 145/200/141 141/196/137 179/234/174
f 154/209/149 153/208/148 152/207/147
f 128/183/124 149/204/144 5/176/117
f 131/186/127 166/221/161 149/204/144
f 152/207/147 125/180/121 154/209/149
f 151/206/146 131/186/127 129/184/125
f 128/183/124 153/208/148 149/204/144
f 152/207/147 153/208/148 128/183/124
f 131/186/127 153/208/148 168/223/163
f 155/210/150 132/187/128 154/209/149
f 169/224/164 129/184/125 132/187/128
f 156/211/151 155/210/150 158/213/153
f 170/225/165 162/217/157 134/189/130
f 156/211/151 158/213/153 159/214/154
f 133/188/129 158/213/153 157/212/152
f 155/210/150 125/180/121 157/212/152
f 136/191/132 156/211/151 159/214/154
f 136/191/132 159/214/154 160/215/155
f 159/214/154 161/216/156 160/215/155
f 136/191/132 160/215/155 162/217/157
f 137/192/133 171/226/166 167/222/162
f 124/179/120 160/215/155 161/216/156
f 159/214/154 133/188/129 161/216/156
f 177/232/172 126/181/122 165/220/160
f 137/192/133 164/219/159 162/217/157
f 164/219/159 163/218/158 134/189/130
f 163/218/158 164/219/159 165/220/160
f 163/218/158 165/220/160 126/181/122
f 138/193/134 165/220/160 167/222/162
f 149/204/144 166/221/161 130/185/126
f 150/205/145 166/221/161 151/206/146
f 138/193/134 172/227/167 173/228/168
f 171/226/166 135/190/131 167/222/162
f 154/209/149 168/223/163 153/208/148
f 131/186/127 168/223/163 129/184/125
f 170/225/165 123/178/119 136/191/132
f 169/224/164 156/211/151 123/178/119
f 137/192/133 160/215/155 171/226/166
f 138/193/134 173/228/168 174/229/169
f 172/227/167 167/222/162 135/190/131
f 140/195/136 178/233/173 145/200/141
f 174/229/169 177/232/172 138/193/134
f 174/229/169 175/230/170 177/232/172
f 139/194/135 175/230/170 176/231/171
f 174/229/169 176/231/171 175/230/170
f 139/194/135 176/231/171 144/199/140
f 138/193/134 177/232/172 165/220/160
f 126/181/122 177/232/172 175/230/170
f 141/196/137 145/200/141 178/233/173
f 178/233/173 173/228/168 127/182/123
f 4/237/177 51/245/185 5/236/176
f 50/235/175 5/236/176 51/245/185
f 52/244/184 51/245/185 4/237/177
f 4/237/177 3/238/178 52/244/184
f 54/242/182 53/243/183 2/239/179
f 27/241/181 54/242/182 1/240/180
f 3/238/178 2/239/179 53/243/183
f 1/240/180 54/242/182 2/239/179
f 52/244/184 3/238/178 53/243/183
