## ElementId 196374
## Vertice Count:179
## Triangle Count:285
mtllib 196374.mtl
o 196374

v 0.415 16.527 9.1663
v 0.473 16.5109 9.172
v 0.5332 16.5052 9.1738
v 0.5935 16.5101 9.1716
v 0.6517 16.5254 9.1656
v 0.6546 16.5184 9.1682
v 0.5936 16.5025 9.1745
v 0.5304 16.4978 9.1766
v 0.4673 16.5044 9.1745
v 0.4068 16.522 9.1682
v 0.4031 16.5487 9.1582
v 0.3886 16.572 9.1496
v 0.3655 16.5881 9.1437
v 0.3376 16.5945 9.1415
v 0.3093 16.5902 9.1433
v 0.285 16.5758 9.1488
v 0.2687 16.5536 9.1571
v 0.263 16.5273 9.167
v 0.255 16.5273 9.1671
v 0.2611 16.5559 9.1563
v 0.2784 16.5802 9.1472
v 0.3043 16.5964 9.141
v 0.335 16.6021 9.1387
v 0.3656 16.5963 9.1407
v 0.3915 16.58 9.1466
v 0.4089 16.5557 9.1556
v 0.408 16.6096 9.4024
v 0.4044 16.6363 9.3924
v 0.3899 16.6596 9.3838
v 0.3668 16.6757 9.3779
v 0.3389 16.6821 9.3756
v 0.3105 16.6777 9.3774
v 0.2863 16.6633 9.3829
v 0.27 16.6412 9.3913
v 0.2642 16.6148 9.4012
v 0.2722 16.6148 9.4012
v 0.2776 16.6388 9.3921
v 0.2929 16.6588 9.3846
v 0.3154 16.6714 9.3798
v 0.3414 16.6744 9.3785
v 0.3666 16.6674 9.381
v 0.3866 16.6515 9.3868
v 0.3982 16.6295 9.395
v 0.3994 16.6049 9.4042
v 0.4512 16.588 9.4102
v 0.5052 16.5792 9.4132
v 0.56 16.5785 9.4131
v 0.6142 16.5861 9.41
v 0.6663 16.6017 9.4039
v 0.6637 16.6088 9.4012
v 0.6138 16.5937 9.4072
v 0.562 16.5862 9.4103
v 0.5096 16.5863 9.4105
v 0.4579 16.5942 9.4078
v 0.3971 16.6479 9.3881
v 0.4002 16.5678 9.1511
v 0.4036 16.6025 9.2716
v 0.4092 16.5885 9.2768
v 0.4119 16.5413 9.161
v 0.4062 16.6229 9.3974
v 0.3786 16.5882 9.1436
v 0.3784 16.6676 9.3808
v 0.3729 16.6328 9.2604
v 0.3584 16.6388 9.2583
v 0.3529 16.6789 9.3768
v 0.3503 16.5992 9.1397
v 0.2914 16.5883 9.1441
v 0.2984 16.6705 9.3802
v 0.288 16.6265 9.2633
v 0.2767 16.616 9.2672
v 0.2781 16.6523 9.3871
v 0.2697 16.5681 9.1517
v 0.2576 16.5399 9.1623
v 0.2671 16.628 9.3963
v 0.2595 16.5703 9.2821
v 0.2629 16.5919 9.2763
v 0.2684 16.6025 9.2657
v 0.3247 16.6799 9.3765
v 0.3197 16.5992 9.1398
v 0.3294 16.6419 9.2573
v 0.344 16.6396 9.2514
v 0.3955 16.6146 9.2671
v 0.3851 16.6263 9.2679
v 0.4115 16.5683 9.2843
v 0.3008 16.6343 9.2603
v 0.3146 16.6378 9.2537
v 0.2852 16.6488 9.3884
v 0.2768 16.5647 9.153
v 0.2762 16.602 9.2725
v 0.2701 16.5882 9.2777
v 0.2658 16.5404 9.1621
v 0.2749 16.6268 9.3967
v 0.2971 16.583 9.146
v 0.3041 16.6651 9.3822
v 0.3059 16.6283 9.2625
v 0.3211 16.6331 9.2606
v 0.3284 16.6729 9.3791
v 0.3234 16.5923 9.1424
v 0.3771 16.5801 9.1467
v 0.3766 16.6595 9.3839
v 0.3829 16.6165 9.2665
v 0.393 16.6049 9.2708
v 0.3924 16.6405 9.3909
v 0.3959 16.5604 9.1539
v 0.4051 16.534 9.1637
v 0.3988 16.6172 9.3996
v 0.4033 16.561 9.2792
v 0.4023 16.5828 9.279
v 0.399 16.589 9.2592
v 0.354 16.6709 9.3797
v 0.3516 16.5913 9.1426
v 0.3464 16.6338 9.2602
v 0.3334 16.6293 9.2445
v 0.2846 16.6131 9.2683
v 0.2949 16.6259 9.277
v 0.2676 16.571 9.2841
v 0.3715 16.6249 9.2634
v 0.3593 16.6265 9.2493
v 0.437 16.5132 9.1713
v 0.4988 16.5011 9.1755
v 0.562 16.5001 9.1755
v 0.6241 16.5104 9.1713
v 0.6588 16.5482 9.2525
v 0.6577 16.5671 9.2834
v 0.6547 16.5462 9.2245
v 0.6626 16.575 9.3282
v 0.6607 16.588 9.3423
v 0.6528 16.5328 9.1867
v 0.6567 16.5333 9.2104
v 0.6529 16.5226 9.1666
v 0.6547 16.5317 9.1951
v 0.6562 16.5418 9.2241
v 0.6562 16.5567 9.254
v 0.6607 16.5616 9.2903
v 0.6592 16.5775 9.3129
v 0.6584 16.5582 9.2701
v 0.6598 16.569 9.2994
v 0.6612 16.5795 9.3288
v 0.6645 16.5884 9.366
v 0.6627 16.5897 9.3579
v 0.6622 16.5984 9.3718
v 0.665 16.6053 9.4026
v 0.6653 16.5943 9.3828
v 0.664 16.5936 9.3736
v 0.6632 16.5967 9.3747
v 0.6658 16.6031 9.4034
v 0.6647 16.5994 9.3893
v 0.664 16.6015 9.3892
v 0.6534 16.529 9.1826
v 0.6537 16.5205 9.1674
v 0.6557 16.5258 9.1893
v 0.6538 16.5395 9.2056
v 0.654 16.5348 9.1976
v 0.655 16.5405 9.2144
v 0.6557 16.546 9.2299
v 0.6574 16.5497 9.2472
v 0.6555 16.5515 9.2392
v 0.6566 16.5521 9.2473
v 0.6573 16.5579 9.2631
v 0.6582 16.5633 9.2792
v 0.657 16.5619 9.2687
v 0.6592 16.5633 9.2851
v 0.6616 16.5683 9.3093
v 0.6603 16.5656 9.2961
v 0.661 16.572 9.3129
v 0.6541 16.5261 9.1806
v 0.6603 16.5746 9.3139
v 0.6554 16.5368 9.2096
v 0.6578 16.5407 9.2314
v 0.6598 16.5549 9.2714
v 0.6584 16.5723 9.2982
v 0.6599 16.5827 9.3276
v 0.6615 16.5857 9.3431
v 0.6624 16.5834 9.3437
v 0.6635 16.5817 9.3471
v 0.6634 16.5873 9.3576
v 0.662 16.5779 9.3305
v 0.6614 16.5932 9.3571
v 0.6629 16.6036 9.3865
vt 0.16 4.1834
vt 0.2181 4.1664
vt 0.2783 4.1604
vt 0.3385 4.1657
vt 0.3968 4.1821
vt 0.3997 4.1747
vt 0.3386 4.1576
vt 0.2754 4.1524
vt 0.2124 4.1593
vt 0.1518 4.1781
vt 0.1482 4.2066
vt 0.1336 4.2314
vt 0.1106 4.2486
vt 0.0827 4.2554
vt 0.0543 4.2507
vt 0.03 4.2352
vt 0.0137 4.2116
vt 0.008 4.1834
vt 0 4.1834
vt 0.0061 4.214
vt 0.0234 4.24
vt 0.0494 4.2573
vt 0.08 4.2634
vt 0.1106 4.2573
vt 0.1366 4.24
vt 0.1539 4.214
vt -0.1518 4.1781
vt -0.1482 4.2066
vt -0.1336 4.2314
vt -0.1106 4.2486
vt -0.0827 4.2554
vt -0.0543 4.2507
vt -0.03 4.2352
vt -0.0137 4.2116
vt -0.008 4.1834
vt -0.016 4.1834
vt -0.0214 4.2091
vt -0.0366 4.2304
vt -0.0591 4.2439
vt -0.0852 4.2472
vt -0.1103 4.2398
vt -0.1304 4.2229
vt -0.142 4.1993
vt -0.1432 4.1731
vt -0.195 4.1552
vt -0.249 4.1458
vt -0.3037 4.1452
vt -0.3579 4.1534
vt -0.4101 4.1702
vt -0.4074 4.1778
vt -0.3576 4.1616
vt -0.3058 4.1534
vt -0.2534 4.1535
vt -0.2016 4.1618
vt -0.1283 0.1361
vt -0.1256 0.3862
vt -0.0955 0.3862
vt -0.0653 0.3863
vt -0.0351 0.3863
vt -0.005 0.3863
vt 0.0252 0.3863
vt 0.0554 0.3863
vt 0.0856 0.3863
vt 0.1157 0.3864
vt 0.1131 0.1362
vt 0.0829 0.1362
vt 0.0527 0.1362
vt 0.0226 0.1362
vt -0.0076 0.1361
vt -0.0378 0.1361
vt -0.0679 0.1361
vt -0.0981 0.1361
vt -0.083 0.1361
vt -0.0804 0.3862
vt -0.0892 0.2612
vt -0.1051 0.2612
vt -0.1106 0.3862
vt -0.1132 0.1361
vt -0.0502 0.3863
vt -0.0529 0.1361
vt -0.044 0.2612
vt -0.0281 0.2612
vt -0.0227 0.1361
vt -0.02 0.3863
vt 0.0403 0.3863
vt 0.0377 0.1362
vt 0.0465 0.2612
vt 0.0624 0.2613
vt 0.0678 0.1362
vt 0.0705 0.3863
vt 0.1025 0.3863
vt 0.098 0.1362
vt 0.1144 0.2635
vt 0.0918 0.2613
vt 0.0772 0.2675
vt 0.0075 0.1362
vt 0.0101 0.3863
vt 0.0013 0.2612
vt -0.0134 0.2674
vt -0.0739 0.2612
vt -0.059 0.2564
vt -0.127 0.2611
vt 0.0312 0.2612
vt 0.0163 0.2661
vt -0.6016 0
vt -0.6096 0.25
vt -0.6016 0.25
vt -0.5936 0
vt -0.2708 0.1363
vt -0.2734 0.3865
vt -0.2457 0.3864
vt -0.218 0.3863
vt -0.1903 0.3863
vt -0.1627 0.3862
vt -0.135 0.3862
vt -0.1073 0.3861
vt -0.0796 0.3861
vt -0.052 0.386
vt -0.0495 0.1359
vt -0.0771 0.1359
vt -0.1048 0.136
vt -0.1325 0.136
vt -0.1602 0.1361
vt -0.1878 0.1361
vt -0.2155 0.1362
vt -0.2432 0.1362
vt -0.2293 0.1362
vt -0.2319 0.3864
vt -0.2375 0.2613
vt -0.2535 0.2613
vt -0.2595 0.3864
vt -0.257 0.1363
vt -0.2042 0.3863
vt -0.2017 0.1362
vt -0.196 0.2612
vt -0.18 0.2612
vt -0.174 0.1361
vt -0.1765 0.3863
vt -0.1212 0.3862
vt -0.1186 0.136
vt -0.113 0.2611
vt -0.097 0.2611
vt -0.091 0.136
vt -0.0935 0.3861
vt -0.0644 0.3861
vt -0.0633 0.1359
vt -0.0508 0.2684
vt -0.0715 0.261
vt -0.0844 0.2774
vt -0.1463 0.1361
vt -0.1488 0.3862
vt -0.1545 0.2612
vt -0.1674 0.2775
vt -0.2229 0.2613
vt -0.2093 0.2486
vt -0.2721 0.2614
vt -0.1275 0.2611
vt -0.1411 0.2738
vt 0.0936 0.1326
vt 0.0927 0.3827
vt 0.1587 0.3827
vt 0.2247 0.3827
vt 0.2908 0.3827
vt 0.3568 0.3826
vt 0.3578 0.1325
vt 0.3049 0.1325
vt 0.2521 0.1326
vt 0.1993 0.1326
vt 0.1464 0.1326
vt 0.1257 0.3827
vt 0.1917 0.3827
vt 0.2578 0.3827
vt 0.3238 0.3827
vt -3.748 0.3996
vt -3.7783 0.151
vt -3.7862 0.1517
vt -3.756 0.4003
vt -3.7674 0.2399
vt -3.7711 0.276
vt -3.7787 0.2139
vt -3.7577 0.3197
vt -3.7636 0.3381
vt -3.7835 0.174
vt -3.7729 0.1955
vt -3.7831 0.1514
vt -3.7784 0.1811
vt -3.7746 0.2115
vt -3.7749 0.2449
vt -3.7626 0.2798
vt -3.7673 0.3071
vt -3.7688 0.2601
vt -3.7654 0.2912
vt -3.7618 0.3223
vt -3.7529 0.3596
vt -3.7579 0.353
vt -3.7598 0.3692
vt -3.752 0.3999
vt -3.7507 0.3773
vt -3.7543 0.3687
vt -3.7568 0.3711
vt -3.7496 0.3997
vt -3.7525 0.3854
vt -3.7546 0.3862
vt -3.7817 0.1686
vt -3.7807 0.1512
vt -3.7756 0.1732
vt -3.7811 0.1939
vt -3.7803 0.1847
vt -3.7779 0.2023
vt -3.7759 0.2186
vt -3.7714 0.2357
vt -3.7768 0.2294
vt -3.7737 0.237
vt -3.7718 0.2537
vt -3.7695 0.2706
vt -3.773 0.2605
vt -3.7667 0.2758
vt -3.7602 0.2998
vt -3.7638 0.2868
vt -3.7621 0.3047
vt -3.7799 0.1655
vt -3.7641 0.3067
vt -3.7766 0.1963
vt -3.7701 0.2177
vt -3.765 0.2599
vt -3.7692 0.2915
vt -3.7654 0.3226
vt -3.7611 0.3379
vt -3.7586 0.3374
vt -3.7553 0.3397
vt -3.7558 0.3516
vt -3.7595 0.3231
vt -3.7617 0.3537
vt -3.7579 0.3847
vt -0.3924 0.1328
vt -0.3911 0.3829
vt -0.328 0.3829
vt -0.2649 0.3829
vt -0.2019 0.383
vt -0.1388 0.383
vt -0.1401 0.1328
vt -0.1905 0.1328
vt -0.241 0.1328
vt -0.2915 0.1328
vt -0.342 0.1328
vn 0 0 -0.3048
vn 0 0 0.3048
vn 0.3038 -0.0224 0.0095
vn 0.3046 0 0.01
vn 0.2814 0.1166 0.0099
vn 0.2154 0.2154 0.0099
vn 0.1166 0.2815 0.0098
vn 0 0.3046 0.0098
vn -0.1166 0.2815 0.0098
vn -0.2154 0.2154 0.0098
vn -0.2815 0.1166 0.0098
vn -0.3046 0 0.0097
vn -0.2804 0.1192 0.0097
vn -0.2114 0.2193 0.0097
vn -0.1088 0.2846 0.0097
vn 0.0112 0.3044 0.0097
vn 0.1294 0.2758 0.0096
vn 0.227 0.2032 0.0096
vn 0.2884 0.0982 0.0095
vn 0.263 0.1538 0.0096
vn 0.2533 0.1692 0.0099
vn 0.2728 0.1355 0.0098
vn 0.295 0.076 0.0098
vn 0.2988 0.0594 0.01
vn 0.3022 0.0387 0.0095
vn 0.1692 0.2533 0.0099
vn 0.1819 0.2444 0.0096
vn 0.1498 0.2653 0.0098
vn 0.0915 0.2906 0.0097
vn 0.0718 0.2961 0.0097
vn 0.0594 0.2988 0.0098
vn -0.1693 0.2533 0.0098
vn -0.1634 0.2571 0.0097
vn -0.1909 0.2374 0.0097
vn -0.236 0.1926 0.0097
vn -0.2509 0.1727 0.0097
vn -0.2533 0.1693 0.0098
vn -0.3001 0.0524 0.0097
vn -0.2985 0.0608 0.0097
vn -0.2912 0.0894 0.0097
vn -0.2687 0.1436 0.0097
vn -0.0498 0.3006 0.0097
vn -0.0594 0.2988 0.0098
vn -0.0248 0.3036 0.0097
vn 0.0337 0.3028 0.0098
vn 0.2401 0.1875 0.0098
vn 0.199 0.2307 0.0097
vn 0.3045 -0.0108 0.0098
vn -0.1394 0.2709 0.0097
vn -0.0839 0.2929 0.0098
vn 0 -0.3048 0
vn 0.3046 0 -0.0097
vn 0.2804 -0.1192 -0.0098
vn 0.2114 -0.2193 -0.0098
vn 0.1088 -0.2846 -0.0098
vn -0.0112 -0.3044 -0.0098
vn -0.1294 -0.2758 -0.0099
vn -0.227 -0.2032 -0.0099
vn -0.2884 -0.0982 -0.01
vn -0.3038 0.0224 -0.0101
vn -0.3007 0.049 -0.0094
vn -0.2951 -0.0757 -0.0095
vn -0.2399 -0.1878 -0.0096
vn -0.1444 -0.2683 -0.0096
vn -0.0246 -0.3037 -0.0097
vn 0.0993 -0.288 -0.0097
vn 0.2065 -0.2239 -0.0097
vn 0.279 -0.1222 -0.0097
vn 0.2481 -0.1768 -0.0097
vn 0.2509 -0.1727 -0.0098
vn 0.266 -0.1484 -0.0097
vn 0.2933 -0.0822 -0.0097
vn 0.2985 -0.0608 -0.0097
vn 0.2982 -0.0624 -0.0097
vn 0.1634 -0.2571 -0.0098
vn 0.1562 -0.2615 -0.0097
vn 0.1328 -0.2742 -0.0097
vn 0.0651 -0.2976 -0.0097
vn 0.0382 -0.3022 -0.0097
vn 0.0498 -0.3005 -0.0098
vn -0.1818 -0.2444 -0.0099
vn -0.1963 -0.233 -0.0096
vn -0.2121 -0.2186 -0.0098
vn -0.2573 -0.163 -0.0098
vn -0.2733 -0.1346 -0.0095
vn -0.263 -0.1538 -0.0099
vn -0.3029 -0.0324 -0.01
vn -0.3043 -0.0137 -0.0095
vn -0.3027 0.0344 -0.0098
vn -0.2992 -0.0575 -0.0098
vn -0.2827 -0.1136 -0.0098
vn -0.0863 -0.2922 -0.0096
vn -0.0718 -0.2961 -0.0098
vn -0.0484 -0.3008 -0.0098
vn 0.0093 -0.3045 -0.0098
vn 0.2284 -0.2016 -0.0097
vn 0.1839 -0.2429 -0.0097
vn -0.1608 -0.2588 -0.0098
vn -0.1059 -0.2856 -0.0098
vn -0.1224 -0.279 -0.0098
vn -0.1175 -0.2811 -0.0097
vn -0.062 -0.2983 -0.0097
vn -0.0042 -0.3046 -0.0097
vn 0.0537 -0.2999 -0.0097
vn 0.1096 -0.2842 -0.0096
vn 0.1164 -0.2815 -0.0099
vn 0.0697 -0.2966 -0.0098
vn 0.0212 -0.3039 -0.0098
vn -0.0278 -0.3034 -0.0097
vn -0.0761 -0.295 -0.0098
vn -0.0901 -0.291 -0.0097
vn -0.0332 -0.3028 -0.0097
vn 0.0249 -0.3036 -0.0097
vn 0.082 -0.2934 -0.0097
vn 0.2871 0.1018 -0.0102
vn 0.2842 0.1096 -0.0099
vn 0.2842 0.1096 -0.0102
vn 0.2871 0.1018 -0.0104
vn 0.2853 0.1068 -0.01
vn 0.2857 0.1057 -0.0103
vn 0.285 0.1077 -0.0102
vn 0.2862 0.1043 -0.0101
vn 0.2864 0.1037 -0.0104
vn 0.2845 0.1089 -0.0102
vn 0.2848 0.1082 -0.01
vn 0.2842 0.1096 -0.0101
vn 0.2846 0.1087 -0.0101
vn 0.2849 0.1077 -0.0101
vn 0.2853 0.1067 -0.0103
vn 0.2858 0.1056 -0.01
vn 0.2861 0.1047 -0.0103
vn 0.2855 0.1062 -0.0102
vn 0.2859 0.1052 -0.0102
vn 0.2862 0.1042 -0.0102
vn 0.2867 0.103 -0.0101
vn 0.2866 0.1033 -0.0103
vn 0.2868 0.1028 -0.0104
vn 0.2871 0.1018 -0.0103
vn 0.2869 0.1025 -0.0101
vn 0.2868 0.1028 -0.0102
vn 0.2868 0.1027 -0.0103
vn 0.287 0.1022 -0.0102
vn 0.287 0.1022 -0.0103
vn 0.2844 0.1091 -0.0101
vn 0.2842 0.1096 -0.01
vn 0.2845 0.1089 -0.0099
vn 0.2847 0.1083 -0.0102
vn 0.2846 0.1086 -0.0101
vn 0.2848 0.108 -0.0102
vn 0.285 0.1075 -0.0102
vn 0.2852 0.107 -0.0101
vn 0.2851 0.1072 -0.0103
vn 0.2852 0.1069 -0.0102
vn 0.2854 0.1064 -0.0102
vn 0.2856 0.1059 -0.0102
vn 0.2855 0.1062 -0.0103
vn 0.2857 0.1057 -0.0102
vn 0.286 0.1049 -0.0101
vn 0.2858 0.1054 -0.0101
vn 0.286 0.1048 -0.0102
vn 0.2844 0.1092 -0.01
vn 0.2861 0.1047 -0.0102
vn 0.2848 0.1082 -0.0101
vn 0.285 0.1075 -0.01
vn 0.2855 0.1062 -0.01
vn 0.2859 0.1052 -0.0103
vn 0.2862 0.1042 -0.0104
vn 0.2864 0.1038 -0.0103
vn 0.2864 0.1038 -0.0102
vn 0.2864 0.1037 -0.0101
vn 0.2866 0.1033 -0.0102
vn 0.2863 0.1042 -0.0102
vn 0.2866 0.1033 -0.0104
vn 0.2869 0.1023 -0.0104
vn -0.1167 0.2814 0.0099
vn -0.1096 0.2842 0.0096
vn -0.055 0.2996 0.0097
vn 0.0016 0.3046 0.0097
vn 0.0581 0.299 0.0097
vn 0.1127 0.2831 0.0097
vn 0.1175 0.2811 0.0098
vn 0.0718 0.2961 0.0098
vn 0.0244 0.3037 0.0097
vn -0.0236 0.3037 0.0098
vn -0.0711 0.2962 0.0098

usemtl 191881
f 3/3/1 7/7/1 8/8/1
f 4/4/1 7/7/1 3/3/1
f 2/2/1 3/3/1 8/8/1
f 5/5/1 6/6/1 4/4/1
f 7/7/1 4/4/1 6/6/1
f 1/1/1 9/9/1 10/10/1
f 8/8/1 9/9/1 2/2/1
f 2/2/1 9/9/1 1/1/1
f 1/1/1 11/11/1 26/26/1
f 18/18/1 19/19/1 20/20/1
f 1/1/1 10/10/1 11/11/1
f 12/12/1 25/25/1 26/26/1
f 13/13/1 25/25/1 12/12/1
f 14/14/1 24/24/1 13/13/1
f 25/25/1 13/13/1 24/24/1
f 23/23/1 24/24/1 14/14/1
f 21/21/1 17/17/1 20/20/1
f 16/16/1 17/17/1 21/21/1
f 18/18/1 20/20/1 17/17/1
f 22/22/1 23/23/1 15/15/1
f 22/22/1 16/16/1 21/21/1
f 15/15/1 16/16/1 22/22/1
f 15/15/1 23/23/1 14/14/1
f 26/26/1 11/11/1 12/12/1
f 54/54/2 45/45/2 46/46/2
f 27/27/2 45/45/2 54/54/2
f 53/53/2 54/54/2 46/46/2
f 34/34/2 35/35/2 36/36/2
f 45/45/2 27/27/2 44/44/2
f 44/44/2 27/27/2 43/43/2
f 48/48/2 52/52/2 47/47/2
f 53/53/2 47/47/2 52/52/2
f 51/51/2 52/52/2 48/48/2
f 51/51/2 49/49/2 50/50/2
f 48/48/2 49/49/2 51/51/2
f 53/53/2 46/46/2 47/47/2
f 33/33/2 37/37/2 38/38/2
f 36/36/2 37/37/2 34/34/2
f 34/34/2 37/37/2 33/33/2
f 38/38/2 39/39/2 32/32/2
f 32/32/2 39/39/2 31/31/2
f 33/33/2 38/38/2 32/32/2
f 31/31/2 39/39/2 40/40/2
f 28/28/2 42/42/2 43/43/2
f 29/29/2 42/42/2 28/28/2
f 27/27/2 28/28/2 43/43/2
f 30/30/2 40/40/2 41/41/2
f 42/42/2 29/29/2 41/41/2
f 41/41/2 29/29/2 30/30/2
f 30/30/2 31/31/2 40/40/2
f 57/75/22 55/73/20 28/72/19
f 58/76/23 26/57/5 57/75/22
f 61/79/26 24/59/7 63/81/28
f 69/87/34 85/103/49 67/85/32
f 31/69/16 65/83/30 81/99/45
f 24/59/7 64/82/29 63/81/28
f 58/76/23 60/78/25 84/102/48
f 68/86/33 85/103/49 69/87/34
f 28/72/19 58/76/23 57/75/22
f 82/100/46 57/75/22 56/74/21
f 57/75/22 26/57/5 56/74/21
f 57/75/22 82/100/46 55/73/20
f 62/80/27 63/81/28 30/70/17
f 29/71/18 55/73/20 82/100/46
f 64/82/29 66/84/31 81/99/45
f 64/82/29 24/59/7 66/84/31
f 67/85/32 21/62/10 69/87/34
f 65/83/30 30/70/17 64/82/29
f 21/62/10 70/88/35 69/87/34
f 83/101/47 82/100/46 25/58/6
f 30/70/17 63/81/28 64/82/29
f 76/94/40 73/91/38 75/93/12
f 58/76/23 84/102/48 59/77/24
f 23/60/8 80/98/44 81/99/45
f 33/67/14 68/86/33 69/87/34
f 70/88/35 72/90/37 77/95/41
f 58/76/23 28/72/19 60/78/25
f 86/104/50 79/97/43 22/61/9
f 74/92/39 76/94/40 75/93/12
f 83/101/47 25/58/6 61/79/26
f 62/80/27 83/101/47 63/81/28
f 86/104/50 80/98/44 79/97/43
f 81/99/45 80/98/44 31/69/16
f 59/77/24 26/57/5 58/76/23
f 85/103/49 22/61/9 67/85/32
f 33/67/14 69/87/34 70/88/35
f 71/89/36 33/67/14 70/88/35
f 77/95/41 76/94/40 34/66/13
f 75/93/12 35/65/12 74/92/39
f 34/66/13 71/89/36 77/95/41
f 70/88/35 21/62/10 72/90/37
f 34/66/13 76/94/40 74/92/39
f 20/63/11 76/94/40 77/95/41
f 73/91/38 19/64/12 75/93/12
f 76/94/40 20/63/11 73/91/38
f 20/63/11 77/95/41 72/90/37
f 71/89/36 70/88/35 77/95/41
f 80/98/44 78/96/42 31/69/16
f 86/104/50 32/68/15 78/96/42
f 85/103/49 32/68/15 86/104/50
f 80/98/44 23/60/8 79/97/43
f 23/60/8 81/99/45 66/84/31
f 65/83/30 64/82/29 81/99/45
f 83/101/47 62/80/27 29/71/18
f 25/58/6 82/100/46 56/74/21
f 63/81/28 83/101/47 61/79/26
f 82/100/46 83/101/47 29/71/18
f 1/56/4 59/77/24 84/102/48
f 84/102/48 60/78/25 27/55/3
f 32/68/15 85/103/49 68/86/33
f 80/98/44 86/104/50 78/96/42
f 85/103/49 86/104/50 22/61/9
f 18/107/51 35/105/51 19/106/51
f 35/105/51 18/107/51 36/108/51
f 89/129/71 87/127/69 37/126/68
f 90/130/72 17/111/53 89/129/71
f 93/133/75 15/113/55 95/135/77
f 101/141/83 117/157/98 99/139/81
f 40/123/65 97/137/79 113/153/95
f 15/113/55 96/136/78 95/135/77
f 90/130/72 92/132/74 116/156/52
f 100/140/82 117/157/98 101/141/83
f 37/126/68 90/130/72 89/129/71
f 114/154/96 89/129/71 88/128/70
f 89/129/71 17/111/53 88/128/70
f 89/129/71 114/154/96 87/127/69
f 94/134/76 95/135/77 39/124/66
f 38/125/67 87/127/69 114/154/96
f 96/136/78 98/138/80 113/153/95
f 96/136/78 15/113/55 98/138/80
f 99/139/81 12/116/58 101/141/83
f 97/137/79 39/124/66 96/136/78
f 12/116/58 102/142/84 101/141/83
f 115/155/97 114/154/96 16/112/54
f 39/124/66 95/135/77 96/136/78
f 108/148/90 105/145/87 107/147/89
f 90/130/72 116/156/52 91/131/73
f 14/114/56 112/152/94 113/153/95
f 42/121/63 100/140/82 101/141/83
f 102/142/84 104/144/86 109/149/91
f 90/130/72 37/126/68 92/132/74
f 118/158/99 111/151/93 13/115/57
f 106/146/88 108/148/90 107/147/89
f 115/155/97 16/112/54 93/133/75
f 94/134/76 115/155/97 95/135/77
f 118/158/99 112/152/94 111/151/93
f 113/153/95 112/152/94 40/123/65
f 91/131/73 17/111/53 90/130/72
f 117/157/98 13/115/57 99/139/81
f 42/121/63 101/141/83 102/142/84
f 103/143/85 42/121/63 102/142/84
f 109/149/91 108/148/90 43/120/62
f 108/148/90 106/146/88 43/120/62
f 43/120/62 103/143/85 109/149/91
f 102/142/84 12/116/58 104/144/86
f 106/146/88 107/147/89 44/119/61
f 11/117/59 108/148/90 109/149/91
f 105/145/87 10/118/60 107/147/89
f 108/148/90 11/117/59 105/145/87
f 11/117/59 109/149/91 104/144/86
f 103/143/85 102/142/84 109/149/91
f 112/152/94 110/150/92 40/123/65
f 118/158/99 41/122/64 110/150/92
f 117/157/98 41/122/64 118/158/99
f 112/152/94 14/114/56 111/151/93
f 14/114/56 113/153/95 98/138/80
f 97/137/79 96/136/78 113/153/95
f 115/155/97 94/134/76 38/125/67
f 16/112/54 114/154/96 88/128/70
f 95/135/77 115/155/97 93/133/75
f 114/154/96 115/155/97 38/125/67
f 18/110/52 91/131/73 116/156/52
f 116/156/52 92/132/74 36/109/52
f 41/122/64 117/157/98 100/140/82
f 112/152/94 118/158/99 110/150/92
f 117/157/98 118/158/99 13/115/57
f 120/171/112 8/162/103 46/168/109
f 44/159/100 10/160/101 119/170/111
f 119/170/111 45/169/110 44/159/100
f 9/161/102 46/168/109 45/169/110
f 119/170/111 9/161/102 45/169/110
f 46/168/109 9/161/102 120/171/112
f 48/166/107 47/167/108 7/163/104
f 6/164/105 49/165/106 122/173/114
f 121/172/113 7/163/104 47/167/108
f 48/166/107 122/173/114 49/165/106
f 48/166/107 7/163/104 122/173/114
f 46/168/109 8/162/103 47/167/108
f 47/167/108 8/162/103 121/172/113
f 164/219/159 137/192/133 165/220/160
f 157/212/152 158/213/153 155/210/150
f 130/185/126 166/221/161 150/205/145
f 127/182/123 173/228/168 172/227/167
f 133/188/129 159/214/154 158/213/153
f 149/204/144 153/208/148 131/186/127
f 173/228/168 140/195/136 174/229/169
f 132/187/128 168/223/163 154/209/149
f 6/175/116 150/205/145 151/206/146
f 166/221/161 131/186/127 151/206/146
f 149/204/144 130/185/126 5/176/117
f 168/223/163 132/187/128 129/184/125
f 156/211/151 169/224/164 132/187/128
f 154/209/149 125/180/121 155/210/150
f 123/178/119 156/211/151 136/191/132
f 155/210/150 156/211/151 132/187/128
f 172/227/167 138/193/134 167/222/162
f 170/225/165 136/191/132 162/217/157
f 160/215/155 124/179/120 171/226/166
f 160/215/155 137/192/133 162/217/157
f 162/217/157 164/219/159 134/189/130
f 137/192/133 167/222/162 165/220/160
f 176/231/171 174/229/169 140/195/136
f 147/202/142 146/201/115 143/198/139
f 144/199/140 140/195/136 145/200/141
f 146/201/115 49/174/115 143/198/139
f 144/199/140 176/231/171 140/195/136
f 173/228/168 178/233/173 140/195/136
f 148/203/143 145/200/141 179/234/174
f 139/194/135 144/199/140 143/198/139
f 179/234/174 50/177/118 148/203/143
f 147/202/142 144/199/140 145/200/141
f 148/203/143 147/202/142 145/200/141
f 142/197/138 146/201/115 147/202/142
f 148/203/143 142/197/138 147/202/142
f 144/199/140 147/202/142 143/198/139
f 148/203/143 50/177/118 142/197/138
f 145/200/141 141/196/137 179/234/174
f 154/209/149 153/208/148 152/207/147
f 128/183/124 149/204/144 5/176/117
f 131/186/127 166/221/161 149/204/144
f 152/207/147 125/180/121 154/209/149
f 151/206/146 131/186/127 129/184/125
f 128/183/124 153/208/148 149/204/144
f 152/207/147 153/208/148 128/183/124
f 131/186/127 153/208/148 168/223/163
f 155/210/150 132/187/128 154/209/149
f 169/224/164 129/184/125 132/187/128
f 156/211/151 155/210/150 158/213/153
f 170/225/165 162/217/157 134/189/130
f 156/211/151 158/213/153 159/214/154
f 133/188/129 158/213/153 157/212/152
f 155/210/150 125/180/121 157/212/152
f 136/191/132 156/211/151 159/214/154
f 136/191/132 159/214/154 160/215/155
f 159/214/154 161/216/156 160/215/155
f 136/191/132 160/215/155 162/217/157
f 137/192/133 171/226/166 167/222/162
f 124/179/120 160/215/155 161/216/156
f 159/214/154 133/188/129 161/216/156
f 177/232/172 126/181/122 165/220/160
f 137/192/133 164/219/159 162/217/157
f 164/219/159 163/218/158 134/189/130
f 163/218/158 164/219/159 165/220/160
f 163/218/158 165/220/160 126/181/122
f 138/193/134 165/220/160 167/222/162
f 149/204/144 166/221/161 130/185/126
f 150/205/145 166/221/161 151/206/146
f 138/193/134 172/227/167 173/228/168
f 171/226/166 135/190/131 167/222/162
f 154/209/149 168/223/163 153/208/148
f 131/186/127 168/223/163 129/184/125
f 170/225/165 123/178/119 136/191/132
f 169/224/164 156/211/151 123/178/119
f 137/192/133 160/215/155 171/226/166
f 138/193/134 173/228/168 174/229/169
f 172/227/167 167/222/162 135/190/131
f 140/195/136 178/233/173 145/200/141
f 174/229/169 177/232/172 138/193/134
f 174/229/169 175/230/170 177/232/172
f 139/194/135 175/230/170 176/231/171
f 174/229/169 176/231/171 175/230/170
f 139/194/135 176/231/171 144/199/140
f 138/193/134 177/232/172 165/220/160
f 126/181/122 177/232/172 175/230/170
f 141/196/137 145/200/141 178/233/173
f 178/233/173 173/228/168 127/182/123
f 4/237/177 51/245/185 5/236/176
f 50/235/175 5/236/176 51/245/185
f 52/244/184 51/245/185 4/237/177
f 4/237/177 3/238/178 52/244/184
f 54/242/182 53/243/183 2/239/179
f 27/241/181 54/242/182 1/240/180
f 3/238/178 2/239/179 53/243/183
f 1/240/180 54/242/182 2/239/179
f 52/244/184 3/238/178 53/243/183
