## ElementId 196482
## Vertice Count:179
## Triangle Count:285
mtllib 196482.mtl
o 196482

v 2.7926 15.1822 5.5695
v 2.8506 15.1661 5.5752
v 2.9108 15.1604 5.577
v 2.9711 15.1653 5.5748
v 3.0293 15.1806 5.5688
v 3.0322 15.1736 5.5714
v 2.9712 15.1577 5.5777
v 2.908 15.153 5.5798
v 2.8449 15.1596 5.5777
v 2.7844 15.1772 5.5714
v 2.7807 15.204 5.5614
v 2.7662 15.2272 5.5528
v 2.7431 15.2433 5.5469
v 2.7152 15.2497 5.5447
v 2.6869 15.2454 5.5464
v 2.6626 15.231 5.552
v 2.6463 15.2088 5.5603
v 2.6406 15.1825 5.5702
v 2.6326 15.1825 5.5703
v 2.6387 15.2111 5.5595
v 2.656 15.2354 5.5503
v 2.6819 15.2516 5.5441
v 2.7126 15.2573 5.5419
v 2.7432 15.2515 5.5438
v 2.7691 15.2352 5.5498
v 2.7865 15.2109 5.5588
v 2.7856 15.2648 5.8055
v 2.782 15.2915 5.7956
v 2.7675 15.3148 5.787
v 2.7444 15.3309 5.7811
v 2.7165 15.3373 5.7788
v 2.6881 15.3329 5.7806
v 2.6639 15.3185 5.7861
v 2.6476 15.2964 5.7945
v 2.6418 15.27 5.8044
v 2.6498 15.27 5.8043
v 2.6552 15.294 5.7953
v 2.6705 15.314 5.7878
v 2.693 15.3266 5.7829
v 2.719 15.3296 5.7817
v 2.7442 15.3226 5.7842
v 2.7642 15.3067 5.79
v 2.7758 15.2847 5.7982
v 2.777 15.2601 5.8073
v 2.8288 15.2433 5.8134
v 2.8828 15.2344 5.8164
v 2.9376 15.2337 5.8163
v 2.9918 15.2413 5.8132
v 3.0439 15.257 5.8071
v 3.0413 15.264 5.8044
v 2.9914 15.2489 5.8103
v 2.9396 15.2414 5.8135
v 2.8872 15.2415 5.8137
v 2.8355 15.2494 5.811
v 2.7747 15.3031 5.7913
v 2.7778 15.223 5.5543
v 2.7812 15.2577 5.6748
v 2.7868 15.2437 5.68
v 2.7895 15.1965 5.5641
v 2.7838 15.2781 5.8006
v 2.7562 15.2434 5.5468
v 2.756 15.3228 5.784
v 2.7505 15.288 5.6636
v 2.736 15.294 5.6615
v 2.7305 15.3341 5.7799
v 2.7279 15.2544 5.5428
v 2.669 15.2435 5.5472
v 2.676 15.3257 5.7834
v 2.6656 15.2817 5.6664
v 2.6543 15.2712 5.6704
v 2.6557 15.3075 5.7903
v 2.6473 15.2233 5.5549
v 2.6352 15.1951 5.5655
v 2.6447 15.2832 5.7994
v 2.6371 15.2255 5.6852
v 2.6405 15.2471 5.6795
v 2.646 15.2577 5.6689
v 2.7023 15.3351 5.7797
v 2.6973 15.2544 5.543
v 2.707 15.2971 5.6605
v 2.7216 15.2948 5.6546
v 2.7731 15.2698 5.6703
v 2.7627 15.2815 5.6711
v 2.7891 15.2235 5.6875
v 2.6784 15.2895 5.6635
v 2.6922 15.293 5.6569
v 2.6628 15.304 5.7915
v 2.6544 15.2199 5.5561
v 2.6538 15.2572 5.6756
v 2.6477 15.2434 5.6808
v 2.6434 15.1956 5.5653
v 2.6525 15.282 5.7998
v 2.6747 15.2382 5.5492
v 2.6817 15.3203 5.7854
v 2.6835 15.2835 5.6657
v 2.6987 15.2883 5.6638
v 2.706 15.3281 5.7823
v 2.701 15.2475 5.5456
v 2.7547 15.2353 5.5498
v 2.7542 15.3147 5.7871
v 2.7605 15.2717 5.6696
v 2.7706 15.2601 5.6739
v 2.77 15.2957 5.7941
v 2.7735 15.2156 5.5571
v 2.7827 15.1892 5.5669
v 2.7764 15.2724 5.8028
v 2.7809 15.2162 5.6824
v 2.7799 15.238 5.6821
v 2.7766 15.2442 5.6624
v 2.7316 15.3261 5.7829
v 2.7292 15.2465 5.5458
v 2.724 15.289 5.6634
v 2.711 15.2845 5.6477
v 2.6622 15.2683 5.6714
v 2.6725 15.2811 5.6802
v 2.6452 15.2262 5.6873
v 2.7491 15.2801 5.6666
v 2.7369 15.2817 5.6525
v 2.8146 15.1684 5.5745
v 2.8764 15.1563 5.5787
v 2.9396 15.1553 5.5787
v 3.0017 15.1656 5.5745
v 3.0364 15.2034 5.6557
v 3.0353 15.2223 5.6866
v 3.0323 15.2014 5.6277
v 3.0402 15.2302 5.7314
v 3.0383 15.2432 5.7455
v 3.0304 15.188 5.5899
v 3.0343 15.1885 5.6135
v 3.0305 15.1778 5.5698
v 3.0323 15.1869 5.5983
v 3.0338 15.197 5.6273
v 3.0338 15.2119 5.6572
v 3.0383 15.2168 5.6935
v 3.0368 15.2327 5.7161
v 3.036 15.2134 5.6732
v 3.0374 15.2242 5.7026
v 3.0388 15.2347 5.732
v 3.0421 15.2436 5.7692
v 3.0403 15.2449 5.7611
v 3.0398 15.2536 5.775
v 3.0426 15.2605 5.8057
v 3.0429 15.2495 5.786
v 3.0416 15.2488 5.7768
v 3.0408 15.2519 5.7779
v 3.0434 15.2583 5.8065
v 3.0423 15.2546 5.7925
v 3.0416 15.2567 5.7924
v 3.031 15.1842 5.5858
v 3.0313 15.1757 5.5706
v 3.0333 15.181 5.5925
v 3.0314 15.1947 5.6088
v 3.0316 15.19 5.6008
v 3.0326 15.1957 5.6176
v 3.0333 15.2012 5.6331
v 3.035 15.2049 5.6503
v 3.0331 15.2067 5.6424
v 3.0342 15.2074 5.6505
v 3.0349 15.2131 5.6663
v 3.0358 15.2185 5.6824
v 3.0346 15.2171 5.6719
v 3.0368 15.2185 5.6882
v 3.0392 15.2235 5.7125
v 3.0379 15.2208 5.6993
v 3.0386 15.2272 5.716
v 3.0317 15.1813 5.5838
v 3.0379 15.2298 5.7171
v 3.033 15.192 5.6128
v 3.0354 15.196 5.6346
v 3.0374 15.2101 5.6746
v 3.036 15.2275 5.7013
v 3.0375 15.238 5.7308
v 3.0391 15.2409 5.7463
v 3.04 15.2386 5.7468
v 3.0411 15.2369 5.7503
v 3.041 15.2425 5.7608
v 3.0396 15.2331 5.7337
v 3.039 15.2484 5.7602
v 3.0405 15.2588 5.7897
vt 0.16 4.1834
vt 0.2181 4.1664
vt 0.2783 4.1604
vt 0.3385 4.1657
vt 0.3968 4.1821
vt 0.3997 4.1747
vt 0.3386 4.1576
vt 0.2754 4.1524
vt 0.2124 4.1593
vt 0.1518 4.1781
vt 0.1482 4.2066
vt 0.1336 4.2314
vt 0.1106 4.2486
vt 0.0827 4.2554
vt 0.0543 4.2507
vt 0.03 4.2352
vt 0.0137 4.2116
vt 0.008 4.1834
vt 0 4.1834
vt 0.0061 4.214
vt 0.0234 4.24
vt 0.0494 4.2573
vt 0.08 4.2634
vt 0.1106 4.2573
vt 0.1366 4.24
vt 0.1539 4.214
vt -0.1518 4.1781
vt -0.1482 4.2066
vt -0.1336 4.2314
vt -0.1106 4.2486
vt -0.0827 4.2554
vt -0.0543 4.2507
vt -0.03 4.2352
vt -0.0137 4.2116
vt -0.008 4.1834
vt -0.016 4.1834
vt -0.0214 4.2091
vt -0.0366 4.2304
vt -0.0591 4.2439
vt -0.0852 4.2472
vt -0.1103 4.2398
vt -0.1304 4.2229
vt -0.142 4.1993
vt -0.1432 4.1731
vt -0.195 4.1552
vt -0.249 4.1458
vt -0.3037 4.1452
vt -0.3579 4.1534
vt -0.4101 4.1702
vt -0.4074 4.1778
vt -0.3576 4.1616
vt -0.3058 4.1534
vt -0.2534 4.1535
vt -0.2016 4.1618
vt -0.1283 0.1361
vt -0.1256 0.3862
vt -0.0955 0.3862
vt -0.0653 0.3863
vt -0.0351 0.3863
vt -0.005 0.3863
vt 0.0252 0.3863
vt 0.0554 0.3863
vt 0.0856 0.3863
vt 0.1157 0.3864
vt 0.1131 0.1362
vt 0.0829 0.1362
vt 0.0527 0.1362
vt 0.0226 0.1362
vt -0.0076 0.1361
vt -0.0378 0.1361
vt -0.0679 0.1361
vt -0.0981 0.1361
vt -0.083 0.1361
vt -0.0804 0.3862
vt -0.0892 0.2612
vt -0.1051 0.2612
vt -0.1106 0.3862
vt -0.1132 0.1361
vt -0.0502 0.3863
vt -0.0529 0.1361
vt -0.044 0.2612
vt -0.0281 0.2612
vt -0.0227 0.1361
vt -0.02 0.3863
vt 0.0403 0.3863
vt 0.0377 0.1362
vt 0.0465 0.2612
vt 0.0624 0.2613
vt 0.0678 0.1362
vt 0.0705 0.3863
vt 0.1025 0.3863
vt 0.098 0.1362
vt 0.1144 0.2635
vt 0.0918 0.2613
vt 0.0772 0.2675
vt 0.0075 0.1362
vt 0.0101 0.3863
vt 0.0013 0.2612
vt -0.0134 0.2674
vt -0.0739 0.2612
vt -0.059 0.2564
vt -0.127 0.2611
vt 0.0312 0.2612
vt 0.0163 0.2661
vt -0.6016 0
vt -0.6096 0.25
vt -0.6016 0.25
vt -0.5936 0
vt -0.2708 0.1363
vt -0.2734 0.3865
vt -0.2457 0.3864
vt -0.218 0.3863
vt -0.1903 0.3863
vt -0.1627 0.3862
vt -0.135 0.3862
vt -0.1073 0.3861
vt -0.0796 0.3861
vt -0.052 0.386
vt -0.0495 0.1359
vt -0.0771 0.1359
vt -0.1048 0.136
vt -0.1325 0.136
vt -0.1602 0.1361
vt -0.1878 0.1361
vt -0.2155 0.1362
vt -0.2432 0.1362
vt -0.2293 0.1362
vt -0.2319 0.3864
vt -0.2375 0.2613
vt -0.2535 0.2613
vt -0.2595 0.3864
vt -0.257 0.1363
vt -0.2042 0.3863
vt -0.2017 0.1362
vt -0.196 0.2612
vt -0.18 0.2612
vt -0.174 0.1361
vt -0.1765 0.3863
vt -0.1212 0.3862
vt -0.1186 0.136
vt -0.113 0.2611
vt -0.097 0.2611
vt -0.091 0.136
vt -0.0935 0.3861
vt -0.0644 0.3861
vt -0.0633 0.1359
vt -0.0508 0.2684
vt -0.0715 0.261
vt -0.0844 0.2774
vt -0.1463 0.1361
vt -0.1488 0.3862
vt -0.1545 0.2612
vt -0.1674 0.2775
vt -0.2229 0.2613
vt -0.2093 0.2486
vt -0.2721 0.2614
vt -0.1275 0.2611
vt -0.1411 0.2738
vt 0.0936 0.1326
vt 0.0927 0.3827
vt 0.1587 0.3827
vt 0.2247 0.3827
vt 0.2908 0.3827
vt 0.3568 0.3826
vt 0.3578 0.1325
vt 0.3049 0.1325
vt 0.2521 0.1326
vt 0.1993 0.1326
vt 0.1464 0.1326
vt 0.1257 0.3827
vt 0.1917 0.3827
vt 0.2578 0.3827
vt 0.3238 0.3827
vt -3.748 0.3996
vt -3.7783 0.151
vt -3.7862 0.1517
vt -3.756 0.4003
vt -3.7674 0.2399
vt -3.7711 0.276
vt -3.7787 0.2139
vt -3.7577 0.3197
vt -3.7636 0.3381
vt -3.7835 0.174
vt -3.7729 0.1955
vt -3.7831 0.1514
vt -3.7784 0.1811
vt -3.7746 0.2115
vt -3.7749 0.2449
vt -3.7626 0.2798
vt -3.7673 0.3071
vt -3.7688 0.2601
vt -3.7654 0.2912
vt -3.7618 0.3223
vt -3.7529 0.3596
vt -3.7579 0.353
vt -3.7598 0.3692
vt -3.752 0.3999
vt -3.7507 0.3773
vt -3.7543 0.3687
vt -3.7568 0.3711
vt -3.7496 0.3997
vt -3.7525 0.3854
vt -3.7546 0.3862
vt -3.7817 0.1686
vt -3.7807 0.1512
vt -3.7756 0.1732
vt -3.7811 0.1939
vt -3.7803 0.1847
vt -3.7779 0.2023
vt -3.7759 0.2186
vt -3.7714 0.2357
vt -3.7768 0.2294
vt -3.7737 0.237
vt -3.7718 0.2537
vt -3.7695 0.2706
vt -3.773 0.2605
vt -3.7667 0.2758
vt -3.7602 0.2998
vt -3.7638 0.2868
vt -3.7621 0.3047
vt -3.7799 0.1655
vt -3.7641 0.3067
vt -3.7766 0.1963
vt -3.7701 0.2177
vt -3.765 0.2599
vt -3.7692 0.2915
vt -3.7654 0.3226
vt -3.7611 0.3379
vt -3.7586 0.3374
vt -3.7553 0.3397
vt -3.7558 0.3516
vt -3.7595 0.3231
vt -3.7617 0.3537
vt -3.7579 0.3847
vt -0.3924 0.1328
vt -0.3911 0.3829
vt -0.328 0.3829
vt -0.2649 0.3829
vt -0.2019 0.383
vt -0.1388 0.383
vt -0.1401 0.1328
vt -0.1905 0.1328
vt -0.241 0.1328
vt -0.2915 0.1328
vt -0.342 0.1328
vn 0 0 -0.3048
vn 0 0 0.3048
vn 0.3038 -0.0224 0.0095
vn 0.3046 0 0.01
vn 0.2814 0.1166 0.0099
vn 0.2154 0.2154 0.0099
vn 0.1166 0.2815 0.0098
vn 0 0.3046 0.0098
vn -0.1166 0.2815 0.0098
vn -0.2154 0.2154 0.0098
vn -0.2815 0.1166 0.0098
vn -0.3046 0 0.0097
vn -0.2804 0.1192 0.0097
vn -0.2114 0.2193 0.0097
vn -0.1088 0.2846 0.0097
vn 0.0112 0.3044 0.0097
vn 0.1294 0.2758 0.0096
vn 0.227 0.2032 0.0096
vn 0.2884 0.0982 0.0095
vn 0.263 0.1538 0.0096
vn 0.2533 0.1692 0.0099
vn 0.2728 0.1355 0.0098
vn 0.295 0.076 0.0098
vn 0.2988 0.0594 0.01
vn 0.3022 0.0387 0.0095
vn 0.1692 0.2533 0.0099
vn 0.1819 0.2444 0.0096
vn 0.1498 0.2653 0.0098
vn 0.0915 0.2906 0.0097
vn 0.0718 0.2961 0.0097
vn 0.0594 0.2988 0.0098
vn -0.1693 0.2533 0.0098
vn -0.1634 0.2571 0.0097
vn -0.1909 0.2374 0.0097
vn -0.236 0.1926 0.0097
vn -0.2509 0.1727 0.0097
vn -0.2533 0.1693 0.0098
vn -0.3001 0.0524 0.0097
vn -0.2985 0.0608 0.0097
vn -0.2912 0.0894 0.0097
vn -0.2687 0.1436 0.0097
vn -0.0498 0.3006 0.0097
vn -0.0594 0.2988 0.0098
vn -0.0248 0.3036 0.0097
vn 0.0337 0.3028 0.0098
vn 0.2401 0.1875 0.0098
vn 0.199 0.2307 0.0097
vn 0.3045 -0.0108 0.0098
vn -0.1394 0.2709 0.0097
vn -0.0839 0.2929 0.0098
vn 0 -0.3048 0
vn 0.3046 0 -0.0097
vn 0.2804 -0.1192 -0.0098
vn 0.2114 -0.2193 -0.0098
vn 0.1088 -0.2846 -0.0098
vn -0.0112 -0.3044 -0.0098
vn -0.1294 -0.2758 -0.0099
vn -0.227 -0.2032 -0.0099
vn -0.2884 -0.0982 -0.01
vn -0.3038 0.0224 -0.0101
vn -0.3007 0.049 -0.0094
vn -0.2951 -0.0757 -0.0095
vn -0.2399 -0.1878 -0.0096
vn -0.1444 -0.2683 -0.0096
vn -0.0246 -0.3037 -0.0097
vn 0.0993 -0.288 -0.0097
vn 0.2065 -0.2239 -0.0097
vn 0.279 -0.1222 -0.0097
vn 0.2481 -0.1768 -0.0097
vn 0.2509 -0.1727 -0.0098
vn 0.266 -0.1484 -0.0097
vn 0.2933 -0.0822 -0.0097
vn 0.2985 -0.0608 -0.0097
vn 0.2982 -0.0624 -0.0097
vn 0.1634 -0.2571 -0.0098
vn 0.1562 -0.2615 -0.0097
vn 0.1328 -0.2742 -0.0097
vn 0.0651 -0.2976 -0.0097
vn 0.0382 -0.3022 -0.0097
vn 0.0498 -0.3005 -0.0098
vn -0.1818 -0.2444 -0.0099
vn -0.1963 -0.233 -0.0096
vn -0.2121 -0.2186 -0.0098
vn -0.2573 -0.163 -0.0098
vn -0.2733 -0.1346 -0.0095
vn -0.263 -0.1538 -0.0099
vn -0.3029 -0.0324 -0.01
vn -0.3043 -0.0137 -0.0095
vn -0.3027 0.0344 -0.0098
vn -0.2992 -0.0575 -0.0098
vn -0.2827 -0.1136 -0.0098
vn -0.0863 -0.2922 -0.0096
vn -0.0718 -0.2961 -0.0098
vn -0.0484 -0.3008 -0.0098
vn 0.0093 -0.3045 -0.0098
vn 0.2284 -0.2016 -0.0097
vn 0.1839 -0.2429 -0.0097
vn -0.1608 -0.2588 -0.0098
vn -0.1059 -0.2856 -0.0098
vn -0.1224 -0.279 -0.0098
vn -0.1175 -0.2811 -0.0097
vn -0.062 -0.2983 -0.0097
vn -0.0042 -0.3046 -0.0097
vn 0.0537 -0.2999 -0.0097
vn 0.1096 -0.2842 -0.0096
vn 0.1164 -0.2815 -0.0099
vn 0.0697 -0.2966 -0.0098
vn 0.0212 -0.3039 -0.0098
vn -0.0278 -0.3034 -0.0097
vn -0.0761 -0.295 -0.0098
vn -0.0901 -0.291 -0.0097
vn -0.0332 -0.3028 -0.0097
vn 0.0249 -0.3036 -0.0097
vn 0.082 -0.2934 -0.0097
vn 0.2871 0.1018 -0.0102
vn 0.2842 0.1096 -0.0099
vn 0.2842 0.1096 -0.0102
vn 0.2871 0.1018 -0.0104
vn 0.2853 0.1068 -0.01
vn 0.2857 0.1057 -0.0103
vn 0.285 0.1077 -0.0102
vn 0.2862 0.1043 -0.0101
vn 0.2864 0.1037 -0.0104
vn 0.2845 0.1089 -0.0102
vn 0.2848 0.1082 -0.01
vn 0.2842 0.1096 -0.0101
vn 0.2846 0.1087 -0.0101
vn 0.2849 0.1077 -0.0101
vn 0.2853 0.1067 -0.0103
vn 0.2858 0.1056 -0.01
vn 0.2861 0.1047 -0.0103
vn 0.2855 0.1062 -0.0102
vn 0.2859 0.1052 -0.0102
vn 0.2862 0.1042 -0.0102
vn 0.2867 0.103 -0.0101
vn 0.2866 0.1033 -0.0103
vn 0.2868 0.1028 -0.0104
vn 0.2871 0.1018 -0.0103
vn 0.2869 0.1025 -0.0101
vn 0.2868 0.1028 -0.0102
vn 0.2868 0.1027 -0.0103
vn 0.287 0.1022 -0.0102
vn 0.287 0.1022 -0.0103
vn 0.2844 0.1091 -0.0101
vn 0.2842 0.1096 -0.01
vn 0.2845 0.1089 -0.0099
vn 0.2847 0.1083 -0.0102
vn 0.2846 0.1086 -0.0101
vn 0.2848 0.108 -0.0102
vn 0.285 0.1075 -0.0102
vn 0.2852 0.107 -0.0101
vn 0.2851 0.1072 -0.0103
vn 0.2852 0.1069 -0.0102
vn 0.2854 0.1064 -0.0102
vn 0.2856 0.1059 -0.0102
vn 0.2855 0.1062 -0.0103
vn 0.2857 0.1057 -0.0102
vn 0.286 0.1049 -0.0101
vn 0.2858 0.1054 -0.0101
vn 0.286 0.1048 -0.0102
vn 0.2844 0.1092 -0.01
vn 0.2861 0.1047 -0.0102
vn 0.2848 0.1082 -0.0101
vn 0.285 0.1075 -0.01
vn 0.2855 0.1062 -0.01
vn 0.2859 0.1052 -0.0103
vn 0.2862 0.1042 -0.0104
vn 0.2864 0.1038 -0.0103
vn 0.2864 0.1038 -0.0102
vn 0.2864 0.1037 -0.0101
vn 0.2866 0.1033 -0.0102
vn 0.2863 0.1042 -0.0102
vn 0.2866 0.1033 -0.0104
vn 0.2869 0.1023 -0.0104
vn -0.1167 0.2814 0.0099
vn -0.1096 0.2842 0.0096
vn -0.055 0.2996 0.0097
vn 0.0016 0.3046 0.0097
vn 0.0581 0.299 0.0097
vn 0.1127 0.2831 0.0097
vn 0.1175 0.2811 0.0098
vn 0.0718 0.2961 0.0098
vn 0.0244 0.3037 0.0097
vn -0.0236 0.3037 0.0098
vn -0.0711 0.2962 0.0098

usemtl 191881
f 3/3/1 7/7/1 8/8/1
f 4/4/1 7/7/1 3/3/1
f 2/2/1 3/3/1 8/8/1
f 5/5/1 6/6/1 4/4/1
f 7/7/1 4/4/1 6/6/1
f 1/1/1 9/9/1 10/10/1
f 8/8/1 9/9/1 2/2/1
f 2/2/1 9/9/1 1/1/1
f 1/1/1 11/11/1 26/26/1
f 18/18/1 19/19/1 20/20/1
f 1/1/1 10/10/1 11/11/1
f 12/12/1 25/25/1 26/26/1
f 13/13/1 25/25/1 12/12/1
f 14/14/1 24/24/1 13/13/1
f 25/25/1 13/13/1 24/24/1
f 23/23/1 24/24/1 14/14/1
f 21/21/1 17/17/1 20/20/1
f 16/16/1 17/17/1 21/21/1
f 18/18/1 20/20/1 17/17/1
f 22/22/1 23/23/1 15/15/1
f 22/22/1 16/16/1 21/21/1
f 15/15/1 16/16/1 22/22/1
f 15/15/1 23/23/1 14/14/1
f 26/26/1 11/11/1 12/12/1
f 54/54/2 45/45/2 46/46/2
f 27/27/2 45/45/2 54/54/2
f 53/53/2 54/54/2 46/46/2
f 34/34/2 35/35/2 36/36/2
f 45/45/2 27/27/2 44/44/2
f 44/44/2 27/27/2 43/43/2
f 48/48/2 52/52/2 47/47/2
f 53/53/2 47/47/2 52/52/2
f 51/51/2 52/52/2 48/48/2
f 51/51/2 49/49/2 50/50/2
f 48/48/2 49/49/2 51/51/2
f 53/53/2 46/46/2 47/47/2
f 33/33/2 37/37/2 38/38/2
f 36/36/2 37/37/2 34/34/2
f 34/34/2 37/37/2 33/33/2
f 38/38/2 39/39/2 32/32/2
f 32/32/2 39/39/2 31/31/2
f 33/33/2 38/38/2 32/32/2
f 31/31/2 39/39/2 40/40/2
f 28/28/2 42/42/2 43/43/2
f 29/29/2 42/42/2 28/28/2
f 27/27/2 28/28/2 43/43/2
f 30/30/2 40/40/2 41/41/2
f 42/42/2 29/29/2 41/41/2
f 41/41/2 29/29/2 30/30/2
f 30/30/2 31/31/2 40/40/2
f 57/75/22 55/73/20 28/72/19
f 58/76/23 26/57/5 57/75/22
f 61/79/26 24/59/7 63/81/28
f 69/87/34 85/103/49 67/85/32
f 31/69/16 65/83/30 81/99/45
f 24/59/7 64/82/29 63/81/28
f 58/76/23 60/78/25 84/102/48
f 68/86/33 85/103/49 69/87/34
f 28/72/19 58/76/23 57/75/22
f 82/100/46 57/75/22 56/74/21
f 57/75/22 26/57/5 56/74/21
f 57/75/22 82/100/46 55/73/20
f 62/80/27 63/81/28 30/70/17
f 29/71/18 55/73/20 82/100/46
f 64/82/29 66/84/31 81/99/45
f 64/82/29 24/59/7 66/84/31
f 67/85/32 21/62/10 69/87/34
f 65/83/30 30/70/17 64/82/29
f 21/62/10 70/88/35 69/87/34
f 83/101/47 82/100/46 25/58/6
f 30/70/17 63/81/28 64/82/29
f 76/94/40 73/91/38 75/93/12
f 58/76/23 84/102/48 59/77/24
f 23/60/8 80/98/44 81/99/45
f 33/67/14 68/86/33 69/87/34
f 70/88/35 72/90/37 77/95/41
f 58/76/23 28/72/19 60/78/25
f 86/104/50 79/97/43 22/61/9
f 74/92/39 76/94/40 75/93/12
f 83/101/47 25/58/6 61/79/26
f 62/80/27 83/101/47 63/81/28
f 86/104/50 80/98/44 79/97/43
f 81/99/45 80/98/44 31/69/16
f 59/77/24 26/57/5 58/76/23
f 85/103/49 22/61/9 67/85/32
f 33/67/14 69/87/34 70/88/35
f 71/89/36 33/67/14 70/88/35
f 77/95/41 76/94/40 34/66/13
f 75/93/12 35/65/12 74/92/39
f 34/66/13 71/89/36 77/95/41
f 70/88/35 21/62/10 72/90/37
f 34/66/13 76/94/40 74/92/39
f 20/63/11 76/94/40 77/95/41
f 73/91/38 19/64/12 75/93/12
f 76/94/40 20/63/11 73/91/38
f 20/63/11 77/95/41 72/90/37
f 71/89/36 70/88/35 77/95/41
f 80/98/44 78/96/42 31/69/16
f 86/104/50 32/68/15 78/96/42
f 85/103/49 32/68/15 86/104/50
f 80/98/44 23/60/8 79/97/43
f 23/60/8 81/99/45 66/84/31
f 65/83/30 64/82/29 81/99/45
f 83/101/47 62/80/27 29/71/18
f 25/58/6 82/100/46 56/74/21
f 63/81/28 83/101/47 61/79/26
f 82/100/46 83/101/47 29/71/18
f 1/56/4 59/77/24 84/102/48
f 84/102/48 60/78/25 27/55/3
f 32/68/15 85/103/49 68/86/33
f 80/98/44 86/104/50 78/96/42
f 85/103/49 86/104/50 22/61/9
f 18/107/51 35/105/51 19/106/51
f 35/105/51 18/107/51 36/108/51
f 89/129/71 87/127/69 37/126/68
f 90/130/72 17/111/53 89/129/71
f 93/133/75 15/113/55 95/135/77
f 101/141/83 117/157/98 99/139/81
f 40/123/65 97/137/79 113/153/95
f 15/113/55 96/136/78 95/135/77
f 90/130/72 92/132/74 116/156/52
f 100/140/82 117/157/98 101/141/83
f 37/126/68 90/130/72 89/129/71
f 114/154/96 89/129/71 88/128/70
f 89/129/71 17/111/53 88/128/70
f 89/129/71 114/154/96 87/127/69
f 94/134/76 95/135/77 39/124/66
f 38/125/67 87/127/69 114/154/96
f 96/136/78 98/138/80 113/153/95
f 96/136/78 15/113/55 98/138/80
f 99/139/81 12/116/58 101/141/83
f 97/137/79 39/124/66 96/136/78
f 12/116/58 102/142/84 101/141/83
f 115/155/97 114/154/96 16/112/54
f 39/124/66 95/135/77 96/136/78
f 108/148/90 105/145/87 107/147/89
f 90/130/72 116/156/52 91/131/73
f 14/114/56 112/152/94 113/153/95
f 42/121/63 100/140/82 101/141/83
f 102/142/84 104/144/86 109/149/91
f 90/130/72 37/126/68 92/132/74
f 118/158/99 111/151/93 13/115/57
f 106/146/88 108/148/90 107/147/89
f 115/155/97 16/112/54 93/133/75
f 94/134/76 115/155/97 95/135/77
f 118/158/99 112/152/94 111/151/93
f 113/153/95 112/152/94 40/123/65
f 91/131/73 17/111/53 90/130/72
f 117/157/98 13/115/57 99/139/81
f 42/121/63 101/141/83 102/142/84
f 103/143/85 42/121/63 102/142/84
f 109/149/91 108/148/90 43/120/62
f 108/148/90 106/146/88 43/120/62
f 43/120/62 103/143/85 109/149/91
f 102/142/84 12/116/58 104/144/86
f 106/146/88 107/147/89 44/119/61
f 11/117/59 108/148/90 109/149/91
f 105/145/87 10/118/60 107/147/89
f 108/148/90 11/117/59 105/145/87
f 11/117/59 109/149/91 104/144/86
f 103/143/85 102/142/84 109/149/91
f 112/152/94 110/150/92 40/123/65
f 118/158/99 41/122/64 110/150/92
f 117/157/98 41/122/64 118/158/99
f 112/152/94 14/114/56 111/151/93
f 14/114/56 113/153/95 98/138/80
f 97/137/79 96/136/78 113/153/95
f 115/155/97 94/134/76 38/125/67
f 16/112/54 114/154/96 88/128/70
f 95/135/77 115/155/97 93/133/75
f 114/154/96 115/155/97 38/125/67
f 18/110/52 91/131/73 116/156/52
f 116/156/52 92/132/74 36/109/52
f 41/122/64 117/157/98 100/140/82
f 112/152/94 118/158/99 110/150/92
f 117/157/98 118/158/99 13/115/57
f 120/171/112 8/162/103 46/168/109
f 44/159/100 10/160/101 119/170/111
f 119/170/111 45/169/110 44/159/100
f 9/161/102 46/168/109 45/169/110
f 119/170/111 9/161/102 45/169/110
f 46/168/109 9/161/102 120/171/112
f 48/166/107 47/167/108 7/163/104
f 6/164/105 49/165/106 122/173/114
f 121/172/113 7/163/104 47/167/108
f 48/166/107 122/173/114 49/165/106
f 48/166/107 7/163/104 122/173/114
f 46/168/109 8/162/103 47/167/108
f 47/167/108 8/162/103 121/172/113
f 164/219/159 137/192/133 165/220/160
f 157/212/152 158/213/153 155/210/150
f 130/185/126 166/221/161 150/205/145
f 127/182/123 173/228/168 172/227/167
f 133/188/129 159/214/154 158/213/153
f 149/204/144 153/208/148 131/186/127
f 173/228/168 140/195/136 174/229/169
f 132/187/128 168/223/163 154/209/149
f 6/175/116 150/205/145 151/206/146
f 166/221/161 131/186/127 151/206/146
f 149/204/144 130/185/126 5/176/117
f 168/223/163 132/187/128 129/184/125
f 156/211/151 169/224/164 132/187/128
f 154/209/149 125/180/121 155/210/150
f 123/178/119 156/211/151 136/191/132
f 155/210/150 156/211/151 132/187/128
f 172/227/167 138/193/134 167/222/162
f 170/225/165 136/191/132 162/217/157
f 160/215/155 124/179/120 171/226/166
f 160/215/155 137/192/133 162/217/157
f 162/217/157 164/219/159 134/189/130
f 137/192/133 167/222/162 165/220/160
f 176/231/171 174/229/169 140/195/136
f 147/202/142 146/201/115 143/198/139
f 144/199/140 140/195/136 145/200/141
f 146/201/115 49/174/115 143/198/139
f 144/199/140 176/231/171 140/195/136
f 173/228/168 178/233/173 140/195/136
f 148/203/143 145/200/141 179/234/174
f 139/194/135 144/199/140 143/198/139
f 179/234/174 50/177/118 148/203/143
f 147/202/142 144/199/140 145/200/141
f 148/203/143 147/202/142 145/200/141
f 142/197/138 146/201/115 147/202/142
f 148/203/143 142/197/138 147/202/142
f 144/199/140 147/202/142 143/198/139
f 148/203/143 50/177/118 142/197/138
f 145/200/141 141/196/137 179/234/174
f 154/209/149 153/208/148 152/207/147
f 128/183/124 149/204/144 5/176/117
f 131/186/127 166/221/161 149/204/144
f 152/207/147 125/180/121 154/209/149
f 151/206/146 131/186/127 129/184/125
f 128/183/124 153/208/148 149/204/144
f 152/207/147 153/208/148 128/183/124
f 131/186/127 153/208/148 168/223/163
f 155/210/150 132/187/128 154/209/149
f 169/224/164 129/184/125 132/187/128
f 156/211/151 155/210/150 158/213/153
f 170/225/165 162/217/157 134/189/130
f 156/211/151 158/213/153 159/214/154
f 133/188/129 158/213/153 157/212/152
f 155/210/150 125/180/121 157/212/152
f 136/191/132 156/211/151 159/214/154
f 136/191/132 159/214/154 160/215/155
f 159/214/154 161/216/156 160/215/155
f 136/191/132 160/215/155 162/217/157
f 137/192/133 171/226/166 167/222/162
f 124/179/120 160/215/155 161/216/156
f 159/214/154 133/188/129 161/216/156
f 177/232/172 126/181/122 165/220/160
f 137/192/133 164/219/159 162/217/157
f 164/219/159 163/218/158 134/189/130
f 163/218/158 164/219/159 165/220/160
f 163/218/158 165/220/160 126/181/122
f 138/193/134 165/220/160 167/222/162
f 149/204/144 166/221/161 130/185/126
f 150/205/145 166/221/161 151/206/146
f 138/193/134 172/227/167 173/228/168
f 171/226/166 135/190/131 167/222/162
f 154/209/149 168/223/163 153/208/148
f 131/186/127 168/223/163 129/184/125
f 170/225/165 123/178/119 136/191/132
f 169/224/164 156/211/151 123/178/119
f 137/192/133 160/215/155 171/226/166
f 138/193/134 173/228/168 174/229/169
f 172/227/167 167/222/162 135/190/131
f 140/195/136 178/233/173 145/200/141
f 174/229/169 177/232/172 138/193/134
f 174/229/169 175/230/170 177/232/172
f 139/194/135 175/230/170 176/231/171
f 174/229/169 176/231/171 175/230/170
f 139/194/135 176/231/171 144/199/140
f 138/193/134 177/232/172 165/220/160
f 126/181/122 177/232/172 175/230/170
f 141/196/137 145/200/141 178/233/173
f 178/233/173 173/228/168 127/182/123
f 4/237/177 51/245/185 5/236/176
f 50/235/175 5/236/176 51/245/185
f 52/244/184 51/245/185 4/237/177
f 4/237/177 3/238/178 52/244/184
f 54/242/182 53/243/183 2/239/179
f 27/241/181 54/242/182 1/240/180
f 3/238/178 2/239/179 53/243/183
f 1/240/180 54/242/182 2/239/179
f 52/244/184 3/238/178 53/243/183
