## ElementId 196409
## Vertice Count:179
## Triangle Count:285
mtllib 196409.mtl
o 196409

v 1.2088 15.3503 6.0191
v 1.2668 15.3342 6.0248
v 1.327 15.3285 6.0266
v 1.3873 15.3334 6.0244
v 1.4455 15.3487 6.0184
v 1.4484 15.3417 6.021
v 1.3874 15.3258 6.0273
v 1.3242 15.3211 6.0294
v 1.2611 15.3277 6.0273
v 1.2006 15.3453 6.021
v 1.1969 15.3721 6.011
v 1.1824 15.3953 6.0024
v 1.1593 15.4114 5.9965
v 1.1314 15.4178 5.9943
v 1.1031 15.4135 5.996
v 1.0788 15.3991 6.0016
v 1.0625 15.3769 6.0099
v 1.0568 15.3506 6.0198
v 1.0488 15.3506 6.0199
v 1.0549 15.3792 6.0091
v 1.0722 15.4035 5.9999
v 1.0981 15.4197 5.9937
v 1.1288 15.4254 5.9915
v 1.1594 15.4196 5.9934
v 1.1853 15.4033 5.9994
v 1.2027 15.379 6.0084
v 1.2018 15.4329 6.2551
v 1.1982 15.4596 6.2452
v 1.1837 15.4829 6.2366
v 1.1606 15.499 6.2307
v 1.1327 15.5054 6.2284
v 1.1043 15.501 6.2302
v 1.0801 15.4866 6.2357
v 1.0638 15.4645 6.2441
v 1.058 15.4381 6.254
v 1.066 15.4381 6.2539
v 1.0714 15.4621 6.2449
v 1.0867 15.4821 6.2374
v 1.1092 15.4947 6.2326
v 1.1352 15.4977 6.2313
v 1.1604 15.4907 6.2338
v 1.1804 15.4748 6.2396
v 1.192 15.4528 6.2478
v 1.1932 15.4282 6.2569
v 1.245 15.4114 6.263
v 1.299 15.4025 6.266
v 1.3538 15.4018 6.2659
v 1.408 15.4094 6.2628
v 1.4601 15.4251 6.2567
v 1.4575 15.4321 6.254
v 1.4076 15.417 6.2599
v 1.3558 15.4095 6.2631
v 1.3034 15.4096 6.2633
v 1.2517 15.4175 6.2606
v 1.1909 15.4712 6.2409
v 1.194 15.3911 6.0039
v 1.1974 15.4258 6.1244
v 1.203 15.4118 6.1296
v 1.2057 15.3646 6.0137
v 1.2 15.4462 6.2502
v 1.1724 15.4115 5.9964
v 1.1722 15.4909 6.2336
v 1.1667 15.4561 6.1132
v 1.1522 15.4621 6.1111
v 1.1467 15.5022 6.2295
v 1.1441 15.4225 5.9924
v 1.0852 15.4116 5.9968
v 1.0922 15.4938 6.233
v 1.0818 15.4498 6.116
v 1.0705 15.4393 6.12
v 1.0719 15.4756 6.2399
v 1.0635 15.3914 6.0045
v 1.0514 15.3632 6.0151
v 1.0609 15.4513 6.249
v 1.0533 15.3936 6.1349
v 1.0567 15.4152 6.1291
v 1.0622 15.4258 6.1185
v 1.1185 15.5032 6.2293
v 1.1135 15.4225 5.9926
v 1.1232 15.4652 6.1101
v 1.1378 15.4629 6.1042
v 1.1893 15.4379 6.1199
v 1.1789 15.4496 6.1207
v 1.2053 15.3916 6.1371
v 1.0946 15.4576 6.1131
v 1.1084 15.4611 6.1065
v 1.079 15.4721 6.2411
v 1.0706 15.388 6.0057
v 1.07 15.4253 6.1252
v 1.0639 15.4115 6.1304
v 1.0596 15.3637 6.0149
v 1.0687 15.4501 6.2494
v 1.0909 15.4063 5.9988
v 1.0979 15.4884 6.235
v 1.0997 15.4516 6.1153
v 1.1149 15.4564 6.1134
v 1.1222 15.4962 6.2319
v 1.1172 15.4156 5.9952
v 1.1709 15.4034 5.9994
v 1.1704 15.4828 6.2367
v 1.1767 15.4398 6.1192
v 1.1868 15.4282 6.1235
v 1.1862 15.4638 6.2437
v 1.1897 15.3837 6.0067
v 1.1989 15.3573 6.0165
v 1.1926 15.4405 6.2524
v 1.1971 15.3843 6.132
v 1.1961 15.4061 6.1317
v 1.1928 15.4123 6.112
v 1.1478 15.4942 6.2325
v 1.1454 15.4146 5.9954
v 1.1402 15.4571 6.113
v 1.1272 15.4526 6.0973
v 1.0784 15.4364 6.121
v 1.0887 15.4492 6.1298
v 1.0614 15.3943 6.1369
v 1.1653 15.4482 6.1162
v 1.1531 15.4498 6.1021
v 1.2308 15.3365 6.0241
v 1.2926 15.3244 6.0283
v 1.3558 15.3234 6.0283
v 1.4179 15.3337 6.0241
v 1.4526 15.3715 6.1053
v 1.4515 15.3904 6.1362
v 1.4485 15.3695 6.0773
v 1.4564 15.3983 6.181
v 1.4545 15.4113 6.1951
v 1.4466 15.3561 6.0395
v 1.4505 15.3566 6.0631
v 1.4467 15.3459 6.0194
v 1.4485 15.355 6.0479
v 1.45 15.3651 6.0769
v 1.45 15.38 6.1068
v 1.4545 15.3849 6.1431
v 1.453 15.4008 6.1657
v 1.4522 15.3815 6.1229
v 1.4536 15.3923 6.1522
v 1.455 15.4028 6.1816
v 1.4583 15.4117 6.2188
v 1.4565 15.413 6.2107
v 1.456 15.4217 6.2246
v 1.4588 15.4286 6.2553
v 1.4591 15.4176 6.2356
v 1.4578 15.4169 6.2264
v 1.457 15.42 6.2275
v 1.4596 15.4264 6.2561
v 1.4585 15.4227 6.2421
v 1.4578 15.4248 6.242
v 1.4472 15.3523 6.0354
v 1.4475 15.3438 6.0202
v 1.4495 15.3491 6.0421
v 1.4476 15.3628 6.0584
v 1.4478 15.3581 6.0504
v 1.4488 15.3638 6.0672
v 1.4495 15.3693 6.0827
v 1.4512 15.373 6.0999
v 1.4493 15.3748 6.092
v 1.4504 15.3755 6.1001
v 1.4511 15.3812 6.1159
v 1.452 15.3866 6.132
v 1.4508 15.3852 6.1215
v 1.453 15.3866 6.1379
v 1.4554 15.3916 6.1621
v 1.4541 15.3889 6.1489
v 1.4548 15.3953 6.1657
v 1.4479 15.3494 6.0334
v 1.4541 15.3979 6.1667
v 1.4492 15.3601 6.0624
v 1.4516 15.3641 6.0842
v 1.4536 15.3782 6.1242
v 1.4522 15.3956 6.1509
v 1.4537 15.4061 6.1804
v 1.4553 15.409 6.1959
v 1.4562 15.4067 6.1964
v 1.4573 15.405 6.1999
v 1.4572 15.4106 6.2104
v 1.4558 15.4012 6.1833
v 1.4552 15.4165 6.2098
v 1.4567 15.4269 6.2393
vt 0.16 4.1834
vt 0.2181 4.1664
vt 0.2783 4.1604
vt 0.3385 4.1657
vt 0.3968 4.1821
vt 0.3997 4.1747
vt 0.3386 4.1576
vt 0.2754 4.1524
vt 0.2124 4.1593
vt 0.1518 4.1781
vt 0.1482 4.2066
vt 0.1336 4.2314
vt 0.1106 4.2486
vt 0.0827 4.2554
vt 0.0543 4.2507
vt 0.03 4.2352
vt 0.0137 4.2116
vt 0.008 4.1834
vt 0 4.1834
vt 0.0061 4.214
vt 0.0234 4.24
vt 0.0494 4.2573
vt 0.08 4.2634
vt 0.1106 4.2573
vt 0.1366 4.24
vt 0.1539 4.214
vt -0.1518 4.1781
vt -0.1482 4.2066
vt -0.1336 4.2314
vt -0.1106 4.2486
vt -0.0827 4.2554
vt -0.0543 4.2507
vt -0.03 4.2352
vt -0.0137 4.2116
vt -0.008 4.1834
vt -0.016 4.1834
vt -0.0214 4.2091
vt -0.0366 4.2304
vt -0.0591 4.2439
vt -0.0852 4.2472
vt -0.1103 4.2398
vt -0.1304 4.2229
vt -0.142 4.1993
vt -0.1432 4.1731
vt -0.195 4.1552
vt -0.249 4.1458
vt -0.3037 4.1452
vt -0.3579 4.1534
vt -0.4101 4.1702
vt -0.4074 4.1778
vt -0.3576 4.1616
vt -0.3058 4.1534
vt -0.2534 4.1535
vt -0.2016 4.1618
vt -0.1283 0.1361
vt -0.1256 0.3862
vt -0.0955 0.3862
vt -0.0653 0.3863
vt -0.0351 0.3863
vt -0.005 0.3863
vt 0.0252 0.3863
vt 0.0554 0.3863
vt 0.0856 0.3863
vt 0.1157 0.3864
vt 0.1131 0.1362
vt 0.0829 0.1362
vt 0.0527 0.1362
vt 0.0226 0.1362
vt -0.0076 0.1361
vt -0.0378 0.1361
vt -0.0679 0.1361
vt -0.0981 0.1361
vt -0.083 0.1361
vt -0.0804 0.3862
vt -0.0892 0.2612
vt -0.1051 0.2612
vt -0.1106 0.3862
vt -0.1132 0.1361
vt -0.0502 0.3863
vt -0.0529 0.1361
vt -0.044 0.2612
vt -0.0281 0.2612
vt -0.0227 0.1361
vt -0.02 0.3863
vt 0.0403 0.3863
vt 0.0377 0.1362
vt 0.0465 0.2612
vt 0.0624 0.2613
vt 0.0678 0.1362
vt 0.0705 0.3863
vt 0.1025 0.3863
vt 0.098 0.1362
vt 0.1144 0.2635
vt 0.0918 0.2613
vt 0.0772 0.2675
vt 0.0075 0.1362
vt 0.0101 0.3863
vt 0.0013 0.2612
vt -0.0134 0.2674
vt -0.0739 0.2612
vt -0.059 0.2564
vt -0.127 0.2611
vt 0.0312 0.2612
vt 0.0163 0.2661
vt -0.6016 0
vt -0.6096 0.25
vt -0.6016 0.25
vt -0.5936 0
vt -0.2708 0.1363
vt -0.2734 0.3865
vt -0.2457 0.3864
vt -0.218 0.3863
vt -0.1903 0.3863
vt -0.1627 0.3862
vt -0.135 0.3862
vt -0.1073 0.3861
vt -0.0796 0.3861
vt -0.052 0.386
vt -0.0495 0.1359
vt -0.0771 0.1359
vt -0.1048 0.136
vt -0.1325 0.136
vt -0.1602 0.1361
vt -0.1878 0.1361
vt -0.2155 0.1362
vt -0.2432 0.1362
vt -0.2293 0.1362
vt -0.2319 0.3864
vt -0.2375 0.2613
vt -0.2535 0.2613
vt -0.2595 0.3864
vt -0.257 0.1363
vt -0.2042 0.3863
vt -0.2017 0.1362
vt -0.196 0.2612
vt -0.18 0.2612
vt -0.174 0.1361
vt -0.1765 0.3863
vt -0.1212 0.3862
vt -0.1186 0.136
vt -0.113 0.2611
vt -0.097 0.2611
vt -0.091 0.136
vt -0.0935 0.3861
vt -0.0644 0.3861
vt -0.0633 0.1359
vt -0.0508 0.2684
vt -0.0715 0.261
vt -0.0844 0.2774
vt -0.1463 0.1361
vt -0.1488 0.3862
vt -0.1545 0.2612
vt -0.1674 0.2775
vt -0.2229 0.2613
vt -0.2093 0.2486
vt -0.2721 0.2614
vt -0.1275 0.2611
vt -0.1411 0.2738
vt 0.0936 0.1326
vt 0.0927 0.3827
vt 0.1587 0.3827
vt 0.2247 0.3827
vt 0.2908 0.3827
vt 0.3568 0.3826
vt 0.3578 0.1325
vt 0.3049 0.1325
vt 0.2521 0.1326
vt 0.1993 0.1326
vt 0.1464 0.1326
vt 0.1257 0.3827
vt 0.1917 0.3827
vt 0.2578 0.3827
vt 0.3238 0.3827
vt -3.748 0.3996
vt -3.7783 0.151
vt -3.7862 0.1517
vt -3.756 0.4003
vt -3.7674 0.2399
vt -3.7711 0.276
vt -3.7787 0.2139
vt -3.7577 0.3197
vt -3.7636 0.3381
vt -3.7835 0.174
vt -3.7729 0.1955
vt -3.7831 0.1514
vt -3.7784 0.1811
vt -3.7746 0.2115
vt -3.7749 0.2449
vt -3.7626 0.2798
vt -3.7673 0.3071
vt -3.7688 0.2601
vt -3.7654 0.2912
vt -3.7618 0.3223
vt -3.7529 0.3596
vt -3.7579 0.353
vt -3.7598 0.3692
vt -3.752 0.3999
vt -3.7507 0.3773
vt -3.7543 0.3687
vt -3.7568 0.3711
vt -3.7496 0.3997
vt -3.7525 0.3854
vt -3.7546 0.3862
vt -3.7817 0.1686
vt -3.7807 0.1512
vt -3.7756 0.1732
vt -3.7811 0.1939
vt -3.7803 0.1847
vt -3.7779 0.2023
vt -3.7759 0.2186
vt -3.7714 0.2357
vt -3.7768 0.2294
vt -3.7737 0.237
vt -3.7718 0.2537
vt -3.7695 0.2706
vt -3.773 0.2605
vt -3.7667 0.2758
vt -3.7602 0.2998
vt -3.7638 0.2868
vt -3.7621 0.3047
vt -3.7799 0.1655
vt -3.7641 0.3067
vt -3.7766 0.1963
vt -3.7701 0.2177
vt -3.765 0.2599
vt -3.7692 0.2915
vt -3.7654 0.3226
vt -3.7611 0.3379
vt -3.7586 0.3374
vt -3.7553 0.3397
vt -3.7558 0.3516
vt -3.7595 0.3231
vt -3.7617 0.3537
vt -3.7579 0.3847
vt -0.3924 0.1328
vt -0.3911 0.3829
vt -0.328 0.3829
vt -0.2649 0.3829
vt -0.2019 0.383
vt -0.1388 0.383
vt -0.1401 0.1328
vt -0.1905 0.1328
vt -0.241 0.1328
vt -0.2915 0.1328
vt -0.342 0.1328
vn 0 0 -0.3048
vn 0 0 0.3048
vn 0.3038 -0.0224 0.0095
vn 0.3046 0 0.01
vn 0.2814 0.1166 0.0099
vn 0.2154 0.2154 0.0099
vn 0.1166 0.2815 0.0098
vn 0 0.3046 0.0098
vn -0.1166 0.2815 0.0098
vn -0.2154 0.2154 0.0098
vn -0.2815 0.1166 0.0098
vn -0.3046 0 0.0097
vn -0.2804 0.1192 0.0097
vn -0.2114 0.2193 0.0097
vn -0.1088 0.2846 0.0097
vn 0.0112 0.3044 0.0097
vn 0.1294 0.2758 0.0096
vn 0.227 0.2032 0.0096
vn 0.2884 0.0982 0.0095
vn 0.263 0.1538 0.0096
vn 0.2533 0.1692 0.0099
vn 0.2728 0.1355 0.0098
vn 0.295 0.076 0.0098
vn 0.2988 0.0594 0.01
vn 0.3022 0.0387 0.0095
vn 0.1692 0.2533 0.0099
vn 0.1819 0.2444 0.0096
vn 0.1498 0.2653 0.0098
vn 0.0915 0.2906 0.0097
vn 0.0718 0.2961 0.0097
vn 0.0594 0.2988 0.0098
vn -0.1693 0.2533 0.0098
vn -0.1634 0.2571 0.0097
vn -0.1909 0.2374 0.0097
vn -0.236 0.1926 0.0097
vn -0.2509 0.1727 0.0097
vn -0.2533 0.1693 0.0098
vn -0.3001 0.0524 0.0097
vn -0.2985 0.0608 0.0097
vn -0.2912 0.0894 0.0097
vn -0.2687 0.1436 0.0097
vn -0.0498 0.3006 0.0097
vn -0.0594 0.2988 0.0098
vn -0.0248 0.3036 0.0097
vn 0.0337 0.3028 0.0098
vn 0.2401 0.1875 0.0098
vn 0.199 0.2307 0.0097
vn 0.3045 -0.0108 0.0098
vn -0.1394 0.2709 0.0097
vn -0.0839 0.2929 0.0098
vn 0 -0.3048 0
vn 0.3046 0 -0.0097
vn 0.2804 -0.1192 -0.0098
vn 0.2114 -0.2193 -0.0098
vn 0.1088 -0.2846 -0.0098
vn -0.0112 -0.3044 -0.0098
vn -0.1294 -0.2758 -0.0099
vn -0.227 -0.2032 -0.0099
vn -0.2884 -0.0982 -0.01
vn -0.3038 0.0224 -0.0101
vn -0.3007 0.049 -0.0094
vn -0.2951 -0.0757 -0.0095
vn -0.2399 -0.1878 -0.0096
vn -0.1444 -0.2683 -0.0096
vn -0.0246 -0.3037 -0.0097
vn 0.0993 -0.288 -0.0097
vn 0.2065 -0.2239 -0.0097
vn 0.279 -0.1222 -0.0097
vn 0.2481 -0.1768 -0.0097
vn 0.2509 -0.1727 -0.0098
vn 0.266 -0.1484 -0.0097
vn 0.2933 -0.0822 -0.0097
vn 0.2985 -0.0608 -0.0097
vn 0.2982 -0.0624 -0.0097
vn 0.1634 -0.2571 -0.0098
vn 0.1562 -0.2615 -0.0097
vn 0.1328 -0.2742 -0.0097
vn 0.0651 -0.2976 -0.0097
vn 0.0382 -0.3022 -0.0097
vn 0.0498 -0.3005 -0.0098
vn -0.1818 -0.2444 -0.0099
vn -0.1963 -0.233 -0.0096
vn -0.2121 -0.2186 -0.0098
vn -0.2573 -0.163 -0.0098
vn -0.2733 -0.1346 -0.0095
vn -0.263 -0.1538 -0.0099
vn -0.3029 -0.0324 -0.01
vn -0.3043 -0.0137 -0.0095
vn -0.3027 0.0344 -0.0098
vn -0.2992 -0.0575 -0.0098
vn -0.2827 -0.1136 -0.0098
vn -0.0863 -0.2922 -0.0096
vn -0.0718 -0.2961 -0.0098
vn -0.0484 -0.3008 -0.0098
vn 0.0093 -0.3045 -0.0098
vn 0.2284 -0.2016 -0.0097
vn 0.1839 -0.2429 -0.0097
vn -0.1608 -0.2588 -0.0098
vn -0.1059 -0.2856 -0.0098
vn -0.1224 -0.279 -0.0098
vn -0.1175 -0.2811 -0.0097
vn -0.062 -0.2983 -0.0097
vn -0.0042 -0.3046 -0.0097
vn 0.0537 -0.2999 -0.0097
vn 0.1096 -0.2842 -0.0096
vn 0.1164 -0.2815 -0.0099
vn 0.0697 -0.2966 -0.0098
vn 0.0212 -0.3039 -0.0098
vn -0.0278 -0.3034 -0.0097
vn -0.0761 -0.295 -0.0098
vn -0.0901 -0.291 -0.0097
vn -0.0332 -0.3028 -0.0097
vn 0.0249 -0.3036 -0.0097
vn 0.082 -0.2934 -0.0097
vn 0.2871 0.1018 -0.0102
vn 0.2842 0.1096 -0.0099
vn 0.2842 0.1096 -0.0102
vn 0.2871 0.1018 -0.0104
vn 0.2853 0.1068 -0.01
vn 0.2857 0.1057 -0.0103
vn 0.285 0.1077 -0.0102
vn 0.2862 0.1043 -0.0101
vn 0.2864 0.1037 -0.0104
vn 0.2845 0.1089 -0.0102
vn 0.2848 0.1082 -0.01
vn 0.2842 0.1096 -0.0101
vn 0.2846 0.1087 -0.0101
vn 0.2849 0.1077 -0.0101
vn 0.2853 0.1067 -0.0103
vn 0.2858 0.1056 -0.01
vn 0.2861 0.1047 -0.0103
vn 0.2855 0.1062 -0.0102
vn 0.2859 0.1052 -0.0102
vn 0.2862 0.1042 -0.0102
vn 0.2867 0.103 -0.0101
vn 0.2866 0.1033 -0.0103
vn 0.2868 0.1028 -0.0104
vn 0.2871 0.1018 -0.0103
vn 0.2869 0.1025 -0.0101
vn 0.2868 0.1028 -0.0102
vn 0.2868 0.1027 -0.0103
vn 0.287 0.1022 -0.0102
vn 0.287 0.1022 -0.0103
vn 0.2844 0.1091 -0.0101
vn 0.2842 0.1096 -0.01
vn 0.2845 0.1089 -0.0099
vn 0.2847 0.1083 -0.0102
vn 0.2846 0.1086 -0.0101
vn 0.2848 0.108 -0.0102
vn 0.285 0.1075 -0.0102
vn 0.2852 0.107 -0.0101
vn 0.2851 0.1072 -0.0103
vn 0.2852 0.1069 -0.0102
vn 0.2854 0.1064 -0.0102
vn 0.2856 0.1059 -0.0102
vn 0.2855 0.1062 -0.0103
vn 0.2857 0.1057 -0.0102
vn 0.286 0.1049 -0.0101
vn 0.2858 0.1054 -0.0101
vn 0.286 0.1048 -0.0102
vn 0.2844 0.1092 -0.01
vn 0.2861 0.1047 -0.0102
vn 0.2848 0.1082 -0.0101
vn 0.285 0.1075 -0.01
vn 0.2855 0.1062 -0.01
vn 0.2859 0.1052 -0.0103
vn 0.2862 0.1042 -0.0104
vn 0.2864 0.1038 -0.0103
vn 0.2864 0.1038 -0.0102
vn 0.2864 0.1037 -0.0101
vn 0.2866 0.1033 -0.0102
vn 0.2863 0.1042 -0.0102
vn 0.2866 0.1033 -0.0104
vn 0.2869 0.1023 -0.0104
vn -0.1167 0.2814 0.0099
vn -0.1096 0.2842 0.0096
vn -0.055 0.2996 0.0097
vn 0.0016 0.3046 0.0097
vn 0.0581 0.299 0.0097
vn 0.1127 0.2831 0.0097
vn 0.1175 0.2811 0.0098
vn 0.0718 0.2961 0.0098
vn 0.0244 0.3037 0.0097
vn -0.0236 0.3037 0.0098
vn -0.0711 0.2962 0.0098

usemtl 191881
f 3/3/1 7/7/1 8/8/1
f 4/4/1 7/7/1 3/3/1
f 2/2/1 3/3/1 8/8/1
f 5/5/1 6/6/1 4/4/1
f 7/7/1 4/4/1 6/6/1
f 1/1/1 9/9/1 10/10/1
f 8/8/1 9/9/1 2/2/1
f 2/2/1 9/9/1 1/1/1
f 1/1/1 11/11/1 26/26/1
f 18/18/1 19/19/1 20/20/1
f 1/1/1 10/10/1 11/11/1
f 12/12/1 25/25/1 26/26/1
f 13/13/1 25/25/1 12/12/1
f 14/14/1 24/24/1 13/13/1
f 25/25/1 13/13/1 24/24/1
f 23/23/1 24/24/1 14/14/1
f 21/21/1 17/17/1 20/20/1
f 16/16/1 17/17/1 21/21/1
f 18/18/1 20/20/1 17/17/1
f 22/22/1 23/23/1 15/15/1
f 22/22/1 16/16/1 21/21/1
f 15/15/1 16/16/1 22/22/1
f 15/15/1 23/23/1 14/14/1
f 26/26/1 11/11/1 12/12/1
f 54/54/2 45/45/2 46/46/2
f 27/27/2 45/45/2 54/54/2
f 53/53/2 54/54/2 46/46/2
f 34/34/2 35/35/2 36/36/2
f 45/45/2 27/27/2 44/44/2
f 44/44/2 27/27/2 43/43/2
f 48/48/2 52/52/2 47/47/2
f 53/53/2 47/47/2 52/52/2
f 51/51/2 52/52/2 48/48/2
f 51/51/2 49/49/2 50/50/2
f 48/48/2 49/49/2 51/51/2
f 53/53/2 46/46/2 47/47/2
f 33/33/2 37/37/2 38/38/2
f 36/36/2 37/37/2 34/34/2
f 34/34/2 37/37/2 33/33/2
f 38/38/2 39/39/2 32/32/2
f 32/32/2 39/39/2 31/31/2
f 33/33/2 38/38/2 32/32/2
f 31/31/2 39/39/2 40/40/2
f 28/28/2 42/42/2 43/43/2
f 29/29/2 42/42/2 28/28/2
f 27/27/2 28/28/2 43/43/2
f 30/30/2 40/40/2 41/41/2
f 42/42/2 29/29/2 41/41/2
f 41/41/2 29/29/2 30/30/2
f 30/30/2 31/31/2 40/40/2
f 57/75/22 55/73/20 28/72/19
f 58/76/23 26/57/5 57/75/22
f 61/79/26 24/59/7 63/81/28
f 69/87/34 85/103/49 67/85/32
f 31/69/16 65/83/30 81/99/45
f 24/59/7 64/82/29 63/81/28
f 58/76/23 60/78/25 84/102/48
f 68/86/33 85/103/49 69/87/34
f 28/72/19 58/76/23 57/75/22
f 82/100/46 57/75/22 56/74/21
f 57/75/22 26/57/5 56/74/21
f 57/75/22 82/100/46 55/73/20
f 62/80/27 63/81/28 30/70/17
f 29/71/18 55/73/20 82/100/46
f 64/82/29 66/84/31 81/99/45
f 64/82/29 24/59/7 66/84/31
f 67/85/32 21/62/10 69/87/34
f 65/83/30 30/70/17 64/82/29
f 21/62/10 70/88/35 69/87/34
f 83/101/47 82/100/46 25/58/6
f 30/70/17 63/81/28 64/82/29
f 76/94/40 73/91/38 75/93/12
f 58/76/23 84/102/48 59/77/24
f 23/60/8 80/98/44 81/99/45
f 33/67/14 68/86/33 69/87/34
f 70/88/35 72/90/37 77/95/41
f 58/76/23 28/72/19 60/78/25
f 86/104/50 79/97/43 22/61/9
f 74/92/39 76/94/40 75/93/12
f 83/101/47 25/58/6 61/79/26
f 62/80/27 83/101/47 63/81/28
f 86/104/50 80/98/44 79/97/43
f 81/99/45 80/98/44 31/69/16
f 59/77/24 26/57/5 58/76/23
f 85/103/49 22/61/9 67/85/32
f 33/67/14 69/87/34 70/88/35
f 71/89/36 33/67/14 70/88/35
f 77/95/41 76/94/40 34/66/13
f 75/93/12 35/65/12 74/92/39
f 34/66/13 71/89/36 77/95/41
f 70/88/35 21/62/10 72/90/37
f 34/66/13 76/94/40 74/92/39
f 20/63/11 76/94/40 77/95/41
f 73/91/38 19/64/12 75/93/12
f 76/94/40 20/63/11 73/91/38
f 20/63/11 77/95/41 72/90/37
f 71/89/36 70/88/35 77/95/41
f 80/98/44 78/96/42 31/69/16
f 86/104/50 32/68/15 78/96/42
f 85/103/49 32/68/15 86/104/50
f 80/98/44 23/60/8 79/97/43
f 23/60/8 81/99/45 66/84/31
f 65/83/30 64/82/29 81/99/45
f 83/101/47 62/80/27 29/71/18
f 25/58/6 82/100/46 56/74/21
f 63/81/28 83/101/47 61/79/26
f 82/100/46 83/101/47 29/71/18
f 1/56/4 59/77/24 84/102/48
f 84/102/48 60/78/25 27/55/3
f 32/68/15 85/103/49 68/86/33
f 80/98/44 86/104/50 78/96/42
f 85/103/49 86/104/50 22/61/9
f 18/107/51 35/105/51 19/106/51
f 35/105/51 18/107/51 36/108/51
f 89/129/71 87/127/69 37/126/68
f 90/130/72 17/111/53 89/129/71
f 93/133/75 15/113/55 95/135/77
f 101/141/83 117/157/98 99/139/81
f 40/123/65 97/137/79 113/153/95
f 15/113/55 96/136/78 95/135/77
f 90/130/72 92/132/74 116/156/52
f 100/140/82 117/157/98 101/141/83
f 37/126/68 90/130/72 89/129/71
f 114/154/96 89/129/71 88/128/70
f 89/129/71 17/111/53 88/128/70
f 89/129/71 114/154/96 87/127/69
f 94/134/76 95/135/77 39/124/66
f 38/125/67 87/127/69 114/154/96
f 96/136/78 98/138/80 113/153/95
f 96/136/78 15/113/55 98/138/80
f 99/139/81 12/116/58 101/141/83
f 97/137/79 39/124/66 96/136/78
f 12/116/58 102/142/84 101/141/83
f 115/155/97 114/154/96 16/112/54
f 39/124/66 95/135/77 96/136/78
f 108/148/90 105/145/87 107/147/89
f 90/130/72 116/156/52 91/131/73
f 14/114/56 112/152/94 113/153/95
f 42/121/63 100/140/82 101/141/83
f 102/142/84 104/144/86 109/149/91
f 90/130/72 37/126/68 92/132/74
f 118/158/99 111/151/93 13/115/57
f 106/146/88 108/148/90 107/147/89
f 115/155/97 16/112/54 93/133/75
f 94/134/76 115/155/97 95/135/77
f 118/158/99 112/152/94 111/151/93
f 113/153/95 112/152/94 40/123/65
f 91/131/73 17/111/53 90/130/72
f 117/157/98 13/115/57 99/139/81
f 42/121/63 101/141/83 102/142/84
f 103/143/85 42/121/63 102/142/84
f 109/149/91 108/148/90 43/120/62
f 108/148/90 106/146/88 43/120/62
f 43/120/62 103/143/85 109/149/91
f 102/142/84 12/116/58 104/144/86
f 106/146/88 107/147/89 44/119/61
f 11/117/59 108/148/90 109/149/91
f 105/145/87 10/118/60 107/147/89
f 108/148/90 11/117/59 105/145/87
f 11/117/59 109/149/91 104/144/86
f 103/143/85 102/142/84 109/149/91
f 112/152/94 110/150/92 40/123/65
f 118/158/99 41/122/64 110/150/92
f 117/157/98 41/122/64 118/158/99
f 112/152/94 14/114/56 111/151/93
f 14/114/56 113/153/95 98/138/80
f 97/137/79 96/136/78 113/153/95
f 115/155/97 94/134/76 38/125/67
f 16/112/54 114/154/96 88/128/70
f 95/135/77 115/155/97 93/133/75
f 114/154/96 115/155/97 38/125/67
f 18/110/52 91/131/73 116/156/52
f 116/156/52 92/132/74 36/109/52
f 41/122/64 117/157/98 100/140/82
f 112/152/94 118/158/99 110/150/92
f 117/157/98 118/158/99 13/115/57
f 120/171/112 8/162/103 46/168/109
f 44/159/100 10/160/101 119/170/111
f 119/170/111 45/169/110 44/159/100
f 9/161/102 46/168/109 45/169/110
f 119/170/111 9/161/102 45/169/110
f 46/168/109 9/161/102 120/171/112
f 48/166/107 47/167/108 7/163/104
f 6/164/105 49/165/106 122/173/114
f 121/172/113 7/163/104 47/167/108
f 48/166/107 122/173/114 49/165/106
f 48/166/107 7/163/104 122/173/114
f 46/168/109 8/162/103 47/167/108
f 47/167/108 8/162/103 121/172/113
f 164/219/159 137/192/133 165/220/160
f 157/212/152 158/213/153 155/210/150
f 130/185/126 166/221/161 150/205/145
f 127/182/123 173/228/168 172/227/167
f 133/188/129 159/214/154 158/213/153
f 149/204/144 153/208/148 131/186/127
f 173/228/168 140/195/136 174/229/169
f 132/187/128 168/223/163 154/209/149
f 6/175/116 150/205/145 151/206/146
f 166/221/161 131/186/127 151/206/146
f 149/204/144 130/185/126 5/176/117
f 168/223/163 132/187/128 129/184/125
f 156/211/151 169/224/164 132/187/128
f 154/209/149 125/180/121 155/210/150
f 123/178/119 156/211/151 136/191/132
f 155/210/150 156/211/151 132/187/128
f 172/227/167 138/193/134 167/222/162
f 170/225/165 136/191/132 162/217/157
f 160/215/155 124/179/120 171/226/166
f 160/215/155 137/192/133 162/217/157
f 162/217/157 164/219/159 134/189/130
f 137/192/133 167/222/162 165/220/160
f 176/231/171 174/229/169 140/195/136
f 147/202/142 146/201/115 143/198/139
f 144/199/140 140/195/136 145/200/141
f 146/201/115 49/174/115 143/198/139
f 144/199/140 176/231/171 140/195/136
f 173/228/168 178/233/173 140/195/136
f 148/203/143 145/200/141 179/234/174
f 139/194/135 144/199/140 143/198/139
f 179/234/174 50/177/118 148/203/143
f 147/202/142 144/199/140 145/200/141
f 148/203/143 147/202/142 145/200/141
f 142/197/138 146/201/115 147/202/142
f 148/203/143 142/197/138 147/202/142
f 144/199/140 147/202/142 143/198/139
f 148/203/143 50/177/118 142/197/138
f 145/200/141 141/196/137 179/234/174
f 154/209/149 153/208/148 152/207/147
f 128/183/124 149/204/144 5/176/117
f 131/186/127 166/221/161 149/204/144
f 152/207/147 125/180/121 154/209/149
f 151/206/146 131/186/127 129/184/125
f 128/183/124 153/208/148 149/204/144
f 152/207/147 153/208/148 128/183/124
f 131/186/127 153/208/148 168/223/163
f 155/210/150 132/187/128 154/209/149
f 169/224/164 129/184/125 132/187/128
f 156/211/151 155/210/150 158/213/153
f 170/225/165 162/217/157 134/189/130
f 156/211/151 158/213/153 159/214/154
f 133/188/129 158/213/153 157/212/152
f 155/210/150 125/180/121 157/212/152
f 136/191/132 156/211/151 159/214/154
f 136/191/132 159/214/154 160/215/155
f 159/214/154 161/216/156 160/215/155
f 136/191/132 160/215/155 162/217/157
f 137/192/133 171/226/166 167/222/162
f 124/179/120 160/215/155 161/216/156
f 159/214/154 133/188/129 161/216/156
f 177/232/172 126/181/122 165/220/160
f 137/192/133 164/219/159 162/217/157
f 164/219/159 163/218/158 134/189/130
f 163/218/158 164/219/159 165/220/160
f 163/218/158 165/220/160 126/181/122
f 138/193/134 165/220/160 167/222/162
f 149/204/144 166/221/161 130/185/126
f 150/205/145 166/221/161 151/206/146
f 138/193/134 172/227/167 173/228/168
f 171/226/166 135/190/131 167/222/162
f 154/209/149 168/223/163 153/208/148
f 131/186/127 168/223/163 129/184/125
f 170/225/165 123/178/119 136/191/132
f 169/224/164 156/211/151 123/178/119
f 137/192/133 160/215/155 171/226/166
f 138/193/134 173/228/168 174/229/169
f 172/227/167 167/222/162 135/190/131
f 140/195/136 178/233/173 145/200/141
f 174/229/169 177/232/172 138/193/134
f 174/229/169 175/230/170 177/232/172
f 139/194/135 175/230/170 176/231/171
f 174/229/169 176/231/171 175/230/170
f 139/194/135 176/231/171 144/199/140
f 138/193/134 177/232/172 165/220/160
f 126/181/122 177/232/172 175/230/170
f 141/196/137 145/200/141 178/233/173
f 178/233/173 173/228/168 127/182/123
f 4/237/177 51/245/185 5/236/176
f 50/235/175 5/236/176 51/245/185
f 52/244/184 51/245/185 4/237/177
f 4/237/177 3/238/178 52/244/184
f 54/242/182 53/243/183 2/239/179
f 27/241/181 54/242/182 1/240/180
f 3/238/178 2/239/179 53/243/183
f 1/240/180 54/242/182 2/239/179
f 52/244/184 3/238/178 53/243/183
