## ElementId 196444
## Vertice Count:179
## Triangle Count:285
mtllib 196444.mtl
o 196444

v 2.0002 16.2748 8.4919
v 2.0583 16.2588 8.4976
v 2.1185 16.2531 8.4994
v 2.1788 16.258 8.4972
v 2.237 16.2732 8.4912
v 2.2399 16.2662 8.4938
v 2.1788 16.2503 8.5001
v 2.1156 16.2456 8.5022
v 2.0526 16.2522 8.5001
v 1.9921 16.2699 8.4938
v 1.9884 16.2966 8.4838
v 1.9739 16.3199 8.4752
v 1.9508 16.336 8.4693
v 1.9229 16.3424 8.4671
v 1.8945 16.338 8.4689
v 1.8703 16.3236 8.4744
v 1.854 16.3015 8.4827
v 1.8482 16.2751 8.4926
v 1.8402 16.2751 8.4927
v 1.8463 16.3038 8.4819
v 1.8637 16.3281 8.4728
v 1.8896 16.3443 8.4666
v 1.9202 16.3499 8.4643
v 1.9509 16.3442 8.4663
v 1.9768 16.3279 8.4722
v 1.9942 16.3035 8.4812
v 1.9933 16.3574 8.728
v 1.9897 16.3842 8.718
v 1.9752 16.4074 8.7094
v 1.9521 16.4235 8.7035
v 1.9242 16.4299 8.7012
v 1.8958 16.4256 8.703
v 1.8716 16.4112 8.7085
v 1.8553 16.389 8.7169
v 1.8495 16.3627 8.7268
v 1.8575 16.3626 8.7268
v 1.8629 16.3867 8.7177
v 1.8781 16.4067 8.7102
v 1.9007 16.4192 8.7054
v 1.9267 16.4223 8.7041
v 1.9519 16.4153 8.7066
v 1.9719 16.3994 8.7124
v 1.9835 16.3773 8.7206
v 1.9847 16.3528 8.7298
v 2.0365 16.3359 8.7358
v 2.0905 16.327 8.7388
v 2.1453 16.3264 8.7387
v 2.1995 16.334 8.7356
v 2.2516 16.3496 8.7295
v 2.2489 16.3567 8.7268
v 2.1991 16.3416 8.7328
v 2.1473 16.334 8.7359
v 2.0949 16.3342 8.7361
v 2.0431 16.342 8.7334
v 1.9824 16.3958 8.7137
v 1.9855 16.3157 8.4767
v 1.9889 16.3503 8.5972
v 1.9944 16.3364 8.6024
v 1.9972 16.2892 8.4866
v 1.9915 16.3708 8.723
v 1.9638 16.336 8.4692
v 1.9636 16.4155 8.7064
v 1.9582 16.3807 8.586
v 1.9437 16.3866 8.5839
v 1.9381 16.4267 8.7024
v 1.9356 16.347 8.4653
v 1.8767 16.3362 8.4697
v 1.8837 16.4184 8.7058
v 1.8733 16.3743 8.5889
v 1.862 16.3639 8.5928
v 1.8634 16.4001 8.7127
v 1.855 16.3159 8.4773
v 1.8429 16.2877 8.4879
v 1.8524 16.3758 8.7219
v 1.8448 16.3181 8.6077
v 1.8482 16.3398 8.6019
v 1.8537 16.3503 8.5913
v 1.91 16.4277 8.7021
v 1.9049 16.3471 8.4654
v 1.9147 16.3897 8.5829
v 1.9293 16.3875 8.577
v 1.9807 16.3625 8.5927
v 1.9704 16.3741 8.5935
v 1.9968 16.3161 8.6099
v 1.8861 16.3821 8.5859
v 1.8999 16.3857 8.5793
v 1.8705 16.3967 8.714
v 1.8621 16.3126 8.4786
v 1.8615 16.3499 8.5981
v 1.8554 16.3361 8.6033
v 1.8511 16.2883 8.4877
v 1.8602 16.3747 8.7223
v 1.8824 16.3308 8.4716
v 1.8894 16.413 8.7078
v 1.8912 16.3761 8.5881
v 1.9063 16.381 8.5862
v 1.9137 16.4208 8.7047
v 1.9087 16.3402 8.468
v 1.9624 16.3279 8.4723
v 1.9619 16.4073 8.7095
v 1.9682 16.3644 8.5921
v 1.9783 16.3527 8.5963
v 1.9777 16.3884 8.7165
v 1.9811 16.3082 8.4795
v 1.9904 16.2819 8.4893
v 1.9841 16.365 8.7252
v 1.9886 16.3089 8.6048
v 1.9876 16.3307 8.6045
v 1.9843 16.3369 8.5848
v 1.9393 16.4188 8.7053
v 1.9369 16.3392 8.4682
v 1.9317 16.3816 8.5858
v 1.9187 16.3772 8.5701
v 1.8699 16.361 8.5939
v 1.8801 16.3737 8.6026
v 1.8529 16.3189 8.6097
v 1.9567 16.3728 8.589
v 1.9446 16.3743 8.5749
v 2.0223 16.261 8.4969
v 2.0841 16.2489 8.5011
v 2.1472 16.248 8.5011
v 2.2094 16.2583 8.4969
v 2.2441 16.2961 8.5781
v 2.243 16.315 8.609
v 2.24 16.2941 8.5501
v 2.2479 16.3228 8.6538
v 2.246 16.3358 8.6679
v 2.2381 16.2807 8.5123
v 2.242 16.2811 8.536
v 2.2382 16.2705 8.4922
v 2.24 16.2795 8.5207
v 2.2414 16.2897 8.5497
v 2.2415 16.3045 8.5796
v 2.246 16.3094 8.6159
v 2.2445 16.3254 8.6385
v 2.2437 16.3061 8.5957
v 2.2451 16.3168 8.625
v 2.2465 16.3273 8.6544
v 2.2497 16.3362 8.6916
v 2.248 16.3376 8.6835
v 2.2475 16.3462 8.6974
v 2.2503 16.3531 8.7282
v 2.2506 16.3421 8.7084
v 2.2493 16.3414 8.6992
v 2.2485 16.3445 8.7003
v 2.2511 16.351 8.729
v 2.25 16.3472 8.7149
v 2.2493 16.3494 8.7148
v 2.2387 16.2769 8.5082
v 2.239 16.2684 8.493
v 2.241 16.2737 8.5149
v 2.2391 16.2874 8.5312
v 2.2393 16.2827 8.5232
v 2.2402 16.2883 8.54
v 2.241 16.2938 8.5555
v 2.2427 16.2975 8.5727
v 2.2408 16.2993 8.5648
v 2.2419 16.3 8.5729
v 2.2426 16.3058 8.5887
v 2.2435 16.3112 8.6048
v 2.2422 16.3097 8.5943
v 2.2445 16.3112 8.6107
v 2.2469 16.3161 8.6349
v 2.2456 16.3135 8.6217
v 2.2463 16.3199 8.6385
v 2.2394 16.274 8.5062
v 2.2456 16.3225 8.6395
v 2.2407 16.2847 8.5352
v 2.243 16.2886 8.557
v 2.245 16.3027 8.597
v 2.2437 16.3202 8.6238
v 2.2452 16.3306 8.6532
v 2.2468 16.3336 8.6687
v 2.2477 16.3313 8.6693
v 2.2488 16.3295 8.6727
v 2.2487 16.3352 8.6832
v 2.2473 16.3258 8.6561
v 2.2467 16.341 8.6827
v 2.2482 16.3515 8.7121
vt 0.16 4.1834
vt 0.2181 4.1664
vt 0.2783 4.1604
vt 0.3385 4.1657
vt 0.3968 4.1821
vt 0.3997 4.1747
vt 0.3386 4.1576
vt 0.2754 4.1524
vt 0.2124 4.1593
vt 0.1518 4.1781
vt 0.1482 4.2066
vt 0.1336 4.2314
vt 0.1106 4.2486
vt 0.0827 4.2554
vt 0.0543 4.2507
vt 0.03 4.2352
vt 0.0137 4.2116
vt 0.008 4.1834
vt 0 4.1834
vt 0.0061 4.214
vt 0.0234 4.24
vt 0.0494 4.2573
vt 0.08 4.2634
vt 0.1106 4.2573
vt 0.1366 4.24
vt 0.1539 4.214
vt -0.1518 4.1781
vt -0.1482 4.2066
vt -0.1336 4.2314
vt -0.1106 4.2486
vt -0.0827 4.2554
vt -0.0543 4.2507
vt -0.03 4.2352
vt -0.0137 4.2116
vt -0.008 4.1834
vt -0.016 4.1834
vt -0.0214 4.2091
vt -0.0366 4.2304
vt -0.0591 4.2439
vt -0.0852 4.2472
vt -0.1103 4.2398
vt -0.1304 4.2229
vt -0.142 4.1993
vt -0.1432 4.1731
vt -0.195 4.1552
vt -0.249 4.1458
vt -0.3037 4.1452
vt -0.3579 4.1534
vt -0.4101 4.1702
vt -0.4074 4.1778
vt -0.3576 4.1616
vt -0.3058 4.1534
vt -0.2534 4.1535
vt -0.2016 4.1618
vt -0.1283 0.1361
vt -0.1256 0.3862
vt -0.0955 0.3862
vt -0.0653 0.3863
vt -0.0351 0.3863
vt -0.005 0.3863
vt 0.0252 0.3863
vt 0.0554 0.3863
vt 0.0856 0.3863
vt 0.1157 0.3864
vt 0.1131 0.1362
vt 0.0829 0.1362
vt 0.0527 0.1362
vt 0.0226 0.1362
vt -0.0076 0.1361
vt -0.0378 0.1361
vt -0.0679 0.1361
vt -0.0981 0.1361
vt -0.083 0.1361
vt -0.0804 0.3862
vt -0.0892 0.2612
vt -0.1051 0.2612
vt -0.1106 0.3862
vt -0.1132 0.1361
vt -0.0502 0.3863
vt -0.0529 0.1361
vt -0.044 0.2612
vt -0.0281 0.2612
vt -0.0227 0.1361
vt -0.02 0.3863
vt 0.0403 0.3863
vt 0.0377 0.1362
vt 0.0465 0.2612
vt 0.0624 0.2613
vt 0.0678 0.1362
vt 0.0705 0.3863
vt 0.1025 0.3863
vt 0.098 0.1362
vt 0.1144 0.2635
vt 0.0918 0.2613
vt 0.0772 0.2675
vt 0.0075 0.1362
vt 0.0101 0.3863
vt 0.0013 0.2612
vt -0.0134 0.2674
vt -0.0739 0.2612
vt -0.059 0.2564
vt -0.127 0.2611
vt 0.0312 0.2612
vt 0.0163 0.2661
vt -0.6016 0
vt -0.6096 0.25
vt -0.6016 0.25
vt -0.5936 0
vt -0.2708 0.1363
vt -0.2734 0.3865
vt -0.2457 0.3864
vt -0.218 0.3863
vt -0.1903 0.3863
vt -0.1627 0.3862
vt -0.135 0.3862
vt -0.1073 0.3861
vt -0.0796 0.3861
vt -0.052 0.386
vt -0.0495 0.1359
vt -0.0771 0.1359
vt -0.1048 0.136
vt -0.1325 0.136
vt -0.1602 0.1361
vt -0.1878 0.1361
vt -0.2155 0.1362
vt -0.2432 0.1362
vt -0.2293 0.1362
vt -0.2319 0.3864
vt -0.2375 0.2613
vt -0.2535 0.2613
vt -0.2595 0.3864
vt -0.257 0.1363
vt -0.2042 0.3863
vt -0.2017 0.1362
vt -0.196 0.2612
vt -0.18 0.2612
vt -0.174 0.1361
vt -0.1765 0.3863
vt -0.1212 0.3862
vt -0.1186 0.136
vt -0.113 0.2611
vt -0.097 0.2611
vt -0.091 0.136
vt -0.0935 0.3861
vt -0.0644 0.3861
vt -0.0633 0.1359
vt -0.0508 0.2684
vt -0.0715 0.261
vt -0.0844 0.2774
vt -0.1463 0.1361
vt -0.1488 0.3862
vt -0.1545 0.2612
vt -0.1674 0.2775
vt -0.2229 0.2613
vt -0.2093 0.2486
vt -0.2721 0.2614
vt -0.1275 0.2611
vt -0.1411 0.2738
vt 0.0936 0.1326
vt 0.0927 0.3827
vt 0.1587 0.3827
vt 0.2247 0.3827
vt 0.2908 0.3827
vt 0.3568 0.3826
vt 0.3578 0.1325
vt 0.3049 0.1325
vt 0.2521 0.1326
vt 0.1993 0.1326
vt 0.1464 0.1326
vt 0.1257 0.3827
vt 0.1917 0.3827
vt 0.2578 0.3827
vt 0.3238 0.3827
vt -3.748 0.3996
vt -3.7783 0.151
vt -3.7862 0.1517
vt -3.756 0.4003
vt -3.7674 0.2399
vt -3.7711 0.276
vt -3.7787 0.2139
vt -3.7577 0.3197
vt -3.7636 0.3381
vt -3.7835 0.174
vt -3.7729 0.1955
vt -3.7831 0.1514
vt -3.7784 0.1811
vt -3.7746 0.2115
vt -3.7749 0.2449
vt -3.7626 0.2798
vt -3.7673 0.3071
vt -3.7688 0.2601
vt -3.7654 0.2912
vt -3.7618 0.3223
vt -3.7529 0.3596
vt -3.7579 0.353
vt -3.7598 0.3692
vt -3.752 0.3999
vt -3.7507 0.3773
vt -3.7543 0.3687
vt -3.7568 0.3711
vt -3.7496 0.3997
vt -3.7525 0.3854
vt -3.7546 0.3862
vt -3.7817 0.1686
vt -3.7807 0.1512
vt -3.7756 0.1732
vt -3.7811 0.1939
vt -3.7803 0.1847
vt -3.7779 0.2023
vt -3.7759 0.2186
vt -3.7714 0.2357
vt -3.7768 0.2294
vt -3.7737 0.237
vt -3.7718 0.2537
vt -3.7695 0.2706
vt -3.773 0.2605
vt -3.7667 0.2758
vt -3.7602 0.2998
vt -3.7638 0.2868
vt -3.7621 0.3047
vt -3.7799 0.1655
vt -3.7641 0.3067
vt -3.7766 0.1963
vt -3.7701 0.2177
vt -3.765 0.2599
vt -3.7692 0.2915
vt -3.7654 0.3226
vt -3.7611 0.3379
vt -3.7586 0.3374
vt -3.7553 0.3397
vt -3.7558 0.3516
vt -3.7595 0.3231
vt -3.7617 0.3537
vt -3.7579 0.3847
vt -0.3924 0.1328
vt -0.3911 0.3829
vt -0.328 0.3829
vt -0.2649 0.3829
vt -0.2019 0.383
vt -0.1388 0.383
vt -0.1401 0.1328
vt -0.1905 0.1328
vt -0.241 0.1328
vt -0.2915 0.1328
vt -0.342 0.1328
vn 0 0 -0.3048
vn 0 0 0.3048
vn 0.3038 -0.0224 0.0095
vn 0.3046 0 0.01
vn 0.2814 0.1166 0.0099
vn 0.2154 0.2154 0.0099
vn 0.1166 0.2815 0.0098
vn 0 0.3046 0.0098
vn -0.1166 0.2815 0.0098
vn -0.2154 0.2154 0.0098
vn -0.2815 0.1166 0.0098
vn -0.3046 0 0.0097
vn -0.2804 0.1192 0.0097
vn -0.2114 0.2193 0.0097
vn -0.1088 0.2846 0.0097
vn 0.0112 0.3044 0.0097
vn 0.1294 0.2758 0.0096
vn 0.227 0.2032 0.0096
vn 0.2884 0.0982 0.0095
vn 0.263 0.1538 0.0096
vn 0.2533 0.1692 0.0099
vn 0.2728 0.1355 0.0098
vn 0.295 0.076 0.0098
vn 0.2988 0.0594 0.01
vn 0.3022 0.0387 0.0095
vn 0.1692 0.2533 0.0099
vn 0.1819 0.2444 0.0096
vn 0.1498 0.2653 0.0098
vn 0.0915 0.2906 0.0097
vn 0.0718 0.2961 0.0097
vn 0.0594 0.2988 0.0098
vn -0.1693 0.2533 0.0098
vn -0.1634 0.2571 0.0097
vn -0.1909 0.2374 0.0097
vn -0.236 0.1926 0.0097
vn -0.2509 0.1727 0.0097
vn -0.2533 0.1693 0.0098
vn -0.3001 0.0524 0.0097
vn -0.2985 0.0608 0.0097
vn -0.2912 0.0894 0.0097
vn -0.2687 0.1436 0.0097
vn -0.0498 0.3006 0.0097
vn -0.0594 0.2988 0.0098
vn -0.0248 0.3036 0.0097
vn 0.0337 0.3028 0.0098
vn 0.2401 0.1875 0.0098
vn 0.199 0.2307 0.0097
vn 0.3045 -0.0108 0.0098
vn -0.1394 0.2709 0.0097
vn -0.0839 0.2929 0.0098
vn 0 -0.3048 0
vn 0.3046 0 -0.0097
vn 0.2804 -0.1192 -0.0098
vn 0.2114 -0.2193 -0.0098
vn 0.1088 -0.2846 -0.0098
vn -0.0112 -0.3044 -0.0098
vn -0.1294 -0.2758 -0.0099
vn -0.227 -0.2032 -0.0099
vn -0.2884 -0.0982 -0.01
vn -0.3038 0.0224 -0.0101
vn -0.3007 0.049 -0.0094
vn -0.2951 -0.0757 -0.0095
vn -0.2399 -0.1878 -0.0096
vn -0.1444 -0.2683 -0.0096
vn -0.0246 -0.3037 -0.0097
vn 0.0993 -0.288 -0.0097
vn 0.2065 -0.2239 -0.0097
vn 0.279 -0.1222 -0.0097
vn 0.2481 -0.1768 -0.0097
vn 0.2509 -0.1727 -0.0098
vn 0.266 -0.1484 -0.0097
vn 0.2933 -0.0822 -0.0097
vn 0.2985 -0.0608 -0.0097
vn 0.2982 -0.0624 -0.0097
vn 0.1634 -0.2571 -0.0098
vn 0.1562 -0.2615 -0.0097
vn 0.1328 -0.2742 -0.0097
vn 0.0651 -0.2976 -0.0097
vn 0.0382 -0.3022 -0.0097
vn 0.0498 -0.3005 -0.0098
vn -0.1818 -0.2444 -0.0099
vn -0.1963 -0.233 -0.0096
vn -0.2121 -0.2186 -0.0098
vn -0.2573 -0.163 -0.0098
vn -0.2733 -0.1346 -0.0095
vn -0.263 -0.1538 -0.0099
vn -0.3029 -0.0324 -0.01
vn -0.3043 -0.0137 -0.0095
vn -0.3027 0.0344 -0.0098
vn -0.2992 -0.0575 -0.0098
vn -0.2827 -0.1136 -0.0098
vn -0.0863 -0.2922 -0.0096
vn -0.0718 -0.2961 -0.0098
vn -0.0484 -0.3008 -0.0098
vn 0.0093 -0.3045 -0.0098
vn 0.2284 -0.2016 -0.0097
vn 0.1839 -0.2429 -0.0097
vn -0.1608 -0.2588 -0.0098
vn -0.1059 -0.2856 -0.0098
vn -0.1224 -0.279 -0.0098
vn -0.1175 -0.2811 -0.0097
vn -0.062 -0.2983 -0.0097
vn -0.0042 -0.3046 -0.0097
vn 0.0537 -0.2999 -0.0097
vn 0.1096 -0.2842 -0.0096
vn 0.1164 -0.2815 -0.0099
vn 0.0697 -0.2966 -0.0098
vn 0.0212 -0.3039 -0.0098
vn -0.0278 -0.3034 -0.0097
vn -0.0761 -0.295 -0.0098
vn -0.0901 -0.291 -0.0097
vn -0.0332 -0.3028 -0.0097
vn 0.0249 -0.3036 -0.0097
vn 0.082 -0.2934 -0.0097
vn 0.2871 0.1018 -0.0102
vn 0.2842 0.1096 -0.0099
vn 0.2842 0.1096 -0.0102
vn 0.2871 0.1018 -0.0104
vn 0.2853 0.1068 -0.01
vn 0.2857 0.1057 -0.0103
vn 0.285 0.1077 -0.0102
vn 0.2862 0.1043 -0.0101
vn 0.2864 0.1037 -0.0104
vn 0.2845 0.1089 -0.0102
vn 0.2848 0.1082 -0.01
vn 0.2842 0.1096 -0.0101
vn 0.2846 0.1087 -0.0101
vn 0.2849 0.1077 -0.0101
vn 0.2853 0.1067 -0.0103
vn 0.2858 0.1056 -0.01
vn 0.2861 0.1047 -0.0103
vn 0.2855 0.1062 -0.0102
vn 0.2859 0.1052 -0.0102
vn 0.2862 0.1042 -0.0102
vn 0.2867 0.103 -0.0101
vn 0.2866 0.1033 -0.0103
vn 0.2868 0.1028 -0.0104
vn 0.2871 0.1018 -0.0103
vn 0.2869 0.1025 -0.0101
vn 0.2868 0.1028 -0.0102
vn 0.2868 0.1027 -0.0103
vn 0.287 0.1022 -0.0102
vn 0.287 0.1022 -0.0103
vn 0.2844 0.1091 -0.0101
vn 0.2842 0.1096 -0.01
vn 0.2845 0.1089 -0.0099
vn 0.2847 0.1083 -0.0102
vn 0.2846 0.1086 -0.0101
vn 0.2848 0.108 -0.0102
vn 0.285 0.1075 -0.0102
vn 0.2852 0.107 -0.0101
vn 0.2851 0.1072 -0.0103
vn 0.2852 0.1069 -0.0102
vn 0.2854 0.1064 -0.0102
vn 0.2856 0.1059 -0.0102
vn 0.2855 0.1062 -0.0103
vn 0.2857 0.1057 -0.0102
vn 0.286 0.1049 -0.0101
vn 0.2858 0.1054 -0.0101
vn 0.286 0.1048 -0.0102
vn 0.2844 0.1092 -0.01
vn 0.2861 0.1047 -0.0102
vn 0.2848 0.1082 -0.0101
vn 0.285 0.1075 -0.01
vn 0.2855 0.1062 -0.01
vn 0.2859 0.1052 -0.0103
vn 0.2862 0.1042 -0.0104
vn 0.2864 0.1038 -0.0103
vn 0.2864 0.1038 -0.0102
vn 0.2864 0.1037 -0.0101
vn 0.2866 0.1033 -0.0102
vn 0.2863 0.1042 -0.0102
vn 0.2866 0.1033 -0.0104
vn 0.2869 0.1023 -0.0104
vn -0.1167 0.2814 0.0099
vn -0.1096 0.2842 0.0096
vn -0.055 0.2996 0.0097
vn 0.0016 0.3046 0.0097
vn 0.0581 0.299 0.0097
vn 0.1127 0.2831 0.0097
vn 0.1175 0.2811 0.0098
vn 0.0718 0.2961 0.0098
vn 0.0244 0.3037 0.0097
vn -0.0236 0.3037 0.0098
vn -0.0711 0.2962 0.0098

usemtl 191881
f 3/3/1 7/7/1 8/8/1
f 4/4/1 7/7/1 3/3/1
f 2/2/1 3/3/1 8/8/1
f 5/5/1 6/6/1 4/4/1
f 7/7/1 4/4/1 6/6/1
f 1/1/1 9/9/1 10/10/1
f 8/8/1 9/9/1 2/2/1
f 2/2/1 9/9/1 1/1/1
f 1/1/1 11/11/1 26/26/1
f 18/18/1 19/19/1 20/20/1
f 1/1/1 10/10/1 11/11/1
f 12/12/1 25/25/1 26/26/1
f 13/13/1 25/25/1 12/12/1
f 14/14/1 24/24/1 13/13/1
f 25/25/1 13/13/1 24/24/1
f 23/23/1 24/24/1 14/14/1
f 21/21/1 17/17/1 20/20/1
f 16/16/1 17/17/1 21/21/1
f 18/18/1 20/20/1 17/17/1
f 22/22/1 23/23/1 15/15/1
f 22/22/1 16/16/1 21/21/1
f 15/15/1 16/16/1 22/22/1
f 15/15/1 23/23/1 14/14/1
f 26/26/1 11/11/1 12/12/1
f 54/54/2 45/45/2 46/46/2
f 27/27/2 45/45/2 54/54/2
f 53/53/2 54/54/2 46/46/2
f 34/34/2 35/35/2 36/36/2
f 45/45/2 27/27/2 44/44/2
f 44/44/2 27/27/2 43/43/2
f 48/48/2 52/52/2 47/47/2
f 53/53/2 47/47/2 52/52/2
f 51/51/2 52/52/2 48/48/2
f 51/51/2 49/49/2 50/50/2
f 48/48/2 49/49/2 51/51/2
f 53/53/2 46/46/2 47/47/2
f 33/33/2 37/37/2 38/38/2
f 36/36/2 37/37/2 34/34/2
f 34/34/2 37/37/2 33/33/2
f 38/38/2 39/39/2 32/32/2
f 32/32/2 39/39/2 31/31/2
f 33/33/2 38/38/2 32/32/2
f 31/31/2 39/39/2 40/40/2
f 28/28/2 42/42/2 43/43/2
f 29/29/2 42/42/2 28/28/2
f 27/27/2 28/28/2 43/43/2
f 30/30/2 40/40/2 41/41/2
f 42/42/2 29/29/2 41/41/2
f 41/41/2 29/29/2 30/30/2
f 30/30/2 31/31/2 40/40/2
f 57/75/22 55/73/20 28/72/19
f 58/76/23 26/57/5 57/75/22
f 61/79/26 24/59/7 63/81/28
f 69/87/34 85/103/49 67/85/32
f 31/69/16 65/83/30 81/99/45
f 24/59/7 64/82/29 63/81/28
f 58/76/23 60/78/25 84/102/48
f 68/86/33 85/103/49 69/87/34
f 28/72/19 58/76/23 57/75/22
f 82/100/46 57/75/22 56/74/21
f 57/75/22 26/57/5 56/74/21
f 57/75/22 82/100/46 55/73/20
f 62/80/27 63/81/28 30/70/17
f 29/71/18 55/73/20 82/100/46
f 64/82/29 66/84/31 81/99/45
f 64/82/29 24/59/7 66/84/31
f 67/85/32 21/62/10 69/87/34
f 65/83/30 30/70/17 64/82/29
f 21/62/10 70/88/35 69/87/34
f 83/101/47 82/100/46 25/58/6
f 30/70/17 63/81/28 64/82/29
f 76/94/40 73/91/38 75/93/12
f 58/76/23 84/102/48 59/77/24
f 23/60/8 80/98/44 81/99/45
f 33/67/14 68/86/33 69/87/34
f 70/88/35 72/90/37 77/95/41
f 58/76/23 28/72/19 60/78/25
f 86/104/50 79/97/43 22/61/9
f 74/92/39 76/94/40 75/93/12
f 83/101/47 25/58/6 61/79/26
f 62/80/27 83/101/47 63/81/28
f 86/104/50 80/98/44 79/97/43
f 81/99/45 80/98/44 31/69/16
f 59/77/24 26/57/5 58/76/23
f 85/103/49 22/61/9 67/85/32
f 33/67/14 69/87/34 70/88/35
f 71/89/36 33/67/14 70/88/35
f 77/95/41 76/94/40 34/66/13
f 75/93/12 35/65/12 74/92/39
f 34/66/13 71/89/36 77/95/41
f 70/88/35 21/62/10 72/90/37
f 34/66/13 76/94/40 74/92/39
f 20/63/11 76/94/40 77/95/41
f 73/91/38 19/64/12 75/93/12
f 76/94/40 20/63/11 73/91/38
f 20/63/11 77/95/41 72/90/37
f 71/89/36 70/88/35 77/95/41
f 80/98/44 78/96/42 31/69/16
f 86/104/50 32/68/15 78/96/42
f 85/103/49 32/68/15 86/104/50
f 80/98/44 23/60/8 79/97/43
f 23/60/8 81/99/45 66/84/31
f 65/83/30 64/82/29 81/99/45
f 83/101/47 62/80/27 29/71/18
f 25/58/6 82/100/46 56/74/21
f 63/81/28 83/101/47 61/79/26
f 82/100/46 83/101/47 29/71/18
f 1/56/4 59/77/24 84/102/48
f 84/102/48 60/78/25 27/55/3
f 32/68/15 85/103/49 68/86/33
f 80/98/44 86/104/50 78/96/42
f 85/103/49 86/104/50 22/61/9
f 18/107/51 35/105/51 19/106/51
f 35/105/51 18/107/51 36/108/51
f 89/129/71 87/127/69 37/126/68
f 90/130/72 17/111/53 89/129/71
f 93/133/75 15/113/55 95/135/77
f 101/141/83 117/157/98 99/139/81
f 40/123/65 97/137/79 113/153/95
f 15/113/55 96/136/78 95/135/77
f 90/130/72 92/132/74 116/156/52
f 100/140/82 117/157/98 101/141/83
f 37/126/68 90/130/72 89/129/71
f 114/154/96 89/129/71 88/128/70
f 89/129/71 17/111/53 88/128/70
f 89/129/71 114/154/96 87/127/69
f 94/134/76 95/135/77 39/124/66
f 38/125/67 87/127/69 114/154/96
f 96/136/78 98/138/80 113/153/95
f 96/136/78 15/113/55 98/138/80
f 99/139/81 12/116/58 101/141/83
f 97/137/79 39/124/66 96/136/78
f 12/116/58 102/142/84 101/141/83
f 115/155/97 114/154/96 16/112/54
f 39/124/66 95/135/77 96/136/78
f 108/148/90 105/145/87 107/147/89
f 90/130/72 116/156/52 91/131/73
f 14/114/56 112/152/94 113/153/95
f 42/121/63 100/140/82 101/141/83
f 102/142/84 104/144/86 109/149/91
f 90/130/72 37/126/68 92/132/74
f 118/158/99 111/151/93 13/115/57
f 106/146/88 108/148/90 107/147/89
f 115/155/97 16/112/54 93/133/75
f 94/134/76 115/155/97 95/135/77
f 118/158/99 112/152/94 111/151/93
f 113/153/95 112/152/94 40/123/65
f 91/131/73 17/111/53 90/130/72
f 117/157/98 13/115/57 99/139/81
f 42/121/63 101/141/83 102/142/84
f 103/143/85 42/121/63 102/142/84
f 109/149/91 108/148/90 43/120/62
f 108/148/90 106/146/88 43/120/62
f 43/120/62 103/143/85 109/149/91
f 102/142/84 12/116/58 104/144/86
f 106/146/88 107/147/89 44/119/61
f 11/117/59 108/148/90 109/149/91
f 105/145/87 10/118/60 107/147/89
f 108/148/90 11/117/59 105/145/87
f 11/117/59 109/149/91 104/144/86
f 103/143/85 102/142/84 109/149/91
f 112/152/94 110/150/92 40/123/65
f 118/158/99 41/122/64 110/150/92
f 117/157/98 41/122/64 118/158/99
f 112/152/94 14/114/56 111/151/93
f 14/114/56 113/153/95 98/138/80
f 97/137/79 96/136/78 113/153/95
f 115/155/97 94/134/76 38/125/67
f 16/112/54 114/154/96 88/128/70
f 95/135/77 115/155/97 93/133/75
f 114/154/96 115/155/97 38/125/67
f 18/110/52 91/131/73 116/156/52
f 116/156/52 92/132/74 36/109/52
f 41/122/64 117/157/98 100/140/82
f 112/152/94 118/158/99 110/150/92
f 117/157/98 118/158/99 13/115/57
f 120/171/112 8/162/103 46/168/109
f 44/159/100 10/160/101 119/170/111
f 119/170/111 45/169/110 44/159/100
f 9/161/102 46/168/109 45/169/110
f 119/170/111 9/161/102 45/169/110
f 46/168/109 9/161/102 120/171/112
f 48/166/107 47/167/108 7/163/104
f 6/164/105 49/165/106 122/173/114
f 121/172/113 7/163/104 47/167/108
f 48/166/107 122/173/114 49/165/106
f 48/166/107 7/163/104 122/173/114
f 46/168/109 8/162/103 47/167/108
f 47/167/108 8/162/103 121/172/113
f 164/219/159 137/192/133 165/220/160
f 157/212/152 158/213/153 155/210/150
f 130/185/126 166/221/161 150/205/145
f 127/182/123 173/228/168 172/227/167
f 133/188/129 159/214/154 158/213/153
f 149/204/144 153/208/148 131/186/127
f 173/228/168 140/195/136 174/229/169
f 132/187/128 168/223/163 154/209/149
f 6/175/116 150/205/145 151/206/146
f 166/221/161 131/186/127 151/206/146
f 149/204/144 130/185/126 5/176/117
f 168/223/163 132/187/128 129/184/125
f 156/211/151 169/224/164 132/187/128
f 154/209/149 125/180/121 155/210/150
f 123/178/119 156/211/151 136/191/132
f 155/210/150 156/211/151 132/187/128
f 172/227/167 138/193/134 167/222/162
f 170/225/165 136/191/132 162/217/157
f 160/215/155 124/179/120 171/226/166
f 160/215/155 137/192/133 162/217/157
f 162/217/157 164/219/159 134/189/130
f 137/192/133 167/222/162 165/220/160
f 176/231/171 174/229/169 140/195/136
f 147/202/142 146/201/115 143/198/139
f 144/199/140 140/195/136 145/200/141
f 146/201/115 49/174/115 143/198/139
f 144/199/140 176/231/171 140/195/136
f 173/228/168 178/233/173 140/195/136
f 148/203/143 145/200/141 179/234/174
f 139/194/135 144/199/140 143/198/139
f 179/234/174 50/177/118 148/203/143
f 147/202/142 144/199/140 145/200/141
f 148/203/143 147/202/142 145/200/141
f 142/197/138 146/201/115 147/202/142
f 148/203/143 142/197/138 147/202/142
f 144/199/140 147/202/142 143/198/139
f 148/203/143 50/177/118 142/197/138
f 145/200/141 141/196/137 179/234/174
f 154/209/149 153/208/148 152/207/147
f 128/183/124 149/204/144 5/176/117
f 131/186/127 166/221/161 149/204/144
f 152/207/147 125/180/121 154/209/149
f 151/206/146 131/186/127 129/184/125
f 128/183/124 153/208/148 149/204/144
f 152/207/147 153/208/148 128/183/124
f 131/186/127 153/208/148 168/223/163
f 155/210/150 132/187/128 154/209/149
f 169/224/164 129/184/125 132/187/128
f 156/211/151 155/210/150 158/213/153
f 170/225/165 162/217/157 134/189/130
f 156/211/151 158/213/153 159/214/154
f 133/188/129 158/213/153 157/212/152
f 155/210/150 125/180/121 157/212/152
f 136/191/132 156/211/151 159/214/154
f 136/191/132 159/214/154 160/215/155
f 159/214/154 161/216/156 160/215/155
f 136/191/132 160/215/155 162/217/157
f 137/192/133 171/226/166 167/222/162
f 124/179/120 160/215/155 161/216/156
f 159/214/154 133/188/129 161/216/156
f 177/232/172 126/181/122 165/220/160
f 137/192/133 164/219/159 162/217/157
f 164/219/159 163/218/158 134/189/130
f 163/218/158 164/219/159 165/220/160
f 163/218/158 165/220/160 126/181/122
f 138/193/134 165/220/160 167/222/162
f 149/204/144 166/221/161 130/185/126
f 150/205/145 166/221/161 151/206/146
f 138/193/134 172/227/167 173/228/168
f 171/226/166 135/190/131 167/222/162
f 154/209/149 168/223/163 153/208/148
f 131/186/127 168/223/163 129/184/125
f 170/225/165 123/178/119 136/191/132
f 169/224/164 156/211/151 123/178/119
f 137/192/133 160/215/155 171/226/166
f 138/193/134 173/228/168 174/229/169
f 172/227/167 167/222/162 135/190/131
f 140/195/136 178/233/173 145/200/141
f 174/229/169 177/232/172 138/193/134
f 174/229/169 175/230/170 177/232/172
f 139/194/135 175/230/170 176/231/171
f 174/229/169 176/231/171 175/230/170
f 139/194/135 176/231/171 144/199/140
f 138/193/134 177/232/172 165/220/160
f 126/181/122 177/232/172 175/230/170
f 141/196/137 145/200/141 178/233/173
f 178/233/173 173/228/168 127/182/123
f 4/237/177 51/245/185 5/236/176
f 50/235/175 5/236/176 51/245/185
f 52/244/184 51/245/185 4/237/177
f 4/237/177 3/238/178 52/244/184
f 54/242/182 53/243/183 2/239/179
f 27/241/181 54/242/182 1/240/180
f 3/238/178 2/239/179 53/243/183
f 1/240/180 54/242/182 2/239/179
f 52/244/184 3/238/178 53/243/183
