## ElementId 209760
## Vertice Count:16
## Triangle Count:28
mtllib 209760.mtl
o 209760

v 7.4836 14.8586 8.0711
v 3.0836 14.8586 8.0711
v 3.0836 14.2586 7.4711
v 8.0836 14.2586 7.4711
v 8.0836 14.2586 14.1711
v 7.4836 14.8586 13.5711
v 3.0836 14.8586 13.5711
v 3.0836 14.2586 14.1711
v 3.0836 15 8.0711
v 7.4836 15 8.0711
v 8.0836 14.4 7.4711
v 3.0836 14.4 7.4711
v 7.4836 15 13.5711
v 8.0836 14.4 14.1711
v 3.0836 15 13.5711
v 3.0836 14.4 14.1711
vt 7.4836 6.0314
vt 3.0836 6.0314
vt 3.0836 5.1829
vt 8.0836 5.1829
vt 8.0711 -4.9675
vt 7.4711 -5.816
vt 14.1711 -5.816
vt 13.5711 -4.9675
vt -3.0836 -9.272
vt -7.4836 -9.272
vt -8.0836 -10.1205
vt -3.0836 -10.1205
vt -3.0836 6.1314
vt -7.4836 6.1314
vt -8.0836 5.2829
vt -3.0836 5.2829
vt -8.0711 -4.8675
vt -13.5711 -4.8675
vt -14.1711 -5.716
vt -7.4711 -5.716
vt 7.4836 -9.172
vt 3.0836 -9.172
vt 3.0836 -10.0205
vt 8.0836 -10.0205
vt 8.0836 -0.1414
vt 8.0836 0
vt 3.0836 0
vt 3.0836 -0.1414
vt -7.4711 -0.1414
vt -7.4711 0
vt -14.1711 0
vt -14.1711 -0.1414
vt -3.0836 -0.1414
vt -3.0836 0
vt -8.0836 0
vt -8.0836 -0.1414
vt 7.4836 0.6
vt 3.0836 0.6
vt 3.0836 0.4586
vt 7.4836 0.4586
vt 13.5711 0.6
vt 8.0711 0.6
vt 8.0711 0.4586
vt 13.5711 0.4586
vt -3.0836 0.6
vt -7.4836 0.6
vt -7.4836 0.4586
vt -3.0836 0.4586
vt 7.4711 0
vt 7.4711 -0.1414
vt 14.1711 0
vt 14.1711 -0.1414
vn 0 -0.2155 0.2155
vn -0.2155 -0.2155 0
vn 0 -0.2155 -0.2155
vn 0 0.2155 -0.2155
vn 0.2155 0.2155 0
vn 0 0.2155 0.2155
vn 0 0 0.3048
vn 0.3048 0 0
vn 0 0 -0.3048
vn -0.3048 0 0

usemtl 54872
f 3/3/1 4/4/1 1/1/1
f 1/1/1 2/2/1 3/3/1
f 4/6/2 5/7/2 6/8/2
f 6/8/2 1/5/2 4/6/2
f 6/10/3 8/12/3 7/9/3
f 8/12/3 6/10/3 5/11/3
f 10/14/4 11/15/4 12/16/4
f 12/16/4 9/13/4 10/14/4
f 13/18/5 14/19/5 11/20/5
f 11/20/5 10/17/5 13/18/5
f 15/22/6 16/23/6 13/21/6
f 14/24/6 13/21/6 16/23/6
f 16/27/7 8/28/7 5/25/7
f 5/25/7 14/26/7 16/27/7
f 14/31/8 5/32/8 11/30/8
f 4/29/8 11/30/8 5/32/8
f 11/35/9 4/36/9 3/33/9
f 3/33/9 12/34/9 11/35/9
f 9/38/7 2/39/7 1/40/7
f 1/40/7 10/37/7 9/38/7
f 10/42/10 1/43/10 6/44/10
f 6/44/10 13/41/10 10/42/10
f 13/46/9 6/47/9 7/48/9
f 7/48/9 15/45/9 13/46/9
f 12/49/10 3/50/10 2/43/10
f 2/43/10 9/42/10 12/49/10
f 15/41/10 7/44/10 16/51/10
f 8/52/10 16/51/10 7/44/10
