## ElementId 211639
## Vertice Count:47
## Triangle Count:90
mtllib 211639.mtl
o 211639

v 7.4836 8.5 10.9011
v 7.2836 8.5 10.9011
v 5.0436 8.5 10.9011
v 4.9236 8.5 10.9011
v 4.7336 8.5 10.9011
v 3.8336 8.5 10.9011
v 3.0836 8.5 10.9011
v 2.8836 8.5 10.9011
v 1.5836 8.5 10.9011
v 1.3836 8.5 10.9011
v -2.3164 8.5 10.9011
v -2.3164 5.3 10.9011
v 1.3836 5.3 10.9011
v 1.5836 5.3 10.9011
v 1.7336 5.3 10.9011
v 1.7336 7.4 10.9011
v 2.6336 7.4 10.9011
v 2.6336 5.3 10.9011
v 2.8836 5.3 10.9011
v 3.0836 5.3 10.9011
v 4.9236 5.3 10.9011
v 5.0436 5.3 10.9011
v 5.8836 5.3 10.9011
v 5.8836 7.4 10.9011
v 6.6836 7.4 10.9011
v 6.6836 5.3 10.9011
v 7.2836 5.3 10.9011
v 7.4836 5.3 10.9011
v 7.4836 8.3476 10.9011
v -2.3164 8.5 10.7011
v 3.8336 8.5 10.7011
v 4.7336 8.5 10.7011
v 7.2836 8.5 10.7011
v 7.4836 8.5 10.7011
v 7.4836 8.3476 10.7011
v 7.4836 5.3 10.7011
v 7.2836 5.3 10.7011
v 6.6836 5.3 10.7011
v 6.6836 7.4 10.7011
v 5.8836 7.4 10.7011
v 5.8836 5.3 10.7011
v 2.6336 5.3 10.7011
v 2.6336 7.4 10.7011
v 1.7336 7.4 10.7011
v 1.7336 5.3 10.7011
v -2.3164 5.3 10.7011
v 7.4836 5.3 10.8011
vt 9.9 3.2
vt 9.7 3.2
vt 7.46 3.2
vt 7.34 3.2
vt 7.15 3.2
vt 6.25 3.2
vt 5.5 3.2
vt 5.3 3.2
vt 4 3.2
vt 3.8 3.2
vt 0.1 3.2
vt 0.1 0
vt 3.8 0
vt 4 0
vt 4.15 0
vt 4.15 2.1
vt 5.05 2.1
vt 5.05 0
vt 5.3 0
vt 5.5 0
vt 7.34 0
vt 7.46 0
vt 8.3 0
vt 8.3 2.1
vt 9.1 2.1
vt 9.1 0
vt 9.7 0
vt 9.9 0
vt 9.9 3.0476
vt -0.1 3.2
vt -6.25 3.2
vt -7.15 3.2
vt -9.7 3.2
vt -9.9 3.2
vt -9.9 3.0476
vt -9.9 0
vt -9.7 0
vt -9.1 0
vt -9.1 2.1
vt -8.3 2.1
vt -8.3 0
vt -5.05 0
vt -5.05 2.1
vt -4.15 2.1
vt -4.15 0
vt -0.1 0
vt 9.9 -0.1
vt 9.9 0.1
vt 9.7 0.1
vt 9.1 0.1
vt 9.1 -0.1
vt 9.7 -0.1
vt 0.1 0.1
vt 0.1 -0.1
vt 4.15 -0.1
vt 4.15 0.1
vt 4 0.1
vt 3.8 0.1
vt 5.05 0.1
vt 5.05 -0.1
vt 8.3 -0.1
vt 8.3 0.1
vt 7.46 0.1
vt 7.34 0.1
vt 5.5 0.1
vt 5.3 0.1
vt 3.8 -0.1
vt 4 -0.1
vt 5.3 -0.1
vt 5.5 -0.1
vt 6.25 -0.1
vt 7.15 -0.1
vt 7.34 -0.1
vt 7.46 -0.1
vt 7.15 0.1
vt 6.25 0.1
vt 0 0
vt 0.1 3.0476
vt -0.1 3.0476
vt -0.1 2.1
vt 0.1 2.1
vn 0 0 0.3048
vn 0 0 -0.3048
vn 0 -0.3048 0
vn 0 0.3048 0
vn 0.3048 0 0
vn -0.3048 0 0

usemtl 197629
f 16/16/1 12/12/1 13/13/1
f 14/14/1 16/16/1 13/13/1
f 18/18/1 19/19/1 17/17/1
f 20/20/1 17/17/1 19/19/1
f 16/16/1 14/14/1 15/15/1
f 10/10/1 16/16/1 9/9/1
f 16/16/1 10/10/1 11/11/1
f 17/17/1 8/8/1 9/9/1
f 7/7/1 8/8/1 17/17/1
f 7/7/1 17/17/1 6/6/1
f 17/17/1 9/9/1 16/16/1
f 11/11/1 12/12/1 16/16/1
f 17/17/1 20/20/1 21/21/1
f 21/21/1 22/22/1 24/24/1
f 24/24/1 22/22/1 23/23/1
f 21/21/1 24/24/1 6/6/1
f 26/26/1 27/27/1 25/25/1
f 25/25/1 27/27/1 28/28/1
f 5/5/1 24/24/1 4/4/1
f 3/3/1 4/4/1 24/24/1
f 5/5/1 6/6/1 24/24/1
f 25/25/1 29/29/1 2/2/1
f 29/29/1 25/25/1 28/28/1
f 1/1/1 2/2/1 29/29/1
f 2/2/1 3/3/1 24/24/1
f 24/24/1 25/25/1 2/2/1
f 21/21/1 6/6/1 17/17/1

usemtl 90484
f 39/39/2 36/36/2 37/37/2
f 37/37/2 38/38/2 39/39/2
f 34/34/2 35/35/2 33/33/2
f 33/33/2 39/39/2 40/40/2
f 39/39/2 33/33/2 35/35/2
f 35/35/2 36/36/2 39/39/2
f 43/43/2 40/40/2 41/41/2
f 44/44/2 45/45/2 46/46/2
f 40/40/2 32/32/2 33/33/2
f 32/32/2 40/40/2 31/31/2
f 31/31/2 44/44/2 30/30/2
f 31/31/2 40/40/2 43/43/2
f 30/30/2 44/44/2 46/46/2
f 43/43/2 44/44/2 31/31/2
f 43/43/2 41/41/2 42/42/2

usemtl 31
f 47/28/3 28/48/3 27/49/3
f 38/51/3 27/49/3 26/50/3
f 37/52/3 47/28/3 27/49/3
f 36/47/3 47/28/3 37/52/3
f 37/52/3 27/49/3 38/51/3
f 13/58/3 45/55/3 14/57/3
f 46/54/3 13/58/3 12/53/3
f 14/57/3 45/55/3 15/56/3
f 45/55/3 13/58/3 46/54/3
f 22/63/3 21/64/3 41/61/3
f 41/61/3 23/62/3 22/63/3
f 42/60/3 21/64/3 20/65/3
f 18/59/3 42/60/3 19/66/3
f 42/60/3 20/65/3 19/66/3
f 21/64/3 42/60/3 41/61/3
f 3/74/4 32/75/4 4/73/4
f 4/73/4 32/75/4 5/72/4
f 33/49/4 3/74/4 2/52/4
f 6/71/4 5/72/4 31/76/4
f 11/54/4 10/67/4 30/53/4
f 2/52/4 1/47/4 33/49/4
f 31/76/4 5/72/4 32/75/4
f 33/49/4 32/75/4 3/74/4
f 6/71/4 31/76/4 7/70/4
f 31/76/4 9/68/4 8/69/4
f 8/69/4 7/70/4 31/76/4
f 10/67/4 31/76/4 30/53/4
f 31/76/4 10/67/4 9/68/4
f 33/49/4 1/47/4 34/48/4
f 29/79/5 28/46/5 47/77/5
f 1/30/5 29/79/5 35/78/5
f 47/77/5 36/12/5 35/78/5
f 34/11/5 1/30/5 35/78/5
f 35/78/5 29/79/5 47/77/5
f 46/46/6 12/12/6 11/11/6
f 11/11/6 30/30/6 46/46/6
f 43/80/6 42/46/6 18/12/6
f 18/12/6 17/81/6 43/80/6
f 44/55/3 43/60/3 16/56/3
f 17/59/3 16/56/3 43/60/3
f 45/12/5 44/81/5 16/80/5
f 16/80/5 15/46/5 45/12/5
f 24/80/5 23/46/5 41/12/5
f 41/12/5 40/81/5 24/80/5
f 25/50/3 24/62/3 39/51/3
f 40/61/3 39/51/3 24/62/3
f 26/12/6 25/81/6 39/80/6
f 39/80/6 38/46/6 26/12/6
