## ElementId 212071
## Vertice Count:16
## Triangle Count:32
mtllib 212071.mtl
o 212071

v 3.2036 1.37 16.3011
v 3.2036 1.05 16.3011
v 2.9236 1.05 16.3011
v 2.9236 1.37 16.3011
v 2.9436 1.37 16.3011
v 3.1836 1.37 16.3011
v 3.2036 1.37 17.2011
v 3.1836 1.37 17.2011
v 2.9436 1.37 17.2011
v 2.9236 1.37 17.2011
v 2.9236 1.05 17.2011
v 3.2036 1.05 17.2011
v 2.9436 3.9809 17.2011
v 2.9436 4.5006 16.3011
v 3.1836 4.5006 16.3011
v 3.1836 3.9809 17.2011
vt -0.14 0.16
vt -0.14 -0.16
vt 0.14 -0.16
vt 0.14 0.16
vt 0.12 0.16
vt -0.12 0.16
vt 0 0.32
vt 0 0
vt 0.9 0
vt 0.9 0.32
vt 0 0.26
vt 0 -0.02
vt 0.9 -0.02
vt 0.9 0.26
vt 0 -0.32
vt 0.9 -0.32
vt 0 0.02
vt 0 -0.24
vt 0 -0.26
vt 0.9 -0.26
vt 0.9 -0.24
vt 0.9 0.02
vt 1 2.9309
vt 0.1 3.4506
vt 0.1 0.32
vt 1 0.32
vt -0.1 3.4506
vt -1 2.9309
vt -1 0.32
vt -0.1 0.32
vt 0.12 2.9309
vt -0.12 2.9309
vt -0.12 0.32
vt 0.12 0.32
vt 0.12 3.4506
vt -0.12 3.4506
vt -1.6387 -0.12
vt -0.5994 -0.12
vt -0.5994 0.12
vt -1.6387 0.12
vt 1 0.12
vt 0.1 0.12
vt 0.1 -0.12
vt 1 -0.12
vn 0 0 -0.3048
vn 0 0 0.3048
vn 0.3048 0 0
vn 0 -0.3048 0
vn -0.3048 0 0
vn 0 0.3048 0
vn 0 0.264 0.1524

usemtl 90484
f 2/2/1 6/6/1 1/1/1
f 2/2/1 3/3/1 5/5/1
f 4/4/1 5/5/1 3/3/1
f 6/6/1 2/2/1 5/5/1
f 7/4/2 8/5/2 12/3/2
f 9/6/2 11/2/2 12/3/2
f 11/2/2 9/6/2 10/1/2
f 9/6/2 12/3/2 8/5/2
f 2/7/3 1/8/3 7/9/3
f 7/9/3 12/10/3 2/7/3
f 3/11/4 2/12/4 11/14/4
f 12/13/4 11/14/4 2/12/4
f 4/8/5 3/15/5 10/9/5
f 11/16/5 10/9/5 3/15/5
f 5/18/6 4/19/6 10/20/6
f 1/17/6 6/8/6 7/22/6
f 5/18/6 9/21/6 6/8/6
f 10/20/6 9/21/6 5/18/6
f 8/9/6 7/22/6 6/8/6
f 9/21/6 8/9/6 6/8/6

usemtl 31
f 14/24/5 5/25/5 13/23/5
f 9/26/5 13/23/5 5/25/5
f 16/28/3 8/29/3 6/30/3
f 6/30/3 15/27/3 16/28/3
f 13/32/2 9/33/2 8/34/2
f 8/34/2 16/31/2 13/32/2
f 15/36/1 5/34/1 14/35/1
f 5/34/1 15/36/1 6/33/1
f 14/37/7 13/38/7 16/39/7
f 16/39/7 15/40/7 14/37/7
f 8/44/4 5/42/4 6/43/4
f 5/42/4 8/44/4 9/41/4
