## ElementId 214573
## Vertice Count:32
## Triangle Count:56
mtllib 214573.mtl
o 214573

v 5.8636 1.05 17.2011
v 5.8636 1.17 17.2011
v 6.1436 1.17 17.2011
v 6.1436 1.05 17.2011
v 5.8636 1.05 17.8011
v 5.8636 0.1571 19.3011
v 5.8636 -0.2 19.3011
v 5.8636 -0.2 19.4211
v 5.8636 0.2254 19.4211
v 5.8636 1.17 17.8341
v 6.1436 1.17 17.8341
v 6.1436 0.2254 19.4211
v 6.1436 -0.2 19.4211
v 6.1436 -0.2 19.3011
v 6.1436 0.1571 19.3011
v 6.1436 1.05 17.8011
v 2.9236 1.05 17.2011
v 2.9236 1.17 17.2011
v 3.2036 1.17 17.2011
v 3.2036 1.05 17.2011
v 2.9236 1.05 17.8011
v 2.9236 0.1571 19.3011
v 2.9236 -0.2 19.3011
v 2.9236 -0.2 19.4211
v 2.9236 0.2254 19.4211
v 2.9236 1.17 17.8341
v 3.2036 1.17 17.8341
v 3.2036 0.2254 19.4211
v 3.2036 -0.2 19.4211
v 3.2036 -0.2 19.3011
v 3.2036 0.1571 19.3011
v 3.2036 1.05 17.8011
vt 0.14 1.05
vt 0.14 1.17
vt -0.14 1.17
vt -0.14 1.05
vt 17.2011 1.17
vt 17.2011 1.05
vt 17.8011 1.05
vt 19.3011 0.1571
vt 19.3011 -0.2
vt 19.4211 -0.2
vt 19.4211 0.2254
vt 17.8341 1.17
vt -0.14 16.5915
vt 0.14 16.5915
vt 0.14 17.2245
vt -0.14 17.2245
vt -17.2011 1.05
vt -17.2011 1.17
vt -17.8341 1.17
vt -19.4211 0.2254
vt -19.4211 -0.2
vt -19.3011 -0.2
vt -19.3011 0.1571
vt -17.8011 1.05
vt 0.14 17.1915
vt -0.14 17.1915
vt 0.14 -14.2025
vt -0.14 -14.2025
vt -0.14 -16.0493
vt 0.14 -16.0493
vt 0.14 -14.2355
vt -0.14 -14.2355
vt -0.14 -15.9811
vt 0.14 -15.9811
vt -0.14 18.6915
vt 0.14 18.6915
vt 0.14 18.8115
vt -0.14 18.8115
vt 0.14 0.2254
vt -0.14 0.2254
vt -0.14 -0.2
vt 0.14 -0.2
vt 0.14 0.1571
vt -0.14 0.1571
vn 0 0 -0.3048
vn -0.3048 0 0
vn 0 0.3048 0
vn 0.3048 0 0
vn 0 -0.3048 0
vn 0 0.2619 0.1559
vn 0 -0.2619 -0.1559
vn 0 0 0.3048

usemtl 90484
f 1/1/1 3/3/1 4/4/1
f 3/3/1 1/1/1 2/2/1
f 1/6/2 5/7/2 2/5/2
f 10/12/2 2/5/2 5/7/2
f 5/7/2 6/8/2 10/12/2
f 7/9/2 8/10/2 6/8/2
f 6/8/2 9/11/2 10/12/2
f 9/11/2 6/8/2 8/10/2
f 3/13/3 2/14/3 11/16/3
f 10/15/3 11/16/3 2/14/3
f 3/18/4 11/19/4 16/24/4
f 16/24/4 4/17/4 3/18/4
f 11/19/4 15/23/4 16/24/4
f 15/23/4 12/20/4 13/21/4
f 12/20/4 15/23/4 11/19/4
f 13/21/4 14/22/4 15/23/4
f 1/13/5 4/14/5 16/25/5
f 16/25/5 5/26/5 1/13/5
f 11/27/6 10/28/6 12/30/6
f 9/29/6 12/30/6 10/28/6
f 5/31/7 16/32/7 15/33/7
f 15/33/7 6/34/7 5/31/7
f 14/36/5 13/37/5 8/38/5
f 8/38/5 7/35/5 14/36/5
f 12/39/8 9/40/8 13/42/8
f 8/41/8 13/42/8 9/40/8
f 6/43/1 15/44/1 7/42/1
f 14/41/1 7/42/1 15/44/1
f 17/1/1 19/3/1 20/4/1
f 19/3/1 17/1/1 18/2/1
f 17/6/2 21/7/2 18/5/2
f 26/12/2 18/5/2 21/7/2
f 21/7/2 22/8/2 26/12/2
f 23/9/2 24/10/2 22/8/2
f 22/8/2 25/11/2 26/12/2
f 25/11/2 22/8/2 24/10/2
f 19/13/3 18/14/3 27/16/3
f 26/15/3 27/16/3 18/14/3
f 19/18/4 27/19/4 32/24/4
f 32/24/4 20/17/4 19/18/4
f 27/19/4 31/23/4 32/24/4
f 31/23/4 28/20/4 29/21/4
f 28/20/4 31/23/4 27/19/4
f 29/21/4 30/22/4 31/23/4
f 17/13/5 20/14/5 32/25/5
f 32/25/5 21/26/5 17/13/5
f 27/27/6 26/28/6 25/29/6
f 25/29/6 28/30/6 27/27/6
f 21/31/7 32/32/7 31/33/7
f 31/33/7 22/34/7 21/31/7
f 30/36/5 29/37/5 24/38/5
f 24/38/5 23/35/5 30/36/5
f 28/39/8 25/40/8 24/41/8
f 24/41/8 29/42/8 28/39/8
f 22/43/1 31/44/1 23/42/1
f 30/41/1 23/42/1 31/44/1
