## ElementId 214809
## Vertice Count:14
## Triangle Count:24
mtllib 214809.mtl
o 214809

v 6.1236 4.5006 16.3011
v 6.1236 3.75 17.6011
v 3.2341 3.75 17.6011
v 3.2341 4.5006 16.3011
v 6.1236 3.8655 17.6011
v 6.1236 4.616 16.3011
v 3.2341 4.616 16.3011
v 3.2341 4.5756 16.3711
v 3.2741 4.5756 16.3711
v 3.2741 3.8655 17.6011
v 3.2741 3.8193 17.6011
v 3.2341 3.8193 17.6011
v 3.2741 4.5294 16.3711
v 3.2341 4.5294 16.3711
vt -6.0236 -14.5169
vt -6.0236 -16.018
vt -3.1341 -16.018
vt -3.1341 -14.5169
vt 6.0236 -15.9603
vt 6.0236 -14.4592
vt 3.1341 -14.4592
vt 3.1341 -14.54
vt 3.1741 -14.54
vt 3.1741 -15.9603
vt 6.0236 -1.55
vt 6.0236 -1.4345
vt 3.1741 -1.4345
vt 3.1741 -1.4807
vt 3.1341 -1.4807
vt 3.1341 -1.55
vt -6.0236 -0.684
vt -6.0236 -0.7994
vt -3.1341 -0.7994
vt -3.1341 -0.684
vt -17.6011 -1.55
vt -16.3011 -0.7994
vt -16.3011 -0.684
vt -17.6011 -1.4345
vt 3.1741 -14.5631
vt 3.1341 -14.5631
vt 3.1341 -15.9834
vt 3.1741 -15.9834
vt 17.6011 -1.4807
vt 16.3711 -0.7706
vt 16.3711 -0.7244
vt 16.3011 -0.684
vt 16.3011 -0.7994
vt 17.6011 -1.55
vt 17.6011 -1.4345
vt 3.1341 -0.7706
vt 3.1741 -0.7706
vt 3.1741 -0.7244
vt 3.1341 -0.7244
vn 0 -0.264 -0.1524
vn 0 0.264 0.1524
vn 0 0 0.3048
vn 0 0 -0.3048
vn 0.3048 0 0
vn -0.3048 0 0

usemtl 54872
f 2/2/1 3/3/1 4/4/1
f 4/4/1 1/1/1 2/2/1
f 9/9/2 7/7/2 8/8/2
f 9/9/2 5/5/2 6/6/2
f 5/5/2 9/9/2 10/10/2
f 9/9/2 6/6/2 7/7/2
f 11/14/3 12/15/3 3/16/3
f 11/14/3 2/11/3 5/12/3
f 2/11/3 11/14/3 3/16/3
f 11/14/3 5/12/3 10/13/3
f 6/17/4 1/18/4 7/20/4
f 4/19/4 7/20/4 1/18/4
f 5/24/5 2/21/5 1/22/5
f 1/22/5 6/23/5 5/24/5
f 14/26/2 12/27/2 11/28/2
f 11/28/2 13/25/2 14/26/2
f 12/29/6 14/30/6 3/34/6
f 4/33/6 3/34/6 14/30/6
f 7/32/6 4/33/6 8/31/6
f 14/30/6 8/31/6 4/33/6
f 13/30/6 11/29/6 10/35/6
f 10/35/6 9/31/6 13/30/6
f 9/38/3 14/36/3 13/37/3
f 14/36/3 9/38/3 8/39/3
