## ElementId 223673
## Vertice Count:16
## Triangle Count:28
mtllib 223673.mtl
o 223673

v 2.8836 12.1586 4.3011
v 2.2836 11.5586 4.3011
v 2.2836 11.5586 3.7011
v 8.0836 11.5586 3.7011
v 7.4836 12.1586 4.3011
v 8.0836 11.5586 8.8711
v 7.4836 11.5586 8.8711
v 7.4836 12.1586 8.2711
v 2.2836 11.7 4.3011
v 2.8836 12.3 4.3011
v 2.2836 11.7 3.7011
v 7.4836 11.7 8.8711
v 8.0836 11.7 8.8711
v 7.4836 12.3 8.2711
v 7.4836 12.3 4.3011
v 8.0836 11.7 3.7011
vt -4.3011 2.3633
vt -4.3011 1.5148
vt -3.7011 1.5148
vt 8.0836 2.5171
vt 7.4836 3.3656
vt 2.8836 3.3656
vt 2.2836 2.5171
vt -8.0836 -6.3728
vt -7.4836 -6.3728
vt -7.4836 -5.5243
vt 4.3011 -4.9675
vt 3.7011 -5.816
vt 8.8711 -5.816
vt 8.2711 -4.9675
vt 4.3011 1.6148
vt 4.3011 2.4633
vt 3.7011 1.6148
vt 7.4836 -6.2728
vt 8.0836 -6.2728
vt 7.4836 -5.4243
vt -4.3011 -4.8675
vt -8.2711 -4.8675
vt -8.8711 -5.716
vt -3.7011 -5.716
vt -7.4836 3.4656
vt -8.0836 2.6171
vt -2.2836 2.6171
vt -2.8836 3.4656
vt 8.0836 -0.1414
vt 8.0836 0
vt 7.4836 0
vt 7.4836 -0.1414
vt -3.7011 -0.1414
vt -3.7011 0
vt -8.8711 0
vt -8.8711 -0.1414
vt -2.2836 -0.1414
vt -2.2836 0
vt -8.0836 0
vt -8.0836 -0.1414
vt 4.3011 -0.1414
vt 4.3011 0
vt 3.7011 0
vt 3.7011 -0.1414
vt 7.4836 0.6
vt 2.8836 0.6
vt 2.2836 0
vt 2.2836 -0.1414
vt 2.8836 0.4586
vt 7.4836 0.4586
vt 8.8711 0
vt 8.2711 0.6
vt 4.3011 0.6
vt 4.3011 0.4586
vt 8.2711 0.4586
vt 8.8711 -0.1414
vn 0.2155 -0.2155 0
vn 0 -0.2155 0.2155
vn 0 -0.2155 -0.2155
vn -0.2155 -0.2155 0
vn -0.2155 0.2155 0
vn 0 0.2155 0.2155
vn 0.2155 0.2155 0
vn 0 0.2155 -0.2155
vn 0 0 0.3048
vn 0.3048 0 0
vn 0 0 -0.3048
vn -0.3048 0 0

usemtl 54872
f 1/1/1 2/2/1 3/3/1
f 1/6/2 4/4/2 5/5/2
f 4/4/2 1/6/2 3/7/2
f 6/8/3 7/9/3 8/10/3
f 4/12/4 6/13/4 8/14/4
f 8/14/4 5/11/4 4/12/4
f 11/17/5 9/15/5 10/16/5
f 14/20/6 12/18/6 13/19/6
f 14/22/7 13/23/7 16/24/7
f 16/24/7 15/21/7 14/22/7
f 15/25/8 16/26/8 10/28/8
f 11/27/8 10/28/8 16/26/8
f 12/31/9 7/32/9 13/30/9
f 6/29/9 13/30/9 7/32/9
f 13/35/10 6/36/10 16/34/10
f 4/33/10 16/34/10 6/36/10
f 16/39/11 4/40/11 3/37/11
f 3/37/11 11/38/11 16/39/11
f 11/43/12 3/44/12 9/42/12
f 2/41/12 9/42/12 3/44/12
f 9/47/9 1/49/9 10/46/9
f 1/49/9 9/47/9 2/48/9
f 1/49/9 5/50/9 15/45/9
f 1/49/9 15/45/9 10/46/9
f 15/53/12 5/54/12 8/55/12
f 15/53/12 8/55/12 14/52/12
f 8/55/12 12/51/12 14/52/12
f 12/51/12 8/55/12 7/56/12
