## ElementId 224348
## Vertice Count:36
## Triangle Count:68
mtllib 224348.mtl
o 224348

v 6.2141 3.9493 17.8559
v 6.2141 4.668 16.6111
v 5.7932 4.668 16.6111
v 5.7932 3.9493 17.8559
v 5.7932 5 16.6111
v 5.7932 5 16.3011
v 5.7932 4.76 16.3011
v 5.7932 4.76 16.3711
v 5.7932 4.5294 16.3711
v 5.7932 3.7626 17.6992
v 5.8332 4.5294 16.3711
v 5.8332 3.7776 17.6733
v 6.1741 3.7776 17.6733
v 6.1741 4.5294 16.3711
v 6.2141 4.5294 16.3711
v 6.2141 3.7626 17.6992
v 5.8332 4.76 16.3711
v 5.8332 4.76 16.3011
v 5.8332 4.4775 16.3011
v 5.8332 3.7154 17.621
v 5.8632 4.4775 16.3011
v 5.8632 3.7304 17.5951
v 6.1441 3.7304 17.5951
v 6.1441 4.4775 16.3011
v 6.1741 4.4775 16.3011
v 6.1741 3.7154 17.621
v 5.8632 4.3389 16.3011
v 5.8632 3.6371 17.5167
v 6.1441 4.3389 16.3011
v 6.1441 3.6371 17.5167
v 6.1741 4.76 16.3711
v 6.1741 4.76 16.3011
v 6.2141 4.76 16.3711
v 6.2141 4.76 16.3011
v 6.2141 5 16.3011
v 6.2141 5 16.6111
vt 0.2105 -0.7187
vt 0.2105 0.7187
vt -0.2105 0.7187
vt -0.2105 -0.7187
vt 0.7986 -0.4885
vt -0.4461 0.2301
vt -0.4461 0.5621
vt -0.7561 0.5621
vt -0.7561 0.3221
vt -0.6861 0.3221
vt -0.6861 0.0916
vt 0.642 -0.6752
vt 0.2105 0.7668
vt 0.1705 0.7668
vt 0.1705 -0.7368
vt -0.1705 -0.7368
vt -0.1705 0.7668
vt -0.2105 0.7668
vt -0.2105 -0.7668
vt 0.2105 -0.7668
vt -0.6048 0.2801
vt -0.6048 0.5107
vt -0.6748 0.5107
vt -0.6748 0.2281
vt 0.6451 -0.5339
vt 0.6973 -0.4717
vt 0.1705 0.7621
vt 0.1405 0.7621
vt 0.1405 -0.7321
vt -0.1405 -0.7321
vt -0.1405 0.7621
vt -0.1705 0.7621
vt -0.1705 -0.7621
vt 0.1705 -0.7621
vt 0.677 -0.3216
vt -0.617 0.4255
vt -0.617 0.2869
vt 0.5986 -0.4149
vt 0.1405 -0.7018
vt 0.1405 0.7018
vt -0.1405 0.7018
vt -0.1405 -0.7018
vt -0.5986 -0.4149
vt 0.617 0.2869
vt 0.617 0.4255
vt -0.677 -0.3216
vt 0.6048 0.5107
vt 0.6048 0.2801
vt -0.6973 -0.4717
vt -0.6451 -0.5339
vt 0.6748 0.2281
vt 0.6748 0.5107
vt 0.4461 0.2301
vt -0.7986 -0.4885
vt -0.642 -0.6752
vt 0.6861 0.0916
vt 0.6861 0.3221
vt 0.7561 0.3221
vt 0.7561 0.5621
vt 0.4461 0.5621
vt -0.2105 -0.166
vt 0.2105 -0.166
vt 0.2105 0.166
vt -0.2105 0.166
vt 0.02 -0.1153
vt 0.02 0.1153
vt -0.02 0.1153
vt -0.02 -0.1153
vt 0.2105 0.155
vt -0.2105 0.155
vt -0.2105 -0.155
vt 0.2105 -0.155
vt 0.02 0.035
vt -0.02 0.035
vt -0.02 -0.035
vt 0.02 -0.035
vt 0.2105 0.0906
vt 0.2105 0.3306
vt -0.2105 0.3306
vt -0.2105 0.0906
vt -0.1705 0.0906
vt -0.1705 -0.192
vt -0.1405 -0.192
vt -0.1405 -0.3306
vt 0.1405 -0.3306
vt 0.1405 -0.192
vt 0.1705 -0.192
vt 0.1705 0.0906
vt -0.2105 -0.1219
vt 0.2105 -0.1219
vt 0.2105 0.1219
vt -0.2105 0.1219
vt 0.1405 0.0609
vt -0.1405 0.0609
vt -0.1405 -0.0609
vt 0.1405 -0.0609
vt -0.1705 -0.0406
vt 0.1705 -0.0406
vt 0.1705 0.0406
vt -0.1705 0.0406
vn 0 0.264 0.1524
vn -0.3048 0 0
vn 0 -0.264 -0.1524
vn 0.3048 0 0
vn 0 0 0.3048
vn 0 0 -0.3048
vn 0 0.3048 0
vn 0 -0.3048 0
vn 0 -0.1959 0.2335

usemtl 90484
f 4/4/1 1/1/1 3/3/1
f 2/2/1 3/3/1 1/1/1
f 4/5/2 3/6/2 10/12/2
f 9/11/2 10/12/2 3/6/2
f 3/6/2 8/10/2 9/11/2
f 5/7/2 6/8/2 8/10/2
f 7/9/2 8/10/2 6/8/2
f 5/7/2 8/10/2 3/6/2
f 10/20/3 12/15/3 13/16/3
f 12/15/3 10/20/3 9/13/3
f 16/19/3 13/16/3 15/18/3
f 13/16/3 16/19/3 10/20/3
f 9/13/3 11/14/3 12/15/3
f 14/17/3 15/18/3 13/16/3
f 12/26/2 11/21/2 20/25/2
f 20/25/2 11/21/2 19/24/2
f 11/21/2 18/23/2 19/24/2
f 18/23/2 11/21/2 17/22/2
f 20/34/3 22/29/3 23/30/3
f 22/29/3 20/34/3 19/27/3
f 26/33/3 23/30/3 25/32/3
f 23/30/3 26/33/3 20/34/3
f 19/27/3 21/28/3 22/29/3
f 24/31/3 25/32/3 23/30/3
f 28/38/2 22/35/2 27/37/2
f 21/36/2 27/37/2 22/35/2
f 30/42/3 28/39/3 27/40/3
f 27/40/3 29/41/3 30/42/3
f 23/46/4 30/43/4 29/44/4
f 29/44/4 24/45/4 23/46/4
f 13/49/4 26/50/4 14/48/4
f 14/48/4 26/50/4 25/51/4
f 32/52/4 31/47/4 14/48/4
f 32/52/4 14/48/4 25/51/4
f 16/55/4 15/56/4 2/53/4
f 2/53/4 1/54/4 16/55/4
f 15/56/4 33/57/4 2/53/4
f 33/57/4 34/58/4 35/59/4
f 35/59/4 36/60/4 33/57/4
f 33/57/4 36/60/4 2/53/4
f 3/61/5 2/62/5 36/63/5
f 36/63/5 5/64/5 3/61/5
f 11/68/6 9/65/6 17/67/6
f 8/66/6 17/67/6 9/65/6
f 15/68/6 14/65/6 31/66/6
f 31/66/6 33/67/6 15/68/6
f 5/69/7 36/70/7 6/72/7
f 35/71/7 6/72/7 36/70/7
f 17/73/8 8/74/8 18/76/8
f 7/75/8 18/76/8 8/74/8
f 33/73/8 31/74/8 32/75/8
f 32/75/8 34/76/8 33/73/8
f 34/80/6 32/81/6 35/79/6
f 18/88/6 35/79/6 32/81/6
f 32/81/6 25/82/6 24/83/6
f 21/86/6 24/83/6 29/84/6
f 24/83/6 21/86/6 32/81/6
f 7/77/6 6/78/6 18/88/6
f 35/79/6 18/88/6 6/78/6
f 18/88/6 21/86/6 19/87/6
f 29/84/6 27/85/6 21/86/6
f 32/81/6 21/86/6 18/88/6
f 4/92/9 16/90/9 1/91/9
f 16/90/9 4/92/9 10/89/9
f 22/94/9 30/96/9 23/93/9
f 30/96/9 22/94/9 28/95/9
f 12/100/9 26/98/9 13/99/9
f 26/98/9 12/100/9 20/97/9
