## ElementId 227115
## Vertice Count:16
## Triangle Count:28
mtllib 227115.mtl
o 227115

v 7.4836 11.7 4.3011
v 3.0836 11.7 4.3011
v 3.0836 12.1586 4.3011
v 3.0836 12.3 4.3011
v 3.0836 12.5 4.3011
v 7.4836 12.5 4.3011
v 7.4836 12.3 4.3011
v 7.4836 12.1586 4.3011
v 3.0836 11.7 4.5011
v 7.2836 11.7 4.5011
v 7.4836 11.7 4.5011
v 7.4836 12.1586 4.5011
v 7.4836 12.3 4.5011
v 7.4836 12.5 4.5011
v 7.2836 12.5 4.5011
v 3.0836 12.5 4.5011
vt -0.1 0
vt 4.3 0
vt 4.3 0.4586
vt 4.3 0.6
vt 4.3 0.8
vt -0.1 0.8
vt -0.1 0.6
vt -0.1 0.4586
vt -4.3 0
vt 0.1 0
vt 0.1 0.4586
vt 0.1 0.6
vt 0.1 0.8
vt -4.3 0.8
vt 4.3 0.1
vt -0.1 0.1
vt -0.1 -0.1
vt 0.1 -0.1
vt 4.3 -0.1
vt 0.1 0.1
vn 0 0 -0.3048
vn 0 0 0.3048
vn 0 -0.3048 0
vn 0 0.3048 0
vn 0.3048 0 0
vn -0.3048 0 0

usemtl 90484
f 8/8/1 1/1/1 2/2/1
f 6/6/1 7/7/1 5/5/1
f 8/8/1 4/4/1 7/7/1
f 2/2/1 3/3/1 8/8/1
f 4/4/1 5/5/1 7/7/1
f 3/3/1 4/4/1 8/8/1
f 9/9/2 10/1/2 16/14/2
f 15/6/2 16/14/2 10/1/2
f 10/1/2 12/11/2 15/6/2
f 11/10/2 12/11/2 10/1/2
f 13/12/2 14/13/2 15/6/2
f 12/11/2 13/12/2 15/6/2
f 2/15/3 1/16/3 10/18/3
f 11/17/3 10/18/3 1/16/3
f 10/18/3 9/19/3 2/15/3
f 6/17/4 5/19/4 15/20/4
f 16/15/4 15/20/4 5/19/4
f 15/20/4 14/16/4 6/17/4
f 12/8/5 11/1/5 1/10/5
f 7/12/5 14/6/5 13/7/5
f 13/7/5 12/8/5 8/11/5
f 1/10/5 8/11/5 12/8/5
f 6/13/5 14/6/5 7/12/5
f 7/12/5 13/7/5 8/11/5
f 3/8/6 9/10/6 16/13/6
f 2/1/6 9/10/6 3/8/6
f 4/7/6 3/8/6 16/13/6
f 16/13/6 5/6/6 4/7/6
