## ElementId 227353
## Vertice Count:16
## Triangle Count:28
mtllib 227353.mtl
o 227353

v 7.2836 14.4 8.2711
v 7.2836 14.4 13.3711
v 7.2836 14.4 13.5711
v 7.2836 14.8586 13.5711
v 7.2836 15 13.5711
v 7.2836 15.2 13.5711
v 7.2836 15.2 13.3711
v 7.2836 15.2 8.2711
v 7.4836 14.4 13.5711
v 7.4836 14.4 8.2711
v 7.4836 14.8586 8.2711
v 7.4836 15 8.2711
v 7.4836 15.2 8.2711
v 7.4836 15.2 13.5711
v 7.4836 15 13.5711
v 7.4836 14.8586 13.5711
vt 0.1 0
vt 5.2 0
vt 5.4 0
vt 5.4 0.4586
vt 5.4 0.6
vt 5.4 0.8
vt 5.2 0.8
vt 0.1 0.8
vt -5.4 0
vt -0.1 0
vt -0.1 0.4586
vt -0.1 0.6
vt -0.1 0.8
vt -5.4 0.8
vt -5.4 0.6
vt -5.4 0.4586
vt 5.4 0.1
vt 5.2 0.1
vt 0.1 0.1
vt 0.1 -0.1
vt 5.4 -0.1
vt 5.2 -0.1
vt 0.1 0.4586
vt 0.1 0.6
vn -0.3048 0 0
vn 0.3048 0 0
vn 0 -0.3048 0
vn 0 0.3048 0
vn 0 0 -0.3048
vn 0 0 0.3048

usemtl 90484
f 1/1/1 2/2/1 8/8/1
f 7/7/1 8/8/1 2/2/1
f 2/2/1 4/4/1 7/7/1
f 3/3/1 4/4/1 2/2/1
f 5/5/1 6/6/1 7/7/1
f 4/4/1 5/5/1 7/7/1
f 16/16/2 9/9/2 10/10/2
f 14/14/2 15/15/2 13/13/2
f 16/16/2 12/12/2 15/15/2
f 10/10/2 11/11/2 16/16/2
f 12/12/2 13/13/2 15/15/2
f 11/11/2 12/12/2 16/16/2
f 2/18/3 10/20/3 9/21/3
f 10/20/3 2/18/3 1/19/3
f 2/18/3 9/21/3 3/17/3
f 7/22/4 14/17/4 13/19/4
f 14/17/4 7/22/4 6/21/4
f 7/22/4 13/19/4 8/20/4
f 11/11/5 1/1/5 8/8/5
f 10/10/5 1/1/5 11/11/5
f 12/12/5 11/11/5 8/8/5
f 8/8/5 13/13/5 12/12/5
f 4/11/6 3/10/6 9/1/6
f 15/24/6 6/13/6 5/12/6
f 5/12/6 4/11/6 16/23/6
f 9/1/6 16/23/6 4/11/6
f 14/8/6 6/13/6 15/24/6
f 15/24/6 5/12/6 16/23/6
