## ElementId 227385
## Vertice Count:12
## Triangle Count:20
mtllib 227385.mtl
o 227385

v 7.2836 14.4 13.3711
v 3.0836 14.4 13.3711
v 3.0836 15.2 13.3711
v 7.2836 15.2 13.3711
v 3.0836 14.4 13.5711
v 7.2836 14.4 13.5711
v 7.2836 14.8586 13.5711
v 7.2836 15 13.5711
v 7.2836 15.2 13.5711
v 3.0836 15.2 13.5711
v 3.0836 15 13.5711
v 3.0836 14.8586 13.5711
vt 0.1 0
vt 4.3 0
vt 4.3 0.8
vt 0.1 0.8
vt -4.3 0
vt -0.1 0
vt -0.1 0.4586
vt -0.1 0.6
vt -0.1 0.8
vt -4.3 0.8
vt -4.3 0.6
vt -4.3 0.4586
vt 4.3 0.1
vt 0.1 0.1
vt 0.1 -0.1
vt 4.3 -0.1
vt 0.1 0.4586
vt 0.1 0.6
vn 0 0 -0.3048
vn 0 0 0.3048
vn 0 -0.3048 0
vn 0 0.3048 0
vn 0.3048 0 0
vn -0.3048 0 0

usemtl 90484
f 4/4/1 1/1/1 2/2/1
f 2/2/1 3/3/1 4/4/1
f 12/12/2 5/5/2 6/6/2
f 10/10/2 11/11/2 9/9/2
f 12/12/2 8/8/2 11/11/2
f 6/6/2 7/7/2 12/12/2
f 8/8/2 9/9/2 11/11/2
f 7/7/2 8/8/2 12/12/2
f 2/13/3 1/14/3 6/15/3
f 6/15/3 5/16/3 2/13/3
f 4/15/4 3/16/4 10/13/4
f 10/13/4 9/14/4 4/15/4
f 7/7/5 1/1/5 4/4/5
f 6/6/5 1/1/5 7/7/5
f 8/8/5 7/7/5 4/4/5
f 4/4/5 9/9/5 8/8/5
f 3/9/6 11/18/6 10/4/6
f 3/9/6 2/6/6 12/17/6
f 5/1/6 12/17/6 2/6/6
f 11/18/6 3/9/6 12/17/6
