## ElementId 227316
## Vertice Count:16
## Triangle Count:28
mtllib 227316.mtl
o 227316

v 3.0836 14.4 8.2711
v 7.2836 14.4 8.2711
v 7.4836 14.4 8.2711
v 7.4836 14.8586 8.2711
v 7.4836 15 8.2711
v 7.4836 15.2 8.2711
v 7.2836 15.2 8.2711
v 3.0836 15.2 8.2711
v 7.4836 14.4 8.0711
v 3.0836 14.4 8.0711
v 3.0836 14.8586 8.0711
v 3.0836 15 8.0711
v 3.0836 15.2 8.0711
v 7.4836 15.2 8.0711
v 7.4836 15 8.0711
v 7.4836 14.8586 8.0711
vt 0 0
vt 4.2 0
vt 4.4 0
vt 4.4 0.4586
vt 4.4 0.6
vt 4.4 0.8
vt 4.2 0.8
vt 0 0.8
vt -4.4 0
vt 0 0.4586
vt 0 0.6
vt -4.4 0.8
vt -4.4 0.6
vt -4.4 0.4586
vt 4.4 0.1
vt 4.2 0.1
vt 0 0.1
vt 0 -0.1
vt 4.4 -0.1
vt 4.2 -0.1
vt 0.1 0
vt 0.1 0.8
vt -0.1 0.8
vt -0.1 0.6
vt -0.1 0.4586
vt -0.1 0
vt 0.1 0.4586
vt 0.1 0.6
vn 0 0 0.3048
vn 0 0 -0.3048
vn 0 -0.3048 0
vn 0 0.3048 0
vn -0.3048 0 0
vn 0.3048 0 0

usemtl 90484
f 1/1/1 2/2/1 8/8/1
f 7/7/1 8/8/1 2/2/1
f 2/2/1 4/4/1 7/7/1
f 3/3/1 4/4/1 2/2/1
f 5/5/1 6/6/1 7/7/1
f 4/4/1 5/5/1 7/7/1
f 16/14/2 9/9/2 10/1/2
f 14/12/2 15/13/2 13/8/2
f 16/14/2 12/11/2 15/13/2
f 10/1/2 11/10/2 16/14/2
f 12/11/2 13/8/2 15/13/2
f 11/10/2 12/11/2 16/14/2
f 2/16/3 10/18/3 9/19/3
f 10/18/3 2/16/3 1/17/3
f 2/16/3 9/19/3 3/15/3
f 7/20/4 14/15/4 13/17/4
f 14/15/4 7/20/4 6/19/4
f 7/20/4 13/17/4 8/18/4
f 1/21/5 8/22/5 11/25/5
f 11/25/5 8/22/5 12/24/5
f 1/21/5 11/25/5 10/26/5
f 13/23/5 12/24/5 8/22/5
f 4/25/6 3/26/6 9/21/6
f 15/28/6 6/23/6 5/24/6
f 5/24/6 4/25/6 16/27/6
f 9/21/6 16/27/6 4/25/6
f 14/22/6 6/23/6 15/28/6
f 15/28/6 5/24/6 16/27/6
