## ElementId 228206
## Vertice Count:28
## Triangle Count:58
mtllib 228206.mtl
o 228206

v 3.1136 12.75 15.5011
v 3.1136 12.63 15.5011
v 3.0836 12.63 15.5011
v 3.0836 12.75 15.5011
v 3.1136 12.75 16.0711
v 2.8536 12.75 16.3311
v 2.8536 12.63 16.3311
v 3.1136 12.63 16.0711
v 2.8536 12.63 15.6311
v 2.8836 12.63 15.6311
v 2.8836 12.63 15.6011
v 3.0836 12.63 15.6011
v 2.8536 12.75 15.6311
v 3.0836 12.75 15.6011
v 2.8836 12.75 15.6011
v 2.8836 12.75 15.6311
v 3.0836 11.82 16.1011
v 2.8836 11.82 16.3011
v 2.8836 11.7 16.3011
v 3.0836 11.7 16.1011
v 3.0836 11.7 15.6011
v 3.0836 11.82 15.6011
v 2.8836 11.7 15.6011
v 2.8836 11.82 15.6011
v 2.8836 12.63 16.3011
v 3.0836 11.82 16.3011
v 3.0836 12.63 16.1011
v 3.0836 12.63 16.3011
vt -0.015 0.06
vt -0.015 -0.06
vt 0.015 -0.06
vt 0.015 0.06
vt 0.3818 0
vt 0.7495 0
vt 0.7495 0.12
vt 0.3818 0.12
vt 0 0.12
vt 0 0
vt 0.57 0
vt 0.57 0.12
vt 0.57 -0.03
vt 0.83 0.23
vt 0.13 0.23
vt 0.13 0.2
vt 0.1 0.2
vt 0.1 0
vt 0 -0.03
vt 0.83 -0.12
vt 0.83 0
vt 0.13 0
vt 0.13 -0.12
vt 0.83 -0.23
vt 0.57 0.03
vt 0 0.03
vt 0.1 -0.2
vt 0.13 -0.2
vt 0.13 -0.23
vt -0.1 0.06
vt -0.1 -0.06
vt 0.1 -0.06
vt 0.1 0.06
vt 0.1 -0.12
vt 0 -0.12
vt 0.4243 0
vt 0.7071 0
vt 0.7071 0.12
vt 0.4243 0.12
vt 0.6 0
vt 0.6 0.12
vt 0.1 0.12
vt 0.8 0.2
vt 0.8 -0.12
vt 0.8 0
vt 0.8 -0.2
vt 0.8 0.12
vt 0.8 0.93
vt 0.13 0.93
vt 0.1 0.93
vt -0.8 0.12
vt -0.6 0.12
vt -0.1 0.12
vt -0.1 0.93
vt -0.6 0.93
vt -0.8 0.93
vt 0.6 -0.1
vt 0.8 -0.1
vt 0.8 0.1
vt 0.1 0.1
vt 0.1 -0.1
vt 0.6 0.1
vt 0.13 -0.1
vn 0 0 -0.3048
vn 0.2155 0 0.2155
vn 0.3048 0 0
vn 0 -0.3048 0
vn -0.3048 0 0
vn 0 0.3048 0
vn 0 0 0.3048

usemtl 54872
f 3/3/1 4/4/1 1/1/1
f 1/1/1 2/2/1 3/3/1
f 6/6/2 7/7/2 5/5/2
f 8/8/2 5/5/2 7/7/2
f 2/9/3 1/10/3 5/11/3
f 5/11/3 8/12/3 2/9/3
f 3/10/4 2/19/4 12/18/4
f 11/17/4 12/18/4 10/16/4
f 2/19/4 8/13/4 12/18/4
f 10/16/4 8/13/4 9/15/4
f 8/13/4 10/16/4 12/18/4
f 7/14/4 9/15/4 8/13/4
f 13/22/5 9/23/5 6/21/5
f 7/20/5 6/21/5 9/23/5
f 14/18/6 15/27/6 16/28/6
f 1/26/6 4/10/6 14/18/6
f 14/18/6 5/25/6 1/26/6
f 13/29/6 6/24/6 5/25/6
f 16/28/6 5/25/6 14/18/6
f 5/25/6 16/28/6 13/29/6
f 12/31/1 11/32/1 15/33/1
f 15/33/1 14/30/1 12/31/1
f 4/10/5 12/34/5 14/18/5
f 12/34/5 4/10/5 3/35/5
f 11/34/5 10/23/5 16/22/5
f 16/22/5 15/18/5 11/34/5
f 16/1/1 9/3/1 13/4/1
f 9/3/1 16/1/1 10/2/1
f 18/37/2 19/38/2 17/36/2
f 20/39/2 17/36/2 19/38/2
f 21/42/3 22/18/3 17/40/3
f 17/40/3 20/41/3 21/42/3
f 23/17/4 21/18/4 20/40/4
f 20/40/4 19/43/4 23/17/4
f 24/18/5 23/34/5 19/44/5
f 19/44/5 18/45/5 24/18/5
f 22/18/6 24/27/6 17/40/6
f 18/46/6 17/40/6 24/27/6
f 21/31/1 23/32/1 24/33/1
f 24/33/1 22/30/1 21/31/1

usemtl 31
f 11/50/5 24/42/5 10/49/5
f 10/49/5 18/47/5 25/48/5
f 18/47/5 10/49/5 24/42/5
f 27/55/3 28/56/3 17/52/3
f 17/52/3 28/56/3 26/51/3
f 17/52/3 22/53/3 12/54/3
f 17/52/3 12/54/3 27/55/3
f 25/54/7 18/53/7 26/42/7
f 26/42/7 28/50/7 25/54/7
f 17/57/4 24/60/4 22/61/4
f 26/58/4 18/59/4 17/57/4
f 24/60/4 17/57/4 18/59/4
f 10/63/6 12/60/6 11/61/6
f 27/62/6 12/60/6 10/63/6
f 25/58/6 28/59/6 27/62/6
f 10/63/6 25/58/6 27/62/6
f 12/54/1 24/42/1 11/50/1
f 24/42/1 12/54/1 22/53/1
