## ElementId 228253
## Vertice Count:38
## Triangle Count:72
mtllib 228253.mtl
o 228253

v 3.1136 12.75 16.0711
v 3.1136 12.63 16.0711
v 2.8536 12.63 16.3311
v 2.8536 12.75 16.3311
v 4.2136 12.75 16.0711
v 4.2136 12.75 16.3311
v 4.2136 12.63 16.3311
v 4.2136 12.63 16.0711
v 6.1536 12.75 16.0711
v 6.1536 12.63 16.0711
v 6.1536 12.63 16.3311
v 6.1536 12.75 16.3311
v 7.2536 12.75 16.0711
v 7.5136 12.75 16.3311
v 7.5136 12.63 16.3311
v 7.2536 12.63 16.0711
v 3.0836 11.82 16.1011
v 3.0836 11.7 16.1011
v 2.8836 11.7 16.3011
v 2.8836 11.82 16.3011
v 7.2836 11.82 16.1011
v 7.4836 11.82 16.3011
v 7.4836 11.7 16.3011
v 7.2836 11.7 16.1011
v 4.1836 11.82 16.1011
v 6.1836 11.82 16.1011
v 7.2836 11.82 16.3011
v 6.1836 11.82 16.3011
v 4.1836 11.82 16.3011
v 3.0836 11.82 16.3011
v 6.1836 12.63 16.3011
v 7.2836 12.63 16.3011
v 4.1836 12.63 16.3011
v 3.0836 12.63 16.3011
v 6.1836 12.63 16.1011
v 7.2836 12.63 16.1011
v 4.1836 12.63 16.1011
v 3.0836 12.63 16.1011
vt -2.1284 0
vt -2.1284 0.12
vt -2.4961 0.12
vt -2.4961 0
vt 0.13 0.06
vt -0.13 0.06
vt -0.13 -0.06
vt 0.13 -0.06
vt -3.04 0.12
vt -3.04 0
vt -1.94 0
vt -1.94 0.12
vt -3.3 0.23
vt -3.04 -0.03
vt -1.94 -0.03
vt -1.94 0.23
vt -3.3 0
vt -3.3 -0.12
vt -1.94 -0.12
vt -3.04 0.03
vt -3.3 -0.23
vt -1.94 -0.23
vt -1.94 0.03
vt 0.7566 0
vt 1.1243 0
vt 1.1243 0.12
vt 0.7566 0.12
vt 0 0.12
vt 0 0
vt 1.1 0
vt 1.1 0.12
vt 0 0.23
vt 0 -0.03
vt 1.1 -0.03
vt 1.36 0.23
vt 0 -0.12
vt 1.36 -0.12
vt 1.36 0
vt 0 0.03
vt 0 -0.23
vt 1.36 -0.23
vt 1.1 0.03
vt -0.2828 0.12
vt -0.2828 0
vt 2.9698 0
vt 3.2527 0
vt 3.2527 0.12
vt 2.9698 0.12
vt 3.1 0
vt 4.2 0
vt 4.2 0.12
vt -0.2 0.2
vt 4.4 0.2
vt -0.2 0
vt -0.2 -0.12
vt 4.4 -0.12
vt 4.4 0
vt -0.2 -0.2
vt 0 -0.2
vt 1.1 -0.2
vt 3.1 -0.2
vt 4.2 -0.2
vt 4.4 -0.2
vt 3.2 0.93
vt 3.2 0.12
vt 4.3 0.12
vt 4.3 0.93
vt 1.2 0.12
vt 1.2 0.93
vt 0.1 0.93
vt 0.1 0.12
vt -3.2 0.12
vt -3.2 0.93
vt -4.3 0.93
vt -4.3 0.12
vt -1.2 0.93
vt -1.2 0.12
vt -0.1 0.12
vt -0.1 0.93
vt 4.3 0.1
vt 3.2 0.1
vt 3.2 -0.1
vt 4.3 -0.1
vt 1.2 0.1
vt 0.1 0.1
vt 0.1 -0.1
vt 1.2 -0.1
vn -0.2155 0 -0.2155
vn 0.3048 0 0
vn 0 0 -0.3048
vn 0 -0.3048 0
vn 0 0 0.3048
vn 0 0.3048 0
vn -0.3048 0 0
vn 0.2155 0 -0.2155

usemtl 54872
f 2/2/1 3/3/1 4/4/1
f 4/4/1 1/1/1 2/2/1
f 6/6/2 7/7/2 5/5/2
f 8/8/2 5/5/2 7/7/2
f 2/9/3 1/10/3 5/11/3
f 5/11/3 8/12/3 2/9/3
f 3/13/4 2/14/4 7/16/4
f 8/15/4 7/16/4 2/14/4
f 4/17/5 3/18/5 7/19/5
f 7/19/5 6/11/5 4/17/5
f 1/20/6 4/21/6 6/22/6
f 6/22/6 5/23/6 1/20/6
f 10/7/7 11/8/7 12/5/7
f 12/5/7 9/6/7 10/7/7
f 14/25/8 15/26/8 13/24/8
f 16/27/8 13/24/8 15/26/8
f 10/28/3 9/29/3 13/30/3
f 13/30/3 16/31/3 10/28/3
f 11/32/4 10/33/4 16/34/4
f 16/34/4 15/35/4 11/32/4
f 12/29/5 11/36/5 15/37/5
f 15/37/5 14/38/5 12/29/5
f 9/39/6 12/40/6 13/42/6
f 14/41/6 13/42/6 12/40/6
f 17/29/1 19/43/1 20/44/1
f 19/43/1 17/29/1 18/28/1
f 22/46/8 23/47/8 24/48/8
f 24/48/8 21/45/8 22/46/8
f 18/28/3 17/29/3 25/30/3
f 18/28/3 25/30/3 24/51/3
f 26/49/3 21/50/3 24/51/3
f 26/49/3 24/51/3 25/30/3
f 19/52/4 18/29/4 24/50/4
f 24/50/4 23/53/4 19/52/4
f 19/55/5 29/30/5 30/29/5
f 29/30/5 19/55/5 23/56/5
f 30/29/5 20/54/5 19/55/5
f 28/49/5 23/56/5 27/50/5
f 23/56/5 28/49/5 29/30/5
f 22/57/5 27/50/5 23/56/5
f 20/58/6 30/59/6 17/29/6
f 30/59/6 25/30/6 17/29/6
f 25/30/6 30/59/6 29/60/6
f 25/30/6 29/60/6 26/49/6
f 27/62/6 22/63/6 21/50/6
f 27/62/6 26/49/6 28/61/6
f 26/49/6 27/62/6 21/50/6
f 28/61/6 26/49/6 29/60/6

usemtl 31
f 31/64/5 28/65/5 27/66/5
f 27/66/5 32/67/5 31/64/5
f 34/70/5 30/71/5 33/69/5
f 29/68/5 33/69/5 30/71/5
f 36/74/3 21/75/3 26/72/3
f 26/72/3 35/73/3 36/74/3
f 37/76/3 25/77/3 17/78/3
f 17/78/3 38/79/3 37/76/3
f 28/71/7 31/70/7 35/79/7
f 35/79/7 26/78/7 28/71/7
f 33/79/2 29/78/2 25/71/2
f 25/71/2 37/70/2 33/79/2
f 17/78/7 30/71/7 34/70/7
f 34/70/7 38/79/7 17/78/7
f 27/78/2 21/71/2 36/70/2
f 36/70/2 32/79/2 27/78/2
f 27/80/4 26/82/4 21/83/4
f 26/82/4 27/80/4 28/81/4
f 30/85/4 17/86/4 25/87/4
f 25/87/4 29/84/4 30/85/4
f 34/86/6 37/84/6 38/85/6
f 37/84/6 34/86/6 33/87/6
f 36/80/6 35/81/6 31/82/6
f 31/82/6 32/83/6 36/80/6
