## ElementId 238653
## Vertice Count:208
## Triangle Count:368
mtllib 238653.mtl
o 238653

v 5.1836 12.565 16.2136
v 5.1836 12.59 16.2136
v 4.1836 12.59 16.2136
v 4.1836 12.565 16.2136
v 5.1836 11.94 16.2136
v 5.1836 11.965 16.2136
v 4.1836 11.965 16.2136
v 4.1836 11.94 16.2136
v 4.7357 12.2525 16.2136
v 4.7357 12.2775 16.2136
v 4.6316 12.2775 16.2136
v 4.6316 12.2525 16.2136
v 5.1836 12.7 16.2136
v 5.1836 12.75 16.2136
v 4.1836 12.75 16.2136
v 4.1836 12.7 16.2136
v 5.1836 12.565 16.1886
v 4.1836 12.565 16.1886
v 4.1836 12.59 16.1886
v 5.1836 12.59 16.1886
v 5.1836 11.94 16.1886
v 4.1836 11.94 16.1886
v 4.1836 11.965 16.1886
v 5.1836 11.965 16.1886
v 4.7357 12.2525 16.1886
v 4.6316 12.2525 16.1886
v 4.6316 12.2775 16.1886
v 4.7357 12.2775 16.1886
v 5.1836 12.7 16.1886
v 4.1836 12.7 16.1886
v 4.1836 12.75 16.1886
v 5.1836 12.75 16.1886
v 4.2833 12.565 16.2136
v 4.2583 12.565 16.2136
v 4.2583 11.965 16.2136
v 4.2833 11.965 16.2136
v 5.084 12.565 16.2136
v 5.084 11.965 16.2136
v 5.109 11.965 16.2136
v 5.109 12.565 16.2136
v 4.2833 12.565 16.1886
v 4.2833 11.965 16.1886
v 4.2583 11.965 16.1886
v 4.2583 12.565 16.1886
v 5.084 12.565 16.1886
v 5.109 12.565 16.1886
v 5.109 11.965 16.1886
v 5.084 11.965 16.1886
v 4.6711 12.14 16.2136
v 4.6711 12.06 16.2136
v 4.6961 12.06 16.2136
v 4.6961 12.14 16.2136
v 4.6711 12.39 16.2136
v 4.6961 12.39 16.2136
v 4.6961 12.47 16.2136
v 4.6711 12.47 16.2136
v 4.5098 12.495 16.2136
v 4.5348 12.495 16.2136
v 4.5348 12.565 16.2136
v 4.5098 12.565 16.2136
v 4.8575 12.495 16.2136
v 4.8575 12.565 16.2136
v 4.8325 12.565 16.2136
v 4.8325 12.495 16.2136
v 4.8575 12.035 16.2136
v 4.8325 12.035 16.2136
v 4.8325 11.965 16.2136
v 4.8575 11.965 16.2136
v 4.5098 12.035 16.2136
v 4.5098 11.965 16.2136
v 4.5348 11.965 16.2136
v 4.5348 12.035 16.2136
v 5.084 12.3888 16.2136
v 4.9636 12.3888 16.2136
v 4.9636 12.3638 16.2136
v 5.084 12.3638 16.2136
v 5.084 12.1412 16.2136
v 5.084 12.1662 16.2136
v 4.9636 12.1662 16.2136
v 4.9636 12.1412 16.2136
v 4.2833 12.1412 16.2136
v 4.4036 12.1412 16.2136
v 4.4036 12.1662 16.2136
v 4.2833 12.1662 16.2136
v 4.2833 12.3888 16.2136
v 4.2833 12.3638 16.2136
v 4.4036 12.3638 16.2136
v 4.4036 12.3888 16.2136
v 4.9386 12.2775 16.2136
v 4.8586 12.2775 16.2136
v 4.8586 12.2525 16.2136
v 4.9386 12.2525 16.2136
v 4.4286 12.2775 16.2136
v 4.4286 12.2525 16.2136
v 4.5086 12.2525 16.2136
v 4.5086 12.2775 16.2136
v 4.6066 12.165 16.2136
v 4.6316 12.165 16.2136
v 4.6316 12.365 16.2136
v 4.6066 12.365 16.2136
v 4.7607 12.165 16.2136
v 4.7607 12.365 16.2136
v 4.7357 12.365 16.2136
v 4.7357 12.165 16.2136
v 4.6711 12.14 16.1886
v 4.6961 12.14 16.1886
v 4.6961 12.06 16.1886
v 4.6711 12.06 16.1886
v 4.6711 12.39 16.1886
v 4.6711 12.47 16.1886
v 4.6961 12.47 16.1886
v 4.6961 12.39 16.1886
v 4.5098 12.495 16.1886
v 4.5098 12.565 16.1886
v 4.5348 12.565 16.1886
v 4.5348 12.495 16.1886
v 4.8575 12.495 16.1886
v 4.8325 12.495 16.1886
v 4.8325 12.565 16.1886
v 4.8575 12.565 16.1886
v 4.8575 12.035 16.1886
v 4.8575 11.965 16.1886
v 4.8325 11.965 16.1886
v 4.8325 12.035 16.1886
v 4.5098 12.035 16.1886
v 4.5348 12.035 16.1886
v 4.5348 11.965 16.1886
v 4.5098 11.965 16.1886
v 5.084 12.3888 16.1886
v 5.084 12.3638 16.1886
v 4.9636 12.3638 16.1886
v 4.9636 12.3888 16.1886
v 5.084 12.1412 16.1886
v 4.9636 12.1412 16.1886
v 4.9636 12.1662 16.1886
v 5.084 12.1662 16.1886
v 4.2833 12.1412 16.1886
v 4.2833 12.1662 16.1886
v 4.4036 12.1662 16.1886
v 4.4036 12.1412 16.1886
v 4.2833 12.3888 16.1886
v 4.4036 12.3888 16.1886
v 4.4036 12.3638 16.1886
v 4.2833 12.3638 16.1886
v 4.9386 12.2775 16.1886
v 4.9386 12.2525 16.1886
v 4.8586 12.2525 16.1886
v 4.8586 12.2775 16.1886
v 4.4286 12.2775 16.1886
v 4.5086 12.2775 16.1886
v 4.5086 12.2525 16.1886
v 4.4286 12.2525 16.1886
v 4.6066 12.165 16.1886
v 4.6066 12.365 16.1886
v 4.6316 12.365 16.1886
v 4.6316 12.165 16.1886
v 4.7607 12.165 16.1886
v 4.7357 12.165 16.1886
v 4.7357 12.365 16.1886
v 4.7607 12.365 16.1886
v 4.814 12.14 16.2136
v 4.8586 12.1846 16.2136
v 4.8586 12.3454 16.2136
v 4.814 12.39 16.2136
v 4.5533 12.39 16.2136
v 4.5086 12.3454 16.2136
v 4.5086 12.1846 16.2136
v 4.5533 12.14 16.2136
v 4.8036 12.165 16.2136
v 4.5636 12.165 16.2136
v 4.5336 12.195 16.2136
v 4.5336 12.335 16.2136
v 4.5636 12.365 16.2136
v 4.8036 12.365 16.2136
v 4.8336 12.335 16.2136
v 4.8336 12.195 16.2136
v 4.8471 12.06 16.2136
v 4.5202 12.06 16.2136
v 4.4286 12.1515 16.2136
v 4.4286 12.3785 16.2136
v 4.5202 12.47 16.2136
v 4.8471 12.47 16.2136
v 4.9386 12.3785 16.2136
v 4.9386 12.1515 16.2136
v 4.814 12.14 16.1886
v 4.5533 12.14 16.1886
v 4.5086 12.1846 16.1886
v 4.5086 12.3454 16.1886
v 4.5533 12.39 16.1886
v 4.814 12.39 16.1886
v 4.8586 12.3454 16.1886
v 4.8586 12.1846 16.1886
v 4.8036 12.165 16.1886
v 4.8336 12.195 16.1886
v 4.8336 12.335 16.1886
v 4.8036 12.365 16.1886
v 4.5636 12.365 16.1886
v 4.5336 12.335 16.1886
v 4.5336 12.195 16.1886
v 4.5636 12.165 16.1886
v 4.8471 12.06 16.1886
v 4.9386 12.1515 16.1886
v 4.9386 12.3785 16.1886
v 4.8471 12.47 16.1886
v 4.5202 12.47 16.1886
v 4.4286 12.3785 16.1886
v 4.4286 12.1515 16.1886
v 4.5202 12.06 16.1886
vt 0 0
vt 0.025 0
vt 0.025 1
vt 0 1
vt -0.625 0
vt -0.6 0
vt -0.6 1
vt -0.625 1
vt -0.3125 0.448
vt -0.2875 0.448
vt -0.2875 0.552
vt -0.3125 0.552
vt 0.135 0
vt 0.185 0
vt 0.185 1
vt 0.135 1
vt -0.025 1
vt -0.025 0
vt 0.625 0
vt 0.625 1
vt 0.6 1
vt 0.6 0
vt 0.3125 0.448
vt 0.3125 0.552
vt 0.2875 0.552
vt 0.2875 0.448
vt -0.135 0
vt -0.135 1
vt -0.185 1
vt -0.185 0
vt 0 0.025
vt 0.025 0.025
vt 0 0.104
vt 0.025 0.104
vt 0 0.05
vt 0.025 0.05
vt 0 0.6
vt -0.025 0.6
vt -0.8256 0
vt -0.8256 0.6
vt -0.8506 0.6
vt -0.8506 0
vt 0.025 0.6
vt 0.8256 0
vt 0.8506 0
vt 0.8506 0.6
vt 0.8256 0.6
vt 0.08 0
vt 0.08 0.025
vt -0.25 0
vt -0.25 0.025
vt -0.33 0.025
vt -0.33 0
vt -0.355 -0.1613
vt -0.355 -0.1363
vt -0.425 -0.1363
vt -0.425 -0.1613
vt -0.355 0.1863
vt -0.425 0.1863
vt -0.425 0.1613
vt -0.355 0.1613
vt 0.105 0.1863
vt 0.105 0.1613
vt 0.175 0.1613
vt 0.175 0.1863
vt 0.105 -0.1613
vt 0.175 -0.1613
vt 0.175 -0.1363
vt 0.105 -0.1363
vt -0.2488 0.4128
vt -0.2488 0.2925
vt -0.2238 0.2925
vt -0.2238 0.4128
vt -0.0012 0.4128
vt -0.0262 0.4128
vt -0.0262 0.2925
vt -0.0012 0.2925
vt -0.0012 -0.3878
vt -0.0012 -0.2675
vt -0.0262 -0.2675
vt -0.0262 -0.3878
vt -0.2488 -0.3878
vt -0.2238 -0.3878
vt -0.2238 -0.2675
vt -0.2488 -0.2675
vt -0.1375 0.2675
vt -0.1375 0.1875
vt -0.1125 0.1875
vt -0.1125 0.2675
vt -0.1375 -0.2425
vt -0.1125 -0.2425
vt -0.1125 -0.1625
vt -0.1375 -0.1625
vt -0.025 -0.0645
vt -0.025 -0.0395
vt -0.225 -0.0395
vt -0.225 -0.0645
vt -0.025 0.0895
vt -0.225 0.0895
vt -0.225 0.0645
vt -0.025 0.0645
vt -0.08 0.025
vt -0.08 0
vt 0.25 0
vt 0.33 0
vt 0.33 0.025
vt 0.25 0.025
vt 0.355 -0.1613
vt 0.425 -0.1613
vt 0.425 -0.1363
vt 0.355 -0.1363
vt 0.355 0.1863
vt 0.355 0.1613
vt 0.425 0.1613
vt 0.425 0.1863
vt -0.105 0.1863
vt -0.175 0.1863
vt -0.175 0.1613
vt -0.105 0.1613
vt -0.105 -0.1613
vt -0.105 -0.1363
vt -0.175 -0.1363
vt -0.175 -0.1613
vt 0.2488 0.4128
vt 0.2238 0.4128
vt 0.2238 0.2925
vt 0.2488 0.2925
vt 0.0012 0.4128
vt 0.0012 0.2925
vt 0.0262 0.2925
vt 0.0262 0.4128
vt 0.0012 -0.3878
vt 0.0262 -0.3878
vt 0.0262 -0.2675
vt 0.0012 -0.2675
vt 0.2488 -0.3878
vt 0.2488 -0.2675
vt 0.2238 -0.2675
vt 0.2238 -0.3878
vt 0.1375 0.2675
vt 0.1125 0.2675
vt 0.1125 0.1875
vt 0.1375 0.1875
vt 0.1375 -0.2425
vt 0.1375 -0.1625
vt 0.1125 -0.1625
vt 0.1125 -0.2425
vt 0.025 -0.0645
vt 0.225 -0.0645
vt 0.225 -0.0395
vt 0.025 -0.0395
vt 0.025 0.0895
vt 0.025 0.0645
vt 0.225 0.0645
vt 0.225 0.0895
vt 0 0.08
vt 0.025 0.08
vt 0 0.07
vt 0.025 0.07
vt 0 0.1203
vt 0.025 0.1203
vt 0 0.2
vt 0.025 0.2
vt -0.2504 0.025
vt -0.295 -0.0196
vt -0.295 -0.1804
vt -0.2504 -0.225
vt 0.0104 -0.225
vt 0.055 -0.1804
vt 0.055 -0.0196
vt 0.0104 0.025
vt -0.24 0
vt 0.03 -0.03
vt 0.03 -0.17
vt 0 -0.2
vt -0.24 -0.2
vt -0.27 -0.17
vt -0.27 -0.03
vt -0.2938 0.13
vt -0.4 0.0238
vt -0.4 -0.2238
vt -0.2938 -0.33
vt 0.0538 -0.33
vt 0.16 -0.2238
vt 0.16 0.0238
vt 0.0538 0.13
vt -0.2835 0.105
vt 0.0435 0.105
vt 0.135 0.0135
vt 0.135 -0.2135
vt 0.0435 -0.305
vt -0.2835 -0.305
vt -0.375 -0.2135
vt -0.375 0.0135
vt 0.2504 0.025
vt -0.0104 0.025
vt -0.055 -0.0196
vt -0.055 -0.1804
vt -0.0104 -0.225
vt 0.2504 -0.225
vt 0.295 -0.1804
vt 0.295 -0.0196
vt 0.24 0
vt 0.27 -0.03
vt 0.27 -0.17
vt 0.24 -0.2
vt -0.03 -0.17
vt -0.03 -0.03
vt 0.2938 0.13
vt -0.0538 0.13
vt -0.16 0.0238
vt -0.16 -0.2238
vt -0.0538 -0.33
vt 0.2938 -0.33
vt 0.4 -0.2238
vt 0.4 0.0238
vt 0.2835 0.105
vt 0.375 0.0135
vt 0.375 -0.2135
vt 0.2835 -0.305
vt -0.0435 -0.305
vt -0.135 -0.2135
vt -0.135 0.0135
vt -0.0435 0.105
vt 0 0.24
vt 0.025 0.24
vt 0 0.0424
vt 0.025 0.0424
vt 0 0.14
vt 0.025 0.14
vt 0 0.0631
vt 0.025 0.0631
vt 0 0.1607
vt 0.025 0.1607
vt 0 0.2607
vt 0.025 0.2607
vt 0 0.327
vt 0.025 0.327
vt 0 0.1294
vt 0.025 0.1294
vt 0 0.227
vt 0.025 0.227
vt 0 0.1501
vt 0.025 0.1501
vt 0 0.2477
vt 0.025 0.2477
vt 0 0.3477
vt 0.025 0.3477
vn 0 0 0.3048
vn 0 0 -0.3048
vn 0.3048 0 0
vn 0 0.3048 0
vn -0.3048 0 0
vn 0 -0.3048 0
vn 0.2155 0.2155 0
vn 0.2155 -0.2155 0
vn -0.2155 -0.2155 0
vn -0.2155 0.2155 0

usemtl default
f 4/4/1 1/1/1 2/2/1
f 2/2/1 3/3/1 4/4/1
f 8/8/1 5/5/1 6/6/1
f 6/6/1 7/7/1 8/8/1
f 12/12/1 9/9/1 10/10/1
f 10/10/1 11/11/1 12/12/1
f 16/16/1 13/13/1 14/14/1
f 14/14/1 15/15/1 16/16/1
f 19/17/2 20/18/2 17/1/2
f 17/1/2 18/4/2 19/17/2
f 23/21/2 24/22/2 21/19/2
f 21/19/2 22/20/2 23/21/2
f 27/25/2 28/26/2 25/23/2
f 25/23/2 26/24/2 27/25/2
f 31/29/2 32/30/2 29/27/2
f 29/27/2 30/28/2 31/29/2
f 2/31/3 1/1/3 17/2/3
f 17/2/3 20/32/3 2/31/3
f 3/4/4 2/1/4 20/2/4
f 20/2/4 19/3/4 3/4/4
f 4/31/5 3/1/5 19/2/5
f 19/2/5 18/32/5 4/31/5
f 1/4/6 4/1/6 18/2/6
f 18/2/6 17/3/6 1/4/6
f 6/31/3 5/1/3 21/2/3
f 21/2/3 24/32/3 6/31/3
f 7/4/4 6/1/4 24/2/4
f 24/2/4 23/3/4 7/4/4
f 8/31/5 7/1/5 23/2/5
f 23/2/5 22/32/5 8/31/5
f 5/4/6 8/1/6 22/2/6
f 22/2/6 21/3/6 5/4/6
f 10/31/3 9/1/3 25/2/3
f 25/2/3 28/32/3 10/31/3
f 11/33/4 10/1/4 28/2/4
f 28/2/4 27/34/4 11/33/4
f 12/31/5 11/1/5 27/2/5
f 27/2/5 26/32/5 12/31/5
f 9/33/6 12/1/6 26/2/6
f 26/2/6 25/34/6 9/33/6
f 14/35/3 13/1/3 29/2/3
f 29/2/3 32/36/3 14/35/3
f 15/4/4 14/1/4 32/2/4
f 32/2/4 31/3/4 15/4/4
f 16/35/5 15/1/5 31/2/5
f 31/2/5 30/36/5 16/35/5
f 13/4/6 16/1/6 30/2/6
f 30/2/6 29/3/6 13/4/6
f 36/38/1 33/18/1 34/1/1
f 34/1/1 35/37/1 36/38/1
f 39/41/1 40/42/1 37/39/1
f 37/39/1 38/40/1 39/41/1
f 43/37/2 44/1/2 41/2/2
f 41/2/2 42/43/2 43/37/2
f 48/47/2 45/44/2 46/45/2
f 46/45/2 47/46/2 48/47/2
f 34/31/4 33/1/4 41/2/4
f 41/2/4 44/32/4 34/31/4
f 35/37/5 34/1/5 44/2/5
f 44/2/5 43/43/5 35/37/5
f 36/31/6 35/1/6 43/2/6
f 43/2/6 42/32/6 36/31/6
f 33/37/3 36/1/3 42/2/3
f 42/2/3 41/43/3 33/37/3
f 38/37/5 37/1/5 45/2/5
f 45/2/5 48/43/5 38/37/5
f 39/31/6 38/1/6 48/2/6
f 48/2/6 47/32/6 39/31/6
f 40/37/3 39/1/3 47/2/3
f 47/2/3 46/43/3 40/37/3
f 37/31/4 40/1/4 46/2/4
f 46/2/4 45/32/4 37/31/4
f 52/31/1 49/1/1 50/48/1
f 50/48/1 51/49/1 52/31/1
f 55/52/1 56/53/1 54/51/1
f 53/50/1 54/51/1 56/53/1
f 59/56/1 60/57/1 57/54/1
f 57/54/1 58/55/1 59/56/1
f 62/59/1 63/60/1 64/61/1
f 64/61/1 61/58/1 62/59/1
f 65/62/1 66/63/1 67/64/1
f 67/64/1 68/65/1 65/62/1
f 72/69/1 69/66/1 70/67/1
f 70/67/1 71/68/1 72/69/1
f 73/70/1 74/71/1 75/72/1
f 75/72/1 76/73/1 73/70/1
f 78/75/1 79/76/1 80/77/1
f 80/77/1 77/74/1 78/75/1
f 83/80/1 84/81/1 81/78/1
f 81/78/1 82/79/1 83/80/1
f 88/85/1 85/82/1 86/83/1
f 86/83/1 87/84/1 88/85/1
f 89/86/1 90/87/1 91/88/1
f 91/88/1 92/89/1 89/86/1
f 96/93/1 93/90/1 94/91/1
f 94/91/1 95/92/1 96/93/1
f 99/96/1 100/97/1 98/95/1
f 97/94/1 98/95/1 100/97/1
f 102/99/1 103/100/1 104/101/1
f 104/101/1 101/98/1 102/99/1
f 107/102/2 108/103/2 105/1/2
f 105/1/2 106/31/2 107/102/2
f 112/107/2 109/104/2 111/106/2
f 110/105/2 111/106/2 109/104/2
f 116/111/2 113/108/2 114/109/2
f 114/109/2 115/110/2 116/111/2
f 117/112/2 118/113/2 119/114/2
f 119/114/2 120/115/2 117/112/2
f 122/117/2 123/118/2 121/116/2
f 124/119/2 121/116/2 123/118/2
f 127/122/2 128/123/2 126/121/2
f 125/120/2 126/121/2 128/123/2
f 130/125/2 131/126/2 132/127/2
f 132/127/2 129/124/2 130/125/2
f 133/128/2 134/129/2 135/130/2
f 135/130/2 136/131/2 133/128/2
f 140/135/2 137/132/2 138/133/2
f 138/133/2 139/134/2 140/135/2
f 143/138/2 144/139/2 141/136/2
f 141/136/2 142/137/2 143/138/2
f 146/141/2 147/142/2 148/143/2
f 148/143/2 145/140/2 146/141/2
f 151/146/2 152/147/2 149/144/2
f 149/144/2 150/145/2 151/146/2
f 156/151/2 153/148/2 154/149/2
f 154/149/2 155/150/2 156/151/2
f 157/152/2 158/153/2 160/155/2
f 159/154/2 160/155/2 158/153/2
f 50/156/5 49/1/5 105/2/5
f 105/2/5 108/157/5 50/156/5
f 51/31/6 50/1/6 108/2/6
f 108/2/6 107/32/6 51/31/6
f 52/156/3 51/1/3 107/2/3
f 107/2/3 106/157/3 52/156/3
f 49/31/4 52/1/4 106/2/4
f 106/2/4 105/32/4 49/31/4
f 54/31/6 53/1/6 109/2/6
f 109/2/6 112/32/6 54/31/6
f 55/156/3 54/1/3 111/157/3
f 112/2/3 111/157/3 54/1/3
f 56/31/4 55/1/4 111/2/4
f 111/2/4 110/32/4 56/31/4
f 53/156/5 56/1/5 109/157/5
f 110/2/5 109/157/5 56/1/5
f 58/31/6 57/1/6 113/2/6
f 113/2/6 116/32/6 58/31/6
f 59/158/3 58/1/3 116/2/3
f 116/2/3 115/159/3 59/158/3
f 60/31/4 59/1/4 115/2/4
f 115/2/4 114/32/4 60/31/4
f 57/158/5 60/1/5 114/2/5
f 114/2/5 113/159/5 57/158/5
f 62/158/3 61/1/3 117/2/3
f 117/2/3 120/159/3 62/158/3
f 63/31/4 62/1/4 119/32/4
f 120/2/4 119/32/4 62/1/4
f 64/158/5 63/1/5 119/2/5
f 119/2/5 118/159/5 64/158/5
f 61/31/6 64/1/6 117/32/6
f 118/2/6 117/32/6 64/1/6
f 66/31/4 65/1/4 121/2/4
f 121/2/4 124/32/4 66/31/4
f 67/158/5 66/1/5 124/2/5
f 124/2/5 123/159/5 67/158/5
f 68/31/6 67/1/6 123/2/6
f 123/2/6 122/32/6 68/31/6
f 65/158/3 68/1/3 122/2/3
f 122/2/3 121/159/3 65/158/3
f 70/158/5 69/1/5 125/2/5
f 125/2/5 128/159/5 70/158/5
f 71/31/6 70/1/6 128/2/6
f 128/2/6 127/32/6 71/31/6
f 72/158/3 71/1/3 127/2/3
f 127/2/3 126/159/3 72/158/3
f 69/31/4 72/1/4 126/2/4
f 126/2/4 125/32/4 69/31/4
f 74/160/4 73/1/4 129/2/4
f 129/2/4 132/161/4 74/160/4
f 75/31/5 74/1/5 132/2/5
f 132/2/5 131/32/5 75/31/5
f 76/160/6 75/1/6 131/2/6
f 131/2/6 130/161/6 76/160/6
f 73/31/3 76/1/3 130/2/3
f 130/2/3 129/32/3 73/31/3
f 78/31/3 77/1/3 133/2/3
f 133/2/3 136/32/3 78/31/3
f 79/160/4 78/1/4 136/2/4
f 136/2/4 135/161/4 79/160/4
f 80/31/5 79/1/5 135/2/5
f 135/2/5 134/32/5 80/31/5
f 77/160/6 80/1/6 134/2/6
f 134/2/6 133/161/6 77/160/6
f 82/160/6 81/1/6 137/2/6
f 137/2/6 140/161/6 82/160/6
f 83/31/3 82/1/3 140/2/3
f 140/2/3 139/32/3 83/31/3
f 84/160/4 83/1/4 139/2/4
f 139/2/4 138/161/4 84/160/4
f 81/31/5 84/1/5 138/2/5
f 138/2/5 137/32/5 81/31/5
f 86/31/5 85/1/5 141/2/5
f 141/2/5 144/32/5 86/31/5
f 87/160/6 86/1/6 144/2/6
f 144/2/6 143/161/6 87/160/6
f 88/31/3 87/1/3 143/2/3
f 143/2/3 142/32/3 88/31/3
f 85/160/4 88/1/4 142/2/4
f 142/2/4 141/161/4 85/160/4
f 90/156/4 89/1/4 145/2/4
f 145/2/4 148/157/4 90/156/4
f 91/31/5 90/1/5 148/2/5
f 148/2/5 147/32/5 91/31/5
f 92/156/6 91/1/6 147/2/6
f 147/2/6 146/157/6 92/156/6
f 89/31/3 92/1/3 146/2/3
f 146/2/3 145/32/3 89/31/3
f 94/31/5 93/1/5 149/2/5
f 149/2/5 152/32/5 94/31/5
f 95/156/6 94/1/6 152/2/6
f 152/2/6 151/157/6 95/156/6
f 96/31/3 95/1/3 151/2/3
f 151/2/3 150/32/3 96/31/3
f 93/156/4 96/1/4 150/2/4
f 150/2/4 149/157/4 93/156/4
f 98/31/6 97/1/6 153/2/6
f 153/2/6 156/32/6 98/31/6
f 99/162/3 98/1/3 155/163/3
f 156/2/3 155/163/3 98/1/3
f 100/31/4 99/1/4 155/2/4
f 155/2/4 154/32/4 100/31/4
f 97/162/5 100/1/5 153/163/5
f 154/2/5 153/163/5 100/1/5
f 102/162/3 101/1/3 160/163/3
f 157/2/3 160/163/3 101/1/3
f 103/31/4 102/1/4 160/2/4
f 160/2/4 159/32/4 103/31/4
f 104/162/5 103/1/5 158/163/5
f 159/2/5 158/163/5 103/1/5
f 101/31/6 104/1/6 158/2/6
f 158/2/6 157/32/6 101/31/6
f 163/166/1 175/177/1 176/178/1
f 175/177/1 163/166/1 164/167/1
f 164/167/1 174/176/1 175/177/1
f 174/176/1 164/167/1 173/175/1
f 162/165/1 176/178/1 161/164/1
f 176/178/1 162/165/1 163/166/1
f 161/164/1 169/172/1 170/1/1
f 169/172/1 161/164/1 176/178/1
f 173/175/1 165/168/1 172/174/1
f 165/168/1 173/175/1 164/167/1
f 172/174/1 166/169/1 171/173/1
f 166/169/1 172/174/1 165/168/1
f 170/1/1 168/171/1 161/164/1
f 168/171/1 170/1/1 171/173/1
f 171/173/1 167/170/1 168/171/1
f 167/170/1 171/173/1 166/169/1
f 74/181/1 183/193/1 184/194/1
f 183/193/1 74/181/1 61/182/1
f 61/182/1 182/192/1 183/193/1
f 182/192/1 61/182/1 181/191/1
f 80/180/1 184/194/1 65/179/1
f 184/194/1 80/180/1 74/181/1
f 65/179/1 177/187/1 178/188/1
f 177/187/1 65/179/1 184/194/1
f 181/191/1 57/183/1 180/190/1
f 57/183/1 181/191/1 61/182/1
f 180/190/1 88/184/1 179/189/1
f 88/184/1 180/190/1 57/183/1
f 178/188/1 69/186/1 65/179/1
f 69/186/1 178/188/1 179/189/1
f 179/189/1 82/185/1 69/186/1
f 82/185/1 179/189/1 88/184/1
f 188/198/2 198/207/2 199/208/2
f 198/207/2 188/198/2 189/199/2
f 189/199/2 197/175/2 198/207/2
f 197/175/2 189/199/2 196/206/2
f 187/197/2 199/208/2 186/196/2
f 199/208/2 187/197/2 188/198/2
f 186/196/2 200/1/2 193/203/2
f 200/1/2 186/196/2 199/208/2
f 196/206/2 190/200/2 195/205/2
f 190/200/2 196/206/2 189/199/2
f 195/205/2 191/201/2 194/204/2
f 191/201/2 195/205/2 190/200/2
f 193/203/2 185/195/2 186/196/2
f 185/195/2 193/203/2 194/204/2
f 194/204/2 192/202/2 185/195/2
f 192/202/2 194/204/2 191/201/2
f 142/212/2 206/222/2 207/223/2
f 206/222/2 142/212/2 113/213/2
f 113/213/2 205/221/2 206/222/2
f 205/221/2 113/213/2 204/220/2
f 140/211/2 207/223/2 125/210/2
f 207/223/2 140/211/2 142/212/2
f 125/210/2 208/224/2 201/217/2
f 208/224/2 125/210/2 207/223/2
f 204/220/2 117/214/2 203/219/2
f 117/214/2 204/220/2 113/213/2
f 203/219/2 132/215/2 202/218/2
f 132/215/2 203/219/2 117/214/2
f 201/217/2 121/209/2 125/210/2
f 121/209/2 201/217/2 202/218/2
f 202/218/2 134/216/2 121/209/2
f 134/216/2 202/218/2 132/215/2
f 170/225/4 169/1/4 200/226/4
f 193/2/4 200/226/4 169/1/4
f 171/227/7 170/1/7 199/228/7
f 200/2/7 199/228/7 170/1/7
f 172/229/3 171/1/3 199/2/3
f 199/2/3 198/230/3 172/229/3
f 173/227/8 172/1/8 198/2/8
f 198/2/8 197/228/8 173/227/8
f 174/225/6 173/1/6 197/2/6
f 197/2/6 196/226/6 174/225/6
f 175/227/9 174/1/9 196/2/9
f 196/2/9 195/228/9 175/227/9
f 176/229/5 175/1/5 195/2/5
f 195/2/5 194/230/5 176/229/5
f 169/227/10 176/1/10 193/228/10
f 194/2/10 193/228/10 176/1/10
f 162/231/8 161/1/8 185/2/8
f 185/2/8 192/232/8 162/231/8
f 163/233/3 162/1/3 192/2/3
f 192/2/3 191/234/3 163/233/3
f 164/231/7 163/1/7 191/2/7
f 191/2/7 190/232/7 164/231/7
f 165/235/4 164/1/4 189/236/4
f 190/2/4 189/236/4 164/1/4
f 166/231/10 165/1/10 189/2/10
f 189/2/10 188/232/10 166/231/10
f 167/233/5 166/1/5 188/2/5
f 188/2/5 187/234/5 167/233/5
f 168/231/9 167/1/9 187/2/9
f 187/2/9 186/232/9 168/231/9
f 161/235/6 168/1/6 186/2/6
f 186/2/6 185/236/6 161/235/6
f 178/237/4 177/1/4 201/2/4
f 201/2/4 208/238/4 178/237/4
f 179/239/7 178/1/7 208/2/7
f 208/2/7 207/240/7 179/239/7
f 180/241/3 179/1/3 207/2/3
f 207/2/3 206/242/3 180/241/3
f 181/239/8 180/1/8 206/2/8
f 206/2/8 205/240/8 181/239/8
f 182/237/6 181/1/6 205/2/6
f 205/2/6 204/238/6 182/237/6
f 183/239/9 182/1/9 204/2/9
f 204/2/9 203/240/9 183/239/9
f 184/241/5 183/1/5 203/2/5
f 203/2/5 202/242/5 184/241/5
f 177/239/10 184/1/10 202/2/10
f 202/2/10 201/240/10 177/239/10
f 80/243/8 65/1/8 121/2/8
f 121/2/8 134/244/8 80/243/8
f 74/245/3 80/1/3 132/246/3
f 134/2/3 132/246/3 80/1/3
f 61/243/7 74/1/7 132/2/7
f 132/2/7 117/244/7 61/243/7
f 57/247/4 61/1/4 117/2/4
f 117/2/4 113/248/4 57/247/4
f 88/243/10 57/1/10 113/2/10
f 113/2/10 142/244/10 88/243/10
f 82/245/5 88/1/5 142/2/5
f 142/2/5 140/246/5 82/245/5
f 69/243/9 82/1/9 140/2/9
f 140/2/9 125/244/9 69/243/9
f 65/247/6 69/1/6 125/2/6
f 125/2/6 121/248/6 65/247/6
