## ElementId 239284
## Vertice Count:12
## Triangle Count:20
mtllib 239284.mtl
o 239284

v 7.0336 12.05 10.9011
v 7.4836 12.05 10.9011
v 7.4836 12.05 13.3711
v 7.2836 12.05 13.3711
v 7.2836 12.05 13.5711
v 7.0336 12.05 13.5711
v 7.0336 12.15 10.9011
v 7.0336 12.15 13.5711
v 7.2836 12.15 13.5711
v 7.2836 12.15 13.3711
v 7.4836 12.15 13.3711
v 7.4836 12.15 10.9011
vt 7.0336 10.9011
vt 7.4836 10.9011
vt 7.4836 13.3711
vt 7.2836 13.3711
vt 7.2836 13.5711
vt 7.0336 13.5711
vt 7.0336 -10.9011
vt 7.0336 -13.5711
vt 7.2836 -13.5711
vt 7.2836 -13.3711
vt 7.4836 -13.3711
vt 7.4836 -10.9011
vt 7.4836 -0.35
vt 7.0336 -0.35
vt 7.0336 -0.45
vt 7.4836 -0.45
vt -13.3711 0.35
vt -10.9011 0.35
vt -10.9011 0.45
vt -13.3711 0.45
vt 7.2836 0.35
vt 7.4836 0.35
vt 7.4836 0.45
vt 7.2836 0.45
vt -13.5711 0.35
vt -13.5711 0.45
vt 7.0336 0.35
vt 7.0336 0.45
vt 10.9011 0.35
vt 13.5711 0.35
vt 13.5711 0.45
vt 10.9011 0.45
vn 0 -0.3048 0
vn 0 0.3048 0
vn 0 0 -0.3048
vn 0.3048 0 0
vn 0 0 0.3048
vn -0.3048 0 0

usemtl 54872
f 6/6/1 1/1/1 4/4/1
f 4/4/1 1/1/1 2/2/1
f 6/6/1 4/4/1 5/5/1
f 3/3/1 4/4/1 2/2/1
f 10/10/2 11/11/2 12/12/2
f 10/10/2 7/7/2 8/8/2
f 7/7/2 10/10/2 12/12/2
f 10/10/2 8/8/2 9/9/2
f 2/13/3 1/14/3 7/15/3
f 7/15/3 12/16/3 2/13/3
f 3/17/4 2/18/4 12/19/4
f 12/19/4 11/20/4 3/17/4
f 4/21/5 3/22/5 11/23/5
f 11/23/5 10/24/5 4/21/5
f 5/25/4 4/17/4 10/20/4
f 10/20/4 9/26/4 5/25/4
f 6/27/5 5/21/5 9/24/5
f 9/24/5 8/28/5 6/27/5
f 1/29/6 6/30/6 8/31/6
f 8/31/6 7/32/6 1/29/6
