## ElementId 258532
## Vertice Count:9
## Triangle Count:14
mtllib 258532.mtl
o 258532

v 2.8836 14.5869 4.5011
v 2.8836 11.7 4.5011
v 2.8836 11.7 8.0711
v 2.8836 15.9217 8.0711
v 3.0836 11.7 4.5011
v 3.0836 14.5869 4.5011
v 3.0836 15.9217 8.0711
v 3.0836 14.4 8.0711
v 3.0836 11.7 8.0711
vt 0.1 2.8869
vt 0.1 0
vt 3.67 0
vt 3.67 4.2217
vt -0.1 0
vt -0.1 2.8869
vt -3.67 4.2217
vt -3.67 2.7
vt -3.67 0
vt 3.67 0.1
vt 0.1 0.1
vt 0.1 -0.1
vt 3.67 -0.1
vt -0.1 4.2217
vt 0.1 2.7
vt 0.1 4.2217
vt 1.1047 -0.1
vt 4.9161 -0.1
vt 4.9161 0.1
vt 1.1047 0.1
vn -0.3048 0 0
vn 0.3048 0 0
vn 0 -0.3048 0
vn 0 0 -0.3048
vn 0 0 0.3048
vn 0 0.2855 -0.1067

usemtl 90484
f 1/1/1 2/2/1 3/3/1
f 3/3/1 4/4/1 1/1/1
f 8/8/2 5/5/2 6/6/2
f 5/5/2 8/8/2 9/9/2
f 8/8/2 6/6/2 7/7/2
f 3/10/3 2/11/3 5/12/3
f 5/12/3 9/13/3 3/10/3
f 5/5/4 2/2/4 1/1/4
f 1/1/4 6/6/4 5/5/4
f 4/14/5 3/5/5 8/15/5
f 9/2/5 8/15/5 3/5/5
f 7/16/5 4/14/5 8/15/5
f 7/19/6 6/20/6 1/17/6
f 1/17/6 4/18/6 7/19/6
