## ElementId 266883
## Vertice Count:18
## Triangle Count:32
mtllib 266883.mtl
o 266883

v -4.4164 5.3 8.0711
v -4.4164 -0.2 8.0711
v -4.6164 -0.2 8.0711
v -7.9164 -0.2 8.0711
v -8.1164 -0.2 8.0711
v -8.1164 5.3 8.0711
v -7.9164 5.3 8.0711
v -4.6164 5.3 8.0711
v -4.4164 -0.2 8.2711
v -4.4164 5.3 8.2711
v -8.1164 5.3 8.2711
v -8.1164 5.2 8.2711
v -8.1164 4.9882 8.2711
v -8.1164 -0.2 8.2711
v -7.8164 -0.2 8.2711
v -7.6164 -0.2 8.2711
v -6.1764 -0.2 8.2711
v -5.9764 -0.2 8.2711
vt -0.1 5.5
vt -0.1 0
vt 0.1 0
vt 3.4 0
vt 3.6 0
vt 3.6 5.5
vt 3.4 5.5
vt 0.1 5.5
vt -3.6 5.5
vt -3.6 5.4
vt -3.6 5.1882
vt -3.6 0
vt -3.3 0
vt -3.1 0
vt -1.66 0
vt -1.46 0
vt 3.6 0.1
vt 3.4 0.1
vt 0.1 0.1
vt -0.1 0.1
vt -0.1 -0.1
vt 1.46 -0.1
vt 1.66 -0.1
vt 3.1 -0.1
vt 3.3 -0.1
vt 3.6 -0.1
vt 0.1 -0.1
vt 3.4 -0.1
vt 3.67 0
vt 3.87 0
vt 3.87 5.1882
vt 3.87 5.4
vt 3.87 5.5
vt 3.67 5.5
vt -3.67 5.5
vt -3.87 5.5
vt -3.87 0
vt -3.67 0
vn 0 0 -0.3048
vn 0 0 0.3048
vn 0 -0.3048 0
vn 0 0.3048 0
vn -0.3048 0 0
vn 0.3048 0 0

usemtl 90484
f 2/2/1 3/3/1 1/1/1
f 8/8/1 1/1/1 3/3/1
f 3/3/1 4/4/1 8/8/1
f 4/4/1 5/5/1 6/6/1
f 6/6/1 7/7/1 4/4/1
f 4/4/1 7/7/1 8/8/1

usemtl 197629
f 14/12/2 15/13/2 13/11/2
f 10/8/2 12/10/2 13/11/2
f 11/9/2 12/10/2 10/8/2
f 16/14/2 13/11/2 15/13/2
f 18/16/2 10/8/2 13/11/2
f 10/8/2 18/16/2 9/3/2
f 13/11/2 17/15/2 18/16/2
f 17/15/2 13/11/2 16/14/2
f 6/34/5 5/29/5 13/31/5
f 13/31/5 5/29/5 14/30/5
f 6/34/5 13/31/5 12/32/5
f 12/32/5 11/33/5 6/34/5
f 10/36/6 9/37/6 2/38/6
f 2/38/6 1/35/6 10/36/6

usemtl 31
f 17/23/3 3/19/3 18/22/3
f 14/26/3 5/17/3 4/18/3
f 17/23/3 4/18/3 3/19/3
f 16/24/3 4/18/3 17/23/3
f 3/19/3 2/20/3 9/21/3
f 9/21/3 18/22/3 3/19/3
f 14/26/3 4/18/3 15/25/3
f 4/18/3 16/24/3 15/25/3
f 1/21/4 8/27/4 10/20/4
f 7/28/4 11/17/4 10/20/4
f 11/17/4 7/28/4 6/26/4
f 7/28/4 10/20/4 8/27/4
