## ElementId 266884
## Vertice Count:26
## Triangle Count:56
mtllib 266884.mtl
o 266884

v -2.7164 -0.2 10.7011
v -6.6164 -0.2 10.7011
v -6.6164 5.3 10.7011
v -2.7164 5.3 10.7011
v -3.8164 2.6 10.7011
v -2.9164 2.6 10.7011
v -2.9164 4.7 10.7011
v -3.8164 4.7 10.7011
v -3.8164 0 10.7011
v -2.9164 0 10.7011
v -2.9164 2.1 10.7011
v -3.8164 2.1 10.7011
v -6.6164 -0.2 10.9011
v -6.4164 -0.2 10.9011
v -2.7164 -0.2 10.9011
v -2.7164 5.3 10.9011
v -6.4164 5.3 10.9011
v -6.6164 5.3 10.9011
v -2.9164 2.6 10.9011
v -3.8164 2.6 10.9011
v -3.8164 4.7 10.9011
v -2.9164 4.7 10.9011
v -2.9164 0 10.9011
v -3.8164 0 10.9011
v -3.8164 2.1 10.9011
v -2.9164 2.1 10.9011
vt 0.1 0
vt 4 0
vt 4 5.5
vt 0.1 5.5
vt 1.2 2.8
vt 0.3 2.8
vt 0.3 4.9
vt 1.2 4.9
vt 1.2 0.2
vt 0.3 0.2
vt 0.3 2.3
vt 1.2 2.3
vt -4 0
vt -3.8 0
vt -0.1 0
vt -0.1 5.5
vt -3.8 5.5
vt -4 5.5
vt -0.3 2.8
vt -1.2 2.8
vt -1.2 4.9
vt -0.3 4.9
vt -0.3 0.2
vt -1.2 0.2
vt -1.2 2.3
vt -0.3 2.3
vt 4 0.1
vt 0.1 0.1
vt 0.1 -0.1
vt 3.8 -0.1
vt 4 -0.1
vt 3.8 0.1
vt 0.3 -0.1
vt 1.2 -0.1
vt 1.2 0.1
vt 0.3 0.1
vt -0.1 4.9
vt -0.1 2.8
vt 0.1 2.8
vt 0.1 4.9
vt -0.1 2.3
vt -0.1 0.2
vt 0.1 0.2
vt 0.1 2.3
vn 0 0 -0.3048
vn 0 0 0.3048
vn 0 -0.3048 0
vn 0 0.3048 0
vn 0.3048 0 0
vn -0.3048 0 0

usemtl 90484
f 1/1/1 10/10/1 11/11/1
f 10/10/1 1/1/1 9/9/1
f 1/1/1 11/11/1 6/6/1
f 4/4/1 6/6/1 7/7/1
f 6/6/1 4/4/1 1/1/1
f 4/4/1 7/7/1 8/8/1
f 11/11/1 12/12/1 6/6/1
f 9/9/1 2/2/1 12/12/1
f 2/2/1 9/9/1 1/1/1
f 12/12/1 2/2/1 5/5/1
f 5/5/1 6/6/1 12/12/1
f 8/8/1 5/5/1 3/3/1
f 3/3/1 5/5/1 2/2/1
f 8/8/1 3/3/1 4/4/1
f 3/16/6 2/15/6 13/1/6
f 13/1/6 18/4/6 3/16/6

usemtl 197629
f 20/20/2 13/13/2 14/14/2
f 25/25/2 14/14/2 24/24/2
f 20/20/2 14/14/2 25/25/2
f 17/17/2 18/18/2 20/20/2
f 20/20/2 21/21/2 17/17/2
f 18/18/2 13/13/2 20/20/2
f 17/17/2 21/21/2 16/16/2
f 20/20/2 25/25/2 19/19/2
f 24/24/2 15/15/2 23/23/2
f 15/15/2 24/24/2 14/14/2
f 23/23/2 15/15/2 26/26/2
f 26/26/2 15/15/2 19/19/2
f 19/19/2 25/25/2 26/26/2
f 22/22/2 16/16/2 21/21/2
f 16/16/2 22/22/2 19/19/2
f 15/15/2 16/16/2 19/19/2

usemtl 31
f 2/27/3 1/28/3 14/30/3
f 15/29/3 14/30/3 1/28/3
f 14/30/3 13/31/3 2/27/3
f 4/29/4 3/31/4 17/32/4
f 18/27/4 17/32/4 3/31/4
f 17/32/4 16/28/4 4/29/4
f 15/15/5 1/1/5 4/4/5
f 4/4/5 16/16/5 15/15/5
f 6/33/4 5/34/4 20/35/4
f 20/35/4 19/36/4 6/33/4
f 7/37/6 6/38/6 19/39/6
f 19/39/6 22/40/6 7/37/6
f 8/35/3 7/36/3 21/34/3
f 22/33/3 21/34/3 7/36/3
f 5/39/5 8/40/5 21/37/5
f 21/37/5 20/38/5 5/39/5
f 10/33/4 9/34/4 24/35/4
f 24/35/4 23/36/4 10/33/4
f 11/41/6 10/42/6 23/43/6
f 23/43/6 26/44/6 11/41/6
f 12/35/3 11/36/3 25/34/3
f 26/33/3 25/34/3 11/36/3
f 9/43/5 12/44/5 25/41/5
f 25/41/5 24/42/5 9/43/5
