## ElementId 266880
## Vertice Count:65
## Triangle Count:146
mtllib 266880.mtl
o 266880

v -2.7164 5.3 4.3011
v -2.7164 -0.2 4.3011
v -12.4764 -0.2 4.3011
v -12.4764 0.65 4.3011
v -12.5164 0.65 4.3011
v -12.5164 5 4.3011
v -12.5164 5.3 4.3011
v -8.1164 5.3 4.3011
v -11.4664 3.55 4.3011
v -11.4664 1.75 4.3011
v -8.9664 1.75 4.3011
v -8.9664 3.55 4.3011
v -4.0164 2 4.3011
v -4.0164 1 4.3011
v -3.1164 1 4.3011
v -3.1164 2 4.3011
v -4.0164 4.6 4.3011
v -4.0164 3.6 4.3011
v -3.1164 3.6 4.3011
v -3.1164 4.6 4.3011
v -7.2664 2 4.3011
v -7.2664 1 4.3011
v -5.2664 1 4.3011
v -5.2664 2 4.3011
v -7.2664 4.6 4.3011
v -7.2664 3.6 4.3011
v -5.2664 3.6 4.3011
v -5.2664 4.6 4.3011
v -2.7164 5.3 4.5011
v -4.4164 5.3 4.5011
v -4.6164 5.3 4.5011
v -7.9164 5.3 4.5011
v -8.1164 5.3 4.5011
v -12.3164 5.3 4.5011
v -12.5164 5.3 4.5011
v -12.5164 5 4.5011
v -12.5164 0.65 4.5011
v -12.4764 0.65 4.5011
v -12.4764 -0.2 4.5011
v -12.3164 -0.2 4.5011
v -8.1164 -0.2 4.5011
v -7.9164 -0.2 4.5011
v -4.6164 -0.2 4.5011
v -4.4164 -0.2 4.5011
v -2.7164 -0.2 4.5011
v -11.4664 1.75 4.5011
v -11.4664 3.55 4.5011
v -8.9664 3.55 4.5011
v -8.9664 1.75 4.5011
v -4.0164 1 4.5011
v -4.0164 2 4.5011
v -3.1164 2 4.5011
v -3.1164 1 4.5011
v -4.0164 3.6 4.5011
v -4.0164 4.6 4.5011
v -3.1164 4.6 4.5011
v -3.1164 3.6 4.5011
v -7.2664 1 4.5011
v -7.2664 2 4.5011
v -5.2664 2 4.5011
v -5.2664 1 4.5011
v -7.2664 3.6 4.5011
v -7.2664 4.6 4.5011
v -5.2664 4.6 4.5011
v -5.2664 3.6 4.5011
vt 0.14 5.5
vt 0.14 0
vt 9.9 0
vt 9.9 0.85
vt 9.94 0.85
vt 9.94 5.2
vt 9.94 5.5
vt 5.54 5.5
vt 8.89 3.75
vt 8.89 1.95
vt 6.39 1.95
vt 6.39 3.75
vt 1.44 2.2
vt 1.44 1.2
vt 0.54 1.2
vt 0.54 2.2
vt 1.44 4.8
vt 1.44 3.8
vt 0.54 3.8
vt 0.54 4.8
vt 4.69 2.2
vt 4.69 1.2
vt 2.69 1.2
vt 2.69 2.2
vt 4.69 4.8
vt 4.69 3.8
vt 2.69 3.8
vt 2.69 4.8
vt -0.14 5.5
vt -1.84 5.5
vt -2.04 5.5
vt -5.34 5.5
vt -5.54 5.5
vt -9.74 5.5
vt -9.94 5.5
vt -9.94 5.2
vt -9.94 0.85
vt -9.9 0.85
vt -9.9 0
vt -9.74 0
vt -5.54 0
vt -5.34 0
vt -2.04 0
vt -1.84 0
vt -0.14 0
vt -8.89 1.95
vt -8.89 3.75
vt -6.39 3.75
vt -6.39 1.95
vt -1.44 1.2
vt -1.44 2.2
vt -0.54 2.2
vt -0.54 1.2
vt -1.44 3.8
vt -1.44 4.8
vt -0.54 4.8
vt -0.54 3.8
vt -4.69 1.2
vt -4.69 2.2
vt -2.69 2.2
vt -2.69 1.2
vt -4.69 3.8
vt -4.69 4.8
vt -2.69 4.8
vt -2.69 3.8
vt 0.14 0.1
vt 0.14 -0.1
vt 1.84 -0.1
vt 2.04 -0.1
vt 5.34 -0.1
vt 5.54 -0.1
vt 9.74 -0.1
vt 9.9 -0.1
vt 9.9 0.1
vt 9.94 0.1
vt 9.74 0.1
vt 5.54 0.1
vt 5.34 0.1
vt 2.04 0.1
vt 1.84 0.1
vt 9.94 -0.1
vt 0.1 5.5
vt -0.1 5.5
vt -0.1 5.2
vt -0.1 0.85
vt 0.1 0.85
vt 0.1 5.2
vt -0.1 0
vt 0.1 0
vt -0.1 3.75
vt -0.1 1.95
vt 0.1 1.95
vt 0.1 3.75
vt 6.39 -0.1
vt 8.89 -0.1
vt 8.89 0.1
vt 6.39 0.1
vt -0.1 2.2
vt -0.1 1.2
vt 0.1 1.2
vt 0.1 2.2
vt 0.54 -0.1
vt 1.44 -0.1
vt 1.44 0.1
vt 0.54 0.1
vt -0.1 4.8
vt -0.1 3.8
vt 0.1 3.8
vt 0.1 4.8
vt 2.69 -0.1
vt 4.69 -0.1
vt 4.69 0.1
vt 2.69 0.1
vn 0 0 -0.3048
vn 0 0 0.3048
vn 0 -0.3048 0
vn 0 0.3048 0
vn -0.3048 0 0
vn 0.3048 0 0

usemtl 31
f 2/2/1 15/15/1 16/16/1
f 15/15/1 2/2/1 14/14/1
f 2/2/1 16/16/1 1/1/1
f 14/14/1 23/23/1 13/13/1
f 23/23/1 14/14/1 2/2/1
f 16/16/1 13/13/1 18/18/1
f 24/24/1 13/13/1 23/23/1
f 2/2/1 22/22/1 23/23/1
f 27/27/1 13/13/1 24/24/1
f 1/1/1 19/19/1 20/20/1
f 19/19/1 1/1/1 16/16/1
f 1/1/1 20/20/1 17/17/1
f 18/18/1 27/27/1 28/28/1
f 18/18/1 19/19/1 16/16/1
f 17/17/1 28/28/1 1/1/1
f 28/28/1 17/17/1 18/18/1
f 13/13/1 27/27/1 18/18/1
f 1/1/1 28/28/1 8/8/1
f 24/24/1 26/26/1 27/27/1
f 22/22/1 11/11/1 21/21/1
f 11/11/1 22/22/1 3/3/1
f 12/12/1 21/21/1 11/11/1
f 21/21/1 26/26/1 24/24/1
f 10/10/1 4/4/1 5/5/1
f 4/4/1 10/10/1 3/3/1
f 5/5/1 9/9/1 10/10/1
f 3/3/1 10/10/1 11/11/1
f 22/22/1 2/2/1 3/3/1
f 8/8/1 25/25/1 12/12/1
f 12/12/1 25/25/1 26/26/1
f 25/25/1 8/8/1 28/28/1
f 9/9/1 7/7/1 8/8/1
f 6/6/1 7/7/1 9/9/1
f 9/9/1 5/5/1 6/6/1
f 9/9/1 8/8/1 12/12/1
f 26/26/1 21/21/1 12/12/1
f 2/66/3 42/70/3 3/74/3
f 42/70/3 2/66/3 43/69/3
f 3/74/3 41/71/3 40/72/3
f 41/71/3 3/74/3 42/70/3
f 44/68/3 43/69/3 2/66/3
f 40/72/3 39/73/3 3/74/3
f 44/68/3 2/66/3 45/67/3
f 8/71/4 34/76/4 33/77/4
f 34/76/4 8/71/4 7/81/4
f 31/79/4 1/67/4 8/71/4
f 32/78/4 8/71/4 33/77/4
f 31/79/4 8/71/4 32/78/4
f 35/75/4 34/76/4 7/81/4
f 30/80/4 29/66/4 1/67/4
f 30/80/4 1/67/4 31/79/4
f 6/84/5 5/85/5 37/86/5
f 7/83/5 6/84/5 36/87/5
f 37/86/5 36/87/5 6/84/5
f 36/87/5 35/82/5 7/83/5
f 45/88/6 2/89/6 1/82/6
f 1/82/6 29/83/6 45/88/6
f 47/90/6 46/91/6 10/92/6
f 10/92/6 9/93/6 47/90/6
f 48/94/3 47/95/3 9/96/3
f 9/96/3 12/97/3 48/94/3
f 49/92/5 48/93/5 12/90/5
f 12/90/5 11/91/5 49/92/5
f 46/96/4 49/97/4 10/95/4
f 11/94/4 10/95/4 49/97/4
f 51/98/6 50/99/6 14/100/6
f 14/100/6 13/101/6 51/98/6
f 52/102/3 51/103/3 13/104/3
f 13/104/3 16/105/3 52/102/3
f 53/100/5 52/101/5 16/98/5
f 16/98/5 15/99/5 53/100/5
f 50/104/4 53/105/4 14/103/4
f 15/102/4 14/103/4 53/105/4
f 55/106/6 54/107/6 18/108/6
f 18/108/6 17/109/6 55/106/6
f 56/102/3 55/103/3 17/104/3
f 17/104/3 20/105/3 56/102/3
f 57/108/5 56/109/5 20/106/5
f 20/106/5 19/107/5 57/108/5
f 54/104/4 57/105/4 18/103/4
f 19/102/4 18/103/4 57/105/4
f 59/98/6 58/99/6 22/100/6
f 22/100/6 21/101/6 59/98/6
f 60/110/3 59/111/3 24/113/3
f 21/112/3 24/113/3 59/111/3
f 61/100/5 60/101/5 24/98/5
f 24/98/5 23/99/5 61/100/5
f 58/112/4 61/113/4 23/110/4
f 23/110/4 22/111/4 58/112/4
f 63/106/6 62/107/6 26/108/6
f 26/108/6 25/109/6 63/106/6
f 64/110/3 63/111/3 28/113/3
f 25/112/3 28/113/3 63/111/3
f 65/108/5 64/109/5 28/106/5
f 28/106/5 27/107/5 65/108/5
f 62/112/4 65/113/4 27/110/4
f 27/110/4 26/111/4 62/112/4
f 38/73/3 5/75/3 4/74/3
f 5/75/3 38/73/3 37/81/3
f 39/89/5 4/85/5 3/88/5
f 4/85/5 39/89/5 38/86/5

usemtl 197629
f 39/39/2 40/40/2 38/38/2
f 37/37/2 38/38/2 46/46/2
f 40/40/2 46/46/2 38/38/2
f 41/41/2 42/42/2 58/58/2
f 41/41/2 49/49/2 46/46/2
f 49/49/2 41/41/2 58/58/2
f 49/49/2 58/58/2 59/59/2
f 42/42/2 61/61/2 58/58/2
f 41/41/2 46/46/2 40/40/2
f 37/37/2 46/46/2 47/47/2
f 36/36/2 47/47/2 34/34/2
f 47/47/2 36/36/2 37/37/2
f 34/34/2 35/35/2 36/36/2
f 47/47/2 33/33/2 34/34/2
f 48/48/2 59/59/2 62/62/2
f 32/32/2 33/33/2 63/63/2
f 48/48/2 63/63/2 33/33/2
f 62/62/2 63/63/2 48/48/2
f 62/62/2 59/59/2 60/60/2
f 48/48/2 33/33/2 47/47/2
f 49/49/2 59/59/2 48/48/2
f 61/61/2 43/43/2 50/50/2
f 51/51/2 60/60/2 61/61/2
f 65/65/2 62/62/2 60/60/2
f 50/50/2 43/43/2 44/44/2
f 53/53/2 45/45/2 52/52/2
f 53/53/2 50/50/2 44/44/2
f 50/50/2 51/51/2 61/61/2
f 60/60/2 51/51/2 65/65/2
f 45/45/2 29/29/2 52/52/2
f 53/53/2 44/44/2 45/45/2
f 54/54/2 51/51/2 52/52/2
f 31/31/2 55/55/2 30/30/2
f 64/64/2 55/55/2 31/31/2
f 31/31/2 32/32/2 64/64/2
f 64/64/2 65/65/2 54/54/2
f 64/64/2 32/32/2 63/63/2
f 54/54/2 65/65/2 51/51/2
f 56/56/2 29/29/2 30/30/2
f 29/29/2 56/56/2 57/57/2
f 56/56/2 30/30/2 55/55/2
f 57/57/2 52/52/2 29/29/2
f 54/54/2 55/55/2 64/64/2
f 52/52/2 57/57/2 54/54/2
f 61/61/2 42/42/2 43/43/2
