## ElementId 266881
## Vertice Count:8
## Triangle Count:12
mtllib 266881.mtl
o 266881

v -6.6164 5.3 10.9011
v -6.6164 -0.2 10.9011
v -6.6164 -0.2 16.1011
v -6.6164 5.3 16.1011
v -6.4164 -0.2 10.9011
v -6.4164 5.3 10.9011
v -6.4164 5.3 16.1011
v -6.4164 -0.2 16.1011
vt 0.1 5.5
vt 0.1 0
vt 5.3 0
vt 5.3 5.5
vt -0.1 0
vt -0.1 5.5
vt -5.3 5.5
vt -5.3 0
vt 5.3 0.1
vt 0.1 0.1
vt 0.1 -0.1
vt 5.3 -0.1
vn -0.3048 0 0
vn 0.3048 0 0
vn 0 -0.3048 0
vn 0 0 0.3048
vn 0 0.3048 0
vn 0 0 -0.3048

usemtl 90484
f 1/1/1 2/2/1 4/4/1
f 3/3/1 4/4/1 2/2/1

usemtl 197629
f 7/7/2 8/8/2 6/6/2
f 5/5/2 6/6/2 8/8/2

usemtl 31
f 3/9/3 2/10/3 8/12/3
f 5/11/3 8/12/3 2/10/3
f 4/6/4 3/5/4 8/2/4
f 8/2/4 7/1/4 4/6/4
f 1/11/5 4/12/5 7/9/5
f 7/9/5 6/10/5 1/11/5
f 5/5/6 2/2/6 1/1/6
f 1/1/6 6/6/6 5/5/6
