## ElementId 266879
## Vertice Count:32
## Triangle Count:60
mtllib 266879.mtl
o 266879

v -2.5164 -0.2 4.3011
v -2.5164 5.3 4.3011
v -2.5164 5.3 4.5011
v -2.5164 5.3 15.5011
v -2.5164 5.3 16.8011
v -2.5164 5 16.8011
v -2.5164 0.65 16.8011
v -2.5164 0.65 16.7611
v -2.5164 -0.2 16.7611
v -2.7164 5.3 16.8011
v -2.7164 5.3 16.6011
v -2.7164 5.3 15.5011
v -2.7164 5.3 10.9011
v -2.7164 5.3 10.7011
v -2.7164 5.3 8.2711
v -2.7164 5.3 8.0711
v -2.7164 5.3 6.8711
v -2.7164 5.3 6.6711
v -2.7164 5.3 4.5011
v -2.7164 5.3 4.3011
v -2.7164 -0.2 4.3011
v -2.7164 -0.2 4.5011
v -2.7164 -0.2 6.6711
v -2.7164 -0.2 6.8711
v -2.7164 -0.2 10.7011
v -2.7164 -0.2 10.9011
v -2.7164 -0.2 16.7611
v -2.7164 0 16.7611
v -2.7164 0.65 16.7611
v -2.7164 0.65 16.8011
v -2.7164 5 16.8011
v -2.6364 -0.2 4.3011
vt 12.4 0
vt 12.4 5.5
vt 12.2 5.5
vt 1.2 5.5
vt -0.1 5.5
vt -0.1 5.2
vt -0.1 0.85
vt -0.06 0.85
vt -0.06 0
vt 0.1 5.5
vt -1.2 5.5
vt -5.8 5.5
vt -6 5.5
vt -8.43 5.5
vt -8.63 5.5
vt -9.83 5.5
vt -10.03 5.5
vt -12.2 5.5
vt -12.4 5.5
vt -12.4 0
vt -12.2 0
vt -10.03 0
vt -9.83 0
vt -6 0
vt -5.8 0
vt 0.06 0
vt 0.06 0.2
vt 0.06 0.85
vt 0.1 0.85
vt 0.1 5.2
vt 12.4 -0.1
vt 12.4 -0.02
vt 12.4 0.1
vt -0.06 0.1
vt -0.06 -0.1
vt 5.8 -0.1
vt 6 -0.1
vt 9.83 -0.1
vt 10.03 -0.1
vt 12.2 -0.1
vt -0.1 -0.1
vt 1.2 -0.1
vt 12.2 0.1
vt 10.03 0.1
vt 9.83 0.1
vt 8.63 0.1
vt 8.43 0.1
vt 6 0.1
vt 5.8 0.1
vt 1.2 0.1
vt 0.1 0.1
vt -0.1 0.1
vt 4 5.3
vt 3.8 5.3
vt 3.8 5
vt 3.8 0.65
vt 4 0.65
vt 4 5
vt -0.06 5.5
vt 0.14 0
vt 0.14 5.5
vt -0.1 0.2
vt -0.1 0
vt 0.1 0
vn 0.3048 0 0
vn -0.3048 0 0
vn 0 -0.3048 0
vn 0 0.3048 0
vn 0 0 0.3048
vn 0 0 -0.3048

usemtl 90484
f 6/6/1 7/7/1 8/8/1
f 4/4/1 5/5/1 6/6/1
f 8/8/1 1/1/1 4/4/1
f 1/1/1 8/8/1 9/9/1
f 3/3/1 4/4/1 1/1/1
f 2/2/1 3/3/1 1/1/1
f 8/8/1 4/4/1 6/6/1
f 19/18/2 21/20/2 22/21/2
f 24/23/2 17/16/2 23/22/2
f 23/22/2 18/17/2 22/21/2
f 15/14/2 24/23/2 25/24/2
f 22/21/2 18/17/2 19/18/2
f 19/18/2 20/19/2 21/20/2
f 23/22/2 17/16/2 18/17/2
f 16/15/2 17/16/2 24/23/2
f 15/14/2 16/15/2 24/23/2
f 25/24/2 14/13/2 15/14/2
f 26/25/2 29/28/2 12/11/2
f 29/28/2 26/25/2 28/27/2
f 27/26/2 28/27/2 26/25/2
f 29/28/2 30/29/2 31/30/2
f 25/24/2 13/12/2 14/13/2
f 13/12/2 26/25/2 12/11/2
f 11/5/2 31/30/2 10/10/2
f 31/30/2 11/5/2 12/11/2
f 31/30/2 12/11/2 29/28/2
f 13/12/2 25/24/2 26/25/2
f 9/34/3 26/36/3 25/37/3
f 26/36/3 9/34/3 27/35/3
f 32/32/3 1/33/3 22/40/3
f 25/37/3 1/33/3 9/34/3
f 24/38/3 1/33/3 25/37/3
f 21/31/3 32/32/3 22/40/3
f 1/33/3 23/39/3 22/40/3
f 1/33/3 24/38/3 23/39/3
f 3/40/4 16/46/4 15/47/4
f 19/43/4 3/40/4 2/31/4
f 3/40/4 15/47/4 14/48/4
f 11/51/4 5/41/4 4/42/4
f 14/48/4 13/49/4 4/42/4
f 4/42/4 3/40/4 14/48/4
f 12/50/4 4/42/4 13/49/4
f 17/45/4 3/40/4 18/44/4
f 19/43/4 18/44/4 3/40/4
f 3/40/4 17/45/4 16/46/4
f 10/52/4 5/41/4 11/51/4
f 11/51/4 4/42/4 12/50/4
f 19/43/4 2/31/4 20/33/4

usemtl 31
f 31/55/5 30/56/5 7/57/5
f 10/54/5 31/55/5 6/58/5
f 7/57/5 6/58/5 31/55/5
f 6/58/5 5/53/5 10/54/5
f 2/59/6 1/9/6 32/26/6
f 32/26/6 21/60/6 20/61/6
f 32/26/6 20/61/6 2/59/6
f 8/34/3 30/41/3 29/35/3
f 30/41/3 8/34/3 7/52/3
f 9/64/5 8/29/5 28/62/5
f 29/7/5 28/62/5 8/29/5
f 27/63/5 9/64/5 28/62/5
