## ElementId 266897
## Vertice Count:22
## Triangle Count:44
mtllib 266897.mtl
o 266897

v -6.6164 5.3 16.3011
v -12.3164 5.3 16.3011
v -12.3164 5 16.3011
v -12.3164 0.65 16.3011
v -6.6164 0.65 16.3011
v -6.6164 5 16.3011
v -8.9164 3.15 16.3011
v -8.9164 1.05 16.3011
v -10.2164 1.05 16.3011
v -10.2164 3.15 16.3011
v -6.6164 -0.2 16.1011
v -12.3164 -0.2 16.1011
v -12.3164 5.3 16.1011
v -6.6164 5.3 16.1011
v -8.9164 1.05 16.1011
v -8.9164 3.15 16.1011
v -10.2164 3.15 16.1011
v -10.2164 1.05 16.1011
v -6.6164 -0.2 16.2611
v -12.3164 -0.2 16.2611
v -12.3164 0.65 16.2611
v -6.6164 0.65 16.2611
vt 5.8 5.5
vt 0.1 5.5
vt 0.1 5.2
vt 0.1 0.85
vt 5.8 0.85
vt 5.8 5.2
vt 3.5 3.35
vt 3.5 1.25
vt 2.2 1.25
vt 2.2 3.35
vt -5.8 0
vt -0.1 0
vt -0.1 5.5
vt -5.8 5.5
vt -3.5 1.25
vt -3.5 3.35
vt -2.2 3.35
vt -2.2 1.25
vt 0.1 -0.1
vt 5.8 -0.1
vt 5.8 0.06
vt 0.1 0.06
vt 5.8 0.1
vt 0.1 0.1
vt 0.06 0
vt 0.06 0.85
vt 0.1 0
vt -0.1 5.2
vt -0.1 0.85
vt -0.06 0.85
vt -0.06 0
vt -0.1 3.35
vt -0.1 1.25
vt 0.1 1.25
vt 0.1 3.35
vt 2.2 -0.1
vt 3.5 -0.1
vt 3.5 0.1
vt 2.2 0.1
vt 5.8 0
vn 0 0 0.3048
vn 0 0 -0.3048
vn 0 -0.3048 0
vn 0 0.3048 0
vn -0.3048 0 0
vn 0.3048 0 0

usemtl 31
f 4/4/1 9/9/1 10/10/1
f 9/9/1 4/4/1 8/8/1
f 2/2/1 3/3/1 10/10/1
f 10/10/1 3/3/1 4/4/1
f 2/2/1 10/10/1 7/7/1
f 8/8/1 5/5/1 7/7/1
f 5/5/1 8/8/1 4/4/1
f 7/7/1 6/6/1 1/1/1
f 6/6/1 7/7/1 5/5/1
f 7/7/1 1/1/1 2/2/1
f 11/11/2 15/15/2 16/16/2
f 15/15/2 11/11/2 12/12/2
f 14/14/2 16/16/2 13/13/2
f 16/16/2 14/14/2 11/11/2
f 18/18/2 12/12/2 17/17/2
f 12/12/2 18/18/2 15/15/2
f 17/17/2 13/13/2 16/16/2
f 13/13/2 17/17/2 12/12/2
f 19/21/3 20/22/3 12/19/3
f 12/19/3 11/20/3 19/21/3
f 2/19/4 1/20/4 14/23/4
f 14/23/4 13/24/4 2/19/4
f 21/26/5 4/4/5 3/3/5
f 13/13/5 3/3/5 2/2/5
f 21/26/5 12/12/5 20/25/5
f 3/3/5 13/13/5 21/26/5
f 12/12/5 21/26/5 13/13/5
f 22/30/6 11/27/6 14/2/6
f 19/31/6 11/27/6 22/30/6
f 6/28/6 22/30/6 14/2/6
f 22/30/6 6/28/6 5/29/6
f 6/28/6 14/2/6 1/13/6
f 16/32/5 15/33/5 8/34/5
f 8/34/5 7/35/5 16/32/5
f 17/36/3 16/37/3 7/38/3
f 7/38/3 10/39/3 17/36/3
f 18/34/6 17/35/6 10/32/6
f 10/32/6 9/33/6 18/34/6
f 15/38/4 18/39/4 8/37/4
f 9/36/4 8/37/4 18/39/4
f 4/24/3 21/22/3 22/21/3
f 22/21/3 5/23/3 4/24/3
f 22/5/1 21/4/1 20/27/1
f 20/27/1 19/40/1 22/5/1
