## ElementId 266891
## Vertice Count:8
## Triangle Count:12
mtllib 266891.mtl
o 266891

v -8.1164 -0.2 4.5011
v -8.1164 -0.2 8.0711
v -8.1164 5.3 8.0711
v -8.1164 5.3 4.5011
v -7.9164 -0.2 4.5011
v -7.9164 5.3 4.5011
v -7.9164 5.3 8.0711
v -7.9164 -0.2 8.0711
vt 0.1 0
vt 3.67 0
vt 3.67 5.5
vt 0.1 5.5
vt -0.1 0
vt -0.1 5.5
vt -3.67 5.5
vt -3.67 0
vt 3.67 0.1
vt 0.1 0.1
vt 0.1 -0.1
vt 3.67 -0.1
vn -0.3048 0 0
vn 0.3048 0 0
vn 0 -0.3048 0
vn 0 0.3048 0
vn 0 0 -0.3048
vn 0 0 0.3048

usemtl 197629
f 4/4/1 1/1/1 2/2/1
f 2/2/1 3/3/1 4/4/1
f 7/7/2 8/8/2 5/5/2
f 5/5/2 6/6/2 7/7/2

usemtl 31
f 2/9/3 1/10/3 8/12/3
f 5/11/3 8/12/3 1/10/3
f 4/11/4 3/12/4 7/9/4
f 7/9/4 6/10/4 4/11/4
f 5/5/5 1/1/5 4/4/5
f 4/4/5 6/6/5 5/5/5
f 2/5/6 8/1/6 7/4/6
f 7/4/6 3/6/6 2/5/6
