## ElementId 266861
## Vertice Count:16
## Triangle Count:26
mtllib 266861.mtl
o 266861

v -6.5164 -0.1002 16.1011
v -6.5164 0.9498 16.1011
v -6.5164 -0.1002 11.5722
v -6.5164 0.9498 11.5722
v -6.5164 -0.1002 10.8011
v -6.5164 0.9498 10.8011
v -4.4164 -0.1002 10.8011
v -4.4164 0.9498 10.8011
v -4.4164 -0.1002 9.5011
v -4.4164 0.9498 9.5011
v -6.5164 -0.0448 16.1011
v -6.5164 -0.1002 16.8011
v -6.5164 -0.0788 16.8011
v -2.5164 -0.1002 16.8011
v -2.5164 -0.0788 16.8011
v -2.5164 -0.1002 9.5011
vt 0 0
vt 4.5289 0
vt 5.3 0
vt 5.3 2.1
vt 6.6 2.1
vt 0.7 0
vt 0 4
vt 6 0
vt 7.3 4
vt 7.3 2.1
vt 6 2.1
vn 0.3048 0 0
vn 0.1363 0 0.2726
vn 0.2726 0 0.1363
vn -0.3048 0 0
vn -0.1363 0 0.2726
vn -0.2726 0 0.1363
vn 0 0 0.3048
vn 0 0 -0.3048
vn 0.2726 0 -0.1363
vn 0.1363 0 -0.2726
vn 0 0.3048 0

usemtl 79450
f 1/1/1 4/2/1 2/1/1
f 1/1/1 3/2/1 4/2/1
f 3/2/1 6/3/3 4/2/1
f 3/2/1 5/3/2 6/3/3
f 5/3/2 8/4/2 6/3/3
f 5/3/2 7/4/3 8/4/2
f 7/4/3 10/5/1 8/4/2
f 7/4/3 9/5/1 10/5/1
f 1/6/4 13/1/6 11/6/4
f 1/6/4 12/1/5 13/1/6
f 12/1/5 15/7/7 13/1/6
f 12/1/5 14/7/7 15/7/7
f 14/7/8 13/1/10 15/7/8
f 14/7/8 12/1/9 13/1/10
f 12/1/9 11/6/1 13/1/10
f 12/1/9 1/6/1 11/6/1
f 1/1/1 6/3/3 2/1/1
f 1/1/1 5/3/2 6/3/3
f 5/3/2 8/4/2 6/3/3
f 5/3/2 7/4/3 8/4/2
f 7/4/3 10/5/1 8/4/2
f 7/4/3 9/5/1 10/5/1
f 12/1/11 7/11/11 5/8/11
f 7/11/11 12/1/11 14/7/11
f 7/11/11 16/9/11 9/10/11
f 16/9/11 7/11/11 14/7/11
