## ElementId 266870
## Vertice Count:20
## Triangle Count:26
mtllib 266870.mtl
o 266870

v -12.3164 0.9498 10.7011
v -12.3164 0.217 10.7011
v -12.3164 0.9498 13.44
v -12.3164 0.0842 13.44
v -12.3164 0.9498 16.1011
v -12.3164 -0.0448 16.1011
v -6.5164 0.9498 16.1011
v -6.5164 -0.0448 16.1011
v -7.8164 0.9498 8.1711
v -7.8164 0.3396 8.1711
v -7.8164 0.9498 8.2711
v -7.8164 0.3348 8.2711
v -5.9764 0.9498 8.1711
v -7.8164 0.9498 9.4711
v -8.1164 0.9498 9.4711
v -8.1164 0.9498 10.7011
v -6.5164 0.9498 10.8011
v -4.4164 0.9498 10.8011
v -4.4164 0.9498 9.5011
v -5.9764 0.9498 9.5011
vt 5.4 0
vt 2.6611 0
vt 0 0
vt 0 5.8
vt 0.1 0.6151
vt 0.1 0.0048
vt 0 0.6151
vt 7.93 6.34
vt 7.93 4.5
vt 6.63 4.5
vt 6.63 4.2
vt 5.4 4.2
vt 5.3 5.8
vt 5.3 7.9
vt 6.6 7.9
vt 6.6 6.34
vn 0.3048 0 0
vn 0.1363 0 -0.2726
vn 0.2726 0 -0.1363
vn 0 0 -0.3048
vn 0 0.3048 0

usemtl 79450
f 1/1/1 4/2/1 2/1/1
f 1/1/1 3/2/1 4/2/1
f 3/2/1 6/3/3 4/2/1
f 3/2/1 5/3/2 6/3/3
f 5/3/2 8/4/4 6/3/3
f 5/3/2 7/4/4 8/4/4
f 9/5/1 12/3/1 10/6/1
f 9/5/1 11/7/1 12/3/1
f 1/1/1 4/2/1 2/1/1
f 1/1/1 3/2/1 4/2/1
f 3/2/1 6/3/3 4/2/1
f 3/2/1 5/3/2 6/3/3
f 5/3/2 8/4/4 6/3/3
f 5/3/2 7/4/4 8/4/4
f 9/5/1 12/3/1 10/6/1
f 9/5/1 11/7/1 12/3/1
f 5/3/5 16/12/5 1/1/5
f 16/12/5 5/3/5 7/4/5
f 14/10/5 15/11/5 16/12/5
f 9/9/5 14/10/5 13/8/5
f 16/12/5 17/13/5 14/10/5
f 7/4/5 17/13/5 16/12/5
f 17/13/5 18/14/5 20/16/5
f 19/15/5 20/16/5 18/14/5
f 13/8/5 14/10/5 20/16/5
f 20/16/5 14/10/5 17/13/5
