## ElementId 267034
## Vertice Count:22
## Triangle Count:40
mtllib 267034.mtl
o 267034

v -2.5164 11.7 15.5011
v -2.5164 8.5 15.5011
v -2.5164 5.3 15.5011
v -2.5164 5.3 4.5011
v -2.5164 8.5 4.5011
v -2.5164 11.7 4.5011
v -2.7164 5.3 15.5011
v -2.7164 8.5 15.5011
v -2.7164 9.1238 15.5011
v -2.7164 11.7 15.5011
v -2.7164 11.7 15.4011
v -2.7164 11.7 10.9011
v -2.7164 11.7 10.7011
v -2.7164 11.7 8.2711
v -2.7164 11.7 8.0711
v -2.7164 11.7 4.5011
v -2.7164 5.3 4.5011
v -2.7164 5.3 8.0711
v -2.7164 5.3 8.2711
v -2.7164 5.3 10.7011
v -2.7164 5.3 10.9011
v -2.6364 11.7 15.5011
vt 0 6.4
vt 0 3.2
vt 0 0
vt 11 0
vt 11 3.2
vt 11 6.4
vt 0 3.8238
vt -0.1 6.4
vt -4.6 6.4
vt -4.8 6.4
vt -7.23 6.4
vt -7.43 6.4
vt -11 6.4
vt -11 0
vt -7.43 0
vt -7.23 0
vt -4.8 0
vt -4.6 0
vt 11 0.1
vt 0 0.1
vt 0 -0.1
vt 4.6 -0.1
vt 4.8 -0.1
vt 7.23 -0.1
vt 7.43 -0.1
vt 11 -0.1
vt 7.43 0.1
vt 7.23 0.1
vt 4.8 0.1
vt 4.6 0.1
vt 0.1 0.1
vt 0 0.02
vt 0.1 6.4
vt -0.02 6.4
vt -0.1 3.8238
vt -0.1 3.2
vt -0.1 0
vt 0.1 0
vt 0.1 3.2
vn 0.3048 0 0
vn -0.3048 0 0
vn 0 -0.3048 0
vn 0 0.3048 0
vn 0 0 0.3048
vn 0 0 -0.3048

usemtl 90484
f 2/2/1 3/3/1 4/4/1
f 1/1/1 2/2/1 6/6/1
f 4/4/1 5/5/1 2/2/1
f 5/5/1 6/6/1 2/2/1
f 15/12/2 17/14/2 18/15/2
f 15/12/2 18/15/2 19/16/2
f 16/13/2 17/14/2 15/12/2
f 14/11/2 20/17/2 13/10/2
f 14/11/2 15/12/2 19/16/2
f 20/17/2 14/11/2 19/16/2
f 12/9/2 21/18/2 8/2/2
f 8/2/2 21/18/2 7/3/2
f 12/9/2 8/2/2 9/7/2
f 13/10/2 20/17/2 12/9/2
f 11/8/2 12/9/2 9/7/2
f 9/7/2 10/1/2 11/8/2
f 12/9/2 20/17/2 21/18/2
f 3/20/3 21/22/3 20/23/3
f 21/22/3 3/20/3 7/21/3
f 4/19/3 20/23/3 19/24/3
f 20/23/3 4/19/3 3/20/3
f 17/26/3 4/19/3 18/25/3
f 18/25/3 4/19/3 19/24/3
f 6/26/4 13/29/4 1/21/4
f 13/29/4 6/26/4 14/28/4
f 22/32/4 1/21/4 11/31/4
f 12/30/4 1/21/4 13/29/4
f 11/31/4 1/21/4 12/30/4
f 15/27/4 14/28/4 6/26/4
f 11/31/4 10/20/4 22/32/4
f 15/27/4 6/26/4 16/19/4
f 2/39/5 1/33/5 9/35/5
f 8/36/5 3/38/5 2/39/5
f 9/35/5 1/33/5 22/34/5
f 9/35/5 8/36/5 2/39/5
f 8/36/5 7/37/5 3/38/5
f 9/35/5 22/34/5 10/8/5
f 5/36/6 17/38/6 16/33/6
f 17/38/6 5/36/6 4/37/6
f 5/36/6 16/33/6 6/8/6
