## ElementId 267066
## Vertice Count:24
## Triangle Count:44
mtllib 267066.mtl
o 267066

v -12.3164 8.4 4.5011
v -2.7164 8.4 4.5011
v -2.7164 8.4 8.0711
v -6.4164 8.4 8.0711
v -6.4164 8.4 10.9011
v -2.7164 8.4 10.9011
v -2.7164 8.4 16.6011
v -6.4164 8.4 16.6011
v -6.4164 8.4 15.4011
v -8.1164 8.4 15.4011
v -8.1164 8.4 16.1011
v -12.3164 8.4 16.1011
v -12.3164 8.5 4.5011
v -12.3164 8.5 16.1011
v -8.1164 8.5 16.1011
v -8.1164 8.5 15.4011
v -6.4164 8.5 15.4011
v -6.4164 8.5 16.6011
v -2.7164 8.5 16.6011
v -2.7164 8.5 10.9011
v -6.4164 8.5 10.9011
v -6.4164 8.5 8.0711
v -2.7164 8.5 8.0711
v -2.7164 8.5 4.5011
vt -4.5011 -7.2836
vt -4.5011 2.3164
vt -8.0711 2.3164
vt -8.0711 -1.3836
vt -10.9011 -1.3836
vt -10.9011 2.3164
vt -16.6011 2.3164
vt -16.6011 -1.3836
vt -15.4011 -1.3836
vt -15.4011 -3.0836
vt -16.1011 -3.0836
vt -16.1011 -7.2836
vt -4.5011 7.2836
vt -16.1011 7.2836
vt -16.1011 3.0836
vt -15.4011 3.0836
vt -15.4011 1.3836
vt -16.6011 1.3836
vt -16.6011 -2.3164
vt -10.9011 -2.3164
vt -10.9011 1.3836
vt -8.0711 1.3836
vt -8.0711 -2.3164
vt -4.5011 -2.3164
vt -2.3164 7.35
vt 7.2836 7.35
vt 7.2836 7.45
vt -2.3164 7.45
vt -8.0711 7.35
vt -4.5011 7.35
vt -4.5011 7.45
vt -8.0711 7.45
vt -1.3836 7.35
vt 2.3164 7.35
vt 2.3164 7.45
vt -1.3836 7.45
vt -10.9011 7.35
vt -10.9011 7.45
vt 1.3836 7.35
vt 1.3836 7.45
vt -16.6011 7.35
vt -16.6011 7.45
vt -15.4011 -7.35
vt -16.6011 -7.35
vt -16.6011 -7.45
vt -15.4011 -7.45
vt -3.0836 7.35
vt -3.0836 7.45
vt -16.1011 7.35
vt -15.4011 7.35
vt -15.4011 7.45
vt -16.1011 7.45
vt -7.2836 7.35
vt -7.2836 7.45
vt -4.5011 -7.35
vt -16.1011 -7.35
vt -16.1011 -7.45
vt -4.5011 -7.45
vn 0 -0.3048 0
vn 0 0.3048 0
vn 0 0 -0.3048
vn 0.3048 0 0
vn 0 0 0.3048
vn -0.3048 0 0

usemtl 54872
f 1/1/1 4/4/1 5/5/1
f 4/4/1 1/1/1 2/2/1
f 1/1/1 5/5/1 12/12/1
f 12/12/1 10/10/1 11/11/1
f 10/10/1 12/12/1 5/5/1
f 10/10/1 5/5/1 9/9/1
f 6/6/1 9/9/1 5/5/1
f 9/9/1 7/7/1 8/8/1
f 7/7/1 9/9/1 6/6/1
f 3/3/1 4/4/1 2/2/1
f 17/17/2 20/20/2 21/21/2
f 19/19/2 17/17/2 18/18/2
f 17/17/2 19/19/2 20/20/2
f 23/23/2 24/24/2 22/22/2
f 22/22/2 13/13/2 21/21/2
f 13/13/2 22/22/2 24/24/2
f 21/21/2 13/13/2 14/14/2
f 16/16/2 14/14/2 15/15/2
f 14/14/2 16/16/2 21/21/2
f 16/16/2 17/17/2 21/21/2
f 2/25/3 1/26/3 13/27/3
f 13/27/3 24/28/3 2/25/3
f 3/29/4 2/30/4 24/31/4
f 24/31/4 23/32/4 3/29/4
f 4/33/5 3/34/5 22/36/5
f 23/35/5 22/36/5 3/34/5
f 5/37/4 4/29/4 21/38/4
f 22/32/4 21/38/4 4/29/4
f 6/25/3 5/39/3 20/28/3
f 21/40/3 20/28/3 5/39/3
f 7/41/4 6/37/4 20/38/4
f 20/38/4 19/42/4 7/41/4
f 8/33/5 7/34/5 19/35/5
f 19/35/5 18/36/5 8/33/5
f 9/43/6 8/44/6 18/45/6
f 18/45/6 17/46/6 9/43/6
f 10/47/5 9/33/5 17/36/5
f 17/36/5 16/48/5 10/47/5
f 11/49/4 10/50/4 15/52/4
f 16/51/4 15/52/4 10/50/4
f 12/53/5 11/47/5 15/48/5
f 15/48/5 14/54/5 12/53/5
f 1/55/6 12/56/6 14/57/6
f 14/57/6 13/58/6 1/55/6
