## ElementId 267039
## Vertice Count:8
## Triangle Count:12
mtllib 267039.mtl
o 267039

v -2.7164 5.3 8.0711
v -6.5164 5.3 8.0711
v -6.5164 8.5 8.0711
v -2.7164 8.5 8.0711
v -2.7164 5.3 8.2711
v -2.7164 8.5 8.2711
v -6.5164 8.5 8.2711
v -6.5164 5.3 8.2711
vt 0.1 0
vt 3.9 0
vt 3.9 3.2
vt 0.1 3.2
vt -0.1 0
vt -0.1 3.2
vt -3.9 3.2
vt -3.9 0
vt 3.9 0.1
vt 0.1 0.1
vt 0.1 -0.1
vt 3.9 -0.1
vn 0 0 -0.3048
vn 0 0 0.3048
vn 0 -0.3048 0
vn 0 0.3048 0
vn -0.3048 0 0
vn 0.3048 0 0

usemtl 90484
f 4/4/1 1/1/1 3/3/1
f 2/2/1 3/3/1 1/1/1

usemtl 197629
f 7/7/2 8/8/2 5/5/2
f 5/5/2 6/6/2 7/7/2

usemtl 31
f 2/9/3 1/10/3 8/12/3
f 5/11/3 8/12/3 1/10/3
f 4/11/4 3/12/4 7/9/4
f 7/9/4 6/10/4 4/11/4
f 3/6/5 2/5/5 8/1/5
f 8/1/5 7/4/5 3/6/5
f 5/5/6 1/1/6 4/4/6
f 4/4/6 6/6/6 5/5/6
