## ElementId 267037
## Vertice Count:18
## Triangle Count:32
mtllib 267037.mtl
o 267037

v -6.6164 5.3 10.9011
v -6.6164 5.3 11.6511
v -6.6164 7.4 11.6511
v -6.6164 7.4 12.5511
v -6.6164 5.3 12.5511
v -6.6164 5.3 15.4011
v -6.6164 5.3 15.5011
v -6.6164 8.5 15.5011
v -6.6164 8.5 15.4011
v -6.6164 8.5 10.9011
v -6.4164 7.4 11.6511
v -6.4164 5.3 11.6511
v -6.4164 5.3 10.9011
v -6.4164 8.5 10.9011
v -6.4164 8.5 15.5011
v -6.4164 5.3 15.5011
v -6.4164 5.3 12.5511
v -6.4164 7.4 12.5511
vt 0.1 0
vt 0.85 0
vt 0.85 2.1
vt 1.75 2.1
vt 1.75 0
vt 4.6 0
vt 4.7 0
vt 4.7 3.2
vt 4.6 3.2
vt 0.1 3.2
vt -0.85 2.1
vt -0.85 0
vt -0.1 0
vt -0.1 3.2
vt -4.7 3.2
vt -4.7 0
vt -1.75 0
vt -1.75 2.1
vt 0.1 -0.1
vt 0.85 -0.1
vt 0.85 0.1
vt 0.1 0.1
vt 1.75 -0.1
vt 4.7 -0.1
vt 4.7 0.1
vt 4.6 0.1
vt 1.75 0.1
vt 4.6 -0.1
vt -0.1 2.1
vt 0.1 2.1
vn -0.3048 0 0
vn 0.3048 0 0
vn 0 -0.3048 0
vn 0 0 0.3048
vn 0 0.3048 0
vn 0 0 -0.3048

usemtl 90484
f 1/1/1 2/2/1 3/3/1
f 1/1/1 3/3/1 10/10/1
f 10/10/1 3/3/1 4/4/1
f 6/6/1 7/7/1 9/9/1
f 6/6/1 9/9/1 4/4/1
f 9/9/1 7/7/1 8/8/1
f 4/4/1 9/9/1 10/10/1
f 6/6/1 4/4/1 5/5/1

usemtl 197629
f 16/16/2 17/17/2 18/18/2
f 15/15/2 18/18/2 14/14/2
f 18/18/2 15/15/2 16/16/2
f 12/12/2 13/13/2 11/11/2
f 11/11/2 14/14/2 18/18/2
f 14/14/2 11/11/2 13/13/2

usemtl 31
f 2/21/3 1/22/3 13/19/3
f 13/19/3 12/20/3 2/21/3
f 7/25/3 6/26/3 16/24/3
f 17/23/3 16/24/3 6/26/3
f 17/23/3 6/26/3 5/27/3
f 8/14/4 7/13/4 16/1/4
f 16/1/4 15/10/4 8/14/4
f 9/28/5 15/25/5 14/22/5
f 15/25/5 9/28/5 8/24/5
f 9/28/5 14/22/5 10/19/5
f 13/13/6 1/1/6 10/10/6
f 10/10/6 14/14/6 13/13/6
f 3/29/4 2/13/4 12/1/4
f 12/1/4 11/30/4 3/29/4
f 4/27/3 3/21/3 11/20/3
f 11/20/3 18/23/3 4/27/3
f 5/1/6 4/30/6 18/29/6
f 18/29/6 17/13/6 5/1/6
