## ElementId 267038
## Vertice Count:18
## Triangle Count:36
mtllib 267038.mtl
o 267038

v -6.4164 5.3 16.8011
v -2.5164 5.3 16.8011
v -2.5164 8.4309 16.8011
v -6.4164 8.4309 16.8011
v -2.9164 6.3 16.8011
v -6.2164 6.3 16.8011
v -6.2164 8.1 16.8011
v -2.9164 8.1 16.8011
v -6.4164 5.3 16.6011
v -6.4164 8.5464 16.6011
v -2.7164 8.5464 16.6011
v -2.5164 8.5464 16.6011
v -2.5164 5.3 16.6011
v -2.7164 5.3 16.6011
v -2.9164 6.3 16.6011
v -2.9164 8.1 16.6011
v -6.2164 8.1 16.6011
v -6.2164 6.3 16.6011
vt 0.1 0
vt 4 0
vt 4 3.1309
vt 0.1 3.1309
vt 3.6 1
vt 0.3 1
vt 0.3 2.8
vt 3.6 2.8
vt -0.1 0
vt -0.1 3.2464
vt -3.8 3.2464
vt -4 3.2464
vt -4 0
vt -3.8 0
vt -3.6 1
vt -3.6 2.8
vt -0.3 2.8
vt -0.3 1
vt 4 0.1
vt 0.1 0.1
vt 0.1 -0.1
vt 3.8 -0.1
vt 4 -0.1
vt 0.1 1.4789
vt 4 1.4789
vt 4 1.7098
vt 3.8 1.7098
vt 0.1 1.7098
vt -1.3 3.1309
vt -1.3 0
vt -1.1 0
vt -1.1 3.2464
vt -0.1 2.8
vt -0.1 1
vt 0.1 1
vt 0.1 2.8
vt 0.3 -0.1
vt 3.6 -0.1
vt 3.6 0.1
vt 0.3 0.1
vn 0 0 0.3048
vn 0 0 -0.3048
vn 0 -0.3048 0
vn -0.3048 0 0
vn 0 0.264 0.1524
vn 0.3048 0 0
vn 0 0.3048 0

usemtl 31
f 1/1/1 6/6/1 4/4/1
f 6/6/1 1/1/1 5/5/1
f 4/4/1 7/7/1 8/8/1
f 7/7/1 4/4/1 6/6/1
f 5/5/1 2/2/1 3/3/1
f 2/2/1 5/5/1 1/1/1
f 8/8/1 3/3/1 4/4/1
f 3/3/1 8/8/1 5/5/1
f 15/15/2 12/12/2 13/13/2
f 12/12/2 16/16/2 11/11/2
f 15/15/2 16/16/2 12/12/2
f 11/11/2 16/16/2 17/17/2
f 13/13/2 14/14/2 15/15/2
f 18/18/2 9/9/2 10/10/2
f 18/18/2 15/15/2 14/14/2
f 17/17/2 10/10/2 11/11/2
f 10/10/2 17/17/2 18/18/2
f 18/18/2 14/14/2 9/9/2
f 2/19/3 1/20/3 14/22/3
f 9/21/3 14/22/3 1/20/3
f 14/22/3 13/23/3 2/19/3
f 9/9/4 1/1/4 4/4/4
f 4/4/4 10/10/4 9/9/4
f 10/28/5 4/24/5 11/27/5
f 11/27/5 3/25/5 12/26/5
f 3/25/5 11/27/5 4/24/5
f 16/33/4 15/34/4 5/35/4
f 5/35/4 8/36/4 16/33/4
f 17/37/3 16/38/3 7/40/3
f 8/39/3 7/40/3 16/38/3
f 18/35/6 17/36/6 7/33/6
f 7/33/6 6/34/6 18/35/6
f 15/39/7 18/40/7 6/37/7
f 6/37/7 5/38/7 15/39/7

usemtl 90484
f 3/29/6 2/30/6 13/31/6
f 13/31/6 12/32/6 3/29/6
