## ElementId 267077
## Vertice Count:18
## Triangle Count:32
mtllib 267077.mtl
o 267077

v -7.9164 5.3 12.9011
v -7.9164 5.3 12.5011
v -7.9164 7.4 12.5011
v -7.9164 7.4 11.7011
v -7.9164 5.3 11.7011
v -7.9164 5.3 10.9011
v -7.9164 8.5 10.9011
v -7.9164 8.5 12.9011
v -8.1164 7.4 12.5011
v -8.1164 5.3 12.5011
v -8.1164 5.3 12.7011
v -8.1164 5.3 12.9011
v -8.1164 8.5 12.9011
v -8.1164 8.5 12.7011
v -8.1164 8.5 10.9011
v -8.1164 5.3 10.9011
v -8.1164 5.3 11.7011
v -8.1164 7.4 11.7011
vt -0.1 0
vt 0.3 0
vt 0.3 2.1
vt 1.1 2.1
vt 1.1 0
vt 1.9 0
vt 1.9 3.2
vt -0.1 3.2
vt -0.3 2.1
vt -0.3 0
vt 0.1 0
vt 0.1 3.2
vt -1.9 3.2
vt -1.9 0
vt -1.1 0
vt -1.1 2.1
vt -0.1 -0.1
vt 0.1 -0.1
vt 0.3 -0.1
vt 0.3 0.1
vt -0.1 0.1
vt 1.1 -0.1
vt 1.9 -0.1
vt 1.9 0.1
vt 1.1 0.1
vt 0.1 0.1
vt -0.1 2.1
vt 0.1 2.1
vn 0.3048 0 0
vn -0.3048 0 0
vn 0 -0.3048 0
vn 0 0.3048 0
vn 0 0 -0.3048
vn 0 0 0.3048

usemtl 197629
f 1/1/1 2/2/1 3/3/1
f 8/8/1 3/3/1 4/4/1
f 3/3/1 8/8/1 1/1/1
f 5/5/1 6/6/1 4/4/1
f 4/4/1 7/7/1 8/8/1
f 7/7/1 4/4/1 6/6/1
f 13/8/6 12/1/6 1/11/6
f 1/11/6 8/12/6 13/8/6

usemtl 90484
f 16/14/2 17/15/2 18/16/2
f 14/8/2 15/13/2 18/16/2
f 18/16/2 15/13/2 16/14/2
f 14/8/2 18/16/2 9/9/2
f 12/11/2 13/12/2 9/9/2
f 11/1/2 12/11/2 9/9/2
f 9/9/2 13/12/2 14/8/2
f 11/1/2 9/9/2 10/10/2

usemtl 31
f 2/20/3 1/21/3 11/18/3
f 2/20/3 11/18/3 10/19/3
f 11/18/3 1/21/3 12/17/3
f 6/24/3 5/25/3 16/23/3
f 17/22/3 16/23/3 5/25/3
f 8/17/4 7/23/4 14/26/4
f 15/24/4 14/26/4 7/23/4
f 14/26/4 13/21/4 8/17/4
f 6/1/5 16/11/5 15/12/5
f 15/12/5 7/8/5 6/1/5
f 3/27/5 2/1/5 10/11/5
f 10/11/5 9/28/5 3/27/5
f 4/25/3 3/20/3 18/22/3
f 9/19/3 18/22/3 3/20/3
f 5/11/6 4/28/6 18/27/6
f 18/27/6 17/1/6 5/11/6
