## ElementId 267042
## Vertice Count:18
## Triangle Count:36
mtllib 267042.mtl
o 267042

v -12.5164 5.3 4.5011
v -12.5164 5.3 10.7011
v -12.5164 8.3476 10.7011
v -12.5164 8.5 10.7011
v -12.5164 8.5 4.5011
v -12.5164 8.3476 4.5011
v -12.5164 7.9 9.9361
v -12.5164 6.3 9.9361
v -12.5164 6.3 9.0361
v -12.5164 7.9 9.0361
v -12.3164 5.3 10.7011
v -12.3164 5.3 4.5011
v -12.3164 8.5 4.5011
v -12.3164 8.5 10.7011
v -12.3164 6.3 9.9361
v -12.3164 7.9 9.9361
v -12.3164 7.9 9.0361
v -12.3164 6.3 9.0361
vt 0.1 0
vt 6.3 0
vt 6.3 3.0476
vt 6.3 3.2
vt 0.1 3.2
vt 0.1 3.0476
vt 5.535 2.6
vt 5.535 1
vt 4.635 1
vt 4.635 2.6
vt -6.3 0
vt -0.1 0
vt -0.1 3.2
vt -6.3 3.2
vt -5.535 1
vt -5.535 2.6
vt -4.635 2.6
vt -4.635 1
vt 6.3 0.1
vt 0.1 0.1
vt 0.1 -0.1
vt 6.3 -0.1
vt -0.1 3.0476
vt -0.1 2.6
vt -0.1 1
vt 0.1 1
vt 0.1 2.6
vt 4.635 -0.1
vt 5.535 -0.1
vt 5.535 0.1
vt 4.635 0.1
vn -0.3048 0 0
vn 0.3048 0 0
vn 0 -0.3048 0
vn 0 0.3048 0
vn 0 0 -0.3048
vn 0 0 0.3048

usemtl 31
f 1/1/1 9/9/1 6/6/1
f 9/9/1 1/1/1 2/2/1
f 5/5/1 6/6/1 10/10/1
f 10/10/1 6/6/1 9/9/1
f 5/5/1 10/10/1 4/4/1
f 8/8/1 2/2/1 3/3/1
f 2/2/1 8/8/1 9/9/1
f 7/7/1 3/3/1 4/4/1
f 3/3/1 7/7/1 8/8/1
f 7/7/1 4/4/1 10/10/1
f 2/19/3 1/20/3 12/21/3
f 12/21/3 11/22/3 2/19/3
f 5/21/4 4/22/4 14/19/4
f 14/19/4 13/20/4 5/21/4
f 13/13/5 12/12/5 6/6/5
f 1/1/5 6/6/5 12/12/5
f 5/5/5 13/13/5 6/6/5
f 3/23/6 11/1/6 14/5/6
f 11/1/6 3/23/6 2/12/6
f 14/5/6 4/13/6 3/23/6
f 16/24/5 15/25/5 8/26/5
f 8/26/5 7/27/5 16/24/5
f 17/28/3 16/29/3 7/30/3
f 7/30/3 10/31/3 17/28/3
f 18/26/6 17/27/6 10/24/6
f 10/24/6 9/25/6 18/26/6
f 15/30/4 18/31/4 8/29/4
f 9/28/4 8/29/4 18/31/4

usemtl 90484
f 11/11/2 15/15/2 14/14/2
f 15/15/2 11/11/2 18/18/2
f 14/14/2 16/16/2 17/17/2
f 16/16/2 14/14/2 15/15/2
f 18/18/2 12/12/2 13/13/2
f 12/12/2 18/18/2 11/11/2
f 17/17/2 13/13/2 14/14/2
f 13/13/2 17/17/2 18/18/2
