## ElementId 267044
## Vertice Count:11
## Triangle Count:18
mtllib 267044.mtl
o 267044

v -7.9164 5.3 16.1011
v -7.9164 5.3 15.6011
v -7.9164 5.3 15.4011
v -7.9164 8.5 15.4011
v -7.9164 8.5 15.6011
v -7.9164 8.5 16.1011
v -7.9164 8.3476 16.1011
v -8.1164 5.3 16.1011
v -8.1164 8.5 16.1011
v -8.1164 8.5 15.4011
v -8.1164 5.3 15.4011
vt 0.1 0
vt 0.6 0
vt 0.8 0
vt 0.8 3.2
vt 0.6 3.2
vt 0.1 3.2
vt 0.1 3.0476
vt -0.1 0
vt -0.1 3.2
vt -0.8 3.2
vt -0.8 0
vt 0.8 0.1
vt 0.6 0.1
vt 0.1 0.1
vt 0.1 -0.1
vt 0.8 -0.1
vt 0.6 -0.1
vn 0.3048 0 0
vn -0.3048 0 0
vn 0 -0.3048 0
vn 0 0.3048 0
vn 0 0 -0.3048
vn 0 0 0.3048

usemtl 31
f 7/7/1 1/1/1 2/2/1
f 6/6/1 7/7/1 5/5/1
f 3/3/1 4/4/1 7/7/1
f 5/5/1 7/7/1 4/4/1
f 7/7/1 2/2/1 3/3/1
f 10/10/2 11/11/2 9/9/2
f 8/8/2 9/9/2 11/11/2
f 2/13/3 8/15/3 11/16/3
f 8/15/3 2/13/3 1/14/3
f 2/13/3 11/16/3 3/12/3
f 5/17/4 10/12/4 9/14/4
f 10/12/4 5/17/4 4/16/4
f 5/17/4 9/14/4 6/15/4
f 4/9/5 3/8/5 11/1/5
f 11/1/5 10/6/5 4/9/5
f 9/9/6 8/8/6 7/7/6
f 1/1/6 7/7/6 8/8/6
f 6/6/6 9/9/6 7/7/6
