## ElementId 267035
## Vertice Count:43
## Triangle Count:94
mtllib 267035.mtl
o 267035

v -2.5164 5.3 4.3011
v -2.7164 5.3 4.3011
v -12.5164 5.3 4.3011
v -12.5164 8.3476 4.3011
v -12.5164 8.5 4.3011
v -2.6364 8.5 4.3011
v -2.5164 8.5 4.3011
v -11.4664 8.1 4.3011
v -11.4664 6.3 4.3011
v -8.9664 6.3 4.3011
v -8.9664 8.1 4.3011
v -4.0164 8.1 4.3011
v -4.0164 6.3 4.3011
v -3.1164 6.3 4.3011
v -3.1164 8.1 4.3011
v -7.2664 8.1 4.3011
v -7.2664 6.3 4.3011
v -5.2664 6.3 4.3011
v -5.2664 8.1 4.3011
v -12.5164 5.3 4.5011
v -12.3164 5.3 4.5011
v -8.1164 5.3 4.5011
v -7.9164 5.3 4.5011
v -2.7164 5.3 4.5011
v -2.5164 5.3 4.5011
v -2.5164 8.5 4.5011
v -7.9164 8.5 4.5011
v -8.1164 8.5 4.5011
v -12.3164 8.5 4.5011
v -12.5164 8.5 4.5011
v -12.5164 8.3476 4.5011
v -11.4664 6.3 4.5011
v -11.4664 8.1 4.5011
v -8.9664 8.1 4.5011
v -8.9664 6.3 4.5011
v -4.0164 6.3 4.5011
v -4.0164 8.1 4.5011
v -3.1164 8.1 4.5011
v -3.1164 6.3 4.5011
v -7.2664 6.3 4.5011
v -7.2664 8.1 4.5011
v -5.2664 8.1 4.5011
v -5.2664 6.3 4.5011
vt -0.06 0
vt 0.14 0
vt 9.94 0
vt 9.94 3.0476
vt 9.94 3.2
vt 0.06 3.2
vt -0.06 3.2
vt 8.89 2.8
vt 8.89 1
vt 6.39 1
vt 6.39 2.8
vt 1.44 2.8
vt 1.44 1
vt 0.54 1
vt 0.54 2.8
vt 4.69 2.8
vt 4.69 1
vt 2.69 1
vt 2.69 2.8
vt -9.94 0
vt -9.74 0
vt -5.54 0
vt -5.34 0
vt -0.14 0
vt 0.06 0
vt -5.34 3.2
vt -5.54 3.2
vt -9.74 3.2
vt -9.94 3.2
vt -9.94 3.0476
vt -8.89 1
vt -8.89 2.8
vt -6.39 2.8
vt -6.39 1
vt -1.44 1
vt -1.44 2.8
vt -0.54 2.8
vt -0.54 1
vt -4.69 1
vt -4.69 2.8
vt -2.69 2.8
vt -2.69 1
vt 9.94 0.1
vt 0.14 0.1
vt -0.06 0.1
vt -0.06 -0.1
vt 0.14 -0.1
vt 5.34 -0.1
vt 5.54 -0.1
vt 9.74 -0.1
vt 9.94 -0.1
vt 9.74 0.1
vt 5.54 0.1
vt 5.34 0.1
vt 0.06 -0.1
vt 0.1 5.3
vt 0.1 8.5
vt -0.1 8.5
vt -0.1 5.3
vt -0.1 0
vt 0.1 0
vt 0.1 3.0476
vt 0.1 3.2
vt -0.1 3.2
vt -0.1 3.0476
vt -0.1 2.8
vt -0.1 1
vt 0.1 1
vt 0.1 2.8
vt 6.39 -0.1
vt 8.89 -0.1
vt 8.89 0.1
vt 6.39 0.1
vt 0.54 -0.1
vt 1.44 -0.1
vt 1.44 0.1
vt 0.54 0.1
vt 2.69 -0.1
vt 4.69 -0.1
vt 4.69 0.1
vt 2.69 0.1
vn 0 0 -0.3048
vn 0 0 0.3048
vn 0 -0.3048 0
vn 0 0.3048 0
vn 0.3048 0 0
vn -0.3048 0 0

usemtl 31
f 1/1/1 2/2/1 14/14/1
f 13/13/1 14/14/1 2/2/1
f 2/2/1 18/18/1 13/13/1
f 1/1/1 14/14/1 7/7/1
f 6/6/1 7/7/1 15/15/1
f 12/12/1 13/13/1 19/19/1
f 12/12/1 19/19/1 6/6/1
f 15/15/1 12/12/1 6/6/1
f 7/7/1 14/14/1 15/15/1
f 6/6/1 19/19/1 16/16/1
f 13/13/1 18/18/1 19/19/1
f 18/18/1 2/2/1 17/17/1
f 10/10/1 3/3/1 9/9/1
f 3/3/1 10/10/1 17/17/1
f 9/9/1 3/3/1 4/4/1
f 17/17/1 10/10/1 11/11/1
f 2/2/1 3/3/1 17/17/1
f 16/16/1 11/11/1 5/5/1
f 16/16/1 17/17/1 11/11/1
f 8/8/1 4/4/1 5/5/1
f 4/4/1 8/8/1 9/9/1
f 8/8/1 5/5/1 11/11/1
f 16/16/1 5/5/1 6/6/1
f 23/48/3 2/44/3 24/47/3
f 3/43/3 23/48/3 22/49/3
f 23/48/3 3/43/3 2/44/3
f 2/44/3 1/45/3 25/46/3
f 21/50/3 20/51/3 3/43/3
f 21/50/3 3/43/3 22/49/3
f 24/47/3 2/44/3 25/46/3
f 5/51/4 27/54/4 6/55/4
f 27/54/4 5/51/4 28/53/4
f 26/45/4 7/46/4 6/55/4
f 6/55/4 27/54/4 26/45/4
f 29/52/4 28/53/4 5/51/4
f 29/52/4 5/51/4 30/43/4
f 4/65/6 3/60/6 20/61/6
f 5/64/6 4/65/6 31/62/6
f 20/61/6 31/62/6 4/65/6
f 31/62/6 30/63/6 5/64/6
f 33/66/5 32/67/5 9/68/5
f 9/68/5 8/69/5 33/66/5
f 34/70/3 33/71/3 8/72/3
f 8/72/3 11/73/3 34/70/3
f 35/68/6 34/69/6 11/66/6
f 11/66/6 10/67/6 35/68/6
f 32/72/4 35/73/4 9/71/4
f 10/70/4 9/71/4 35/73/4
f 37/66/5 36/67/5 13/68/5
f 13/68/5 12/69/5 37/66/5
f 38/74/3 37/75/3 12/76/3
f 12/76/3 15/77/3 38/74/3
f 39/68/6 38/69/6 15/66/6
f 15/66/6 14/67/6 39/68/6
f 36/76/4 39/77/4 13/75/4
f 14/74/4 13/75/4 39/77/4
f 41/66/5 40/67/5 17/68/5
f 17/68/5 16/69/5 41/66/5
f 42/78/3 41/79/3 19/81/3
f 16/80/3 19/81/3 41/79/3
f 43/68/6 42/69/6 19/66/6
f 19/66/6 18/67/6 43/68/6
f 40/80/4 43/81/4 18/78/4
f 18/78/4 17/79/4 40/80/4

usemtl 197629
f 20/20/2 21/21/2 32/31/2
f 32/31/2 21/21/2 22/22/2
f 20/20/2 32/31/2 31/30/2
f 41/40/2 28/27/2 34/33/2
f 22/22/2 35/34/2 32/31/2
f 34/33/2 35/34/2 40/39/2
f 30/29/2 31/30/2 29/28/2
f 29/28/2 31/30/2 33/32/2
f 34/33/2 28/27/2 33/32/2
f 27/26/2 28/27/2 41/40/2
f 33/32/2 28/27/2 29/28/2
f 31/30/2 32/31/2 33/32/2
f 35/34/2 22/22/2 40/39/2
f 43/42/2 24/24/2 36/35/2
f 24/24/2 43/42/2 23/23/2
f 42/41/2 43/42/2 36/35/2
f 23/23/2 43/42/2 40/39/2
f 39/38/2 24/24/2 25/25/2
f 24/24/2 39/38/2 36/35/2
f 39/38/2 25/25/2 26/6/2
f 42/41/2 26/6/2 27/26/2
f 41/40/2 34/33/2 40/39/2
f 37/36/2 38/37/2 26/6/2
f 42/41/2 36/35/2 37/36/2
f 26/6/2 38/37/2 39/38/2
f 37/36/2 26/6/2 42/41/2
f 42/41/2 27/26/2 41/40/2
f 40/39/2 22/22/2 23/23/2

usemtl 90484
f 26/58/5 25/59/5 1/56/5
f 1/56/5 7/57/5 26/58/5
