## ElementId 267036
## Vertice Count:12
## Triangle Count:20
mtllib 267036.mtl
o 267036

v -8.1164 8.5 8.2711
v -8.1164 8.4 8.2711
v -8.1164 8.2 8.2711
v -8.1164 5.3 8.2711
v -6.5164 5.3 8.2711
v -6.5164 8.5 8.2711
v -8.1164 5.3 8.0711
v -8.1164 8.5 8.0711
v -7.9164 8.5 8.0711
v -6.5164 8.5 8.0711
v -6.5164 5.3 8.0711
v -7.9164 5.3 8.0711
vt -0.1 3.2
vt -0.1 3.1
vt -0.1 2.9
vt -0.1 0
vt 1.5 0
vt 1.5 3.2
vt 0.1 0
vt 0.1 3.2
vt -1.5 3.2
vt -1.5 0
vt 1.5 0.1
vt -0.1 0.1
vt -0.1 -0.1
vt 0.1 -0.1
vt 1.5 -0.1
vt 0.1 0.1
vt 3.87 3.2
vt 3.67 3.2
vt 3.67 0
vt 3.87 0
vt 3.87 2.9
vt 3.87 3.1
vn 0 0 0.3048
vn 0 0 -0.3048
vn 0 -0.3048 0
vn 0 0.3048 0
vn 0.3048 0 0
vn -0.3048 0 0

usemtl 197629
f 1/1/1 2/2/1 6/6/1
f 3/3/1 5/5/1 6/6/1
f 5/5/1 3/3/1 4/4/1
f 3/3/1 6/6/1 2/2/1
f 8/18/6 7/19/6 3/21/6
f 3/21/6 7/19/6 4/20/6
f 8/18/6 3/21/6 2/22/6
f 2/22/6 1/17/6 8/18/6

usemtl 90484
f 10/9/2 11/10/2 12/4/2
f 10/9/2 12/4/2 9/1/2
f 12/4/2 8/8/2 9/1/2
f 8/8/2 12/4/2 7/7/2

usemtl 31
f 5/11/3 4/12/3 12/14/3
f 7/13/3 12/14/3 4/12/3
f 12/14/3 11/15/3 5/11/3
f 1/13/4 6/15/4 9/16/4
f 10/11/4 9/16/4 6/15/4
f 9/16/4 8/12/4 1/13/4
f 6/1/5 5/4/5 11/7/5
f 11/7/5 10/8/5 6/1/5
