## ElementId 267102
## Vertice Count:20
## Triangle Count:36
mtllib 267102.mtl
o 267102

v -7.7664 10.6 8.0711
v -7.7664 8.5 8.0711
v -7.9164 8.5 8.0711
v -8.1164 8.5 8.0711
v -8.1164 11.7 8.0711
v -7.9164 11.7 8.0711
v -2.7164 11.7 8.0711
v -2.7164 8.5 8.0711
v -6.8664 8.5 8.0711
v -6.8664 10.6 8.0711
v -8.1164 8.5 8.2711
v -7.7664 8.5 8.2711
v -7.7664 10.6 8.2711
v -6.8664 10.6 8.2711
v -6.8664 8.5 8.2711
v -2.7164 8.5 8.2711
v -2.7164 11.7 8.2711
v -8.1164 11.7 8.2711
v -8.1164 11.6 8.2711
v -8.1164 11.4 8.2711
vt 5.15 2.1
vt 5.15 0
vt 5.3 0
vt 5.5 0
vt 5.5 3.2
vt 5.3 3.2
vt 0.1 3.2
vt 0.1 0
vt 4.25 0
vt 4.25 2.1
vt -5.5 0
vt -5.15 0
vt -5.15 2.1
vt -4.25 2.1
vt -4.25 0
vt -0.1 0
vt -0.1 3.2
vt -5.5 3.2
vt -5.5 3.1
vt -5.5 2.9
vt 5.5 0.1
vt 5.3 0.1
vt 5.15 0.1
vt 5.15 -0.1
vt 5.5 -0.1
vt 4.25 0.1
vt 0.1 0.1
vt 0.1 -0.1
vt 4.25 -0.1
vt 5.3 -0.1
vt -0.1 -3.2
vt 0.1 -3.2
vt 0.1 -0.3
vt -0.1 2.1
vt 0.1 2.1
vn 0 0 -0.3048
vn 0 0 0.3048
vn 0 -0.3048 0
vn 0 0.3048 0
vn -0.3048 0 0
vn 0.3048 0 0

usemtl 90484
f 8/8/1 9/9/1 10/10/1
f 6/6/1 7/7/1 10/10/1
f 10/10/1 7/7/1 8/8/1
f 6/6/1 10/10/1 1/1/1
f 5/5/1 1/1/1 4/4/1
f 1/1/1 3/3/1 4/4/1
f 1/1/1 5/5/1 6/6/1
f 3/3/1 1/1/1 2/2/1

usemtl 197629
f 20/20/2 11/11/2 13/13/2
f 14/14/2 19/19/2 20/20/2
f 14/14/2 18/18/2 19/19/2
f 12/12/2 13/13/2 11/11/2
f 15/15/2 16/16/2 14/14/2
f 14/14/2 17/17/2 18/18/2
f 17/17/2 14/14/2 16/16/2
f 14/14/2 20/20/2 13/13/2

usemtl 31
f 4/21/3 3/22/3 11/25/3
f 12/24/3 11/25/3 3/22/3
f 12/24/3 3/22/3 2/23/3
f 9/26/3 8/27/3 15/29/3
f 16/28/3 15/29/3 8/27/3
f 6/30/4 18/21/4 17/27/4
f 18/21/4 6/30/4 5/25/4
f 6/30/4 17/27/4 7/28/4
f 16/16/6 8/8/6 7/7/6
f 7/7/6 17/17/6 16/16/6
f 13/34/6 12/16/6 2/8/6
f 2/8/6 1/35/6 13/34/6
f 14/29/3 13/24/3 1/23/3
f 1/23/3 10/26/3 14/29/3
f 15/8/5 14/35/5 9/16/5
f 10/34/5 9/16/5 14/35/5

usemtl 54872
f 5/16/5 4/31/5 20/33/5
f 20/33/5 4/31/5 11/32/5
f 5/16/5 20/33/5 19/28/5
f 19/28/5 18/8/5 5/16/5
