## ElementId 267147
## Vertice Count:10
## Triangle Count:16
mtllib 267147.mtl
o 267147

v -6.6164 4.9 10.7011
v -12.3164 4.9 10.7011
v -12.3164 5.2 10.7011
v -8.1164 5.2 10.7011
v -7.9164 5.2 10.7011
v -6.6164 5.2 10.7011
v -6.6164 4.9 10.9011
v -6.6164 5.2 10.9011
v -12.3164 5.2 10.9011
v -12.3164 4.9 10.9011
vt 0.1 -0.4
vt 5.8 -0.4
vt 5.8 -0.1
vt 1.6 -0.1
vt 1.4 -0.1
vt 0.1 -0.1
vt -0.1 -0.4
vt -0.1 -0.1
vt -5.8 -0.1
vt -5.8 -0.4
vt 5.8 0.1
vt 0.1 0.1
vn 0 0 -0.3048
vn 0 0 0.3048
vn 0 -0.3048 0
vn 0 0.3048 0
vn 0.3048 0 0
vn -0.3048 0 0

usemtl 54872
f 6/6/1 1/1/1 5/5/1
f 5/5/1 1/1/1 4/4/1
f 4/4/1 2/2/1 3/3/1
f 2/2/1 4/4/1 1/1/1
f 9/9/2 10/10/2 7/7/2
f 7/7/2 8/8/2 9/9/2
f 2/11/3 1/12/3 7/6/3
f 7/6/3 10/3/3 2/11/3
f 6/6/4 5/5/4 8/12/4
f 4/4/4 9/11/4 8/12/4
f 9/11/4 4/4/4 3/3/4
f 4/4/4 8/12/4 5/5/4
f 7/7/5 1/1/5 6/6/5
f 6/6/5 8/8/5 7/7/5
f 2/7/6 10/1/6 9/6/6
f 9/6/6 3/8/6 2/7/6
