## ElementId 267107
## Vertice Count:21
## Triangle Count:38
mtllib 267107.mtl
o 267107

v -7.9164 8.5 12.9011
v -7.9164 11.7 12.9011
v -7.9164 11.7 15.4011
v -7.9164 11.7 15.6011
v -7.9164 11.7 16.1011
v -7.9164 11.4 16.1011
v -7.9164 8.5 16.1011
v -7.9164 8.5 15.6011
v -7.9164 8.5 15.4011
v -7.9164 8.5 14.1211
v -7.9164 10.6 14.1211
v -7.9164 10.6 13.2211
v -7.9164 8.5 13.2211
v -8.1164 11.7 16.1011
v -8.1164 11.7 12.9011
v -8.1164 8.5 12.9011
v -8.1164 8.5 13.2211
v -8.1164 10.6 13.2211
v -8.1164 10.6 14.1211
v -8.1164 8.5 14.1211
v -8.1164 8.5 16.1011
vt 3.3 0
vt 3.3 3.2
vt 0.8 3.2
vt 0.6 3.2
vt 0.1 3.2
vt 0.1 2.9
vt 0.1 0
vt 0.6 0
vt 0.8 0
vt 2.08 0
vt 2.08 2.1
vt 2.98 2.1
vt 2.98 0
vt -0.1 3.2
vt -3.3 3.2
vt -3.3 0
vt -2.98 0
vt -2.98 2.1
vt -2.08 2.1
vt -2.08 0
vt -0.1 0
vt 0.1 0.1
vt 0.1 -0.1
vt 2.08 -0.1
vt 2.08 0.1
vt 0.8 0.1
vt 0.6 0.1
vt 3.3 -0.1
vt 3.3 0.1
vt 2.98 0.1
vt 2.98 -0.1
vt 0.6 -0.1
vt 0.8 -0.1
vt -0.1 2.1
vt 0.1 2.1
vn 0.3048 0 0
vn -0.3048 0 0
vn 0 -0.3048 0
vn 0 0.3048 0
vn 0 0 0.3048
vn 0 0 -0.3048

usemtl 90484
f 7/7/1 8/8/1 6/6/1
f 3/3/1 6/6/1 11/11/1
f 6/6/1 4/4/1 5/5/1
f 4/4/1 6/6/1 3/3/1
f 6/6/1 8/8/1 11/11/1
f 13/13/1 1/1/1 12/12/1
f 10/10/1 11/11/1 9/9/1
f 12/12/1 2/2/1 11/11/1
f 2/2/1 12/12/1 1/1/1
f 11/11/1 2/2/1 3/3/1
f 9/9/1 11/11/1 8/8/1
f 16/16/2 17/17/2 18/18/2
f 15/15/2 18/18/2 19/19/2
f 18/18/2 15/15/2 16/16/2
f 20/20/2 21/21/2 19/19/2
f 19/19/2 14/14/2 15/15/2
f 14/14/2 19/19/2 21/21/2
f 8/27/3 21/23/3 9/26/3
f 21/23/3 8/27/3 7/22/3
f 9/26/3 20/24/3 10/25/3
f 20/24/3 9/26/3 21/23/3
f 1/29/3 13/30/3 16/28/3
f 17/31/3 16/28/3 13/30/3
f 5/23/4 4/32/4 14/22/4
f 3/33/4 15/29/4 14/22/4
f 15/29/4 3/33/4 2/28/4
f 3/33/4 14/22/4 4/32/4
f 14/14/5 21/21/5 6/6/5
f 7/7/5 6/6/5 21/21/5
f 5/5/5 14/14/5 6/6/5
f 1/21/6 16/7/6 15/5/6
f 15/5/6 2/14/6 1/21/6
f 18/34/5 17/21/5 13/7/5
f 13/7/5 12/35/5 18/34/5
f 19/24/3 18/31/3 12/30/3
f 12/30/3 11/25/3 19/24/3
f 20/7/6 19/35/6 10/21/6
f 11/34/6 10/21/6 19/35/6
