## ElementId 267101
## Vertice Count:30
## Triangle Count:64
mtllib 267101.mtl
o 267101

v -2.5164 11.7 4.3011
v -2.5164 9.5 4.3011
v -2.5164 8.5 4.3011
v -8.1164 8.5 4.3011
v -8.1164 11.3 4.3011
v -8.1164 11.7 4.3011
v -4.0164 9.5 4.3011
v -3.1164 9.5 4.3011
v -3.1164 11.3 4.3011
v -4.0164 11.3 4.3011
v -7.4164 9.5 4.3011
v -5.4164 9.5 4.3011
v -5.4164 11.3 4.3011
v -7.4164 11.3 4.3011
v -2.5164 8.5 4.5011
v -2.5164 11.7 4.5011
v -2.7164 11.7 4.5011
v -7.9164 11.7 4.5011
v -8.1164 11.7 4.5011
v -8.1164 11.3 4.5011
v -8.1164 8.5 4.5011
v -7.9164 8.5 4.5011
v -4.0164 9.5 4.5011
v -4.0164 11.3 4.5011
v -3.1164 11.3 4.5011
v -3.1164 9.5 4.5011
v -7.4164 9.5 4.5011
v -7.4164 11.3 4.5011
v -5.4164 11.3 4.5011
v -5.4164 9.5 4.5011
vt -0.06 3.2
vt -0.06 1
vt -0.06 0
vt 5.54 0
vt 5.54 2.8
vt 5.54 3.2
vt 1.44 1
vt 0.54 1
vt 0.54 2.8
vt 1.44 2.8
vt 4.84 1
vt 2.84 1
vt 2.84 2.8
vt 4.84 2.8
vt 0.06 0
vt 0.06 3.2
vt -0.14 3.2
vt -5.34 3.2
vt -5.54 3.2
vt -5.54 2.8
vt -5.54 0
vt -5.34 0
vt -1.44 1
vt -1.44 2.8
vt -0.54 2.8
vt -0.54 1
vt -4.84 1
vt -4.84 2.8
vt -2.84 2.8
vt -2.84 1
vt 5.54 0.1
vt -0.06 0.1
vt -0.06 -0.1
vt 5.34 -0.1
vt 5.54 -0.1
vt 5.34 0.1
vt 0.14 0.1
vt -0.1 3.2
vt -0.1 2.8
vt 0.1 2.8
vt 0.1 3.2
vt -0.1 0
vt 0.1 0
vt 0.1 11.7
vt -0.1 11.7
vt -0.1 8.5
vt 0.1 8.5
vt 0.1 9.5
vt -0.1 1
vt 0.1 1
vt 0.54 -0.1
vt 1.44 -0.1
vt 1.44 0.1
vt 0.54 0.1
vt 2.84 -0.1
vt 4.84 -0.1
vt 4.84 0.1
vt 2.84 0.1
vn 0 0 -0.3048
vn 0 0 0.3048
vn 0 -0.3048 0
vn 0 0.3048 0
vn -0.3048 0 0
vn 0.3048 0 0

usemtl 90484
f 3/3/1 8/8/1 2/2/1
f 8/8/1 3/3/1 7/7/1
f 2/2/1 8/8/1 9/9/1
f 1/1/1 9/9/1 10/10/1
f 1/1/1 2/2/1 9/9/1
f 10/10/1 7/7/1 12/12/1
f 1/1/1 10/10/1 13/13/1
f 3/3/1 12/12/1 7/7/1
f 12/12/1 4/4/1 11/11/1
f 4/4/1 12/12/1 3/3/1
f 11/11/1 4/4/1 5/5/1
f 13/13/1 14/14/1 6/6/1
f 5/5/1 6/6/1 14/14/1
f 11/11/1 5/5/1 14/14/1
f 13/13/1 6/6/1 1/1/1
f 12/12/1 13/13/1 10/10/1
f 21/21/2 22/22/2 27/27/2
f 27/27/2 22/22/2 30/30/2
f 21/21/2 27/27/2 20/20/2
f 19/19/2 20/20/2 18/18/2
f 18/18/2 28/28/2 29/29/2
f 28/28/2 18/18/2 20/20/2
f 20/20/2 27/27/2 28/28/2
f 29/29/2 17/17/2 18/18/2
f 24/24/2 30/30/2 23/23/2
f 23/23/2 30/30/2 15/15/2
f 26/26/2 15/15/2 16/16/2
f 15/15/2 26/26/2 23/23/2
f 30/30/2 22/22/2 15/15/2
f 24/24/2 25/25/2 17/17/2
f 16/16/2 17/17/2 25/25/2
f 25/25/2 26/26/2 16/16/2
f 24/24/2 17/17/2 29/29/2
f 30/30/2 24/24/2 29/29/2
f 4/31/3 3/32/3 22/34/3
f 15/33/3 22/34/3 3/32/3
f 22/34/3 21/35/3 4/31/3
f 1/33/4 6/35/4 18/36/4
f 18/36/4 6/35/4 19/31/4
f 1/33/4 18/36/4 17/37/4
f 17/37/4 16/32/4 1/33/4
f 6/38/5 5/39/5 20/40/5
f 20/40/5 19/41/5 6/38/5
f 5/39/5 4/42/5 20/40/5
f 21/43/5 20/40/5 4/42/5
f 16/45/6 15/46/6 2/48/6
f 3/47/6 2/48/6 15/46/6
f 2/48/6 1/44/6 16/45/6
f 24/39/6 23/49/6 7/50/6
f 7/50/6 10/40/6 24/39/6
f 25/51/3 24/52/3 10/53/3
f 10/53/3 9/54/3 25/51/3
f 26/50/5 25/40/5 9/39/5
f 9/39/5 8/49/5 26/50/5
f 23/53/4 26/54/4 7/52/4
f 8/51/4 7/52/4 26/54/4
f 28/39/6 27/49/6 11/50/6
f 11/50/6 14/40/6 28/39/6
f 29/55/3 28/56/3 13/58/3
f 14/57/3 13/58/3 28/56/3
f 30/50/5 29/40/5 13/39/5
f 13/39/5 12/49/5 30/50/5
f 27/57/4 30/58/4 12/55/4
f 12/55/4 11/56/4 27/57/4
