## ElementId 267105
## Vertice Count:21
## Triangle Count:42
mtllib 267105.mtl
o 267105

v -12.3164 8.5 16.3011
v -7.9164 8.5 16.3011
v -7.9164 11.4 16.3011
v -7.9164 11.7 16.3011
v -12.3164 11.7 16.3011
v -12.3164 11.4 16.3011
v -8.9664 11.3 16.3011
v -8.9664 9.5 16.3011
v -11.4664 9.5 16.3011
v -11.4664 11.3 16.3011
v -7.9164 8.5 16.1011
v -8.1164 8.5 16.1011
v -12.3164 8.5 16.1011
v -12.3164 11.7 16.1011
v -8.1164 11.7 16.1011
v -7.9164 11.7 16.1011
v -7.9164 11.4 16.1011
v -8.9664 9.5 16.1011
v -8.9664 11.3 16.1011
v -11.4664 11.3 16.1011
v -11.4664 9.5 16.1011
vt 0.1 0
vt 4.5 0
vt 4.5 2.9
vt 4.5 3.2
vt 0.1 3.2
vt 0.1 2.9
vt 3.45 2.8
vt 3.45 1
vt 0.95 1
vt 0.95 2.8
vt -4.5 0
vt -4.3 0
vt -0.1 0
vt -0.1 3.2
vt -4.3 3.2
vt -4.5 3.2
vt -4.5 2.9
vt -3.45 1
vt -3.45 2.8
vt -0.95 2.8
vt -0.95 1
vt 4.5 0.1
vt 0.1 0.1
vt 0.1 -0.1
vt 4.3 -0.1
vt 4.5 -0.1
vt 4.3 0.1
vt -0.1 2.9
vt -0.1 1
vt 0.1 1
vt 0.1 2.8
vt -0.1 2.8
vt 0.95 0.1
vt 0.95 -0.1
vt 3.45 -0.1
vt 3.45 0.1
vn 0 0 0.3048
vn 0 0 -0.3048
vn 0 -0.3048 0
vn 0 0.3048 0
vn -0.3048 0 0
vn 0.3048 0 0

usemtl 90484
f 1/1/1 9/9/1 6/6/1
f 9/9/1 1/1/1 8/8/1
f 5/5/1 6/6/1 10/10/1
f 10/10/1 6/6/1 9/9/1
f 5/5/1 10/10/1 7/7/1
f 8/8/1 2/2/1 3/3/1
f 2/2/1 8/8/1 1/1/1
f 7/7/1 3/3/1 4/4/1
f 3/3/1 7/7/1 8/8/1
f 7/7/1 4/4/1 5/5/1
f 17/17/2 11/11/2 18/18/2
f 16/16/2 17/17/2 15/15/2
f 19/19/2 15/15/2 17/17/2
f 18/18/2 11/11/2 12/12/2
f 12/12/2 21/21/2 18/18/2
f 21/21/2 12/12/2 13/13/2
f 21/21/2 13/13/2 14/14/2
f 20/20/2 14/14/2 15/15/2
f 14/14/2 20/20/2 21/21/2
f 20/20/2 15/15/2 19/19/2
f 18/18/2 19/19/2 17/17/2
f 2/22/3 1/23/3 12/25/3
f 13/24/3 12/25/3 1/23/3
f 12/25/3 11/26/3 2/22/3
f 5/24/4 4/26/4 15/27/4
f 16/22/4 15/27/4 4/26/4
f 15/27/4 14/23/4 5/24/4
f 14/14/5 13/13/5 6/6/5
f 1/1/5 6/6/5 13/13/5
f 5/5/5 14/14/5 6/6/5
f 3/28/6 2/13/6 11/1/6
f 4/14/6 3/28/6 17/6/6
f 11/1/6 17/6/6 3/28/6
f 17/6/6 16/5/6 4/14/6
f 18/29/5 8/30/5 7/31/5
f 7/31/5 19/32/5 18/29/5
f 20/34/3 7/36/3 10/33/3
f 7/36/3 20/34/3 19/35/3
f 21/30/6 10/32/6 9/29/6
f 10/32/6 21/30/6 20/31/6
f 18/36/4 9/34/4 8/35/4
f 9/34/4 18/36/4 21/33/4
