## ElementId 267106
## Vertice Count:24
## Triangle Count:44
mtllib 267106.mtl
o 267106

v -12.3164 11.7 10.7011
v -7.6664 11.7 10.7011
v -6.7664 11.7 10.7011
v -2.7164 11.7 10.7011
v -2.7164 8.5 10.7011
v -8.8664 8.5 10.7011
v -8.8664 10.6 10.7011
v -9.7664 10.6 10.7011
v -9.7664 8.5 10.7011
v -12.3164 8.5 10.7011
v -2.7164 11.7 10.9011
v -6.7664 11.7 10.9011
v -7.6664 11.7 10.9011
v -9.9564 11.7 10.9011
v -10.0764 11.7 10.9011
v -12.3164 11.7 10.9011
v -12.3164 8.5 10.9011
v -10.0764 8.5 10.9011
v -9.9564 8.5 10.9011
v -9.7664 8.5 10.9011
v -9.7664 10.6 10.9011
v -8.8664 10.6 10.9011
v -8.8664 8.5 10.9011
v -2.7164 8.5 10.9011
vt 9.7 3.2
vt 5.05 3.2
vt 4.15 3.2
vt 0.1 3.2
vt 0.1 0
vt 6.25 0
vt 6.25 2.1
vt 7.15 2.1
vt 7.15 0
vt 9.7 0
vt -0.1 3.2
vt -4.15 3.2
vt -5.05 3.2
vt -7.34 3.2
vt -7.46 3.2
vt -9.7 3.2
vt -9.7 0
vt -7.46 0
vt -7.34 0
vt -7.15 0
vt -7.15 2.1
vt -6.25 2.1
vt -6.25 0
vt -0.1 0
vt 0.1 0.1
vt 0.1 -0.1
vt 6.25 -0.1
vt 6.25 0.1
vt 9.7 -0.1
vt 9.7 0.1
vt 7.15 0.1
vt 7.15 -0.1
vt 7.34 -0.1
vt 7.46 -0.1
vt 4.15 -0.1
vt 5.05 -0.1
vt 7.46 0.1
vt 7.34 0.1
vt 5.05 0.1
vt 4.15 0.1
vt -0.1 2.1
vt 0.1 2.1
vn 0 0 -0.3048
vn 0 0 0.3048
vn 0 -0.3048 0
vn 0 0.3048 0
vn 0.3048 0 0
vn -0.3048 0 0

usemtl 90484
f 3/3/1 6/6/1 7/7/1
f 6/6/1 3/3/1 5/5/1
f 3/3/1 4/4/1 5/5/1
f 2/2/1 3/3/1 7/7/1
f 7/7/1 8/8/1 2/2/1
f 9/9/1 10/10/1 8/8/1
f 8/8/1 10/10/1 1/1/1
f 8/8/1 1/1/1 2/2/1

usemtl 197629
f 17/17/2 21/21/2 16/16/2
f 17/17/2 18/18/2 21/21/2
f 15/15/2 16/16/2 21/21/2
f 21/21/2 19/19/2 20/20/2
f 21/21/2 14/14/2 15/15/2
f 18/18/2 19/19/2 21/21/2
f 22/22/2 23/23/2 12/12/2
f 12/12/2 23/23/2 24/24/2
f 22/22/2 14/14/2 21/21/2
f 22/22/2 13/13/2 14/14/2
f 13/13/2 22/22/2 12/12/2
f 24/24/2 11/11/2 12/12/2

usemtl 31
f 6/28/3 5/25/3 24/26/3
f 24/26/3 23/27/3 6/28/3
f 18/34/3 10/30/3 9/31/3
f 19/33/3 9/31/3 20/32/3
f 18/34/3 17/29/3 10/30/3
f 18/34/3 9/31/3 19/33/3
f 2/36/4 14/38/4 13/39/4
f 14/38/4 2/36/4 1/29/4
f 12/40/4 3/35/4 2/36/4
f 4/26/4 3/35/4 12/40/4
f 12/40/4 2/36/4 13/39/4
f 14/38/4 1/29/4 15/37/4
f 12/40/4 11/25/4 4/26/4
f 15/37/4 1/29/4 16/30/4
f 24/24/5 5/5/5 4/4/5
f 4/4/5 11/11/5 24/24/5
f 10/24/6 17/5/6 16/4/6
f 16/4/6 1/11/6 10/24/6
f 21/41/5 20/24/5 9/5/5
f 9/5/5 8/42/5 21/41/5
f 22/27/3 21/32/3 7/28/3
f 8/31/3 7/28/3 21/32/3
f 23/5/6 22/42/6 6/24/6
f 7/41/6 6/24/6 22/42/6
