## ElementId 267257
## Vertice Count:18
## Triangle Count:36
mtllib 267257.mtl
o 267257

v -7.9164 11.7 14.4011
v -6.5164 11.7 14.4011
v -6.5164 14.886 14.4011
v -7.9164 14.886 14.4011
v -7.9164 14.0766 14.4011
v -6.7664 11.8 14.4011
v -7.6664 11.8 14.4011
v -7.6664 13.9 14.4011
v -6.7664 13.9 14.4011
v -6.5164 11.7 14.2011
v -7.9164 11.7 14.2011
v -7.9164 14.9608 14.2011
v -6.5164 14.9608 14.2011
v -7.6664 11.8 14.2011
v -6.7664 11.8 14.2011
v -6.7664 13.9 14.2011
v -7.6664 13.9 14.2011
v -7.9164 14.9234 14.3011
vt 0.1 0
vt 1.5 0
vt 1.5 3.1861
vt 0.1 3.1861
vt 0.1 2.3766
vt 1.25 0.1
vt 0.35 0.1
vt 0.35 2.2
vt 1.25 2.2
vt -1.5 0
vt -0.1 0
vt -0.1 3.2608
vt -1.5 3.2608
vt -0.35 0.1
vt -1.25 0.1
vt -1.25 2.2
vt -0.35 2.2
vt 1.5 0.1
vt 0.1 0.1
vt 0.1 -0.1
vt 1.5 -0.1
vt -0.1 3.1861
vt 0.1 3.2608
vt 0.1 1.0221
vt 1.5 1.0221
vt 1.5 1.2356
vt 0.1 1.2356
vt 0.1 1.1289
vt 0 3.2234
vt 1.25 -0.1
vt 0.35 -0.1
vt 0.1 2.2
vt -0.1 2.2
vt -0.1 0.1
vn 0 0 0.3048
vn 0 0 -0.3048
vn 0 -0.3048 0
vn 0.3048 0 0
vn 0 0.2855 0.1067
vn -0.3048 0 0
vn 0 0.3048 0

usemtl 90484
f 5/5/1 1/1/1 8/8/1
f 7/7/1 1/1/1 6/6/1
f 8/8/1 4/4/1 5/5/1
f 8/8/1 1/1/1 7/7/1
f 6/6/1 2/2/1 9/9/1
f 2/2/1 6/6/1 1/1/1
f 9/9/1 3/3/1 4/4/1
f 3/3/1 9/9/1 2/2/1
f 9/9/1 4/4/1 8/8/1
f 10/10/2 15/15/2 16/16/2
f 15/15/2 10/10/2 14/14/2
f 13/13/2 16/16/2 17/17/2
f 16/16/2 13/13/2 10/10/2
f 14/14/2 11/11/2 17/17/2
f 11/11/2 14/14/2 10/10/2
f 17/17/2 12/12/2 13/13/2
f 12/12/2 17/17/2 11/11/2
f 2/18/3 1/19/3 11/20/3
f 11/20/3 10/21/3 2/18/3
f 3/22/4 2/11/4 10/1/4
f 10/1/4 13/23/4 3/22/4
f 18/28/5 3/25/5 13/26/5
f 3/25/5 18/28/5 4/24/5
f 18/28/5 13/26/5 12/27/5
f 11/11/6 1/1/6 5/5/6
f 18/29/6 5/5/6 4/4/6
f 18/29/6 12/12/6 5/5/6
f 11/11/6 5/5/6 12/12/6
f 7/31/7 15/6/7 14/7/7
f 15/6/7 7/31/7 6/30/7
f 7/34/4 14/19/4 17/32/4
f 17/32/4 8/33/4 7/34/4
f 8/7/3 17/31/3 16/30/3
f 16/30/3 9/6/3 8/7/3
f 9/32/6 16/33/6 15/34/6
f 15/34/6 6/19/6 9/32/6
