## ElementId 267260
## Vertice Count:23
## Triangle Count:46
mtllib 267260.mtl
o 267260

v -8.1164 11.7 10.9011
v -8.1164 11.7 14.4011
v -8.1164 14.0766 14.4011
v -8.1164 14.0766 14.3011
v -8.1164 14.9234 14.3011
v -8.1164 16.1946 10.9011
v -8.1164 14.4 10.9011
v -8.1164 12.1 13.5711
v -8.1164 12.1 12.9711
v -8.1164 13.9 12.9711
v -8.1164 13.9 13.5711
v -7.9164 11.7 10.9011
v -7.9164 16.1946 10.9011
v -7.9164 14.9608 14.2011
v -7.9164 14.9234 14.3011
v -7.9164 14.0766 14.3011
v -7.9164 14.0766 14.4011
v -7.9164 11.7 14.4011
v -7.9164 11.7 14.2011
v -7.9164 12.1 13.5711
v -7.9164 13.9 13.5711
v -7.9164 13.9 12.9711
v -7.9164 12.1 12.9711
vt 0.1 0
vt 3.6 0
vt 3.6 2.3766
vt 3.5 2.3766
vt 3.5 3.2234
vt 0.1 4.4946
vt 0.1 2.7
vt 2.77 0.4
vt 2.17 0.4
vt 2.17 2.2
vt 2.77 2.2
vt -0.1 0
vt -0.1 4.4946
vt -3.4 3.2608
vt -3.5 3.2234
vt -3.5 2.3766
vt -3.6 2.3766
vt -3.6 0
vt -3.4 0
vt -2.77 0.4
vt -2.77 2.2
vt -2.17 2.2
vt -2.17 0.4
vt 3.6 0.1
vt 0.1 0.1
vt 0.1 -0.1
vt 3.4 -0.1
vt 3.6 -0.1
vt -1.4804 -0.1
vt 2.1495 -0.1
vt 2.1495 0.1
vt 2.0427 0.1
vt -1.4804 0.1
vt -0.1 3.2234
vt -0.1 2.3766
vt 0.1 2.3766
vt 0.1 3.2234
vt 3.5 0.1
vt 3.5 -0.1
vt -0.1 2.2
vt -0.1 0.4
vt 0.1 0.4
vt 0.1 2.2
vt 2.17 -0.1
vt 2.77 -0.1
vt 2.77 0.1
vt 2.17 0.1
vn -0.3048 0 0
vn 0.3048 0 0
vn 0 -0.3048 0
vn 0 0.2855 0.1067
vn 0 0 0.3048
vn 0 0.3048 0
vn 0 0 -0.3048

usemtl 90484
f 1/1/1 9/9/1 10/10/1
f 9/9/1 1/1/1 2/2/1
f 6/6/1 7/7/1 10/10/1
f 10/10/1 7/7/1 1/1/1
f 6/6/1 10/10/1 5/5/1
f 4/4/1 11/11/1 8/8/1
f 2/2/1 8/8/1 9/9/1
f 3/3/1 8/8/1 2/2/1
f 3/3/1 4/4/1 8/8/1
f 4/4/1 5/5/1 11/11/1
f 11/11/1 5/5/1 10/10/1
f 20/20/2 17/17/2 18/18/2
f 14/14/2 16/16/2 21/21/2
f 17/17/2 20/20/2 16/16/2
f 15/15/2 16/16/2 14/14/2
f 20/20/2 18/18/2 19/19/2
f 19/19/2 23/23/2 20/20/2
f 23/23/2 19/19/2 12/12/2
f 23/23/2 12/12/2 22/22/2
f 22/22/2 13/13/2 14/14/2
f 13/13/2 22/22/2 12/12/2
f 22/22/2 14/14/2 21/21/2
f 20/20/2 21/21/2 16/16/2
f 2/24/3 1/25/3 19/27/3
f 12/26/3 19/27/3 1/25/3
f 19/27/3 18/28/3 2/24/3
f 6/29/4 5/30/4 14/32/4
f 15/31/4 14/32/4 5/30/4
f 14/32/4 13/33/4 6/29/4
f 5/34/5 4/35/5 15/37/5
f 16/36/5 15/37/5 4/35/5
f 4/39/6 3/28/6 16/38/6
f 17/24/6 16/38/6 3/28/6
f 3/35/5 2/12/5 18/1/5
f 18/1/5 17/36/5 3/35/5
f 13/13/7 12/12/7 7/7/7
f 1/1/7 7/7/7 12/12/7
f 6/6/7 13/13/7 7/7/7
f 21/40/7 20/41/7 8/42/7
f 8/42/7 11/43/7 21/40/7
f 22/44/3 21/45/3 11/46/3
f 11/46/3 10/47/3 22/44/3
f 23/42/5 22/43/5 10/40/5
f 10/40/5 9/41/5 23/42/5
f 20/46/6 23/47/6 8/45/6
f 9/44/6 8/45/6 23/47/6
