## ElementId 267244
## Vertice Count:29
## Triangle Count:58
mtllib 267244.mtl
o 267244

v -12.5164 8.5 10.7011
v -12.5164 8.5 10.9011
v -12.5164 8.5 16.3011
v -12.5164 11.4 16.3011
v -12.5164 11.7 16.3011
v -12.5164 11.7 10.9011
v -12.5164 11.7 10.7011
v -12.5164 11.4 10.7011
v -12.5164 11.1 12.1511
v -12.5164 9.5 12.1511
v -12.5164 9.5 11.2511
v -12.5164 11.1 11.2511
v -12.3164 8.5 16.3011
v -12.3164 8.5 16.1011
v -12.3164 8.5 12.9011
v -12.3164 8.5 12.7011
v -12.3164 8.5 10.9011
v -12.3164 8.5 10.7011
v -12.3164 11.7 10.7011
v -12.3164 11.7 10.9011
v -12.3164 11.7 12.7011
v -12.3164 11.7 12.9011
v -12.3164 11.7 16.1011
v -12.3164 11.7 16.3011
v -12.3164 11.4 16.3011
v -12.3164 9.5 12.1511
v -12.3164 11.1 12.1511
v -12.3164 11.1 11.2511
v -12.3164 9.5 11.2511
vt -0.1 0
vt 0.1 0
vt 5.5 0
vt 5.5 2.9
vt 5.5 3.2
vt 0.1 3.2
vt -0.1 3.2
vt -0.1 2.9
vt 1.35 2.6
vt 1.35 1
vt 0.45 1
vt 0.45 2.6
vt -5.5 0
vt -5.3 0
vt -2.1 0
vt -1.9 0
vt -1.9 3.2
vt -2.1 3.2
vt -5.3 3.2
vt -5.5 3.2
vt -5.5 2.9
vt -1.35 1
vt -1.35 2.6
vt -0.45 2.6
vt -0.45 1
vt 5.5 0.1
vt 0.1 0.1
vt -0.1 0.1
vt -0.1 -0.1
vt 0.1 -0.1
vt 1.9 -0.1
vt 2.1 -0.1
vt 5.3 -0.1
vt 5.5 -0.1
vt 5.3 0.1
vt 2.1 0.1
vt 1.9 0.1
vt 0.1 2.9
vt 9.9 3.2
vt 9.7 3.2
vt 9.7 0
vt 9.9 0
vt 9.9 2.9
vt -0.1 2.6
vt -0.1 1
vt 0.1 1
vt 0.1 2.6
vt 0.45 -0.1
vt 1.35 -0.1
vt 1.35 0.1
vt 0.45 0.1
vn -0.3048 0 0
vn 0.3048 0 0
vn 0 -0.3048 0
vn 0 0.3048 0
vn 0 0 0.3048
vn 0 0 -0.3048

usemtl 90484
f 11/11/1 8/8/1 1/1/1
f 11/11/1 1/1/1 2/2/1
f 8/8/1 11/11/1 12/12/1
f 7/7/1 8/8/1 6/6/1
f 6/6/1 8/8/1 12/12/1
f 12/12/1 9/9/1 6/6/1
f 2/2/1 10/10/1 11/11/1
f 10/10/1 2/2/1 3/3/1
f 10/10/1 3/3/1 4/4/1
f 9/9/1 4/4/1 5/5/1
f 4/4/1 9/9/1 10/10/1
f 9/9/1 5/5/1 6/6/1
f 13/13/2 14/14/2 25/21/2
f 22/18/2 15/15/2 26/22/2
f 14/14/2 15/15/2 25/21/2
f 24/20/2 25/21/2 23/19/2
f 22/18/2 23/19/2 25/21/2
f 25/21/2 15/15/2 22/18/2
f 15/15/2 16/16/2 26/22/2
f 29/25/2 26/22/2 17/1/2
f 17/1/2 18/2/2 29/25/2
f 26/22/2 16/16/2 17/1/2
f 29/25/2 18/2/2 19/6/2
f 21/17/2 27/23/2 20/7/2
f 21/17/2 22/18/2 27/23/2
f 28/24/2 19/6/2 20/7/2
f 19/6/2 28/24/2 29/25/2
f 28/24/2 20/7/2 27/23/2
f 27/23/2 22/18/2 26/22/2
f 15/32/3 2/27/3 16/31/3
f 3/26/3 15/32/3 14/33/3
f 15/32/3 3/26/3 2/27/3
f 2/27/3 1/28/3 17/30/3
f 17/30/3 16/31/3 2/27/3
f 14/33/3 13/34/3 3/26/3
f 17/30/3 1/28/3 18/29/3
f 5/34/4 22/36/4 6/30/4
f 22/36/4 5/34/4 23/35/4
f 20/27/4 7/29/4 6/30/4
f 6/30/4 22/36/4 21/37/4
f 20/27/4 19/28/4 7/29/4
f 20/27/4 6/30/4 21/37/4
f 23/35/4 5/34/4 24/26/4
f 4/8/5 3/1/5 13/2/5
f 5/7/5 4/8/5 25/38/5
f 13/2/5 25/38/5 4/8/5
f 25/38/5 24/6/5 5/7/5
f 19/40/6 18/41/6 8/43/6
f 1/42/6 8/43/6 18/41/6
f 8/43/6 7/39/6 19/40/6
f 27/44/6 26/45/6 10/46/6
f 10/46/6 9/47/6 27/44/6
f 28/48/3 27/49/3 9/50/3
f 9/50/3 12/51/3 28/48/3
f 29/46/5 28/47/5 12/44/5
f 12/44/5 11/45/5 29/46/5
f 26/50/4 29/51/4 11/48/4
f 11/48/4 10/49/4 26/50/4
