## ElementId 267252
## Vertice Count:20
## Triangle Count:36
mtllib 267252.mtl
o 267252

v -2.5164 11.7 14.2011
v -2.5164 11.7 4.3011
v -2.5164 14.5122 4.3011
v -2.5164 16.5872 9.8511
v -2.5164 14.9608 14.2011
v -2.7164 11.7 14.2011
v -2.7164 14.9608 14.2011
v -2.7164 16.1946 10.9011
v -2.7164 16.2694 10.7011
v -2.7164 16.5872 9.8511
v -2.7164 15.9965 8.2711
v -2.7164 15.9217 8.0711
v -2.7164 14.5869 4.5011
v -2.7164 14.5122 4.3011
v -2.7164 11.7 4.3011
v -2.7164 11.7 4.5011
v -2.7164 11.7 8.0711
v -2.7164 11.7 8.2711
v -2.7164 11.7 10.7011
v -2.7164 11.7 10.9011
vt 0.1 0
vt 10 0
vt 10 2.8122
vt 4.45 4.8872
vt 0.1 3.2608
vt -0.1 0
vt -0.1 3.2608
vt -3.4 4.4946
vt -3.6 4.5694
vt -4.45 4.8872
vt -6.03 4.2965
vt -6.23 4.2217
vt -9.8 2.8869
vt -10 2.8122
vt -10 0
vt -9.8 0
vt -6.23 0
vt -6.03 0
vt -3.6 0
vt -3.4 0
vt 10 0.1
vt 0.1 0.1
vt 0.1 -0.1
vt 3.4 -0.1
vt 3.6 -0.1
vt 6.03 -0.1
vt 6.23 -0.1
vt 9.8 -0.1
vt 10 -0.1
vt -0.1 2.8122
vt 0.1 2.8122
vt 1.2356 -0.1
vt 5.8797 -0.1
vt 5.8797 0.1
vt 4.9723 0.1
vt 4.7587 0.1
vt 1.2356 0.1
vt 2.4566 -0.1
vt 8.3819 -0.1
vt 8.3819 0.1
vt 8.1684 0.1
vt 4.357 0.1
vt 4.1435 0.1
vt 2.4566 0.1
vn 0.3048 0 0
vn -0.3048 0 0
vn 0 -0.3048 0
vn 0 0 -0.3048
vn 0 0 0.3048
vn 0 0.2855 0.1067
vn 0 0.2855 -0.1067

usemtl 90484
f 5/5/1 1/1/1 4/4/1
f 4/4/1 2/2/1 3/3/1
f 2/2/1 4/4/1 1/1/1
f 14/14/2 15/15/2 16/16/2
f 13/13/2 16/16/2 17/17/2
f 14/14/2 16/16/2 13/13/2
f 12/12/2 18/18/2 11/11/2
f 12/12/2 13/13/2 17/17/2
f 18/18/2 12/12/2 17/17/2
f 8/8/2 19/19/2 20/20/2
f 6/6/2 7/7/2 20/20/2
f 8/8/2 20/20/2 7/7/2
f 10/10/2 11/11/2 9/9/2
f 9/9/2 11/11/2 19/19/2
f 19/19/2 8/8/2 9/9/2
f 19/19/2 11/11/2 18/18/2
f 1/22/3 18/26/3 2/21/3
f 18/26/3 1/22/3 19/25/3
f 2/21/3 17/27/3 16/28/3
f 17/27/3 2/21/3 18/26/3
f 20/24/3 19/25/3 1/22/3
f 16/28/3 15/29/3 2/21/3
f 20/24/3 1/22/3 6/23/3
f 3/30/4 2/6/4 15/1/4
f 15/1/4 14/31/4 3/30/4
f 6/6/5 1/1/5 5/5/5
f 5/5/5 7/7/5 6/6/5
f 10/34/6 9/35/6 4/33/6
f 8/36/6 5/32/6 4/33/6
f 5/32/6 8/36/6 7/37/6
f 8/36/6 4/33/6 9/35/6
f 4/38/7 3/39/7 12/42/7
f 12/42/7 3/39/7 13/41/7
f 4/38/7 12/42/7 11/43/7
f 14/40/7 13/41/7 3/39/7
f 11/43/7 10/44/7 4/38/7
