## ElementId 267258
## Vertice Count:36
## Triangle Count:72
mtllib 267258.mtl
o 267258

v -2.7164 16.2694 10.7011
v -2.7164 11.7 10.7011
v -6.7664 11.7 10.7011
v -6.7664 13.8 10.7011
v -7.6664 13.8 10.7011
v -7.6664 11.7 10.7011
v -9.9164 11.7 10.7011
v -10.1164 11.7 10.7011
v -12.3164 11.7 10.7011
v -12.3164 14.4 10.7011
v -10.1164 14.4 10.7011
v -9.9164 14.4 10.7011
v -8.1164 14.4 10.7011
v -8.1164 16.2694 10.7011
v -7.9164 16.2694 10.7011
v -9.1364 11.8 10.7011
v -8.2364 11.8 10.7011
v -8.2364 13.9 10.7011
v -9.1364 13.9 10.7011
v -2.7164 11.7 10.9011
v -2.7164 16.1946 10.9011
v -7.9164 16.1946 10.9011
v -8.1164 16.1946 10.9011
v -8.1164 14.4 10.9011
v -12.3164 14.4 10.9011
v -12.3164 11.7 10.9011
v -8.1164 11.7 10.9011
v -7.9164 11.7 10.9011
v -7.6664 11.7 10.9011
v -7.6664 13.8 10.9011
v -6.7664 13.8 10.9011
v -6.7664 11.7 10.9011
v -8.2364 11.8 10.9011
v -9.1364 11.8 10.9011
v -9.1364 13.9 10.9011
v -8.2364 13.9 10.9011
vt 0.1 4.5694
vt 0.1 0
vt 4.15 0
vt 4.15 2.1
vt 5.05 2.1
vt 5.05 0
vt 7.3 0
vt 7.5 0
vt 9.7 0
vt 9.7 2.7
vt 7.5 2.7
vt 7.3 2.7
vt 5.5 2.7
vt 5.5 4.5694
vt 5.3 4.5694
vt 6.52 0.1
vt 5.62 0.1
vt 5.62 2.2
vt 6.52 2.2
vt -0.1 0
vt -0.1 4.4946
vt -5.3 4.4946
vt -5.5 4.4946
vt -5.5 2.7
vt -9.7 2.7
vt -9.7 0
vt -5.5 0
vt -5.3 0
vt -5.05 0
vt -5.05 2.1
vt -4.15 2.1
vt -4.15 0
vt -5.62 0.1
vt -6.52 0.1
vt -6.52 2.2
vt -5.62 2.2
vt 0.1 0.1
vt 0.1 -0.1
vt 4.15 -0.1
vt 4.15 0.1
vt 9.7 -0.1
vt 9.7 0.1
vt 7.5 0.1
vt 7.3 0.1
vt 5.05 0.1
vt 5.05 -0.1
vt 5.3 -0.1
vt 5.5 -0.1
vt 0.1 2.7
vt -0.1 2.7
vt 5.5 0.1
vt 7.3 -0.1
vt 7.5 -0.1
vt 0.1 4.4946
vt -0.1 4.5694
vt 0.1 -1.6939
vt 5.3 -1.6939
vt 5.5 -1.6939
vt 5.5 -1.4804
vt 5.3 -1.4804
vt 0.1 -1.4804
vt -0.1 2.1
vt 0.1 2.1
vt 6.52 -0.1
vt 5.62 -0.1
vt -0.1 0.1
vt 0.1 2.2
vt -0.1 2.2
vn 0 0 -0.3048
vn 0 0 0.3048
vn 0 -0.3048 0
vn 0.3048 0 0
vn -0.3048 0 0
vn 0 0.3048 0
vn 0 0.2855 0.1067

usemtl 90484
f 2/2/1 3/3/1 4/4/1
f 2/2/1 4/4/1 1/1/1
f 4/4/1 15/15/1 1/1/1
f 4/4/1 5/5/1 13/13/1
f 15/15/1 13/13/1 14/14/1
f 15/15/1 4/4/1 13/13/1
f 13/13/1 5/5/1 18/18/1
f 5/5/1 6/6/1 17/17/1
f 17/17/1 6/6/1 16/16/1
f 19/19/1 7/7/1 8/8/1
f 7/7/1 19/19/1 16/16/1
f 6/6/1 7/7/1 16/16/1
f 10/10/1 8/8/1 9/9/1
f 19/19/1 12/12/1 13/13/1
f 19/19/1 11/11/1 12/12/1
f 19/19/1 8/8/1 11/11/1
f 8/8/1 10/10/1 11/11/1
f 19/19/1 13/13/1 18/18/1
f 17/17/1 18/18/1 5/5/1
f 26/26/2 34/34/2 35/35/2
f 34/34/2 26/26/2 27/27/2
f 36/36/2 33/33/2 30/30/2
f 27/27/2 33/33/2 34/34/2
f 35/35/2 24/24/2 25/25/2
f 35/35/2 25/25/2 26/26/2
f 36/36/2 24/24/2 35/35/2
f 28/28/2 33/33/2 27/27/2
f 29/29/2 30/30/2 33/33/2
f 32/32/2 20/20/2 31/31/2
f 24/24/2 22/22/2 23/23/2
f 22/22/2 24/24/2 31/31/2
f 31/31/2 21/21/2 22/22/2
f 21/21/2 31/31/2 20/20/2
f 31/31/2 24/24/2 30/30/2
f 36/36/2 30/30/2 24/24/2
f 33/33/2 28/28/2 29/29/2
f 3/40/3 2/37/3 20/38/3
f 20/38/3 32/39/3 3/40/3
f 8/43/3 7/44/3 27/48/3
f 26/41/3 9/42/3 8/43/3
f 27/48/3 7/44/3 6/45/3
f 28/47/3 27/48/3 6/45/3
f 26/41/3 8/43/3 27/48/3
f 6/45/3 29/46/3 28/47/3
f 21/21/4 2/2/4 1/1/4
f 2/2/4 21/21/4 20/20/4
f 9/20/5 26/2/5 25/49/5
f 25/49/5 10/50/5 9/20/5
f 13/48/6 12/52/6 24/51/6
f 11/53/6 25/42/6 24/51/6
f 25/42/6 11/53/6 10/41/6
f 11/53/6 24/51/6 12/52/6
f 14/55/5 13/50/5 23/54/5
f 24/49/5 23/54/5 13/50/5
f 15/57/7 14/58/7 23/59/7
f 15/57/7 23/59/7 22/60/7
f 15/57/7 21/61/7 1/56/7
f 21/61/7 15/57/7 22/60/7
f 30/62/4 29/20/4 6/2/4
f 6/2/4 5/63/4 30/62/4
f 31/39/3 30/46/3 4/40/3
f 5/45/3 4/40/3 30/46/3
f 32/2/5 31/63/5 4/62/5
f 4/62/5 3/20/5 32/2/5
f 17/65/6 34/16/6 33/17/6
f 34/16/6 17/65/6 16/64/6
f 17/66/5 33/37/5 36/67/5
f 36/67/5 18/68/5 17/66/5
f 18/17/3 36/65/3 35/64/3
f 35/64/3 19/16/3 18/17/3
f 16/37/4 35/68/4 34/66/4
f 35/68/4 16/37/4 19/67/4
