## ElementId 267253
## Vertice Count:28
## Triangle Count:60
mtllib 267253.mtl
o 267253

v -2.7164 11.7 4.3011
v -8.1164 11.7 4.3011
v -8.1164 12.5 4.3011
v -8.1164 14.5122 4.3011
v -2.7164 14.5122 4.3011
v -4.0164 12.5 4.3011
v -3.1164 12.5 4.3011
v -3.1164 14.3 4.3011
v -4.0164 14.3 4.3011
v -7.4164 12.5 4.3011
v -5.4164 12.5 4.3011
v -5.4164 14.3 4.3011
v -7.4164 14.3 4.3011
v -2.7164 11.7 4.5011
v -2.7164 14.5869 4.5011
v -7.9164 14.5869 4.5011
v -8.1164 14.5869 4.5011
v -8.1164 12.5 4.5011
v -8.1164 11.7 4.5011
v -7.9164 11.7 4.5011
v -4.0164 12.5 4.5011
v -4.0164 14.3 4.5011
v -3.1164 14.3 4.5011
v -3.1164 12.5 4.5011
v -7.4164 12.5 4.5011
v -7.4164 14.3 4.5011
v -5.4164 14.3 4.5011
v -5.4164 12.5 4.5011
vt 0.1 0
vt 5.5 0
vt 5.5 0.8
vt 5.5 2.8122
vt 0.1 2.8122
vt 1.4 0.8
vt 0.5 0.8
vt 0.5 2.6
vt 1.4 2.6
vt 4.8 0.8
vt 2.8 0.8
vt 2.8 2.6
vt 4.8 2.6
vt -0.1 0
vt -0.1 2.8869
vt -5.3 2.8869
vt -5.5 2.8869
vt -5.5 0.8
vt -5.5 0
vt -5.3 0
vt -1.4 0.8
vt -1.4 2.6
vt -0.5 2.6
vt -0.5 0.8
vt -4.8 0.8
vt -4.8 2.6
vt -2.8 2.6
vt -2.8 0.8
vt 5.5 0.1
vt 0.1 0.1
vt 0.1 -0.1
vt 5.3 -0.1
vt 5.5 -0.1
vt 0.1 0.8912
vt 5.5 0.8912
vt 5.5 1.1047
vt 5.3 1.1047
vt 0.1 1.1047
vt 0.1 0.8
vt 0.1 2.8869
vt -0.1 2.8122
vt -0.1 0.8
vt -0.1 2.6
vt 0.1 2.6
vt 0.5 -0.1
vt 1.4 -0.1
vt 1.4 0.1
vt 0.5 0.1
vt 2.8 -0.1
vt 4.8 -0.1
vt 4.8 0.1
vt 2.8 0.1
vn 0 0 -0.3048
vn 0 0 0.3048
vn 0 -0.3048 0
vn 0 0.2855 -0.1067
vn -0.3048 0 0
vn 0.3048 0 0
vn 0 0.3048 0

usemtl 90484
f 1/1/1 6/6/1 7/7/1
f 6/6/1 1/1/1 11/11/1
f 1/1/1 7/7/1 5/5/1
f 5/5/1 8/8/1 9/9/1
f 8/8/1 5/5/1 7/7/1
f 5/5/1 9/9/1 12/12/1
f 6/6/1 11/11/1 9/9/1
f 10/10/1 2/2/1 3/3/1
f 2/2/1 10/10/1 11/11/1
f 10/10/1 3/3/1 13/13/1
f 11/11/1 12/12/1 9/9/1
f 13/13/1 4/4/1 12/12/1
f 3/3/1 4/4/1 13/13/1
f 12/12/1 4/4/1 5/5/1
f 2/2/1 11/11/1 1/1/1
f 19/19/2 20/20/2 18/18/2
f 18/18/2 20/20/2 25/25/2
f 16/16/2 17/17/2 26/26/2
f 26/26/2 17/17/2 18/18/2
f 18/18/2 25/25/2 26/26/2
f 16/16/2 26/26/2 27/27/2
f 20/20/2 28/28/2 25/25/2
f 22/22/2 28/28/2 21/21/2
f 21/21/2 28/28/2 14/14/2
f 24/24/2 14/14/2 15/15/2
f 14/14/2 24/24/2 21/21/2
f 28/28/2 20/20/2 14/14/2
f 27/27/2 22/22/2 15/15/2
f 27/27/2 28/28/2 22/22/2
f 23/23/2 15/15/2 22/22/2
f 15/15/2 23/23/2 24/24/2
f 27/27/2 15/15/2 16/16/2
f 2/29/3 1/30/3 20/32/3
f 14/31/3 20/32/3 1/30/3
f 20/32/3 19/33/3 2/29/3
f 15/38/4 5/34/4 16/37/4
f 16/37/4 4/35/4 17/36/4
f 4/35/4 16/37/4 5/34/4
f 3/42/5 2/14/5 18/39/5
f 4/41/5 3/42/5 18/39/5
f 19/1/5 18/39/5 2/14/5
f 18/39/5 17/40/5 4/41/5
f 14/14/6 1/1/6 5/5/6
f 5/5/6 15/15/6 14/14/6
f 22/43/6 21/42/6 6/39/6
f 6/39/6 9/44/6 22/43/6
f 23/45/3 22/46/3 9/47/3
f 9/47/3 8/48/3 23/45/3
f 24/39/5 23/44/5 8/43/5
f 8/43/5 7/42/5 24/39/5
f 21/47/7 24/48/7 6/46/7
f 7/45/7 6/46/7 24/48/7
f 26/43/6 25/42/6 10/39/6
f 10/39/6 13/44/6 26/43/6
f 27/49/3 26/50/3 12/52/3
f 13/51/3 12/52/3 26/50/3
f 28/39/5 27/44/5 12/43/5
f 12/43/5 11/42/5 28/39/5
f 25/51/7 28/52/7 11/49/7
f 11/49/7 10/50/7 25/51/7
