## ElementId 267332
## Vertice Count:8
## Triangle Count:12
mtllib 267332.mtl
o 267332

v -12.5164 9.6 4.3011
v -12.5164 9.6 4.5011
v -12.5164 11.3 4.5011
v -12.5164 11.3 4.3011
v -12.3164 9.6 4.3011
v -12.3164 11.3 4.3011
v -12.3164 11.3 4.5011
v -12.3164 9.6 4.5011
vt 0 1.1
vt 0.2 1.1
vt 0.2 2.8
vt 0 2.8
vt -0.2 2.8
vt -0.2 1.1
vt 0.2 0.1
vt 0 0.1
vt 0 -0.1
vt 0.2 -0.1
vt -0.1 2.8
vt -0.1 1.1
vt 0.1 1.1
vt 0.1 2.8
vn -0.3048 0 0
vn 0.3048 0 0
vn 0 -0.3048 0
vn 0 0 0.3048
vn 0 0.3048 0
vn 0 0 -0.3048

usemtl 54872
f 4/4/1 1/1/1 2/2/1
f 2/2/1 3/3/1 4/4/1
f 7/5/2 8/6/2 5/1/2
f 5/1/2 6/4/2 7/5/2
f 2/7/3 1/8/3 8/10/3
f 5/9/3 8/10/3 1/8/3
f 3/11/4 2/12/4 7/14/4
f 8/13/4 7/14/4 2/12/4
f 4/9/5 3/10/5 6/8/5
f 7/7/5 6/8/5 3/10/5
f 1/13/6 4/14/6 5/12/6
f 6/11/6 5/12/6 4/14/6
