## ElementId 267334
## Vertice Count:10
## Triangle Count:16
mtllib 267334.mtl
o 267334

v -12.5164 11.3 4.5011
v -12.5164 11.3 8.0711
v -12.5164 11.4 8.0711
v -12.5164 11.7 8.0711
v -12.5164 11.7 4.5011
v -12.5164 11.4 4.5011
v -12.3164 11.3 8.0711
v -12.3164 11.3 4.5011
v -12.3164 11.7 4.5011
v -12.3164 11.7 8.0711
vt 0.1 -0.4
vt 3.67 -0.4
vt 3.67 -0.3
vt 3.67 0
vt 0.1 0
vt 0.1 -0.3
vt -3.67 -0.4
vt -0.1 -0.4
vt -0.1 0
vt -3.67 0
vt 3.67 0.1
vt 0.1 0.1
vt 0.1 -0.1
vt 3.67 -0.1
vt -0.1 -0.3
vn -0.3048 0 0
vn 0.3048 0 0
vn 0 -0.3048 0
vn 0 0.3048 0
vn 0 0 0.3048
vn 0 0 -0.3048

usemtl 54872
f 6/6/1 1/1/1 2/2/1
f 5/5/1 6/6/1 4/4/1
f 2/2/1 3/3/1 6/6/1
f 3/3/1 4/4/1 6/6/1
f 10/10/2 7/7/2 8/8/2
f 8/8/2 9/9/2 10/10/2
f 2/11/3 1/12/3 8/13/3
f 8/13/3 7/14/3 2/11/3
f 5/13/4 4/14/4 10/11/4
f 10/11/4 9/12/4 5/13/4
f 3/15/5 7/1/5 10/5/5
f 7/1/5 3/15/5 2/8/5
f 10/5/5 4/9/5 3/15/5
f 9/9/6 8/8/6 6/6/6
f 1/1/6 6/6/6 8/8/6
f 5/5/6 9/9/6 6/6/6
