## ElementId 267333
## Vertice Count:13
## Triangle Count:22
mtllib 267333.mtl
o 267333

v -12.5164 11.3 4.5011
v -12.3164 11.3 4.5011
v -8.1164 11.3 4.5011
v -8.1164 11.7 4.5011
v -12.3164 11.7 4.5011
v -12.5164 11.7 4.5011
v -12.5164 11.4 4.5011
v -12.5164 11.7 4.3011
v -8.1164 11.7 4.3011
v -8.1164 11.4 4.3011
v -8.1164 11.3 4.3011
v -12.5164 11.3 4.3011
v -12.5164 11.4 4.3011
vt -0.1 -0.4
vt 0.1 -0.4
vt 4.3 -0.4
vt 4.3 0
vt 0.1 0
vt -0.1 0
vt -0.1 -0.3
vt -4.3 0
vt -4.3 -0.3
vt -4.3 -0.4
vt 0.1 -0.3
vt 4.3 0.1
vt 0.1 0.1
vt -0.1 0.1
vt -0.1 -0.1
vt 4.3 -0.1
vt 0.1 -0.1
vn 0 0 0.3048
vn 0 0 -0.3048
vn 0 -0.3048 0
vn 0 0.3048 0
vn -0.3048 0 0
vn 0.3048 0 0

usemtl 54872
f 7/7/1 1/1/1 2/2/1
f 6/6/1 7/7/1 5/5/1
f 2/2/1 3/3/1 4/4/1
f 4/4/1 5/5/1 2/2/1
f 2/2/1 5/5/1 7/7/1
f 10/9/2 11/10/2 12/2/2
f 9/8/2 10/9/2 8/5/2
f 12/2/2 13/11/2 10/9/2
f 13/11/2 8/5/2 10/9/2
f 2/13/3 12/15/3 11/16/3
f 12/15/3 2/13/3 1/14/3
f 2/13/3 11/16/3 3/12/3
f 5/17/4 9/12/4 8/14/4
f 9/12/4 5/17/4 4/16/4
f 5/17/4 8/14/4 6/15/4
f 13/7/5 12/1/5 7/11/5
f 8/6/5 13/7/5 6/5/5
f 1/2/5 7/11/5 12/1/5
f 7/11/5 6/5/5 13/7/5
f 4/6/6 3/1/6 10/11/6
f 11/2/6 10/11/6 3/1/6
f 9/5/6 4/6/6 10/11/6
