## ElementId 267376
## Vertice Count:8
## Triangle Count:12
mtllib 267376.mtl
o 267376

v -3.0364 2.9 17.0411
v -6.0964 2.9 17.0411
v -6.0964 3.3 17.0411
v -3.0364 3.3 17.0411
v -3.0364 2.9 17.1611
v -3.0364 3.3 17.1611
v -6.0964 3.3 17.1611
v -6.0964 2.9 17.1611
vt 0.06 0.3
vt 3.12 0.3
vt 3.12 0.7
vt 0.06 0.7
vt -0.06 0.3
vt -0.06 0.7
vt -3.12 0.7
vt -3.12 0.3
vt 3.12 0.06
vt 0.06 0.06
vt 0.06 -0.06
vt 3.12 -0.06
vn 0 0 -0.3048
vn 0 0 0.3048
vn 0 -0.3048 0
vn 0 0.3048 0
vn -0.3048 0 0
vn 0.3048 0 0

usemtl 90484
f 4/4/1 1/1/1 2/2/1
f 2/2/1 3/3/1 4/4/1
f 7/7/2 8/8/2 5/5/2
f 5/5/2 6/6/2 7/7/2
f 2/9/3 1/10/3 5/11/3
f 5/11/3 8/12/3 2/9/3
f 4/11/4 3/12/4 6/10/4
f 7/9/4 6/10/4 3/12/4
f 2/5/5 8/1/5 7/4/5
f 7/4/5 3/6/5 2/5/5
f 5/5/6 1/1/6 4/4/6
f 4/4/6 6/6/6 5/5/6
