## ElementId 267327
## Vertice Count:25
## Triangle Count:50
mtllib 267327.mtl
o 267327

v -12.5164 5.3 10.9011
v -12.5164 5.3 16.3011
v -12.5164 8.3476 16.3011
v -12.5164 8.5 16.3011
v -12.5164 8.5 10.9011
v -12.5164 8.3476 10.9011
v -12.5164 7.9 12.2511
v -12.5164 6.3 12.2511
v -12.5164 6.3 11.3511
v -12.5164 7.9 11.3511
v -12.3164 5.3 16.3011
v -12.3164 5.3 16.1011
v -12.3164 5.3 12.9011
v -12.3164 5.3 12.7011
v -12.3164 5.3 10.9011
v -12.3164 8.5 10.9011
v -12.3164 8.5 12.7011
v -12.3164 8.5 12.9011
v -12.3164 8.5 16.1011
v -12.3164 8.5 16.3011
v -12.3164 8.3476 16.3011
v -12.3164 6.3 12.2511
v -12.3164 7.9 12.2511
v -12.3164 7.9 11.3511
v -12.3164 6.3 11.3511
vt 0.1 0
vt 5.5 0
vt 5.5 3.0476
vt 5.5 3.2
vt 0.1 3.2
vt 0.1 3.0476
vt 1.45 2.6
vt 1.45 1
vt 0.55 1
vt 0.55 2.6
vt -5.5 0
vt -5.3 0
vt -2.1 0
vt -1.9 0
vt -0.1 0
vt -0.1 3.2
vt -1.9 3.2
vt -2.1 3.2
vt -5.3 3.2
vt -5.5 3.2
vt -5.5 3.0476
vt -1.45 1
vt -1.45 2.6
vt -0.55 2.6
vt -0.55 1
vt 5.5 0.1
vt 0.1 0.1
vt 0.1 -0.1
vt 1.9 -0.1
vt 2.1 -0.1
vt 5.3 -0.1
vt 5.5 -0.1
vt 5.3 0.1
vt 2.1 0.1
vt 1.9 0.1
vt -0.1 3.0476
vt -0.1 2.6
vt -0.1 1
vt 0.1 1
vt 0.1 2.6
vt 0.55 -0.1
vt 1.45 -0.1
vt 1.45 0.1
vt 0.55 0.1
vn -0.3048 0 0
vn 0.3048 0 0
vn 0 -0.3048 0
vn 0 0.3048 0
vn 0 0 0.3048
vn 0 0 -0.3048

usemtl 31
f 1/1/1 9/9/1 6/6/1
f 9/9/1 1/1/1 8/8/1
f 5/5/1 6/6/1 10/10/1
f 10/10/1 6/6/1 9/9/1
f 5/5/1 10/10/1 7/7/1
f 8/8/1 2/2/1 3/3/1
f 2/2/1 8/8/1 1/1/1
f 7/7/1 3/3/1 4/4/1
f 3/3/1 7/7/1 8/8/1
f 7/7/1 4/4/1 5/5/1
f 2/26/3 1/27/3 13/30/3
f 13/30/3 1/27/3 14/29/3
f 2/26/3 13/30/3 12/31/3
f 15/28/3 14/29/3 1/27/3
f 11/32/3 2/26/3 12/31/3
f 5/28/4 4/32/4 18/34/4
f 18/34/4 4/32/4 19/33/4
f 5/28/4 18/34/4 17/35/4
f 17/35/4 16/27/4 5/28/4
f 19/33/4 4/32/4 20/26/4
f 3/36/5 2/15/5 11/1/5
f 4/16/5 3/36/5 21/6/5
f 11/1/5 21/6/5 3/36/5
f 21/6/5 20/5/5 4/16/5
f 16/16/6 15/15/6 6/6/6
f 1/1/6 6/6/6 15/15/6
f 5/5/6 16/16/6 6/6/6
f 23/37/6 22/38/6 8/39/6
f 8/39/6 7/40/6 23/37/6
f 24/41/3 23/42/3 7/43/3
f 7/43/3 10/44/3 24/41/3
f 25/39/5 24/40/5 10/37/5
f 10/37/5 9/38/5 25/39/5
f 22/43/4 25/44/4 9/41/4
f 9/41/4 8/42/4 22/43/4

usemtl 197629
f 12/12/2 13/13/2 19/19/2
f 11/11/2 12/12/2 21/21/2
f 20/20/2 21/21/2 19/19/2
f 19/19/2 21/21/2 12/12/2
f 13/13/2 18/18/2 19/19/2
f 13/13/2 22/22/2 18/18/2
f 23/23/2 18/18/2 22/22/2
f 22/22/2 14/14/2 25/25/2
f 25/25/2 15/15/2 16/16/2
f 15/15/2 25/25/2 14/14/2
f 17/17/2 23/23/2 24/24/2
f 17/17/2 18/18/2 23/23/2
f 24/24/2 16/16/2 17/17/2
f 16/16/2 24/24/2 25/25/2
f 22/22/2 13/13/2 14/14/2
