## ElementId 267314
## Vertice Count:22
## Triangle Count:40
mtllib 267314.mtl
o 267314

v -12.5164 11.7 8.0711
v -12.3164 11.7 8.0711
v -8.1164 11.7 8.0711
v -8.1164 8.5 8.0711
v -8.2364 8.5 8.0711
v -8.2364 10.6 8.0711
v -9.1364 10.6 8.0711
v -9.1364 8.5 8.0711
v -12.5164 8.5 8.0711
v -12.5164 11.3 8.0711
v -12.5164 11.4 8.0711
v -8.1164 11.7 8.2711
v -12.3164 11.7 8.2711
v -12.5164 11.7 8.2711
v -12.5164 11.4 8.2711
v -12.5164 8.5 8.2711
v -12.3164 8.5 8.2711
v -9.1364 8.5 8.2711
v -9.1364 10.6 8.2711
v -8.2364 10.6 8.2711
v -8.2364 8.5 8.2711
v -8.1164 8.5 8.2711
vt 4.5 3.2
vt 4.3 3.2
vt 0.1 3.2
vt 0.1 0
vt 0.22 0
vt 0.22 2.1
vt 1.12 2.1
vt 1.12 0
vt 4.5 0
vt 4.5 2.8
vt 4.5 2.9
vt -0.1 3.2
vt -4.3 3.2
vt -4.5 3.2
vt -4.5 2.9
vt -4.5 0
vt -4.3 0
vt -1.12 0
vt -1.12 2.1
vt -0.22 2.1
vt -0.22 0
vt -0.1 0
vt 4.5 -0.1
vt 4.5 0.1
vt 1.12 0.1
vt 1.12 -0.1
vt 4.3 -0.1
vt 0.1 0.1
vt 0.1 -0.1
vt 0.22 -0.1
vt 0.22 0.1
vt 4.3 0.1
vt 0.1 2.9
vt -0.1 2.9
vt -0.1 2.8
vt -0.1 2.1
vt 0.1 2.1
vn 0 0 -0.3048
vn 0 0 0.3048
vn 0 -0.3048 0
vn 0 0.3048 0
vn -0.3048 0 0
vn 0.3048 0 0

usemtl 90484
f 4/4/1 5/5/1 6/6/1
f 7/7/1 3/3/1 6/6/1
f 6/6/1 3/3/1 4/4/1
f 7/7/1 9/9/1 10/10/1
f 9/9/1 7/7/1 8/8/1
f 7/7/1 10/10/1 2/2/1
f 2/2/1 11/11/1 1/1/1
f 11/11/1 2/2/1 10/10/1
f 7/7/1 2/2/1 3/3/1
f 16/16/2 17/17/2 15/15/2
f 14/14/2 15/15/2 13/13/2
f 19/19/2 13/13/2 15/15/2
f 15/15/2 17/17/2 19/19/2
f 20/20/2 21/21/2 22/22/2
f 19/19/2 20/20/2 12/12/2
f 12/12/2 20/20/2 22/22/2
f 19/19/2 12/12/2 13/13/2
f 18/18/2 19/19/2 17/17/2
f 9/24/3 8/25/3 17/27/3
f 17/27/3 16/23/3 9/24/3
f 18/26/3 17/27/3 8/25/3
f 5/31/3 4/28/3 22/29/3
f 22/29/3 21/30/3 5/31/3
f 2/27/4 1/23/4 13/32/4
f 3/29/4 2/27/4 12/28/4
f 14/24/4 13/32/4 1/23/4
f 13/32/4 12/28/4 2/27/4
f 1/12/5 11/34/5 15/33/5
f 10/35/5 16/4/5 15/33/5
f 16/4/5 10/35/5 9/22/5
f 14/3/5 1/12/5 15/33/5
f 15/33/5 11/34/5 10/35/5
f 22/22/6 4/4/6 3/3/6
f 3/3/6 12/12/6 22/22/6
f 6/36/5 5/22/5 21/4/5
f 21/4/5 20/37/5 6/36/5
f 7/25/3 6/31/3 19/26/3
f 20/30/3 19/26/3 6/31/3
f 8/4/6 7/37/6 18/22/6
f 19/36/6 18/22/6 7/37/6
