## ElementId 267397
## Vertice Count:18
## Triangle Count:28
mtllib 267397.mtl
o 267397

v -8.1164 -0.1002 4.5011
v -8.1164 0.6498 4.5011
v -8.1164 -0.1002 8.1711
v -8.1164 0.6498 8.1711
v -7.8164 -0.1002 8.1711
v -7.8164 0.9498 8.1711
v -5.9764 -0.1002 8.1711
v -5.9764 0.9498 8.1711
v -5.9764 -0.1002 9.5011
v -5.9764 0.9498 9.5011
v -4.4164 -0.1002 9.5011
v -4.4164 0.9498 9.5011
v -8.1164 0.3396 8.1711
v -7.8164 0.3396 8.1711
v -2.5164 -0.1002 4.5011
v -2.5164 0.5176 4.5011
v -8.1164 0.5176 4.5011
v -2.5164 -0.1002 9.5011
vt 3.67 0
vt 3.67 0.75
vt 0 0
vt 0 0.75
vt 1.33 0
vt 1.33 1.84
vt 0 1.84
vt 0 3.4
vt 0 0.4398
vt 0.3 0
vt 0.3 0.4398
vt 5.6 0
vt 5.6 0.6177
vt 0 0.6177
vt 5 5.6
vt 5 0
vt 1.33 2.14
vt 0 2.14
vt 0 5.6
vn -0.3048 0 0
vn 0 0 0.3048
vn -0.2726 0 0.1363
vn -0.1363 0 0.2726
vn 0 0 -0.3048
vn 0 0.3048 0

usemtl 79450
f 1/1/1 4/4/1 2/2/1
f 1/1/1 3/3/1 4/4/1
f 5/5/2 8/6/4 6/5/2
f 5/5/2 7/6/3 8/6/4
f 7/6/3 10/7/3 8/6/4
f 7/6/3 9/7/4 10/7/3
f 9/7/4 12/8/2 10/7/3
f 9/7/4 11/8/2 12/8/2
f 3/3/2 14/11/2 13/9/2
f 3/3/2 5/10/2 14/11/2
f 15/12/5 17/14/5 16/13/5
f 15/12/5 1/3/5 17/14/5
f 3/3/2 14/11/2 13/9/2
f 3/3/2 5/10/2 14/11/2
f 15/12/5 17/14/5 16/13/5
f 15/12/5 1/3/5 17/14/5
f 1/1/1 4/4/1 2/2/1
f 1/1/1 3/3/1 4/4/1
f 5/5/2 8/6/4 6/5/2
f 5/5/2 7/6/3 8/6/4
f 7/6/3 10/7/3 8/6/4
f 7/6/3 9/7/4 10/7/3
f 9/7/4 12/8/2 10/7/3
f 9/7/4 11/8/2 12/8/2
f 7/17/6 1/16/6 3/5/6
f 7/17/6 18/19/6 15/15/6
f 18/19/6 7/17/6 9/18/6
f 7/17/6 15/15/6 1/16/6
