## ElementId 267428
## Vertice Count:9
## Triangle Count:14
mtllib 267428.mtl
o 267428

v -7.8164 -0.2 8.2711
v -7.8164 -0.2 9.5011
v -7.8164 0.95 9.5011
v -7.8164 0.95 8.2711
v -7.6164 -0.2 8.2711
v -7.6164 0.95 8.2711
v -7.6164 0.95 9.5011
v -7.6164 0 9.5011
v -7.6164 -0.2 9.5011
vt 0.1 -0.2
vt 1.33 -0.2
vt 1.33 0.95
vt 0.1 0.95
vt -0.1 -0.2
vt -0.1 0.95
vt -1.33 0.95
vt -1.33 0
vt -1.33 -0.2
vt 1.33 0.1
vt 0.1 0.1
vt 0.1 -0.1
vt 1.33 -0.1
vt 0.1 0
vn -0.3048 0 0
vn 0.3048 0 0
vn 0 -0.3048 0
vn 0 0.3048 0
vn 0 0 -0.3048
vn 0 0 0.3048

usemtl 31
f 4/4/1 1/1/1 2/2/1
f 2/2/1 3/3/1 4/4/1
f 8/8/2 5/5/2 6/6/2
f 5/5/2 8/8/2 9/9/2
f 8/8/2 6/6/2 7/7/2
f 2/10/3 1/11/3 9/13/3
f 5/12/3 9/13/3 1/11/3
f 4/12/4 3/13/4 7/10/4
f 7/10/4 6/11/4 4/12/4
f 5/5/5 1/1/5 4/4/5
f 4/4/5 6/6/5 5/5/5
f 3/6/6 2/5/6 8/14/6
f 9/1/6 8/14/6 2/5/6
f 7/4/6 3/6/6 8/14/6
