## ElementId 267445
## Vertice Count:64
## Triangle Count:120
mtllib 267445.mtl
o 267445

v -3.1664 1.95 4.4211
v -3.5414 1.95 4.4211
v -3.5414 1.05 4.4211
v -3.1664 1.05 4.4211
v -3.1664 1.95 4.4111
v -3.1664 1.05 4.4111
v -3.5414 1.05 4.4111
v -3.5414 1.95 4.4111
v -3.1664 1.95 4.4311
v -3.1664 1.95 4.4011
v -3.1664 1.05 4.4011
v -3.1664 1.05 4.4311
v -3.1164 2 4.4011
v -3.1164 2 4.4311
v -3.1164 1 4.4311
v -3.1164 1 4.4011
v -3.5414 1.05 4.4011
v -3.5414 1.05 4.4311
v -3.5914 1 4.4311
v -3.5914 1 4.4011
v -3.5414 1.95 4.4011
v -3.5414 1.95 4.4311
v -3.5914 2 4.4311
v -3.5914 2 4.4011
v -3.5914 1.95 4.3911
v -3.9664 1.95 4.3911
v -3.9664 1.05 4.3911
v -3.5914 1.05 4.3911
v -3.5914 1.95 4.3811
v -3.5914 1.05 4.3811
v -3.9664 1.05 4.3811
v -3.9664 1.95 4.3811
v -3.5914 1.95 4.4011
v -3.5914 1.95 4.3711
v -3.5914 1.05 4.3711
v -3.5914 1.05 4.4011
v -3.5414 2 4.3711
v -3.5414 2 4.4011
v -3.5414 1 4.4011
v -3.5414 1 4.3711
v -3.9664 1.05 4.3711
v -3.9664 1.05 4.4011
v -4.0164 1 4.4011
v -4.0164 1 4.3711
v -3.9664 1.95 4.3711
v -3.9664 1.95 4.4011
v -4.0164 2 4.4011
v -4.0164 2 4.3711
v -4.0914 2.075 4.2411
v -3.0414 2.075 4.2411
v -3.0414 0.925 4.2411
v -4.0914 0.925 4.2411
v -4.0164 2 4.2411
v -4.0164 1 4.2411
v -3.1164 1 4.2411
v -3.1164 2 4.2411
v -4.0914 2.075 4.3011
v -4.0914 0.925 4.3011
v -3.0414 0.925 4.3011
v -3.0414 2.075 4.3011
v -4.0164 2 4.3011
v -3.1164 2 4.3011
v -3.1164 1 4.3011
v -4.0164 1 4.3011
vt 0.1875 0.95
vt -0.1875 0.95
vt -0.1875 0.05
vt 0.1875 0.05
vt 0.7971 0.005
vt 0.4221 0.005
vt 0.4221 -0.005
vt 0.7971 -0.005
vt 0.005 0.05
vt 0.005 0.95
vt -0.005 0.95
vt -0.005 0.05
vt -0.4221 0.005
vt -0.7971 0.005
vt -0.7971 -0.005
vt -0.4221 -0.005
vt 0.015 0.95
vt -0.015 0.95
vt -0.015 0.05
vt 0.015 0.05
vt 0.015 1
vt -0.015 1
vt -0.015 0
vt 0.015 0
vt 0.4221 0.015
vt 0.4221 -0.015
vt 0.7971 -0.015
vt 0.7971 0.015
vt -0.3721 -0.015
vt -0.3721 0.015
vt -0.8471 0.015
vt -0.8471 -0.015
vt -0.2375 0
vt 0.2375 0
vt 0.2375 1
vt -0.2375 1
vt -0.7971 0.015
vt -0.7971 -0.015
vt -0.4221 -0.015
vt -0.4221 0.015
vt 0.8471 -0.015
vt 0.8471 0.015
vt 0.3721 0.015
vt 0.3721 -0.015
vt 4.025 2.075
vt 2.975 2.075
vt 2.975 0.925
vt 4.025 0.925
vt 3.95 2
vt 3.95 1
vt 3.05 1
vt 3.05 2
vt -4.025 2.075
vt -4.025 0.925
vt -2.975 0.925
vt -2.975 2.075
vt -3.95 2
vt -3.05 2
vt -3.05 1
vt -3.95 1
vt 0.06 1
vt 0.06 2
vt 0 2
vt 0 1
vt 2.4404 -0.06
vt 3.3404 -0.06
vt 3.3404 0
vt 2.4404 0
vt -0.06 2
vt -0.06 1
vt -3.3404 -0.06
vt -2.4404 -0.06
vt -2.4404 0
vt -3.3404 0
vt 2.3654 -0.06
vt 3.4154 -0.06
vt 3.4154 0
vt 2.3654 0
vt 0.06 0.925
vt 0.06 2.075
vt 0 2.075
vt 0 0.925
vt -3.4154 -0.06
vt -2.3654 -0.06
vt -2.3654 0
vt -3.4154 0
vt -0.06 2.075
vt -0.06 0.925
vn 0 0 0.3048
vn 0 0 -0.3048
vn 0 0.3048 0
vn -0.3048 0 0
vn 0 -0.3048 0
vn 0.3048 0 0

usemtl 33
f 4/4/1 1/1/1 2/2/1
f 2/2/1 3/3/1 4/4/1
f 7/4/2 8/1/2 5/2/2
f 5/2/2 6/3/2 7/4/2
f 2/5/3 1/6/3 5/7/3
f 5/7/3 8/8/3 2/5/3
f 3/9/4 2/10/4 8/11/4
f 8/11/4 7/12/4 3/9/4
f 4/13/5 3/14/5 7/15/5
f 7/15/5 6/16/5 4/13/5
f 1/11/6 4/12/6 6/9/6
f 6/9/6 5/10/6 1/11/6
f 28/4/1 25/1/1 26/2/1
f 26/2/1 27/3/1 28/4/1
f 31/4/2 32/1/2 29/2/2
f 29/2/2 30/3/2 31/4/2
f 26/5/3 25/6/3 29/7/3
f 29/7/3 32/8/3 26/5/3
f 27/9/4 26/10/4 32/11/4
f 32/11/4 31/12/4 27/9/4
f 28/13/5 27/14/5 31/15/5
f 31/15/5 30/16/5 28/13/5
f 25/11/6 28/12/6 30/9/6
f 30/9/6 29/10/6 25/11/6

usemtl 274500
f 9/17/4 10/18/4 12/20/4
f 11/19/4 12/20/4 10/18/4
f 13/21/6 14/22/6 16/24/6
f 15/23/6 16/24/6 14/22/6
f 12/25/3 11/26/3 18/28/3
f 17/27/3 18/28/3 11/26/3
f 16/29/5 15/30/5 20/32/5
f 19/31/5 20/32/5 15/30/5
f 18/19/6 17/20/6 22/18/6
f 21/17/6 22/18/6 17/20/6
f 20/23/4 19/24/4 24/22/4
f 23/21/4 24/22/4 19/24/4
f 24/35/2 21/1/2 17/4/2
f 21/1/2 24/35/2 10/2/2
f 20/34/2 17/4/2 11/3/2
f 17/4/2 20/34/2 24/35/2
f 10/2/2 13/36/2 11/3/2
f 13/36/2 10/2/2 24/35/2
f 11/3/2 16/33/2 20/34/2
f 16/33/2 11/3/2 13/36/2
f 22/37/5 21/38/5 9/40/5
f 10/39/5 9/40/5 21/38/5
f 19/33/1 18/3/1 22/2/1
f 18/3/1 19/33/1 12/4/1
f 23/36/1 22/2/1 9/1/1
f 22/2/1 23/36/1 19/33/1
f 12/4/1 15/34/1 9/1/1
f 15/34/1 12/4/1 19/33/1
f 9/1/1 14/35/1 23/36/1
f 14/35/1 9/1/1 15/34/1
f 24/41/3 23/42/3 13/44/3
f 14/43/3 13/44/3 23/42/3
f 33/17/4 34/18/4 36/20/4
f 35/19/4 36/20/4 34/18/4
f 37/21/6 38/22/6 40/24/6
f 39/23/6 40/24/6 38/22/6
f 36/25/3 35/26/3 42/28/3
f 41/27/3 42/28/3 35/26/3
f 40/29/5 39/30/5 44/32/5
f 43/31/5 44/32/5 39/30/5
f 42/19/6 41/20/6 46/18/6
f 45/17/6 46/18/6 41/20/6
f 44/23/4 43/24/4 48/22/4
f 47/21/4 48/22/4 43/24/4
f 48/35/2 45/1/2 41/4/2
f 45/1/2 48/35/2 34/2/2
f 44/34/2 41/4/2 35/3/2
f 41/4/2 44/34/2 48/35/2
f 34/2/2 37/36/2 35/3/2
f 37/36/2 34/2/2 48/35/2
f 35/3/2 40/33/2 44/34/2
f 40/33/2 35/3/2 37/36/2
f 46/37/5 45/38/5 33/40/5
f 34/39/5 33/40/5 45/38/5
f 43/33/1 42/3/1 46/2/1
f 42/3/1 43/33/1 36/4/1
f 47/36/1 46/2/1 33/1/1
f 46/2/1 47/36/1 43/33/1
f 36/4/1 39/34/1 33/1/1
f 39/34/1 36/4/1 43/33/1
f 33/1/1 38/35/1 47/36/1
f 38/35/1 33/1/1 39/34/1
f 48/41/3 47/42/3 37/44/3
f 38/43/3 37/44/3 47/42/3

usemtl 274516
f 50/46/2 56/52/2 53/49/2
f 56/52/2 50/46/2 55/51/2
f 49/45/2 53/49/2 54/50/2
f 53/49/2 49/45/2 50/46/2
f 55/51/2 51/47/2 54/50/2
f 51/47/2 55/51/2 50/46/2
f 54/50/2 52/48/2 49/45/2
f 52/48/2 54/50/2 51/47/2
f 59/55/1 63/59/1 64/60/1
f 63/59/1 59/55/1 62/58/1
f 58/54/1 64/60/1 61/57/1
f 64/60/1 58/54/1 59/55/1
f 62/58/1 60/56/1 61/57/1
f 60/56/1 62/58/1 59/55/1
f 61/57/1 57/53/1 58/54/1
f 57/53/1 61/57/1 60/56/1
f 54/61/6 53/62/6 64/64/6
f 61/63/6 64/64/6 53/62/6
f 55/65/3 54/66/3 63/68/3
f 64/67/3 63/68/3 54/66/3
f 56/69/4 55/70/4 62/63/4
f 63/64/4 62/63/4 55/70/4
f 53/71/5 56/72/5 61/74/5
f 62/73/5 61/74/5 56/72/5
f 50/75/3 49/76/3 60/78/3
f 57/77/3 60/78/3 49/76/3
f 51/79/6 50/80/6 60/81/6
f 60/81/6 59/82/6 51/79/6
f 52/83/5 51/84/5 58/86/5
f 59/85/5 58/86/5 51/84/5
f 49/87/4 52/88/4 58/82/4
f 58/82/4 57/81/4 49/87/4
