## ElementId 267427
## Vertice Count:10
## Triangle Count:16
mtllib 267427.mtl
o 267427

v -6.1764 -0.2 8.2711
v -6.1764 -0.2 9.7011
v -6.1764 0.95 9.7011
v -6.1764 0.95 8.2711
v -5.9764 -0.2 8.2711
v -5.9764 0.95 8.2711
v -5.9764 0.95 9.5011
v -5.9764 0.95 9.7011
v -5.9764 0 9.7011
v -5.9764 -0.2 9.7011
vt 0.1 -0.2
vt 1.53 -0.2
vt 1.53 0.95
vt 0.1 0.95
vt -0.1 -0.2
vt -0.1 0.95
vt -1.33 0.95
vt -1.53 0.95
vt -1.53 0
vt -1.53 -0.2
vt 1.53 0.1
vt 0.1 0.1
vt 0.1 -0.1
vt 1.53 -0.1
vt 1.33 0.1
vt 0.1 0
vn -0.3048 0 0
vn 0.3048 0 0
vn 0 -0.3048 0
vn 0 0.3048 0
vn 0 0 0.3048
vn 0 0 -0.3048

usemtl 31
f 4/4/1 1/1/1 2/2/1
f 2/2/1 3/3/1 4/4/1
f 9/9/2 10/10/2 5/5/2
f 8/8/2 9/9/2 7/7/2
f 7/7/2 5/5/2 6/6/2
f 5/5/2 7/7/2 9/9/2
f 2/11/3 1/12/3 5/13/3
f 5/13/3 10/14/3 2/11/3
f 4/13/4 3/14/4 7/15/4
f 8/11/4 7/15/4 3/14/4
f 7/15/4 6/12/4 4/13/4
f 3/6/5 2/5/5 9/16/5
f 10/1/5 9/16/5 2/5/5
f 9/16/5 8/4/5 3/6/5
f 5/5/6 1/1/6 4/4/6
f 4/4/6 6/6/6 5/5/6
