## ElementId 267473
## Vertice Count:16
## Triangle Count:32
mtllib 267473.mtl
o 267473

v -7.9164 8.5 15.6011
v -6.5164 8.5 15.6011
v -6.5164 11.7 15.6011
v -7.9164 11.7 15.6011
v -7.6414 9.5 15.6011
v -7.6414 11.3 15.6011
v -6.8914 11.3 15.6011
v -6.8914 9.5 15.6011
v -7.9164 8.5 15.4011
v -7.9164 11.7 15.4011
v -6.5164 11.7 15.4011
v -6.5164 8.5 15.4011
v -7.6414 9.5 15.4011
v -6.8914 9.5 15.4011
v -6.8914 11.3 15.4011
v -7.6414 11.3 15.4011
vt 0.1 0
vt 1.5 0
vt 1.5 3.2
vt 0.1 3.2
vt 0.375 1
vt 0.375 2.8
vt 1.125 2.8
vt 1.125 1
vt -0.1 0
vt -0.1 3.2
vt -1.5 3.2
vt -1.5 0
vt -0.375 1
vt -1.125 1
vt -1.125 2.8
vt -0.375 2.8
vt 1.5 0.1
vt 0.1 0.1
vt 0.1 -0.1
vt 1.5 -0.1
vt -0.1 2.8
vt -0.1 1
vt 0.1 1
vt 0.1 2.8
vt 1.125 0.1
vt 0.375 0.1
vt 0.375 -0.1
vt 1.125 -0.1
vn 0 0 0.3048
vn 0 0 -0.3048
vn 0 -0.3048 0
vn 0 0.3048 0
vn 0.3048 0 0
vn -0.3048 0 0

usemtl 90484
f 1/1/1 5/5/1 4/4/1
f 5/5/1 1/1/1 8/8/1
f 4/4/1 6/6/1 7/7/1
f 6/6/1 4/4/1 5/5/1
f 8/8/1 2/2/1 3/3/1
f 2/2/1 8/8/1 1/1/1
f 7/7/1 3/3/1 4/4/1
f 3/3/1 7/7/1 8/8/1
f 12/12/2 14/14/2 11/11/2
f 14/14/2 12/12/2 9/9/2
f 11/11/2 15/15/2 10/10/2
f 15/15/2 11/11/2 14/14/2
f 13/13/2 9/9/2 10/10/2
f 9/9/2 13/13/2 14/14/2
f 16/16/2 10/10/2 15/15/2
f 10/10/2 16/16/2 13/13/2
f 2/17/3 1/18/3 9/19/3
f 9/19/3 12/20/3 2/17/3
f 4/19/4 3/20/4 10/18/4
f 11/17/4 10/18/4 3/20/4
f 3/10/5 2/9/5 12/1/5
f 12/1/5 11/4/5 3/10/5
f 9/9/6 1/1/6 4/4/6
f 4/4/6 10/10/6 9/9/6
f 6/21/5 5/22/5 13/23/5
f 13/23/5 16/24/5 6/21/5
f 7/25/3 6/26/3 15/28/3
f 16/27/3 15/28/3 6/26/3
f 8/23/6 7/24/6 15/21/6
f 15/21/6 14/22/6 8/23/6
f 5/27/4 8/28/4 14/25/4
f 14/25/4 13/26/4 5/27/4
