## ElementId 267492
## Vertice Count:8
## Triangle Count:12
mtllib 267492.mtl
o 267492

v -6.6164 9.1238 15.6011
v -2.5164 9.1238 15.6011
v -2.5164 8.2 17.2011
v -6.6164 8.2 17.2011
v -2.5164 9.2392 15.6011
v -6.6164 9.2392 15.6011
v -6.6164 8.3155 17.2011
v -2.5164 8.3155 17.2011
vt 1.5836 -13.1991
vt -2.5164 -13.1991
vt -2.5164 -15.0466
vt 1.5836 -15.0466
vt 2.5164 -13.1414
vt -1.5836 -13.1414
vt -1.5836 -14.9889
vt 2.5164 -14.9889
vt 2.5164 -0.3
vt 2.5164 -0.1845
vt -1.5836 -0.1845
vt -1.5836 -0.3
vt 1.5836 0.7392
vt -2.5164 0.7392
vt -2.5164 0.6238
vt 1.5836 0.6238
vt -15.6011 0.7392
vt -17.2011 -0.1845
vt -17.2011 -0.3
vt -15.6011 0.6238
vt 17.2011 -0.1845
vt 15.6011 0.7392
vt 15.6011 0.6238
vt 17.2011 -0.3
vn 0 -0.264 -0.1524
vn 0 0.264 0.1524
vn 0 0 0.3048
vn 0 0 -0.3048
vn 0.3048 0 0
vn -0.3048 0 0

usemtl 54872
f 3/3/1 4/4/1 1/1/1
f 1/1/1 2/2/1 3/3/1
f 6/6/2 7/7/2 8/8/2
f 8/8/2 5/5/2 6/6/2
f 7/11/3 4/12/3 3/9/3
f 3/9/3 8/10/3 7/11/3
f 5/14/4 2/15/4 1/16/4
f 1/16/4 6/13/4 5/14/4
f 8/18/5 3/19/5 2/20/5
f 2/20/5 5/17/5 8/18/5
f 6/22/6 1/23/6 7/21/6
f 4/24/6 7/21/6 1/23/6
