## ElementId 267472
## Vertice Count:24
## Triangle Count:48
mtllib 267472.mtl
o 267472

v -6.5164 8.5 15.6011
v -2.7164 8.5 15.6011
v -2.7164 9.1238 15.6011
v -2.6364 9.1238 15.6011
v -2.6364 9.2392 15.6011
v -2.6364 11.7 15.6011
v -6.5164 11.7 15.6011
v -2.9164 11.3 15.6011
v -2.9164 9.5 15.6011
v -6.2164 9.5 15.6011
v -6.2164 11.3 15.6011
v -2.7164 8.5 15.4011
v -6.5164 8.5 15.4011
v -6.5164 11.7 15.4011
v -2.7164 11.7 15.4011
v -2.7164 9.1238 15.4011
v -2.9164 9.5 15.4011
v -2.9164 11.3 15.4011
v -6.2164 11.3 15.4011
v -6.2164 9.5 15.4011
v -2.6364 11.7 15.5011
v -2.7164 11.7 15.5011
v -2.7164 9.1238 15.5011
v -2.6364 9.1238 15.5011
vt 0 0
vt 3.8 0
vt 3.8 0.6238
vt 3.88 0.6238
vt 3.88 0.7392
vt 3.88 3.2
vt 0 3.2
vt 3.6 2.8
vt 3.6 1
vt 0.3 1
vt 0.3 2.8
vt -3.8 0
vt -3.8 3.2
vt -3.8 0.6238
vt -3.6 1
vt -3.6 2.8
vt -0.3 2.8
vt -0.3 1
vt 3.8 0.1
vt 0 0.1
vt 0 -0.1
vt 3.8 -0.1
vt 3.88 -0.1
vt 3.88 0
vt 0.1 3.2
vt -0.1 3.2
vt -0.1 0
vt 0.1 0
vt 3.88 0.1
vt -0.1 0.6238
vt 0.1 0.6238
vt 0 0.6238
vt -0.1 0.7392
vt -3.88 0.6238
vt -3.88 3.2
vt -0.1 1
vt 0.1 1
vt 0.1 2.8
vt -0.1 2.8
vt 0.3 0.1
vt 0.3 -0.1
vt 3.6 -0.1
vt 3.6 0.1
vn 0 0 0.3048
vn 0 0 -0.3048
vn 0 -0.3048 0
vn 0 0.3048 0
vn -0.3048 0 0
vn 0.3048 0 0

usemtl 90484
f 10/10/1 2/2/1 9/9/1
f 2/2/1 10/10/1 1/1/1
f 7/7/1 10/10/1 11/11/1
f 10/10/1 7/7/1 1/1/1
f 6/6/1 7/7/1 11/11/1
f 5/5/1 9/9/1 3/3/1
f 3/3/1 4/4/1 5/5/1
f 8/8/1 5/5/1 6/6/1
f 8/8/1 9/9/1 5/5/1
f 8/8/1 6/6/1 11/11/1
f 3/3/1 9/9/1 2/2/1
f 18/16/2 16/14/2 17/15/2
f 15/13/2 18/16/2 19/17/2
f 18/16/2 15/13/2 16/14/2
f 16/14/2 12/12/2 17/15/2
f 12/12/2 20/18/2 17/15/2
f 20/18/2 12/12/2 13/1/2
f 20/18/2 14/7/2 19/17/2
f 14/7/2 20/18/2 13/1/2
f 14/7/2 15/13/2 19/17/2
f 2/19/3 1/20/3 13/21/3
f 13/21/3 12/22/3 2/19/3
f 7/21/4 6/23/4 22/2/4
f 22/2/4 6/23/4 21/24/4
f 7/21/4 22/2/4 14/20/4
f 15/19/4 14/20/4 22/2/4
f 1/28/5 7/25/5 14/26/5
f 14/26/5 13/27/5 1/28/5
f 24/24/3 3/19/3 23/2/3
f 3/19/3 24/24/3 4/29/3
f 23/32/6 12/28/6 16/31/6
f 3/30/6 2/27/6 23/32/6
f 12/28/6 23/32/6 2/27/6
f 5/33/6 24/32/6 21/7/6
f 24/32/6 5/33/6 4/30/6
f 5/33/6 21/7/6 6/26/6
f 21/35/2 24/34/2 23/14/2
f 23/14/2 22/13/2 21/35/2
f 22/7/6 23/32/6 16/31/6
f 16/31/6 15/25/6 22/7/6
f 17/36/5 9/37/5 8/38/5
f 8/38/5 18/39/5 17/36/5
f 18/42/3 8/43/3 11/40/3
f 11/40/3 19/41/3 18/42/3
f 20/37/6 11/39/6 10/36/6
f 11/39/6 20/37/6 19/38/6
f 17/43/4 10/41/4 9/42/4
f 10/41/4 17/43/4 20/40/4
