## ElementId 268240
## Vertice Count:16
## Triangle Count:28
mtllib 268240.mtl
o 268240

v -8.1164 14.8586 8.0711
v -12.5164 14.8586 8.0711
v -13.1164 14.2586 7.4711
v -8.1164 14.2586 7.4711
v -12.5164 14.8586 13.5711
v -13.1164 14.2586 14.1711
v -8.1164 14.2586 14.1711
v -8.1164 14.8586 13.5711
v -12.5164 15 8.0711
v -8.1164 15 8.0711
v -8.1164 14.4 7.4711
v -13.1164 14.4 7.4711
v -13.1164 14.4 14.1711
v -12.5164 15 13.5711
v -8.1164 14.4 14.1711
v -8.1164 15 13.5711
vt -3.0836 6.0314
vt -7.4836 6.0314
vt -8.0836 5.1829
vt -3.0836 5.1829
vt -7.4711 -5.816
vt -8.0711 -4.9675
vt -13.5711 -4.9675
vt -14.1711 -5.816
vt 3.0836 -10.1205
vt 8.0836 -10.1205
vt 7.4836 -9.272
vt 3.0836 -9.272
vt 7.4836 6.1314
vt 3.0836 6.1314
vt 3.0836 5.2829
vt 8.0836 5.2829
vt 8.0711 -4.8675
vt 7.4711 -5.716
vt 14.1711 -5.716
vt 13.5711 -4.8675
vt -8.0836 -10.0205
vt -3.0836 -10.0205
vt -3.0836 -9.172
vt -7.4836 -9.172
vt 8.0836 -0.1414
vt 8.0836 0
vt 3.0836 0
vt 3.0836 -0.1414
vt 14.1711 -0.1414
vt 14.1711 0
vt 7.4711 0
vt 7.4711 -0.1414
vt -3.0836 -0.1414
vt -3.0836 0
vt -8.0836 0
vt -8.0836 -0.1414
vt -3.0836 0.6
vt -7.4836 0.6
vt -7.4836 0.4586
vt -3.0836 0.4586
vt -8.0711 0.6
vt -13.5711 0.6
vt -13.5711 0.4586
vt -8.0711 0.4586
vt 7.4836 0.6
vt 3.0836 0.6
vt 3.0836 0.4586
vt 7.4836 0.4586
vt -7.4711 0
vt -7.4711 -0.1414
vt -14.1711 0
vt -14.1711 -0.1414
vn 0 -0.2155 0.2155
vn 0.2155 -0.2155 0
vn 0 -0.2155 -0.2155
vn 0 0.2155 -0.2155
vn -0.2155 0.2155 0
vn 0 0.2155 0.2155
vn 0 0 -0.3048
vn -0.3048 0 0
vn 0 0 0.3048
vn 0.3048 0 0

usemtl 54872
f 2/2/1 4/4/1 1/1/1
f 4/4/1 2/2/1 3/3/1
f 5/7/2 3/5/2 2/6/2
f 3/5/2 5/7/2 6/8/2
f 7/9/3 6/10/3 5/11/3
f 5/11/3 8/12/3 7/9/3
f 10/14/4 11/15/4 9/13/4
f 12/16/4 9/13/4 11/15/4
f 9/17/5 12/18/5 14/20/5
f 13/19/5 14/20/5 12/18/5
f 14/24/6 13/21/6 15/22/6
f 15/22/6 16/23/6 14/24/6
f 11/27/7 4/28/7 3/25/7
f 3/25/7 12/26/7 11/27/7
f 12/31/8 3/32/8 13/30/8
f 6/29/8 13/30/8 3/32/8
f 13/35/9 6/36/9 7/33/9
f 7/33/9 15/34/9 13/35/9
f 9/38/9 2/39/9 1/40/9
f 1/40/9 10/37/9 9/38/9
f 14/42/10 5/43/10 9/41/10
f 2/44/10 9/41/10 5/43/10
f 16/46/7 8/47/7 5/48/7
f 5/48/7 14/45/7 16/46/7
f 10/41/10 1/44/10 11/49/10
f 4/50/10 11/49/10 1/44/10
f 15/51/10 7/52/10 8/43/10
f 8/43/10 16/42/10 15/51/10
