## ElementId 268288
## Vertice Count:10
## Triangle Count:16
mtllib 268288.mtl
o 268288

v -11.1564 -0.2 16.3011
v -11.1564 -0.2 19.3011
v -11.1564 0.1571 19.3011
v -11.1564 1.05 17.8011
v -11.1564 1.05 16.3011
v -10.9164 -0.2 16.3011
v -10.9164 1.05 16.3011
v -10.9164 1.05 17.8011
v -10.9164 0.1571 19.3011
v -10.9164 -0.2 19.3011
vt 0.1 -0.2
vt 3.1 -0.2
vt 3.1 0.1571
vt 1.6 1.05
vt 0.1 1.05
vt -0.1 -0.2
vt -0.1 1.05
vt -1.6 1.05
vt -3.1 0.1571
vt -3.1 -0.2
vt 3.1 0.12
vt 0.1 0.12
vt 0.1 -0.12
vt 3.1 -0.12
vt -0.12 0.1571
vt -0.12 -0.2
vt 0.12 -0.2
vt 0.12 0.1571
vt 0.8378 -0.12
vt 2.5834 -0.12
vt 2.5834 0.12
vt 0.8378 0.12
vt 1.6 -0.12
vt 1.6 0.12
vt 0.12 1.05
vt -0.12 1.05
vn -0.3048 0 0
vn 0.3048 0 0
vn 0 -0.3048 0
vn 0 0 0.3048
vn 0 0.2619 0.1559
vn 0 0.3048 0
vn 0 0 -0.3048

usemtl 31
f 5/5/1 1/1/1 4/4/1
f 4/4/1 2/2/1 3/3/1
f 2/2/1 4/4/1 1/1/1
f 9/9/2 10/10/2 8/8/2
f 8/8/2 6/6/2 7/7/2
f 6/6/2 8/8/2 10/10/2
f 2/11/3 1/12/3 10/14/3
f 6/13/3 10/14/3 1/12/3
f 3/15/4 2/16/4 9/18/4
f 10/17/4 9/18/4 2/16/4
f 4/19/5 3/20/5 9/21/5
f 9/21/5 8/22/5 4/19/5
f 5/13/6 4/23/6 8/24/6
f 8/24/6 7/12/6 5/13/6
f 6/16/7 1/17/7 5/25/7
f 5/25/7 7/26/7 6/16/7
