## ElementId 268254
## Vertice Count:38
## Triangle Count:72
mtllib 268254.mtl
o 268254

v -10.9164 1.05 17.5011
v -10.9164 1.05 16.3011
v -10.9164 0.95 16.3011
v -10.9164 0.95 17.1736
v -10.9164 0.0408 18.7011
v -10.9164 -0.2 18.7011
v -10.9164 -0.2 19.3011
v -10.9164 -0.0214 19.3011
v -10.9164 -0.0214 19.0011
v -10.9164 0.1571 19.0011
v -10.9164 0.1571 18.7011
v -10.9164 0.3357 18.7011
v -10.9164 0.3357 18.4011
v -10.9164 0.5143 18.4011
v -10.9164 0.5143 18.1011
v -10.9164 0.6929 18.1011
v -10.9164 0.6929 17.8011
v -10.9164 0.8714 17.8011
v -10.9164 0.8714 17.5011
v -8.2164 1.05 17.5011
v -8.2164 0.8714 17.5011
v -8.2164 0.8714 17.8011
v -8.2164 0.6929 17.8011
v -8.2164 0.6929 18.1011
v -8.2164 0.5143 18.1011
v -8.2164 0.5143 18.4011
v -8.2164 0.3357 18.4011
v -8.2164 0.3357 18.7011
v -8.2164 0.1571 18.7011
v -8.2164 0.1571 19.0011
v -8.2164 -0.0214 19.0011
v -8.2164 -0.0214 19.3011
v -8.2164 -0.2 19.3011
v -8.2164 -0.2 18.7011
v -8.2164 0.0408 18.7011
v -8.2164 0.95 17.1736
v -8.2164 0.95 16.3011
v -8.2164 1.05 16.3011
vt 17.5011 0
vt 16.3011 0
vt 16.3011 -0.1
vt 17.1736 -0.1
vt 18.7011 -1.0092
vt 18.7011 -1.25
vt 19.3011 -1.25
vt 19.3011 -1.0714
vt 19.0011 -1.0714
vt 19.0011 -0.8929
vt 18.7011 -0.8929
vt 18.7011 -0.7143
vt 18.4011 -0.7143
vt 18.4011 -0.5357
vt 18.1011 -0.5357
vt 18.1011 -0.3571
vt 17.8011 -0.3571
vt 17.8011 -0.1786
vt 17.5011 -0.1786
vt -17.5011 0
vt -17.5011 -0.1786
vt -17.8011 -0.1786
vt -17.8011 -0.3571
vt -18.1011 -0.3571
vt -18.1011 -0.5357
vt -18.4011 -0.5357
vt -18.4011 -0.7143
vt -18.7011 -0.7143
vt -18.7011 -0.8929
vt -19.0011 -0.8929
vt -19.0011 -1.0714
vt -19.3011 -1.0714
vt -19.3011 -1.25
vt -18.7011 -1.25
vt -18.7011 -1.0092
vt -17.1736 -0.1
vt -16.3011 -0.1
vt -16.3011 0
vt 5.7836 16.3011
vt 5.7836 17.5011
vt 3.0836 17.5011
vt 3.0836 16.3011
vt 5.174 -0.1
vt 5.174 0
vt 2.474 0
vt 2.474 -0.1
vt 5.7836 -17.1736
vt 5.7836 -16.3011
vt 3.0836 -16.3011
vt 3.0836 -17.1736
vt 5.7836 -16.586
vt 5.7836 -14.8083
vt 3.0836 -14.8083
vt 3.0836 -16.586
vt 5.174 -1.25
vt 5.174 -1.0092
vt 2.474 -1.0092
vt 2.474 -1.25
vt 5.7836 -19.3011
vt 5.7836 -18.7011
vt 3.0836 -18.7011
vt 3.0836 -19.3011
vt -5.174 -1.0714
vt -5.174 -1.25
vt -2.474 -1.25
vt -2.474 -1.0714
vt 5.7836 19.0011
vt 5.7836 19.3011
vt 3.0836 19.3011
vt 3.0836 19.0011
vt -5.174 -0.8929
vt -2.474 -0.8929
vt 5.7836 18.7011
vt 3.0836 18.7011
vt -5.174 -0.7143
vt -2.474 -0.7143
vt 5.7836 18.4011
vt 3.0836 18.4011
vt -5.174 -0.5357
vt -2.474 -0.5357
vt 5.7836 18.1011
vt 3.0836 18.1011
vt -5.174 -0.3571
vt -2.474 -0.3571
vt 5.7836 17.8011
vt 3.0836 17.8011
vt -5.174 -0.1786
vt -2.474 -0.1786
vt -5.174 0
vt -2.474 0
vn -0.3048 0 0
vn 0.3048 0 0
vn 0 0.3048 0
vn 0 0 -0.3048
vn 0 -0.3048 0
vn 0 -0.2619 -0.1559
vn 0 0 0.3048

usemtl 241168
f 9/9/1 7/7/1 8/8/1
f 5/5/1 6/6/1 9/9/1
f 7/7/1 9/9/1 6/6/1
f 11/11/1 5/5/1 10/10/1
f 9/9/1 10/10/1 5/5/1
f 12/12/1 13/13/1 11/11/1
f 5/5/1 11/11/1 13/13/1
f 13/13/1 14/14/1 15/15/1
f 5/5/1 13/13/1 15/15/1
f 19/19/1 17/17/1 18/18/1
f 15/15/1 16/16/1 17/17/1
f 15/15/1 4/4/1 5/5/1
f 4/4/1 19/19/1 1/1/1
f 2/2/1 3/3/1 4/4/1
f 17/17/1 19/19/1 4/4/1
f 1/1/1 2/2/1 4/4/1
f 15/15/1 17/17/1 4/4/1
f 32/32/2 33/33/2 31/31/2
f 31/31/2 34/34/2 35/35/2
f 34/34/2 31/31/2 33/33/2
f 30/30/2 35/35/2 29/29/2
f 35/35/2 30/30/2 31/31/2
f 29/29/2 27/27/2 28/28/2
f 27/27/2 29/29/2 35/35/2
f 25/25/2 26/26/2 27/27/2
f 36/36/2 25/25/2 35/35/2
f 22/22/2 23/23/2 21/21/2
f 23/23/2 24/24/2 25/25/2
f 25/25/2 27/27/2 35/35/2
f 20/20/2 21/21/2 36/36/2
f 36/36/2 37/37/2 38/38/2
f 36/36/2 21/21/2 23/23/2
f 36/36/2 38/38/2 20/20/2
f 36/36/2 23/23/2 25/25/2
f 2/39/3 1/40/3 20/41/3
f 20/41/3 38/42/3 2/39/3
f 3/43/4 2/44/4 38/45/4
f 38/45/4 37/46/4 3/43/4
f 4/47/5 3/48/5 36/50/5
f 37/49/5 36/50/5 3/48/5
f 5/51/6 4/52/6 35/54/6
f 36/53/6 35/54/6 4/52/6
f 6/55/4 5/56/4 34/58/4
f 35/57/4 34/58/4 5/56/4
f 7/59/5 6/60/5 33/62/5
f 34/61/5 33/62/5 6/60/5
f 8/63/7 7/64/7 32/66/7
f 33/65/7 32/66/7 7/64/7
f 9/67/3 8/68/3 32/69/3
f 32/69/3 31/70/3 9/67/3
f 10/71/7 9/63/7 30/72/7
f 31/66/7 30/72/7 9/63/7
f 11/73/3 10/67/3 30/70/3
f 30/70/3 29/74/3 11/73/3
f 12/75/7 11/71/7 28/76/7
f 29/72/7 28/76/7 11/71/7
f 13/77/3 12/73/3 28/74/3
f 28/74/3 27/78/3 13/77/3
f 14/79/7 13/75/7 26/80/7
f 27/76/7 26/80/7 13/75/7
f 15/81/3 14/77/3 26/78/3
f 26/78/3 25/82/3 15/81/3
f 16/83/7 15/79/7 24/84/7
f 25/80/7 24/84/7 15/79/7
f 17/85/3 16/81/3 24/82/3
f 24/82/3 23/86/3 17/85/3
f 18/87/7 17/83/7 22/88/7
f 23/84/7 22/88/7 17/83/7
f 19/40/3 18/85/3 22/86/3
f 22/86/3 21/41/3 19/40/3
f 1/89/7 19/87/7 20/90/7
f 21/88/7 20/90/7 19/87/7
