## ElementId 268317
## Vertice Count:36
## Triangle Count:68
mtllib 268317.mtl
o 268317

v -8.9164 3.15 16.1011
v -10.2164 3.15 16.1011
v -10.2164 3.15 16.1521
v -8.9164 3.15 16.1521
v -8.9164 1.05 16.1011
v -8.9164 1.05 16.1521
v -10.2164 1.05 16.1521
v -10.2164 1.05 16.1011
v -10.2164 3.15 16.3261
v -8.9164 3.15 16.3261
v -8.9164 1.05 16.3261
v -8.8404 1.05 16.3261
v -8.8404 3.226 16.3261
v -10.2924 3.226 16.3261
v -10.2924 1.05 16.3261
v -10.2164 1.05 16.3261
v -10.2164 3.15 16.3011
v -10.2164 1.05 16.3011
v -10.2924 1.05 16.3011
v -10.2924 3.226 16.3011
v -8.8404 3.226 16.3011
v -8.8404 1.05 16.3011
v -8.9164 1.05 16.3011
v -8.9164 3.15 16.3011
v -10.2164 3.15 16.0761
v -10.2164 1.05 16.0761
v -10.2924 1.05 16.0761
v -10.2924 3.226 16.0761
v -8.8404 3.226 16.0761
v -8.8404 1.05 16.0761
v -8.9164 1.05 16.0761
v -8.9164 3.15 16.0761
v -8.8404 1.05 16.1011
v -8.8404 3.226 16.1011
v -10.2924 3.226 16.1011
v -10.2924 1.05 16.1011
vt 0.102 0.1
vt -1.198 0.1
vt -1.198 0.049
vt 0.102 0.049
vt 0.102 -0.1
vt 0.102 -0.049
vt -1.198 -0.049
vt -1.198 -0.1
vt 1.8076 2.1
vt 0.5076 2.1
vt 0.5076 0
vt 1.8076 0
vt -0.049 2.1
vt -0.1 2.1
vt -0.1 0
vt -0.049 0
vt -0.5076 2.1
vt -1.8076 2.1
vt -1.8076 0
vt -0.5076 0
vt 0.1 2.1
vt 0.049 2.1
vt 0.049 0
vt 0.1 0
vt 1.088 2.1
vt 2.388 2.1
vt 2.388 0
vt 2.464 0
vt 2.464 2.176
vt 1.012 2.176
vt 1.012 0
vt 1.088 0
vt -1.088 2.1
vt -1.088 0
vt -1.012 0
vt -1.012 2.176
vt -2.464 2.176
vt -2.464 0
vt -2.388 0
vt -2.388 2.1
vt 1.7784 0.025
vt 0.4784 0.025
vt 0.4784 0
vt 1.7784 0
vt 0.025 0
vt 0.025 2.1
vt 0 2.1
vt 0 0
vt 1.8544 0.025
vt 1.8544 0
vt -0.025 2.176
vt -0.025 0
vt 0 2.176
vt -0.4024 0.025
vt -1.8544 0.025
vt -1.8544 0
vt -0.4024 0
vt 0.025 2.176
vt 0.4024 0.025
vt 0.4024 0
vt -0.025 2.1
vt 1.6216 -0.025
vt 1.6976 -0.025
vt 1.6976 0
vt 1.6216 0
vt -3.0736 -0.025
vt -1.6216 -0.025
vt -1.6216 0
vt -3.0736 0
vt 2.9976 -0.025
vt 3.0736 -0.025
vt 3.0736 0
vt 2.9976 0
vn 0 0.3048 0
vn 0 -0.3048 0
vn 0 0 -0.3048
vn -0.3048 0 0
vn 0 0 0.3048
vn 0.3048 0 0

usemtl 50633
f 4/4/1 1/1/1 2/2/1
f 2/2/1 3/3/1 4/4/1
f 7/7/2 8/8/2 6/6/2
f 5/5/2 6/6/2 8/8/2
f 2/9/3 1/10/3 5/11/3
f 5/11/3 8/12/3 2/9/3
f 3/13/4 2/14/4 8/15/4
f 8/15/4 7/16/4 3/13/4
f 4/17/5 3/18/5 7/19/5
f 7/19/5 6/20/5 4/17/5
f 1/21/6 4/22/6 6/23/6
f 6/23/6 5/24/6 1/21/6

usemtl 50632
f 15/31/5 16/32/5 9/25/5
f 14/30/5 9/25/5 10/26/5
f 9/25/5 14/30/5 15/31/5
f 11/27/5 12/28/5 10/26/5
f 10/26/5 13/29/5 14/30/5
f 13/29/5 10/26/5 12/28/5
f 22/38/3 23/39/3 24/40/3
f 21/37/3 24/40/3 17/33/3
f 24/40/3 21/37/3 22/38/3
f 18/34/3 19/35/3 17/33/3
f 17/33/3 20/36/3 21/37/3
f 20/36/3 17/33/3 19/35/3
f 10/41/2 9/42/2 17/43/2
f 17/43/2 24/44/2 10/41/2
f 11/45/4 10/46/4 24/47/4
f 24/47/4 23/48/4 11/45/4
f 12/49/2 11/41/2 23/44/2
f 23/44/2 22/50/2 12/49/2
f 13/51/6 12/52/6 21/53/6
f 22/48/6 21/53/6 12/52/6
f 14/54/1 13/55/1 21/56/1
f 21/56/1 20/57/1 14/54/1
f 15/45/4 14/58/4 19/48/4
f 20/53/4 19/48/4 14/58/4
f 16/42/2 15/59/2 19/60/2
f 19/60/2 18/43/2 16/42/2
f 9/61/6 16/52/6 18/48/6
f 18/48/6 17/47/6 9/61/6
f 29/37/3 32/40/3 25/33/3
f 32/40/3 29/37/3 30/38/3
f 28/36/3 25/33/3 27/35/3
f 25/33/3 28/36/3 29/37/3
f 30/38/3 31/39/3 32/40/3
f 26/34/3 27/35/3 25/33/3
f 5/27/5 33/28/5 1/26/5
f 36/31/5 8/32/5 2/25/5
f 1/26/5 34/29/5 2/25/5
f 34/29/5 1/26/5 33/28/5
f 2/25/5 35/30/5 36/31/5
f 35/30/5 2/25/5 34/29/5
f 26/45/6 25/46/6 2/47/6
f 2/47/6 8/48/6 26/45/6
f 27/62/2 26/63/2 8/64/2
f 8/64/2 36/65/2 27/62/2
f 28/51/4 27/52/4 35/53/4
f 36/48/4 35/53/4 27/52/4
f 29/66/1 28/67/1 35/68/1
f 35/68/1 34/69/1 29/66/1
f 30/45/6 29/58/6 33/48/6
f 34/53/6 33/48/6 29/58/6
f 31/70/2 30/71/2 33/72/2
f 33/72/2 5/73/2 31/70/2
f 32/61/4 31/52/4 5/48/4
f 5/48/4 1/47/4 32/61/4
f 25/63/2 32/70/2 1/73/2
f 1/73/2 2/64/2 25/63/2
