## ElementId 268334
## Vertice Count:42
## Triangle Count:80
mtllib 268334.mtl
o 268334

v -7.8859 3.9493 17.8559
v -7.8859 4.668 16.6111
v -8.3068 4.668 16.6111
v -8.3068 3.9493 17.8559
v -8.3068 5 16.6111
v -8.3068 5 16.3011
v -8.3068 4.76 16.3011
v -8.3068 4.76 16.3711
v -8.3068 4.5756 16.3711
v -8.3068 4.5294 16.3711
v -8.3068 3.8193 17.6011
v -8.3068 3.7626 17.6992
v -8.2668 4.5294 16.3711
v -8.2668 3.8193 17.6011
v -8.2668 3.7776 17.6733
v -7.9259 3.7776 17.6733
v -7.9259 4.5294 16.3711
v -7.8859 4.5294 16.3711
v -7.8859 3.7626 17.6992
v -8.2668 4.5756 16.3711
v -8.2668 4.76 16.3711
v -8.2668 4.76 16.3011
v -8.2668 4.616 16.3011
v -8.2668 4.5006 16.3011
v -8.2668 4.4775 16.3011
v -8.2668 3.7154 17.621
v -8.2368 4.4775 16.3011
v -8.2368 3.7304 17.5951
v -7.9559 3.7304 17.5951
v -7.9559 4.4775 16.3011
v -7.9259 4.4775 16.3011
v -7.9259 3.7154 17.621
v -8.2368 4.3389 16.3011
v -8.2368 3.6371 17.5167
v -7.9559 4.3389 16.3011
v -7.9559 3.6371 17.5167
v -7.9259 4.76 16.3711
v -7.9259 4.76 16.3011
v -7.8859 4.76 16.3711
v -7.8859 4.76 16.3011
v -7.8859 5 16.3011
v -7.8859 5 16.6111
vt 0.2105 -0.7187
vt 0.2105 0.7187
vt -0.2105 0.7187
vt -0.2105 -0.7187
vt 0.7986 -0.4885
vt -0.4461 0.2301
vt -0.4461 0.5621
vt -0.7561 0.5621
vt -0.7561 0.3221
vt -0.6861 0.3221
vt -0.6861 0.1378
vt -0.6861 0.0916
vt 0.5439 -0.6186
vt 0.642 -0.6752
vt 0.2105 0.7668
vt 0.1705 0.7668
vt 0.1705 -0.6535
vt 0.1705 -0.7368
vt -0.1705 -0.7368
vt -0.1705 0.7668
vt -0.2105 0.7668
vt -0.2105 -0.7668
vt 0.2105 -0.7668
vt 0.2105 -0.6535
vt -0.6048 0.2801
vt -0.6048 0.3263
vt -0.6048 0.5107
vt -0.6748 0.5107
vt -0.6748 0.3667
vt -0.6748 0.2512
vt -0.6748 0.2281
vt 0.6451 -0.5339
vt 0.6973 -0.4717
vt 0.6252 -0.4301
vt 0.1705 0.7621
vt 0.1405 0.7621
vt 0.1405 -0.7321
vt -0.1405 -0.7321
vt -0.1405 0.7621
vt -0.1705 0.7621
vt -0.1705 -0.7621
vt 0.1705 -0.7621
vt 0.677 -0.3216
vt -0.617 0.4255
vt -0.617 0.2869
vt 0.5986 -0.4149
vt 0.1405 -0.7018
vt 0.1405 0.7018
vt -0.1405 0.7018
vt -0.1405 -0.7018
vt -0.5986 -0.4149
vt 0.617 0.2869
vt 0.617 0.4255
vt -0.677 -0.3216
vt 0.6048 0.5107
vt 0.6048 0.2801
vt -0.6973 -0.4717
vt -0.6451 -0.5339
vt 0.6748 0.2281
vt 0.6748 0.5107
vt 0.4461 0.2301
vt -0.7986 -0.4885
vt -0.642 -0.6752
vt 0.6861 0.0916
vt 0.6861 0.3221
vt 0.7561 0.3221
vt 0.7561 0.5621
vt 0.4461 0.5621
vt -0.2105 -0.166
vt 0.2105 -0.166
vt 0.2105 0.166
vt -0.2105 0.166
vt 0.02 -0.1153
vt 0.02 -0.0691
vt 0.02 0.1153
vt -0.02 0.1153
vt -0.02 -0.0691
vt -0.02 -0.1153
vt 0.2105 0.155
vt -0.2105 0.155
vt -0.2105 -0.155
vt 0.2105 -0.155
vt 0.02 0.035
vt -0.02 0.035
vt -0.02 -0.035
vt 0.02 -0.035
vt 0.2105 0.0906
vt 0.2105 0.3306
vt -0.2105 0.3306
vt -0.2105 0.0906
vt -0.1705 0.0906
vt -0.1705 -0.192
vt -0.1405 -0.192
vt -0.1405 -0.3306
vt 0.1405 -0.3306
vt 0.1405 -0.192
vt 0.1705 -0.192
vt 0.1705 -0.1689
vt 0.1705 -0.0534
vt 0.1705 0.0906
vt -0.2105 -0.1219
vt 0.2105 -0.1219
vt 0.2105 0.1219
vt -0.2105 0.1219
vt 0.1405 0.0609
vt -0.1405 0.0609
vt -0.1405 -0.0609
vt 0.1405 -0.0609
vt -0.1705 -0.0406
vt 0.1705 -0.0406
vt 0.1705 0.0406
vt -0.1705 0.0406
vn 0 0.264 0.1524
vn -0.3048 0 0
vn 0 -0.264 -0.1524
vn 0.3048 0 0
vn 0 0 0.3048
vn 0 0 -0.3048
vn 0 0.3048 0
vn 0 -0.3048 0
vn 0 -0.1959 0.2335

usemtl 90484
f 4/4/1 1/1/1 3/3/1
f 2/2/1 3/3/1 1/1/1
f 4/5/2 3/6/2 11/13/2
f 11/13/2 12/14/2 4/5/2
f 10/12/2 11/13/2 3/6/2
f 3/6/2 9/11/2 10/12/2
f 5/7/2 6/8/2 8/10/2
f 9/11/2 3/6/2 8/10/2
f 7/9/2 8/10/2 6/8/2
f 8/10/2 3/6/2 5/7/2
f 12/23/3 11/24/3 15/18/3
f 12/23/3 16/19/3 19/22/3
f 16/19/3 12/23/3 15/18/3
f 19/22/3 16/19/3 18/21/3
f 15/18/3 11/24/3 14/17/3
f 10/15/3 13/16/3 14/17/3
f 17/20/3 18/21/3 16/19/3
f 10/15/3 14/17/3 11/24/3
f 13/25/2 20/26/2 24/30/2
f 15/33/2 14/34/2 26/32/2
f 25/31/2 26/32/2 14/34/2
f 14/34/2 13/25/2 25/31/2
f 21/27/2 22/28/2 23/29/2
f 25/31/2 13/25/2 24/30/2
f 24/30/2 20/26/2 23/29/2
f 20/26/2 21/27/2 23/29/2
f 26/42/3 28/37/3 29/38/3
f 28/37/3 26/42/3 25/35/3
f 32/41/3 29/38/3 31/40/3
f 29/38/3 32/41/3 26/42/3
f 25/35/3 27/36/3 28/37/3
f 30/39/3 31/40/3 29/38/3
f 34/46/2 28/43/2 33/45/2
f 27/44/2 33/45/2 28/43/2
f 36/50/3 34/47/3 33/48/3
f 33/48/3 35/49/3 36/50/3
f 29/54/4 36/51/4 35/52/4
f 35/52/4 30/53/4 29/54/4
f 16/57/4 32/58/4 17/56/4
f 17/56/4 32/58/4 31/59/4
f 38/60/4 37/55/4 17/56/4
f 38/60/4 17/56/4 31/59/4
f 19/63/4 18/64/4 2/61/4
f 2/61/4 1/62/4 19/63/4
f 18/64/4 39/65/4 2/61/4
f 39/65/4 40/66/4 41/67/4
f 41/67/4 42/68/4 39/65/4
f 39/65/4 42/68/4 2/61/4
f 3/69/5 2/70/5 42/71/5
f 42/71/5 5/72/5 3/69/5
f 13/78/6 10/73/6 20/77/6
f 20/77/6 10/73/6 9/74/6
f 9/74/6 8/75/6 21/76/6
f 9/74/6 21/76/6 20/77/6
f 18/78/6 17/73/6 37/75/6
f 37/75/6 39/76/6 18/78/6
f 5/79/7 42/80/7 6/82/7
f 41/81/7 6/82/7 42/80/7
f 21/83/8 8/84/8 7/85/8
f 7/85/8 22/86/8 21/83/8
f 39/83/8 37/84/8 38/85/8
f 38/85/8 40/86/8 39/83/8
f 40/90/6 38/91/6 41/89/6
f 38/91/6 30/93/6 23/99/6
f 35/94/6 27/96/6 30/93/6
f 30/93/6 27/96/6 23/99/6
f 30/93/6 38/91/6 31/92/6
f 33/95/6 27/96/6 35/94/6
f 22/100/6 41/89/6 38/91/6
f 7/87/6 6/88/6 22/100/6
f 41/89/6 22/100/6 6/88/6
f 27/96/6 25/97/6 24/98/6
f 24/98/6 23/99/6 27/96/6
f 22/100/6 38/91/6 23/99/6
f 12/101/9 19/102/9 1/103/9
f 1/103/9 4/104/9 12/101/9
f 34/107/9 36/108/9 29/105/9
f 29/105/9 28/106/9 34/107/9
f 15/112/9 32/110/9 16/111/9
f 32/110/9 15/112/9 26/109/9
