## ElementId 268496
## Vertice Count:10
## Triangle Count:16
mtllib 268496.mtl
o 268496

v -12.5164 11.7 13.3711
v -12.5164 11.7 13.5711
v -12.5164 14 13.5711
v -12.5164 14 13.3711
v -12.5164 11.82 13.3711
v -12.3164 11.7 13.3711
v -12.3164 11.82 13.3711
v -12.3164 14 13.3711
v -12.3164 14 13.5711
v -12.3164 11.7 13.5711
vt 0 0
vt 0.2 0
vt 0.2 2.3
vt 0 2.3
vt 0 0.12
vt -0.2 2.3
vt -0.2 0
vt 0.2 0.1
vt 0 0.1
vt 0 -0.1
vt 0.2 -0.1
vt -0.1 2.3
vt -0.1 0
vt 0.1 0
vt 0.1 2.3
vt 0.1 0.12
vt -0.1 0.12
vn -0.3048 0 0
vn 0.3048 0 0
vn 0 -0.3048 0
vn 0 0 0.3048
vn 0 0.3048 0
vn 0 0 -0.3048

usemtl 54872
f 5/5/1 2/2/1 3/3/1
f 2/2/1 5/5/1 1/1/1
f 5/5/1 3/3/1 4/4/1
f 9/6/2 10/7/2 7/5/2
f 6/1/2 7/5/2 10/7/2
f 7/5/2 8/4/2 9/6/2
f 2/8/3 1/9/3 6/10/3
f 6/10/3 10/11/3 2/8/3
f 3/12/4 2/13/4 9/15/4
f 10/14/4 9/15/4 2/13/4
f 4/10/5 3/11/5 9/8/5
f 9/8/5 8/9/5 4/10/5
f 5/16/6 4/15/6 8/12/6
f 1/14/6 5/16/6 7/17/6
f 8/12/6 7/17/6 5/16/6
f 7/17/6 6/13/6 1/14/6
