## ElementId 268467
## Vertice Count:16
## Triangle Count:28
mtllib 268467.mtl
o 268467

v -12.5164 11.7 4.5011
v -12.3164 11.7 4.5011
v -8.1164 11.7 4.5011
v -8.1164 12.5 4.5011
v -12.3164 12.5 4.5011
v -12.5164 12.5 4.5011
v -12.5164 12.3 4.5011
v -12.5164 12.1586 4.5011
v -8.1164 11.7 4.3011
v -12.5164 11.7 4.3011
v -12.5164 12.1586 4.3011
v -12.5164 12.3 4.3011
v -12.5164 12.5 4.3011
v -8.1164 12.5 4.3011
v -8.1164 12.3 4.3011
v -8.1164 12.1586 4.3011
vt -0.1 0
vt 0.1 0
vt 4.3 0
vt 4.3 0.8
vt 0.1 0.8
vt -0.1 0.8
vt -0.1 0.6
vt -0.1 0.4586
vt -4.3 0
vt 0.1 0.4586
vt 0.1 0.6
vt -4.3 0.8
vt -4.3 0.6
vt -4.3 0.4586
vt 4.3 0.1
vt 0.1 0.1
vt -0.1 0.1
vt -0.1 -0.1
vt 4.3 -0.1
vt 0.1 -0.1
vn 0 0 0.3048
vn 0 0 -0.3048
vn 0 -0.3048 0
vn 0 0.3048 0
vn -0.3048 0 0
vn 0.3048 0 0

usemtl 90484
f 8/8/1 1/1/1 2/2/1
f 6/6/1 7/7/1 5/5/1
f 8/8/1 5/5/1 7/7/1
f 2/2/1 3/3/1 4/4/1
f 4/4/1 5/5/1 2/2/1
f 2/2/1 5/5/1 8/8/1
f 16/14/2 9/9/2 10/2/2
f 14/12/2 15/13/2 13/5/2
f 16/14/2 12/11/2 15/13/2
f 10/2/2 11/10/2 16/14/2
f 12/11/2 13/5/2 15/13/2
f 11/10/2 12/11/2 16/14/2
f 2/16/3 10/18/3 9/19/3
f 10/18/3 2/16/3 1/17/3
f 2/16/3 9/19/3 3/15/3
f 5/20/4 14/15/4 13/17/4
f 14/15/4 5/20/4 4/19/4
f 5/20/4 13/17/4 6/18/4
f 11/8/5 10/1/5 1/2/5
f 7/11/5 13/6/5 12/7/5
f 12/7/5 11/8/5 8/10/5
f 1/2/5 8/10/5 11/8/5
f 6/5/5 13/6/5 7/11/5
f 7/11/5 12/7/5 8/10/5
f 4/6/6 15/11/6 14/5/6
f 4/6/6 3/1/6 16/10/6
f 9/2/6 16/10/6 3/1/6
f 15/11/6 4/6/6 16/10/6
