## ElementId 268433
## Vertice Count:36
## Triangle Count:68
mtllib 268433.mtl
o 268433

v -11.2468 3.9493 17.8559
v -11.2468 4.668 16.6111
v -11.2468 5 16.6111
v -11.2468 5 16.3011
v -11.2468 4.76 16.3011
v -11.2468 4.76 16.3711
v -11.2468 4.5294 16.3711
v -11.2468 3.7626 17.6992
v -11.2068 4.5294 16.3711
v -11.2068 3.7776 17.6733
v -10.8659 3.7776 17.6733
v -10.8659 4.5294 16.3711
v -10.8259 4.5294 16.3711
v -10.8259 3.7626 17.6992
v -11.2068 4.76 16.3711
v -11.2068 4.76 16.3011
v -11.2068 4.4775 16.3011
v -11.2068 3.7154 17.621
v -11.1768 4.4775 16.3011
v -11.1768 3.7304 17.5951
v -10.8959 3.7304 17.5951
v -10.8959 4.4775 16.3011
v -10.8659 4.4775 16.3011
v -10.8659 3.7154 17.621
v -11.1768 4.3389 16.3011
v -11.1768 3.6371 17.5167
v -10.8959 4.3389 16.3011
v -10.8959 3.6371 17.5167
v -10.8659 4.76 16.3711
v -10.8659 4.76 16.3011
v -10.8259 4.76 16.3711
v -10.8259 4.76 16.3011
v -10.8259 5 16.3011
v -10.8259 5 16.6111
v -10.8259 4.668 16.6111
v -10.8259 3.9493 17.8559
vt 0.7986 -0.4885
vt -0.4461 0.2301
vt -0.4461 0.5621
vt -0.7561 0.5621
vt -0.7561 0.3221
vt -0.6861 0.3221
vt -0.6861 0.0916
vt 0.642 -0.6752
vt 0.2105 0.7668
vt 0.1705 0.7668
vt 0.1705 -0.7368
vt -0.1705 -0.7368
vt -0.1705 0.7668
vt -0.2105 0.7668
vt -0.2105 -0.7668
vt 0.2105 -0.7668
vt -0.6048 0.2801
vt -0.6048 0.5107
vt -0.6748 0.5107
vt -0.6748 0.2281
vt 0.6451 -0.5339
vt 0.6973 -0.4717
vt 0.1705 0.7621
vt 0.1405 0.7621
vt 0.1405 -0.7321
vt -0.1405 -0.7321
vt -0.1405 0.7621
vt -0.1705 0.7621
vt -0.1705 -0.7621
vt 0.1705 -0.7621
vt 0.677 -0.3216
vt -0.617 0.4255
vt -0.617 0.2869
vt 0.5986 -0.4149
vt 0.1405 -0.7018
vt 0.1405 0.7018
vt -0.1405 0.7018
vt -0.1405 -0.7018
vt -0.5986 -0.4149
vt 0.617 0.2869
vt 0.617 0.4255
vt -0.677 -0.3216
vt 0.6048 0.5107
vt 0.6048 0.2801
vt -0.6973 -0.4717
vt -0.6451 -0.5339
vt 0.6748 0.2281
vt 0.6748 0.5107
vt -0.642 -0.6752
vt 0.6861 0.0916
vt 0.6861 0.3221
vt 0.7561 0.3221
vt 0.7561 0.5621
vt 0.4461 0.5621
vt 0.4461 0.2301
vt -0.7986 -0.4885
vt -0.2105 0.7187
vt -0.2105 -0.7187
vt 0.2105 -0.7187
vt 0.2105 0.7187
vt 0.02 -0.1153
vt 0.02 0.1153
vt -0.02 0.1153
vt -0.02 -0.1153
vt -0.2105 0.166
vt -0.2105 -0.166
vt 0.2105 -0.166
vt 0.2105 0.166
vt 0.02 0.035
vt -0.02 0.035
vt -0.02 -0.035
vt 0.02 -0.035
vt 0.2105 0.155
vt -0.2105 0.155
vt -0.2105 -0.155
vt 0.2105 -0.155
vt 0.2105 0.0906
vt 0.2105 0.3306
vt -0.2105 0.3306
vt -0.2105 0.0906
vt -0.1705 0.0906
vt -0.1705 -0.192
vt -0.1405 -0.192
vt -0.1405 -0.3306
vt 0.1405 -0.3306
vt 0.1405 -0.192
vt 0.1705 -0.192
vt 0.1705 0.0906
vt -0.1705 -0.0406
vt 0.1705 -0.0406
vt 0.1705 0.0406
vt -0.1705 0.0406
vt 0.1405 0.0609
vt -0.1405 0.0609
vt -0.1405 -0.0609
vt 0.1405 -0.0609
vt -0.2105 -0.1219
vt 0.2105 -0.1219
vt 0.2105 0.1219
vt -0.2105 0.1219
vn -0.3048 0 0
vn 0 -0.264 -0.1524
vn 0.3048 0 0
vn 0 0.264 0.1524
vn 0 0 -0.3048
vn 0 0 0.3048
vn 0 -0.3048 0
vn 0 0.3048 0
vn 0 -0.1959 0.2335

usemtl 90484
f 1/1/1 2/2/1 8/8/1
f 7/7/1 8/8/1 2/2/1
f 2/2/1 6/6/1 7/7/1
f 3/3/1 4/4/1 6/6/1
f 5/5/1 6/6/1 4/4/1
f 3/3/1 6/6/1 2/2/1
f 8/16/2 10/11/2 11/12/2
f 10/11/2 8/16/2 7/9/2
f 14/15/2 11/12/2 13/14/2
f 11/12/2 14/15/2 8/16/2
f 7/9/2 9/10/2 10/11/2
f 12/13/2 13/14/2 11/12/2
f 10/22/1 9/17/1 18/21/1
f 18/21/1 9/17/1 17/20/1
f 9/17/1 16/19/1 17/20/1
f 16/19/1 9/17/1 15/18/1
f 18/30/2 20/25/2 21/26/2
f 20/25/2 18/30/2 17/23/2
f 24/29/2 21/26/2 23/28/2
f 21/26/2 24/29/2 18/30/2
f 17/23/2 19/24/2 20/25/2
f 22/27/2 23/28/2 21/26/2
f 26/34/1 20/31/1 25/33/1
f 19/32/1 25/33/1 20/31/1
f 28/38/2 26/35/2 27/37/2
f 25/36/2 27/37/2 26/35/2
f 21/42/3 28/39/3 27/40/3
f 27/40/3 22/41/3 21/42/3
f 11/45/3 24/46/3 12/44/3
f 12/44/3 24/46/3 23/47/3
f 30/48/3 29/43/3 12/44/3
f 30/48/3 12/44/3 23/47/3
f 14/49/3 13/50/3 35/55/3
f 35/55/3 36/56/3 14/49/3
f 13/50/3 31/51/3 35/55/3
f 31/51/3 32/52/3 33/53/3
f 33/53/3 34/54/3 31/51/3
f 31/51/3 34/54/3 35/55/3
f 1/58/4 36/59/4 2/57/4
f 35/60/4 2/57/4 36/59/4
f 9/64/5 7/61/5 15/63/5
f 6/62/5 15/63/5 7/61/5
f 13/64/5 12/61/5 31/63/5
f 29/62/5 31/63/5 12/61/5
f 2/66/6 35/67/6 3/65/6
f 34/68/6 3/65/6 35/67/6
f 15/69/7 6/70/7 5/71/7
f 5/71/7 16/72/7 15/69/7
f 31/69/7 29/70/7 32/72/7
f 30/71/7 32/72/7 29/70/7
f 3/73/8 34/74/8 33/75/8
f 33/75/8 4/76/8 3/73/8
f 22/83/5 25/85/5 19/86/5
f 16/88/5 19/86/5 17/87/5
f 16/88/5 5/77/5 4/78/5
f 30/81/5 16/88/5 4/78/5
f 16/88/5 22/83/5 19/86/5
f 25/85/5 22/83/5 27/84/5
f 30/81/5 23/82/5 22/83/5
f 33/79/5 32/80/5 30/81/5
f 4/78/5 33/79/5 30/81/5
f 16/88/5 30/81/5 22/83/5
f 11/91/9 10/92/9 18/89/9
f 18/89/9 24/90/9 11/91/9
f 28/96/9 20/94/9 26/95/9
f 20/94/9 28/96/9 21/93/9
f 14/98/9 1/100/9 8/97/9
f 1/100/9 14/98/9 36/99/9
