## ElementId 268474
## Vertice Count:47
## Triangle Count:106
mtllib 268474.mtl
o 268474

v -7.2864 12.75 15.3711
v -7.2864 12.75 15.6311
v -7.2864 12.63 15.6311
v -7.2864 12.63 15.3711
v -7.9164 12.75 15.3711
v -7.9164 12.63 15.3711
v -7.9164 12.63 15.4011
v -7.9164 12.63 15.6011
v -7.9164 12.63 15.6311
v -7.9164 12.75 15.6311
v -7.9164 12.75 15.6011
v -7.9164 12.75 15.4011
v -7.8864 12.75 15.6311
v -7.8864 12.63 15.6311
v -2.6364 12.75 15.3711
v -2.6364 12.75 15.6311
v -2.6364 12.63 15.6311
v -2.6364 12.63 15.6011
v -2.6364 12.63 15.4011
v -2.6364 12.63 15.3711
v -3.3464 12.75 15.3711
v -3.3464 12.63 15.3711
v -3.3464 12.63 15.6311
v -3.3464 12.75 15.6311
v -2.6364 11.82 15.4011
v -2.6364 11.82 15.6011
v -2.6364 11.7 15.6011
v -2.6364 11.7 15.4011
v -7.9164 11.82 15.4011
v -7.9164 11.7 15.4011
v -7.9164 11.7 15.6011
v -7.9164 11.82 15.6011
v -3.3164 11.82 15.4011
v -7.3164 11.82 15.4011
v -7.3164 11.82 15.6011
v -3.3164 11.82 15.6011
v -7.3164 12.63 15.4011
v -8.1164 11.7 15.4011
v -8.1164 12.75 15.4011
v -3.3164 12.63 15.4011
v -7.3164 12.63 15.6011
v -8.1164 12.75 15.6011
v -8.1164 12.63 15.6011
v -8.1164 11.82 15.6011
v -8.1164 11.7 15.6011
v -3.3164 12.63 15.6011
v -8.1164 12.75 15.5011
vt 0.13 0.06
vt -0.13 0.06
vt -0.13 -0.06
vt 0.13 -0.06
vt -0.1 -0.06
vt 0.1 -0.06
vt 0.1 0.06
vt -0.1 0.06
vt 4.65 0.23
vt 4.65 -0.03
vt 5.28 -0.03
vt 5.28 0
vt 5.28 0.2
vt 5.28 0.23
vt 5.25 0.23
vt 4.65 0.12
vt 4.65 0
vt 5.25 0
vt 5.28 0.12
vt 5.25 0.12
vt 4.65 0.03
vt 4.65 -0.23
vt 5.25 -0.23
vt 5.28 -0.23
vt 5.28 -0.2
vt 5.28 0.03
vt 4.65 -0.12
vt 5.28 -0.12
vt 0 0.23
vt 0 -0.03
vt 0.71 -0.03
vt 0.71 0.23
vt 0 0.12
vt 0 0
vt 0.71 0
vt 0.71 0.12
vt 0 0.03
vt 0 -0.2
vt 0 -0.23
vt 0.71 -0.23
vt 0.71 0.03
vt 0 -0.12
vt 0.71 -0.12
vt 0 0.2
vt 0.68 0
vt 4.68 0
vt 4.68 0.2
vt 0.68 0.2
vt 4.74 0.93
vt 4.74 0.12
vt 5.34 0.12
vt 5.34 0
vt 5.54 0
vt 5.54 1.05
vt 5.34 1.05
vt 5.34 0.93
vt 0.74 0.12
vt 0.74 0.93
vt 0.06 0.93
vt 0.06 0.12
vt -4.74 0.12
vt -4.74 0.93
vt -5.34 0.93
vt -5.34 1.05
vt -5.54 1.05
vt -5.54 0.93
vt -5.54 0.12
vt -5.54 0
vt -5.34 0
vt -5.34 0.12
vt -0.74 0.93
vt -0.74 0.12
vt -0.06 0.12
vt -0.06 0.93
vt 5.54 -0.1
vt 5.54 0.1
vt 5.34 0.1
vt 5.34 -0.1
vt 0.1 0.12
vt 0.1 0.93
vt -0.1 0.93
vt -0.1 0.12
vt 0.6 1.05
vt 0.6 0
vt 0.8 0
vt 0.8 0.12
vt 0.8 0.93
vt 0.8 1.05
vt 0.7 1.05
vt -0.1 0
vt 0.1 0
vt 4.74 0.1
vt 4.74 -0.1
vt 0.74 0.1
vt 0.06 0.1
vt 0.06 -0.1
vt 0.74 -0.1
vt 0.1 1.05
vt -0.1 1.05
vn 0.3048 0 0
vn -0.3048 0 0
vn 0 0.3048 0
vn 0 0 0.3048
vn 0 -0.3048 0
vn 0 0 -0.3048

usemtl 54872
f 3/3/1 4/4/1 1/1/1
f 1/1/1 2/2/1 3/3/1
f 6/3/2 7/5/2 12/8/2
f 12/8/2 5/2/2 6/3/2
f 7/5/2 8/6/2 12/8/2
f 8/6/2 9/4/2 11/7/2
f 10/1/2 11/7/2 9/4/2
f 8/6/2 11/7/2 12/8/2
f 2/9/3 1/10/3 13/15/3
f 13/15/3 1/10/3 12/12/3
f 5/11/3 12/12/3 1/10/3
f 11/13/3 10/14/3 13/15/3
f 12/12/3 11/13/3 13/15/3
f 3/16/4 2/17/4 13/18/4
f 3/16/4 13/18/4 14/20/4
f 14/20/4 10/12/4 9/19/4
f 10/12/4 14/20/4 13/18/4
f 4/21/5 3/22/5 14/23/5
f 4/21/5 14/23/5 7/12/5
f 9/24/5 8/25/5 14/23/5
f 7/12/5 6/26/5 4/21/5
f 8/25/5 7/12/5 14/23/5
f 1/17/6 4/27/6 5/12/6
f 6/28/6 5/12/6 4/27/6
f 19/6/1 20/4/1 15/1/1
f 16/2/1 19/6/1 15/1/1
f 16/2/1 17/3/1 18/5/1
f 19/6/1 16/2/1 18/5/1
f 21/2/2 22/3/2 23/4/2
f 23/4/2 24/1/2 21/2/2
f 16/29/3 15/30/3 21/31/3
f 21/31/3 24/32/3 16/29/3
f 17/33/4 16/34/4 24/35/4
f 24/35/4 23/36/4 17/33/4
f 20/37/5 19/34/5 22/41/5
f 18/38/5 23/40/5 22/41/5
f 23/40/5 18/38/5 17/39/5
f 18/38/5 22/41/5 19/34/5
f 15/34/6 20/42/6 22/43/6
f 22/43/6 21/35/6 15/34/6
f 26/8/1 28/6/1 25/7/1
f 28/6/1 26/8/1 27/5/1
f 29/8/2 30/5/2 31/6/2
f 31/6/2 32/7/2 29/8/2
f 25/34/3 33/45/3 36/48/3
f 36/48/3 26/44/3 25/34/3
f 33/45/3 35/47/3 36/48/3
f 34/46/3 29/12/3 35/47/3
f 32/13/3 35/47/3 29/12/3
f 34/46/3 35/47/3 33/45/3
f 27/33/4 26/34/4 36/45/4
f 27/33/4 36/45/4 31/19/4
f 35/46/4 32/12/4 31/19/4
f 35/46/4 31/19/4 36/45/4
f 28/34/5 27/38/5 30/12/5
f 31/25/5 30/12/5 27/38/5
f 25/34/6 28/42/6 33/45/6
f 33/45/6 28/42/6 30/28/6
f 34/46/6 30/28/6 29/12/6
f 30/28/6 34/46/6 33/45/6
f 47/89/2 39/83/2 43/87/2
f 44/86/2 39/83/2 38/84/2
f 45/85/2 44/86/2 38/84/2
f 43/87/2 42/88/2 47/89/2
f 44/86/2 43/87/2 39/83/2

usemtl 31
f 34/50/6 29/51/6 37/49/6
f 7/56/6 37/49/6 29/51/6
f 29/51/6 38/53/6 7/56/6
f 39/54/6 7/56/6 38/53/6
f 12/55/6 7/56/6 39/54/6
f 38/53/6 29/51/6 30/52/6
f 19/59/6 25/60/6 40/58/6
f 33/57/6 40/58/6 25/60/6
f 8/63/4 43/66/4 44/67/4
f 42/65/4 43/66/4 11/64/4
f 8/63/4 11/64/4 43/66/4
f 44/67/4 45/68/4 31/69/4
f 32/70/4 8/63/4 44/67/4
f 32/70/4 41/62/4 8/63/4
f 41/62/4 32/70/4 35/61/4
f 32/70/4 44/67/4 31/69/4
f 46/71/4 36/72/4 26/73/4
f 26/73/4 18/74/4 46/71/4
f 38/76/5 30/77/5 31/78/5
f 31/78/5 45/75/5 38/76/5
f 12/78/3 39/75/3 47/53/3
f 47/53/3 42/76/3 11/77/3
f 47/53/3 11/77/3 12/78/3
f 34/79/1 37/80/1 41/81/1
f 41/81/1 35/82/1 34/79/1
f 40/81/2 33/82/2 36/79/2
f 36/79/2 46/80/2 40/81/2
f 26/82/1 25/79/1 19/80/1
f 19/80/1 18/81/1 26/82/1
f 31/90/1 30/91/1 29/79/1
f 29/79/1 32/82/1 31/90/1
f 29/77/5 34/92/5 35/93/5
f 35/93/5 32/78/5 29/77/5
f 36/97/5 25/95/5 26/96/5
f 25/95/5 36/97/5 33/94/5
f 8/81/1 7/80/1 12/98/1
f 12/98/1 11/99/1 8/81/1
f 7/78/3 41/92/3 37/93/3
f 41/92/3 7/78/3 8/77/3
f 46/94/3 18/95/3 19/96/3
f 19/96/3 40/97/3 46/94/3
