## ElementId 268480
## Vertice Count:38
## Triangle Count:72
mtllib 268480.mtl
o 268480

v -11.1864 12.75 16.0711
v -11.1864 12.75 16.3311
v -11.1864 12.63 16.3311
v -11.1864 12.63 16.0711
v -12.2864 12.75 16.0711
v -12.2864 12.63 16.0711
v -12.5464 12.63 16.3311
v -12.5464 12.75 16.3311
v -8.1464 12.75 16.0711
v -7.8864 12.75 16.3311
v -7.8864 12.63 16.3311
v -8.1464 12.63 16.0711
v -9.2464 12.75 16.0711
v -9.2464 12.63 16.0711
v -9.2464 12.63 16.3311
v -9.2464 12.75 16.3311
v -8.1164 11.82 16.1011
v -7.9164 11.82 16.3011
v -7.9164 11.7 16.3011
v -8.1164 11.7 16.1011
v -12.3164 11.82 16.1011
v -12.3164 11.7 16.1011
v -12.5164 11.7 16.3011
v -12.5164 11.82 16.3011
v -9.2164 11.82 16.1011
v -11.2164 11.82 16.1011
v -12.3164 11.82 16.3011
v -11.2164 11.82 16.3011
v -9.2164 11.82 16.3011
v -8.1164 11.82 16.3011
v -11.2164 12.63 16.1011
v -12.3164 12.63 16.1011
v -9.2164 12.63 16.1011
v -8.1164 12.63 16.1011
v -11.2164 12.63 16.3011
v -12.3164 12.63 16.3011
v -9.2164 12.63 16.3011
v -8.1164 12.63 16.3011
vt 0.13 0.06
vt -0.13 0.06
vt -0.13 -0.06
vt 0.13 -0.06
vt 2.9274 0
vt 2.9274 -0.12
vt 3.2951 -0.12
vt 3.2951 0
vt 3.07 0.23
vt 3.07 -0.03
vt 4.17 -0.03
vt 4.43 0.23
vt 3.07 0.12
vt 3.07 0
vt 4.43 0
vt 4.43 0.12
vt 3.07 0.03
vt 3.07 -0.23
vt 4.43 -0.23
vt 4.17 0.03
vt 3.07 -0.12
vt 4.17 -0.12
vt 4.17 0
vt 0.0424 0
vt -0.3253 0
vt -0.3253 -0.12
vt 0.0424 -0.12
vt -0.23 0.23
vt 0.03 -0.03
vt 1.13 -0.03
vt 1.13 0.23
vt -0.23 0.12
vt -0.23 0
vt 1.13 0
vt 1.13 0.12
vt 0.03 0.03
vt -0.23 -0.23
vt 1.13 -0.23
vt 1.13 0.03
vt 0.03 0
vt 0.03 -0.12
vt 1.13 -0.12
vt 0 0
vt -0.2828 0
vt -0.2828 -0.12
vt 0 -0.12
vt 2.9698 0
vt 2.9698 -0.12
vt 3.2527 -0.12
vt 3.2527 0
vt -0.2 0.2
vt 1.1 0
vt 3.1 0
vt 4.2 0
vt 4.4 0.2
vt 4.2 0.2
vt 3.1 0.2
vt 1.1 0.2
vt 0 0.2
vt -0.2 0.12
vt -0.2 0
vt 4.4 0
vt 4.4 0.12
vt -0.2 -0.2
vt 4.4 -0.2
vt 4.2 -0.12
vt 3.2 0.93
vt 3.2 0.12
vt 4.3 0.12
vt 4.3 0.93
vt 1.2 0.12
vt 1.2 0.93
vt 0.1 0.93
vt 0.1 0.12
vt -3.2 0.12
vt -3.2 0.93
vt -4.3 0.93
vt -4.3 0.12
vt -1.2 0.93
vt -1.2 0.12
vt -0.1 0.12
vt -0.1 0.93
vt 4.3 0.1
vt 3.2 0.1
vt 3.2 -0.1
vt 4.3 -0.1
vt 1.2 0.1
vt 0.1 0.1
vt 0.1 -0.1
vt 1.2 -0.1
vn 0.3048 0 0
vn -0.2155 0 -0.2155
vn 0 0.3048 0
vn 0 0 0.3048
vn 0 -0.3048 0
vn 0 0 -0.3048
vn 0.2155 0 -0.2155
vn -0.3048 0 0

usemtl 54872
f 3/3/1 4/4/1 1/1/1
f 1/1/1 2/2/1 3/3/1
f 7/7/2 8/8/2 5/5/2
f 5/5/2 6/6/2 7/7/2
f 2/9/3 1/10/3 5/11/3
f 5/11/3 8/12/3 2/9/3
f 3/13/4 2/14/4 7/16/4
f 8/15/4 7/16/4 2/14/4
f 4/17/5 3/18/5 6/20/5
f 7/19/5 6/20/5 3/18/5
f 1/14/6 4/21/6 5/23/6
f 6/22/6 5/23/6 4/21/6
f 9/24/7 10/25/7 11/26/7
f 11/26/7 12/27/7 9/24/7
f 13/2/8 14/3/8 15/4/8
f 15/4/8 16/1/8 13/2/8
f 10/28/3 9/29/3 16/31/3
f 13/30/3 16/31/3 9/29/3
f 11/32/4 10/33/4 15/35/4
f 16/34/4 15/35/4 10/33/4
f 12/36/5 11/37/5 15/38/5
f 15/38/5 14/39/5 12/36/5
f 9/40/6 12/41/6 13/34/6
f 14/42/6 13/34/6 12/41/6
f 20/46/7 18/44/7 19/45/7
f 18/44/7 20/46/7 17/43/7
f 23/49/2 24/50/2 22/48/2
f 21/47/2 22/48/2 24/50/2
f 17/43/3 25/52/3 29/58/3
f 17/43/3 30/59/3 18/51/3
f 30/59/3 17/43/3 29/58/3
f 25/52/3 28/57/3 29/58/3
f 26/53/3 21/54/3 28/57/3
f 21/54/3 27/56/3 28/57/3
f 27/56/3 21/54/3 24/55/3
f 26/53/3 28/57/3 25/52/3
f 18/61/4 30/43/4 19/60/4
f 19/60/4 29/52/4 23/63/4
f 29/52/4 19/60/4 30/43/4
f 27/54/4 24/62/4 23/63/4
f 28/53/4 23/63/4 29/52/4
f 23/63/4 28/53/4 27/54/4
f 20/43/5 19/64/5 22/54/5
f 23/65/5 22/54/5 19/64/5
f 17/43/6 20/46/6 25/52/6
f 25/52/6 20/46/6 22/66/6
f 26/53/6 22/66/6 21/54/6
f 22/66/6 26/53/6 25/52/6

usemtl 31
f 31/67/6 26/68/6 21/69/6
f 21/69/6 32/70/6 31/67/6
f 34/73/6 17/74/6 33/72/6
f 25/71/6 33/72/6 17/74/6
f 36/77/4 27/78/4 28/75/4
f 28/75/4 35/76/4 36/77/4
f 37/79/4 29/80/4 30/81/4
f 30/81/4 38/82/4 37/79/4
f 26/74/1 31/73/1 35/82/1
f 35/82/1 28/81/1 26/74/1
f 33/82/8 25/81/8 29/74/8
f 29/74/8 37/73/8 33/82/8
f 30/81/1 17/74/1 34/73/1
f 34/73/1 38/82/1 30/81/1
f 21/81/8 27/74/8 36/73/8
f 36/73/8 32/82/8 21/81/8
f 28/85/5 21/83/5 26/84/5
f 21/83/5 28/85/5 27/86/5
f 30/89/5 25/87/5 17/88/5
f 25/87/5 30/89/5 29/90/5
f 32/86/3 35/84/3 31/85/3
f 35/84/3 32/86/3 36/83/3
f 38/88/3 34/89/3 33/90/3
f 33/90/3 37/87/3 38/88/3
