## ElementId 268483
## Vertice Count:22
## Triangle Count:44
mtllib 268483.mtl
o 268483

v -12.2864 12.75 16.0711
v -12.5464 12.75 16.3311
v -12.5464 12.63 16.3311
v -12.2864 12.63 16.0711
v -12.2864 12.75 13.5711
v -12.2864 12.63 13.5711
v -12.3164 12.63 13.5711
v -12.5164 12.63 13.5711
v -12.5464 12.63 13.5711
v -12.5464 12.75 13.5711
v -12.3164 11.82 16.1011
v -12.5164 11.82 16.3011
v -12.5164 11.7 16.3011
v -12.3164 11.7 16.1011
v -12.3164 11.82 13.5711
v -12.3164 11.7 13.5711
v -12.5164 11.7 13.5711
v -12.5164 11.82 13.5711
v -12.3164 12.63 16.1011
v -12.3164 12.63 16.3011
v -12.3164 11.82 16.3011
v -12.5164 12.63 16.3011
vt 0.0424 0
vt -0.3253 0
vt -0.3253 -0.12
vt 0.0424 -0.12
vt -0.13 0.06
vt -0.13 -0.06
vt -0.1 -0.06
vt 0.1 -0.06
vt 0.13 -0.06
vt 0.13 0.06
vt -0.23 0.23
vt 0.03 -0.03
vt 2.53 -0.03
vt 2.53 0.23
vt -0.23 0.12
vt -0.23 0
vt 2.53 0
vt 2.53 0.12
vt 0.03 0.03
vt -0.23 -0.23
vt 2.53 -0.23
vt 2.53 -0.2
vt 2.53 0.03
vt 0.03 0
vt 0.03 -0.12
vt 2.53 -0.12
vt 0 0
vt -0.2828 0
vt -0.2828 -0.12
vt 0 -0.12
vt -0.1 0.06
vt 0.1 0.06
vt -0.2 0.2
vt 2.53 0.2
vt -0.2 0.12
vt -0.2 0
vt -0.2 -0.2
vt 0.1 0.12
vt 2.63 0.12
vt 2.63 0.93
vt 0.1 0.93
vt -0.1 0.93
vt -0.1 0.12
vt -2.63 0.12
vt -2.63 0.93
vt -4.5 0.12
vt -4.3 0.12
vt -4.3 0.93
vt -4.5 0.93
vt 2.63 0.1
vt 0.1 0.1
vt -0.1 0.1
vt -0.1 -0.1
vt 2.63 -0.1
vt 0.1 -0.1
vn 0.2155 0 0.2155
vn 0 0 -0.3048
vn 0 0.3048 0
vn -0.3048 0 0
vn 0 -0.3048 0
vn 0.3048 0 0
vn 0 0 0.3048

usemtl 54872
f 1/1/1 2/2/1 3/3/1
f 3/3/1 4/4/1 1/1/1
f 6/6/2 7/7/2 5/5/2
f 8/8/2 10/10/2 5/5/2
f 10/10/2 8/8/2 9/9/2
f 8/8/2 5/5/2 7/7/2
f 2/11/3 1/12/3 10/14/3
f 5/13/3 10/14/3 1/12/3
f 3/15/4 2/16/4 10/17/4
f 10/17/4 9/18/4 3/15/4
f 4/19/5 9/21/5 8/22/5
f 9/21/5 4/19/5 3/20/5
f 4/19/5 8/22/5 7/17/5
f 7/17/5 6/23/5 4/19/5
f 1/24/6 4/25/6 5/17/6
f 6/26/6 5/17/6 4/25/6
f 14/30/1 12/28/1 13/29/1
f 12/28/1 14/30/1 11/27/1
f 16/7/2 17/8/2 18/32/2
f 18/32/2 15/31/2 16/7/2
f 12/33/3 11/27/3 18/34/3
f 15/17/3 18/34/3 11/27/3
f 13/35/4 12/36/4 17/18/4
f 18/17/4 17/18/4 12/36/4
f 14/27/5 13/37/5 17/22/5
f 17/22/5 16/17/5 14/27/5
f 11/27/6 14/30/6 15/17/6
f 16/26/6 15/17/6 14/30/6

usemtl 31
f 20/42/6 21/43/6 19/41/6
f 19/41/6 21/43/6 11/38/6
f 11/38/6 15/39/6 7/40/6
f 11/38/6 7/40/6 19/41/6
f 8/45/4 18/44/4 12/38/4
f 12/38/4 22/41/4 8/45/4
f 7/42/2 15/43/2 18/38/2
f 18/38/2 8/41/2 7/42/2
f 22/49/7 12/46/7 21/47/7
f 21/47/7 20/48/7 22/49/7
f 12/53/5 18/54/5 11/51/5
f 15/50/5 11/51/5 18/54/5
f 21/52/5 12/53/5 11/51/5
f 8/50/3 22/52/3 19/55/3
f 20/53/3 19/55/3 22/52/3
f 7/54/3 8/50/3 19/55/3
