## ElementId 268417
## Vertice Count:16
## Triangle Count:28
mtllib 268417.mtl
o 268417

v -13.1164 11.5586 3.7011
v -12.5164 12.1586 4.3011
v -12.5164 12.1586 8.2711
v -13.1164 11.5586 8.8711
v -7.3164 11.5586 3.7011
v -7.3164 11.5586 4.3011
v -7.9164 12.1586 4.3011
v -12.5164 11.5586 8.8711
v -12.5164 12.3 4.3011
v -13.1164 11.7 3.7011
v -13.1164 11.7 8.8711
v -12.5164 12.3 8.2711
v -7.3164 11.7 4.3011
v -7.3164 11.7 3.7011
v -7.9164 12.3 4.3011
v -12.5164 11.7 8.8711
vt -3.7011 -5.816
vt -4.3011 -4.9675
vt -8.2711 -4.9675
vt -8.8711 -5.816
vt 3.7011 1.5148
vt 4.3011 1.5148
vt 4.3011 2.3633
vt 7.4836 -6.3728
vt 8.0836 -6.3728
vt 7.4836 -5.5243
vt -7.4836 3.3656
vt -8.0836 2.5171
vt -2.2836 2.5171
vt -2.8836 3.3656
vt 4.3011 -4.8675
vt 3.7011 -5.716
vt 8.8711 -5.716
vt 8.2711 -4.8675
vt -4.3011 1.6148
vt -3.7011 1.6148
vt -4.3011 2.4633
vt -8.0836 -6.2728
vt -7.4836 -6.2728
vt -7.4836 -5.4243
vt 7.4836 3.4656
vt 2.8836 3.4656
vt 2.2836 2.6171
vt 8.0836 2.6171
vt -3.7011 -0.1414
vt -3.7011 0
vt -4.3011 0
vt -4.3011 -0.1414
vt 8.0836 -0.1414
vt 8.0836 0
vt 2.2836 0
vt 2.2836 -0.1414
vt 8.8711 -0.1414
vt 8.8711 0
vt 3.7011 0
vt 3.7011 -0.1414
vt -7.4836 -0.1414
vt -7.4836 0
vt -8.0836 0
vt -8.0836 -0.1414
vt -2.2836 0
vt -2.8836 0.6
vt -7.4836 0.6
vt -7.4836 0.4586
vt -2.8836 0.4586
vt -2.2836 -0.1414
vt -4.3011 0.6
vt -8.2711 0.6
vt -8.8711 0
vt -8.8711 -0.1414
vt -8.2711 0.4586
vt -4.3011 0.4586
vn 0.2155 -0.2155 0
vn -0.2155 -0.2155 0
vn 0 -0.2155 -0.2155
vn 0 -0.2155 0.2155
vn -0.2155 0.2155 0
vn 0.2155 0.2155 0
vn 0 0.2155 0.2155
vn 0 0.2155 -0.2155
vn 0.3048 0 0
vn 0 0 -0.3048
vn -0.3048 0 0
vn 0 0 0.3048

usemtl 54872
f 3/3/1 1/1/1 2/2/1
f 1/1/1 3/3/1 4/4/1
f 7/7/2 5/5/2 6/6/2
f 3/10/3 8/8/3 4/9/3
f 1/12/4 5/13/4 7/14/4
f 7/14/4 2/11/4 1/12/4
f 9/15/5 10/16/5 12/18/5
f 11/17/5 12/18/5 10/16/5
f 13/19/6 14/20/6 15/21/6
f 11/22/7 16/23/7 12/24/7
f 15/26/8 14/27/8 10/28/8
f 10/28/8 9/25/8 15/26/8
f 13/31/9 6/32/9 14/30/9
f 5/29/9 14/30/9 6/32/9
f 14/35/10 5/36/10 10/34/10
f 1/33/10 10/34/10 5/36/10
f 10/39/11 1/40/11 4/37/11
f 4/37/11 11/38/11 10/39/11
f 11/43/12 4/44/12 16/42/12
f 8/41/12 16/42/12 4/44/12
f 9/47/12 2/48/12 7/49/12
f 9/47/12 7/49/12 15/46/12
f 7/49/12 13/45/12 15/46/12
f 13/45/12 7/49/12 6/50/12
f 16/53/9 3/55/9 12/52/9
f 3/55/9 16/53/9 8/54/9
f 3/55/9 2/56/9 9/51/9
f 3/55/9 9/51/9 12/52/9
