## ElementId 268532
## Vertice Count:10
## Triangle Count:16
mtllib 268532.mtl
o 268532

v -2.9164 2.9 17.1611
v -2.9164 2.9 16.8011
v -2.9164 3.3 16.8011
v -2.9164 3.3 17.1611
v -3.0364 2.9 17.1611
v -3.0364 3.3 17.1611
v -3.0364 3.3 17.0411
v -3.0364 3.3 16.8011
v -3.0364 2.9 16.8011
v -3.0364 2.9 17.0411
vt -0.06 0.3
vt 0.3 0.3
vt 0.3 0.7
vt -0.06 0.7
vt 0.06 0.3
vt 0.06 0.7
vt -0.3 0.7
vt -0.3 0.3
vt 0.3 0.06
vt -0.06 0.06
vt -0.06 -0.06
vt 0.06 -0.06
vt 0.3 -0.06
vt 0.06 0.06
vn 0.3048 0 0
vn -0.3048 0 0
vn 0 -0.3048 0
vn 0 0.3048 0
vn 0 0 0.3048
vn 0 0 -0.3048

usemtl 90484
f 4/4/1 1/1/1 3/3/1
f 2/2/1 3/3/1 1/1/1
f 8/7/2 9/8/2 10/1/2
f 8/7/2 10/1/2 7/4/2
f 10/1/2 6/6/2 7/4/2
f 6/6/2 10/1/2 5/5/2
f 2/9/3 1/10/3 10/12/3
f 5/11/3 10/12/3 1/10/3
f 10/12/3 9/13/3 2/9/3
f 4/11/4 3/13/4 7/14/4
f 8/9/4 7/14/4 3/13/4
f 7/14/4 6/10/4 4/11/4
f 6/4/5 5/1/5 1/5/5
f 1/5/5 4/6/5 6/4/5
f 2/1/6 9/5/6 8/6/6
f 8/6/6 3/4/6 2/1/6
