## ElementId 268534
## Vertice Count:10
## Triangle Count:16
mtllib 268534.mtl
o 268534

v -8.1164 11.7 15.2011
v -8.1164 11.7 15.4011
v -8.1164 12.75 15.4011
v -8.1164 14.0766 15.4011
v -8.1164 14.0766 15.2011
v -7.9164 11.7 15.2011
v -7.9164 14.0766 15.2011
v -7.9164 14.0766 15.4011
v -7.9164 12.75 15.4011
v -7.9164 11.7 15.4011
vt 0.4 0
vt 0.6 0
vt 0.6 1.05
vt 0.6 2.3766
vt 0.4 2.3766
vt -0.4 0
vt -0.4 2.3766
vt -0.6 2.3766
vt -0.6 1.05
vt -0.6 0
vt 0.6 0.1
vt 0.4 0.1
vt 0.4 -0.1
vt 0.6 -0.1
vt -0.1 1.05
vt -0.1 0
vt 0.1 0
vt 0.1 1.05
vt -0.1 2.3766
vt 0.1 2.3766
vn -0.3048 0 0
vn 0.3048 0 0
vn 0 -0.3048 0
vn 0 0 0.3048
vn 0 0.3048 0
vn 0 0 -0.3048

usemtl 54872
f 5/5/1 1/1/1 3/3/1
f 2/2/1 3/3/1 1/1/1
f 3/3/1 4/4/1 5/5/1
f 9/9/2 6/6/2 7/7/2
f 6/6/2 9/9/2 10/10/2
f 9/9/2 7/7/2 8/8/2
f 2/11/3 1/12/3 6/13/3
f 6/13/3 10/14/3 2/11/3
f 3/15/4 2/16/4 10/17/4
f 10/17/4 9/18/4 3/15/4
f 4/19/4 3/15/4 8/20/4
f 9/18/4 8/20/4 3/15/4
f 5/13/5 4/14/5 8/11/5
f 8/11/5 7/12/5 5/13/5
f 1/17/6 5/20/6 7/19/6
f 7/19/6 6/16/6 1/17/6
