## ElementId 268669
## Vertice Count:78
## Triangle Count:144
mtllib 268669.mtl
o 268669

v -5.4664 10.65 4.4211
v -6.3914 10.65 4.4211
v -6.3914 9.55 4.4211
v -5.4664 9.55 4.4211
v -5.4664 10.65 4.4111
v -5.4664 9.55 4.4111
v -6.3914 9.55 4.4111
v -6.3914 10.65 4.4111
v -5.4664 10.65 4.4311
v -5.4664 10.65 4.4011
v -5.4664 9.55 4.4011
v -5.4664 9.55 4.4311
v -5.4164 10.7 4.4011
v -5.4164 10.7 4.4311
v -5.4164 9.5 4.4311
v -5.4164 9.5 4.4011
v -6.3914 9.55 4.4011
v -6.3914 9.55 4.4311
v -6.4414 9.5 4.4311
v -6.4414 9.5 4.4011
v -6.3914 10.65 4.4011
v -6.3914 10.65 4.4311
v -6.4414 10.7 4.4311
v -6.4414 10.7 4.4011
v -6.4414 10.65 4.3911
v -7.3664 10.65 4.3911
v -7.3664 9.55 4.3911
v -6.4414 9.55 4.3911
v -6.4414 10.65 4.3811
v -6.4414 9.55 4.3811
v -7.3664 9.55 4.3811
v -7.3664 10.65 4.3811
v -6.4414 10.65 4.4011
v -6.4414 10.65 4.3711
v -6.4414 9.55 4.3711
v -6.4414 9.55 4.4011
v -6.3914 10.7 4.3711
v -6.3914 10.7 4.4011
v -6.3914 9.5 4.4011
v -6.3914 9.5 4.3711
v -7.3664 9.55 4.3711
v -7.3664 9.55 4.4011
v -7.4164 9.5 4.4011
v -7.4164 9.5 4.3711
v -7.3664 10.65 4.3711
v -7.3664 10.65 4.4011
v -7.4164 10.7 4.4011
v -7.4164 10.7 4.3711
v -6.3914 11.25 4.4311
v -6.4414 11.25 4.4311
v -6.4414 10.75 4.4311
v -6.3914 10.75 4.4311
v -6.3914 11.25 4.3711
v -6.3914 10.75 4.3711
v -6.4414 10.75 4.3711
v -6.4414 11.25 4.3711
v -5.4164 11.3 4.4311
v -7.4164 11.3 4.4311
v -7.4164 10.7 4.4311
v -5.4664 11.25 4.4311
v -5.4664 10.75 4.4311
v -7.3664 10.75 4.4311
v -7.3664 11.25 4.4311
v -5.4164 11.3 4.3711
v -5.4164 10.7 4.3711
v -7.4164 11.3 4.3711
v -5.4664 11.25 4.3711
v -7.3664 11.25 4.3711
v -7.3664 10.75 4.3711
v -5.4664 10.75 4.3711
v -7.3664 11.25 4.4061
v -7.3664 10.75 4.4061
v -5.4664 10.75 4.4061
v -5.4664 11.25 4.4061
v -7.3664 11.25 4.3961
v -5.4664 11.25 4.3961
v -5.4664 10.75 4.3961
v -7.3664 10.75 4.3961
vt 0.4625 1.15
vt -0.4625 1.15
vt -0.4625 0.05
vt 0.4625 0.05
vt 1.0721 0.005
vt 0.1471 0.005
vt 0.1471 -0.005
vt 1.0721 -0.005
vt 0.005 0.05
vt 0.005 1.15
vt -0.005 1.15
vt -0.005 0.05
vt -0.1471 0.005
vt -1.0721 0.005
vt -1.0721 -0.005
vt -0.1471 -0.005
vt 0.015 1.15
vt -0.015 1.15
vt -0.015 0.05
vt 0.015 0.05
vt 0.015 1.2
vt -0.015 1.2
vt -0.015 0
vt 0.015 0
vt 0.1471 0.015
vt 0.1471 -0.015
vt 1.0721 -0.015
vt 1.0721 0.015
vt -0.0971 -0.015
vt -0.0971 0.015
vt -1.1221 0.015
vt -1.1221 -0.015
vt -0.5125 0
vt 0.5125 0
vt 0.5125 1.2
vt -0.5125 1.2
vt -1.0721 0.015
vt -1.0721 -0.015
vt -0.1471 -0.015
vt -0.1471 0.015
vt 1.1221 -0.015
vt 1.1221 0.015
vt 0.0971 0.015
vt 0.0971 -0.015
vt 0.025 2.75
vt -0.025 2.75
vt -0.025 2.25
vt 0.025 2.25
vt 0.6346 0.03
vt 0.5846 0.03
vt 0.5846 -0.03
vt 0.6346 -0.03
vt 0.03 2.25
vt 0.03 2.75
vt -0.03 2.75
vt -0.03 2.25
vt -0.5846 0.03
vt -0.6346 0.03
vt -0.6346 -0.03
vt -0.5846 -0.03
vt 1 2.8
vt -1 2.8
vt -1 2.2
vt 1 2.2
vt 0.95 2.75
vt 0.95 2.25
vt -0.95 2.25
vt -0.95 2.75
vt 1.6096 0.03
vt -0.3904 0.03
vt -0.3904 -0.03
vt 1.6096 -0.03
vt 0.03 2.2
vt 0.03 2.8
vt -0.03 2.8
vt -0.03 2.2
vt 0.3904 0.03
vt -1.6096 0.03
vt -1.6096 -0.03
vt 0.3904 -0.03
vt 1.5596 0.03
vt -0.3404 0.03
vt -0.3404 -0.03
vt 1.5596 -0.03
vt 0.3404 0.03
vt -1.5596 0.03
vt -1.5596 -0.03
vt 0.3404 -0.03
vt 0.005 2.25
vt 0.005 2.75
vt -0.005 2.75
vt -0.005 2.25
vt 0.3404 0.005
vt -1.5596 0.005
vt -1.5596 -0.005
vt 0.3404 -0.005
vt 1.5596 0.005
vt -0.3404 0.005
vt -0.3404 -0.005
vt 1.5596 -0.005
vn 0 0 0.3048
vn 0 0 -0.3048
vn 0 0.3048 0
vn -0.3048 0 0
vn 0 -0.3048 0
vn 0.3048 0 0

usemtl 33
f 4/4/1 1/1/1 3/3/1
f 2/2/1 3/3/1 1/1/1
f 7/4/2 8/1/2 6/3/2
f 5/2/2 6/3/2 8/1/2
f 2/5/3 1/6/3 5/7/3
f 5/7/3 8/8/3 2/5/3
f 3/9/4 2/10/4 8/11/4
f 8/11/4 7/12/4 3/9/4
f 4/13/5 3/14/5 7/15/5
f 7/15/5 6/16/5 4/13/5
f 1/11/6 4/12/6 6/9/6
f 6/9/6 5/10/6 1/11/6
f 28/4/1 25/1/1 27/3/1
f 26/2/1 27/3/1 25/1/1
f 31/4/2 32/1/2 30/3/2
f 29/2/2 30/3/2 32/1/2
f 26/5/3 25/6/3 29/7/3
f 29/7/3 32/8/3 26/5/3
f 27/9/4 26/10/4 32/11/4
f 32/11/4 31/12/4 27/9/4
f 28/13/5 27/14/5 31/15/5
f 31/15/5 30/16/5 28/13/5
f 25/11/6 28/12/6 30/9/6
f 30/9/6 29/10/6 25/11/6
f 74/65/1 71/68/1 73/66/1
f 72/67/1 73/66/1 71/68/1
f 77/67/2 78/66/2 76/68/2
f 75/65/2 76/68/2 78/66/2
f 72/89/4 71/90/4 75/91/4
f 75/91/4 78/92/4 72/89/4
f 73/93/5 72/94/5 78/95/5
f 78/95/5 77/96/5 73/93/5
f 74/91/6 73/92/6 77/89/6
f 77/89/6 76/90/6 74/91/6
f 71/97/3 74/98/3 76/99/3
f 76/99/3 75/100/3 71/97/3

usemtl 274500
f 9/17/4 10/18/4 12/20/4
f 11/19/4 12/20/4 10/18/4
f 13/21/6 14/22/6 16/24/6
f 15/23/6 16/24/6 14/22/6
f 12/25/3 11/26/3 18/28/3
f 17/27/3 18/28/3 11/26/3
f 16/29/5 15/30/5 20/32/5
f 19/31/5 20/32/5 15/30/5
f 18/19/6 17/20/6 22/18/6
f 21/17/6 22/18/6 17/20/6
f 20/23/4 19/24/4 24/22/4
f 23/21/4 24/22/4 19/24/4
f 24/35/2 21/1/2 17/4/2
f 21/1/2 24/35/2 10/2/2
f 20/34/2 17/4/2 11/3/2
f 17/4/2 20/34/2 24/35/2
f 10/2/2 13/36/2 11/3/2
f 13/36/2 10/2/2 24/35/2
f 11/3/2 16/33/2 20/34/2
f 16/33/2 11/3/2 13/36/2
f 22/37/5 21/38/5 9/40/5
f 10/39/5 9/40/5 21/38/5
f 19/33/1 18/3/1 22/2/1
f 18/3/1 19/33/1 12/4/1
f 23/36/1 22/2/1 9/1/1
f 22/2/1 23/36/1 19/33/1
f 12/4/1 15/34/1 9/1/1
f 15/34/1 12/4/1 19/33/1
f 9/1/1 14/35/1 23/36/1
f 14/35/1 9/1/1 15/34/1
f 24/41/3 23/42/3 13/44/3
f 14/43/3 13/44/3 23/42/3
f 33/17/4 34/18/4 36/20/4
f 35/19/4 36/20/4 34/18/4
f 37/21/6 38/22/6 40/24/6
f 39/23/6 40/24/6 38/22/6
f 36/25/3 35/26/3 42/28/3
f 41/27/3 42/28/3 35/26/3
f 40/29/5 39/30/5 44/32/5
f 43/31/5 44/32/5 39/30/5
f 42/19/6 41/20/6 46/18/6
f 45/17/6 46/18/6 41/20/6
f 44/23/4 43/24/4 48/22/4
f 47/21/4 48/22/4 43/24/4
f 48/35/2 45/1/2 41/4/2
f 45/1/2 48/35/2 34/2/2
f 44/34/2 41/4/2 35/3/2
f 41/4/2 44/34/2 48/35/2
f 34/2/2 37/36/2 35/3/2
f 37/36/2 34/2/2 48/35/2
f 35/3/2 40/33/2 44/34/2
f 40/33/2 35/3/2 37/36/2
f 46/37/5 45/38/5 33/40/5
f 34/39/5 33/40/5 45/38/5
f 43/33/1 42/3/1 46/2/1
f 42/3/1 43/33/1 36/4/1
f 47/36/1 46/2/1 33/1/1
f 46/2/1 47/36/1 43/33/1
f 36/4/1 39/34/1 33/1/1
f 39/34/1 36/4/1 43/33/1
f 33/1/1 38/35/1 47/36/1
f 38/35/1 33/1/1 39/34/1
f 48/41/3 47/42/3 37/44/3
f 38/43/3 37/44/3 47/42/3
f 52/48/1 49/45/1 50/46/1
f 50/46/1 51/47/1 52/48/1
f 55/48/2 56/45/2 53/46/2
f 53/46/2 54/47/2 55/48/2
f 50/49/3 49/50/3 53/51/3
f 53/51/3 56/52/3 50/49/3
f 51/53/4 50/54/4 56/55/4
f 56/55/4 55/56/4 51/53/4
f 52/57/5 51/58/5 55/59/5
f 55/59/5 54/60/5 52/57/5
f 49/55/6 52/56/6 54/53/6
f 54/53/6 53/54/6 49/55/6
f 57/61/1 60/65/1 61/66/1
f 60/65/1 57/61/1 63/68/1
f 14/64/1 61/66/1 62/67/1
f 61/66/1 14/64/1 57/61/1
f 63/68/1 58/62/1 62/67/1
f 58/62/1 63/68/1 57/61/1
f 62/67/1 59/63/1 14/64/1
f 59/63/1 62/67/1 58/62/1
f 66/61/2 68/65/2 69/66/2
f 68/65/2 66/61/2 64/62/2
f 48/64/2 69/66/2 70/67/2
f 69/66/2 48/64/2 66/61/2
f 67/68/2 64/62/2 70/67/2
f 64/62/2 67/68/2 68/65/2
f 70/67/2 65/63/2 48/64/2
f 65/63/2 70/67/2 64/62/2
f 58/69/3 57/70/3 64/71/3
f 64/71/3 66/72/3 58/69/3
f 59/73/4 58/74/4 66/75/4
f 66/75/4 48/76/4 59/73/4
f 14/77/5 59/78/5 48/79/5
f 48/79/5 65/80/5 14/77/5
f 57/75/6 14/76/6 65/73/6
f 65/73/6 64/74/6 57/75/6
f 61/53/4 60/54/4 67/55/4
f 67/55/4 70/56/4 61/53/4
f 62/81/3 61/82/3 70/83/3
f 70/83/3 69/84/3 62/81/3
f 63/55/6 62/56/6 69/53/6
f 69/53/6 68/54/6 63/55/6
f 60/85/5 63/86/5 68/87/5
f 68/87/5 67/88/5 60/85/5
