## ElementId 268666
## Vertice Count:8
## Triangle Count:12
mtllib 268666.mtl
o 268666

v -9.9564 5.3 12.7011
v -9.9564 5.3 10.9011
v -9.9564 8.5 10.9011
v -9.9564 8.5 12.7011
v -10.0764 5.3 12.7011
v -10.0764 8.5 12.7011
v -10.0764 8.5 10.9011
v -10.0764 5.3 10.9011
vt 0.1 0
vt 1.9 0
vt 1.9 3.2
vt 0.1 3.2
vt -0.1 0
vt -0.1 3.2
vt -1.9 3.2
vt -1.9 0
vt 1.9 0.06
vt 0.1 0.06
vt 0.1 -0.06
vt 1.9 -0.06
vt 0.06 0
vt 0.06 3.2
vt -0.06 3.2
vt -0.06 0
vn 0.3048 0 0
vn -0.3048 0 0
vn 0 -0.3048 0
vn 0 0.3048 0
vn 0 0 0.3048
vn 0 0 -0.3048

usemtl 197629
f 4/4/1 1/1/1 3/3/1
f 2/2/1 3/3/1 1/1/1

usemtl 90484
f 7/7/2 8/8/2 6/6/2
f 5/5/2 6/6/2 8/8/2

usemtl 31
f 2/9/3 1/10/3 8/12/3
f 5/11/3 8/12/3 1/10/3
f 4/11/4 3/12/4 7/9/4
f 7/9/4 6/10/4 4/11/4
f 5/16/5 1/13/5 4/14/5
f 4/14/5 6/15/5 5/16/5
f 2/16/6 8/13/6 7/14/6
f 7/14/6 3/15/6 2/16/6
