## ElementId 268628
## Vertice Count:8
## Triangle Count:12
mtllib 268628.mtl
o 268628

v -12.3164 11.82 11.7011
v -12.3164 11.82 11.5011
v -12.3164 12.05 11.5011
v -12.3164 12.05 11.7011
v -12.5164 11.82 11.7011
v -12.5164 12.05 11.7011
v -12.5164 12.05 11.5011
v -12.5164 11.82 11.5011
vt 0 0.12
vt 0.2 0.12
vt 0.2 0.35
vt 0 0.35
vt -0.2 0.35
vt -0.2 0.12
vt 0.2 0.1
vt 0 0.1
vt 0 -0.1
vt 0.2 -0.1
vt -0.1 0.35
vt -0.1 0.12
vt 0.1 0.12
vt 0.1 0.35
vn 0.3048 0 0
vn -0.3048 0 0
vn 0 -0.3048 0
vn 0 0 -0.3048
vn 0 0.3048 0
vn 0 0 0.3048

usemtl 54872
f 4/4/1 1/1/1 3/3/1
f 2/2/1 3/3/1 1/1/1
f 7/5/2 8/6/2 6/4/2
f 5/1/2 6/4/2 8/6/2
f 2/7/3 1/8/3 5/9/3
f 5/9/3 8/10/3 2/7/3
f 3/11/4 2/12/4 8/13/4
f 8/13/4 7/14/4 3/11/4
f 4/9/5 3/10/5 7/7/5
f 7/7/5 6/8/5 4/9/5
f 1/13/6 4/14/6 6/11/6
f 6/11/6 5/12/6 1/13/6
