## ElementId 268667
## Vertice Count:36
## Triangle Count:68
mtllib 268667.mtl
o 268667

v -11.7924 7.476 10.9261
v -11.7924 5.3 10.9261
v -11.7164 5.3 10.9261
v -11.7164 7.4 10.9261
v -10.9164 7.4 10.9261
v -10.9164 5.3 10.9261
v -10.8404 5.3 10.9261
v -10.8404 7.476 10.9261
v -11.7924 7.476 10.9011
v -10.8404 7.476 10.9011
v -10.8404 5.3 10.9011
v -10.9164 5.3 10.9011
v -10.9164 7.4 10.9011
v -11.7164 7.4 10.9011
v -11.7164 5.3 10.9011
v -11.7924 5.3 10.9011
v -10.8404 7.476 10.6761
v -10.8404 5.3 10.6761
v -10.9164 5.3 10.6761
v -10.9164 7.4 10.6761
v -11.7164 7.4 10.6761
v -11.7164 5.3 10.6761
v -11.7924 5.3 10.6761
v -11.7924 7.476 10.6761
v -10.8404 7.476 10.7011
v -11.7924 7.476 10.7011
v -11.7924 5.3 10.7011
v -11.7164 5.3 10.7011
v -11.7164 7.4 10.7011
v -10.9164 7.4 10.7011
v -10.9164 5.3 10.7011
v -10.8404 5.3 10.7011
v -10.9164 7.4 10.8501
v -10.9164 5.3 10.8501
v -11.7164 5.3 10.8501
v -11.7164 7.4 10.8501
vt -1.048 2.176
vt -1.048 0
vt -1.124 0
vt -1.124 2.1
vt -1.924 2.1
vt -1.924 0
vt -2 0
vt -2 2.176
vt 1.048 2.176
vt 2 2.176
vt 2 0
vt 1.924 0
vt 1.924 2.1
vt 1.124 2.1
vt 1.124 0
vt 1.048 0
vt -2.6096 -0.025
vt -2.6096 0
vt -1.6576 0
vt -1.6576 -0.025
vt 0.025 0
vt 0 0
vt 0 2.176
vt 0.025 2.176
vt 2.5336 -0.025
vt 2.5336 0
vt 2.6096 0
vt 2.6096 -0.025
vt -0.025 2.1
vt 0 2.1
vt -0.025 0
vt 1.7336 -0.025
vt 1.7336 0
vt 0.025 2.1
vt 1.6576 -0.025
vt 1.6576 0
vt -0.025 2.176
vt -0.4384 0.025
vt -0.4384 0
vt -1.3904 0
vt -1.3904 0.025
vt 0.5144 0.025
vt 0.5144 0
vt 0.4384 0
vt 0.4384 0.025
vt 1.3144 0.025
vt 1.3144 0
vt 1.3904 0.025
vt 1.3904 0
vt 0.4 2.1
vt 0.4 0
vt -0.4 0
vt -0.4 2.1
vt 1.0096 -0.049
vt 1.0096 -0.1
vt 0.2096 -0.1
vt 0.2096 -0.049
vt -0.049 0
vt -0.1 0
vt -0.1 2.1
vt -0.049 2.1
vt -0.2096 -0.049
vt -0.2096 -0.1
vt -1.0096 -0.1
vt -1.0096 -0.049
vt 0.049 2.1
vt 0.1 2.1
vt 0.1 0
vt 0.049 0
vn 0 0 0.3048
vn 0 0 -0.3048
vn 0 0.3048 0
vn 0.3048 0 0
vn 0 -0.3048 0
vn -0.3048 0 0

usemtl 50632
f 2/2/1 4/4/1 1/1/1
f 5/5/1 1/1/1 4/4/1
f 4/4/1 2/2/1 3/3/1
f 7/7/1 8/8/1 5/5/1
f 1/1/1 5/5/1 8/8/1
f 5/5/1 6/6/1 7/7/1
f 11/11/2 13/13/2 10/10/2
f 14/14/2 10/10/2 13/13/2
f 13/13/2 11/11/2 12/12/2
f 16/16/2 9/9/2 14/14/2
f 10/10/2 14/14/2 9/9/2
f 14/14/2 15/15/2 16/16/2
f 9/19/3 1/20/3 8/17/3
f 8/17/3 10/18/3 9/19/3
f 10/23/4 8/24/4 7/21/4
f 7/21/4 11/22/4 10/23/4
f 12/26/5 7/28/5 6/25/5
f 7/28/5 12/26/5 11/27/5
f 12/22/6 6/31/6 5/29/6
f 5/29/6 13/30/6 12/22/6
f 13/26/5 5/25/5 4/32/5
f 4/32/5 14/33/5 13/26/5
f 14/30/4 4/34/4 3/21/4
f 3/21/4 15/22/4 14/30/4
f 16/36/5 3/32/5 2/35/5
f 3/32/5 16/36/5 15/33/5
f 16/22/6 2/31/6 1/37/6
f 1/37/6 9/23/6 16/22/6
f 18/11/2 20/13/2 17/10/2
f 21/14/2 17/10/2 20/13/2
f 20/13/2 18/11/2 19/12/2
f 23/16/2 24/9/2 21/14/2
f 17/10/2 21/14/2 24/9/2
f 21/14/2 22/15/2 23/16/2
f 27/2/1 29/4/1 26/1/1
f 30/5/1 26/1/1 29/4/1
f 29/4/1 27/2/1 28/3/1
f 32/7/1 25/8/1 30/5/1
f 26/1/1 30/5/1 25/8/1
f 30/5/1 31/6/1 32/7/1
f 25/40/3 17/41/3 24/38/3
f 24/38/3 26/39/3 25/40/3
f 26/23/6 24/24/6 23/21/6
f 23/21/6 27/22/6 26/23/6
f 28/43/5 23/45/5 22/42/5
f 23/45/5 28/43/5 27/44/5
f 28/22/4 22/31/4 21/29/4
f 21/29/4 29/30/4 28/22/4
f 29/43/5 21/42/5 20/46/5
f 20/46/5 30/47/5 29/43/5
f 30/30/6 20/34/6 19/21/6
f 19/21/6 31/22/6 30/30/6
f 32/49/5 19/46/5 18/48/5
f 19/46/5 32/49/5 31/47/5
f 32/22/4 18/31/4 17/37/4
f 17/37/4 25/23/4 32/22/4

usemtl 50633
f 36/53/2 33/50/2 34/51/2
f 34/51/2 35/52/2 36/53/2
f 13/53/1 14/50/1 15/51/1
f 15/51/1 12/52/1 13/53/1
f 13/56/3 33/57/3 36/54/3
f 36/54/3 14/55/3 13/56/3
f 14/60/6 36/61/6 35/58/6
f 35/58/6 15/59/6 14/60/6
f 15/64/5 35/65/5 34/62/5
f 34/62/5 12/63/5 15/64/5
f 12/68/4 34/69/4 33/66/4
f 33/66/4 13/67/4 12/68/4
