## ElementId 268670
## Vertice Count:70
## Triangle Count:132
mtllib 268670.mtl
o 268670

v -3.1664 10.65 4.4211
v -3.5414 10.65 4.4211
v -3.5414 9.55 4.4211
v -3.1664 9.55 4.4211
v -3.1664 10.65 4.4111
v -3.1664 9.55 4.4111
v -3.5414 9.55 4.4111
v -3.5414 10.65 4.4111
v -3.1664 10.65 4.4311
v -3.1664 10.65 4.4011
v -3.1664 9.55 4.4011
v -3.1664 9.55 4.4311
v -3.1164 10.7 4.4011
v -3.1164 10.7 4.4311
v -3.1164 9.5 4.4311
v -3.1164 9.5 4.4011
v -3.5414 9.55 4.4011
v -3.5414 9.55 4.4311
v -3.5914 9.5 4.4311
v -3.5914 9.5 4.4011
v -3.5414 10.65 4.4011
v -3.5414 10.65 4.4311
v -3.5914 10.7 4.4311
v -3.5914 10.7 4.4011
v -3.5914 10.65 4.3911
v -3.9664 10.65 4.3911
v -3.9664 9.55 4.3911
v -3.5914 9.55 4.3911
v -3.5914 10.65 4.3811
v -3.5914 9.55 4.3811
v -3.9664 9.55 4.3811
v -3.9664 10.65 4.3811
v -3.5914 10.65 4.4011
v -3.5914 10.65 4.3711
v -3.5914 9.55 4.3711
v -3.5914 9.55 4.4011
v -3.5414 10.7 4.3711
v -3.5414 10.7 4.4011
v -3.5414 9.5 4.4011
v -3.5414 9.5 4.3711
v -3.9664 9.55 4.3711
v -3.9664 9.55 4.4011
v -4.0164 9.5 4.4011
v -4.0164 9.5 4.3711
v -3.9664 10.65 4.3711
v -3.9664 10.65 4.4011
v -4.0164 10.7 4.4011
v -4.0164 10.7 4.3711
v -3.1164 11.3 4.4311
v -4.0164 11.3 4.4311
v -4.0164 10.7 4.4311
v -3.1664 11.25 4.4311
v -3.1664 10.75 4.4311
v -3.9664 10.75 4.4311
v -3.9664 11.25 4.4311
v -3.1164 11.3 4.3711
v -3.1164 10.7 4.3711
v -4.0164 11.3 4.3711
v -3.1664 11.25 4.3711
v -3.9664 11.25 4.3711
v -3.9664 10.75 4.3711
v -3.1664 10.75 4.3711
v -3.9664 11.25 4.4061
v -3.9664 10.75 4.4061
v -3.1664 10.75 4.4061
v -3.1664 11.25 4.4061
v -3.9664 11.25 4.3961
v -3.1664 11.25 4.3961
v -3.1664 10.75 4.3961
v -3.9664 10.75 4.3961
vt 0.1875 1.15
vt -0.1875 1.15
vt -0.1875 0.05
vt 0.1875 0.05
vt 0.7971 0.005
vt 0.4221 0.005
vt 0.4221 -0.005
vt 0.7971 -0.005
vt 0.005 0.05
vt 0.005 1.15
vt -0.005 1.15
vt -0.005 0.05
vt -0.4221 0.005
vt -0.7971 0.005
vt -0.7971 -0.005
vt -0.4221 -0.005
vt 0.015 1.15
vt -0.015 1.15
vt -0.015 0.05
vt 0.015 0.05
vt 0.015 1.2
vt -0.015 1.2
vt -0.015 0
vt 0.015 0
vt 0.4221 0.015
vt 0.4221 -0.015
vt 0.7971 -0.015
vt 0.7971 0.015
vt -0.3721 -0.015
vt -0.3721 0.015
vt -0.8471 0.015
vt -0.8471 -0.015
vt -0.2375 0
vt 0.2375 0
vt 0.2375 1.2
vt -0.2375 1.2
vt -0.7971 0.015
vt -0.7971 -0.015
vt -0.4221 -0.015
vt -0.4221 0.015
vt 0.8471 -0.015
vt 0.8471 0.015
vt 0.3721 0.015
vt 0.3721 -0.015
vt 0.45 2.8
vt -0.45 2.8
vt -0.45 2.2
vt 0.45 2.2
vt 0.4 2.75
vt 0.4 2.25
vt -0.4 2.25
vt -0.4 2.75
vt 1.0596 0.03
vt 0.1596 0.03
vt 0.1596 -0.03
vt 1.0596 -0.03
vt 0.03 2.2
vt 0.03 2.8
vt -0.03 2.8
vt -0.03 2.2
vt -0.1596 0.03
vt -1.0596 0.03
vt -1.0596 -0.03
vt -0.1596 -0.03
vt 0.03 2.25
vt 0.03 2.75
vt -0.03 2.75
vt -0.03 2.25
vt 1.0096 0.03
vt 0.2096 0.03
vt 0.2096 -0.03
vt 1.0096 -0.03
vt -0.2096 0.03
vt -1.0096 0.03
vt -1.0096 -0.03
vt -0.2096 -0.03
vt 0.005 2.25
vt 0.005 2.75
vt -0.005 2.75
vt -0.005 2.25
vt -0.2096 0.005
vt -1.0096 0.005
vt -1.0096 -0.005
vt -0.2096 -0.005
vt 1.0096 0.005
vt 0.2096 0.005
vt 0.2096 -0.005
vt 1.0096 -0.005
vn 0 0 0.3048
vn 0 0 -0.3048
vn 0 0.3048 0
vn -0.3048 0 0
vn 0 -0.3048 0
vn 0.3048 0 0

usemtl 33
f 4/4/1 1/1/1 2/2/1
f 2/2/1 3/3/1 4/4/1
f 7/4/2 8/1/2 5/2/2
f 5/2/2 6/3/2 7/4/2
f 2/5/3 1/6/3 5/7/3
f 5/7/3 8/8/3 2/5/3
f 3/9/4 2/10/4 8/11/4
f 8/11/4 7/12/4 3/9/4
f 4/13/5 3/14/5 7/15/5
f 7/15/5 6/16/5 4/13/5
f 1/11/6 4/12/6 6/9/6
f 6/9/6 5/10/6 1/11/6
f 28/4/1 25/1/1 26/2/1
f 26/2/1 27/3/1 28/4/1
f 31/4/2 32/1/2 29/2/2
f 29/2/2 30/3/2 31/4/2
f 26/5/3 25/6/3 29/7/3
f 29/7/3 32/8/3 26/5/3
f 27/9/4 26/10/4 32/11/4
f 32/11/4 31/12/4 27/9/4
f 28/13/5 27/14/5 31/15/5
f 31/15/5 30/16/5 28/13/5
f 25/11/6 28/12/6 30/9/6
f 30/9/6 29/10/6 25/11/6
f 66/49/1 63/52/1 65/50/1
f 64/51/1 65/50/1 63/52/1
f 69/51/2 70/50/2 67/49/2
f 67/49/2 68/52/2 69/51/2
f 64/77/4 63/78/4 67/79/4
f 67/79/4 70/80/4 64/77/4
f 65/81/5 64/82/5 70/83/5
f 70/83/5 69/84/5 65/81/5
f 66/79/6 65/80/6 69/77/6
f 69/77/6 68/78/6 66/79/6
f 63/85/3 66/86/3 68/87/3
f 68/87/3 67/88/3 63/85/3

usemtl 274500
f 9/17/4 10/18/4 12/20/4
f 11/19/4 12/20/4 10/18/4
f 13/21/6 14/22/6 16/24/6
f 15/23/6 16/24/6 14/22/6
f 12/25/3 11/26/3 18/28/3
f 17/27/3 18/28/3 11/26/3
f 16/29/5 15/30/5 20/32/5
f 19/31/5 20/32/5 15/30/5
f 18/19/6 17/20/6 22/18/6
f 21/17/6 22/18/6 17/20/6
f 20/23/4 19/24/4 24/22/4
f 23/21/4 24/22/4 19/24/4
f 24/35/2 21/1/2 17/4/2
f 21/1/2 24/35/2 10/2/2
f 20/34/2 17/4/2 11/3/2
f 17/4/2 20/34/2 24/35/2
f 10/2/2 13/36/2 11/3/2
f 13/36/2 10/2/2 24/35/2
f 11/3/2 16/33/2 20/34/2
f 16/33/2 11/3/2 13/36/2
f 22/37/5 21/38/5 9/40/5
f 10/39/5 9/40/5 21/38/5
f 19/33/1 18/3/1 22/2/1
f 18/3/1 19/33/1 12/4/1
f 23/36/1 22/2/1 9/1/1
f 22/2/1 23/36/1 19/33/1
f 12/4/1 15/34/1 9/1/1
f 15/34/1 12/4/1 19/33/1
f 9/1/1 14/35/1 23/36/1
f 14/35/1 9/1/1 15/34/1
f 24/41/3 23/42/3 13/44/3
f 14/43/3 13/44/3 23/42/3
f 33/17/4 34/18/4 36/20/4
f 35/19/4 36/20/4 34/18/4
f 37/21/6 38/22/6 40/24/6
f 39/23/6 40/24/6 38/22/6
f 36/25/3 35/26/3 42/28/3
f 41/27/3 42/28/3 35/26/3
f 40/29/5 39/30/5 44/32/5
f 43/31/5 44/32/5 39/30/5
f 42/19/6 41/20/6 46/18/6
f 45/17/6 46/18/6 41/20/6
f 44/23/4 43/24/4 48/22/4
f 47/21/4 48/22/4 43/24/4
f 48/35/2 45/1/2 41/4/2
f 45/1/2 48/35/2 34/2/2
f 44/34/2 41/4/2 35/3/2
f 41/4/2 44/34/2 48/35/2
f 34/2/2 37/36/2 35/3/2
f 37/36/2 34/2/2 48/35/2
f 35/3/2 40/33/2 44/34/2
f 40/33/2 35/3/2 37/36/2
f 46/37/5 45/38/5 33/40/5
f 34/39/5 33/40/5 45/38/5
f 43/33/1 42/3/1 46/2/1
f 42/3/1 43/33/1 36/4/1
f 47/36/1 46/2/1 33/1/1
f 46/2/1 47/36/1 43/33/1
f 36/4/1 39/34/1 33/1/1
f 39/34/1 36/4/1 43/33/1
f 33/1/1 38/35/1 47/36/1
f 38/35/1 33/1/1 39/34/1
f 48/41/3 47/42/3 37/44/3
f 38/43/3 37/44/3 47/42/3
f 49/45/1 52/49/1 53/50/1
f 52/49/1 49/45/1 55/52/1
f 14/48/1 53/50/1 54/51/1
f 53/50/1 14/48/1 49/45/1
f 55/52/1 50/46/1 54/51/1
f 50/46/1 55/52/1 49/45/1
f 54/51/1 51/47/1 14/48/1
f 51/47/1 54/51/1 50/46/1
f 58/45/2 60/49/2 61/50/2
f 60/49/2 58/45/2 59/52/2
f 48/48/2 61/50/2 62/51/2
f 61/50/2 48/48/2 58/45/2
f 59/52/2 56/46/2 62/51/2
f 56/46/2 59/52/2 58/45/2
f 62/51/2 57/47/2 48/48/2
f 57/47/2 62/51/2 56/46/2
f 50/53/3 49/54/3 56/55/3
f 56/55/3 58/56/3 50/53/3
f 51/57/4 50/58/4 58/59/4
f 58/59/4 48/60/4 51/57/4
f 14/61/5 51/62/5 57/64/5
f 48/63/5 57/64/5 51/62/5
f 49/59/6 14/60/6 57/57/6
f 57/57/6 56/58/6 49/59/6
f 53/65/4 52/66/4 62/68/4
f 59/67/4 62/68/4 52/66/4
f 54/69/3 53/70/3 62/71/3
f 62/71/3 61/72/3 54/69/3
f 55/67/6 54/68/6 60/66/6
f 61/65/6 60/66/6 54/68/6
f 52/73/5 55/74/5 60/75/5
f 60/75/5 59/76/5 52/73/5
