## ElementId 268775
## Vertice Count:9
## Triangle Count:14
mtllib 268775.mtl
o 268775

v -8.1164 14.5869 4.5011
v -8.1164 11.7 4.5011
v -8.1164 11.7 8.0711
v -8.1164 14.4 8.0711
v -8.1164 15.9217 8.0711
v -7.9164 11.7 4.5011
v -7.9164 14.5869 4.5011
v -7.9164 15.9217 8.0711
v -7.9164 11.7 8.0711
vt 0.1 2.8869
vt 0.1 0
vt 3.67 0
vt 3.67 2.7
vt 3.67 4.2217
vt -0.1 0
vt -0.1 2.8869
vt -3.67 4.2217
vt -3.67 0
vt 3.67 0.1
vt 0.1 0.1
vt 0.1 -0.1
vt 3.67 -0.1
vt -0.1 4.2217
vt -0.1 2.7
vt 0.1 4.2217
vt 1.1047 -0.1
vt 4.9161 -0.1
vt 4.9161 0.1
vt 1.1047 0.1
vn -0.3048 0 0
vn 0.3048 0 0
vn 0 -0.3048 0
vn 0 0 -0.3048
vn 0 0 0.3048
vn 0 0.2855 -0.1067

usemtl 90484
f 1/1/1 2/2/1 4/4/1
f 3/3/1 4/4/1 2/2/1
f 4/4/1 5/5/1 1/1/1
f 8/8/2 9/9/2 7/7/2
f 6/6/2 7/7/2 9/9/2
f 3/10/3 2/11/3 9/13/3
f 6/12/3 9/13/3 2/11/3
f 6/6/4 2/2/4 1/1/4
f 1/1/4 7/7/4 6/6/4
f 4/15/5 9/2/5 8/16/5
f 9/2/5 4/15/5 3/6/5
f 8/16/5 5/14/5 4/15/5
f 8/19/6 7/20/6 1/17/6
f 1/17/6 5/18/6 8/19/6
