## ElementId 268758
## Vertice Count:14
## Triangle Count:24
mtllib 268758.mtl
o 268758

v -7.9164 8.5 12.7011
v -9.9564 8.5 12.7011
v -10.0764 8.5 12.7011
v -12.3164 8.5 12.7011
v -12.3164 11.7 12.7011
v -10.0764 11.7 12.7011
v -9.9564 11.7 12.7011
v -7.9164 11.7 12.7011
v -12.3164 8.5 12.9011
v -8.1164 8.5 12.9011
v -7.9164 8.5 12.9011
v -7.9164 11.7 12.9011
v -8.1164 11.7 12.9011
v -12.3164 11.7 12.9011
vt -0.1 0
vt 1.94 0
vt 2.06 0
vt 4.3 0
vt 4.3 3.2
vt 2.06 3.2
vt 1.94 3.2
vt -0.1 3.2
vt -4.3 0
vt 0.1 0
vt 0.1 3.2
vt -4.3 3.2
vt 4.3 0.1
vt 2.06 0.1
vt 1.94 0.1
vt -0.1 0.1
vt -0.1 -0.1
vt 0.1 -0.1
vt 4.3 -0.1
vt 1.94 -0.1
vt 2.06 -0.1
vt 0.1 0.1
vt 3.5 0
vt 3.5 3.2
vt 3.3 3.2
vt 3.3 0
vn 0 0 -0.3048
vn 0 0 0.3048
vn 0 -0.3048 0
vn 0 0.3048 0
vn -0.3048 0 0
vn 0.3048 0 0

usemtl 31
f 1/1/1 2/2/1 8/8/1
f 7/7/1 8/8/1 2/2/1
f 2/2/1 3/3/1 7/7/1
f 3/3/1 4/4/1 5/5/1
f 5/5/1 6/6/1 3/3/1
f 3/3/1 6/6/1 7/7/1
f 2/15/3 1/16/3 10/18/3
f 10/18/3 3/14/3 2/15/3
f 3/14/3 9/19/3 4/13/3
f 9/19/3 3/14/3 10/18/3
f 10/18/3 1/16/3 11/17/3
f 8/17/4 7/20/4 13/22/4
f 6/21/4 14/13/4 13/22/4
f 14/13/4 6/21/4 5/19/4
f 12/16/4 8/17/4 13/22/4
f 13/22/4 7/20/4 6/21/4
f 4/1/5 9/10/5 14/11/5
f 14/11/5 5/8/5 4/1/5

usemtl 197629
f 14/12/2 9/9/2 10/1/2
f 14/12/2 10/1/2 13/8/2
f 13/8/2 11/10/2 12/11/2
f 11/10/2 13/8/2 10/1/2

usemtl 90484
f 12/25/6 11/26/6 1/23/6
f 1/23/6 8/24/6 12/25/6
