## ElementId 268817
## Vertice Count:12
## Triangle Count:20
mtllib 268817.mtl
o 268817

v -8.1164 14.3 8.2711
v -8.1164 14.3 10.7011
v -8.1164 14.4 10.7011
v -8.1164 16.2694 10.7011
v -8.1164 16.5872 9.8511
v -8.1164 15.9965 8.2711
v -8.1164 14.4 8.2711
v -7.9164 14.3 8.2711
v -7.9164 15.9965 8.2711
v -7.9164 16.5872 9.8511
v -7.9164 16.2694 10.7011
v -7.9164 14.3 10.7011
vt 0.1 2.6
vt 2.53 2.6
vt 2.53 2.7
vt 2.53 4.5694
vt 1.68 4.8872
vt 0.1 4.2965
vt 0.1 2.7
vt -0.1 2.6
vt -0.1 4.2965
vt -1.68 4.8872
vt -2.53 4.5694
vt -2.53 2.6
vt 2.53 0.1
vt 0.1 0.1
vt 0.1 -0.1
vt 2.53 -0.1
vt -0.1 4.5694
vt -0.1 2.7
vt 0.1 4.5694
vt 1.5983 -0.1
vt 3.2852 -0.1
vt 3.2852 0.1
vt 1.5983 0.1
vt -0.1379 -0.1
vt 0.7695 -0.1
vt 0.7695 0.1
vt -0.1379 0.1
vn -0.3048 0 0
vn 0.3048 0 0
vn 0 -0.3048 0
vn 0 0 -0.3048
vn 0 0 0.3048
vn 0 0.2855 -0.1067
vn 0 0.2855 0.1067

usemtl 90484
f 7/7/1 1/1/1 3/3/1
f 6/6/1 7/7/1 5/5/1
f 3/3/1 5/5/1 7/7/1
f 4/4/1 5/5/1 3/3/1
f 3/3/1 1/1/1 2/2/1
f 11/11/2 12/12/2 10/10/2
f 12/12/2 9/9/2 10/10/2
f 9/9/2 12/12/2 8/8/2
f 2/13/3 1/14/3 12/16/3
f 8/15/3 12/16/3 1/14/3
f 9/9/4 8/8/4 7/7/4
f 1/1/4 7/7/4 8/8/4
f 6/6/4 9/9/4 7/7/4
f 3/18/5 12/1/5 11/19/5
f 12/1/5 3/18/5 2/8/5
f 11/19/5 4/17/5 3/18/5
f 10/22/6 9/23/6 6/20/6
f 6/20/6 5/21/6 10/22/6
f 5/24/7 4/25/7 11/26/7
f 11/26/7 10/27/7 5/24/7
