## ElementId 276824
## Vertice Count:36
## Triangle Count:60
mtllib 276824.mtl
o 276824

v -2.2164 13.4645 14.4011
v -2.8164 13.4645 14.4011
v -2.8164 13.4645 16.8911
v -2.2164 13.4645 16.8911
v -2.2164 13.3745 14.4011
v -2.2164 13.3745 16.8911
v -2.8164 13.3745 16.8911
v -2.8164 13.3745 14.4011
v -2.4564 13.6545 14.4011
v -2.5764 13.6545 14.4011
v -2.5764 13.6545 16.6511
v -2.4564 13.6545 16.6511
v -2.3064 13.3745 14.4011
v -2.7264 13.3745 14.4011
v -2.7264 13.3745 16.8011
v -2.3064 13.3745 16.8011
v -2.3064 13.2545 14.4011
v -2.3064 13.2545 16.8011
v -2.7264 13.2545 16.8011
v -2.7264 13.2545 14.4011
v -2.3364 13.2545 14.4011
v -2.6964 13.2545 14.4011
v -2.6964 13.2545 16.7711
v -2.3364 13.2545 16.7711
v -2.3364 13.1345 14.4011
v -2.3364 13.1345 16.7711
v -2.6964 13.1345 16.7711
v -2.6964 13.1345 14.4011
v -2.3664 13.1345 14.4011
v -2.6664 13.1345 14.4011
v -2.6664 13.1345 16.7411
v -2.3664 13.1345 16.7411
v -2.3664 13.0145 14.4011
v -2.3664 13.0145 16.7411
v -2.6664 13.0145 16.7411
v -2.6664 13.0145 14.4011
vt -0.3 0
vt 0.3 0
vt 0.3 2.49
vt -0.3 2.49
vt -0.3 -2.49
vt 0.3 -2.49
vt -0.3096 0.09
vt -0.9096 0.09
vt -0.9096 0
vt -0.3096 0
vt 2.49 0.09
vt 0 0.09
vt 0 0
vt 2.49 0
vt 0.9096 0.09
vt 0.3096 0.09
vt 0.3096 0
vt 0.9096 0
vt -2.49 0.09
vt -2.49 0
vt -0.06 0
vt 0.06 0
vt 0.06 2.25
vt -0.06 2.25
vt -0.5496 0.28
vt -0.6696 0.28
vt 0.1794 0
vt 0.1794 2.49
vt -0.1268 2.25
vt -0.1268 0
vt 0.3 1.8964
vt -0.3 1.8964
vt -0.06 1.5903
vt 0.06 1.5903
vt -0.1794 2.49
vt -0.1794 0
vt 0.1268 0
vt 0.1268 2.25
vt -0.21 0
vt 0.21 0
vt 0.21 2.4
vt -0.21 2.4
vt -0.21 -2.4
vt 0.21 -2.4
vt -0.3996 0.12
vt -0.8196 0.12
vt -0.8196 0
vt -0.3996 0
vt 2.4 0.12
vt 0 0.12
vt 2.4 0
vt 0.8196 0.12
vt 0.3996 0.12
vt 0.3996 0
vt 0.8196 0
vt -2.4 0.12
vt -2.4 0
vt -0.18 0
vt 0.18 0
vt 0.18 2.37
vt -0.18 2.37
vt -0.18 -2.37
vt 0.18 -2.37
vt -0.4296 0.12
vt -0.7896 0.12
vt -0.7896 0
vt -0.4296 0
vt 2.37 0.12
vt 2.37 0
vt 0.7896 0.12
vt 0.4296 0.12
vt 0.4296 0
vt 0.7896 0
vt -2.37 0.12
vt -2.37 0
vt 0.15 0
vt -0.15 0
vt -0.15 -2.34
vt 0.15 -2.34
vt 0.15 2.34
vt -0.15 2.34
vt 0.7596 0.12
vt 0.4596 0.12
vt 0.4596 0
vt 0.7596 0
vt 2.34 0.12
vt 2.34 0
vt -0.4596 0.12
vt -0.7596 0.12
vt -0.7596 0
vt -0.4596 0
vt -2.34 0.12
vt -2.34 0
vn 0 0.3048 0
vn 0 -0.3048 0
vn 0 0 -0.3048
vn -0.3048 0 0
vn 0 0 0.3048
vn 0.3048 0 0
vn -0.1892 0.239 0
vn 0 0.239 0.1892
vn 0.1892 0.239 0

usemtl 90484
f 4/4/1 1/1/1 3/3/1
f 2/2/1 3/3/1 1/1/1
f 7/6/2 8/2/2 5/1/2
f 5/1/2 6/5/2 7/6/2
f 2/7/3 1/8/3 5/9/3
f 5/9/3 8/10/3 2/7/3
f 3/11/4 2/12/4 8/13/4
f 8/13/4 7/14/4 3/11/4
f 4/15/5 3/16/5 7/17/5
f 7/17/5 6/18/5 4/15/5
f 1/12/6 4/19/6 6/20/6
f 6/20/6 5/13/6 1/12/6
f 16/42/1 13/39/1 14/40/1
f 14/40/1 15/41/1 16/42/1
f 19/44/2 20/40/2 17/39/2
f 17/39/2 18/43/2 19/44/2
f 14/45/3 13/46/3 20/48/3
f 17/47/3 20/48/3 13/46/3
f 15/49/4 14/50/4 20/13/4
f 20/13/4 19/51/4 15/49/4
f 16/52/5 15/53/5 19/54/5
f 19/54/5 18/55/5 16/52/5
f 13/50/6 16/56/6 18/57/6
f 18/57/6 17/13/6 13/50/6
f 24/61/1 21/58/1 23/60/1
f 22/59/1 23/60/1 21/58/1
f 27/63/2 28/59/2 25/58/2
f 25/58/2 26/62/2 27/63/2
f 22/64/3 21/65/3 25/66/3
f 25/66/3 28/67/3 22/64/3
f 23/68/4 22/50/4 27/69/4
f 28/13/4 27/69/4 22/50/4
f 24/70/5 23/71/5 27/72/5
f 27/72/5 26/73/5 24/70/5
f 21/50/6 24/74/6 25/13/6
f 26/75/6 25/13/6 24/74/6
f 32/79/1 29/76/1 31/78/1
f 30/77/1 31/78/1 29/76/1
f 35/81/2 36/77/2 33/76/2
f 33/76/2 34/80/2 35/81/2
f 30/82/3 29/83/3 33/84/3
f 33/84/3 36/85/3 30/82/3
f 31/86/4 30/50/4 36/13/4
f 36/13/4 35/87/4 31/86/4
f 32/88/5 31/89/5 35/90/5
f 35/90/5 34/91/5 32/88/5
f 29/50/6 32/92/6 34/93/6
f 34/93/6 33/13/6 29/50/6

usemtl 191881
f 12/24/1 9/21/1 11/23/1
f 10/22/1 11/23/1 9/21/1
f 1/1/2 4/5/2 3/6/2
f 3/6/2 2/2/2 1/1/2
f 9/26/3 1/8/3 10/25/3
f 2/7/3 10/25/3 1/8/3
f 10/30/7 2/27/7 11/29/7
f 3/28/7 11/29/7 2/27/7
f 11/34/8 3/31/8 4/32/8
f 4/32/8 12/33/8 11/34/8
f 12/38/9 4/35/9 1/36/9
f 1/36/9 9/37/9 12/38/9
