## ElementId 277867
## Vertice Count:36
## Triangle Count:60
mtllib 277867.mtl
o 277867

v -2.2164 9.95 4.3011
v -2.2164 9.95 3.1711
v -2.8164 9.95 3.1711
v -2.8164 9.95 4.3011
v -2.2164 9.86 4.3011
v -2.8164 9.86 4.3011
v -2.8164 9.86 3.1711
v -2.2164 9.86 3.1711
v -2.4564 10.14 4.3011
v -2.4564 10.14 3.4111
v -2.5764 10.14 3.4111
v -2.5764 10.14 4.3011
v -2.3064 9.86 4.3011
v -2.3064 9.86 3.2611
v -2.7264 9.86 3.2611
v -2.7264 9.86 4.3011
v -2.3064 9.74 4.3011
v -2.7264 9.74 4.3011
v -2.7264 9.74 3.2611
v -2.3064 9.74 3.2611
v -2.3364 9.74 4.3011
v -2.3364 9.74 3.2911
v -2.6964 9.74 3.2911
v -2.6964 9.74 4.3011
v -2.3364 9.62 4.3011
v -2.6964 9.62 4.3011
v -2.6964 9.62 3.2911
v -2.3364 9.62 3.2911
v -2.3664 9.62 4.3011
v -2.3664 9.62 3.3211
v -2.6664 9.62 3.3211
v -2.6664 9.62 4.3011
v -2.3664 9.5 4.3011
v -2.6664 9.5 4.3011
v -2.6664 9.5 3.3211
v -2.3664 9.5 3.3211
vt -0.3 0
vt -0.3 1.13
vt 0.3 1.13
vt 0.3 0
vt 0.3 -1.13
vt -0.3 -1.13
vt -0.3096 0.09
vt -0.3096 0
vt -0.9096 0
vt -0.9096 0.09
vt 1.13 0.09
vt 1.13 0
vt 0 0
vt 0 0.09
vt 0.9096 0.09
vt 0.9096 0
vt 0.3096 0
vt 0.3096 0.09
vt -1.13 0
vt -1.13 0.09
vt -0.06 0
vt -0.06 0.89
vt 0.06 0.89
vt 0.06 0
vt -0.6696 0.28
vt -0.5496 0.28
vt 0.1794 0
vt -0.1268 0
vt -0.1268 0.89
vt 0.1794 1.13
vt 0.3 0.8301
vt 0.06 0.524
vt -0.06 0.524
vt -0.3 0.8301
vt -0.1794 1.13
vt 0.1268 0.89
vt 0.1268 0
vt -0.1794 0
vt -0.21 0
vt -0.21 1.04
vt 0.21 1.04
vt 0.21 0
vt 0.21 -1.04
vt -0.21 -1.04
vt -0.3996 0.12
vt -0.3996 0
vt -0.8196 0
vt -0.8196 0.12
vt 1.04 0.12
vt 1.04 0
vt 0 0.12
vt 0.8196 0.12
vt 0.8196 0
vt 0.3996 0
vt 0.3996 0.12
vt -1.04 0
vt -1.04 0.12
vt -0.18 0
vt -0.18 1.01
vt 0.18 1.01
vt 0.18 0
vt 0.18 -1.01
vt -0.18 -1.01
vt -0.4296 0.12
vt -0.4296 0
vt -0.7896 0
vt -0.7896 0.12
vt 1.01 0.12
vt 1.01 0
vt 0.7896 0.12
vt 0.7896 0
vt 0.4296 0
vt 0.4296 0.12
vt -1.01 0
vt -1.01 0.12
vt 0.15 0
vt 0.15 -0.98
vt -0.15 -0.98
vt -0.15 0
vt -0.15 0.98
vt 0.15 0.98
vt 0.7596 0.12
vt 0.7596 0
vt 0.4596 0
vt 0.4596 0.12
vt 0.98 0.12
vt 0.98 0
vt -0.4596 0.12
vt -0.4596 0
vt -0.7596 0
vt -0.7596 0.12
vt -0.98 0
vt -0.98 0.12
vn 0 0.3048 0
vn 0 -0.3048 0
vn 0 0 0.3048
vn -0.3048 0 0
vn 0 0 -0.3048
vn 0.3048 0 0
vn -0.1892 0.239 0
vn 0 0.239 -0.1892
vn 0.1892 0.239 0

usemtl 90484
f 3/3/1 1/1/1 2/2/1
f 1/1/1 3/3/1 4/4/1
f 5/1/2 6/4/2 7/5/2
f 7/5/2 8/6/2 5/1/2
f 5/9/3 1/10/3 4/7/3
f 4/7/3 6/8/3 5/9/3
f 7/12/4 4/14/4 3/11/4
f 4/14/4 7/12/4 6/13/4
f 7/17/5 3/18/5 2/15/5
f 2/15/5 8/16/5 7/17/5
f 5/13/6 2/20/6 1/14/6
f 2/20/6 5/13/6 8/19/6
f 15/41/1 13/39/1 14/40/1
f 13/39/1 15/41/1 16/42/1
f 17/39/2 18/42/2 19/43/2
f 19/43/2 20/44/2 17/39/2
f 18/46/3 13/48/3 16/45/3
f 13/48/3 18/46/3 17/47/3
f 18/13/4 16/51/4 15/49/4
f 15/49/4 19/50/4 18/13/4
f 19/54/5 15/55/5 14/52/5
f 14/52/5 20/53/5 19/54/5
f 20/56/6 14/57/6 13/51/6
f 13/51/6 17/13/6 20/56/6
f 23/60/1 21/58/1 22/59/1
f 21/58/1 23/60/1 24/61/1
f 25/58/2 26/61/2 27/62/2
f 27/62/2 28/63/2 25/58/2
f 25/66/3 21/67/3 24/64/3
f 24/64/3 26/65/3 25/66/3
f 27/69/4 24/51/4 23/68/4
f 24/51/4 27/69/4 26/13/4
f 27/72/5 23/73/5 22/70/5
f 22/70/5 28/71/5 27/72/5
f 25/13/6 22/75/6 21/51/6
f 22/75/6 25/13/6 28/74/6
f 31/78/1 29/76/1 30/77/1
f 29/76/1 31/78/1 32/79/1
f 33/76/2 34/79/2 35/80/2
f 35/80/2 36/81/2 33/76/2
f 33/84/3 29/85/3 32/82/3
f 32/82/3 34/83/3 33/84/3
f 34/13/4 32/51/4 31/86/4
f 31/86/4 35/87/4 34/13/4
f 35/90/5 31/91/5 30/88/5
f 30/88/5 36/89/5 35/90/5
f 36/92/6 30/93/6 29/51/6
f 29/51/6 33/13/6 36/92/6

usemtl 191881
f 11/23/1 9/21/1 10/22/1
f 9/21/1 11/23/1 12/24/1
f 3/5/2 2/6/2 1/1/2
f 1/1/2 4/4/2 3/5/2
f 12/26/3 1/10/3 9/25/3
f 1/10/3 12/26/3 4/7/3
f 11/29/7 4/27/7 12/28/7
f 4/27/7 11/29/7 3/30/7
f 2/34/8 3/31/8 11/32/8
f 11/32/8 10/33/8 2/34/8
f 1/38/9 2/35/9 10/36/9
f 10/36/9 9/37/9 1/38/9
