## ElementId 280334
## Vertice Count:8
## Triangle Count:12
mtllib 280334.mtl
o 280334

v -6.6164 11.4 8.2711
v -6.6164 11.4 10.7011
v -6.6164 11.6 10.7011
v -6.6164 11.6 8.2711
v -6.4164 11.4 8.2711
v -6.4164 11.6 8.2711
v -6.4164 11.6 10.7011
v -6.4164 11.4 10.7011
vt 0.1 -0.3
vt 2.53 -0.3
vt 2.53 -0.1
vt 0.1 -0.1
vt -0.1 -0.3
vt -0.1 -0.1
vt -2.53 -0.1
vt -2.53 -0.3
vt 2.53 0.1
vt 0.1 0.1
vn -0.3048 0 0
vn 0.3048 0 0
vn 0 -0.3048 0
vn 0 0.3048 0
vn 0 0 -0.3048
vn 0 0 0.3048

usemtl 54872
f 4/4/1 1/1/1 2/2/1
f 2/2/1 3/3/1 4/4/1
f 7/7/2 8/8/2 6/6/2
f 5/5/2 6/6/2 8/8/2
f 2/9/3 1/10/3 5/4/3
f 5/4/3 8/3/3 2/9/3
f 4/4/4 3/3/4 7/9/4
f 7/9/4 6/10/4 4/4/4
f 5/5/5 1/1/5 4/4/5
f 4/4/5 6/6/5 5/5/5
f 2/5/6 8/1/6 7/4/6
f 7/4/6 3/6/6 2/5/6
