## ElementId 300737
## Vertice Count:8
## Triangle Count:12
mtllib 300737.mtl
o 300737

v -4.0164 2.3 8.2711
v -4.0164 2.3 10.7011
v -4.0164 2.5 10.7011
v -4.0164 2.5 8.2711
v -3.8164 2.3 8.2711
v -3.8164 2.5 8.2711
v -3.8164 2.5 10.7011
v -3.8164 2.3 10.7011
vt 0.1 -0.3
vt 2.53 -0.3
vt 2.53 -0.1
vt 0.1 -0.1
vt -0.1 -0.3
vt -0.1 -0.1
vt -2.53 -0.1
vt -2.53 -0.3
vt 2.53 0.1
vt 0.1 0.1
vn -0.3048 0 0
vn 0.3048 0 0
vn 0 -0.3048 0
vn 0 0.3048 0
vn 0 0 0.3048
vn 0 0 -0.3048

usemtl 54872
f 4/4/1 1/1/1 3/3/1
f 2/2/1 3/3/1 1/1/1
f 7/7/2 8/8/2 6/6/2
f 5/5/2 6/6/2 8/8/2
f 2/9/3 1/10/3 8/3/3
f 5/4/3 8/3/3 1/10/3
f 4/4/4 3/3/4 6/10/4
f 7/9/4 6/10/4 3/3/4
f 2/5/5 8/1/5 7/4/5
f 7/4/5 3/6/5 2/5/5
f 5/5/6 1/1/6 4/4/6
f 4/4/6 6/6/6 5/5/6
