## ElementId 314928
## Vertice Count:10
## Triangle Count:16
mtllib 314928.mtl
o 314928

v -8.1164 0 9.7011
v -8.1164 0 10.7011
v -8.1164 0 10.9011
v -8.1164 0.95 10.9011
v -8.1164 0.95 10.7011
v -8.1164 0.95 9.7011
v -7.9164 0 9.7011
v -7.9164 0.95 9.7011
v -7.9164 0.95 10.9011
v -7.9164 0 10.9011
vt 0.1 0
vt 1.1 0
vt 1.3 0
vt 1.3 0.95
vt 1.1 0.95
vt 0.1 0.95
vt -0.1 0
vt -0.1 0.95
vt -1.3 0.95
vt -1.3 0
vt 1.3 0.1
vt 1.1 0.1
vt 0.1 0.1
vt 0.1 -0.1
vt 1.3 -0.1
vt 1.1 -0.1
vn -0.3048 0 0
vn 0.3048 0 0
vn 0 -0.3048 0
vn 0 0.3048 0
vn 0 0 0.3048
vn 0 0 -0.3048

usemtl 31
f 6/6/1 1/1/1 2/2/1
f 6/6/1 2/2/1 5/5/1
f 5/5/1 3/3/1 4/4/1
f 3/3/1 5/5/1 2/2/1
f 9/9/2 10/10/2 7/7/2
f 7/7/2 8/8/2 9/9/2
f 2/12/3 7/14/3 10/15/3
f 7/14/3 2/12/3 1/13/3
f 2/12/3 10/15/3 3/11/3
f 5/16/4 9/11/4 8/13/4
f 9/11/4 5/16/4 4/15/4
f 5/16/4 8/13/4 6/14/4
f 4/8/5 3/7/5 10/1/5
f 10/1/5 9/6/5 4/8/5
f 7/7/6 1/1/6 6/6/6
f 6/6/6 8/8/6 7/7/6
