## ElementId 314902
## Vertice Count:11
## Triangle Count:18
mtllib 314902.mtl
o 314902

v -7.6164 0 9.5011
v -8.1164 0 9.5011
v -8.1164 0.95 9.5011
v -7.8164 0.95 9.5011
v -7.6164 0.95 9.5011
v -7.6164 0 9.7011
v -7.6164 0.95 9.7011
v -7.9164 0.95 9.7011
v -8.1164 0.95 9.7011
v -8.1164 0 9.7011
v -7.9164 0 9.7011
vt -0.1 0
vt 0.4 0
vt 0.4 0.95
vt 0.1 0.95
vt -0.1 0.95
vt 0.1 0
vt -0.2 0.95
vt -0.4 0.95
vt -0.4 0
vt -0.2 0
vt 0.4 0.1
vt -0.1 0.1
vt -0.1 -0.1
vt 0.2 -0.1
vt 0.4 -0.1
vt 0.1 -0.1
vt 0.2 0.1
vt -1.33 0
vt -1.33 0.95
vt -1.53 0.95
vt -1.53 0
vn 0 0 -0.3048
vn 0 0 0.3048
vn 0 -0.3048 0
vn 0 0.3048 0
vn 0.3048 0 0
vn -0.3048 0 0

usemtl 31
f 5/5/1 1/1/1 4/4/1
f 4/4/1 2/2/1 3/3/1
f 2/2/1 4/4/1 1/1/1
f 8/7/2 9/8/2 11/10/2
f 11/10/2 9/8/2 10/9/2
f 11/10/2 6/6/2 7/4/2
f 11/10/2 7/4/2 8/7/2
f 2/11/3 1/12/3 11/14/3
f 6/13/3 11/14/3 1/12/3
f 11/14/3 10/15/3 2/11/3
f 4/16/4 3/15/4 8/17/4
f 5/13/4 4/16/4 7/12/4
f 9/11/4 8/17/4 3/15/4
f 8/17/4 7/12/4 4/16/4
f 7/20/5 6/21/5 1/18/5
f 1/18/5 5/19/5 7/20/5
f 3/5/6 2/1/6 10/6/6
f 10/6/6 9/4/6 3/5/6
