## ElementId 315206
## Vertice Count:10
## Triangle Count:16
mtllib 315206.mtl
o 315206

v 0.9436 0 9.5011
v -0.6164 0 9.5011
v -0.6164 0.95 9.5011
v 0.9436 0.95 9.5011
v 0.9436 0 9.7011
v 0.9436 0.95 9.7011
v -0.4164 0.95 9.7011
v -0.6164 0.95 9.7011
v -0.6164 0 9.7011
v -0.4164 0 9.7011
vt 0.1 0
vt 1.66 0
vt 1.66 0.95
vt 0.1 0.95
vt -0.1 0
vt -0.1 0.95
vt -1.46 0.95
vt -1.66 0.95
vt -1.66 0
vt -1.46 0
vt 1.66 0.1
vt 0.1 0.1
vt 0.1 -0.1
vt 1.46 -0.1
vt 1.66 -0.1
vt 1.46 0.1
vn 0 0 -0.3048
vn 0 0 0.3048
vn 0 -0.3048 0
vn 0 0.3048 0
vn -0.3048 0 0
vn 0.3048 0 0

usemtl 31
f 4/4/1 1/1/1 2/2/1
f 2/2/1 3/3/1 4/4/1
f 8/8/2 9/9/2 7/7/2
f 7/7/2 9/9/2 10/10/2
f 10/10/2 5/5/2 6/6/2
f 10/10/2 6/6/2 7/7/2
f 2/11/3 1/12/3 10/14/3
f 5/13/3 10/14/3 1/12/3
f 10/14/3 9/15/3 2/11/3
f 4/13/4 3/15/4 7/16/4
f 8/11/4 7/16/4 3/15/4
f 7/16/4 6/12/4 4/13/4
f 3/6/5 2/5/5 9/1/5
f 9/1/5 8/4/5 3/6/5
f 5/5/6 1/1/6 4/4/6
f 4/4/6 6/6/6 5/5/6
