## ElementId 333573
## Vertice Count:8
## Triangle Count:12
mtllib 333573.mtl
o 333573

v -4.4164 4.9 8.2711
v -2.7164 4.9 8.2711
v -2.7164 5.3 8.2711
v -4.4164 5.3 8.2711
v -4.4164 4.9 8.0711
v -4.4164 5.3 8.0711
v -2.7164 5.3 8.0711
v -2.7164 4.9 8.0711
vt 0.1 -0.4
vt 1.8 -0.4
vt 1.8 0
vt 0.1 0
vt -0.1 -0.4
vt -0.1 0
vt -1.8 0
vt -1.8 -0.4
vt 1.8 0.1
vt 0.1 0.1
vt 0.1 -0.1
vt 1.8 -0.1
vn 0 0 0.3048
vn 0 0 -0.3048
vn 0 -0.3048 0
vn 0 0.3048 0
vn -0.3048 0 0
vn 0.3048 0 0

usemtl 54872
f 4/4/1 1/1/1 2/2/1
f 2/2/1 3/3/1 4/4/1
f 7/7/2 8/8/2 6/6/2
f 5/5/2 6/6/2 8/8/2
f 2/9/3 1/10/3 8/12/3
f 5/11/3 8/12/3 1/10/3
f 4/11/4 3/12/4 7/9/4
f 7/9/4 6/10/4 4/11/4
f 5/5/5 1/1/5 4/4/5
f 4/4/5 6/6/5 5/5/5
f 2/5/6 8/1/6 7/4/6
f 7/4/6 3/6/6 2/5/6
