## ElementId 333852
## Vertice Count:10
## Triangle Count:16
mtllib 333852.mtl
o 333852

v -4.4164 2.3 8.2711
v -4.0164 2.3 8.2711
v -3.8164 2.3 8.2711
v -2.7164 2.3 8.2711
v -2.7164 2.6 8.2711
v -4.4164 2.6 8.2711
v -4.4164 2.3 8.0711
v -4.4164 2.6 8.0711
v -2.7164 2.6 8.0711
v -2.7164 2.3 8.0711
vt 0.1 -0.3
vt 0.5 -0.3
vt 0.7 -0.3
vt 1.8 -0.3
vt 1.8 0
vt 0.1 0
vt -0.1 -0.3
vt -0.1 0
vt -1.8 0
vt -1.8 -0.3
vt 1.8 0.1
vt 0.7 0.1
vt 0.5 0.1
vt 0.1 0.1
vt 0.1 -0.1
vt 1.8 -0.1
vn 0 0 0.3048
vn 0 0 -0.3048
vn 0 -0.3048 0
vn 0 0.3048 0
vn -0.3048 0 0
vn 0.3048 0 0

usemtl 54872
f 6/6/1 1/1/1 2/2/1
f 6/6/1 2/2/1 3/3/1
f 3/3/1 4/4/1 5/5/1
f 3/3/1 5/5/1 6/6/1
f 9/9/2 10/10/2 8/8/2
f 7/7/2 8/8/2 10/10/2
f 2/13/3 1/14/3 7/15/3
f 3/12/3 7/15/3 10/16/3
f 7/15/3 3/12/3 2/13/3
f 3/12/3 10/16/3 4/11/3
f 6/15/4 5/16/4 9/11/4
f 9/11/4 8/14/4 6/15/4
f 7/7/5 1/1/5 6/6/5
f 6/6/5 8/8/5 7/7/5
f 4/7/6 10/1/6 9/6/6
f 9/6/6 5/8/6 4/7/6
