## ElementId 366904
## Vertice Count:15
## Triangle Count:26
mtllib 366904.mtl
o 366904

v 1.3836 5.3 15.5011
v 1.3836 5.3 16.6011
v 1.3836 5.3 16.8011
v 1.3836 8.4309 16.8011
v 1.3836 8.5464 16.6011
v 1.3836 9.1238 15.6011
v 1.3836 8.5 15.6011
v 1.3836 8.5 15.5011
v 1.5836 5.3 15.5011
v 1.5836 8.5 15.5011
v 1.5836 8.5 15.6011
v 1.5836 9.1238 15.6011
v 1.5836 8.4309 16.8011
v 1.5836 5.3 16.8011
v 1.5836 5.3 15.6011
vt 0 0
vt 1.1 0
vt 1.3 0
vt 1.3 3.1309
vt 1.1 3.2464
vt 0.1 3.8238
vt 0.1 3.2
vt 0 3.2
vt -0.1 3.2
vt -0.1 3.8238
vt -1.3 3.1309
vt -1.3 0
vt -0.1 0
vt 1.3 0.1
vt 1.1 0.1
vt 0 0.1
vt 0 -0.1
vt 0.1 -0.1
vt 1.3 -0.1
vt 0.1 0
vt -0.1 3.1309
vt 0.1 3.1309
vt 0.1 0.1
vt -1.8253 -0.1
vt -0.6706 -0.1
vt -0.4396 -0.1
vt -0.4396 0.1
vt -1.8253 0.1
vn -0.3048 0 0
vn 0.3048 0 0
vn 0 -0.3048 0
vn 0 0 -0.3048
vn 0 0 0.3048
vn 0 0.3048 0
vn 0 0.264 0.1524

usemtl 90484
f 1/1/1 7/7/1 8/8/1
f 7/7/1 1/1/1 2/2/1
f 7/7/1 5/5/1 6/6/1
f 2/2/1 3/3/1 4/4/1
f 5/5/1 7/7/1 4/4/1
f 4/4/1 7/7/1 2/2/1

usemtl 31
f 13/11/2 15/13/2 11/9/2
f 15/13/2 13/11/2 14/12/2
f 13/11/2 11/9/2 12/10/2
f 9/1/2 10/8/2 11/9/2
f 11/9/2 15/13/2 9/1/2
f 2/15/3 1/16/3 15/18/3
f 3/14/3 2/15/3 14/19/3
f 9/17/3 15/18/3 1/16/3
f 15/18/3 14/19/3 2/15/3
f 1/20/4 8/7/4 10/9/4
f 10/9/4 9/13/4 1/20/4
f 4/21/5 3/13/5 14/20/5
f 14/20/5 13/22/5 4/21/5
f 8/17/6 7/18/6 11/23/6
f 11/23/6 10/16/6 8/17/6
f 12/10/4 11/9/4 7/7/4
f 7/7/4 6/6/4 12/10/4
f 5/25/7 13/27/7 12/28/7
f 13/27/7 5/25/7 4/26/7
f 5/25/7 12/28/7 6/24/7
