## ElementId 367163
## Vertice Count:15
## Triangle Count:26
mtllib 367163.mtl
o 367163

v -6.6164 5.3 15.5011
v -6.6164 5.3 15.6011
v -6.6164 5.3 16.8011
v -6.6164 8.4309 16.8011
v -6.6164 9.1238 15.6011
v -6.6164 8.5 15.6011
v -6.6164 8.5 15.5011
v -6.4164 5.3 15.5011
v -6.4164 8.5 15.5011
v -6.4164 8.5 15.6011
v -6.4164 9.1238 15.6011
v -6.4164 8.5464 16.6011
v -6.4164 8.4309 16.8011
v -6.4164 5.3 16.8011
v -6.4164 5.3 16.6011
vt 0 0
vt 0.1 0
vt 1.3 0
vt 1.3 3.1309
vt 0.1 3.8238
vt 0.1 3.2
vt 0 3.2
vt -0.1 3.2
vt -0.1 3.8238
vt -1.1 3.2464
vt -1.3 3.1309
vt -1.3 0
vt -1.1 0
vt 1.3 0.1
vt 0.1 0.1
vt 0 0.1
vt 0 -0.1
vt 1.1 -0.1
vt 1.3 -0.1
vt -0.1 0
vt -0.1 3.1309
vt 0.1 3.1309
vt 0.1 -0.1
vt -1.8253 -0.1
vt -0.4396 -0.1
vt -0.4396 0.1
vt -0.6706 0.1
vt -1.8253 0.1
vn -0.3048 0 0
vn 0.3048 0 0
vn 0 -0.3048 0
vn 0 0 -0.3048
vn 0 0 0.3048
vn 0 0.3048 0
vn 0 0.264 0.1524

usemtl 31
f 6/6/1 7/7/1 1/1/1
f 2/2/1 3/3/1 4/4/1
f 6/6/1 4/4/1 5/5/1
f 4/4/1 6/6/1 2/2/1
f 2/2/1 6/6/1 1/1/1
f 14/12/2 15/13/2 13/11/2
f 10/8/2 12/10/2 13/11/2
f 13/11/2 15/13/2 10/8/2
f 10/8/2 8/1/2 9/7/2
f 8/1/2 10/8/2 15/13/2
f 10/8/2 11/9/2 12/10/2
f 2/15/3 1/16/3 8/17/3
f 3/14/3 2/15/3 15/18/3
f 8/17/3 15/18/3 2/15/3
f 15/18/3 14/19/3 3/14/3
f 1/2/4 7/6/4 9/8/4
f 9/8/4 8/20/4 1/2/4
f 4/21/5 3/20/5 14/2/5
f 14/2/5 13/22/5 4/21/5
f 7/17/6 6/23/6 9/16/6
f 10/15/6 9/16/6 6/23/6
f 11/9/4 10/8/4 5/5/4
f 6/6/4 5/5/4 10/8/4
f 5/24/7 4/25/7 12/27/7
f 13/26/7 12/27/7 4/25/7
f 12/27/7 11/28/7 5/24/7
