{"accessors":[{"name":"124230-Mesh_0_positions","componentType":5126,"count":4,"min":[-30.516399383544922,0.6000000238418579,-3.198899984359741],"max":[20.719900131225586,0.6000000238418579,2.801100015640259],"type":"VEC3","bufferView":0,"byteOffset":0},{"name":"124230-Mesh_0_normals","componentType":5126,"count":4,"min":[0,1,0],"max":[0,1,0],"type":"VEC3","bufferView":1,"byteOffset":0},{"name":"124230-Mesh_0_texcoords","componentType":5126,"count":4,"min":[0,-50.23619842529297],"max":[6,1],"type":"VEC2","bufferView":2,"byteOffset":0},{"name":"124230-Mesh_0_indices","componentType":5123,"count":6,"min":[0],"max":[3],"type":"SCALAR","bufferView":3,"byteOffset":0}],"asset":{"generator":"obj2gltf","version":"2.0"},"buffers":[{"name":"124230","byteLength":140,"uri":"data:application/octet-stream;base64,"}],"bufferViews":[{"name":"bufferView_0","buffer":0,"byteLength":48,"byteOffset":0,"byteStride":12,"target":34962},{"name":"bufferView_1","buffer":0,"byteLength":48,"byteOffset":48,"byteStride":12,"target":34962},{"name":"bufferView_2","buffer":0,"byteLength":32,"byteOffset":96,"byteStride":8,"target":34962},{"name":"bufferView_3","buffer":0,"byteLength":12,"byteOffset":128,"target":34963}],"materials":[{"name":"241168","pbrMetallicRoughness":{"baseColorFactor":[0.282352941176471,0.474509803921569,0.509803921568627,1],"metallicFactor":0,"roughnessFactor":1},"emissiveFactor":[0,0,0],"alphaMode":"OPAQUE","doubleSided":false}],"meshes":[{"name":"124230-Mesh","primitives":[{"attributes":{"POSITION":0,"NORMAL":1,"TEXCOORD_0":2},"indices":3,"material":0,"mode":4}]}],"nodes":[{"name":"124230","mesh":0}],"scene":0,"scenes":[{"nodes":[0]}]}