{"accessors":[{"name":"124799-Mesh_0_positions","componentType":5126,"count":40,"min":[-30.516399383544922,-0.20000000298023224,2.801100015640259],"max":[20.719900131225586,0.6000000238418579,19.30109977722168],"type":"VEC3","bufferView":0,"byteOffset":0},{"name":"124799-Mesh_0_normals","componentType":5126,"count":40,"min":[0,0.9988201260566711,0.04856286942958832],"max":[0,0.9988201260566711,0.04856286942958832],"type":"VEC3","bufferView":1,"byteOffset":0},{"name":"124799-Mesh_0_texcoords","componentType":5126,"count":40,"min":[0,-50.23619842529297],"max":[16.5,1],"type":"VEC2","bufferView":2,"byteOffset":0},{"name":"124799-Mesh_0_indices","componentType":5123,"count":108,"min":[0],"max":[39],"type":"SCALAR","bufferView":3,"byteOffset":0}],"asset":{"generator":"obj2gltf","version":"2.0"},"buffers":[{"name":"124799","byteLength":1496,"uri":"data:application/octet-stream;base64,"}],"bufferViews":[{"name":"bufferView_0","buffer":0,"byteLength":480,"byteOffset":0,"byteStride":12,"target":34962},{"name":"bufferView_1","buffer":0,"byteLength":480,"byteOffset":480,"byteStride":12,"target":34962},{"name":"bufferView_2","buffer":0,"byteLength":320,"byteOffset":960,"byteStride":8,"target":34962},{"name":"bufferView_3","buffer":0,"byteLength":216,"byteOffset":1280,"target":34963}],"materials":[{"name":"79450","pbrMetallicRoughness":{"baseColorFactor":[0,0.450980392156863,0,1],"metallicFactor":0,"roughnessFactor":1},"emissiveFactor":[0,0,0],"alphaMode":"OPAQUE","doubleSided":false}],"meshes":[{"name":"124799-Mesh","primitives":[{"attributes":{"POSITION":0,"NORMAL":1,"TEXCOORD_0":2},"indices":3,"material":0,"mode":4}]}],"nodes":[{"name":"124799","mesh":0}],"scene":0,"scenes":[{"nodes":[0]}]}