{"accessors":[{"name":"125732-Mesh_0_positions","componentType":5126,"count":37,"min":[-2.3164000511169434,-0.20000000298023224,4.501100063323975],"max":[7.48360013961792,5.300000190734863,4.501100063323975],"type":"VEC3","bufferView":0,"byteOffset":0},{"name":"125732-Mesh_0_normals","componentType":5126,"count":37,"min":[0,0,1],"max":[0,0,1],"type":"VEC3","bufferView":1,"byteOffset":0},{"name":"125732-Mesh_0_texcoords","componentType":5126,"count":37,"min":[0.14000000059604645,-4.5],"max":[9.9399995803833,1],"type":"VEC2","bufferView":2,"byteOffset":0},{"name":"125732-Mesh_0_indices","componentType":5123,"count":135,"min":[0],"max":[36],"type":"SCALAR","bufferView":3,"byteOffset":0},{"name":"125732-Mesh_1_positions","componentType":5126,"count":145,"min":[-2.3164000511169434,-0.20000000298023224,4.30109977722168],"max":[7.48360013961792,5.300000190734863,4.501100063323975],"type":"VEC3","bufferView":0,"byteOffset":444},{"name":"125732-Mesh_1_normals","componentType":5126,"count":145,"min":[-1,-1,-1],"max":[1,1,0],"type":"VEC3","bufferView":1,"byteOffset":444},{"name":"125732-Mesh_1_texcoords","componentType":5126,"count":145,"min":[-9.9399995803833,-4.5],"max":[9.9399995803833,1.100000023841858],"type":"VEC2","bufferView":2,"byteOffset":296},{"name":"125732-Mesh_1_indices","componentType":5123,"count":303,"min":[0],"max":[144],"type":"SCALAR","bufferView":3,"byteOffset":272}],"asset":{"generator":"obj2gltf","version":"2.0"},"buffers":[{"name":"125732","byteLength":6704,"uri":"data:application/octet-stream;base64,"}],"bufferViews":[{"name":"bufferView_0","buffer":0,"byteLength":2184,"byteOffset":0,"byteStride":12,"target":34962},{"name":"bufferView_1","buffer":0,"byteLength":2184,"byteOffset":2184,"byteStride":12,"target":34962},{"name":"bufferView_2","buffer":0,"byteLength":1456,"byteOffset":4368,"byteStride":8,"target":34962},{"name":"bufferView_3","buffer":0,"byteLength":880,"byteOffset":5824,"target":34963}],"materials":[{"name":"197629","pbrMetallicRoughness":{"baseColorFactor":[0.784313725490196,0.784313725490196,0.784313725490196,1],"metallicFactor":0,"roughnessFactor":1},"emissiveFactor":[0,0,0],"alphaMode":"OPAQUE","doubleSided":false},{"name":"31","pbrMetallicRoughness":{"baseColorFactor":[0.356862745098039,0.376470588235294,0.435294117647059,1],"metallicFactor":0,"roughnessFactor":1},"emissiveFactor":[0,0,0],"alphaMode":"OPAQUE","doubleSided":false}],"meshes":[{"name":"125732-Mesh","primitives":[{"attributes":{"POSITION":0,"NORMAL":1,"TEXCOORD_0":2},"indices":3,"material":0,"mode":4},{"attributes":{"POSITION":4,"NORMAL":5,"TEXCOORD_0":6},"indices":7,"material":1,"mode":4}]}],"nodes":[{"name":"125732","mesh":0}],"scene":0,"scenes":[{"nodes":[0]}]}