{"accessors":[{"name":"125977-Mesh_0_positions","componentType":5126,"count":10,"min":[-0.6164000034332275,-0.20000000298023224,8.271100044250488],"max":[3.0836000442504883,5.300000190734863,8.271100044250488],"type":"VEC3","bufferView":0,"byteOffset":0},{"name":"125977-Mesh_0_normals","componentType":5126,"count":10,"min":[0,0,1],"max":[0,0,1],"type":"VEC3","bufferView":1,"byteOffset":0},{"name":"125977-Mesh_0_texcoords","componentType":5126,"count":10,"min":[-0.10000000149011612,-4.5],"max":[3.5999999046325684,1],"type":"VEC2","bufferView":2,"byteOffset":0},{"name":"125977-Mesh_0_indices","componentType":5123,"count":24,"min":[0],"max":[9],"type":"SCALAR","bufferView":3,"byteOffset":0},{"name":"125977-Mesh_1_positions","componentType":5126,"count":18,"min":[-0.6164000034332275,-0.20000000298023224,8.071100234985352],"max":[3.0836000442504883,5.300000190734863,8.271100044250488],"type":"VEC3","bufferView":0,"byteOffset":120},{"name":"125977-Mesh_1_normals","componentType":5126,"count":18,"min":[-1,0,-1],"max":[1,0,0],"type":"VEC3","bufferView":1,"byteOffset":120},{"name":"125977-Mesh_1_texcoords","componentType":5126,"count":18,"min":[-3.869999885559082,-4.5],"max":[3.869999885559082,1],"type":"VEC2","bufferView":2,"byteOffset":80},{"name":"125977-Mesh_1_indices","componentType":5123,"count":36,"min":[0],"max":[17],"type":"SCALAR","bufferView":3,"byteOffset":48},{"name":"125977-Mesh_2_positions","componentType":5126,"count":16,"min":[-0.6164000034332275,-0.20000000298023224,8.071100234985352],"max":[3.0836000442504883,5.300000190734863,8.271100044250488],"type":"VEC3","bufferView":0,"byteOffset":336},{"name":"125977-Mesh_2_normals","componentType":5126,"count":16,"min":[0,-1,0],"max":[0,1,0],"type":"VEC3","bufferView":1,"byteOffset":336},{"name":"125977-Mesh_2_texcoords","componentType":5126,"count":16,"min":[-0.10000000149011612,0.8999999761581421],"max":[3.5999999046325684,1.100000023841858],"type":"VEC2","bufferView":2,"byteOffset":224},{"name":"125977-Mesh_2_indices","componentType":5123,"count":36,"min":[0],"max":[15],"type":"SCALAR","bufferView":3,"byteOffset":120}],"asset":{"generator":"obj2gltf","version":"2.0"},"buffers":[{"name":"125977","byteLength":1600,"uri":"data:application/octet-stream;base64,"}],"bufferViews":[{"name":"bufferView_0","buffer":0,"byteLength":528,"byteOffset":0,"byteStride":12,"target":34962},{"name":"bufferView_1","buffer":0,"byteLength":528,"byteOffset":528,"byteStride":12,"target":34962},{"name":"bufferView_2","buffer":0,"byteLength":352,"byteOffset":1056,"byteStride":8,"target":34962},{"name":"bufferView_3","buffer":0,"byteLength":192,"byteOffset":1408,"target":34963}],"materials":[{"name":"197629","pbrMetallicRoughness":{"baseColorFactor":[0.784313725490196,0.784313725490196,0.784313725490196,1],"metallicFactor":0,"roughnessFactor":1},"emissiveFactor":[0,0,0],"alphaMode":"OPAQUE","doubleSided":false},{"name":"90484","pbrMetallicRoughness":{"baseColorFactor":[0.784313725490196,0.784313725490196,0.784313725490196,1],"metallicFactor":0,"roughnessFactor":1},"emissiveFactor":[0,0,0],"alphaMode":"OPAQUE","doubleSided":false},{"name":"31","pbrMetallicRoughness":{"baseColorFactor":[0.356862745098039,0.376470588235294,0.435294117647059,1],"metallicFactor":0,"roughnessFactor":1},"emissiveFactor":[0,0,0],"alphaMode":"OPAQUE","doubleSided":false}],"meshes":[{"name":"125977-Mesh","primitives":[{"attributes":{"POSITION":0,"NORMAL":1,"TEXCOORD_0":2},"indices":3,"material":0,"mode":4},{"attributes":{"POSITION":4,"NORMAL":5,"TEXCOORD_0":6},"indices":7,"material":1,"mode":4},{"attributes":{"POSITION":8,"NORMAL":9,"TEXCOORD_0":10},"indices":11,"material":2,"mode":4}]}],"nodes":[{"name":"125977","mesh":0}],"scene":0,"scenes":[{"nodes":[0]}]}