{"accessors":[{"name":"129557-Mesh_0_positions","componentType":5126,"count":18,"min":[1.3835999965667725,5.300000190734863,10.901100158691406],"max":[1.5836000442504883,8.5,15.501099586486816],"type":"VEC3","bufferView":0,"byteOffset":0},{"name":"129557-Mesh_0_normals","componentType":5126,"count":18,"min":[-1,0,0],"max":[1,0,0],"type":"VEC3","bufferView":1,"byteOffset":0},{"name":"129557-Mesh_0_texcoords","componentType":5126,"count":18,"min":[-4.699999809265137,-2.200000047683716],"max":[4.699999809265137,1],"type":"VEC2","bufferView":2,"byteOffset":0},{"name":"129557-Mesh_0_indices","componentType":5123,"count":42,"min":[0],"max":[17],"type":"SCALAR","bufferView":3,"byteOffset":0},{"name":"129557-Mesh_1_positions","componentType":5126,"count":34,"min":[1.3835999965667725,5.300000190734863,10.901100158691406],"max":[1.5836000442504883,8.5,15.501099586486816],"type":"VEC3","bufferView":0,"byteOffset":216},{"name":"129557-Mesh_1_normals","componentType":5126,"count":34,"min":[0,-1,-1],"max":[0,1,1],"type":"VEC3","bufferView":1,"byteOffset":216},{"name":"129557-Mesh_1_texcoords","componentType":5126,"count":34,"min":[-0.10000000149011612,-2.200000047683716],"max":[4.699999809265137,1.100000023841858],"type":"VEC2","bufferView":2,"byteOffset":144},{"name":"129557-Mesh_1_indices","componentType":5123,"count":54,"min":[0],"max":[33],"type":"SCALAR","bufferView":3,"byteOffset":84}],"asset":{"generator":"obj2gltf","version":"2.0"},"buffers":[{"name":"129557","byteLength":1856,"uri":"data:application/octet-stream;base64,"}],"bufferViews":[{"name":"bufferView_0","buffer":0,"byteLength":624,"byteOffset":0,"byteStride":12,"target":34962},{"name":"bufferView_1","buffer":0,"byteLength":624,"byteOffset":624,"byteStride":12,"target":34962},{"name":"bufferView_2","buffer":0,"byteLength":416,"byteOffset":1248,"byteStride":8,"target":34962},{"name":"bufferView_3","buffer":0,"byteLength":192,"byteOffset":1664,"target":34963}],"materials":[{"name":"90484","pbrMetallicRoughness":{"baseColorFactor":[0.784313725490196,0.784313725490196,0.784313725490196,1],"metallicFactor":0,"roughnessFactor":1},"emissiveFactor":[0,0,0],"alphaMode":"OPAQUE","doubleSided":false},{"name":"31","pbrMetallicRoughness":{"baseColorFactor":[0.356862745098039,0.376470588235294,0.435294117647059,1],"metallicFactor":0,"roughnessFactor":1},"emissiveFactor":[0,0,0],"alphaMode":"OPAQUE","doubleSided":false}],"meshes":[{"name":"129557-Mesh","primitives":[{"attributes":{"POSITION":0,"NORMAL":1,"TEXCOORD_0":2},"indices":3,"material":0,"mode":4},{"attributes":{"POSITION":4,"NORMAL":5,"TEXCOORD_0":6},"indices":7,"material":1,"mode":4}]}],"nodes":[{"name":"129557","mesh":0}],"scene":0,"scenes":[{"nodes":[0]}]}