{"accessors":[{"name":"129568-Mesh_0_positions","componentType":5126,"count":4,"min":[3.0836000442504883,5.300000190734863,15.401100158691406],"max":[3.0836000442504883,8.5,16.10110092163086],"type":"VEC3","bufferView":0,"byteOffset":0},{"name":"129568-Mesh_0_normals","componentType":5126,"count":4,"min":[1,0,0],"max":[1,0,0],"type":"VEC3","bufferView":1,"byteOffset":0},{"name":"129568-Mesh_0_texcoords","componentType":5126,"count":4,"min":[0.10000000149011612,-2.200000047683716],"max":[0.800000011920929,1],"type":"VEC2","bufferView":2,"byteOffset":0},{"name":"129568-Mesh_0_indices","componentType":5123,"count":6,"min":[0],"max":[3],"type":"SCALAR","bufferView":3,"byteOffset":0},{"name":"129568-Mesh_1_positions","componentType":5126,"count":26,"min":[2.8835999965667725,5.300000190734863,15.401100158691406],"max":[3.0836000442504883,8.5,16.10110092163086],"type":"VEC3","bufferView":0,"byteOffset":48},{"name":"129568-Mesh_1_normals","componentType":5126,"count":26,"min":[-1,-1,-1],"max":[0,1,1],"type":"VEC3","bufferView":1,"byteOffset":48},{"name":"129568-Mesh_1_texcoords","componentType":5126,"count":26,"min":[-0.800000011920929,-2.200000047683716],"max":[0.800000011920929,1.100000023841858],"type":"VEC2","bufferView":2,"byteOffset":32},{"name":"129568-Mesh_1_indices","componentType":5123,"count":48,"min":[0],"max":[25],"type":"SCALAR","bufferView":3,"byteOffset":12}],"asset":{"generator":"obj2gltf","version":"2.0"},"buffers":[{"name":"129568","byteLength":1068,"uri":"data:application/octet-stream;base64,"}],"bufferViews":[{"name":"bufferView_0","buffer":0,"byteLength":360,"byteOffset":0,"byteStride":12,"target":34962},{"name":"bufferView_1","buffer":0,"byteLength":360,"byteOffset":360,"byteStride":12,"target":34962},{"name":"bufferView_2","buffer":0,"byteLength":240,"byteOffset":720,"byteStride":8,"target":34962},{"name":"bufferView_3","buffer":0,"byteLength":108,"byteOffset":960,"target":34963}],"materials":[{"name":"197629","pbrMetallicRoughness":{"baseColorFactor":[0.784313725490196,0.784313725490196,0.784313725490196,1],"metallicFactor":0,"roughnessFactor":1},"emissiveFactor":[0,0,0],"alphaMode":"OPAQUE","doubleSided":false},{"name":"31","pbrMetallicRoughness":{"baseColorFactor":[0.356862745098039,0.376470588235294,0.435294117647059,1],"metallicFactor":0,"roughnessFactor":1},"emissiveFactor":[0,0,0],"alphaMode":"OPAQUE","doubleSided":false}],"meshes":[{"name":"129568-Mesh","primitives":[{"attributes":{"POSITION":0,"NORMAL":1,"TEXCOORD_0":2},"indices":3,"material":0,"mode":4},{"attributes":{"POSITION":4,"NORMAL":5,"TEXCOORD_0":6},"indices":7,"material":1,"mode":4}]}],"nodes":[{"name":"129568","mesh":0}],"scene":0,"scenes":[{"nodes":[0]}]}