{"accessors":[{"name":"129555-Mesh_0_positions","componentType":5126,"count":24,"min":[-2.516400098800659,5.300000190734863,4.501100063323975],"max":[7.48360013961792,8.5,4.501100063323975],"type":"VEC3","bufferView":0,"byteOffset":0},{"name":"129555-Mesh_0_normals","componentType":5126,"count":24,"min":[0,0,1],"max":[0,0,1],"type":"VEC3","bufferView":1,"byteOffset":0},{"name":"129555-Mesh_0_texcoords","componentType":5126,"count":24,"min":[-0.05999999865889549,-2.200000047683716],"max":[9.9399995803833,1],"type":"VEC2","bufferView":2,"byteOffset":0},{"name":"129555-Mesh_0_indices","componentType":5123,"count":84,"min":[0],"max":[23],"type":"SCALAR","bufferView":3,"byteOffset":0},{"name":"129555-Mesh_1_positions","componentType":5126,"count":90,"min":[-2.516400098800659,5.300000190734863,4.30109977722168],"max":[7.48360013961792,8.5,4.501100063323975],"type":"VEC3","bufferView":0,"byteOffset":288},{"name":"129555-Mesh_1_normals","componentType":5126,"count":90,"min":[-1,-1,-1],"max":[1,1,0],"type":"VEC3","bufferView":1,"byteOffset":288},{"name":"129555-Mesh_1_texcoords","componentType":5126,"count":90,"min":[-9.9399995803833,-2.200000047683716],"max":[9.9399995803833,1.100000023841858],"type":"VEC2","bufferView":2,"byteOffset":192},{"name":"129555-Mesh_1_indices","componentType":5123,"count":192,"min":[0],"max":[89],"type":"SCALAR","bufferView":3,"byteOffset":168},{"name":"129555-Mesh_2_positions","componentType":5126,"count":4,"min":[-2.516400098800659,5.300000190734863,4.30109977722168],"max":[-2.516400098800659,8.5,4.501100063323975],"type":"VEC3","bufferView":0,"byteOffset":1368},{"name":"129555-Mesh_2_normals","componentType":5126,"count":4,"min":[-1,0,0],"max":[-1,0,0],"type":"VEC3","bufferView":1,"byteOffset":1368},{"name":"129555-Mesh_2_texcoords","componentType":5126,"count":4,"min":[-0.10000000149011612,-7.5],"max":[0.10000000149011612,-4.300000190734863],"type":"VEC2","bufferView":2,"byteOffset":912},{"name":"129555-Mesh_2_indices","componentType":5123,"count":6,"min":[0],"max":[3],"type":"SCALAR","bufferView":3,"byteOffset":552}],"asset":{"generator":"obj2gltf","version":"2.0"},"buffers":[{"name":"129555","byteLength":4340,"uri":"data:application/octet-stream;base64,"}],"bufferViews":[{"name":"bufferView_0","buffer":0,"byteLength":1416,"byteOffset":0,"byteStride":12,"target":34962},{"name":"bufferView_1","buffer":0,"byteLength":1416,"byteOffset":1416,"byteStride":12,"target":34962},{"name":"bufferView_2","buffer":0,"byteLength":944,"byteOffset":2832,"byteStride":8,"target":34962},{"name":"bufferView_3","buffer":0,"byteLength":564,"byteOffset":3776,"target":34963}],"materials":[{"name":"197629","pbrMetallicRoughness":{"baseColorFactor":[0.784313725490196,0.784313725490196,0.784313725490196,1],"metallicFactor":0,"roughnessFactor":1},"emissiveFactor":[0,0,0],"alphaMode":"OPAQUE","doubleSided":false},{"name":"31","pbrMetallicRoughness":{"baseColorFactor":[0.356862745098039,0.376470588235294,0.435294117647059,1],"metallicFactor":0,"roughnessFactor":1},"emissiveFactor":[0,0,0],"alphaMode":"OPAQUE","doubleSided":false},{"name":"90484","pbrMetallicRoughness":{"baseColorFactor":[0.784313725490196,0.784313725490196,0.784313725490196,1],"metallicFactor":0,"roughnessFactor":1},"emissiveFactor":[0,0,0],"alphaMode":"OPAQUE","doubleSided":false}],"meshes":[{"name":"129555-Mesh","primitives":[{"attributes":{"POSITION":0,"NORMAL":1,"TEXCOORD_0":2},"indices":3,"material":0,"mode":4},{"attributes":{"POSITION":4,"NORMAL":5,"TEXCOORD_0":6},"indices":7,"material":1,"mode":4},{"attributes":{"POSITION":8,"NORMAL":9,"TEXCOORD_0":10},"indices":11,"material":2,"mode":4}]}],"nodes":[{"name":"129555","mesh":0}],"scene":0,"scenes":[{"nodes":[0]}]}