{"accessors":[{"name":"130293-Mesh_0_positions","componentType":5126,"count":72,"min":[-2.3164000511169434,8.399999618530273,4.501100063323975],"max":[7.283599853515625,8.5,16.60110092163086],"type":"VEC3","bufferView":0,"byteOffset":0},{"name":"130293-Mesh_0_normals","componentType":5126,"count":72,"min":[-1,-1,-1],"max":[1,1,1],"type":"VEC3","bufferView":1,"byteOffset":0},{"name":"130293-Mesh_0_texcoords","componentType":5126,"count":72,"min":[-16.60110092163086,-15.601099967956543],"max":[16.60110092163086,17.60110092163086],"type":"VEC2","bufferView":2,"byteOffset":0},{"name":"130293-Mesh_0_indices","componentType":5123,"count":132,"min":[0],"max":[71],"type":"SCALAR","bufferView":3,"byteOffset":0}],"asset":{"generator":"obj2gltf","version":"2.0"},"buffers":[{"name":"130293","byteLength":2568,"uri":"data:application/octet-stream;base64,"}],"bufferViews":[{"name":"bufferView_0","buffer":0,"byteLength":864,"byteOffset":0,"byteStride":12,"target":34962},{"name":"bufferView_1","buffer":0,"byteLength":864,"byteOffset":864,"byteStride":12,"target":34962},{"name":"bufferView_2","buffer":0,"byteLength":576,"byteOffset":1728,"byteStride":8,"target":34962},{"name":"bufferView_3","buffer":0,"byteLength":264,"byteOffset":2304,"target":34963}],"materials":[{"name":"54872","pbrMetallicRoughness":{"baseColorFactor":[0.909803921568627,0.909803921568627,0.909803921568627,1],"metallicFactor":0,"roughnessFactor":1},"emissiveFactor":[0,0,0],"alphaMode":"OPAQUE","doubleSided":false}],"meshes":[{"name":"130293-Mesh","primitives":[{"attributes":{"POSITION":0,"NORMAL":1,"TEXCOORD_0":2},"indices":3,"material":0,"mode":4}]}],"nodes":[{"name":"130293","mesh":0}],"scene":0,"scenes":[{"nodes":[0]}]}