{"accessors":[{"name":"131727-Mesh_0_positions","componentType":5126,"count":14,"min":[-2.3164000511169434,8.5,10.901100158691406],"max":[7.283599853515625,11.699999809265137,10.901100158691406],"type":"VEC3","bufferView":0,"byteOffset":0},{"name":"131727-Mesh_0_normals","componentType":5126,"count":14,"min":[0,0,1],"max":[0,0,1],"type":"VEC3","bufferView":1,"byteOffset":0},{"name":"131727-Mesh_0_texcoords","componentType":5126,"count":14,"min":[0.10000000149011612,-2.200000047683716],"max":[9.699999809265137,1],"type":"VEC2","bufferView":2,"byteOffset":0},{"name":"131727-Mesh_0_indices","componentType":5123,"count":36,"min":[0],"max":[13],"type":"SCALAR","bufferView":3,"byteOffset":0},{"name":"131727-Mesh_1_positions","componentType":5126,"count":10,"min":[-2.3164000511169434,8.5,10.70110034942627],"max":[7.283599853515625,11.699999809265137,10.70110034942627],"type":"VEC3","bufferView":0,"byteOffset":168},{"name":"131727-Mesh_1_normals","componentType":5126,"count":10,"min":[0,0,-1],"max":[0,0,-1],"type":"VEC3","bufferView":1,"byteOffset":168},{"name":"131727-Mesh_1_texcoords","componentType":5126,"count":10,"min":[-9.699999809265137,-2.200000047683716],"max":[-0.10000000149011612,1],"type":"VEC2","bufferView":2,"byteOffset":112},{"name":"131727-Mesh_1_indices","componentType":5123,"count":24,"min":[0],"max":[9],"type":"SCALAR","bufferView":3,"byteOffset":72},{"name":"131727-Mesh_2_positions","componentType":5126,"count":40,"min":[-2.3164000511169434,8.5,10.70110034942627],"max":[7.283599853515625,11.699999809265137,10.901100158691406],"type":"VEC3","bufferView":0,"byteOffset":288},{"name":"131727-Mesh_2_normals","componentType":5126,"count":40,"min":[-1,-1,0],"max":[1,1,0],"type":"VEC3","bufferView":1,"byteOffset":288},{"name":"131727-Mesh_2_texcoords","componentType":5126,"count":40,"min":[-0.10000000149011612,-2.200000047683716],"max":[9.699999809265137,1.100000023841858],"type":"VEC2","bufferView":2,"byteOffset":192},{"name":"131727-Mesh_2_indices","componentType":5123,"count":72,"min":[0],"max":[39],"type":"SCALAR","bufferView":3,"byteOffset":120}],"asset":{"generator":"obj2gltf","version":"2.0"},"buffers":[{"name":"131727","byteLength":2312,"uri":"data:application/octet-stream;base64,"}],"bufferViews":[{"name":"bufferView_0","buffer":0,"byteLength":768,"byteOffset":0,"byteStride":12,"target":34962},{"name":"bufferView_1","buffer":0,"byteLength":768,"byteOffset":768,"byteStride":12,"target":34962},{"name":"bufferView_2","buffer":0,"byteLength":512,"byteOffset":1536,"byteStride":8,"target":34962},{"name":"bufferView_3","buffer":0,"byteLength":264,"byteOffset":2048,"target":34963}],"materials":[{"name":"197629","pbrMetallicRoughness":{"baseColorFactor":[0.784313725490196,0.784313725490196,0.784313725490196,1],"metallicFactor":0,"roughnessFactor":1},"emissiveFactor":[0,0,0],"alphaMode":"OPAQUE","doubleSided":false},{"name":"90484","pbrMetallicRoughness":{"baseColorFactor":[0.784313725490196,0.784313725490196,0.784313725490196,1],"metallicFactor":0,"roughnessFactor":1},"emissiveFactor":[0,0,0],"alphaMode":"OPAQUE","doubleSided":false},{"name":"31","pbrMetallicRoughness":{"baseColorFactor":[0.356862745098039,0.376470588235294,0.435294117647059,1],"metallicFactor":0,"roughnessFactor":1},"emissiveFactor":[0,0,0],"alphaMode":"OPAQUE","doubleSided":false}],"meshes":[{"name":"131727-Mesh","primitives":[{"attributes":{"POSITION":0,"NORMAL":1,"TEXCOORD_0":2},"indices":3,"material":0,"mode":4},{"attributes":{"POSITION":4,"NORMAL":5,"TEXCOORD_0":6},"indices":7,"material":1,"mode":4},{"attributes":{"POSITION":8,"NORMAL":9,"TEXCOORD_0":10},"indices":11,"material":2,"mode":4}]}],"nodes":[{"name":"131727","mesh":0}],"scene":0,"scenes":[{"nodes":[0]}]}