{"accessors":[{"name":"131729-Mesh_0_positions","componentType":5126,"count":58,"min":[2.8835999965667725,8.5,12.901100158691406],"max":[3.0836000442504883,11.699999809265137,16.10110092163086],"type":"VEC3","bufferView":0,"byteOffset":0},{"name":"131729-Mesh_0_normals","componentType":5126,"count":58,"min":[-1,-1,-1],"max":[1,1,1],"type":"VEC3","bufferView":1,"byteOffset":0},{"name":"131729-Mesh_0_texcoords","componentType":5126,"count":58,"min":[-3.299999952316284,-2.200000047683716],"max":[3.299999952316284,1.100000023841858],"type":"VEC2","bufferView":2,"byteOffset":0},{"name":"131729-Mesh_0_indices","componentType":5123,"count":114,"min":[0],"max":[57],"type":"SCALAR","bufferView":3,"byteOffset":0}],"asset":{"generator":"obj2gltf","version":"2.0"},"buffers":[{"name":"131729","byteLength":2084,"uri":"data:application/octet-stream;base64,"}],"bufferViews":[{"name":"bufferView_0","buffer":0,"byteLength":696,"byteOffset":0,"byteStride":12,"target":34962},{"name":"bufferView_1","buffer":0,"byteLength":696,"byteOffset":696,"byteStride":12,"target":34962},{"name":"bufferView_2","buffer":0,"byteLength":464,"byteOffset":1392,"byteStride":8,"target":34962},{"name":"bufferView_3","buffer":0,"byteLength":228,"byteOffset":1856,"target":34963}],"materials":[{"name":"90484","pbrMetallicRoughness":{"baseColorFactor":[0.784313725490196,0.784313725490196,0.784313725490196,1],"metallicFactor":0,"roughnessFactor":1},"emissiveFactor":[0,0,0],"alphaMode":"OPAQUE","doubleSided":false}],"meshes":[{"name":"131729-Mesh","primitives":[{"attributes":{"POSITION":0,"NORMAL":1,"TEXCOORD_0":2},"indices":3,"material":0,"mode":4}]}],"nodes":[{"name":"131729","mesh":0}],"scene":0,"scenes":[{"nodes":[0]}]}