{"accessors":[{"name":"134413-Mesh_0_positions","componentType":5126,"count":1152,"min":[7.443299770355225,8.949999809265137,5.54610013961792],"max":[7.678599834442139,9.40999984741211,8.196100234985352],"type":"VEC3","bufferView":0,"byteOffset":0},{"name":"134413-Mesh_0_normals","componentType":5126,"count":1152,"min":[-1,-1,-1],"max":[1,1,1],"type":"VEC3","bufferView":1,"byteOffset":0},{"name":"134413-Mesh_0_texcoords","componentType":5126,"count":1152,"min":[-10.76609992980957,-9.76609992980957],"max":[10.76609992980957,11.76609992980957],"type":"VEC2","bufferView":2,"byteOffset":0},{"name":"134413-Mesh_0_indices","componentType":5123,"count":2820,"min":[0],"max":[1151],"type":"SCALAR","bufferView":3,"byteOffset":0}],"asset":{"generator":"obj2gltf","version":"2.0"},"buffers":[{"name":"134413","byteLength":42504,"uri":"data:application/octet-stream;base64,"}],"bufferViews":[{"name":"bufferView_0","buffer":0,"byteLength":13824,"byteOffset":0,"byteStride":12,"target":34962},{"name":"bufferView_1","buffer":0,"byteLength":13824,"byteOffset":13824,"byteStride":12,"target":34962},{"name":"bufferView_2","buffer":0,"byteLength":9216,"byteOffset":27648,"byteStride":8,"target":34962},{"name":"bufferView_3","buffer":0,"byteLength":5640,"byteOffset":36864,"target":34963}],"materials":[{"name":"197629","pbrMetallicRoughness":{"baseColorFactor":[0.784313725490196,0.784313725490196,0.784313725490196,1],"metallicFactor":0,"roughnessFactor":1},"emissiveFactor":[0,0,0],"alphaMode":"OPAQUE","doubleSided":false}],"meshes":[{"name":"134413-Mesh","primitives":[{"attributes":{"POSITION":0,"NORMAL":1,"TEXCOORD_0":2},"indices":3,"material":0,"mode":4}]}],"nodes":[{"name":"134413","mesh":0}],"scene":0,"scenes":[{"nodes":[0]}]}