{"accessors":[{"name":"135291-Mesh_0_positions","componentType":5126,"count":66,"min":[2.8835999965667725,11.699999809265137,10.901100158691406],"max":[3.0836000442504883,16.194599151611328,14.401100158691406],"type":"VEC3","bufferView":0,"byteOffset":0},{"name":"135291-Mesh_0_normals","componentType":5126,"count":66,"min":[-1,-1,-1],"max":[1,1,1],"type":"VEC3","bufferView":1,"byteOffset":0},{"name":"135291-Mesh_0_texcoords","componentType":5126,"count":66,"min":[-3.5999999046325684,-3.4946000576019287],"max":[3.5999999046325684,1.100000023841858],"type":"VEC2","bufferView":2,"byteOffset":0},{"name":"135291-Mesh_0_indices","componentType":5123,"count":138,"min":[0],"max":[65],"type":"SCALAR","bufferView":3,"byteOffset":0}],"asset":{"generator":"obj2gltf","version":"2.0"},"buffers":[{"name":"135291","byteLength":2388,"uri":"data:application/octet-stream;base64,"}],"bufferViews":[{"name":"bufferView_0","buffer":0,"byteLength":792,"byteOffset":0,"byteStride":12,"target":34962},{"name":"bufferView_1","buffer":0,"byteLength":792,"byteOffset":792,"byteStride":12,"target":34962},{"name":"bufferView_2","buffer":0,"byteLength":528,"byteOffset":1584,"byteStride":8,"target":34962},{"name":"bufferView_3","buffer":0,"byteLength":276,"byteOffset":2112,"target":34963}],"materials":[{"name":"90484","pbrMetallicRoughness":{"baseColorFactor":[0.784313725490196,0.784313725490196,0.784313725490196,1],"metallicFactor":0,"roughnessFactor":1},"emissiveFactor":[0,0,0],"alphaMode":"OPAQUE","doubleSided":false}],"meshes":[{"name":"135291-Mesh","primitives":[{"attributes":{"POSITION":0,"NORMAL":1,"TEXCOORD_0":2},"indices":3,"material":0,"mode":4}]}],"nodes":[{"name":"135291","mesh":0}],"scene":0,"scenes":[{"nodes":[0]}]}