{"accessors":[{"name":"135205-Mesh_0_positions","componentType":5126,"count":80,"min":[-2.3164000511169434,11.699999809265137,4.30109977722168],"max":[3.0836000442504883,14.586899757385254,4.501100063323975],"type":"VEC3","bufferView":0,"byteOffset":0},{"name":"135205-Mesh_0_normals","componentType":5126,"count":80,"min":[-1,-1,-1],"max":[1,1,1],"type":"VEC3","bufferView":1,"byteOffset":0},{"name":"135205-Mesh_0_texcoords","componentType":5126,"count":80,"min":[-5.5,-1.8868999481201172],"max":[5.5,2.1047000885009766],"type":"VEC2","bufferView":2,"byteOffset":0},{"name":"135205-Mesh_0_indices","componentType":5123,"count":180,"min":[0],"max":[79],"type":"SCALAR","bufferView":3,"byteOffset":0}],"asset":{"generator":"obj2gltf","version":"2.0"},"buffers":[{"name":"135205","byteLength":2920,"uri":"data:application/octet-stream;base64,"}],"bufferViews":[{"name":"bufferView_0","buffer":0,"byteLength":960,"byteOffset":0,"byteStride":12,"target":34962},{"name":"bufferView_1","buffer":0,"byteLength":960,"byteOffset":960,"byteStride":12,"target":34962},{"name":"bufferView_2","buffer":0,"byteLength":640,"byteOffset":1920,"byteStride":8,"target":34962},{"name":"bufferView_3","buffer":0,"byteLength":360,"byteOffset":2560,"target":34963}],"materials":[{"name":"90484","pbrMetallicRoughness":{"baseColorFactor":[0.784313725490196,0.784313725490196,0.784313725490196,1],"metallicFactor":0,"roughnessFactor":1},"emissiveFactor":[0,0,0],"alphaMode":"OPAQUE","doubleSided":false}],"meshes":[{"name":"135205-Mesh","primitives":[{"attributes":{"POSITION":0,"NORMAL":1,"TEXCOORD_0":2},"indices":3,"material":0,"mode":4}]}],"nodes":[{"name":"135205","mesh":0}],"scene":0,"scenes":[{"nodes":[0]}]}