{"accessors":[{"name":"135207-Mesh_0_positions","componentType":5126,"count":132,"min":[-2.516400098800659,11.699999809265137,14.20110034942627],"max":[2.8835999965667725,14.960800170898438,14.401100158691406],"type":"VEC3","bufferView":0,"byteOffset":0},{"name":"135207-Mesh_0_normals","componentType":5126,"count":132,"min":[-1,-1,-1],"max":[1,1,1],"type":"VEC3","bufferView":1,"byteOffset":0},{"name":"135207-Mesh_0_texcoords","componentType":5126,"count":132,"min":[-5.5,-2.2607998847961426],"max":[5.5,2.235599994659424],"type":"VEC2","bufferView":2,"byteOffset":0},{"name":"135207-Mesh_0_indices","componentType":5123,"count":312,"min":[0],"max":[131],"type":"SCALAR","bufferView":3,"byteOffset":0}],"asset":{"generator":"obj2gltf","version":"2.0"},"buffers":[{"name":"135207","byteLength":4848,"uri":"data:application/octet-stream;base64,"}],"bufferViews":[{"name":"bufferView_0","buffer":0,"byteLength":1584,"byteOffset":0,"byteStride":12,"target":34962},{"name":"bufferView_1","buffer":0,"byteLength":1584,"byteOffset":1584,"byteStride":12,"target":34962},{"name":"bufferView_2","buffer":0,"byteLength":1056,"byteOffset":3168,"byteStride":8,"target":34962},{"name":"bufferView_3","buffer":0,"byteLength":624,"byteOffset":4224,"target":34963}],"materials":[{"name":"90484","pbrMetallicRoughness":{"baseColorFactor":[0.784313725490196,0.784313725490196,0.784313725490196,1],"metallicFactor":0,"roughnessFactor":1},"emissiveFactor":[0,0,0],"alphaMode":"OPAQUE","doubleSided":false}],"meshes":[{"name":"135207-Mesh","primitives":[{"attributes":{"POSITION":0,"NORMAL":1,"TEXCOORD_0":2},"indices":3,"material":0,"mode":4}]}],"nodes":[{"name":"135207","mesh":0}],"scene":0,"scenes":[{"nodes":[0]}]}