{"accessors":[{"name":"135204-Mesh_0_positions","componentType":5126,"count":50,"min":[-2.516400098800659,11.699999809265137,4.30109977722168],"max":[-2.3164000511169434,16.587200164794922,14.20110034942627],"type":"VEC3","bufferView":0,"byteOffset":0},{"name":"135204-Mesh_0_normals","componentType":5126,"count":50,"min":[-1,-1,-1],"max":[1,0.9367195963859558,1],"type":"VEC3","bufferView":1,"byteOffset":0},{"name":"135204-Mesh_0_texcoords","componentType":5126,"count":50,"min":[-10,-3.887200117111206],"max":[10,1.100000023841858],"type":"VEC2","bufferView":2,"byteOffset":0},{"name":"135204-Mesh_0_indices","componentType":5123,"count":108,"min":[0],"max":[49],"type":"SCALAR","bufferView":3,"byteOffset":0}],"asset":{"generator":"obj2gltf","version":"2.0"},"buffers":[{"name":"135204","byteLength":1816,"uri":"data:application/octet-stream;base64,"}],"bufferViews":[{"name":"bufferView_0","buffer":0,"byteLength":600,"byteOffset":0,"byteStride":12,"target":34962},{"name":"bufferView_1","buffer":0,"byteLength":600,"byteOffset":600,"byteStride":12,"target":34962},{"name":"bufferView_2","buffer":0,"byteLength":400,"byteOffset":1200,"byteStride":8,"target":34962},{"name":"bufferView_3","buffer":0,"byteLength":216,"byteOffset":1600,"target":34963}],"materials":[{"name":"90484","pbrMetallicRoughness":{"baseColorFactor":[0.784313725490196,0.784313725490196,0.784313725490196,1],"metallicFactor":0,"roughnessFactor":1},"emissiveFactor":[0,0,0],"alphaMode":"OPAQUE","doubleSided":false}],"meshes":[{"name":"135204-Mesh","primitives":[{"attributes":{"POSITION":0,"NORMAL":1,"TEXCOORD_0":2},"indices":3,"material":0,"mode":4}]}],"nodes":[{"name":"135204","mesh":0}],"scene":0,"scenes":[{"nodes":[0]}]}