{"accessors":[{"name":"135216-Mesh_0_positions","componentType":5126,"count":100,"min":[-2.3164000511169434,11.699999809265137,10.70110034942627],"max":[7.283599853515625,16.269399642944336,10.901100158691406],"type":"VEC3","bufferView":0,"byteOffset":0},{"name":"135216-Mesh_0_normals","componentType":5126,"count":100,"min":[-1,-1,-1],"max":[1,1,1],"type":"VEC3","bufferView":1,"byteOffset":0},{"name":"135216-Mesh_0_texcoords","componentType":5126,"count":100,"min":[-9.699999809265137,-3.5694000720977783],"max":[9.699999809265137,1.100000023841858],"type":"VEC2","bufferView":2,"byteOffset":0},{"name":"135216-Mesh_0_indices","componentType":5123,"count":216,"min":[0],"max":[99],"type":"SCALAR","bufferView":3,"byteOffset":0}],"asset":{"generator":"obj2gltf","version":"2.0"},"buffers":[{"name":"135216","byteLength":3632,"uri":"data:application/octet-stream;base64,"}],"bufferViews":[{"name":"bufferView_0","buffer":0,"byteLength":1200,"byteOffset":0,"byteStride":12,"target":34962},{"name":"bufferView_1","buffer":0,"byteLength":1200,"byteOffset":1200,"byteStride":12,"target":34962},{"name":"bufferView_2","buffer":0,"byteLength":800,"byteOffset":2400,"byteStride":8,"target":34962},{"name":"bufferView_3","buffer":0,"byteLength":432,"byteOffset":3200,"target":34963}],"materials":[{"name":"90484","pbrMetallicRoughness":{"baseColorFactor":[0.784313725490196,0.784313725490196,0.784313725490196,1],"metallicFactor":0,"roughnessFactor":1},"emissiveFactor":[0,0,0],"alphaMode":"OPAQUE","doubleSided":false}],"meshes":[{"name":"135216-Mesh","primitives":[{"attributes":{"POSITION":0,"NORMAL":1,"TEXCOORD_0":2},"indices":3,"material":0,"mode":4}]}],"nodes":[{"name":"135216","mesh":0}],"scene":0,"scenes":[{"nodes":[0]}]}