{"accessors":[{"name":"137265-Mesh_0_positions","componentType":5126,"count":44,"min":[2.783600091934204,0.21699999272823334,4.501100063323975],"max":[7.283599853515625,0.9498000144958496,10.70110034942627],"type":"VEC3","bufferView":0,"byteOffset":0},{"name":"137265-Mesh_0_normals","componentType":5126,"count":44,"min":[-1,0,-1],"max":[1,1,1],"type":"VEC3","bufferView":1,"byteOffset":0},{"name":"137265-Mesh_0_texcoords","componentType":5126,"count":44,"min":[0,-3.5],"max":[6.199999809265137,1],"type":"VEC2","bufferView":2,"byteOffset":0},{"name":"137265-Mesh_0_indices","componentType":5123,"count":132,"min":[0],"max":[43],"type":"SCALAR","bufferView":3,"byteOffset":0}],"asset":{"generator":"obj2gltf","version":"2.0"},"buffers":[{"name":"137265","byteLength":1672,"uri":"data:application/octet-stream;base64,"}],"bufferViews":[{"name":"bufferView_0","buffer":0,"byteLength":528,"byteOffset":0,"byteStride":12,"target":34962},{"name":"bufferView_1","buffer":0,"byteLength":528,"byteOffset":528,"byteStride":12,"target":34962},{"name":"bufferView_2","buffer":0,"byteLength":352,"byteOffset":1056,"byteStride":8,"target":34962},{"name":"bufferView_3","buffer":0,"byteLength":264,"byteOffset":1408,"target":34963}],"materials":[{"name":"79450","pbrMetallicRoughness":{"baseColorFactor":[0,0.450980392156863,0,1],"metallicFactor":0,"roughnessFactor":1},"emissiveFactor":[0,0,0],"alphaMode":"OPAQUE","doubleSided":false}],"meshes":[{"name":"137265-Mesh","primitives":[{"attributes":{"POSITION":0,"NORMAL":1,"TEXCOORD_0":2},"indices":3,"material":0,"mode":4}]}],"nodes":[{"name":"137265","mesh":0}],"scene":0,"scenes":[{"nodes":[0]}]}