{"accessors":[{"name":"137928-Mesh_0_positions","componentType":5126,"count":1272,"min":[-2.1164000034332275,0,16.671100616455078],"max":[1.1835999488830566,2.4000000953674316,16.73110008239746],"type":"VEC3","bufferView":0,"byteOffset":0},{"name":"137928-Mesh_0_normals","componentType":5126,"count":1272,"min":[-1,-1,-1],"max":[1,1,1],"type":"VEC3","bufferView":1,"byteOffset":0},{"name":"137928-Mesh_0_texcoords","componentType":5126,"count":1272,"min":[-1.649999976158142,-0.20000000298023224],"max":[1.649999976158142,2.200000047683716],"type":"VEC2","bufferView":2,"byteOffset":0},{"name":"137928-Mesh_0_indices","componentType":5123,"count":2280,"min":[0],"max":[1271],"type":"SCALAR","bufferView":3,"byteOffset":0}],"asset":{"generator":"obj2gltf","version":"2.0"},"buffers":[{"name":"137928","byteLength":45264,"uri":"data:application/octet-stream;base64,"}],"bufferViews":[{"name":"bufferView_0","buffer":0,"byteLength":15264,"byteOffset":0,"byteStride":12,"target":34962},{"name":"bufferView_1","buffer":0,"byteLength":15264,"byteOffset":15264,"byteStride":12,"target":34962},{"name":"bufferView_2","buffer":0,"byteLength":10176,"byteOffset":30528,"byteStride":8,"target":34962},{"name":"bufferView_3","buffer":0,"byteLength":4560,"byteOffset":40704,"target":34963}],"materials":[{"name":"158178","pbrMetallicRoughness":{"baseColorFactor":[0.67843137254902,0.729411764705882,0.811764705882353,1],"metallicFactor":0,"roughnessFactor":1},"emissiveFactor":[0,0,0],"alphaMode":"OPAQUE","doubleSided":false}],"meshes":[{"name":"137928-Mesh","primitives":[{"attributes":{"POSITION":0,"NORMAL":1,"TEXCOORD_0":2},"indices":3,"material":0,"mode":4}]}],"nodes":[{"name":"137928","mesh":0}],"scene":0,"scenes":[{"nodes":[0]}]}