{"accessors":[{"name":"139996-Mesh_0_positions","componentType":5126,"count":52,"min":[7.283599853515625,8.5,8.271100044250488],"max":[7.48360013961792,11.699999809265137,10.70110034942627],"type":"VEC3","bufferView":0,"byteOffset":0},{"name":"139996-Mesh_0_normals","componentType":5126,"count":52,"min":[-1,-1,-1],"max":[1,1,1],"type":"VEC3","bufferView":1,"byteOffset":0},{"name":"139996-Mesh_0_texcoords","componentType":5126,"count":52,"min":[-2.5299999713897705,-2.200000047683716],"max":[2.5299999713897705,1.100000023841858],"type":"VEC2","bufferView":2,"byteOffset":0},{"name":"139996-Mesh_0_indices","componentType":5123,"count":108,"min":[0],"max":[51],"type":"SCALAR","bufferView":3,"byteOffset":0}],"asset":{"generator":"obj2gltf","version":"2.0"},"buffers":[{"name":"139996","byteLength":1880,"uri":"data:application/octet-stream;base64,"}],"bufferViews":[{"name":"bufferView_0","buffer":0,"byteLength":624,"byteOffset":0,"byteStride":12,"target":34962},{"name":"bufferView_1","buffer":0,"byteLength":624,"byteOffset":624,"byteStride":12,"target":34962},{"name":"bufferView_2","buffer":0,"byteLength":416,"byteOffset":1248,"byteStride":8,"target":34962},{"name":"bufferView_3","buffer":0,"byteLength":216,"byteOffset":1664,"target":34963}],"materials":[{"name":"90484","pbrMetallicRoughness":{"baseColorFactor":[0.784313725490196,0.784313725490196,0.784313725490196,1],"metallicFactor":0,"roughnessFactor":1},"emissiveFactor":[0,0,0],"alphaMode":"OPAQUE","doubleSided":false}],"meshes":[{"name":"139996-Mesh","primitives":[{"attributes":{"POSITION":0,"NORMAL":1,"TEXCOORD_0":2},"indices":3,"material":0,"mode":4}]}],"nodes":[{"name":"139996","mesh":0}],"scene":0,"scenes":[{"nodes":[0]}]}