{"accessors":[{"name":"144296-Mesh_0_positions","componentType":5126,"count":12,"min":[-2.396399974822998,5,3.7011001110076904],"max":[3.0836000442504883,5.800000190734863,3.8210999965667725],"type":"VEC3","bufferView":0,"byteOffset":0},{"name":"144296-Mesh_0_normals","componentType":5126,"count":12,"min":[0,0,0],"max":[0,1,1],"type":"VEC3","bufferView":1,"byteOffset":0},{"name":"144296-Mesh_0_texcoords","componentType":5126,"count":12,"min":[0.05999999865889549,0.5],"max":[5.539999961853027,1.2999999523162842],"type":"VEC2","bufferView":2,"byteOffset":0},{"name":"144296-Mesh_0_indices","componentType":5123,"count":24,"min":[0],"max":[11],"type":"SCALAR","bufferView":3,"byteOffset":0},{"name":"144296-Mesh_1_positions","componentType":5126,"count":22,"min":[-2.396399974822998,5,3.7011001110076904],"max":[3.0836000442504883,5.800000190734863,3.8210999965667725],"type":"VEC3","bufferView":0,"byteOffset":144},{"name":"144296-Mesh_1_normals","componentType":5126,"count":22,"min":[-1,-1,-1],"max":[1,0,0],"type":"VEC3","bufferView":1,"byteOffset":144},{"name":"144296-Mesh_1_texcoords","componentType":5126,"count":22,"min":[-5.539999961853027,0.5],"max":[5.539999961853027,1.2999999523162842],"type":"VEC2","bufferView":2,"byteOffset":96},{"name":"144296-Mesh_1_indices","componentType":5123,"count":42,"min":[0],"max":[21],"type":"SCALAR","bufferView":3,"byteOffset":48}],"asset":{"generator":"obj2gltf","version":"2.0"},"buffers":[{"name":"144296","byteLength":1220,"uri":"data:application/octet-stream;base64,"}],"bufferViews":[{"name":"bufferView_0","buffer":0,"byteLength":408,"byteOffset":0,"byteStride":12,"target":34962},{"name":"bufferView_1","buffer":0,"byteLength":408,"byteOffset":408,"byteStride":12,"target":34962},{"name":"bufferView_2","buffer":0,"byteLength":272,"byteOffset":816,"byteStride":8,"target":34962},{"name":"bufferView_3","buffer":0,"byteLength":132,"byteOffset":1088,"target":34963}],"materials":[{"name":"197629","pbrMetallicRoughness":{"baseColorFactor":[0.784313725490196,0.784313725490196,0.784313725490196,1],"metallicFactor":0,"roughnessFactor":1},"emissiveFactor":[0,0,0],"alphaMode":"OPAQUE","doubleSided":false},{"name":"31","pbrMetallicRoughness":{"baseColorFactor":[0.356862745098039,0.376470588235294,0.435294117647059,1],"metallicFactor":0,"roughnessFactor":1},"emissiveFactor":[0,0,0],"alphaMode":"OPAQUE","doubleSided":false}],"meshes":[{"name":"144296-Mesh","primitives":[{"attributes":{"POSITION":0,"NORMAL":1,"TEXCOORD_0":2},"indices":3,"material":0,"mode":4},{"attributes":{"POSITION":4,"NORMAL":5,"TEXCOORD_0":6},"indices":7,"material":1,"mode":4}]}],"nodes":[{"name":"144296","mesh":0}],"scene":0,"scenes":[{"nodes":[0]}]}