{"accessors":[{"name":"144336-Mesh_0_positions","componentType":5126,"count":8,"min":[2.963599920272827,5,3.8210999965667725],"max":[3.0836000442504883,5.800000190734863,4.30109977722168],"type":"VEC3","bufferView":0,"byteOffset":0},{"name":"144336-Mesh_0_normals","componentType":5126,"count":8,"min":[-1,0,0],"max":[0,1,0],"type":"VEC3","bufferView":1,"byteOffset":0},{"name":"144336-Mesh_0_texcoords","componentType":5126,"count":8,"min":[0.05999999865889549,0.5],"max":[0.5400000214576721,1.2999999523162842],"type":"VEC2","bufferView":2,"byteOffset":0},{"name":"144336-Mesh_0_indices","componentType":5123,"count":12,"min":[0],"max":[7],"type":"SCALAR","bufferView":3,"byteOffset":0},{"name":"144336-Mesh_1_positions","componentType":5126,"count":20,"min":[2.963599920272827,5,3.8210999965667725],"max":[3.0836000442504883,5.800000190734863,4.30109977722168],"type":"VEC3","bufferView":0,"byteOffset":96},{"name":"144336-Mesh_1_normals","componentType":5126,"count":20,"min":[0,-1,-1],"max":[1,0,1],"type":"VEC3","bufferView":1,"byteOffset":96},{"name":"144336-Mesh_1_texcoords","componentType":5126,"count":20,"min":[-0.5400000214576721,0.5],"max":[0.5400000214576721,1.2999999523162842],"type":"VEC2","bufferView":2,"byteOffset":64},{"name":"144336-Mesh_1_indices","componentType":5123,"count":36,"min":[0],"max":[19],"type":"SCALAR","bufferView":3,"byteOffset":24}],"asset":{"generator":"obj2gltf","version":"2.0"},"buffers":[{"name":"144336","byteLength":992,"uri":"data:application/octet-stream;base64,"}],"bufferViews":[{"name":"bufferView_0","buffer":0,"byteLength":336,"byteOffset":0,"byteStride":12,"target":34962},{"name":"bufferView_1","buffer":0,"byteLength":336,"byteOffset":336,"byteStride":12,"target":34962},{"name":"bufferView_2","buffer":0,"byteLength":224,"byteOffset":672,"byteStride":8,"target":34962},{"name":"bufferView_3","buffer":0,"byteLength":96,"byteOffset":896,"target":34963}],"materials":[{"name":"197629","pbrMetallicRoughness":{"baseColorFactor":[0.784313725490196,0.784313725490196,0.784313725490196,1],"metallicFactor":0,"roughnessFactor":1},"emissiveFactor":[0,0,0],"alphaMode":"OPAQUE","doubleSided":false},{"name":"31","pbrMetallicRoughness":{"baseColorFactor":[0.356862745098039,0.376470588235294,0.435294117647059,1],"metallicFactor":0,"roughnessFactor":1},"emissiveFactor":[0,0,0],"alphaMode":"OPAQUE","doubleSided":false}],"meshes":[{"name":"144336-Mesh","primitives":[{"attributes":{"POSITION":0,"NORMAL":1,"TEXCOORD_0":2},"indices":3,"material":0,"mode":4},{"attributes":{"POSITION":4,"NORMAL":5,"TEXCOORD_0":6},"indices":7,"material":1,"mode":4}]}],"nodes":[{"name":"144336","mesh":0}],"scene":0,"scenes":[{"nodes":[0]}]}