{"accessors":[{"name":"144508-Mesh_0_positions","componentType":5126,"count":94,"min":[-2.516400098800659,-0.20000000298023224,3.3810999393463135],"max":[-2.396399974822998,9.5,4.30109977722168],"type":"VEC3","bufferView":0,"byteOffset":0},{"name":"144508-Mesh_0_normals","componentType":5126,"count":94,"min":[-1,-1,-1],"max":[1,1,1],"type":"VEC3","bufferView":1,"byteOffset":0},{"name":"144508-Mesh_0_texcoords","componentType":5126,"count":94,"min":[-1.0199999809265137,-8.5],"max":[1.0199999809265137,1.2000000476837158],"type":"VEC2","bufferView":2,"byteOffset":0},{"name":"144508-Mesh_0_indices","componentType":5123,"count":204,"min":[0],"max":[93],"type":"SCALAR","bufferView":3,"byteOffset":0}],"asset":{"generator":"obj2gltf","version":"2.0"},"buffers":[{"name":"144508","byteLength":3416,"uri":"data:application/octet-stream;base64,"}],"bufferViews":[{"name":"bufferView_0","buffer":0,"byteLength":1128,"byteOffset":0,"byteStride":12,"target":34962},{"name":"bufferView_1","buffer":0,"byteLength":1128,"byteOffset":1128,"byteStride":12,"target":34962},{"name":"bufferView_2","buffer":0,"byteLength":752,"byteOffset":2256,"byteStride":8,"target":34962},{"name":"bufferView_3","buffer":0,"byteLength":408,"byteOffset":3008,"target":34963}],"materials":[{"name":"90484","pbrMetallicRoughness":{"baseColorFactor":[0.784313725490196,0.784313725490196,0.784313725490196,1],"metallicFactor":0,"roughnessFactor":1},"emissiveFactor":[0,0,0],"alphaMode":"OPAQUE","doubleSided":false}],"meshes":[{"name":"144508-Mesh","primitives":[{"attributes":{"POSITION":0,"NORMAL":1,"TEXCOORD_0":2},"indices":3,"material":0,"mode":4}]}],"nodes":[{"name":"144508","mesh":0}],"scene":0,"scenes":[{"nodes":[0]}]}