{"accessors":[{"name":"144768-Mesh_0_positions","componentType":5126,"count":34,"min":[3.0836000442504883,11.300000190734863,4.30109977722168],"max":[7.48360013961792,11.699999809265137,4.501100063323975],"type":"VEC3","bufferView":0,"byteOffset":0},{"name":"144768-Mesh_0_normals","componentType":5126,"count":34,"min":[-1,-1,-1],"max":[1,1,1],"type":"VEC3","bufferView":1,"byteOffset":0},{"name":"144768-Mesh_0_texcoords","componentType":5126,"count":34,"min":[-4.300000190734863,0.8999999761581421],"max":[4.300000190734863,1.399999976158142],"type":"VEC2","bufferView":2,"byteOffset":0},{"name":"144768-Mesh_0_indices","componentType":5123,"count":66,"min":[0],"max":[33],"type":"SCALAR","bufferView":3,"byteOffset":0}],"asset":{"generator":"obj2gltf","version":"2.0"},"buffers":[{"name":"144768","byteLength":1220,"uri":"data:application/octet-stream;base64,"}],"bufferViews":[{"name":"bufferView_0","buffer":0,"byteLength":408,"byteOffset":0,"byteStride":12,"target":34962},{"name":"bufferView_1","buffer":0,"byteLength":408,"byteOffset":408,"byteStride":12,"target":34962},{"name":"bufferView_2","buffer":0,"byteLength":272,"byteOffset":816,"byteStride":8,"target":34962},{"name":"bufferView_3","buffer":0,"byteLength":132,"byteOffset":1088,"target":34963}],"materials":[{"name":"54872","pbrMetallicRoughness":{"baseColorFactor":[0.909803921568627,0.909803921568627,0.909803921568627,1],"metallicFactor":0,"roughnessFactor":1},"emissiveFactor":[0,0,0],"alphaMode":"OPAQUE","doubleSided":false}],"meshes":[{"name":"144768-Mesh","primitives":[{"attributes":{"POSITION":0,"NORMAL":1,"TEXCOORD_0":2},"indices":3,"material":0,"mode":4}]}],"nodes":[{"name":"144768","mesh":0}],"scene":0,"scenes":[{"nodes":[0]}]}