{"accessors":[{"name":"145802-Mesh_0_positions","componentType":5126,"count":48,"min":[-2.516400098800659,14.5,4.001100063323975],"max":[3.0836000442504883,16.694000244140625,15.70110034942627],"type":"VEC3","bufferView":0,"byteOffset":0},{"name":"145802-Mesh_0_normals","componentType":5126,"count":48,"min":[-1,-1,-1],"max":[1,0.9367195963859558,1],"type":"VEC3","bufferView":1,"byteOffset":0},{"name":"145802-Mesh_0_texcoords","componentType":5126,"count":48,"min":[-15.70110034942627,-14.70110034942627],"max":[15.70110034942627,14.723899841308594],"type":"VEC2","bufferView":2,"byteOffset":0},{"name":"145802-Mesh_0_indices","componentType":5123,"count":84,"min":[0],"max":[47],"type":"SCALAR","bufferView":3,"byteOffset":0}],"asset":{"generator":"obj2gltf","version":"2.0"},"buffers":[{"name":"145802","byteLength":1704,"uri":"data:application/octet-stream;base64,"}],"bufferViews":[{"name":"bufferView_0","buffer":0,"byteLength":576,"byteOffset":0,"byteStride":12,"target":34962},{"name":"bufferView_1","buffer":0,"byteLength":576,"byteOffset":576,"byteStride":12,"target":34962},{"name":"bufferView_2","buffer":0,"byteLength":384,"byteOffset":1152,"byteStride":8,"target":34962},{"name":"bufferView_3","buffer":0,"byteLength":168,"byteOffset":1536,"target":34963}],"materials":[{"name":"54872","pbrMetallicRoughness":{"baseColorFactor":[0.909803921568627,0.909803921568627,0.909803921568627,1],"metallicFactor":0,"roughnessFactor":1},"emissiveFactor":[0,0,0],"alphaMode":"OPAQUE","doubleSided":false}],"meshes":[{"name":"145802-Mesh","primitives":[{"attributes":{"POSITION":0,"NORMAL":1,"TEXCOORD_0":2},"indices":3,"material":0,"mode":4}]}],"nodes":[{"name":"145802","mesh":0}],"scene":0,"scenes":[{"nodes":[0]}]}