{"accessors":[{"name":"147813-Mesh_0_positions","componentType":5126,"count":96,"min":[-2.0664000511169434,3.6500000953674316,16.681100845336914],"max":[1.1335999965667725,4.849999904632568,16.721099853515625],"type":"VEC3","bufferView":0,"byteOffset":0},{"name":"147813-Mesh_0_normals","componentType":5126,"count":96,"min":[-1,-1,-1],"max":[1,1,1],"type":"VEC3","bufferView":1,"byteOffset":0},{"name":"147813-Mesh_0_texcoords","componentType":5126,"count":96,"min":[-0.9846000075340271,-0.25],"max":[0.9846000075340271,1.0049999952316284],"type":"VEC2","bufferView":2,"byteOffset":0},{"name":"147813-Mesh_0_indices","componentType":5123,"count":144,"min":[0],"max":[95],"type":"SCALAR","bufferView":3,"byteOffset":0},{"name":"147813-Mesh_1_positions","componentType":5126,"count":192,"min":[-2.1164000034332275,3.5999999046325684,16.671100616455078],"max":[1.1835999488830566,4.900000095367432,16.73110008239746],"type":"VEC3","bufferView":0,"byteOffset":1152},{"name":"147813-Mesh_1_normals","componentType":5126,"count":192,"min":[-1,-1,-1],"max":[1,1,1],"type":"VEC3","bufferView":1,"byteOffset":1152},{"name":"147813-Mesh_1_texcoords","componentType":5126,"count":192,"min":[-1.034600019454956,-0.30000001192092896],"max":[1.034600019454956,1.0149999856948853],"type":"VEC2","bufferView":2,"byteOffset":768},{"name":"147813-Mesh_1_indices","componentType":5123,"count":384,"min":[0],"max":[191],"type":"SCALAR","bufferView":3,"byteOffset":288},{"name":"147813-Mesh_2_positions","componentType":5126,"count":48,"min":[-2.1914000511169434,3.5250000953674316,16.80109977722168],"max":[1.2585999965667725,4.974999904632568,16.861099243164062],"type":"VEC3","bufferView":0,"byteOffset":3456},{"name":"147813-Mesh_2_normals","componentType":5126,"count":48,"min":[-1,-1,-1],"max":[1,1,1],"type":"VEC3","bufferView":1,"byteOffset":3456},{"name":"147813-Mesh_2_texcoords","componentType":5126,"count":48,"min":[-5.224999904632568,-1.375],"max":[5.224999904632568,1.059999942779541],"type":"VEC2","bufferView":2,"byteOffset":2304},{"name":"147813-Mesh_2_indices","componentType":5123,"count":96,"min":[0],"max":[47],"type":"SCALAR","bufferView":3,"byteOffset":1056}],"asset":{"generator":"obj2gltf","version":"2.0"},"buffers":[{"name":"147813","byteLength":12000,"uri":"data:application/octet-stream;base64,"}],"bufferViews":[{"name":"bufferView_0","buffer":0,"byteLength":4032,"byteOffset":0,"byteStride":12,"target":34962},{"name":"bufferView_1","buffer":0,"byteLength":4032,"byteOffset":4032,"byteStride":12,"target":34962},{"name":"bufferView_2","buffer":0,"byteLength":2688,"byteOffset":8064,"byteStride":8,"target":34962},{"name":"bufferView_3","buffer":0,"byteLength":1248,"byteOffset":10752,"target":34963}],"materials":[{"name":"33","pbrMetallicRoughness":{"baseColorFactor":[0,0,1,0.25],"metallicFactor":0,"roughnessFactor":1},"emissiveFactor":[0,0,0],"alphaMode":"BLEND","doubleSided":true},{"name":"274500","pbrMetallicRoughness":{"baseColorFactor":[0.780392156862745,0.854901960784314,0.847058823529412,1],"metallicFactor":0,"roughnessFactor":1},"emissiveFactor":[0,0,0],"alphaMode":"OPAQUE","doubleSided":false},{"name":"274516","pbrMetallicRoughness":{"baseColorFactor":[0.858823529411765,0.858823529411765,0.858823529411765,1],"metallicFactor":0,"roughnessFactor":1},"emissiveFactor":[0,0,0],"alphaMode":"OPAQUE","doubleSided":false}],"meshes":[{"name":"147813-Mesh","primitives":[{"attributes":{"POSITION":0,"NORMAL":1,"TEXCOORD_0":2},"indices":3,"material":0,"mode":4},{"attributes":{"POSITION":4,"NORMAL":5,"TEXCOORD_0":6},"indices":7,"material":1,"mode":4},{"attributes":{"POSITION":8,"NORMAL":9,"TEXCOORD_0":10},"indices":11,"material":2,"mode":4}]}],"nodes":[{"name":"147813","mesh":0}],"scene":0,"scenes":[{"nodes":[0]}]}