{"accessors":[{"name":"148408-Mesh_0_positions","componentType":5126,"count":120,"min":[-2.0664000511169434,6.349999904632568,16.681100845336914],"max":[1.1335999965667725,8.050000190734863,16.721099853515625],"type":"VEC3","bufferView":0,"byteOffset":0},{"name":"148408-Mesh_0_normals","componentType":5126,"count":120,"min":[-1,-1,-1],"max":[1,1,1],"type":"VEC3","bufferView":1,"byteOffset":0},{"name":"148408-Mesh_0_texcoords","componentType":5126,"count":120,"min":[-2.2095999717712402,-1.75],"max":[2.2095999717712402,1.0049999952316284],"type":"VEC2","bufferView":2,"byteOffset":0},{"name":"148408-Mesh_0_indices","componentType":5123,"count":180,"min":[0],"max":[119],"type":"SCALAR","bufferView":3,"byteOffset":0},{"name":"148408-Mesh_1_positions","componentType":5126,"count":288,"min":[-2.1164000034332275,6.300000190734863,16.671100616455078],"max":[1.1835999488830566,8.100000381469727,16.73110008239746],"type":"VEC3","bufferView":0,"byteOffset":1440},{"name":"148408-Mesh_1_normals","componentType":5126,"count":288,"min":[-1,-1,-1],"max":[1,1,1],"type":"VEC3","bufferView":1,"byteOffset":1440},{"name":"148408-Mesh_1_texcoords","componentType":5126,"count":288,"min":[-2.2595999240875244,-1.7999999523162842],"max":[2.2595999240875244,1.0299999713897705],"type":"VEC2","bufferView":2,"byteOffset":960},{"name":"148408-Mesh_1_indices","componentType":5123,"count":600,"min":[0],"max":[287],"type":"SCALAR","bufferView":3,"byteOffset":360},{"name":"148408-Mesh_2_positions","componentType":5126,"count":48,"min":[-2.1914000511169434,6.224999904632568,16.80109977722168],"max":[1.2585999965667725,8.175000190734863,16.861099243164062],"type":"VEC3","bufferView":0,"byteOffset":4896},{"name":"148408-Mesh_2_normals","componentType":5126,"count":48,"min":[-1,-1,-1],"max":[1,1,1],"type":"VEC3","bufferView":1,"byteOffset":4896},{"name":"148408-Mesh_2_texcoords","componentType":5126,"count":48,"min":[-5.224999904632568,-1.875],"max":[5.224999904632568,1.059999942779541],"type":"VEC2","bufferView":2,"byteOffset":3264},{"name":"148408-Mesh_2_indices","componentType":5123,"count":96,"min":[0],"max":[47],"type":"SCALAR","bufferView":3,"byteOffset":1560}],"asset":{"generator":"obj2gltf","version":"2.0"},"buffers":[{"name":"148408","byteLength":16344,"uri":"data:application/octet-stream;base64,"}],"bufferViews":[{"name":"bufferView_0","buffer":0,"byteLength":5472,"byteOffset":0,"byteStride":12,"target":34962},{"name":"bufferView_1","buffer":0,"byteLength":5472,"byteOffset":5472,"byteStride":12,"target":34962},{"name":"bufferView_2","buffer":0,"byteLength":3648,"byteOffset":10944,"byteStride":8,"target":34962},{"name":"bufferView_3","buffer":0,"byteLength":1752,"byteOffset":14592,"target":34963}],"materials":[{"name":"33","pbrMetallicRoughness":{"baseColorFactor":[0,0,1,0.25],"metallicFactor":0,"roughnessFactor":1},"emissiveFactor":[0,0,0],"alphaMode":"BLEND","doubleSided":true},{"name":"274500","pbrMetallicRoughness":{"baseColorFactor":[0.780392156862745,0.854901960784314,0.847058823529412,1],"metallicFactor":0,"roughnessFactor":1},"emissiveFactor":[0,0,0],"alphaMode":"OPAQUE","doubleSided":false},{"name":"274516","pbrMetallicRoughness":{"baseColorFactor":[0.858823529411765,0.858823529411765,0.858823529411765,1],"metallicFactor":0,"roughnessFactor":1},"emissiveFactor":[0,0,0],"alphaMode":"OPAQUE","doubleSided":false}],"meshes":[{"name":"148408-Mesh","primitives":[{"attributes":{"POSITION":0,"NORMAL":1,"TEXCOORD_0":2},"indices":3,"material":0,"mode":4},{"attributes":{"POSITION":4,"NORMAL":5,"TEXCOORD_0":6},"indices":7,"material":1,"mode":4},{"attributes":{"POSITION":8,"NORMAL":9,"TEXCOORD_0":10},"indices":11,"material":2,"mode":4}]}],"nodes":[{"name":"148408","mesh":0}],"scene":0,"scenes":[{"nodes":[0]}]}