{"accessors":[{"name":"155338-Mesh_0_positions","componentType":5126,"count":34,"min":[-2.516400098800659,-0.10019999742507935,4.501100063323975],"max":[3.0836000442504883,0.9498000144958496,9.501099586486816],"type":"VEC3","bufferView":0,"byteOffset":0},{"name":"155338-Mesh_0_normals","componentType":5126,"count":34,"min":[0,0,-1],"max":[1,1,1],"type":"VEC3","bufferView":1,"byteOffset":0},{"name":"155338-Mesh_0_texcoords","componentType":5126,"count":34,"min":[0,-4.599999904632568],"max":[5.599999904632568,1],"type":"VEC2","bufferView":2,"byteOffset":0},{"name":"155338-Mesh_0_indices","componentType":5123,"count":96,"min":[0],"max":[33],"type":"SCALAR","bufferView":3,"byteOffset":0}],"asset":{"generator":"obj2gltf","version":"2.0"},"buffers":[{"name":"155338","byteLength":1280,"uri":"data:application/octet-stream;base64,"}],"bufferViews":[{"name":"bufferView_0","buffer":0,"byteLength":408,"byteOffset":0,"byteStride":12,"target":34962},{"name":"bufferView_1","buffer":0,"byteLength":408,"byteOffset":408,"byteStride":12,"target":34962},{"name":"bufferView_2","buffer":0,"byteLength":272,"byteOffset":816,"byteStride":8,"target":34962},{"name":"bufferView_3","buffer":0,"byteLength":192,"byteOffset":1088,"target":34963}],"materials":[{"name":"79450","pbrMetallicRoughness":{"baseColorFactor":[0,0.450980392156863,0,1],"metallicFactor":0,"roughnessFactor":1},"emissiveFactor":[0,0,0],"alphaMode":"OPAQUE","doubleSided":false}],"meshes":[{"name":"155338-Mesh","primitives":[{"attributes":{"POSITION":0,"NORMAL":1,"TEXCOORD_0":2},"indices":3,"material":0,"mode":4}]}],"nodes":[{"name":"155338","mesh":0}],"scene":0,"scenes":[{"nodes":[0]}]}