{"accessors":[{"name":"156458-Mesh_0_positions","componentType":5126,"count":26,"min":[2.5836000442504883,-0.20000000298023224,8.271100044250488],"max":[2.783600091934204,0.949999988079071,9.501099586486816],"type":"VEC3","bufferView":0,"byteOffset":0},{"name":"156458-Mesh_0_normals","componentType":5126,"count":26,"min":[-1,-1,-1],"max":[1,1,1],"type":"VEC3","bufferView":1,"byteOffset":0},{"name":"156458-Mesh_0_texcoords","componentType":5126,"count":26,"min":[-1.3300000429153442,0.05000000074505806],"max":[1.3300000429153442,1.2000000476837158],"type":"VEC2","bufferView":2,"byteOffset":0},{"name":"156458-Mesh_0_indices","componentType":5123,"count":42,"min":[0],"max":[25],"type":"SCALAR","bufferView":3,"byteOffset":0}],"asset":{"generator":"obj2gltf","version":"2.0"},"buffers":[{"name":"156458","byteLength":916,"uri":"data:application/octet-stream;base64,"}],"bufferViews":[{"name":"bufferView_0","buffer":0,"byteLength":312,"byteOffset":0,"byteStride":12,"target":34962},{"name":"bufferView_1","buffer":0,"byteLength":312,"byteOffset":312,"byteStride":12,"target":34962},{"name":"bufferView_2","buffer":0,"byteLength":208,"byteOffset":624,"byteStride":8,"target":34962},{"name":"bufferView_3","buffer":0,"byteLength":84,"byteOffset":832,"target":34963}],"materials":[{"name":"31","pbrMetallicRoughness":{"baseColorFactor":[0.356862745098039,0.376470588235294,0.435294117647059,1],"metallicFactor":0,"roughnessFactor":1},"emissiveFactor":[0,0,0],"alphaMode":"OPAQUE","doubleSided":false}],"meshes":[{"name":"156458-Mesh","primitives":[{"attributes":{"POSITION":0,"NORMAL":1,"TEXCOORD_0":2},"indices":3,"material":0,"mode":4}]}],"nodes":[{"name":"156458","mesh":0}],"scene":0,"scenes":[{"nodes":[0]}]}