{"accessors":[{"name":"156644-Mesh_0_positions","componentType":5126,"count":12,"min":[-2.516400098800659,0.5273000001907349,3.7011001110076904],"max":[7.48360013961792,0.6498000025749207,4.30109977722168],"type":"VEC3","bufferView":0,"byteOffset":0},{"name":"156644-Mesh_0_normals","componentType":5126,"count":12,"min":[-0.8944271802902222,0,-1],"max":[0,1,1],"type":"VEC3","bufferView":1,"byteOffset":0},{"name":"156644-Mesh_0_texcoords","componentType":5126,"count":12,"min":[0,-9],"max":[0.6000000238418579,1],"type":"VEC2","bufferView":2,"byteOffset":0},{"name":"156644-Mesh_0_indices","componentType":5123,"count":42,"min":[0],"max":[11],"type":"SCALAR","bufferView":3,"byteOffset":0}],"asset":{"generator":"obj2gltf","version":"2.0"},"buffers":[{"name":"156644","byteLength":468,"uri":"data:application/octet-stream;base64,"}],"bufferViews":[{"name":"bufferView_0","buffer":0,"byteLength":144,"byteOffset":0,"byteStride":12,"target":34962},{"name":"bufferView_1","buffer":0,"byteLength":144,"byteOffset":144,"byteStride":12,"target":34962},{"name":"bufferView_2","buffer":0,"byteLength":96,"byteOffset":288,"byteStride":8,"target":34962},{"name":"bufferView_3","buffer":0,"byteLength":84,"byteOffset":384,"target":34963}],"materials":[{"name":"79450","pbrMetallicRoughness":{"baseColorFactor":[0,0.450980392156863,0,1],"metallicFactor":0,"roughnessFactor":1},"emissiveFactor":[0,0,0],"alphaMode":"OPAQUE","doubleSided":false}],"meshes":[{"name":"156644-Mesh","primitives":[{"attributes":{"POSITION":0,"NORMAL":1,"TEXCOORD_0":2},"indices":3,"material":0,"mode":4}]}],"nodes":[{"name":"156644","mesh":0}],"scene":0,"scenes":[{"nodes":[0]}]}