{"accessors":[{"name":"156923-Mesh_0_positions","componentType":5126,"count":72,"min":[0.28360000252723694,6.349999904632568,4.381100177764893],"max":[2.1835999488830566,8.050000190734863,4.42110013961792],"type":"VEC3","bufferView":0,"byteOffset":0},{"name":"156923-Mesh_0_normals","componentType":5126,"count":72,"min":[-1,-1,-1],"max":[1,1,1],"type":"VEC3","bufferView":1,"byteOffset":0},{"name":"156923-Mesh_0_texcoords","componentType":5126,"count":72,"min":[-1.5595999956130981,-1.75],"max":[1.5595999956130981,1.0049999952316284],"type":"VEC2","bufferView":2,"byteOffset":0},{"name":"156923-Mesh_0_indices","componentType":5123,"count":108,"min":[0],"max":[71],"type":"SCALAR","bufferView":3,"byteOffset":0},{"name":"156923-Mesh_1_positions","componentType":5126,"count":168,"min":[0.23360000550746918,6.300000190734863,4.371099948883057],"max":[2.233599901199341,8.100000381469727,4.431099891662598],"type":"VEC3","bufferView":0,"byteOffset":864},{"name":"156923-Mesh_1_normals","componentType":5126,"count":168,"min":[-1,-1,-1],"max":[1,1,1],"type":"VEC3","bufferView":1,"byteOffset":864},{"name":"156923-Mesh_1_texcoords","componentType":5126,"count":168,"min":[-1.6095999479293823,-1.7999999523162842],"max":[1.6095999479293823,1.0299999713897705],"type":"VEC2","bufferView":2,"byteOffset":576},{"name":"156923-Mesh_1_indices","componentType":5123,"count":324,"min":[0],"max":[167],"type":"SCALAR","bufferView":3,"byteOffset":216},{"name":"156923-Mesh_2_positions","componentType":5126,"count":48,"min":[0.15860000252723694,6.224999904632568,4.241099834442139],"max":[2.3085999488830566,8.175000190734863,4.30109977722168],"type":"VEC3","bufferView":0,"byteOffset":2880},{"name":"156923-Mesh_2_normals","componentType":5126,"count":48,"min":[-1,-1,-1],"max":[1,1,1],"type":"VEC3","bufferView":1,"byteOffset":2880},{"name":"156923-Mesh_2_texcoords","componentType":5126,"count":48,"min":[-4.574999809265137,-1.875],"max":[4.574999809265137,1.059999942779541],"type":"VEC2","bufferView":2,"byteOffset":1920},{"name":"156923-Mesh_2_indices","componentType":5123,"count":96,"min":[0],"max":[47],"type":"SCALAR","bufferView":3,"byteOffset":864}],"asset":{"generator":"obj2gltf","version":"2.0"},"buffers":[{"name":"156923","byteLength":10272,"uri":"data:application/octet-stream;base64,"}],"bufferViews":[{"name":"bufferView_0","buffer":0,"byteLength":3456,"byteOffset":0,"byteStride":12,"target":34962},{"name":"bufferView_1","buffer":0,"byteLength":3456,"byteOffset":3456,"byteStride":12,"target":34962},{"name":"bufferView_2","buffer":0,"byteLength":2304,"byteOffset":6912,"byteStride":8,"target":34962},{"name":"bufferView_3","buffer":0,"byteLength":1056,"byteOffset":9216,"target":34963}],"materials":[{"name":"33","pbrMetallicRoughness":{"baseColorFactor":[0,0,1,0.25],"metallicFactor":0,"roughnessFactor":1},"emissiveFactor":[0,0,0],"alphaMode":"BLEND","doubleSided":true},{"name":"274500","pbrMetallicRoughness":{"baseColorFactor":[0.780392156862745,0.854901960784314,0.847058823529412,1],"metallicFactor":0,"roughnessFactor":1},"emissiveFactor":[0,0,0],"alphaMode":"OPAQUE","doubleSided":false},{"name":"274516","pbrMetallicRoughness":{"baseColorFactor":[0.858823529411765,0.858823529411765,0.858823529411765,1],"metallicFactor":0,"roughnessFactor":1},"emissiveFactor":[0,0,0],"alphaMode":"OPAQUE","doubleSided":false}],"meshes":[{"name":"156923-Mesh","primitives":[{"attributes":{"POSITION":0,"NORMAL":1,"TEXCOORD_0":2},"indices":3,"material":0,"mode":4},{"attributes":{"POSITION":4,"NORMAL":5,"TEXCOORD_0":6},"indices":7,"material":1,"mode":4},{"attributes":{"POSITION":8,"NORMAL":9,"TEXCOORD_0":10},"indices":11,"material":2,"mode":4}]}],"nodes":[{"name":"156923","mesh":0}],"scene":0,"scenes":[{"nodes":[0]}]}