{"accessors":[{"name":"157323-Mesh_0_positions","componentType":5126,"count":48,"min":[-1.8664000034332275,1.0499999523162842,4.381100177764893],"max":[-1.0664000511169434,1.9500000476837158,4.42110013961792],"type":"VEC3","bufferView":0,"byteOffset":0},{"name":"157323-Mesh_0_normals","componentType":5126,"count":48,"min":[-1,-1,-1],"max":[1,1,1],"type":"VEC3","bufferView":1,"byteOffset":0},{"name":"157323-Mesh_0_texcoords","componentType":5126,"count":48,"min":[-0.7971000075340271,0.05000000074505806],"max":[0.7971000075340271,1.0049999952316284],"type":"VEC2","bufferView":2,"byteOffset":0},{"name":"157323-Mesh_0_indices","componentType":5123,"count":72,"min":[0],"max":[47],"type":"SCALAR","bufferView":3,"byteOffset":0},{"name":"157323-Mesh_1_positions","componentType":5126,"count":96,"min":[-1.9163999557495117,1,4.371099948883057],"max":[-1.0163999795913696,2,4.431099891662598],"type":"VEC3","bufferView":0,"byteOffset":576},{"name":"157323-Mesh_1_normals","componentType":5126,"count":96,"min":[-1,-1,-1],"max":[1,1,1],"type":"VEC3","bufferView":1,"byteOffset":576},{"name":"157323-Mesh_1_texcoords","componentType":5126,"count":96,"min":[-0.847100019454956,0],"max":[0.847100019454956,1.0149999856948853],"type":"VEC2","bufferView":2,"byteOffset":384},{"name":"157323-Mesh_1_indices","componentType":5123,"count":192,"min":[0],"max":[95],"type":"SCALAR","bufferView":3,"byteOffset":144},{"name":"157323-Mesh_2_positions","componentType":5126,"count":48,"min":[-1.9914000034332275,0.925000011920929,4.241099834442139],"max":[-0.9413999915122986,2.075000047683716,4.30109977722168],"type":"VEC3","bufferView":0,"byteOffset":1728},{"name":"157323-Mesh_2_normals","componentType":5126,"count":48,"min":[-1,-1,-1],"max":[1,1,1],"type":"VEC3","bufferView":1,"byteOffset":1728},{"name":"157323-Mesh_2_texcoords","componentType":5126,"count":48,"min":[-4.025000095367432,-1.0750000476837158],"max":[4.025000095367432,1.059999942779541],"type":"VEC2","bufferView":2,"byteOffset":1152},{"name":"157323-Mesh_2_indices","componentType":5123,"count":96,"min":[0],"max":[47],"type":"SCALAR","bufferView":3,"byteOffset":528}],"asset":{"generator":"obj2gltf","version":"2.0"},"buffers":[{"name":"157323","byteLength":6864,"uri":"data:application/octet-stream;base64,"}],"bufferViews":[{"name":"bufferView_0","buffer":0,"byteLength":2304,"byteOffset":0,"byteStride":12,"target":34962},{"name":"bufferView_1","buffer":0,"byteLength":2304,"byteOffset":2304,"byteStride":12,"target":34962},{"name":"bufferView_2","buffer":0,"byteLength":1536,"byteOffset":4608,"byteStride":8,"target":34962},{"name":"bufferView_3","buffer":0,"byteLength":720,"byteOffset":6144,"target":34963}],"materials":[{"name":"33","pbrMetallicRoughness":{"baseColorFactor":[0,0,1,0.25],"metallicFactor":0,"roughnessFactor":1},"emissiveFactor":[0,0,0],"alphaMode":"BLEND","doubleSided":true},{"name":"274500","pbrMetallicRoughness":{"baseColorFactor":[0.780392156862745,0.854901960784314,0.847058823529412,1],"metallicFactor":0,"roughnessFactor":1},"emissiveFactor":[0,0,0],"alphaMode":"OPAQUE","doubleSided":false},{"name":"274516","pbrMetallicRoughness":{"baseColorFactor":[0.858823529411765,0.858823529411765,0.858823529411765,1],"metallicFactor":0,"roughnessFactor":1},"emissiveFactor":[0,0,0],"alphaMode":"OPAQUE","doubleSided":false}],"meshes":[{"name":"157323-Mesh","primitives":[{"attributes":{"POSITION":0,"NORMAL":1,"TEXCOORD_0":2},"indices":3,"material":0,"mode":4},{"attributes":{"POSITION":4,"NORMAL":5,"TEXCOORD_0":6},"indices":7,"material":1,"mode":4},{"attributes":{"POSITION":8,"NORMAL":9,"TEXCOORD_0":10},"indices":11,"material":2,"mode":4}]}],"nodes":[{"name":"157323","mesh":0}],"scene":0,"scenes":[{"nodes":[0]}]}