{"accessors":[{"name":"183870-Mesh_0_positions","componentType":5126,"count":24,"min":[0.3465999960899353,12.163000106811523,14.354100227355957],"max":[1.1205999851226807,13.836999893188477,14.366100311279297],"type":"VEC3","bufferView":0,"byteOffset":0},{"name":"183870-Mesh_0_normals","componentType":5126,"count":24,"min":[-1,-1,-1],"max":[1,1,1],"type":"VEC3","bufferView":1,"byteOffset":0},{"name":"183870-Mesh_0_texcoords","componentType":5126,"count":24,"min":[-0.9965999722480774,-1.0420000553131104],"max":[0.9965999722480774,1.0779999494552612],"type":"VEC2","bufferView":2,"byteOffset":0},{"name":"183870-Mesh_0_indices","componentType":5123,"count":36,"min":[0],"max":[23],"type":"SCALAR","bufferView":3,"byteOffset":0},{"name":"183870-Mesh_1_positions","componentType":5126,"count":132,"min":[0.28360000252723694,12.100000381469727,14.20110034942627],"max":[1.1835999488830566,13.899999618530273,14.401100158691406],"type":"VEC3","bufferView":0,"byteOffset":288},{"name":"183870-Mesh_1_normals","componentType":5126,"count":132,"min":[-1,-1,-1],"max":[1,1,1],"type":"VEC3","bufferView":1,"byteOffset":288},{"name":"183870-Mesh_1_texcoords","componentType":5126,"count":132,"min":[-1.0595999956130981,-1.1050000190734863],"max":[1.0595999956130981,1.1130000352859497],"type":"VEC2","bufferView":2,"byteOffset":192},{"name":"183870-Mesh_1_indices","componentType":5123,"count":288,"min":[0],"max":[131],"type":"SCALAR","bufferView":3,"byteOffset":72}],"asset":{"generator":"obj2gltf","version":"2.0"},"buffers":[{"name":"183870","byteLength":5640,"uri":"data:application/octet-stream;base64,"}],"bufferViews":[{"name":"bufferView_0","buffer":0,"byteLength":1872,"byteOffset":0,"byteStride":12,"target":34962},{"name":"bufferView_1","buffer":0,"byteLength":1872,"byteOffset":1872,"byteStride":12,"target":34962},{"name":"bufferView_2","buffer":0,"byteLength":1248,"byteOffset":3744,"byteStride":8,"target":34962},{"name":"bufferView_3","buffer":0,"byteLength":648,"byteOffset":4992,"target":34963}],"materials":[{"name":"33","pbrMetallicRoughness":{"baseColorFactor":[0,0,1,0.25],"metallicFactor":0,"roughnessFactor":1},"emissiveFactor":[0,0,0],"alphaMode":"BLEND","doubleSided":true},{"name":"141171","pbrMetallicRoughness":{"baseColorFactor":[0.87843137254902,0.698039215686274,0.494117647058824,1],"metallicFactor":0,"roughnessFactor":1},"emissiveFactor":[0,0,0],"alphaMode":"OPAQUE","doubleSided":false}],"meshes":[{"name":"183870-Mesh","primitives":[{"attributes":{"POSITION":0,"NORMAL":1,"TEXCOORD_0":2},"indices":3,"material":0,"mode":4},{"attributes":{"POSITION":4,"NORMAL":5,"TEXCOORD_0":6},"indices":7,"material":1,"mode":4}]}],"nodes":[{"name":"183870","mesh":0}],"scene":0,"scenes":[{"nodes":[0]}]}