{"accessors":[{"name":"188223-Mesh_0_positions","componentType":5126,"count":48,"min":[1.4836000204086304,8.5,15.401100158691406],"max":[2.8835999965667725,11.699999809265137,15.601099967956543],"type":"VEC3","bufferView":0,"byteOffset":0},{"name":"188223-Mesh_0_normals","componentType":5126,"count":48,"min":[-1,-1,-1],"max":[1,1,1],"type":"VEC3","bufferView":1,"byteOffset":0},{"name":"188223-Mesh_0_texcoords","componentType":5126,"count":48,"min":[-1.5,-2.200000047683716],"max":[1.5,1.100000023841858],"type":"VEC2","bufferView":2,"byteOffset":0},{"name":"188223-Mesh_0_indices","componentType":5123,"count":96,"min":[0],"max":[47],"type":"SCALAR","bufferView":3,"byteOffset":0}],"asset":{"generator":"obj2gltf","version":"2.0"},"buffers":[{"name":"188223","byteLength":1728,"uri":"data:application/octet-stream;base64,"}],"bufferViews":[{"name":"bufferView_0","buffer":0,"byteLength":576,"byteOffset":0,"byteStride":12,"target":34962},{"name":"bufferView_1","buffer":0,"byteLength":576,"byteOffset":576,"byteStride":12,"target":34962},{"name":"bufferView_2","buffer":0,"byteLength":384,"byteOffset":1152,"byteStride":8,"target":34962},{"name":"bufferView_3","buffer":0,"byteLength":192,"byteOffset":1536,"target":34963}],"materials":[{"name":"90484","pbrMetallicRoughness":{"baseColorFactor":[0.784313725490196,0.784313725490196,0.784313725490196,1],"metallicFactor":0,"roughnessFactor":1},"emissiveFactor":[0,0,0],"alphaMode":"OPAQUE","doubleSided":false}],"meshes":[{"name":"188223-Mesh","primitives":[{"attributes":{"POSITION":0,"NORMAL":1,"TEXCOORD_0":2},"indices":3,"material":0,"mode":4}]}],"nodes":[{"name":"188223","mesh":0}],"scene":0,"scenes":[{"nodes":[0]}]}