{"accessors":[{"name":"209760-Mesh_0_positions","componentType":5126,"count":56,"min":[3.0836000442504883,14.258600234985352,7.471099853515625],"max":[8.083600044250488,15,14.171099662780762],"type":"VEC3","bufferView":0,"byteOffset":0},{"name":"209760-Mesh_0_normals","componentType":5126,"count":56,"min":[-1,-0.7071067690849304,-1],"max":[1,0.7071067690849304,1],"type":"VEC3","bufferView":1,"byteOffset":0},{"name":"209760-Mesh_0_texcoords","componentType":5126,"count":56,"min":[-14.171099662780762,-5.131400108337402],"max":[14.171099662780762,11.120499610900879],"type":"VEC2","bufferView":2,"byteOffset":0},{"name":"209760-Mesh_0_indices","componentType":5123,"count":84,"min":[0],"max":[55],"type":"SCALAR","bufferView":3,"byteOffset":0}],"asset":{"generator":"obj2gltf","version":"2.0"},"buffers":[{"name":"209760","byteLength":1960,"uri":"data:application/octet-stream;base64,"}],"bufferViews":[{"name":"bufferView_0","buffer":0,"byteLength":672,"byteOffset":0,"byteStride":12,"target":34962},{"name":"bufferView_1","buffer":0,"byteLength":672,"byteOffset":672,"byteStride":12,"target":34962},{"name":"bufferView_2","buffer":0,"byteLength":448,"byteOffset":1344,"byteStride":8,"target":34962},{"name":"bufferView_3","buffer":0,"byteLength":168,"byteOffset":1792,"target":34963}],"materials":[{"name":"54872","pbrMetallicRoughness":{"baseColorFactor":[0.909803921568627,0.909803921568627,0.909803921568627,1],"metallicFactor":0,"roughnessFactor":1},"emissiveFactor":[0,0,0],"alphaMode":"OPAQUE","doubleSided":false}],"meshes":[{"name":"209760-Mesh","primitives":[{"attributes":{"POSITION":0,"NORMAL":1,"TEXCOORD_0":2},"indices":3,"material":0,"mode":4}]}],"nodes":[{"name":"209760","mesh":0}],"scene":0,"scenes":[{"nodes":[0]}]}