{"accessors":[{"name":"212115-Mesh_0_positions","componentType":5126,"count":32,"min":[5.86359977722168,1.0499999523162842,16.30109977722168],"max":[6.143599987030029,1.3700000047683716,17.201099395751953],"type":"VEC3","bufferView":0,"byteOffset":0},{"name":"212115-Mesh_0_normals","componentType":5126,"count":32,"min":[-1,-1,-1],"max":[1,1,1],"type":"VEC3","bufferView":1,"byteOffset":0},{"name":"212115-Mesh_0_texcoords","componentType":5126,"count":32,"min":[-0.14000000059604645,0.6800000071525574],"max":[0.8999999761581421,1.3200000524520874],"type":"VEC2","bufferView":2,"byteOffset":0},{"name":"212115-Mesh_0_indices","componentType":5123,"count":60,"min":[0],"max":[31],"type":"SCALAR","bufferView":3,"byteOffset":0},{"name":"212115-Mesh_1_positions","componentType":5126,"count":24,"min":[5.883600234985352,1.3700000047683716,16.30109977722168],"max":[6.123600006103516,4.5005998611450195,17.201099395751953],"type":"VEC3","bufferView":0,"byteOffset":384},{"name":"212115-Mesh_1_normals","componentType":5126,"count":24,"min":[-1,-1,-1],"max":[1,0.8660544753074646,1],"type":"VEC3","bufferView":1,"byteOffset":384},{"name":"212115-Mesh_1_texcoords","componentType":5126,"count":24,"min":[-1.638700008392334,-2.4505999088287354],"max":[1,1.1200000047683716],"type":"VEC2","bufferView":2,"byteOffset":256},{"name":"212115-Mesh_1_indices","componentType":5123,"count":36,"min":[0],"max":[23],"type":"SCALAR","bufferView":3,"byteOffset":120}],"asset":{"generator":"obj2gltf","version":"2.0"},"buffers":[{"name":"212115","byteLength":1984,"uri":"data:application/octet-stream;base64,"}],"bufferViews":[{"name":"bufferView_0","buffer":0,"byteLength":672,"byteOffset":0,"byteStride":12,"target":34962},{"name":"bufferView_1","buffer":0,"byteLength":672,"byteOffset":672,"byteStride":12,"target":34962},{"name":"bufferView_2","buffer":0,"byteLength":448,"byteOffset":1344,"byteStride":8,"target":34962},{"name":"bufferView_3","buffer":0,"byteLength":192,"byteOffset":1792,"target":34963}],"materials":[{"name":"90484","pbrMetallicRoughness":{"baseColorFactor":[0.784313725490196,0.784313725490196,0.784313725490196,1],"metallicFactor":0,"roughnessFactor":1},"emissiveFactor":[0,0,0],"alphaMode":"OPAQUE","doubleSided":false},{"name":"31","pbrMetallicRoughness":{"baseColorFactor":[0.356862745098039,0.376470588235294,0.435294117647059,1],"metallicFactor":0,"roughnessFactor":1},"emissiveFactor":[0,0,0],"alphaMode":"OPAQUE","doubleSided":false}],"meshes":[{"name":"212115-Mesh","primitives":[{"attributes":{"POSITION":0,"NORMAL":1,"TEXCOORD_0":2},"indices":3,"material":0,"mode":4},{"attributes":{"POSITION":4,"NORMAL":5,"TEXCOORD_0":6},"indices":7,"material":1,"mode":4}]}],"nodes":[{"name":"212115","mesh":0}],"scene":0,"scenes":[{"nodes":[0]}]}