{"accessors":[{"name":"213067-Mesh_0_positions","componentType":5126,"count":114,"min":[3.1835999488830566,-0.20000000298023224,16.30109977722168],"max":[5.883600234985352,1.0499999523162842,19.30109977722168],"type":"VEC3","bufferView":0,"byteOffset":0},{"name":"213067-Mesh_0_normals","componentType":5126,"count":114,"min":[-1,-1,-1],"max":[1,1,1],"type":"VEC3","bufferView":1,"byteOffset":0},{"name":"213067-Mesh_0_texcoords","componentType":5126,"count":114,"min":[-19.30109977722168,-18.30109977722168],"max":[19.30109977722168,20.30109977722168],"type":"VEC2","bufferView":2,"byteOffset":0},{"name":"213067-Mesh_0_indices","componentType":5123,"count":216,"min":[0],"max":[113],"type":"SCALAR","bufferView":3,"byteOffset":0}],"asset":{"generator":"obj2gltf","version":"2.0"},"buffers":[{"name":"213067","byteLength":4080,"uri":"data:application/octet-stream;base64,"}],"bufferViews":[{"name":"bufferView_0","buffer":0,"byteLength":1368,"byteOffset":0,"byteStride":12,"target":34962},{"name":"bufferView_1","buffer":0,"byteLength":1368,"byteOffset":1368,"byteStride":12,"target":34962},{"name":"bufferView_2","buffer":0,"byteLength":912,"byteOffset":2736,"byteStride":8,"target":34962},{"name":"bufferView_3","buffer":0,"byteLength":432,"byteOffset":3648,"target":34963}],"materials":[{"name":"241168","pbrMetallicRoughness":{"baseColorFactor":[0.282352941176471,0.474509803921569,0.509803921568627,1],"metallicFactor":0,"roughnessFactor":1},"emissiveFactor":[0,0,0],"alphaMode":"OPAQUE","doubleSided":false}],"meshes":[{"name":"213067-Mesh","primitives":[{"attributes":{"POSITION":0,"NORMAL":1,"TEXCOORD_0":2},"indices":3,"material":0,"mode":4}]}],"nodes":[{"name":"213067","mesh":0}],"scene":0,"scenes":[{"nodes":[0]}]}