{"accessors":[{"name":"214573-Mesh_0_positions","componentType":5126,"count":96,"min":[2.9235999584198,-0.20000000298023224,17.201099395751953],"max":[6.143599987030029,1.1699999570846558,19.421100616455078],"type":"VEC3","bufferView":0,"byteOffset":0},{"name":"214573-Mesh_0_normals","componentType":5126,"count":96,"min":[-1,-1,-1],"max":[1,1,1],"type":"VEC3","bufferView":1,"byteOffset":0},{"name":"214573-Mesh_0_texcoords","componentType":5126,"count":96,"min":[-19.421100616455078,-17.811500549316406],"max":[19.421100616455078,17.049299240112305],"type":"VEC2","bufferView":2,"byteOffset":0},{"name":"214573-Mesh_0_indices","componentType":5123,"count":168,"min":[0],"max":[95],"type":"SCALAR","bufferView":3,"byteOffset":0}],"asset":{"generator":"obj2gltf","version":"2.0"},"buffers":[{"name":"214573","byteLength":3408,"uri":"data:application/octet-stream;base64,"}],"bufferViews":[{"name":"bufferView_0","buffer":0,"byteLength":1152,"byteOffset":0,"byteStride":12,"target":34962},{"name":"bufferView_1","buffer":0,"byteLength":1152,"byteOffset":1152,"byteStride":12,"target":34962},{"name":"bufferView_2","buffer":0,"byteLength":768,"byteOffset":2304,"byteStride":8,"target":34962},{"name":"bufferView_3","buffer":0,"byteLength":336,"byteOffset":3072,"target":34963}],"materials":[{"name":"90484","pbrMetallicRoughness":{"baseColorFactor":[0.784313725490196,0.784313725490196,0.784313725490196,1],"metallicFactor":0,"roughnessFactor":1},"emissiveFactor":[0,0,0],"alphaMode":"OPAQUE","doubleSided":false}],"meshes":[{"name":"214573-Mesh","primitives":[{"attributes":{"POSITION":0,"NORMAL":1,"TEXCOORD_0":2},"indices":3,"material":0,"mode":4}]}],"nodes":[{"name":"214573","mesh":0}],"scene":0,"scenes":[{"nodes":[0]}]}