{"accessors":[{"name":"214809-Mesh_0_positions","componentType":5126,"count":42,"min":[3.234100103378296,3.75,16.30109977722168],"max":[6.123600006103516,4.616000175476074,17.60110092163086],"type":"VEC3","bufferView":0,"byteOffset":0},{"name":"214809-Mesh_0_normals","componentType":5126,"count":42,"min":[-1,-0.8660544753074646,-1],"max":[1,0.8660544753074646,1],"type":"VEC3","bufferView":1,"byteOffset":0},{"name":"214809-Mesh_0_texcoords","componentType":5126,"count":42,"min":[-17.60110092163086,1.684000015258789],"max":[17.60110092163086,17.01799964904785],"type":"VEC2","bufferView":2,"byteOffset":0},{"name":"214809-Mesh_0_indices","componentType":5123,"count":72,"min":[0],"max":[41],"type":"SCALAR","bufferView":3,"byteOffset":0}],"asset":{"generator":"obj2gltf","version":"2.0"},"buffers":[{"name":"214809","byteLength":1488,"uri":"data:application/octet-stream;base64,"}],"bufferViews":[{"name":"bufferView_0","buffer":0,"byteLength":504,"byteOffset":0,"byteStride":12,"target":34962},{"name":"bufferView_1","buffer":0,"byteLength":504,"byteOffset":504,"byteStride":12,"target":34962},{"name":"bufferView_2","buffer":0,"byteLength":336,"byteOffset":1008,"byteStride":8,"target":34962},{"name":"bufferView_3","buffer":0,"byteLength":144,"byteOffset":1344,"target":34963}],"materials":[{"name":"54872","pbrMetallicRoughness":{"baseColorFactor":[0.909803921568627,0.909803921568627,0.909803921568627,1],"metallicFactor":0,"roughnessFactor":1},"emissiveFactor":[0,0,0],"alphaMode":"OPAQUE","doubleSided":false}],"meshes":[{"name":"214809-Mesh","primitives":[{"attributes":{"POSITION":0,"NORMAL":1,"TEXCOORD_0":2},"indices":3,"material":0,"mode":4}]}],"nodes":[{"name":"214809","mesh":0}],"scene":0,"scenes":[{"nodes":[0]}]}