{"accessors":[{"name":"225154-Mesh_0_positions","componentType":5126,"count":30,"min":[2.8835999965667725,14.076600074768066,14.30109977722168],"max":[3.0836000442504883,14.923399925231934,15.401100158691406],"type":"VEC3","bufferView":0,"byteOffset":0},{"name":"225154-Mesh_0_normals","componentType":5126,"count":30,"min":[-1,-1,-1],"max":[1,0.9367195963859558,1],"type":"VEC3","bufferView":1,"byteOffset":0},{"name":"225154-Mesh_0_texcoords","componentType":5126,"count":30,"min":[-1.1289000511169434,-2.223400115966797],"max":[1.100000023841858,1.100000023841858],"type":"VEC2","bufferView":2,"byteOffset":0},{"name":"225154-Mesh_0_indices","componentType":5123,"count":54,"min":[0],"max":[29],"type":"SCALAR","bufferView":3,"byteOffset":0}],"asset":{"generator":"obj2gltf","version":"2.0"},"buffers":[{"name":"225154","byteLength":1068,"uri":"data:application/octet-stream;base64,"}],"bufferViews":[{"name":"bufferView_0","buffer":0,"byteLength":360,"byteOffset":0,"byteStride":12,"target":34962},{"name":"bufferView_1","buffer":0,"byteLength":360,"byteOffset":360,"byteStride":12,"target":34962},{"name":"bufferView_2","buffer":0,"byteLength":240,"byteOffset":720,"byteStride":8,"target":34962},{"name":"bufferView_3","buffer":0,"byteLength":108,"byteOffset":960,"target":34963}],"materials":[{"name":"90484","pbrMetallicRoughness":{"baseColorFactor":[0.784313725490196,0.784313725490196,0.784313725490196,1],"metallicFactor":0,"roughnessFactor":1},"emissiveFactor":[0,0,0],"alphaMode":"OPAQUE","doubleSided":false}],"meshes":[{"name":"225154-Mesh","primitives":[{"attributes":{"POSITION":0,"NORMAL":1,"TEXCOORD_0":2},"indices":3,"material":0,"mode":4}]}],"nodes":[{"name":"225154","mesh":0}],"scene":0,"scenes":[{"nodes":[0]}]}