{"accessors":[{"name":"226294-Mesh_0_positions","componentType":5126,"count":72,"min":[7.36359977722168,9.550000190734863,11.30109977722168],"max":[7.403600215911865,11.050000190734863,12.101099967956543],"type":"VEC3","bufferView":0,"byteOffset":0},{"name":"226294-Mesh_0_normals","componentType":5126,"count":72,"min":[-1,-1,-1],"max":[1,1,1],"type":"VEC3","bufferView":1,"byteOffset":0},{"name":"226294-Mesh_0_texcoords","componentType":5126,"count":72,"min":[-1.009600043296814,-1.5499999523162842],"max":[1.009600043296814,1.0049999952316284],"type":"VEC2","bufferView":2,"byteOffset":0},{"name":"226294-Mesh_0_indices","componentType":5123,"count":108,"min":[0],"max":[71],"type":"SCALAR","bufferView":3,"byteOffset":0},{"name":"226294-Mesh_1_positions","componentType":5126,"count":144,"min":[7.353600025177002,9.5,11.251099586486816],"max":[7.413599967956543,11.100000381469727,12.151100158691406],"type":"VEC3","bufferView":0,"byteOffset":864},{"name":"226294-Mesh_1_normals","componentType":5126,"count":144,"min":[-1,-1,-1],"max":[1,1,1],"type":"VEC3","bufferView":1,"byteOffset":864},{"name":"226294-Mesh_1_texcoords","componentType":5126,"count":144,"min":[-1.0595999956130981,-1.600000023841858],"max":[1.0595999956130981,1.0299999713897705],"type":"VEC2","bufferView":2,"byteOffset":576},{"name":"226294-Mesh_1_indices","componentType":5123,"count":288,"min":[0],"max":[143],"type":"SCALAR","bufferView":3,"byteOffset":216}],"asset":{"generator":"obj2gltf","version":"2.0"},"buffers":[{"name":"226294","byteLength":7704,"uri":"data:application/octet-stream;base64,"}],"bufferViews":[{"name":"bufferView_0","buffer":0,"byteLength":2592,"byteOffset":0,"byteStride":12,"target":34962},{"name":"bufferView_1","buffer":0,"byteLength":2592,"byteOffset":2592,"byteStride":12,"target":34962},{"name":"bufferView_2","buffer":0,"byteLength":1728,"byteOffset":5184,"byteStride":8,"target":34962},{"name":"bufferView_3","buffer":0,"byteLength":792,"byteOffset":6912,"target":34963}],"materials":[{"name":"33","pbrMetallicRoughness":{"baseColorFactor":[0,0,1,0.25],"metallicFactor":0,"roughnessFactor":1},"emissiveFactor":[0,0,0],"alphaMode":"BLEND","doubleSided":true},{"name":"274500","pbrMetallicRoughness":{"baseColorFactor":[0.780392156862745,0.854901960784314,0.847058823529412,1],"metallicFactor":0,"roughnessFactor":1},"emissiveFactor":[0,0,0],"alphaMode":"OPAQUE","doubleSided":false}],"meshes":[{"name":"226294-Mesh","primitives":[{"attributes":{"POSITION":0,"NORMAL":1,"TEXCOORD_0":2},"indices":3,"material":0,"mode":4},{"attributes":{"POSITION":4,"NORMAL":5,"TEXCOORD_0":6},"indices":7,"material":1,"mode":4}]}],"nodes":[{"name":"226294","mesh":0}],"scene":0,"scenes":[{"nodes":[0]}]}