{"accessors":[{"name":"227316-Mesh_0_positions","componentType":5126,"count":40,"min":[3.0836000442504883,14.399999618530273,8.071100234985352],"max":[7.48360013961792,15.199999809265137,8.271100044250488],"type":"VEC3","bufferView":0,"byteOffset":0},{"name":"227316-Mesh_0_normals","componentType":5126,"count":40,"min":[-1,-1,-1],"max":[1,1,1],"type":"VEC3","bufferView":1,"byteOffset":0},{"name":"227316-Mesh_0_texcoords","componentType":5126,"count":40,"min":[-4.400000095367432,0.20000000298023224],"max":[4.400000095367432,1.100000023841858],"type":"VEC2","bufferView":2,"byteOffset":0},{"name":"227316-Mesh_0_indices","componentType":5123,"count":84,"min":[0],"max":[39],"type":"SCALAR","bufferView":3,"byteOffset":0}],"asset":{"generator":"obj2gltf","version":"2.0"},"buffers":[{"name":"227316","byteLength":1448,"uri":"data:application/octet-stream;base64,"}],"bufferViews":[{"name":"bufferView_0","buffer":0,"byteLength":480,"byteOffset":0,"byteStride":12,"target":34962},{"name":"bufferView_1","buffer":0,"byteLength":480,"byteOffset":480,"byteStride":12,"target":34962},{"name":"bufferView_2","buffer":0,"byteLength":320,"byteOffset":960,"byteStride":8,"target":34962},{"name":"bufferView_3","buffer":0,"byteLength":168,"byteOffset":1280,"target":34963}],"materials":[{"name":"90484","pbrMetallicRoughness":{"baseColorFactor":[0.784313725490196,0.784313725490196,0.784313725490196,1],"metallicFactor":0,"roughnessFactor":1},"emissiveFactor":[0,0,0],"alphaMode":"OPAQUE","doubleSided":false}],"meshes":[{"name":"227316-Mesh","primitives":[{"attributes":{"POSITION":0,"NORMAL":1,"TEXCOORD_0":2},"indices":3,"material":0,"mode":4}]}],"nodes":[{"name":"227316","mesh":0}],"scene":0,"scenes":[{"nodes":[0]}]}