{"accessors":[{"name":"228253-Mesh_0_positions","componentType":5126,"count":84,"min":[2.853600025177002,11.699999809265137,16.07110023498535],"max":[7.513599872589111,12.75,16.331100463867188],"type":"VEC3","bufferView":0,"byteOffset":0},{"name":"228253-Mesh_0_normals","componentType":5126,"count":84,"min":[-1,-1,-1],"max":[1,1,1],"type":"VEC3","bufferView":1,"byteOffset":0},{"name":"228253-Mesh_0_texcoords","componentType":5126,"count":84,"min":[-3.299999952316284,0.7699999809265137],"max":[4.400000095367432,1.2300000190734863],"type":"VEC2","bufferView":2,"byteOffset":0},{"name":"228253-Mesh_0_indices","componentType":5123,"count":144,"min":[0],"max":[83],"type":"SCALAR","bufferView":3,"byteOffset":0},{"name":"228253-Mesh_1_positions","componentType":5126,"count":48,"min":[3.0836000442504883,11.819999694824219,16.10110092163086],"max":[7.283599853515625,12.630000114440918,16.30109977722168],"type":"VEC3","bufferView":0,"byteOffset":1008},{"name":"228253-Mesh_1_normals","componentType":5126,"count":48,"min":[-1,-1,-1],"max":[1,1,1],"type":"VEC3","bufferView":1,"byteOffset":1008},{"name":"228253-Mesh_1_texcoords","componentType":5126,"count":48,"min":[-4.300000190734863,0.07000000029802322],"max":[4.300000190734863,1.100000023841858],"type":"VEC2","bufferView":2,"byteOffset":672},{"name":"228253-Mesh_1_indices","componentType":5123,"count":72,"min":[0],"max":[47],"type":"SCALAR","bufferView":3,"byteOffset":288}],"asset":{"generator":"obj2gltf","version":"2.0"},"buffers":[{"name":"228253","byteLength":4656,"uri":"data:application/octet-stream;base64,"}],"bufferViews":[{"name":"bufferView_0","buffer":0,"byteLength":1584,"byteOffset":0,"byteStride":12,"target":34962},{"name":"bufferView_1","buffer":0,"byteLength":1584,"byteOffset":1584,"byteStride":12,"target":34962},{"name":"bufferView_2","buffer":0,"byteLength":1056,"byteOffset":3168,"byteStride":8,"target":34962},{"name":"bufferView_3","buffer":0,"byteLength":432,"byteOffset":4224,"target":34963}],"materials":[{"name":"54872","pbrMetallicRoughness":{"baseColorFactor":[0.909803921568627,0.909803921568627,0.909803921568627,1],"metallicFactor":0,"roughnessFactor":1},"emissiveFactor":[0,0,0],"alphaMode":"OPAQUE","doubleSided":false},{"name":"31","pbrMetallicRoughness":{"baseColorFactor":[0.356862745098039,0.376470588235294,0.435294117647059,1],"metallicFactor":0,"roughnessFactor":1},"emissiveFactor":[0,0,0],"alphaMode":"OPAQUE","doubleSided":false}],"meshes":[{"name":"228253-Mesh","primitives":[{"attributes":{"POSITION":0,"NORMAL":1,"TEXCOORD_0":2},"indices":3,"material":0,"mode":4},{"attributes":{"POSITION":4,"NORMAL":5,"TEXCOORD_0":6},"indices":7,"material":1,"mode":4}]}],"nodes":[{"name":"228253","mesh":0}],"scene":0,"scenes":[{"nodes":[0]}]}