{"accessors":[{"name":"235080-Mesh_0_positions","componentType":5126,"count":696,"min":[-1.7164000272750854,11.819999694824219,15.478599548339844],"max":[-0.6938999891281128,12.75,15.523599624633789],"type":"VEC3","bufferView":0,"byteOffset":0},{"name":"235080-Mesh_0_normals","componentType":5126,"count":696,"min":[-1,-1,-1],"max":[1,1,1],"type":"VEC3","bufferView":1,"byteOffset":0},{"name":"235080-Mesh_0_texcoords","componentType":5126,"count":696,"min":[-0.850600004196167,0],"max":[0.8799999952316284,1.3877999782562256],"type":"VEC2","bufferView":2,"byteOffset":0},{"name":"235080-Mesh_0_indices","componentType":5123,"count":1140,"min":[0],"max":[695],"type":"SCALAR","bufferView":3,"byteOffset":0}],"asset":{"generator":"obj2gltf","version":"2.0"},"buffers":[{"name":"235080","byteLength":24552,"uri":"data:application/octet-stream;base64,"}],"bufferViews":[{"name":"bufferView_0","buffer":0,"byteLength":8352,"byteOffset":0,"byteStride":12,"target":34962},{"name":"bufferView_1","buffer":0,"byteLength":8352,"byteOffset":8352,"byteStride":12,"target":34962},{"name":"bufferView_2","buffer":0,"byteLength":5568,"byteOffset":16704,"byteStride":8,"target":34962},{"name":"bufferView_3","buffer":0,"byteLength":2280,"byteOffset":22272,"target":34963}],"materials":[{"name":"default","pbrMetallicRoughness":{"baseColorFactor":[0.498039215686275,0.498039215686275,0.498039215686275,1],"metallicFactor":0,"roughnessFactor":1},"emissiveFactor":[0,0,0],"alphaMode":"OPAQUE","doubleSided":false}],"meshes":[{"name":"235080-Mesh","primitives":[{"attributes":{"POSITION":0,"NORMAL":1,"TEXCOORD_0":2},"indices":3,"material":0,"mode":4}]}],"nodes":[{"name":"235080","mesh":0}],"scene":0,"scenes":[{"nodes":[0]}]}