{"accessors":[{"name":"238653-Mesh_0_positions","componentType":5126,"count":672,"min":[4.183599948883057,11.9399995803833,16.188600540161133],"max":[5.183599948883057,12.75,16.213600158691406],"type":"VEC3","bufferView":0,"byteOffset":0},{"name":"238653-Mesh_0_normals","componentType":5126,"count":672,"min":[-1,-1,-1],"max":[1,1,1],"type":"VEC3","bufferView":1,"byteOffset":0},{"name":"238653-Mesh_0_texcoords","componentType":5126,"count":672,"min":[-0.850600004196167,0],"max":[0.850600004196167,1.3877999782562256],"type":"VEC2","bufferView":2,"byteOffset":0},{"name":"238653-Mesh_0_indices","componentType":5123,"count":1104,"min":[0],"max":[671],"type":"SCALAR","bufferView":3,"byteOffset":0}],"asset":{"generator":"obj2gltf","version":"2.0"},"buffers":[{"name":"238653","byteLength":23712,"uri":"data:application/octet-stream;base64,"}],"bufferViews":[{"name":"bufferView_0","buffer":0,"byteLength":8064,"byteOffset":0,"byteStride":12,"target":34962},{"name":"bufferView_1","buffer":0,"byteLength":8064,"byteOffset":8064,"byteStride":12,"target":34962},{"name":"bufferView_2","buffer":0,"byteLength":5376,"byteOffset":16128,"byteStride":8,"target":34962},{"name":"bufferView_3","buffer":0,"byteLength":2208,"byteOffset":21504,"target":34963}],"materials":[{"name":"default","pbrMetallicRoughness":{"baseColorFactor":[0.498039215686275,0.498039215686275,0.498039215686275,1],"metallicFactor":0,"roughnessFactor":1},"emissiveFactor":[0,0,0],"alphaMode":"OPAQUE","doubleSided":false}],"meshes":[{"name":"238653-Mesh","primitives":[{"attributes":{"POSITION":0,"NORMAL":1,"TEXCOORD_0":2},"indices":3,"material":0,"mode":4}]}],"nodes":[{"name":"238653","mesh":0}],"scene":0,"scenes":[{"nodes":[0]}]}