{"accessors":[{"name":"239284-Mesh_0_positions","componentType":5126,"count":36,"min":[7.033599853515625,12.050000190734863,10.901100158691406],"max":[7.48360013961792,12.149999618530273,13.571100234985352],"type":"VEC3","bufferView":0,"byteOffset":0},{"name":"239284-Mesh_0_normals","componentType":5126,"count":36,"min":[-1,-1,-1],"max":[1,1,1],"type":"VEC3","bufferView":1,"byteOffset":0},{"name":"239284-Mesh_0_texcoords","componentType":5126,"count":36,"min":[-13.571100234985352,-12.571100234985352],"max":[13.571100234985352,14.571100234985352],"type":"VEC2","bufferView":2,"byteOffset":0},{"name":"239284-Mesh_0_indices","componentType":5123,"count":60,"min":[0],"max":[35],"type":"SCALAR","bufferView":3,"byteOffset":0}],"asset":{"generator":"obj2gltf","version":"2.0"},"buffers":[{"name":"239284","byteLength":1272,"uri":"data:application/octet-stream;base64,"}],"bufferViews":[{"name":"bufferView_0","buffer":0,"byteLength":432,"byteOffset":0,"byteStride":12,"target":34962},{"name":"bufferView_1","buffer":0,"byteLength":432,"byteOffset":432,"byteStride":12,"target":34962},{"name":"bufferView_2","buffer":0,"byteLength":288,"byteOffset":864,"byteStride":8,"target":34962},{"name":"bufferView_3","buffer":0,"byteLength":120,"byteOffset":1152,"target":34963}],"materials":[{"name":"54872","pbrMetallicRoughness":{"baseColorFactor":[0.909803921568627,0.909803921568627,0.909803921568627,1],"metallicFactor":0,"roughnessFactor":1},"emissiveFactor":[0,0,0],"alphaMode":"OPAQUE","doubleSided":false}],"meshes":[{"name":"239284-Mesh","primitives":[{"attributes":{"POSITION":0,"NORMAL":1,"TEXCOORD_0":2},"indices":3,"material":0,"mode":4}]}],"nodes":[{"name":"239284","mesh":0}],"scene":0,"scenes":[{"nodes":[0]}]}