{"accessors":[{"name":"243427-Mesh_0_positions","componentType":5126,"count":5701,"min":[3.1835999488830566,3.8822999000549316,16.28660011291504],"max":[5.883600234985352,4.809899806976318,17.608699798583984],"type":"VEC3","bufferView":0,"byteOffset":0},{"name":"243427-Mesh_0_normals","componentType":5126,"count":5701,"min":[-1,-1,-1],"max":[1,1,1],"type":"VEC3","bufferView":1,"byteOffset":0},{"name":"243427-Mesh_0_texcoords","componentType":5126,"count":5701,"min":[-16.62529945373535,-15.617799758911133],"max":[16.62529945373535,1.7079999446868896],"type":"VEC2","bufferView":2,"byteOffset":0},{"name":"243427-Mesh_0_indices","componentType":5123,"count":21906,"min":[0],"max":[5700],"type":"SCALAR","bufferView":3,"byteOffset":0}],"asset":{"generator":"obj2gltf","version":"2.0"},"buffers":[{"name":"243427","byteLength":226244,"uri":"data:application/octet-stream;base64,"}],"bufferViews":[{"name":"bufferView_0","buffer":0,"byteLength":68412,"byteOffset":0,"byteStride":12,"target":34962},{"name":"bufferView_1","buffer":0,"byteLength":68412,"byteOffset":68412,"byteStride":12,"target":34962},{"name":"bufferView_2","buffer":0,"byteLength":45608,"byteOffset":136824,"byteStride":8,"target":34962},{"name":"bufferView_3","buffer":0,"byteLength":43812,"byteOffset":182432,"target":34963}],"materials":[{"name":"191881","pbrMetallicRoughness":{"baseColorFactor":[0.356862745098039,0.376470588235294,0.435294117647059,1],"metallicFactor":0,"roughnessFactor":1},"emissiveFactor":[0,0,0],"alphaMode":"OPAQUE","doubleSided":false}],"meshes":[{"name":"243427-Mesh","primitives":[{"attributes":{"POSITION":0,"NORMAL":1,"TEXCOORD_0":2},"indices":3,"material":0,"mode":4}]}],"nodes":[{"name":"243427","mesh":0}],"scene":0,"scenes":[{"nodes":[0]}]}