{"accessors":[{"name":"248802-Mesh_0_positions","componentType":5126,"count":9025,"min":[-2.501800060272217,8.298700332641602,15.586999893188477],"max":[1.3281999826431274,9.3996000289917,17.2091007232666],"type":"VEC3","bufferView":0,"byteOffset":0},{"name":"248802-Mesh_0_normals","componentType":5126,"count":9025,"min":[-1,-1,-1],"max":[1,1,1],"type":"VEC3","bufferView":1,"byteOffset":0},{"name":"248802-Mesh_0_texcoords","componentType":5126,"count":9025,"min":[-15.975299835205078,-14.96780014038086],"max":[15.975299835205078,1.871999979019165],"type":"VEC2","bufferView":2,"byteOffset":0},{"name":"248802-Mesh_0_indices","componentType":5123,"count":36444,"min":[0],"max":[9024],"type":"SCALAR","bufferView":3,"byteOffset":0}],"asset":{"generator":"obj2gltf","version":"2.0"},"buffers":[{"name":"248802","byteLength":361688,"uri":"data:application/octet-stream;base64,"}],"bufferViews":[{"name":"bufferView_0","buffer":0,"byteLength":108300,"byteOffset":0,"byteStride":12,"target":34962},{"name":"bufferView_1","buffer":0,"byteLength":108300,"byteOffset":108300,"byteStride":12,"target":34962},{"name":"bufferView_2","buffer":0,"byteLength":72200,"byteOffset":216600,"byteStride":8,"target":34962},{"name":"bufferView_3","buffer":0,"byteLength":72888,"byteOffset":288800,"target":34963}],"materials":[{"name":"191881","pbrMetallicRoughness":{"baseColorFactor":[0.356862745098039,0.376470588235294,0.435294117647059,1],"metallicFactor":0,"roughnessFactor":1},"emissiveFactor":[0,0,0],"alphaMode":"OPAQUE","doubleSided":false}],"meshes":[{"name":"248802-Mesh","primitives":[{"attributes":{"POSITION":0,"NORMAL":1,"TEXCOORD_0":2},"indices":3,"material":0,"mode":4}]}],"nodes":[{"name":"248802","mesh":0}],"scene":0,"scenes":[{"nodes":[0]}]}