{"accessors":[{"name":"253662-Mesh_0_positions","componentType":5126,"count":96,"min":[5.807600021362305,5.300000190734863,10.67609977722168],"max":[6.7596001625061035,7.47599983215332,10.92609977722168],"type":"VEC3","bufferView":0,"byteOffset":0},{"name":"253662-Mesh_0_normals","componentType":5126,"count":96,"min":[-1,-1,-1],"max":[1,1,1],"type":"VEC3","bufferView":1,"byteOffset":0},{"name":"253662-Mesh_0_texcoords","componentType":5126,"count":96,"min":[-2.609600067138672,-1.1759999990463257],"max":[2.609600067138672,1.024999976158142],"type":"VEC2","bufferView":2,"byteOffset":0},{"name":"253662-Mesh_0_indices","componentType":5123,"count":168,"min":[0],"max":[95],"type":"SCALAR","bufferView":3,"byteOffset":0},{"name":"253662-Mesh_1_positions","componentType":5126,"count":24,"min":[5.883600234985352,5.300000190734863,10.850099563598633],"max":[6.683599948883057,7.400000095367432,10.901100158691406],"type":"VEC3","bufferView":0,"byteOffset":1152},{"name":"253662-Mesh_1_normals","componentType":5126,"count":24,"min":[-1,-1,-1],"max":[1,1,1],"type":"VEC3","bufferView":1,"byteOffset":1152},{"name":"253662-Mesh_1_texcoords","componentType":5126,"count":24,"min":[-1.009600043296814,-1.100000023841858],"max":[1.009600043296814,1.100000023841858],"type":"VEC2","bufferView":2,"byteOffset":768},{"name":"253662-Mesh_1_indices","componentType":5123,"count":36,"min":[0],"max":[23],"type":"SCALAR","bufferView":3,"byteOffset":336}],"asset":{"generator":"obj2gltf","version":"2.0"},"buffers":[{"name":"253662","byteLength":4248,"uri":"data:application/octet-stream;base64,"}],"bufferViews":[{"name":"bufferView_0","buffer":0,"byteLength":1440,"byteOffset":0,"byteStride":12,"target":34962},{"name":"bufferView_1","buffer":0,"byteLength":1440,"byteOffset":1440,"byteStride":12,"target":34962},{"name":"bufferView_2","buffer":0,"byteLength":960,"byteOffset":2880,"byteStride":8,"target":34962},{"name":"bufferView_3","buffer":0,"byteLength":408,"byteOffset":3840,"target":34963}],"materials":[{"name":"50632","pbrMetallicRoughness":{"baseColorFactor":[0.462745098039216,0.274509803921569,0.2,1],"metallicFactor":0,"roughnessFactor":1},"emissiveFactor":[0,0,0],"alphaMode":"OPAQUE","doubleSided":false},{"name":"50633","pbrMetallicRoughness":{"baseColorFactor":[0.823529411764706,0.623529411764706,0.372549019607843,1],"metallicFactor":0,"roughnessFactor":1},"emissiveFactor":[0,0,0],"alphaMode":"OPAQUE","doubleSided":false}],"meshes":[{"name":"253662-Mesh","primitives":[{"attributes":{"POSITION":0,"NORMAL":1,"TEXCOORD_0":2},"indices":3,"material":0,"mode":4},{"attributes":{"POSITION":4,"NORMAL":5,"TEXCOORD_0":6},"indices":7,"material":1,"mode":4}]}],"nodes":[{"name":"253662","mesh":0}],"scene":0,"scenes":[{"nodes":[0]}]}