{"accessors":[{"name":"254182-Mesh_0_positions","componentType":5126,"count":1428,"min":[2.9586000442504883,8.949999809265137,4.106100082397461],"max":[6.23859977722168,9.40999984741211,4.3414998054504395],"type":"VEC3","bufferView":0,"byteOffset":0},{"name":"254182-Mesh_0_normals","componentType":5126,"count":1428,"min":[-1,-1,-1],"max":[1,1,1],"type":"VEC3","bufferView":1,"byteOffset":0},{"name":"254182-Mesh_0_texcoords","componentType":5126,"count":1428,"min":[-11.396100044250488,-10.396100044250488],"max":[11.396100044250488,12.396100044250488],"type":"VEC2","bufferView":2,"byteOffset":0},{"name":"254182-Mesh_0_indices","componentType":5123,"count":3504,"min":[0],"max":[1427],"type":"SCALAR","bufferView":3,"byteOffset":0}],"asset":{"generator":"obj2gltf","version":"2.0"},"buffers":[{"name":"254182","byteLength":52704,"uri":"data:application/octet-stream;base64,"}],"bufferViews":[{"name":"bufferView_0","buffer":0,"byteLength":17136,"byteOffset":0,"byteStride":12,"target":34962},{"name":"bufferView_1","buffer":0,"byteLength":17136,"byteOffset":17136,"byteStride":12,"target":34962},{"name":"bufferView_2","buffer":0,"byteLength":11424,"byteOffset":34272,"byteStride":8,"target":34962},{"name":"bufferView_3","buffer":0,"byteLength":7008,"byteOffset":45696,"target":34963}],"materials":[{"name":"197629","pbrMetallicRoughness":{"baseColorFactor":[0.784313725490196,0.784313725490196,0.784313725490196,1],"metallicFactor":0,"roughnessFactor":1},"emissiveFactor":[0,0,0],"alphaMode":"OPAQUE","doubleSided":false}],"meshes":[{"name":"254182-Mesh","primitives":[{"attributes":{"POSITION":0,"NORMAL":1,"TEXCOORD_0":2},"indices":3,"material":0,"mode":4}]}],"nodes":[{"name":"254182","mesh":0}],"scene":0,"scenes":[{"nodes":[0]}]}