{"accessors":[{"name":"257290-Mesh_0_positions","componentType":5126,"count":18,"min":[2.8835999965667725,8.5,12.70110034942627],"max":[7.283599853515625,11.699999809265137,12.901100158691406],"type":"VEC3","bufferView":0,"byteOffset":0},{"name":"257290-Mesh_0_normals","componentType":5126,"count":18,"min":[-1,0,-1],"max":[0,0,1],"type":"VEC3","bufferView":1,"byteOffset":0},{"name":"257290-Mesh_0_texcoords","componentType":5126,"count":18,"min":[-4.300000190734863,-2.200000047683716],"max":[4.300000190734863,1],"type":"VEC2","bufferView":2,"byteOffset":0},{"name":"257290-Mesh_0_indices","componentType":5123,"count":36,"min":[0],"max":[17],"type":"SCALAR","bufferView":3,"byteOffset":0},{"name":"257290-Mesh_1_positions","componentType":5126,"count":18,"min":[2.8835999965667725,8.5,12.70110034942627],"max":[7.283599853515625,11.699999809265137,12.901100158691406],"type":"VEC3","bufferView":0,"byteOffset":216},{"name":"257290-Mesh_1_normals","componentType":5126,"count":18,"min":[0,-1,0],"max":[1,1,0],"type":"VEC3","bufferView":1,"byteOffset":216},{"name":"257290-Mesh_1_texcoords","componentType":5126,"count":18,"min":[-0.10000000149011612,-2.200000047683716],"max":[4.300000190734863,1.100000023841858],"type":"VEC2","bufferView":2,"byteOffset":144},{"name":"257290-Mesh_1_indices","componentType":5123,"count":36,"min":[0],"max":[17],"type":"SCALAR","bufferView":3,"byteOffset":72}],"asset":{"generator":"obj2gltf","version":"2.0"},"buffers":[{"name":"257290","byteLength":1296,"uri":"data:application/octet-stream;base64,"}],"bufferViews":[{"name":"bufferView_0","buffer":0,"byteLength":432,"byteOffset":0,"byteStride":12,"target":34962},{"name":"bufferView_1","buffer":0,"byteLength":432,"byteOffset":432,"byteStride":12,"target":34962},{"name":"bufferView_2","buffer":0,"byteLength":288,"byteOffset":864,"byteStride":8,"target":34962},{"name":"bufferView_3","buffer":0,"byteLength":144,"byteOffset":1152,"target":34963}],"materials":[{"name":"90484","pbrMetallicRoughness":{"baseColorFactor":[0.784313725490196,0.784313725490196,0.784313725490196,1],"metallicFactor":0,"roughnessFactor":1},"emissiveFactor":[0,0,0],"alphaMode":"OPAQUE","doubleSided":false},{"name":"31","pbrMetallicRoughness":{"baseColorFactor":[0.356862745098039,0.376470588235294,0.435294117647059,1],"metallicFactor":0,"roughnessFactor":1},"emissiveFactor":[0,0,0],"alphaMode":"OPAQUE","doubleSided":false}],"meshes":[{"name":"257290-Mesh","primitives":[{"attributes":{"POSITION":0,"NORMAL":1,"TEXCOORD_0":2},"indices":3,"material":0,"mode":4},{"attributes":{"POSITION":4,"NORMAL":5,"TEXCOORD_0":6},"indices":7,"material":1,"mode":4}]}],"nodes":[{"name":"257290","mesh":0}],"scene":0,"scenes":[{"nodes":[0]}]}