{"accessors":[{"name":"262533-Mesh_0_positions","componentType":5126,"count":46,"min":[-2.516400098800659,8.5,15.501099586486816],"max":[-2.396399974822998,11.699999809265137,16.30109977722168],"type":"VEC3","bufferView":0,"byteOffset":0},{"name":"262533-Mesh_0_normals","componentType":5126,"count":46,"min":[-1,-1,-1],"max":[1,1,1],"type":"VEC3","bufferView":1,"byteOffset":0},{"name":"262533-Mesh_0_texcoords","componentType":5126,"count":46,"min":[-0.800000011920929,-2.200000047683716],"max":[0.800000011920929,1.059999942779541],"type":"VEC2","bufferView":2,"byteOffset":0},{"name":"262533-Mesh_0_indices","componentType":5123,"count":90,"min":[0],"max":[45],"type":"SCALAR","bufferView":3,"byteOffset":0}],"asset":{"generator":"obj2gltf","version":"2.0"},"buffers":[{"name":"262533","byteLength":1652,"uri":"data:application/octet-stream;base64,"}],"bufferViews":[{"name":"bufferView_0","buffer":0,"byteLength":552,"byteOffset":0,"byteStride":12,"target":34962},{"name":"bufferView_1","buffer":0,"byteLength":552,"byteOffset":552,"byteStride":12,"target":34962},{"name":"bufferView_2","buffer":0,"byteLength":368,"byteOffset":1104,"byteStride":8,"target":34962},{"name":"bufferView_3","buffer":0,"byteLength":180,"byteOffset":1472,"target":34963}],"materials":[{"name":"90484","pbrMetallicRoughness":{"baseColorFactor":[0.784313725490196,0.784313725490196,0.784313725490196,1],"metallicFactor":0,"roughnessFactor":1},"emissiveFactor":[0,0,0],"alphaMode":"OPAQUE","doubleSided":false}],"meshes":[{"name":"262533-Mesh","primitives":[{"attributes":{"POSITION":0,"NORMAL":1,"TEXCOORD_0":2},"indices":3,"material":0,"mode":4}]}],"nodes":[{"name":"262533","mesh":0}],"scene":0,"scenes":[{"nodes":[0]}]}