{"accessors":[{"name":"266882-Mesh_0_positions","componentType":5126,"count":100,"min":[-6.416399955749512,0,16.60110092163086],"max":[-2.716399908065796,5.300000190734863,16.80109977722168],"type":"VEC3","bufferView":0,"byteOffset":0},{"name":"266882-Mesh_0_normals","componentType":5126,"count":100,"min":[-1,-1,-1],"max":[1,1,1],"type":"VEC3","bufferView":1,"byteOffset":0},{"name":"266882-Mesh_0_texcoords","componentType":5126,"count":100,"min":[-3.799999952316284,-4.300000190734863],"max":[3.799999952316284,1.100000023841858],"type":"VEC2","bufferView":2,"byteOffset":0},{"name":"266882-Mesh_0_indices","componentType":5123,"count":204,"min":[0],"max":[99],"type":"SCALAR","bufferView":3,"byteOffset":0}],"asset":{"generator":"obj2gltf","version":"2.0"},"buffers":[{"name":"266882","byteLength":3608,"uri":"data:application/octet-stream;base64,"}],"bufferViews":[{"name":"bufferView_0","buffer":0,"byteLength":1200,"byteOffset":0,"byteStride":12,"target":34962},{"name":"bufferView_1","buffer":0,"byteLength":1200,"byteOffset":1200,"byteStride":12,"target":34962},{"name":"bufferView_2","buffer":0,"byteLength":800,"byteOffset":2400,"byteStride":8,"target":34962},{"name":"bufferView_3","buffer":0,"byteLength":408,"byteOffset":3200,"target":34963}],"materials":[{"name":"31","pbrMetallicRoughness":{"baseColorFactor":[0.356862745098039,0.376470588235294,0.435294117647059,1],"metallicFactor":0,"roughnessFactor":1},"emissiveFactor":[0,0,0],"alphaMode":"OPAQUE","doubleSided":false}],"meshes":[{"name":"266882-Mesh","primitives":[{"attributes":{"POSITION":0,"NORMAL":1,"TEXCOORD_0":2},"indices":3,"material":0,"mode":4}]}],"nodes":[{"name":"266882","mesh":0}],"scene":0,"scenes":[{"nodes":[0]}]}