{"accessors":[{"name":"266893-Mesh_0_positions","componentType":5126,"count":12,"min":[-4.416399955749512,-0.20000000298023224,6.67110013961792],"max":[-2.716399908065796,5.300000190734863,6.67110013961792],"type":"VEC3","bufferView":0,"byteOffset":0},{"name":"266893-Mesh_0_normals","componentType":5126,"count":12,"min":[0,0,-1],"max":[0,0,-1],"type":"VEC3","bufferView":1,"byteOffset":0},{"name":"266893-Mesh_0_texcoords","componentType":5126,"count":12,"min":[0.10000000149011612,-4.5],"max":[1.7999999523162842,1],"type":"VEC2","bufferView":2,"byteOffset":0},{"name":"266893-Mesh_0_indices","componentType":5123,"count":42,"min":[0],"max":[11],"type":"SCALAR","bufferView":3,"byteOffset":0},{"name":"266893-Mesh_1_positions","componentType":5126,"count":12,"min":[-4.416399955749512,-0.20000000298023224,6.871099948883057],"max":[-2.716399908065796,5.300000190734863,6.871099948883057],"type":"VEC3","bufferView":0,"byteOffset":144},{"name":"266893-Mesh_1_normals","componentType":5126,"count":12,"min":[0,0,1],"max":[0,0,1],"type":"VEC3","bufferView":1,"byteOffset":144},{"name":"266893-Mesh_1_texcoords","componentType":5126,"count":12,"min":[-1.7999999523162842,-4.5],"max":[-0.10000000149011612,1],"type":"VEC2","bufferView":2,"byteOffset":96},{"name":"266893-Mesh_1_indices","componentType":5123,"count":42,"min":[0],"max":[11],"type":"SCALAR","bufferView":3,"byteOffset":84},{"name":"266893-Mesh_2_positions","componentType":5126,"count":48,"min":[-4.416399955749512,-0.20000000298023224,6.67110013961792],"max":[-2.716399908065796,5.300000190734863,6.871099948883057],"type":"VEC3","bufferView":0,"byteOffset":288},{"name":"266893-Mesh_2_normals","componentType":5126,"count":48,"min":[-1,-1,0],"max":[1,1,0],"type":"VEC3","bufferView":1,"byteOffset":288},{"name":"266893-Mesh_2_texcoords","componentType":5126,"count":48,"min":[-0.10000000149011612,-4.5],"max":[1.7999999523162842,1.100000023841858],"type":"VEC2","bufferView":2,"byteOffset":192},{"name":"266893-Mesh_2_indices","componentType":5123,"count":72,"min":[0],"max":[47],"type":"SCALAR","bufferView":3,"byteOffset":168}],"asset":{"generator":"obj2gltf","version":"2.0"},"buffers":[{"name":"266893","byteLength":2616,"uri":"data:application/octet-stream;base64,"}],"bufferViews":[{"name":"bufferView_0","buffer":0,"byteLength":864,"byteOffset":0,"byteStride":12,"target":34962},{"name":"bufferView_1","buffer":0,"byteLength":864,"byteOffset":864,"byteStride":12,"target":34962},{"name":"bufferView_2","buffer":0,"byteLength":576,"byteOffset":1728,"byteStride":8,"target":34962},{"name":"bufferView_3","buffer":0,"byteLength":312,"byteOffset":2304,"target":34963}],"materials":[{"name":"90484","pbrMetallicRoughness":{"baseColorFactor":[0.784313725490196,0.784313725490196,0.784313725490196,1],"metallicFactor":0,"roughnessFactor":1},"emissiveFactor":[0,0,0],"alphaMode":"OPAQUE","doubleSided":false},{"name":"197629","pbrMetallicRoughness":{"baseColorFactor":[0.784313725490196,0.784313725490196,0.784313725490196,1],"metallicFactor":0,"roughnessFactor":1},"emissiveFactor":[0,0,0],"alphaMode":"OPAQUE","doubleSided":false},{"name":"31","pbrMetallicRoughness":{"baseColorFactor":[0.356862745098039,0.376470588235294,0.435294117647059,1],"metallicFactor":0,"roughnessFactor":1},"emissiveFactor":[0,0,0],"alphaMode":"OPAQUE","doubleSided":false}],"meshes":[{"name":"266893-Mesh","primitives":[{"attributes":{"POSITION":0,"NORMAL":1,"TEXCOORD_0":2},"indices":3,"material":0,"mode":4},{"attributes":{"POSITION":4,"NORMAL":5,"TEXCOORD_0":6},"indices":7,"material":1,"mode":4},{"attributes":{"POSITION":8,"NORMAL":9,"TEXCOORD_0":10},"indices":11,"material":2,"mode":4}]}],"nodes":[{"name":"266893","mesh":0}],"scene":0,"scenes":[{"nodes":[0]}]}