{"accessors":[{"name":"266879-Mesh_0_positions","componentType":5126,"count":56,"min":[-2.716399908065796,-0.20000000298023224,4.30109977722168],"max":[-2.516400098800659,5.300000190734863,16.80109977722168],"type":"VEC3","bufferView":0,"byteOffset":0},{"name":"266879-Mesh_0_normals","componentType":5126,"count":56,"min":[-1,-1,0],"max":[1,1,0],"type":"VEC3","bufferView":1,"byteOffset":0},{"name":"266879-Mesh_0_texcoords","componentType":5126,"count":56,"min":[-12.399999618530273,-4.5],"max":[12.399999618530273,1.100000023841858],"type":"VEC2","bufferView":2,"byteOffset":0},{"name":"266879-Mesh_0_indices","componentType":5123,"count":144,"min":[0],"max":[55],"type":"SCALAR","bufferView":3,"byteOffset":0},{"name":"266879-Mesh_1_positions","componentType":5126,"count":20,"min":[-2.716399908065796,-0.20000000298023224,4.30109977722168],"max":[-2.516400098800659,5.300000190734863,16.80109977722168],"type":"VEC3","bufferView":0,"byteOffset":672},{"name":"266879-Mesh_1_normals","componentType":5126,"count":20,"min":[0,-1,-1],"max":[0,0,1],"type":"VEC3","bufferView":1,"byteOffset":672},{"name":"266879-Mesh_1_texcoords","componentType":5126,"count":20,"min":[-0.10000000149011612,-4.5],"max":[4,1.100000023841858],"type":"VEC2","bufferView":2,"byteOffset":448},{"name":"266879-Mesh_1_indices","componentType":5123,"count":36,"min":[0],"max":[19],"type":"SCALAR","bufferView":3,"byteOffset":288}],"asset":{"generator":"obj2gltf","version":"2.0"},"buffers":[{"name":"266879","byteLength":2792,"uri":"data:application/octet-stream;base64,"}],"bufferViews":[{"name":"bufferView_0","buffer":0,"byteLength":912,"byteOffset":0,"byteStride":12,"target":34962},{"name":"bufferView_1","buffer":0,"byteLength":912,"byteOffset":912,"byteStride":12,"target":34962},{"name":"bufferView_2","buffer":0,"byteLength":608,"byteOffset":1824,"byteStride":8,"target":34962},{"name":"bufferView_3","buffer":0,"byteLength":360,"byteOffset":2432,"target":34963}],"materials":[{"name":"90484","pbrMetallicRoughness":{"baseColorFactor":[0.784313725490196,0.784313725490196,0.784313725490196,1],"metallicFactor":0,"roughnessFactor":1},"emissiveFactor":[0,0,0],"alphaMode":"OPAQUE","doubleSided":false},{"name":"31","pbrMetallicRoughness":{"baseColorFactor":[0.356862745098039,0.376470588235294,0.435294117647059,1],"metallicFactor":0,"roughnessFactor":1},"emissiveFactor":[0,0,0],"alphaMode":"OPAQUE","doubleSided":false}],"meshes":[{"name":"266879-Mesh","primitives":[{"attributes":{"POSITION":0,"NORMAL":1,"TEXCOORD_0":2},"indices":3,"material":0,"mode":4},{"attributes":{"POSITION":4,"NORMAL":5,"TEXCOORD_0":6},"indices":7,"material":1,"mode":4}]}],"nodes":[{"name":"266879","mesh":0}],"scene":0,"scenes":[{"nodes":[0]}]}