{"accessors":[{"name":"266870-Mesh_0_positions","componentType":5126,"count":24,"min":[-12.316399574279785,-0.04479999840259552,8.171099662780762],"max":[-4.416399955749512,0.9498000144958496,16.10110092163086],"type":"VEC3","bufferView":0,"byteOffset":0},{"name":"266870-Mesh_0_normals","componentType":5126,"count":24,"min":[0,0,-1],"max":[1,1,0],"type":"VEC3","bufferView":1,"byteOffset":0},{"name":"266870-Mesh_0_texcoords","componentType":5126,"count":24,"min":[0,-6.900000095367432],"max":[7.929999828338623,1],"type":"VEC2","bufferView":2,"byteOffset":0},{"name":"266870-Mesh_0_indices","componentType":5123,"count":78,"min":[0],"max":[23],"type":"SCALAR","bufferView":3,"byteOffset":0}],"asset":{"generator":"obj2gltf","version":"2.0"},"buffers":[{"name":"266870","byteLength":924,"uri":"data:application/octet-stream;base64,"}],"bufferViews":[{"name":"bufferView_0","buffer":0,"byteLength":288,"byteOffset":0,"byteStride":12,"target":34962},{"name":"bufferView_1","buffer":0,"byteLength":288,"byteOffset":288,"byteStride":12,"target":34962},{"name":"bufferView_2","buffer":0,"byteLength":192,"byteOffset":576,"byteStride":8,"target":34962},{"name":"bufferView_3","buffer":0,"byteLength":156,"byteOffset":768,"target":34963}],"materials":[{"name":"79450","pbrMetallicRoughness":{"baseColorFactor":[0,0.450980392156863,0,1],"metallicFactor":0,"roughnessFactor":1},"emissiveFactor":[0,0,0],"alphaMode":"OPAQUE","doubleSided":false}],"meshes":[{"name":"266870-Mesh","primitives":[{"attributes":{"POSITION":0,"NORMAL":1,"TEXCOORD_0":2},"indices":3,"material":0,"mode":4}]}],"nodes":[{"name":"266870","mesh":0}],"scene":0,"scenes":[{"nodes":[0]}]}