{"accessors":[{"name":"266919-Mesh_0_positions","componentType":5126,"count":84,"min":[-12.316399574279785,5.199999809265137,3.8210999965667725],"max":[-2.716399908065796,5.300000190734863,16.60110092163086],"type":"VEC3","bufferView":0,"byteOffset":0},{"name":"266919-Mesh_0_normals","componentType":5126,"count":84,"min":[-1,-1,-1],"max":[1,1,1],"type":"VEC3","bufferView":1,"byteOffset":0},{"name":"266919-Mesh_0_texcoords","componentType":5126,"count":84,"min":[-16.60110092163086,-6.283599853515625],"max":[7.283599853515625,8.283599853515625],"type":"VEC2","bufferView":2,"byteOffset":0},{"name":"266919-Mesh_0_indices","componentType":5123,"count":156,"min":[0],"max":[83],"type":"SCALAR","bufferView":3,"byteOffset":0}],"asset":{"generator":"obj2gltf","version":"2.0"},"buffers":[{"name":"266919","byteLength":3000,"uri":"data:application/octet-stream;base64,"}],"bufferViews":[{"name":"bufferView_0","buffer":0,"byteLength":1008,"byteOffset":0,"byteStride":12,"target":34962},{"name":"bufferView_1","buffer":0,"byteLength":1008,"byteOffset":1008,"byteStride":12,"target":34962},{"name":"bufferView_2","buffer":0,"byteLength":672,"byteOffset":2016,"byteStride":8,"target":34962},{"name":"bufferView_3","buffer":0,"byteLength":312,"byteOffset":2688,"target":34963}],"materials":[{"name":"54872","pbrMetallicRoughness":{"baseColorFactor":[0.909803921568627,0.909803921568627,0.909803921568627,1],"metallicFactor":0,"roughnessFactor":1},"emissiveFactor":[0,0,0],"alphaMode":"OPAQUE","doubleSided":false}],"meshes":[{"name":"266919-Mesh","primitives":[{"attributes":{"POSITION":0,"NORMAL":1,"TEXCOORD_0":2},"indices":3,"material":0,"mode":4}]}],"nodes":[{"name":"266919","mesh":0}],"scene":0,"scenes":[{"nodes":[0]}]}