{"accessors":[{"name":"266935-Mesh_0_positions","componentType":5126,"count":5292,"min":[-6.356400012969971,1.2050000429153442,9.521499633789062],"max":[-4.01639986038208,3.4993999004364014,9.600799560546875],"type":"VEC3","bufferView":0,"byteOffset":0},{"name":"266935-Mesh_0_normals","componentType":5126,"count":5292,"min":[-1,-1,-1],"max":[1,0.8660544753074646,1],"type":"VEC3","bufferView":1,"byteOffset":0},{"name":"266935-Mesh_0_texcoords","componentType":5126,"count":5292,"min":[-0.03959999978542328,-62.621299743652344],"max":[2.7441999912261963,23.787500381469727],"type":"VEC2","bufferView":2,"byteOffset":0},{"name":"266935-Mesh_0_indices","componentType":5123,"count":18132,"min":[0],"max":[5291],"type":"SCALAR","bufferView":3,"byteOffset":0}],"asset":{"generator":"obj2gltf","version":"2.0"},"buffers":[{"name":"266935","byteLength":205608,"uri":"data:application/octet-stream;base64,"}],"bufferViews":[{"name":"bufferView_0","buffer":0,"byteLength":63504,"byteOffset":0,"byteStride":12,"target":34962},{"name":"bufferView_1","buffer":0,"byteLength":63504,"byteOffset":63504,"byteStride":12,"target":34962},{"name":"bufferView_2","buffer":0,"byteLength":42336,"byteOffset":127008,"byteStride":8,"target":34962},{"name":"bufferView_3","buffer":0,"byteLength":36264,"byteOffset":169344,"target":34963}],"materials":[{"name":"default","pbrMetallicRoughness":{"baseColorFactor":[0.498039215686275,0.498039215686275,0.498039215686275,1],"metallicFactor":0,"roughnessFactor":1},"emissiveFactor":[0,0,0],"alphaMode":"OPAQUE","doubleSided":false}],"meshes":[{"name":"266935-Mesh","primitives":[{"attributes":{"POSITION":0,"NORMAL":1,"TEXCOORD_0":2},"indices":3,"material":0,"mode":4}]}],"nodes":[{"name":"266935","mesh":0}],"scene":0,"scenes":[{"nodes":[0]}]}