{"accessors":[{"name":"267038-Mesh_0_positions","componentType":5126,"count":48,"min":[-6.416399955749512,5.300000190734863,16.60110092163086],"max":[-2.516400098800659,8.54640007019043,16.80109977722168],"type":"VEC3","bufferView":0,"byteOffset":0},{"name":"267038-Mesh_0_normals","componentType":5126,"count":48,"min":[-1,-1,-1],"max":[1,1,1],"type":"VEC3","bufferView":1,"byteOffset":0},{"name":"267038-Mesh_0_texcoords","componentType":5126,"count":48,"min":[-4,-2.2464001178741455],"max":[4,1.100000023841858],"type":"VEC2","bufferView":2,"byteOffset":0},{"name":"267038-Mesh_0_indices","componentType":5123,"count":102,"min":[0],"max":[47],"type":"SCALAR","bufferView":3,"byteOffset":0},{"name":"267038-Mesh_1_positions","componentType":5126,"count":4,"min":[-2.516400098800659,5.300000190734863,16.60110092163086],"max":[-2.516400098800659,8.54640007019043,16.80109977722168],"type":"VEC3","bufferView":0,"byteOffset":576},{"name":"267038-Mesh_1_normals","componentType":5126,"count":4,"min":[1,0,0],"max":[1,0,0],"type":"VEC3","bufferView":1,"byteOffset":576},{"name":"267038-Mesh_1_texcoords","componentType":5126,"count":4,"min":[-1.2999999523162842,-2.2464001178741455],"max":[-1.100000023841858,1],"type":"VEC2","bufferView":2,"byteOffset":384},{"name":"267038-Mesh_1_indices","componentType":5123,"count":6,"min":[0],"max":[3],"type":"SCALAR","bufferView":3,"byteOffset":204}],"asset":{"generator":"obj2gltf","version":"2.0"},"buffers":[{"name":"267038","byteLength":1880,"uri":"data:application/octet-stream;base64,"}],"bufferViews":[{"name":"bufferView_0","buffer":0,"byteLength":624,"byteOffset":0,"byteStride":12,"target":34962},{"name":"bufferView_1","buffer":0,"byteLength":624,"byteOffset":624,"byteStride":12,"target":34962},{"name":"bufferView_2","buffer":0,"byteLength":416,"byteOffset":1248,"byteStride":8,"target":34962},{"name":"bufferView_3","buffer":0,"byteLength":216,"byteOffset":1664,"target":34963}],"materials":[{"name":"31","pbrMetallicRoughness":{"baseColorFactor":[0.356862745098039,0.376470588235294,0.435294117647059,1],"metallicFactor":0,"roughnessFactor":1},"emissiveFactor":[0,0,0],"alphaMode":"OPAQUE","doubleSided":false},{"name":"90484","pbrMetallicRoughness":{"baseColorFactor":[0.784313725490196,0.784313725490196,0.784313725490196,1],"metallicFactor":0,"roughnessFactor":1},"emissiveFactor":[0,0,0],"alphaMode":"OPAQUE","doubleSided":false}],"meshes":[{"name":"267038-Mesh","primitives":[{"attributes":{"POSITION":0,"NORMAL":1,"TEXCOORD_0":2},"indices":3,"material":0,"mode":4},{"attributes":{"POSITION":4,"NORMAL":5,"TEXCOORD_0":6},"indices":7,"material":1,"mode":4}]}],"nodes":[{"name":"267038","mesh":0}],"scene":0,"scenes":[{"nodes":[0]}]}