{"accessors":[{"name":"267077-Mesh_0_positions","componentType":5126,"count":12,"min":[-8.116399765014648,5.300000190734863,10.901100158691406],"max":[-7.916399955749512,8.5,12.901100158691406],"type":"VEC3","bufferView":0,"byteOffset":0},{"name":"267077-Mesh_0_normals","componentType":5126,"count":12,"min":[0,0,0],"max":[1,0,1],"type":"VEC3","bufferView":1,"byteOffset":0},{"name":"267077-Mesh_0_texcoords","componentType":5126,"count":12,"min":[-0.10000000149011612,-2.200000047683716],"max":[1.899999976158142,1],"type":"VEC2","bufferView":2,"byteOffset":0},{"name":"267077-Mesh_0_indices","componentType":5123,"count":24,"min":[0],"max":[11],"type":"SCALAR","bufferView":3,"byteOffset":0},{"name":"267077-Mesh_1_positions","componentType":5126,"count":10,"min":[-8.116399765014648,5.300000190734863,10.901100158691406],"max":[-8.116399765014648,8.5,12.901100158691406],"type":"VEC3","bufferView":0,"byteOffset":144},{"name":"267077-Mesh_1_normals","componentType":5126,"count":10,"min":[-1,0,0],"max":[-1,0,0],"type":"VEC3","bufferView":1,"byteOffset":144},{"name":"267077-Mesh_1_texcoords","componentType":5126,"count":10,"min":[-1.899999976158142,-2.200000047683716],"max":[0.10000000149011612,1],"type":"VEC2","bufferView":2,"byteOffset":96},{"name":"267077-Mesh_1_indices","componentType":5123,"count":24,"min":[0],"max":[9],"type":"SCALAR","bufferView":3,"byteOffset":48},{"name":"267077-Mesh_2_positions","componentType":5126,"count":30,"min":[-8.116399765014648,5.300000190734863,10.901100158691406],"max":[-7.916399955749512,8.5,12.901100158691406],"type":"VEC3","bufferView":0,"byteOffset":264},{"name":"267077-Mesh_2_normals","componentType":5126,"count":30,"min":[0,-1,-1],"max":[0,1,1],"type":"VEC3","bufferView":1,"byteOffset":264},{"name":"267077-Mesh_2_texcoords","componentType":5126,"count":30,"min":[-0.10000000149011612,-2.200000047683716],"max":[1.899999976158142,1.100000023841858],"type":"VEC2","bufferView":2,"byteOffset":176},{"name":"267077-Mesh_2_indices","componentType":5123,"count":48,"min":[0],"max":[29],"type":"SCALAR","bufferView":3,"byteOffset":96}],"asset":{"generator":"obj2gltf","version":"2.0"},"buffers":[{"name":"267077","byteLength":1856,"uri":"data:application/octet-stream;base64,"}],"bufferViews":[{"name":"bufferView_0","buffer":0,"byteLength":624,"byteOffset":0,"byteStride":12,"target":34962},{"name":"bufferView_1","buffer":0,"byteLength":624,"byteOffset":624,"byteStride":12,"target":34962},{"name":"bufferView_2","buffer":0,"byteLength":416,"byteOffset":1248,"byteStride":8,"target":34962},{"name":"bufferView_3","buffer":0,"byteLength":192,"byteOffset":1664,"target":34963}],"materials":[{"name":"197629","pbrMetallicRoughness":{"baseColorFactor":[0.784313725490196,0.784313725490196,0.784313725490196,1],"metallicFactor":0,"roughnessFactor":1},"emissiveFactor":[0,0,0],"alphaMode":"OPAQUE","doubleSided":false},{"name":"90484","pbrMetallicRoughness":{"baseColorFactor":[0.784313725490196,0.784313725490196,0.784313725490196,1],"metallicFactor":0,"roughnessFactor":1},"emissiveFactor":[0,0,0],"alphaMode":"OPAQUE","doubleSided":false},{"name":"31","pbrMetallicRoughness":{"baseColorFactor":[0.356862745098039,0.376470588235294,0.435294117647059,1],"metallicFactor":0,"roughnessFactor":1},"emissiveFactor":[0,0,0],"alphaMode":"OPAQUE","doubleSided":false}],"meshes":[{"name":"267077-Mesh","primitives":[{"attributes":{"POSITION":0,"NORMAL":1,"TEXCOORD_0":2},"indices":3,"material":0,"mode":4},{"attributes":{"POSITION":4,"NORMAL":5,"TEXCOORD_0":6},"indices":7,"material":1,"mode":4},{"attributes":{"POSITION":8,"NORMAL":9,"TEXCOORD_0":10},"indices":11,"material":2,"mode":4}]}],"nodes":[{"name":"267077","mesh":0}],"scene":0,"scenes":[{"nodes":[0]}]}