{"accessors":[{"name":"267076-Mesh_0_positions","componentType":5126,"count":28,"min":[-12.316399574279785,5.300000190734863,12.70110034942627],"max":[-8.116399765014648,8.5,12.901100158691406],"type":"VEC3","bufferView":0,"byteOffset":0},{"name":"267076-Mesh_0_normals","componentType":5126,"count":28,"min":[-1,-1,-1],"max":[1,1,0],"type":"VEC3","bufferView":1,"byteOffset":0},{"name":"267076-Mesh_0_texcoords","componentType":5126,"count":28,"min":[-0.10000000149011612,-2.200000047683716],"max":[4.300000190734863,1.100000023841858],"type":"VEC2","bufferView":2,"byteOffset":0},{"name":"267076-Mesh_0_indices","componentType":5123,"count":54,"min":[0],"max":[27],"type":"SCALAR","bufferView":3,"byteOffset":0},{"name":"267076-Mesh_1_positions","componentType":5126,"count":4,"min":[-12.316399574279785,5.300000190734863,12.901100158691406],"max":[-8.116399765014648,8.5,12.901100158691406],"type":"VEC3","bufferView":0,"byteOffset":336},{"name":"267076-Mesh_1_normals","componentType":5126,"count":4,"min":[0,0,1],"max":[0,0,1],"type":"VEC3","bufferView":1,"byteOffset":336},{"name":"267076-Mesh_1_texcoords","componentType":5126,"count":4,"min":[-4.300000190734863,-2.200000047683716],"max":[-0.10000000149011612,1],"type":"VEC2","bufferView":2,"byteOffset":224},{"name":"267076-Mesh_1_indices","componentType":5123,"count":6,"min":[0],"max":[3],"type":"SCALAR","bufferView":3,"byteOffset":108}],"asset":{"generator":"obj2gltf","version":"2.0"},"buffers":[{"name":"267076","byteLength":1144,"uri":"data:application/octet-stream;base64,"}],"bufferViews":[{"name":"bufferView_0","buffer":0,"byteLength":384,"byteOffset":0,"byteStride":12,"target":34962},{"name":"bufferView_1","buffer":0,"byteLength":384,"byteOffset":384,"byteStride":12,"target":34962},{"name":"bufferView_2","buffer":0,"byteLength":256,"byteOffset":768,"byteStride":8,"target":34962},{"name":"bufferView_3","buffer":0,"byteLength":120,"byteOffset":1024,"target":34963}],"materials":[{"name":"31","pbrMetallicRoughness":{"baseColorFactor":[0.356862745098039,0.376470588235294,0.435294117647059,1],"metallicFactor":0,"roughnessFactor":1},"emissiveFactor":[0,0,0],"alphaMode":"OPAQUE","doubleSided":false},{"name":"197629","pbrMetallicRoughness":{"baseColorFactor":[0.784313725490196,0.784313725490196,0.784313725490196,1],"metallicFactor":0,"roughnessFactor":1},"emissiveFactor":[0,0,0],"alphaMode":"OPAQUE","doubleSided":false}],"meshes":[{"name":"267076-Mesh","primitives":[{"attributes":{"POSITION":0,"NORMAL":1,"TEXCOORD_0":2},"indices":3,"material":0,"mode":4},{"attributes":{"POSITION":4,"NORMAL":5,"TEXCOORD_0":6},"indices":7,"material":1,"mode":4}]}],"nodes":[{"name":"267076","mesh":0}],"scene":0,"scenes":[{"nodes":[0]}]}