{"accessors":[{"name":"267042-Mesh_0_positions","componentType":5126,"count":44,"min":[-12.516400337219238,5.300000190734863,4.501100063323975],"max":[-12.316399574279785,8.5,10.70110034942627],"type":"VEC3","bufferView":0,"byteOffset":0},{"name":"267042-Mesh_0_normals","componentType":5126,"count":44,"min":[-1,-1,-1],"max":[0,1,1],"type":"VEC3","bufferView":1,"byteOffset":0},{"name":"267042-Mesh_0_texcoords","componentType":5126,"count":44,"min":[-0.10000000149011612,-2.200000047683716],"max":[6.300000190734863,1.100000023841858],"type":"VEC2","bufferView":2,"byteOffset":0},{"name":"267042-Mesh_0_indices","componentType":5123,"count":84,"min":[0],"max":[43],"type":"SCALAR","bufferView":3,"byteOffset":0},{"name":"267042-Mesh_1_positions","componentType":5126,"count":8,"min":[-12.316399574279785,5.300000190734863,4.501100063323975],"max":[-12.316399574279785,8.5,10.70110034942627],"type":"VEC3","bufferView":0,"byteOffset":528},{"name":"267042-Mesh_1_normals","componentType":5126,"count":8,"min":[1,0,0],"max":[1,0,0],"type":"VEC3","bufferView":1,"byteOffset":528},{"name":"267042-Mesh_1_texcoords","componentType":5126,"count":8,"min":[-6.300000190734863,-2.200000047683716],"max":[-0.10000000149011612,1],"type":"VEC2","bufferView":2,"byteOffset":352},{"name":"267042-Mesh_1_indices","componentType":5123,"count":24,"min":[0],"max":[7],"type":"SCALAR","bufferView":3,"byteOffset":168}],"asset":{"generator":"obj2gltf","version":"2.0"},"buffers":[{"name":"267042","byteLength":1880,"uri":"data:application/octet-stream;base64,"}],"bufferViews":[{"name":"bufferView_0","buffer":0,"byteLength":624,"byteOffset":0,"byteStride":12,"target":34962},{"name":"bufferView_1","buffer":0,"byteLength":624,"byteOffset":624,"byteStride":12,"target":34962},{"name":"bufferView_2","buffer":0,"byteLength":416,"byteOffset":1248,"byteStride":8,"target":34962},{"name":"bufferView_3","buffer":0,"byteLength":216,"byteOffset":1664,"target":34963}],"materials":[{"name":"31","pbrMetallicRoughness":{"baseColorFactor":[0.356862745098039,0.376470588235294,0.435294117647059,1],"metallicFactor":0,"roughnessFactor":1},"emissiveFactor":[0,0,0],"alphaMode":"OPAQUE","doubleSided":false},{"name":"90484","pbrMetallicRoughness":{"baseColorFactor":[0.784313725490196,0.784313725490196,0.784313725490196,1],"metallicFactor":0,"roughnessFactor":1},"emissiveFactor":[0,0,0],"alphaMode":"OPAQUE","doubleSided":false}],"meshes":[{"name":"267042-Mesh","primitives":[{"attributes":{"POSITION":0,"NORMAL":1,"TEXCOORD_0":2},"indices":3,"material":0,"mode":4},{"attributes":{"POSITION":4,"NORMAL":5,"TEXCOORD_0":6},"indices":7,"material":1,"mode":4}]}],"nodes":[{"name":"267042","mesh":0}],"scene":0,"scenes":[{"nodes":[0]}]}