{"accessors":[{"name":"267040-Mesh_0_positions","componentType":5126,"count":16,"min":[-8.116399765014648,5.300000190734863,4.501100063323975],"max":[-7.916399955749512,8.5,8.071100234985352],"type":"VEC3","bufferView":0,"byteOffset":0},{"name":"267040-Mesh_0_normals","componentType":5126,"count":16,"min":[-1,0,0],"max":[1,0,0],"type":"VEC3","bufferView":1,"byteOffset":0},{"name":"267040-Mesh_0_texcoords","componentType":5126,"count":16,"min":[-3.6700000762939453,-2.200000047683716],"max":[3.6700000762939453,1],"type":"VEC2","bufferView":2,"byteOffset":0},{"name":"267040-Mesh_0_indices","componentType":5123,"count":36,"min":[0],"max":[15],"type":"SCALAR","bufferView":3,"byteOffset":0},{"name":"267040-Mesh_1_positions","componentType":5126,"count":32,"min":[-8.116399765014648,5.300000190734863,4.501100063323975],"max":[-7.916399955749512,8.5,8.071100234985352],"type":"VEC3","bufferView":0,"byteOffset":192},{"name":"267040-Mesh_1_normals","componentType":5126,"count":32,"min":[0,-1,-1],"max":[0,1,1],"type":"VEC3","bufferView":1,"byteOffset":192},{"name":"267040-Mesh_1_texcoords","componentType":5126,"count":32,"min":[-0.10000000149011612,-2.200000047683716],"max":[3.6700000762939453,1.100000023841858],"type":"VEC2","bufferView":2,"byteOffset":128},{"name":"267040-Mesh_1_indices","componentType":5123,"count":48,"min":[0],"max":[31],"type":"SCALAR","bufferView":3,"byteOffset":72}],"asset":{"generator":"obj2gltf","version":"2.0"},"buffers":[{"name":"267040","byteLength":1704,"uri":"data:application/octet-stream;base64,"}],"bufferViews":[{"name":"bufferView_0","buffer":0,"byteLength":576,"byteOffset":0,"byteStride":12,"target":34962},{"name":"bufferView_1","buffer":0,"byteLength":576,"byteOffset":576,"byteStride":12,"target":34962},{"name":"bufferView_2","buffer":0,"byteLength":384,"byteOffset":1152,"byteStride":8,"target":34962},{"name":"bufferView_3","buffer":0,"byteLength":168,"byteOffset":1536,"target":34963}],"materials":[{"name":"197629","pbrMetallicRoughness":{"baseColorFactor":[0.784313725490196,0.784313725490196,0.784313725490196,1],"metallicFactor":0,"roughnessFactor":1},"emissiveFactor":[0,0,0],"alphaMode":"OPAQUE","doubleSided":false},{"name":"31","pbrMetallicRoughness":{"baseColorFactor":[0.356862745098039,0.376470588235294,0.435294117647059,1],"metallicFactor":0,"roughnessFactor":1},"emissiveFactor":[0,0,0],"alphaMode":"OPAQUE","doubleSided":false}],"meshes":[{"name":"267040-Mesh","primitives":[{"attributes":{"POSITION":0,"NORMAL":1,"TEXCOORD_0":2},"indices":3,"material":0,"mode":4},{"attributes":{"POSITION":4,"NORMAL":5,"TEXCOORD_0":6},"indices":7,"material":1,"mode":4}]}],"nodes":[{"name":"267040","mesh":0}],"scene":0,"scenes":[{"nodes":[0]}]}