{"accessors":[{"name":"267003-Mesh_0_positions","componentType":5126,"count":9133,"min":[-7.916399955749512,2.768699884414673,9.371500015258789],"max":[-4.01639986038208,6.199399948120117,9.450799942016602],"type":"VEC3","bufferView":0,"byteOffset":0},{"name":"267003-Mesh_0_normals","componentType":5126,"count":9133,"min":[-1,-1,-1],"max":[1,0.8660544753074646,1],"type":"VEC3","bufferView":1,"byteOffset":0},{"name":"267003-Mesh_0_texcoords","componentType":5126,"count":9133,"min":[-0.03959999978542328,-69.81340026855469],"max":[4.671199798583984,24.59779930114746],"type":"VEC2","bufferView":2,"byteOffset":0},{"name":"267003-Mesh_0_indices","componentType":5123,"count":31275,"min":[0],"max":[9132],"type":"SCALAR","bufferView":3,"byteOffset":0}],"asset":{"generator":"obj2gltf","version":"2.0"},"buffers":[{"name":"267003","byteLength":354808,"uri":"data:application/octet-stream;base64,"}],"bufferViews":[{"name":"bufferView_0","buffer":0,"byteLength":109596,"byteOffset":0,"byteStride":12,"target":34962},{"name":"bufferView_1","buffer":0,"byteLength":109596,"byteOffset":109596,"byteStride":12,"target":34962},{"name":"bufferView_2","buffer":0,"byteLength":73064,"byteOffset":219192,"byteStride":8,"target":34962},{"name":"bufferView_3","buffer":0,"byteLength":62552,"byteOffset":292256,"target":34963}],"materials":[{"name":"default","pbrMetallicRoughness":{"baseColorFactor":[0.498039215686275,0.498039215686275,0.498039215686275,1],"metallicFactor":0,"roughnessFactor":1},"emissiveFactor":[0,0,0],"alphaMode":"OPAQUE","doubleSided":false}],"meshes":[{"name":"267003-Mesh","primitives":[{"attributes":{"POSITION":0,"NORMAL":1,"TEXCOORD_0":2},"indices":3,"material":0,"mode":4}]}],"nodes":[{"name":"267003","mesh":0}],"scene":0,"scenes":[{"nodes":[0]}]}