{"accessors":[{"name":"267102-Mesh_0_positions","componentType":5126,"count":10,"min":[-8.116399765014648,8.5,8.071100234985352],"max":[-2.716399908065796,11.699999809265137,8.071100234985352],"type":"VEC3","bufferView":0,"byteOffset":0},{"name":"267102-Mesh_0_normals","componentType":5126,"count":10,"min":[0,0,-1],"max":[0,0,-1],"type":"VEC3","bufferView":1,"byteOffset":0},{"name":"267102-Mesh_0_texcoords","componentType":5126,"count":10,"min":[0.10000000149011612,-2.200000047683716],"max":[5.5,1],"type":"VEC2","bufferView":2,"byteOffset":0},{"name":"267102-Mesh_0_indices","componentType":5123,"count":24,"min":[0],"max":[9],"type":"SCALAR","bufferView":3,"byteOffset":0},{"name":"267102-Mesh_1_positions","componentType":5126,"count":10,"min":[-8.116399765014648,8.5,8.271100044250488],"max":[-2.716399908065796,11.699999809265137,8.271100044250488],"type":"VEC3","bufferView":0,"byteOffset":120},{"name":"267102-Mesh_1_normals","componentType":5126,"count":10,"min":[0,0,1],"max":[0,0,1],"type":"VEC3","bufferView":1,"byteOffset":120},{"name":"267102-Mesh_1_texcoords","componentType":5126,"count":10,"min":[-5.5,-2.200000047683716],"max":[-0.10000000149011612,1],"type":"VEC2","bufferView":2,"byteOffset":80},{"name":"267102-Mesh_1_indices","componentType":5123,"count":24,"min":[0],"max":[9],"type":"SCALAR","bufferView":3,"byteOffset":48},{"name":"267102-Mesh_2_positions","componentType":5126,"count":30,"min":[-8.116399765014648,8.5,8.071100234985352],"max":[-2.716399908065796,11.699999809265137,8.271100044250488],"type":"VEC3","bufferView":0,"byteOffset":240},{"name":"267102-Mesh_2_normals","componentType":5126,"count":30,"min":[-1,-1,0],"max":[1,1,0],"type":"VEC3","bufferView":1,"byteOffset":240},{"name":"267102-Mesh_2_texcoords","componentType":5126,"count":30,"min":[-0.10000000149011612,-2.200000047683716],"max":[5.5,1.100000023841858],"type":"VEC2","bufferView":2,"byteOffset":160},{"name":"267102-Mesh_2_indices","componentType":5123,"count":48,"min":[0],"max":[29],"type":"SCALAR","bufferView":3,"byteOffset":96},{"name":"267102-Mesh_3_positions","componentType":5126,"count":6,"min":[-8.116399765014648,8.5,8.071100234985352],"max":[-8.116399765014648,11.699999809265137,8.271100044250488],"type":"VEC3","bufferView":0,"byteOffset":600},{"name":"267102-Mesh_3_normals","componentType":5126,"count":6,"min":[-1,0,0],"max":[-1,0,0],"type":"VEC3","bufferView":1,"byteOffset":600},{"name":"267102-Mesh_3_texcoords","componentType":5126,"count":6,"min":[-0.10000000149011612,1],"max":[0.10000000149011612,4.199999809265137],"type":"VEC2","bufferView":2,"byteOffset":400},{"name":"267102-Mesh_3_indices","componentType":5123,"count":12,"min":[0],"max":[5],"type":"SCALAR","bufferView":3,"byteOffset":192}],"asset":{"generator":"obj2gltf","version":"2.0"},"buffers":[{"name":"267102","byteLength":2008,"uri":"data:application/octet-stream;base64,"}],"bufferViews":[{"name":"bufferView_0","buffer":0,"byteLength":672,"byteOffset":0,"byteStride":12,"target":34962},{"name":"bufferView_1","buffer":0,"byteLength":672,"byteOffset":672,"byteStride":12,"target":34962},{"name":"bufferView_2","buffer":0,"byteLength":448,"byteOffset":1344,"byteStride":8,"target":34962},{"name":"bufferView_3","buffer":0,"byteLength":216,"byteOffset":1792,"target":34963}],"materials":[{"name":"90484","pbrMetallicRoughness":{"baseColorFactor":[0.784313725490196,0.784313725490196,0.784313725490196,1],"metallicFactor":0,"roughnessFactor":1},"emissiveFactor":[0,0,0],"alphaMode":"OPAQUE","doubleSided":false},{"name":"197629","pbrMetallicRoughness":{"baseColorFactor":[0.784313725490196,0.784313725490196,0.784313725490196,1],"metallicFactor":0,"roughnessFactor":1},"emissiveFactor":[0,0,0],"alphaMode":"OPAQUE","doubleSided":false},{"name":"31","pbrMetallicRoughness":{"baseColorFactor":[0.356862745098039,0.376470588235294,0.435294117647059,1],"metallicFactor":0,"roughnessFactor":1},"emissiveFactor":[0,0,0],"alphaMode":"OPAQUE","doubleSided":false},{"name":"54872","pbrMetallicRoughness":{"baseColorFactor":[0.909803921568627,0.909803921568627,0.909803921568627,1],"metallicFactor":0,"roughnessFactor":1},"emissiveFactor":[0,0,0],"alphaMode":"OPAQUE","doubleSided":false}],"meshes":[{"name":"267102-Mesh","primitives":[{"attributes":{"POSITION":0,"NORMAL":1,"TEXCOORD_0":2},"indices":3,"material":0,"mode":4},{"attributes":{"POSITION":4,"NORMAL":5,"TEXCOORD_0":6},"indices":7,"material":1,"mode":4},{"attributes":{"POSITION":8,"NORMAL":9,"TEXCOORD_0":10},"indices":11,"material":2,"mode":4},{"attributes":{"POSITION":12,"NORMAL":13,"TEXCOORD_0":14},"indices":15,"material":3,"mode":4}]}],"nodes":[{"name":"267102","mesh":0}],"scene":0,"scenes":[{"nodes":[0]}]}