{"accessors":[{"name":"267245-Mesh_0_positions","componentType":5126,"count":52,"min":[-12.54640007019043,8.5,4.271100044250488],"max":[-8.116399765014648,9.600000381469727,4.531099796295166],"type":"VEC3","bufferView":0,"byteOffset":0},{"name":"267245-Mesh_0_normals","componentType":5126,"count":52,"min":[-0.7071067690849304,-1,-1],"max":[1,1,1],"type":"VEC3","bufferView":1,"byteOffset":0},{"name":"267245-Mesh_0_texcoords","componentType":5126,"count":52,"min":[-0.12999999523162842,0.7699999809265137],"max":[4.400000095367432,1.2300000190734863],"type":"VEC2","bufferView":2,"byteOffset":0},{"name":"267245-Mesh_0_indices","componentType":5123,"count":84,"min":[0],"max":[51],"type":"SCALAR","bufferView":3,"byteOffset":0},{"name":"267245-Mesh_1_positions","componentType":5126,"count":28,"min":[-12.516400337219238,8.619999885559082,4.30109977722168],"max":[-11.176400184631348,9.479999542236328,4.501100063323975],"type":"VEC3","bufferView":0,"byteOffset":624},{"name":"267245-Mesh_1_normals","componentType":5126,"count":28,"min":[-1,-1,-1],"max":[1,1,1],"type":"VEC3","bufferView":1,"byteOffset":624},{"name":"267245-Mesh_1_texcoords","componentType":5126,"count":28,"min":[-4.5,0.019999999552965164],"max":[4.5,1.100000023841858],"type":"VEC2","bufferView":2,"byteOffset":416},{"name":"267245-Mesh_1_indices","componentType":5123,"count":48,"min":[0],"max":[27],"type":"SCALAR","bufferView":3,"byteOffset":168}],"asset":{"generator":"obj2gltf","version":"2.0"},"buffers":[{"name":"267245","byteLength":2824,"uri":"data:application/octet-stream;base64,"}],"bufferViews":[{"name":"bufferView_0","buffer":0,"byteLength":960,"byteOffset":0,"byteStride":12,"target":34962},{"name":"bufferView_1","buffer":0,"byteLength":960,"byteOffset":960,"byteStride":12,"target":34962},{"name":"bufferView_2","buffer":0,"byteLength":640,"byteOffset":1920,"byteStride":8,"target":34962},{"name":"bufferView_3","buffer":0,"byteLength":264,"byteOffset":2560,"target":34963}],"materials":[{"name":"54872","pbrMetallicRoughness":{"baseColorFactor":[0.909803921568627,0.909803921568627,0.909803921568627,1],"metallicFactor":0,"roughnessFactor":1},"emissiveFactor":[0,0,0],"alphaMode":"OPAQUE","doubleSided":false},{"name":"31","pbrMetallicRoughness":{"baseColorFactor":[0.356862745098039,0.376470588235294,0.435294117647059,1],"metallicFactor":0,"roughnessFactor":1},"emissiveFactor":[0,0,0],"alphaMode":"OPAQUE","doubleSided":false}],"meshes":[{"name":"267245-Mesh","primitives":[{"attributes":{"POSITION":0,"NORMAL":1,"TEXCOORD_0":2},"indices":3,"material":0,"mode":4},{"attributes":{"POSITION":4,"NORMAL":5,"TEXCOORD_0":6},"indices":7,"material":1,"mode":4}]}],"nodes":[{"name":"267245","mesh":0}],"scene":0,"scenes":[{"nodes":[0]}]}