{"accessors":[{"name":"267254-Mesh_0_positions","componentType":5126,"count":104,"min":[-6.51639986038208,11.699999809265137,14.20110034942627],"max":[-2.516400098800659,14.960800170898438,14.401100158691406],"type":"VEC3","bufferView":0,"byteOffset":0},{"name":"267254-Mesh_0_normals","componentType":5126,"count":104,"min":[-1,-1,-1],"max":[1,1,1],"type":"VEC3","bufferView":1,"byteOffset":0},{"name":"267254-Mesh_0_texcoords","componentType":5126,"count":104,"min":[-4,-2.2607998847961426],"max":[4,1.100000023841858],"type":"VEC2","bufferView":2,"byteOffset":0},{"name":"267254-Mesh_0_indices","componentType":5123,"count":240,"min":[0],"max":[103],"type":"SCALAR","bufferView":3,"byteOffset":0}],"asset":{"generator":"obj2gltf","version":"2.0"},"buffers":[{"name":"267254","byteLength":3808,"uri":"data:application/octet-stream;base64,"}],"bufferViews":[{"name":"bufferView_0","buffer":0,"byteLength":1248,"byteOffset":0,"byteStride":12,"target":34962},{"name":"bufferView_1","buffer":0,"byteLength":1248,"byteOffset":1248,"byteStride":12,"target":34962},{"name":"bufferView_2","buffer":0,"byteLength":832,"byteOffset":2496,"byteStride":8,"target":34962},{"name":"bufferView_3","buffer":0,"byteLength":480,"byteOffset":3328,"target":34963}],"materials":[{"name":"90484","pbrMetallicRoughness":{"baseColorFactor":[0.784313725490196,0.784313725490196,0.784313725490196,1],"metallicFactor":0,"roughnessFactor":1},"emissiveFactor":[0,0,0],"alphaMode":"OPAQUE","doubleSided":false}],"meshes":[{"name":"267254-Mesh","primitives":[{"attributes":{"POSITION":0,"NORMAL":1,"TEXCOORD_0":2},"indices":3,"material":0,"mode":4}]}],"nodes":[{"name":"267254","mesh":0}],"scene":0,"scenes":[{"nodes":[0]}]}