{"accessors":[{"name":"267244-Mesh_0_positions","componentType":5126,"count":74,"min":[-12.516400337219238,8.5,10.70110034942627],"max":[-12.316399574279785,11.699999809265137,16.30109977722168],"type":"VEC3","bufferView":0,"byteOffset":0},{"name":"267244-Mesh_0_normals","componentType":5126,"count":74,"min":[-1,-1,-1],"max":[1,1,1],"type":"VEC3","bufferView":1,"byteOffset":0},{"name":"267244-Mesh_0_texcoords","componentType":5126,"count":74,"min":[-5.5,-2.200000047683716],"max":[9.899999618530273,1.100000023841858],"type":"VEC2","bufferView":2,"byteOffset":0},{"name":"267244-Mesh_0_indices","componentType":5123,"count":174,"min":[0],"max":[73],"type":"SCALAR","bufferView":3,"byteOffset":0}],"asset":{"generator":"obj2gltf","version":"2.0"},"buffers":[{"name":"267244","byteLength":2716,"uri":"data:application/octet-stream;base64,"}],"bufferViews":[{"name":"bufferView_0","buffer":0,"byteLength":888,"byteOffset":0,"byteStride":12,"target":34962},{"name":"bufferView_1","buffer":0,"byteLength":888,"byteOffset":888,"byteStride":12,"target":34962},{"name":"bufferView_2","buffer":0,"byteLength":592,"byteOffset":1776,"byteStride":8,"target":34962},{"name":"bufferView_3","buffer":0,"byteLength":348,"byteOffset":2368,"target":34963}],"materials":[{"name":"90484","pbrMetallicRoughness":{"baseColorFactor":[0.784313725490196,0.784313725490196,0.784313725490196,1],"metallicFactor":0,"roughnessFactor":1},"emissiveFactor":[0,0,0],"alphaMode":"OPAQUE","doubleSided":false}],"meshes":[{"name":"267244-Mesh","primitives":[{"attributes":{"POSITION":0,"NORMAL":1,"TEXCOORD_0":2},"indices":3,"material":0,"mode":4}]}],"nodes":[{"name":"267244","mesh":0}],"scene":0,"scenes":[{"nodes":[0]}]}