{"accessors":[{"name":"267280-Mesh_0_positions","componentType":5126,"count":38,"min":[-12.316399574279785,0.21699999272823334,4.501100063323975],"max":[-7.816400051116943,0.9498000144958496,10.70110034942627],"type":"VEC3","bufferView":0,"byteOffset":0},{"name":"267280-Mesh_0_normals","componentType":5126,"count":38,"min":[-1,0,-1],"max":[1,1,1],"type":"VEC3","bufferView":1,"byteOffset":0},{"name":"267280-Mesh_0_texcoords","componentType":5126,"count":38,"min":[0,-3.5],"max":[6.199999809265137,1],"type":"VEC2","bufferView":2,"byteOffset":0},{"name":"267280-Mesh_0_indices","componentType":5123,"count":114,"min":[0],"max":[37],"type":"SCALAR","bufferView":3,"byteOffset":0}],"asset":{"generator":"obj2gltf","version":"2.0"},"buffers":[{"name":"267280","byteLength":1444,"uri":"data:application/octet-stream;base64,"}],"bufferViews":[{"name":"bufferView_0","buffer":0,"byteLength":456,"byteOffset":0,"byteStride":12,"target":34962},{"name":"bufferView_1","buffer":0,"byteLength":456,"byteOffset":456,"byteStride":12,"target":34962},{"name":"bufferView_2","buffer":0,"byteLength":304,"byteOffset":912,"byteStride":8,"target":34962},{"name":"bufferView_3","buffer":0,"byteLength":228,"byteOffset":1216,"target":34963}],"materials":[{"name":"79450","pbrMetallicRoughness":{"baseColorFactor":[0,0.450980392156863,0,1],"metallicFactor":0,"roughnessFactor":1},"emissiveFactor":[0,0,0],"alphaMode":"OPAQUE","doubleSided":false}],"meshes":[{"name":"267280-Mesh","primitives":[{"attributes":{"POSITION":0,"NORMAL":1,"TEXCOORD_0":2},"indices":3,"material":0,"mode":4}]}],"nodes":[{"name":"267280","mesh":0}],"scene":0,"scenes":[{"nodes":[0]}]}