{"accessors":[{"name":"267246-Mesh_0_positions","componentType":5126,"count":54,"min":[-12.54640007019043,8.5,4.271100044250488],"max":[-12.286399841308594,9.600000381469727,8.071100234985352],"type":"VEC3","bufferView":0,"byteOffset":0},{"name":"267246-Mesh_0_normals","componentType":5126,"count":54,"min":[-1,-1,-0.7071067690849304],"max":[1,1,1],"type":"VEC3","bufferView":1,"byteOffset":0},{"name":"267246-Mesh_0_texcoords","componentType":5126,"count":54,"min":[-0.12999999523162842,0.7699999809265137],"max":[3.7699999809265137,1.2300000190734863],"type":"VEC2","bufferView":2,"byteOffset":0},{"name":"267246-Mesh_0_indices","componentType":5123,"count":90,"min":[0],"max":[53],"type":"SCALAR","bufferView":3,"byteOffset":0},{"name":"267246-Mesh_1_positions","componentType":5126,"count":24,"min":[-12.516400337219238,8.619999885559082,4.501100063323975],"max":[-12.316399574279785,9.479999542236328,5.631100177764893],"type":"VEC3","bufferView":0,"byteOffset":648},{"name":"267246-Mesh_1_normals","componentType":5126,"count":24,"min":[-1,-1,-1],"max":[1,1,1],"type":"VEC3","bufferView":1,"byteOffset":648},{"name":"267246-Mesh_1_texcoords","componentType":5126,"count":24,"min":[-1.2300000190734863,0.019999999552965164],"max":[1.2300000190734863,1.100000023841858],"type":"VEC2","bufferView":2,"byteOffset":432},{"name":"267246-Mesh_1_indices","componentType":5123,"count":36,"min":[0],"max":[23],"type":"SCALAR","bufferView":3,"byteOffset":180}],"asset":{"generator":"obj2gltf","version":"2.0"},"buffers":[{"name":"267246","byteLength":2748,"uri":"data:application/octet-stream;base64,"}],"bufferViews":[{"name":"bufferView_0","buffer":0,"byteLength":936,"byteOffset":0,"byteStride":12,"target":34962},{"name":"bufferView_1","buffer":0,"byteLength":936,"byteOffset":936,"byteStride":12,"target":34962},{"name":"bufferView_2","buffer":0,"byteLength":624,"byteOffset":1872,"byteStride":8,"target":34962},{"name":"bufferView_3","buffer":0,"byteLength":252,"byteOffset":2496,"target":34963}],"materials":[{"name":"54872","pbrMetallicRoughness":{"baseColorFactor":[0.909803921568627,0.909803921568627,0.909803921568627,1],"metallicFactor":0,"roughnessFactor":1},"emissiveFactor":[0,0,0],"alphaMode":"OPAQUE","doubleSided":false},{"name":"31","pbrMetallicRoughness":{"baseColorFactor":[0.356862745098039,0.376470588235294,0.435294117647059,1],"metallicFactor":0,"roughnessFactor":1},"emissiveFactor":[0,0,0],"alphaMode":"OPAQUE","doubleSided":false}],"meshes":[{"name":"267246-Mesh","primitives":[{"attributes":{"POSITION":0,"NORMAL":1,"TEXCOORD_0":2},"indices":3,"material":0,"mode":4},{"attributes":{"POSITION":4,"NORMAL":5,"TEXCOORD_0":6},"indices":7,"material":1,"mode":4}]}],"nodes":[{"name":"267246","mesh":0}],"scene":0,"scenes":[{"nodes":[0]}]}