{"accessors":[{"name":"267324-Mesh_0_positions","componentType":5126,"count":72,"min":[-12.436400413513184,9.550000190734863,9.101099967956543],"max":[-12.396400451660156,11.050000190734863,9.901100158691406],"type":"VEC3","bufferView":0,"byteOffset":0},{"name":"267324-Mesh_0_normals","componentType":5126,"count":72,"min":[-1,-1,-1],"max":[1,1,1],"type":"VEC3","bufferView":1,"byteOffset":0},{"name":"267324-Mesh_0_texcoords","componentType":5126,"count":72,"min":[-1.009600043296814,-1.5499999523162842],"max":[1.009600043296814,1.0049999952316284],"type":"VEC2","bufferView":2,"byteOffset":0},{"name":"267324-Mesh_0_indices","componentType":5123,"count":108,"min":[0],"max":[71],"type":"SCALAR","bufferView":3,"byteOffset":0},{"name":"267324-Mesh_1_positions","componentType":5126,"count":144,"min":[-12.446399688720703,9.5,9.05109977722168],"max":[-12.38640022277832,11.100000381469727,9.95110034942627],"type":"VEC3","bufferView":0,"byteOffset":864},{"name":"267324-Mesh_1_normals","componentType":5126,"count":144,"min":[-1,-1,-1],"max":[1,1,1],"type":"VEC3","bufferView":1,"byteOffset":864},{"name":"267324-Mesh_1_texcoords","componentType":5126,"count":144,"min":[-1.0595999956130981,-1.600000023841858],"max":[1.0595999956130981,1.0299999713897705],"type":"VEC2","bufferView":2,"byteOffset":576},{"name":"267324-Mesh_1_indices","componentType":5123,"count":288,"min":[0],"max":[143],"type":"SCALAR","bufferView":3,"byteOffset":216}],"asset":{"generator":"obj2gltf","version":"2.0"},"buffers":[{"name":"267324","byteLength":7704,"uri":"data:application/octet-stream;base64,"}],"bufferViews":[{"name":"bufferView_0","buffer":0,"byteLength":2592,"byteOffset":0,"byteStride":12,"target":34962},{"name":"bufferView_1","buffer":0,"byteLength":2592,"byteOffset":2592,"byteStride":12,"target":34962},{"name":"bufferView_2","buffer":0,"byteLength":1728,"byteOffset":5184,"byteStride":8,"target":34962},{"name":"bufferView_3","buffer":0,"byteLength":792,"byteOffset":6912,"target":34963}],"materials":[{"name":"33","pbrMetallicRoughness":{"baseColorFactor":[0,0,1,0.25],"metallicFactor":0,"roughnessFactor":1},"emissiveFactor":[0,0,0],"alphaMode":"BLEND","doubleSided":true},{"name":"274500","pbrMetallicRoughness":{"baseColorFactor":[0.780392156862745,0.854901960784314,0.847058823529412,1],"metallicFactor":0,"roughnessFactor":1},"emissiveFactor":[0,0,0],"alphaMode":"OPAQUE","doubleSided":false}],"meshes":[{"name":"267324-Mesh","primitives":[{"attributes":{"POSITION":0,"NORMAL":1,"TEXCOORD_0":2},"indices":3,"material":0,"mode":4},{"attributes":{"POSITION":4,"NORMAL":5,"TEXCOORD_0":6},"indices":7,"material":1,"mode":4}]}],"nodes":[{"name":"267324","mesh":0}],"scene":0,"scenes":[{"nodes":[0]}]}