{"accessors":[{"name":"267397-Mesh_0_positions","componentType":5126,"count":26,"min":[-8.116399765014648,-0.10019999742507935,4.501100063323975],"max":[-2.516400098800659,0.9498000144958496,9.501099586486816],"type":"VEC3","bufferView":0,"byteOffset":0},{"name":"267397-Mesh_0_normals","componentType":5126,"count":26,"min":[-1,0,-1],"max":[0,1,1],"type":"VEC3","bufferView":1,"byteOffset":0},{"name":"267397-Mesh_0_texcoords","componentType":5126,"count":26,"min":[0,-4.599999904632568],"max":[5.599999904632568,1],"type":"VEC2","bufferView":2,"byteOffset":0},{"name":"267397-Mesh_0_indices","componentType":5123,"count":84,"min":[0],"max":[25],"type":"SCALAR","bufferView":3,"byteOffset":0}],"asset":{"generator":"obj2gltf","version":"2.0"},"buffers":[{"name":"267397","byteLength":1000,"uri":"data:application/octet-stream;base64,"}],"bufferViews":[{"name":"bufferView_0","buffer":0,"byteLength":312,"byteOffset":0,"byteStride":12,"target":34962},{"name":"bufferView_1","buffer":0,"byteLength":312,"byteOffset":312,"byteStride":12,"target":34962},{"name":"bufferView_2","buffer":0,"byteLength":208,"byteOffset":624,"byteStride":8,"target":34962},{"name":"bufferView_3","buffer":0,"byteLength":168,"byteOffset":832,"target":34963}],"materials":[{"name":"79450","pbrMetallicRoughness":{"baseColorFactor":[0,0.450980392156863,0,1],"metallicFactor":0,"roughnessFactor":1},"emissiveFactor":[0,0,0],"alphaMode":"OPAQUE","doubleSided":false}],"meshes":[{"name":"267397-Mesh","primitives":[{"attributes":{"POSITION":0,"NORMAL":1,"TEXCOORD_0":2},"indices":3,"material":0,"mode":4}]}],"nodes":[{"name":"267397","mesh":0}],"scene":0,"scenes":[{"nodes":[0]}]}