{"accessors":[{"name":"267320-Mesh_0_positions","componentType":5126,"count":48,"min":[-7.591400146484375,6.349999904632568,15.481100082397461],"max":[-6.941400051116943,8.050000190734863,15.521100044250488],"type":"VEC3","bufferView":0,"byteOffset":0},{"name":"267320-Mesh_0_normals","componentType":5126,"count":48,"min":[-1,-1,-1],"max":[1,1,1],"type":"VEC3","bufferView":1,"byteOffset":0},{"name":"267320-Mesh_0_texcoords","componentType":5126,"count":48,"min":[-0.9345999956130981,0.125],"max":[0.9345999956130981,1.0049999952316284],"type":"VEC2","bufferView":2,"byteOffset":0},{"name":"267320-Mesh_0_indices","componentType":5123,"count":72,"min":[0],"max":[47],"type":"SCALAR","bufferView":3,"byteOffset":0},{"name":"267320-Mesh_1_positions","componentType":5126,"count":96,"min":[-7.64139986038208,6.300000190734863,15.471099853515625],"max":[-6.89139986038208,8.100000381469727,15.531100273132324],"type":"VEC3","bufferView":0,"byteOffset":576},{"name":"267320-Mesh_1_normals","componentType":5126,"count":96,"min":[-1,-1,-1],"max":[1,1,1],"type":"VEC3","bufferView":1,"byteOffset":576},{"name":"267320-Mesh_1_texcoords","componentType":5126,"count":96,"min":[-0.9846000075340271,0.07500000298023224],"max":[0.9846000075340271,1.0149999856948853],"type":"VEC2","bufferView":2,"byteOffset":384},{"name":"267320-Mesh_1_indices","componentType":5123,"count":192,"min":[0],"max":[95],"type":"SCALAR","bufferView":3,"byteOffset":144},{"name":"267320-Mesh_2_positions","componentType":5126,"count":48,"min":[-7.716400146484375,6.224999904632568,15.601099967956543],"max":[-6.816400051116943,8.175000190734863,15.661100387573242],"type":"VEC3","bufferView":0,"byteOffset":1728},{"name":"267320-Mesh_2_normals","componentType":5126,"count":48,"min":[-1,-1,-1],"max":[1,1,1],"type":"VEC3","bufferView":1,"byteOffset":1728},{"name":"267320-Mesh_2_texcoords","componentType":5126,"count":48,"min":[-3.950000047683716,-1.875],"max":[3.950000047683716,1.059999942779541],"type":"VEC2","bufferView":2,"byteOffset":1152},{"name":"267320-Mesh_2_indices","componentType":5123,"count":96,"min":[0],"max":[47],"type":"SCALAR","bufferView":3,"byteOffset":528}],"asset":{"generator":"obj2gltf","version":"2.0"},"buffers":[{"name":"267320","byteLength":6864,"uri":"data:application/octet-stream;base64,"}],"bufferViews":[{"name":"bufferView_0","buffer":0,"byteLength":2304,"byteOffset":0,"byteStride":12,"target":34962},{"name":"bufferView_1","buffer":0,"byteLength":2304,"byteOffset":2304,"byteStride":12,"target":34962},{"name":"bufferView_2","buffer":0,"byteLength":1536,"byteOffset":4608,"byteStride":8,"target":34962},{"name":"bufferView_3","buffer":0,"byteLength":720,"byteOffset":6144,"target":34963}],"materials":[{"name":"33","pbrMetallicRoughness":{"baseColorFactor":[0,0,1,0.25],"metallicFactor":0,"roughnessFactor":1},"emissiveFactor":[0,0,0],"alphaMode":"BLEND","doubleSided":true},{"name":"274500","pbrMetallicRoughness":{"baseColorFactor":[0.780392156862745,0.854901960784314,0.847058823529412,1],"metallicFactor":0,"roughnessFactor":1},"emissiveFactor":[0,0,0],"alphaMode":"OPAQUE","doubleSided":false},{"name":"274516","pbrMetallicRoughness":{"baseColorFactor":[0.858823529411765,0.858823529411765,0.858823529411765,1],"metallicFactor":0,"roughnessFactor":1},"emissiveFactor":[0,0,0],"alphaMode":"OPAQUE","doubleSided":false}],"meshes":[{"name":"267320-Mesh","primitives":[{"attributes":{"POSITION":0,"NORMAL":1,"TEXCOORD_0":2},"indices":3,"material":0,"mode":4},{"attributes":{"POSITION":4,"NORMAL":5,"TEXCOORD_0":6},"indices":7,"material":1,"mode":4},{"attributes":{"POSITION":8,"NORMAL":9,"TEXCOORD_0":10},"indices":11,"material":2,"mode":4}]}],"nodes":[{"name":"267320","mesh":0}],"scene":0,"scenes":[{"nodes":[0]}]}