{"accessors":[{"name":"267361-Mesh_0_positions","componentType":5126,"count":66,"min":[-12.516400337219238,-0.20000000298023224,10.80109977722168],"max":[-12.316399574279785,5.300000190734863,16.30109977722168],"type":"VEC3","bufferView":0,"byteOffset":0},{"name":"267361-Mesh_0_normals","componentType":5126,"count":66,"min":[-1,-1,-1],"max":[0,1,1],"type":"VEC3","bufferView":1,"byteOffset":0},{"name":"267361-Mesh_0_texcoords","componentType":5126,"count":66,"min":[-0.10000000149011612,-4.5],"max":[5.5,1.100000023841858],"type":"VEC2","bufferView":2,"byteOffset":0},{"name":"267361-Mesh_0_indices","componentType":5123,"count":132,"min":[0],"max":[65],"type":"SCALAR","bufferView":3,"byteOffset":0},{"name":"267361-Mesh_1_positions","componentType":5126,"count":14,"min":[-12.316399574279785,-0.20000000298023224,10.80109977722168],"max":[-12.316399574279785,5.300000190734863,16.30109977722168],"type":"VEC3","bufferView":0,"byteOffset":792},{"name":"267361-Mesh_1_normals","componentType":5126,"count":14,"min":[1,0,0],"max":[1,0,0],"type":"VEC3","bufferView":1,"byteOffset":792},{"name":"267361-Mesh_1_texcoords","componentType":5126,"count":14,"min":[-5.5,-4.5],"max":[0,1],"type":"VEC2","bufferView":2,"byteOffset":528},{"name":"267361-Mesh_1_indices","componentType":5123,"count":42,"min":[0],"max":[13],"type":"SCALAR","bufferView":3,"byteOffset":264}],"asset":{"generator":"obj2gltf","version":"2.0"},"buffers":[{"name":"267361","byteLength":2908,"uri":"data:application/octet-stream;base64,"}],"bufferViews":[{"name":"bufferView_0","buffer":0,"byteLength":960,"byteOffset":0,"byteStride":12,"target":34962},{"name":"bufferView_1","buffer":0,"byteLength":960,"byteOffset":960,"byteStride":12,"target":34962},{"name":"bufferView_2","buffer":0,"byteLength":640,"byteOffset":1920,"byteStride":8,"target":34962},{"name":"bufferView_3","buffer":0,"byteLength":348,"byteOffset":2560,"target":34963}],"materials":[{"name":"31","pbrMetallicRoughness":{"baseColorFactor":[0.356862745098039,0.376470588235294,0.435294117647059,1],"metallicFactor":0,"roughnessFactor":1},"emissiveFactor":[0,0,0],"alphaMode":"OPAQUE","doubleSided":false},{"name":"197629","pbrMetallicRoughness":{"baseColorFactor":[0.784313725490196,0.784313725490196,0.784313725490196,1],"metallicFactor":0,"roughnessFactor":1},"emissiveFactor":[0,0,0],"alphaMode":"OPAQUE","doubleSided":false}],"meshes":[{"name":"267361-Mesh","primitives":[{"attributes":{"POSITION":0,"NORMAL":1,"TEXCOORD_0":2},"indices":3,"material":0,"mode":4},{"attributes":{"POSITION":4,"NORMAL":5,"TEXCOORD_0":6},"indices":7,"material":1,"mode":4}]}],"nodes":[{"name":"267361","mesh":0}],"scene":0,"scenes":[{"nodes":[0]}]}