{"accessors":[{"name":"267377-Mesh_0_positions","componentType":5126,"count":28,"min":[-6.216400146484375,2.9000000953674316,16.80109977722168],"max":[-6.096399784088135,3.299999952316284,17.161100387573242],"type":"VEC3","bufferView":0,"byteOffset":0},{"name":"267377-Mesh_0_normals","componentType":5126,"count":28,"min":[-1,-1,-1],"max":[1,1,1],"type":"VEC3","bufferView":1,"byteOffset":0},{"name":"267377-Mesh_0_texcoords","componentType":5126,"count":28,"min":[-3.240000009536743,0.30000001192092896],"max":[0.30000001192092896,1.059999942779541],"type":"VEC2","bufferView":2,"byteOffset":0},{"name":"267377-Mesh_0_indices","componentType":5123,"count":48,"min":[0],"max":[27],"type":"SCALAR","bufferView":3,"byteOffset":0}],"asset":{"generator":"obj2gltf","version":"2.0"},"buffers":[{"name":"267377","byteLength":992,"uri":"data:application/octet-stream;base64,"}],"bufferViews":[{"name":"bufferView_0","buffer":0,"byteLength":336,"byteOffset":0,"byteStride":12,"target":34962},{"name":"bufferView_1","buffer":0,"byteLength":336,"byteOffset":336,"byteStride":12,"target":34962},{"name":"bufferView_2","buffer":0,"byteLength":224,"byteOffset":672,"byteStride":8,"target":34962},{"name":"bufferView_3","buffer":0,"byteLength":96,"byteOffset":896,"target":34963}],"materials":[{"name":"90484","pbrMetallicRoughness":{"baseColorFactor":[0.784313725490196,0.784313725490196,0.784313725490196,1],"metallicFactor":0,"roughnessFactor":1},"emissiveFactor":[0,0,0],"alphaMode":"OPAQUE","doubleSided":false}],"meshes":[{"name":"267377-Mesh","primitives":[{"attributes":{"POSITION":0,"NORMAL":1,"TEXCOORD_0":2},"indices":3,"material":0,"mode":4}]}],"nodes":[{"name":"267377","mesh":0}],"scene":0,"scenes":[{"nodes":[0]}]}