{"accessors":[{"name":"267317-Mesh_0_positions","componentType":5126,"count":54,"min":[-12.516400337219238,11.699999809265137,8.271100044250488],"max":[-12.316399574279785,14.399999618530273,10.901100158691406],"type":"VEC3","bufferView":0,"byteOffset":0},{"name":"267317-Mesh_0_normals","componentType":5126,"count":54,"min":[-1,-1,-1],"max":[1,1,1],"type":"VEC3","bufferView":1,"byteOffset":0},{"name":"267317-Mesh_0_texcoords","componentType":5126,"count":54,"min":[-9.899999618530273,-1.7000000476837158],"max":[2.5299999713897705,1.100000023841858],"type":"VEC2","bufferView":2,"byteOffset":0},{"name":"267317-Mesh_0_indices","componentType":5123,"count":114,"min":[0],"max":[53],"type":"SCALAR","bufferView":3,"byteOffset":0}],"asset":{"generator":"obj2gltf","version":"2.0"},"buffers":[{"name":"267317","byteLength":1956,"uri":"data:application/octet-stream;base64,"}],"bufferViews":[{"name":"bufferView_0","buffer":0,"byteLength":648,"byteOffset":0,"byteStride":12,"target":34962},{"name":"bufferView_1","buffer":0,"byteLength":648,"byteOffset":648,"byteStride":12,"target":34962},{"name":"bufferView_2","buffer":0,"byteLength":432,"byteOffset":1296,"byteStride":8,"target":34962},{"name":"bufferView_3","buffer":0,"byteLength":228,"byteOffset":1728,"target":34963}],"materials":[{"name":"90484","pbrMetallicRoughness":{"baseColorFactor":[0.784313725490196,0.784313725490196,0.784313725490196,1],"metallicFactor":0,"roughnessFactor":1},"emissiveFactor":[0,0,0],"alphaMode":"OPAQUE","doubleSided":false}],"meshes":[{"name":"267317-Mesh","primitives":[{"attributes":{"POSITION":0,"NORMAL":1,"TEXCOORD_0":2},"indices":3,"material":0,"mode":4}]}],"nodes":[{"name":"267317","mesh":0}],"scene":0,"scenes":[{"nodes":[0]}]}