{"accessors":[{"name":"267337-Mesh_0_positions","componentType":5126,"count":24,"min":[-13.116399765014648,14.300000190734863,7.471099853515625],"max":[-8.116399765014648,14.399999618530273,14.171099662780762],"type":"VEC3","bufferView":0,"byteOffset":0},{"name":"267337-Mesh_0_normals","componentType":5126,"count":24,"min":[-1,-1,-1],"max":[1,1,1],"type":"VEC3","bufferView":1,"byteOffset":0},{"name":"267337-Mesh_0_texcoords","componentType":5126,"count":24,"min":[-14.171099662780762,-7.083600044250488],"max":[8.083600044250488,9.083600044250488],"type":"VEC2","bufferView":2,"byteOffset":0},{"name":"267337-Mesh_0_indices","componentType":5123,"count":36,"min":[0],"max":[23],"type":"SCALAR","bufferView":3,"byteOffset":0}],"asset":{"generator":"obj2gltf","version":"2.0"},"buffers":[{"name":"267337","byteLength":840,"uri":"data:application/octet-stream;base64,"}],"bufferViews":[{"name":"bufferView_0","buffer":0,"byteLength":288,"byteOffset":0,"byteStride":12,"target":34962},{"name":"bufferView_1","buffer":0,"byteLength":288,"byteOffset":288,"byteStride":12,"target":34962},{"name":"bufferView_2","buffer":0,"byteLength":192,"byteOffset":576,"byteStride":8,"target":34962},{"name":"bufferView_3","buffer":0,"byteLength":72,"byteOffset":768,"target":34963}],"materials":[{"name":"54872","pbrMetallicRoughness":{"baseColorFactor":[0.909803921568627,0.909803921568627,0.909803921568627,1],"metallicFactor":0,"roughnessFactor":1},"emissiveFactor":[0,0,0],"alphaMode":"OPAQUE","doubleSided":false}],"meshes":[{"name":"267337-Mesh","primitives":[{"attributes":{"POSITION":0,"NORMAL":1,"TEXCOORD_0":2},"indices":3,"material":0,"mode":4}]}],"nodes":[{"name":"267337","mesh":0}],"scene":0,"scenes":[{"nodes":[0]}]}