{"accessors":[{"name":"267474-Mesh_0_positions","componentType":5126,"count":48,"min":[-7.591400146484375,9.550000190734863,15.481100082397461],"max":[-6.941400051116943,11.25,15.521100044250488],"type":"VEC3","bufferView":0,"byteOffset":0},{"name":"267474-Mesh_0_normals","componentType":5126,"count":48,"min":[-1,-1,-1],"max":[1,1,1],"type":"VEC3","bufferView":1,"byteOffset":0},{"name":"267474-Mesh_0_texcoords","componentType":5126,"count":48,"min":[-0.9345999956130981,0.125],"max":[0.9345999956130981,1.0049999952316284],"type":"VEC2","bufferView":2,"byteOffset":0},{"name":"267474-Mesh_0_indices","componentType":5123,"count":72,"min":[0],"max":[47],"type":"SCALAR","bufferView":3,"byteOffset":0},{"name":"267474-Mesh_1_positions","componentType":5126,"count":96,"min":[-7.64139986038208,9.5,15.471099853515625],"max":[-6.89139986038208,11.300000190734863,15.531100273132324],"type":"VEC3","bufferView":0,"byteOffset":576},{"name":"267474-Mesh_1_normals","componentType":5126,"count":96,"min":[-1,-1,-1],"max":[1,1,1],"type":"VEC3","bufferView":1,"byteOffset":576},{"name":"267474-Mesh_1_texcoords","componentType":5126,"count":96,"min":[-0.9846000075340271,0.07500000298023224],"max":[0.9846000075340271,1.0149999856948853],"type":"VEC2","bufferView":2,"byteOffset":384},{"name":"267474-Mesh_1_indices","componentType":5123,"count":192,"min":[0],"max":[95],"type":"SCALAR","bufferView":3,"byteOffset":144}],"asset":{"generator":"obj2gltf","version":"2.0"},"buffers":[{"name":"267474","byteLength":5136,"uri":"data:application/octet-stream;base64,"}],"bufferViews":[{"name":"bufferView_0","buffer":0,"byteLength":1728,"byteOffset":0,"byteStride":12,"target":34962},{"name":"bufferView_1","buffer":0,"byteLength":1728,"byteOffset":1728,"byteStride":12,"target":34962},{"name":"bufferView_2","buffer":0,"byteLength":1152,"byteOffset":3456,"byteStride":8,"target":34962},{"name":"bufferView_3","buffer":0,"byteLength":528,"byteOffset":4608,"target":34963}],"materials":[{"name":"33","pbrMetallicRoughness":{"baseColorFactor":[0,0,1,0.25],"metallicFactor":0,"roughnessFactor":1},"emissiveFactor":[0,0,0],"alphaMode":"BLEND","doubleSided":true},{"name":"274500","pbrMetallicRoughness":{"baseColorFactor":[0.780392156862745,0.854901960784314,0.847058823529412,1],"metallicFactor":0,"roughnessFactor":1},"emissiveFactor":[0,0,0],"alphaMode":"OPAQUE","doubleSided":false}],"meshes":[{"name":"267474-Mesh","primitives":[{"attributes":{"POSITION":0,"NORMAL":1,"TEXCOORD_0":2},"indices":3,"material":0,"mode":4},{"attributes":{"POSITION":4,"NORMAL":5,"TEXCOORD_0":6},"indices":7,"material":1,"mode":4}]}],"nodes":[{"name":"267474","mesh":0}],"scene":0,"scenes":[{"nodes":[0]}]}