{"accessors":[{"name":"267431-Mesh_0_positions","componentType":5126,"count":20,"min":[-12.516400337219238,0.5273000001907349,3.7011001110076904],"max":[-2.516400098800659,0.6498000025749207,4.30109977722168],"type":"VEC3","bufferView":0,"byteOffset":0},{"name":"267431-Mesh_0_normals","componentType":5126,"count":20,"min":[-0.8944271802902222,0,-1],"max":[0.8944271802902222,1,1],"type":"VEC3","bufferView":1,"byteOffset":0},{"name":"267431-Mesh_0_texcoords","componentType":5126,"count":20,"min":[0,-9],"max":[0.6000000238418579,1],"type":"VEC2","bufferView":2,"byteOffset":0},{"name":"267431-Mesh_0_indices","componentType":5123,"count":42,"min":[0],"max":[19],"type":"SCALAR","bufferView":3,"byteOffset":0}],"asset":{"generator":"obj2gltf","version":"2.0"},"buffers":[{"name":"267431","byteLength":724,"uri":"data:application/octet-stream;base64,"}],"bufferViews":[{"name":"bufferView_0","buffer":0,"byteLength":240,"byteOffset":0,"byteStride":12,"target":34962},{"name":"bufferView_1","buffer":0,"byteLength":240,"byteOffset":240,"byteStride":12,"target":34962},{"name":"bufferView_2","buffer":0,"byteLength":160,"byteOffset":480,"byteStride":8,"target":34962},{"name":"bufferView_3","buffer":0,"byteLength":84,"byteOffset":640,"target":34963}],"materials":[{"name":"79450","pbrMetallicRoughness":{"baseColorFactor":[0,0.450980392156863,0,1],"metallicFactor":0,"roughnessFactor":1},"emissiveFactor":[0,0,0],"alphaMode":"OPAQUE","doubleSided":false}],"meshes":[{"name":"267431-Mesh","primitives":[{"attributes":{"POSITION":0,"NORMAL":1,"TEXCOORD_0":2},"indices":3,"material":0,"mode":4}]}],"nodes":[{"name":"267431","mesh":0}],"scene":0,"scenes":[{"nodes":[0]}]}