{"accessors":[{"name":"267513-Mesh_0_positions","componentType":5126,"count":245,"min":[-3.717900037765503,14.816800117492676,14.785099983215332],"max":[-3.3066000938415527,15.001099586486816,15.059599876403809],"type":"VEC3","bufferView":0,"byteOffset":0},{"name":"267513-Mesh_0_normals","componentType":5126,"count":245,"min":[-0.9994933605194092,-1,-1],"max":[0.9994933605194092,0.9994828104972839,1],"type":"VEC3","bufferView":1,"byteOffset":0},{"name":"267513-Mesh_0_texcoords","componentType":5126,"count":245,"min":[-3.7862000465393066,-3.263400077819824],"max":[0.39969998598098755,1],"type":"VEC2","bufferView":2,"byteOffset":0},{"name":"267513-Mesh_0_indices","componentType":5123,"count":855,"min":[0],"max":[244],"type":"SCALAR","bufferView":3,"byteOffset":0}],"asset":{"generator":"obj2gltf","version":"2.0"},"buffers":[{"name":"267513","byteLength":9552,"uri":"data:application/octet-stream;base64,"}],"bufferViews":[{"name":"bufferView_0","buffer":0,"byteLength":2940,"byteOffset":0,"byteStride":12,"target":34962},{"name":"bufferView_1","buffer":0,"byteLength":2940,"byteOffset":2940,"byteStride":12,"target":34962},{"name":"bufferView_2","buffer":0,"byteLength":1960,"byteOffset":5880,"byteStride":8,"target":34962},{"name":"bufferView_3","buffer":0,"byteLength":1712,"byteOffset":7840,"target":34963}],"materials":[{"name":"191881","pbrMetallicRoughness":{"baseColorFactor":[0.356862745098039,0.376470588235294,0.435294117647059,1],"metallicFactor":0,"roughnessFactor":1},"emissiveFactor":[0,0,0],"alphaMode":"OPAQUE","doubleSided":false}],"meshes":[{"name":"267513-Mesh","primitives":[{"attributes":{"POSITION":0,"NORMAL":1,"TEXCOORD_0":2},"indices":3,"material":0,"mode":4}]}],"nodes":[{"name":"267513","mesh":0}],"scene":0,"scenes":[{"nodes":[0]}]}