{"accessors":[{"name":"268180-Mesh_0_positions","componentType":5126,"count":521,"min":[-8.082900047302246,14.411399841308594,3.993799924850464],"max":[-7.664999961853027,14.748900413513184,4.242800235748291],"type":"VEC3","bufferView":0,"byteOffset":0},{"name":"268180-Mesh_0_normals","componentType":5126,"count":521,"min":[-1,-1,-1],"max":[0.9999338388442993,0.9994933605194092,1],"type":"VEC3","bufferView":1,"byteOffset":0},{"name":"268180-Mesh_0_texcoords","componentType":5126,"count":521,"min":[-0.3147999942302704,0.5823000073432922],"max":[0.22630000114440918,1.1657999753952026],"type":"VEC2","bufferView":2,"byteOffset":0},{"name":"268180-Mesh_0_indices","componentType":5123,"count":1542,"min":[0],"max":[520],"type":"SCALAR","bufferView":3,"byteOffset":0}],"asset":{"generator":"obj2gltf","version":"2.0"},"buffers":[{"name":"268180","byteLength":19756,"uri":"data:application/octet-stream;base64,"}],"bufferViews":[{"name":"bufferView_0","buffer":0,"byteLength":6252,"byteOffset":0,"byteStride":12,"target":34962},{"name":"bufferView_1","buffer":0,"byteLength":6252,"byteOffset":6252,"byteStride":12,"target":34962},{"name":"bufferView_2","buffer":0,"byteLength":4168,"byteOffset":12504,"byteStride":8,"target":34962},{"name":"bufferView_3","buffer":0,"byteLength":3084,"byteOffset":16672,"target":34963}],"materials":[{"name":"191881","pbrMetallicRoughness":{"baseColorFactor":[0.356862745098039,0.376470588235294,0.435294117647059,1],"metallicFactor":0,"roughnessFactor":1},"emissiveFactor":[0,0,0],"alphaMode":"OPAQUE","doubleSided":false}],"meshes":[{"name":"268180-Mesh","primitives":[{"attributes":{"POSITION":0,"NORMAL":1,"TEXCOORD_0":2},"indices":3,"material":0,"mode":4}]}],"nodes":[{"name":"268180","mesh":0}],"scene":0,"scenes":[{"nodes":[0]}]}