{"accessors":[{"name":"268258-Mesh_0_positions","componentType":5126,"count":30,"min":[-8.216400146484375,-0.20000000298023224,16.30109977722168],"max":[-7.976399898529053,1.0499999523162842,19.30109977722168],"type":"VEC3","bufferView":0,"byteOffset":0},{"name":"268258-Mesh_0_normals","componentType":5126,"count":30,"min":[-1,-1,-1],"max":[1,1,1],"type":"VEC3","bufferView":1,"byteOffset":0},{"name":"268258-Mesh_0_texcoords","componentType":5126,"count":30,"min":[-3.0999999046325684,-0.05000000074505806],"max":[3.0999999046325684,1.2000000476837158],"type":"VEC2","bufferView":2,"byteOffset":0},{"name":"268258-Mesh_0_indices","componentType":5123,"count":48,"min":[0],"max":[29],"type":"SCALAR","bufferView":3,"byteOffset":0}],"asset":{"generator":"obj2gltf","version":"2.0"},"buffers":[{"name":"268258","byteLength":1056,"uri":"data:application/octet-stream;base64,"}],"bufferViews":[{"name":"bufferView_0","buffer":0,"byteLength":360,"byteOffset":0,"byteStride":12,"target":34962},{"name":"bufferView_1","buffer":0,"byteLength":360,"byteOffset":360,"byteStride":12,"target":34962},{"name":"bufferView_2","buffer":0,"byteLength":240,"byteOffset":720,"byteStride":8,"target":34962},{"name":"bufferView_3","buffer":0,"byteLength":96,"byteOffset":960,"target":34963}],"materials":[{"name":"31","pbrMetallicRoughness":{"baseColorFactor":[0.356862745098039,0.376470588235294,0.435294117647059,1],"metallicFactor":0,"roughnessFactor":1},"emissiveFactor":[0,0,0],"alphaMode":"OPAQUE","doubleSided":false}],"meshes":[{"name":"268258-Mesh","primitives":[{"attributes":{"POSITION":0,"NORMAL":1,"TEXCOORD_0":2},"indices":3,"material":0,"mode":4}]}],"nodes":[{"name":"268258","mesh":0}],"scene":0,"scenes":[{"nodes":[0]}]}