{"accessors":[{"name":"268249-Mesh_0_positions","componentType":5126,"count":17,"min":[-12.516400337219238,5.300000190734863,10.70110034942627],"max":[-2.716399908065796,8.5,10.70110034942627],"type":"VEC3","bufferView":0,"byteOffset":0},{"name":"268249-Mesh_0_normals","componentType":5126,"count":17,"min":[0,0,-1],"max":[0,0,-1],"type":"VEC3","bufferView":1,"byteOffset":0},{"name":"268249-Mesh_0_texcoords","componentType":5126,"count":17,"min":[0.10000000149011612,-2.200000047683716],"max":[9.899999618530273,1],"type":"VEC2","bufferView":2,"byteOffset":0},{"name":"268249-Mesh_0_indices","componentType":5123,"count":45,"min":[0],"max":[16],"type":"SCALAR","bufferView":3,"byteOffset":0},{"name":"268249-Mesh_1_positions","componentType":5126,"count":29,"min":[-12.516400337219238,5.300000190734863,10.901100158691406],"max":[-2.716399908065796,8.5,10.901100158691406],"type":"VEC3","bufferView":0,"byteOffset":204},{"name":"268249-Mesh_1_normals","componentType":5126,"count":29,"min":[0,0,1],"max":[0,0,1],"type":"VEC3","bufferView":1,"byteOffset":204},{"name":"268249-Mesh_1_texcoords","componentType":5126,"count":29,"min":[-9.899999618530273,-2.200000047683716],"max":[-0.10000000149011612,1],"type":"VEC2","bufferView":2,"byteOffset":136},{"name":"268249-Mesh_1_indices","componentType":5123,"count":81,"min":[0],"max":[28],"type":"SCALAR","bufferView":3,"byteOffset":92},{"name":"268249-Mesh_2_positions","componentType":5126,"count":72,"min":[-12.516400337219238,5.300000190734863,10.70110034942627],"max":[-2.716399908065796,8.5,10.901100158691406],"type":"VEC3","bufferView":0,"byteOffset":552},{"name":"268249-Mesh_2_normals","componentType":5126,"count":72,"min":[-1,-1,0],"max":[1,1,0],"type":"VEC3","bufferView":1,"byteOffset":552},{"name":"268249-Mesh_2_texcoords","componentType":5126,"count":72,"min":[-0.10000000149011612,-2.200000047683716],"max":[9.899999618530273,1.100000023841858],"type":"VEC2","bufferView":2,"byteOffset":368},{"name":"268249-Mesh_2_indices","componentType":5123,"count":144,"min":[0],"max":[71],"type":"SCALAR","bufferView":3,"byteOffset":256}],"asset":{"generator":"obj2gltf","version":"2.0"},"buffers":[{"name":"268249","byteLength":4320,"uri":"data:application/octet-stream;base64,"}],"bufferViews":[{"name":"bufferView_0","buffer":0,"byteLength":1416,"byteOffset":0,"byteStride":12,"target":34962},{"name":"bufferView_1","buffer":0,"byteLength":1416,"byteOffset":1416,"byteStride":12,"target":34962},{"name":"bufferView_2","buffer":0,"byteLength":944,"byteOffset":2832,"byteStride":8,"target":34962},{"name":"bufferView_3","buffer":0,"byteLength":544,"byteOffset":3776,"target":34963}],"materials":[{"name":"90484","pbrMetallicRoughness":{"baseColorFactor":[0.784313725490196,0.784313725490196,0.784313725490196,1],"metallicFactor":0,"roughnessFactor":1},"emissiveFactor":[0,0,0],"alphaMode":"OPAQUE","doubleSided":false},{"name":"197629","pbrMetallicRoughness":{"baseColorFactor":[0.784313725490196,0.784313725490196,0.784313725490196,1],"metallicFactor":0,"roughnessFactor":1},"emissiveFactor":[0,0,0],"alphaMode":"OPAQUE","doubleSided":false},{"name":"31","pbrMetallicRoughness":{"baseColorFactor":[0.356862745098039,0.376470588235294,0.435294117647059,1],"metallicFactor":0,"roughnessFactor":1},"emissiveFactor":[0,0,0],"alphaMode":"OPAQUE","doubleSided":false}],"meshes":[{"name":"268249-Mesh","primitives":[{"attributes":{"POSITION":0,"NORMAL":1,"TEXCOORD_0":2},"indices":3,"material":0,"mode":4},{"attributes":{"POSITION":4,"NORMAL":5,"TEXCOORD_0":6},"indices":7,"material":1,"mode":4},{"attributes":{"POSITION":8,"NORMAL":9,"TEXCOORD_0":10},"indices":11,"material":2,"mode":4}]}],"nodes":[{"name":"268249","mesh":0}],"scene":0,"scenes":[{"nodes":[0]}]}