{"accessors":[{"name":"268386-Mesh_0_positions","componentType":5126,"count":216,"min":[-8.226799964904785,14.241299629211426,3.6175999641418457],"max":[-7.8059000968933105,17.167400360107422,16.084699630737305],"type":"VEC3","bufferView":0,"byteOffset":0},{"name":"268386-Mesh_0_normals","componentType":5126,"count":216,"min":[-1,-1,-1],"max":[1,1,1],"type":"VEC3","bufferView":1,"byteOffset":0},{"name":"268386-Mesh_0_texcoords","componentType":5126,"count":216,"min":[-6.283599853515625,-2.115299940109253],"max":[6.283599853515625,4.115300178527832],"type":"VEC2","bufferView":2,"byteOffset":0},{"name":"268386-Mesh_0_indices","componentType":5123,"count":420,"min":[0],"max":[215],"type":"SCALAR","bufferView":3,"byteOffset":0}],"asset":{"generator":"obj2gltf","version":"2.0"},"buffers":[{"name":"268386","byteLength":7752,"uri":"data:application/octet-stream;base64,"}],"bufferViews":[{"name":"bufferView_0","buffer":0,"byteLength":2592,"byteOffset":0,"byteStride":12,"target":34962},{"name":"bufferView_1","buffer":0,"byteLength":2592,"byteOffset":2592,"byteStride":12,"target":34962},{"name":"bufferView_2","buffer":0,"byteLength":1728,"byteOffset":5184,"byteStride":8,"target":34962},{"name":"bufferView_3","buffer":0,"byteLength":840,"byteOffset":6912,"target":34963}],"materials":[{"name":"90484","pbrMetallicRoughness":{"baseColorFactor":[0.784313725490196,0.784313725490196,0.784313725490196,1],"metallicFactor":0,"roughnessFactor":1},"emissiveFactor":[0,0,0],"alphaMode":"OPAQUE","doubleSided":false}],"meshes":[{"name":"268386-Mesh","primitives":[{"attributes":{"POSITION":0,"NORMAL":1,"TEXCOORD_0":2},"indices":3,"material":0,"mode":4}]}],"nodes":[{"name":"268386","mesh":0}],"scene":0,"scenes":[{"nodes":[0]}]}