{"accessors":[{"name":"268359-Mesh_0_positions","componentType":5126,"count":108,"min":[-6.726799964904785,8.080499649047852,15.601099967956543],"max":[-6.3059000968933105,9.68019962310791,17.56719970703125],"type":"VEC3","bufferView":0,"byteOffset":0},{"name":"268359-Mesh_0_normals","componentType":5126,"count":108,"min":[-1,-1,-1],"max":[1,1,1],"type":"VEC3","bufferView":1,"byteOffset":0},{"name":"268359-Mesh_0_texcoords","componentType":5126,"count":108,"min":[-1.0054999589920044,-0.009999999776482582],"max":[1.0054999589920044,2.009999990463257],"type":"VEC2","bufferView":2,"byteOffset":0},{"name":"268359-Mesh_0_indices","componentType":5123,"count":204,"min":[0],"max":[107],"type":"SCALAR","bufferView":3,"byteOffset":0}],"asset":{"generator":"obj2gltf","version":"2.0"},"buffers":[{"name":"268359","byteLength":3864,"uri":"data:application/octet-stream;base64,"}],"bufferViews":[{"name":"bufferView_0","buffer":0,"byteLength":1296,"byteOffset":0,"byteStride":12,"target":34962},{"name":"bufferView_1","buffer":0,"byteLength":1296,"byteOffset":1296,"byteStride":12,"target":34962},{"name":"bufferView_2","buffer":0,"byteLength":864,"byteOffset":2592,"byteStride":8,"target":34962},{"name":"bufferView_3","buffer":0,"byteLength":408,"byteOffset":3456,"target":34963}],"materials":[{"name":"90484","pbrMetallicRoughness":{"baseColorFactor":[0.784313725490196,0.784313725490196,0.784313725490196,1],"metallicFactor":0,"roughnessFactor":1},"emissiveFactor":[0,0,0],"alphaMode":"OPAQUE","doubleSided":false}],"meshes":[{"name":"268359-Mesh","primitives":[{"attributes":{"POSITION":0,"NORMAL":1,"TEXCOORD_0":2},"indices":3,"material":0,"mode":4}]}],"nodes":[{"name":"268359","mesh":0}],"scene":0,"scenes":[{"nodes":[0]}]}