{"accessors":[{"name":"268334-Mesh_0_positions","componentType":5126,"count":120,"min":[-8.30679988861084,3.6370999813079834,16.30109977722168],"max":[-7.885900020599365,5,17.855899810791016],"type":"VEC3","bufferView":0,"byteOffset":0},{"name":"268334-Mesh_0_normals","componentType":5126,"count":120,"min":[-1,-1,-1],"max":[1,1,1],"type":"VEC3","bufferView":1,"byteOffset":0},{"name":"268334-Mesh_0_texcoords","componentType":5126,"count":120,"min":[-0.7986000180244446,0.23319999873638153],"max":[0.7986000180244446,1.766800045967102],"type":"VEC2","bufferView":2,"byteOffset":0},{"name":"268334-Mesh_0_indices","componentType":5123,"count":240,"min":[0],"max":[119],"type":"SCALAR","bufferView":3,"byteOffset":0}],"asset":{"generator":"obj2gltf","version":"2.0"},"buffers":[{"name":"268334","byteLength":4320,"uri":"data:application/octet-stream;base64,"}],"bufferViews":[{"name":"bufferView_0","buffer":0,"byteLength":1440,"byteOffset":0,"byteStride":12,"target":34962},{"name":"bufferView_1","buffer":0,"byteLength":1440,"byteOffset":1440,"byteStride":12,"target":34962},{"name":"bufferView_2","buffer":0,"byteLength":960,"byteOffset":2880,"byteStride":8,"target":34962},{"name":"bufferView_3","buffer":0,"byteLength":480,"byteOffset":3840,"target":34963}],"materials":[{"name":"90484","pbrMetallicRoughness":{"baseColorFactor":[0.784313725490196,0.784313725490196,0.784313725490196,1],"metallicFactor":0,"roughnessFactor":1},"emissiveFactor":[0,0,0],"alphaMode":"OPAQUE","doubleSided":false}],"meshes":[{"name":"268334-Mesh","primitives":[{"attributes":{"POSITION":0,"NORMAL":1,"TEXCOORD_0":2},"indices":3,"material":0,"mode":4}]}],"nodes":[{"name":"268334","mesh":0}],"scene":0,"scenes":[{"nodes":[0]}]}