{"accessors":[{"name":"268324-Mesh_0_positions","componentType":5126,"count":62,"min":[-6.616399765014648,7.970900058746338,16.80109977722168],"max":[-6.416399955749512,8.430899620056152,17.151100158691406],"type":"VEC3","bufferView":0,"byteOffset":0},{"name":"268324-Mesh_0_normals","componentType":5126,"count":62,"min":[-1,-1,-1],"max":[1,0.8660544753074646,1],"type":"VEC3","bufferView":1,"byteOffset":0},{"name":"268324-Mesh_0_texcoords","componentType":5126,"count":62,"min":[-0.3499999940395355,0.24210000038146973],"max":[0.3499999940395355,1.6095999479293823],"type":"VEC2","bufferView":2,"byteOffset":0},{"name":"268324-Mesh_0_indices","componentType":5123,"count":132,"min":[0],"max":[61],"type":"SCALAR","bufferView":3,"byteOffset":0}],"asset":{"generator":"obj2gltf","version":"2.0"},"buffers":[{"name":"268324","byteLength":2248,"uri":"data:application/octet-stream;base64,"}],"bufferViews":[{"name":"bufferView_0","buffer":0,"byteLength":744,"byteOffset":0,"byteStride":12,"target":34962},{"name":"bufferView_1","buffer":0,"byteLength":744,"byteOffset":744,"byteStride":12,"target":34962},{"name":"bufferView_2","buffer":0,"byteLength":496,"byteOffset":1488,"byteStride":8,"target":34962},{"name":"bufferView_3","buffer":0,"byteLength":264,"byteOffset":1984,"target":34963}],"materials":[{"name":"90484","pbrMetallicRoughness":{"baseColorFactor":[0.784313725490196,0.784313725490196,0.784313725490196,1],"metallicFactor":0,"roughnessFactor":1},"emissiveFactor":[0,0,0],"alphaMode":"OPAQUE","doubleSided":false}],"meshes":[{"name":"268324-Mesh","primitives":[{"attributes":{"POSITION":0,"NORMAL":1,"TEXCOORD_0":2},"indices":3,"material":0,"mode":4}]}],"nodes":[{"name":"268324","mesh":0}],"scene":0,"scenes":[{"nodes":[0]}]}