{"accessors":[{"name":"268477-Mesh_0_positions","componentType":5126,"count":72,"min":[-8.146400451660156,11.699999809265137,15.501099586486816],"max":[-7.88640022277832,12.75,16.331100463867188],"type":"VEC3","bufferView":0,"byteOffset":0},{"name":"268477-Mesh_0_normals","componentType":5126,"count":72,"min":[-1,-1,-1],"max":[1,1,0.7071067690849304],"type":"VEC3","bufferView":1,"byteOffset":0},{"name":"268477-Mesh_0_texcoords","componentType":5126,"count":72,"min":[-0.10000000149011612,0.7699999809265137],"max":[0.8299999833106995,1.2300000190734863],"type":"VEC2","bufferView":2,"byteOffset":0},{"name":"268477-Mesh_0_indices","componentType":5123,"count":120,"min":[0],"max":[71],"type":"SCALAR","bufferView":3,"byteOffset":0},{"name":"268477-Mesh_1_positions","componentType":5126,"count":30,"min":[-8.116399765014648,11.819999694824219,15.601099967956543],"max":[-7.916399955749512,12.630000114440918,16.30109977722168],"type":"VEC3","bufferView":0,"byteOffset":864},{"name":"268477-Mesh_1_normals","componentType":5126,"count":30,"min":[-1,-1,-1],"max":[1,1,1],"type":"VEC3","bufferView":1,"byteOffset":864},{"name":"268477-Mesh_1_texcoords","componentType":5126,"count":30,"min":[-0.800000011920929,0.07000000029802322],"max":[0.800000011920929,1.100000023841858],"type":"VEC2","bufferView":2,"byteOffset":576},{"name":"268477-Mesh_1_indices","componentType":5123,"count":54,"min":[0],"max":[29],"type":"SCALAR","bufferView":3,"byteOffset":240}],"asset":{"generator":"obj2gltf","version":"2.0"},"buffers":[{"name":"268477","byteLength":3612,"uri":"data:application/octet-stream;base64,"}],"bufferViews":[{"name":"bufferView_0","buffer":0,"byteLength":1224,"byteOffset":0,"byteStride":12,"target":34962},{"name":"bufferView_1","buffer":0,"byteLength":1224,"byteOffset":1224,"byteStride":12,"target":34962},{"name":"bufferView_2","buffer":0,"byteLength":816,"byteOffset":2448,"byteStride":8,"target":34962},{"name":"bufferView_3","buffer":0,"byteLength":348,"byteOffset":3264,"target":34963}],"materials":[{"name":"54872","pbrMetallicRoughness":{"baseColorFactor":[0.909803921568627,0.909803921568627,0.909803921568627,1],"metallicFactor":0,"roughnessFactor":1},"emissiveFactor":[0,0,0],"alphaMode":"OPAQUE","doubleSided":false},{"name":"31","pbrMetallicRoughness":{"baseColorFactor":[0.356862745098039,0.376470588235294,0.435294117647059,1],"metallicFactor":0,"roughnessFactor":1},"emissiveFactor":[0,0,0],"alphaMode":"OPAQUE","doubleSided":false}],"meshes":[{"name":"268477-Mesh","primitives":[{"attributes":{"POSITION":0,"NORMAL":1,"TEXCOORD_0":2},"indices":3,"material":0,"mode":4},{"attributes":{"POSITION":4,"NORMAL":5,"TEXCOORD_0":6},"indices":7,"material":1,"mode":4}]}],"nodes":[{"name":"268477","mesh":0}],"scene":0,"scenes":[{"nodes":[0]}]}