{"accessors":[{"name":"268498-Mesh_0_positions","componentType":5126,"count":28,"min":[-12.516400337219238,14,13.371100425720215],"max":[-8.116399765014648,14.300000190734863,13.571100234985352],"type":"VEC3","bufferView":0,"byteOffset":0},{"name":"268498-Mesh_0_normals","componentType":5126,"count":28,"min":[-1,-1,-1],"max":[1,1,1],"type":"VEC3","bufferView":1,"byteOffset":0},{"name":"268498-Mesh_0_texcoords","componentType":5126,"count":28,"min":[-4.5,0.8999999761581421],"max":[4.5,1.399999976158142],"type":"VEC2","bufferView":2,"byteOffset":0},{"name":"268498-Mesh_0_indices","componentType":5123,"count":48,"min":[0],"max":[27],"type":"SCALAR","bufferView":3,"byteOffset":0}],"asset":{"generator":"obj2gltf","version":"2.0"},"buffers":[{"name":"268498","byteLength":992,"uri":"data:application/octet-stream;base64,"}],"bufferViews":[{"name":"bufferView_0","buffer":0,"byteLength":336,"byteOffset":0,"byteStride":12,"target":34962},{"name":"bufferView_1","buffer":0,"byteLength":336,"byteOffset":336,"byteStride":12,"target":34962},{"name":"bufferView_2","buffer":0,"byteLength":224,"byteOffset":672,"byteStride":8,"target":34962},{"name":"bufferView_3","buffer":0,"byteLength":96,"byteOffset":896,"target":34963}],"materials":[{"name":"54872","pbrMetallicRoughness":{"baseColorFactor":[0.909803921568627,0.909803921568627,0.909803921568627,1],"metallicFactor":0,"roughnessFactor":1},"emissiveFactor":[0,0,0],"alphaMode":"OPAQUE","doubleSided":false}],"meshes":[{"name":"268498-Mesh","primitives":[{"attributes":{"POSITION":0,"NORMAL":1,"TEXCOORD_0":2},"indices":3,"material":0,"mode":4}]}],"nodes":[{"name":"268498","mesh":0}],"scene":0,"scenes":[{"nodes":[0]}]}