{"accessors":[{"name":"268474-Mesh_0_positions","componentType":5126,"count":103,"min":[-8.116399765014648,11.699999809265137,15.371100425720215],"max":[-2.636399984359741,12.75,15.631099700927734],"type":"VEC3","bufferView":0,"byteOffset":0},{"name":"268474-Mesh_0_normals","componentType":5126,"count":103,"min":[-1,-1,-1],"max":[1,1,1],"type":"VEC3","bufferView":1,"byteOffset":0},{"name":"268474-Mesh_0_texcoords","componentType":5126,"count":103,"min":[-0.12999999523162842,-0.05000000074505806],"max":[5.28000020980835,1.2300000190734863],"type":"VEC2","bufferView":2,"byteOffset":0},{"name":"268474-Mesh_0_indices","componentType":5123,"count":195,"min":[0],"max":[102],"type":"SCALAR","bufferView":3,"byteOffset":0},{"name":"268474-Mesh_1_positions","componentType":5126,"count":71,"min":[-8.116399765014648,11.699999809265137,15.401100158691406],"max":[-2.636399984359741,12.75,15.601099967956543],"type":"VEC3","bufferView":0,"byteOffset":1236},{"name":"268474-Mesh_1_normals","componentType":5126,"count":71,"min":[-1,-1,-1],"max":[1,1,1],"type":"VEC3","bufferView":1,"byteOffset":1236},{"name":"268474-Mesh_1_texcoords","componentType":5126,"count":71,"min":[-5.539999961853027,-0.05000000074505806],"max":[5.539999961853027,1.100000023841858],"type":"VEC2","bufferView":2,"byteOffset":824},{"name":"268474-Mesh_1_indices","componentType":5123,"count":123,"min":[0],"max":[70],"type":"SCALAR","bufferView":3,"byteOffset":392}],"asset":{"generator":"obj2gltf","version":"2.0"},"buffers":[{"name":"268474","byteLength":6208,"uri":"data:application/octet-stream;base64,"}],"bufferViews":[{"name":"bufferView_0","buffer":0,"byteLength":2088,"byteOffset":0,"byteStride":12,"target":34962},{"name":"bufferView_1","buffer":0,"byteLength":2088,"byteOffset":2088,"byteStride":12,"target":34962},{"name":"bufferView_2","buffer":0,"byteLength":1392,"byteOffset":4176,"byteStride":8,"target":34962},{"name":"bufferView_3","buffer":0,"byteLength":640,"byteOffset":5568,"target":34963}],"materials":[{"name":"54872","pbrMetallicRoughness":{"baseColorFactor":[0.909803921568627,0.909803921568627,0.909803921568627,1],"metallicFactor":0,"roughnessFactor":1},"emissiveFactor":[0,0,0],"alphaMode":"OPAQUE","doubleSided":false},{"name":"31","pbrMetallicRoughness":{"baseColorFactor":[0.356862745098039,0.376470588235294,0.435294117647059,1],"metallicFactor":0,"roughnessFactor":1},"emissiveFactor":[0,0,0],"alphaMode":"OPAQUE","doubleSided":false}],"meshes":[{"name":"268474-Mesh","primitives":[{"attributes":{"POSITION":0,"NORMAL":1,"TEXCOORD_0":2},"indices":3,"material":0,"mode":4},{"attributes":{"POSITION":4,"NORMAL":5,"TEXCOORD_0":6},"indices":7,"material":1,"mode":4}]}],"nodes":[{"name":"268474","mesh":0}],"scene":0,"scenes":[{"nodes":[0]}]}