{"accessors":[{"name":"268461-Mesh_0_positions","componentType":5126,"count":120,"min":[-6.166399955749512,9.550000190734863,15.481100082397461],"max":[-2.966399908065796,11.25,15.521100044250488],"type":"VEC3","bufferView":0,"byteOffset":0},{"name":"268461-Mesh_0_normals","componentType":5126,"count":120,"min":[-1,-1,-1],"max":[1,1,1],"type":"VEC3","bufferView":1,"byteOffset":0},{"name":"268461-Mesh_0_texcoords","componentType":5126,"count":120,"min":[-2.2095999717712402,-1.75],"max":[2.2095999717712402,1.0049999952316284],"type":"VEC2","bufferView":2,"byteOffset":0},{"name":"268461-Mesh_0_indices","componentType":5123,"count":180,"min":[0],"max":[119],"type":"SCALAR","bufferView":3,"byteOffset":0},{"name":"268461-Mesh_1_positions","componentType":5126,"count":288,"min":[-6.216400146484375,9.5,15.471099853515625],"max":[-2.9163999557495117,11.300000190734863,15.531100273132324],"type":"VEC3","bufferView":0,"byteOffset":1440},{"name":"268461-Mesh_1_normals","componentType":5126,"count":288,"min":[-1,-1,-1],"max":[1,1,1],"type":"VEC3","bufferView":1,"byteOffset":1440},{"name":"268461-Mesh_1_texcoords","componentType":5126,"count":288,"min":[-2.2595999240875244,-1.7999999523162842],"max":[2.2595999240875244,1.0299999713897705],"type":"VEC2","bufferView":2,"byteOffset":960},{"name":"268461-Mesh_1_indices","componentType":5123,"count":600,"min":[0],"max":[287],"type":"SCALAR","bufferView":3,"byteOffset":360}],"asset":{"generator":"obj2gltf","version":"2.0"},"buffers":[{"name":"268461","byteLength":14616,"uri":"data:application/octet-stream;base64,"}],"bufferViews":[{"name":"bufferView_0","buffer":0,"byteLength":4896,"byteOffset":0,"byteStride":12,"target":34962},{"name":"bufferView_1","buffer":0,"byteLength":4896,"byteOffset":4896,"byteStride":12,"target":34962},{"name":"bufferView_2","buffer":0,"byteLength":3264,"byteOffset":9792,"byteStride":8,"target":34962},{"name":"bufferView_3","buffer":0,"byteLength":1560,"byteOffset":13056,"target":34963}],"materials":[{"name":"33","pbrMetallicRoughness":{"baseColorFactor":[0,0,1,0.25],"metallicFactor":0,"roughnessFactor":1},"emissiveFactor":[0,0,0],"alphaMode":"BLEND","doubleSided":true},{"name":"274500","pbrMetallicRoughness":{"baseColorFactor":[0.780392156862745,0.854901960784314,0.847058823529412,1],"metallicFactor":0,"roughnessFactor":1},"emissiveFactor":[0,0,0],"alphaMode":"OPAQUE","doubleSided":false}],"meshes":[{"name":"268461-Mesh","primitives":[{"attributes":{"POSITION":0,"NORMAL":1,"TEXCOORD_0":2},"indices":3,"material":0,"mode":4},{"attributes":{"POSITION":4,"NORMAL":5,"TEXCOORD_0":6},"indices":7,"material":1,"mode":4}]}],"nodes":[{"name":"268461","mesh":0}],"scene":0,"scenes":[{"nodes":[0]}]}