{"accessors":[{"name":"268468-Mesh_0_positions","componentType":5126,"count":32,"min":[-12.516400337219238,11.699999809265137,4.501100063323975],"max":[-12.316399574279785,12.5,8.071100234985352],"type":"VEC3","bufferView":0,"byteOffset":0},{"name":"268468-Mesh_0_normals","componentType":5126,"count":32,"min":[-1,-1,-1],"max":[1,1,1],"type":"VEC3","bufferView":1,"byteOffset":0},{"name":"268468-Mesh_0_texcoords","componentType":5126,"count":32,"min":[-3.6700000762939453,0.20000000298023224],"max":[3.6700000762939453,1.100000023841858],"type":"VEC2","bufferView":2,"byteOffset":0},{"name":"268468-Mesh_0_indices","componentType":5123,"count":60,"min":[0],"max":[31],"type":"SCALAR","bufferView":3,"byteOffset":0}],"asset":{"generator":"obj2gltf","version":"2.0"},"buffers":[{"name":"268468","byteLength":1144,"uri":"data:application/octet-stream;base64,"}],"bufferViews":[{"name":"bufferView_0","buffer":0,"byteLength":384,"byteOffset":0,"byteStride":12,"target":34962},{"name":"bufferView_1","buffer":0,"byteLength":384,"byteOffset":384,"byteStride":12,"target":34962},{"name":"bufferView_2","buffer":0,"byteLength":256,"byteOffset":768,"byteStride":8,"target":34962},{"name":"bufferView_3","buffer":0,"byteLength":120,"byteOffset":1024,"target":34963}],"materials":[{"name":"90484","pbrMetallicRoughness":{"baseColorFactor":[0.784313725490196,0.784313725490196,0.784313725490196,1],"metallicFactor":0,"roughnessFactor":1},"emissiveFactor":[0,0,0],"alphaMode":"OPAQUE","doubleSided":false}],"meshes":[{"name":"268468-Mesh","primitives":[{"attributes":{"POSITION":0,"NORMAL":1,"TEXCOORD_0":2},"indices":3,"material":0,"mode":4}]}],"nodes":[{"name":"268468","mesh":0}],"scene":0,"scenes":[{"nodes":[0]}]}