{"accessors":[{"name":"268433-Mesh_0_positions","componentType":5126,"count":108,"min":[-11.246800422668457,3.6370999813079834,16.30109977722168],"max":[-10.825900077819824,5,17.855899810791016],"type":"VEC3","bufferView":0,"byteOffset":0},{"name":"268433-Mesh_0_normals","componentType":5126,"count":108,"min":[-1,-1,-1],"max":[1,1,1],"type":"VEC3","bufferView":1,"byteOffset":0},{"name":"268433-Mesh_0_texcoords","componentType":5126,"count":108,"min":[-0.7986000180244446,0.23319999873638153],"max":[0.7986000180244446,1.766800045967102],"type":"VEC2","bufferView":2,"byteOffset":0},{"name":"268433-Mesh_0_indices","componentType":5123,"count":204,"min":[0],"max":[107],"type":"SCALAR","bufferView":3,"byteOffset":0}],"asset":{"generator":"obj2gltf","version":"2.0"},"buffers":[{"name":"268433","byteLength":3864,"uri":"data:application/octet-stream;base64,"}],"bufferViews":[{"name":"bufferView_0","buffer":0,"byteLength":1296,"byteOffset":0,"byteStride":12,"target":34962},{"name":"bufferView_1","buffer":0,"byteLength":1296,"byteOffset":1296,"byteStride":12,"target":34962},{"name":"bufferView_2","buffer":0,"byteLength":864,"byteOffset":2592,"byteStride":8,"target":34962},{"name":"bufferView_3","buffer":0,"byteLength":408,"byteOffset":3456,"target":34963}],"materials":[{"name":"90484","pbrMetallicRoughness":{"baseColorFactor":[0.784313725490196,0.784313725490196,0.784313725490196,1],"metallicFactor":0,"roughnessFactor":1},"emissiveFactor":[0,0,0],"alphaMode":"OPAQUE","doubleSided":false}],"meshes":[{"name":"268433-Mesh","primitives":[{"attributes":{"POSITION":0,"NORMAL":1,"TEXCOORD_0":2},"indices":3,"material":0,"mode":4}]}],"nodes":[{"name":"268433","mesh":0}],"scene":0,"scenes":[{"nodes":[0]}]}