{"accessors":[{"name":"268654-Mesh_0_positions","componentType":5126,"count":5699,"min":[-10.916399955749512,3.8822999000549316,16.28660011291504],"max":[-8.216400146484375,4.809899806976318,17.608699798583984],"type":"VEC3","bufferView":0,"byteOffset":0},{"name":"268654-Mesh_0_normals","componentType":5126,"count":5699,"min":[-1,-1,-1],"max":[1,1,1],"type":"VEC3","bufferView":1,"byteOffset":0},{"name":"268654-Mesh_0_texcoords","componentType":5126,"count":5699,"min":[-16.62529945373535,0.2919999957084656],"max":[16.62529945373535,17.617799758911133],"type":"VEC2","bufferView":2,"byteOffset":0},{"name":"268654-Mesh_0_indices","componentType":5123,"count":21897,"min":[0],"max":[5698],"type":"SCALAR","bufferView":3,"byteOffset":0}],"asset":{"generator":"obj2gltf","version":"2.0"},"buffers":[{"name":"268654","byteLength":226164,"uri":"data:application/octet-stream;base64,"}],"bufferViews":[{"name":"bufferView_0","buffer":0,"byteLength":68388,"byteOffset":0,"byteStride":12,"target":34962},{"name":"bufferView_1","buffer":0,"byteLength":68388,"byteOffset":68388,"byteStride":12,"target":34962},{"name":"bufferView_2","buffer":0,"byteLength":45592,"byteOffset":136776,"byteStride":8,"target":34962},{"name":"bufferView_3","buffer":0,"byteLength":43796,"byteOffset":182368,"target":34963}],"materials":[{"name":"191881","pbrMetallicRoughness":{"baseColorFactor":[0.356862745098039,0.376470588235294,0.435294117647059,1],"metallicFactor":0,"roughnessFactor":1},"emissiveFactor":[0,0,0],"alphaMode":"OPAQUE","doubleSided":false}],"meshes":[{"name":"268654-Mesh","primitives":[{"attributes":{"POSITION":0,"NORMAL":1,"TEXCOORD_0":2},"indices":3,"material":0,"mode":4}]}],"nodes":[{"name":"268654","mesh":0}],"scene":0,"scenes":[{"nodes":[0]}]}