{"accessors":[{"name":"268669-Mesh_0_positions","componentType":5126,"count":72,"min":[-7.366399765014648,9.550000190734863,4.381100177764893],"max":[-5.466400146484375,11.25,4.42110013961792],"type":"VEC3","bufferView":0,"byteOffset":0},{"name":"268669-Mesh_0_normals","componentType":5126,"count":72,"min":[-1,-1,-1],"max":[1,1,1],"type":"VEC3","bufferView":1,"byteOffset":0},{"name":"268669-Mesh_0_texcoords","componentType":5126,"count":72,"min":[-1.5595999956130981,-1.75],"max":[1.5595999956130981,1.0049999952316284],"type":"VEC2","bufferView":2,"byteOffset":0},{"name":"268669-Mesh_0_indices","componentType":5123,"count":108,"min":[0],"max":[71],"type":"SCALAR","bufferView":3,"byteOffset":0},{"name":"268669-Mesh_1_positions","componentType":5126,"count":168,"min":[-7.416399955749512,9.5,4.371099948883057],"max":[-5.416399955749512,11.300000190734863,4.431099891662598],"type":"VEC3","bufferView":0,"byteOffset":864},{"name":"268669-Mesh_1_normals","componentType":5126,"count":168,"min":[-1,-1,-1],"max":[1,1,1],"type":"VEC3","bufferView":1,"byteOffset":864},{"name":"268669-Mesh_1_texcoords","componentType":5126,"count":168,"min":[-1.6095999479293823,-1.7999999523162842],"max":[1.6095999479293823,1.0299999713897705],"type":"VEC2","bufferView":2,"byteOffset":576},{"name":"268669-Mesh_1_indices","componentType":5123,"count":324,"min":[0],"max":[167],"type":"SCALAR","bufferView":3,"byteOffset":216}],"asset":{"generator":"obj2gltf","version":"2.0"},"buffers":[{"name":"268669","byteLength":8544,"uri":"data:application/octet-stream;base64,"}],"bufferViews":[{"name":"bufferView_0","buffer":0,"byteLength":2880,"byteOffset":0,"byteStride":12,"target":34962},{"name":"bufferView_1","buffer":0,"byteLength":2880,"byteOffset":2880,"byteStride":12,"target":34962},{"name":"bufferView_2","buffer":0,"byteLength":1920,"byteOffset":5760,"byteStride":8,"target":34962},{"name":"bufferView_3","buffer":0,"byteLength":864,"byteOffset":7680,"target":34963}],"materials":[{"name":"33","pbrMetallicRoughness":{"baseColorFactor":[0,0,1,0.25],"metallicFactor":0,"roughnessFactor":1},"emissiveFactor":[0,0,0],"alphaMode":"BLEND","doubleSided":true},{"name":"274500","pbrMetallicRoughness":{"baseColorFactor":[0.780392156862745,0.854901960784314,0.847058823529412,1],"metallicFactor":0,"roughnessFactor":1},"emissiveFactor":[0,0,0],"alphaMode":"OPAQUE","doubleSided":false}],"meshes":[{"name":"268669-Mesh","primitives":[{"attributes":{"POSITION":0,"NORMAL":1,"TEXCOORD_0":2},"indices":3,"material":0,"mode":4},{"attributes":{"POSITION":4,"NORMAL":5,"TEXCOORD_0":6},"indices":7,"material":1,"mode":4}]}],"nodes":[{"name":"268669","mesh":0}],"scene":0,"scenes":[{"nodes":[0]}]}