{"accessors":[{"name":"268713-Mesh_0_positions","componentType":5126,"count":58,"min":[-12.516400337219238,8.850000381469727,5.661099910736084],"max":[-11.966400146484375,8.949999809265137,8.071100234985352],"type":"VEC3","bufferView":0,"byteOffset":0},{"name":"268713-Mesh_0_normals","componentType":5126,"count":58,"min":[-1,-1,-1],"max":[1,1,1],"type":"VEC3","bufferView":1,"byteOffset":0},{"name":"268713-Mesh_0_texcoords","componentType":5126,"count":58,"min":[-8.071100234985352,-6.48360013961792],"max":[7.48360013961792,8.483599662780762],"type":"VEC2","bufferView":2,"byteOffset":0},{"name":"268713-Mesh_0_indices","componentType":5123,"count":132,"min":[0],"max":[57],"type":"SCALAR","bufferView":3,"byteOffset":0}],"asset":{"generator":"obj2gltf","version":"2.0"},"buffers":[{"name":"268713","byteLength":2120,"uri":"data:application/octet-stream;base64,"}],"bufferViews":[{"name":"bufferView_0","buffer":0,"byteLength":696,"byteOffset":0,"byteStride":12,"target":34962},{"name":"bufferView_1","buffer":0,"byteLength":696,"byteOffset":696,"byteStride":12,"target":34962},{"name":"bufferView_2","buffer":0,"byteLength":464,"byteOffset":1392,"byteStride":8,"target":34962},{"name":"bufferView_3","buffer":0,"byteLength":264,"byteOffset":1856,"target":34963}],"materials":[{"name":"54872","pbrMetallicRoughness":{"baseColorFactor":[0.909803921568627,0.909803921568627,0.909803921568627,1],"metallicFactor":0,"roughnessFactor":1},"emissiveFactor":[0,0,0],"alphaMode":"OPAQUE","doubleSided":false}],"meshes":[{"name":"268713-Mesh","primitives":[{"attributes":{"POSITION":0,"NORMAL":1,"TEXCOORD_0":2},"indices":3,"material":0,"mode":4}]}],"nodes":[{"name":"268713","mesh":0}],"scene":0,"scenes":[{"nodes":[0]}]}