{"accessors":[{"name":"268775-Mesh_0_positions","componentType":5126,"count":26,"min":[-8.116399765014648,11.699999809265137,4.501100063323975],"max":[-7.916399955749512,15.921699523925781,8.071100234985352],"type":"VEC3","bufferView":0,"byteOffset":0},{"name":"268775-Mesh_0_normals","componentType":5126,"count":26,"min":[-1,-1,-1],"max":[1,0.9367195963859558,1],"type":"VEC3","bufferView":1,"byteOffset":0},{"name":"268775-Mesh_0_texcoords","componentType":5126,"count":26,"min":[-3.6700000762939453,-3.2216999530792236],"max":[4.916100025177002,1.100000023841858],"type":"VEC2","bufferView":2,"byteOffset":0},{"name":"268775-Mesh_0_indices","componentType":5123,"count":42,"min":[0],"max":[25],"type":"SCALAR","bufferView":3,"byteOffset":0}],"asset":{"generator":"obj2gltf","version":"2.0"},"buffers":[{"name":"268775","byteLength":916,"uri":"data:application/octet-stream;base64,"}],"bufferViews":[{"name":"bufferView_0","buffer":0,"byteLength":312,"byteOffset":0,"byteStride":12,"target":34962},{"name":"bufferView_1","buffer":0,"byteLength":312,"byteOffset":312,"byteStride":12,"target":34962},{"name":"bufferView_2","buffer":0,"byteLength":208,"byteOffset":624,"byteStride":8,"target":34962},{"name":"bufferView_3","buffer":0,"byteLength":84,"byteOffset":832,"target":34963}],"materials":[{"name":"90484","pbrMetallicRoughness":{"baseColorFactor":[0.784313725490196,0.784313725490196,0.784313725490196,1],"metallicFactor":0,"roughnessFactor":1},"emissiveFactor":[0,0,0],"alphaMode":"OPAQUE","doubleSided":false}],"meshes":[{"name":"268775-Mesh","primitives":[{"attributes":{"POSITION":0,"NORMAL":1,"TEXCOORD_0":2},"indices":3,"material":0,"mode":4}]}],"nodes":[{"name":"268775","mesh":0}],"scene":0,"scenes":[{"nodes":[0]}]}