{"accessors":[{"name":"268819-Mesh_0_positions","componentType":5126,"count":90,"min":[-2.636399984359741,11.699999809265137,14.401100158691406],"max":[-2.516400098800659,13.01449966430664,16.681100845336914],"type":"VEC3","bufferView":0,"byteOffset":0},{"name":"268819-Mesh_0_normals","componentType":5126,"count":90,"min":[-1,-1,-1],"max":[1,1,1],"type":"VEC3","bufferView":1,"byteOffset":0},{"name":"268819-Mesh_0_texcoords","componentType":5126,"count":90,"min":[-2.380000114440918,-0.31450000405311584],"max":[2.380000114440918,1.059999942779541],"type":"VEC2","bufferView":2,"byteOffset":0},{"name":"268819-Mesh_0_indices","componentType":5123,"count":192,"min":[0],"max":[89],"type":"SCALAR","bufferView":3,"byteOffset":0}],"asset":{"generator":"obj2gltf","version":"2.0"},"buffers":[{"name":"268819","byteLength":3264,"uri":"data:application/octet-stream;base64,"}],"bufferViews":[{"name":"bufferView_0","buffer":0,"byteLength":1080,"byteOffset":0,"byteStride":12,"target":34962},{"name":"bufferView_1","buffer":0,"byteLength":1080,"byteOffset":1080,"byteStride":12,"target":34962},{"name":"bufferView_2","buffer":0,"byteLength":720,"byteOffset":2160,"byteStride":8,"target":34962},{"name":"bufferView_3","buffer":0,"byteLength":384,"byteOffset":2880,"target":34963}],"materials":[{"name":"90484","pbrMetallicRoughness":{"baseColorFactor":[0.784313725490196,0.784313725490196,0.784313725490196,1],"metallicFactor":0,"roughnessFactor":1},"emissiveFactor":[0,0,0],"alphaMode":"OPAQUE","doubleSided":false}],"meshes":[{"name":"268819-Mesh","primitives":[{"attributes":{"POSITION":0,"NORMAL":1,"TEXCOORD_0":2},"indices":3,"material":0,"mode":4}]}],"nodes":[{"name":"268819","mesh":0}],"scene":0,"scenes":[{"nodes":[0]}]}