{"accessors":[{"name":"268817-Mesh_0_positions","componentType":5126,"count":34,"min":[-8.116399765014648,14.300000190734863,8.271100044250488],"max":[-7.916399955749512,16.587200164794922,10.70110034942627],"type":"VEC3","bufferView":0,"byteOffset":0},{"name":"268817-Mesh_0_normals","componentType":5126,"count":34,"min":[-1,-1,-1],"max":[1,0.9367195963859558,1],"type":"VEC3","bufferView":1,"byteOffset":0},{"name":"268817-Mesh_0_texcoords","componentType":5126,"count":34,"min":[-2.5299999713897705,-3.887200117111206],"max":[3.2852001190185547,1.100000023841858],"type":"VEC2","bufferView":2,"byteOffset":0},{"name":"268817-Mesh_0_indices","componentType":5123,"count":60,"min":[0],"max":[33],"type":"SCALAR","bufferView":3,"byteOffset":0}],"asset":{"generator":"obj2gltf","version":"2.0"},"buffers":[{"name":"268817","byteLength":1208,"uri":"data:application/octet-stream;base64,"}],"bufferViews":[{"name":"bufferView_0","buffer":0,"byteLength":408,"byteOffset":0,"byteStride":12,"target":34962},{"name":"bufferView_1","buffer":0,"byteLength":408,"byteOffset":408,"byteStride":12,"target":34962},{"name":"bufferView_2","buffer":0,"byteLength":272,"byteOffset":816,"byteStride":8,"target":34962},{"name":"bufferView_3","buffer":0,"byteLength":120,"byteOffset":1088,"target":34963}],"materials":[{"name":"90484","pbrMetallicRoughness":{"baseColorFactor":[0.784313725490196,0.784313725490196,0.784313725490196,1],"metallicFactor":0,"roughnessFactor":1},"emissiveFactor":[0,0,0],"alphaMode":"OPAQUE","doubleSided":false}],"meshes":[{"name":"268817-Mesh","primitives":[{"attributes":{"POSITION":0,"NORMAL":1,"TEXCOORD_0":2},"indices":3,"material":0,"mode":4}]}],"nodes":[{"name":"268817","mesh":0}],"scene":0,"scenes":[{"nodes":[0]}]}