{"accessors":[{"name":"270782-Mesh_0_positions","componentType":5126,"count":18,"min":[-6.656400203704834,-0.20000000298023224,16.80109977722168],"max":[1.6236000061035156,0,19.30109977722168],"type":"VEC3","bufferView":0,"byteOffset":0},{"name":"270782-Mesh_0_normals","componentType":5126,"count":18,"min":[-0.9987556338310242,-1,-1],"max":[0.9987556338310242,0.9968163371086121,0.07973217964172363],"type":"VEC3","bufferView":1,"byteOffset":0},{"name":"270782-Mesh_0_texcoords","componentType":5126,"count":18,"min":[-4.139999866485596,-0.2540000081062317],"max":[4.139999866485596,2.253999948501587],"type":"VEC2","bufferView":2,"byteOffset":0},{"name":"270782-Mesh_0_indices","componentType":5123,"count":24,"min":[0],"max":[17],"type":"SCALAR","bufferView":3,"byteOffset":0}],"asset":{"generator":"obj2gltf","version":"2.0"},"buffers":[{"name":"270782","byteLength":624,"uri":"data:application/octet-stream;base64,"}],"bufferViews":[{"name":"bufferView_0","buffer":0,"byteLength":216,"byteOffset":0,"byteStride":12,"target":34962},{"name":"bufferView_1","buffer":0,"byteLength":216,"byteOffset":216,"byteStride":12,"target":34962},{"name":"bufferView_2","buffer":0,"byteLength":144,"byteOffset":432,"byteStride":8,"target":34962},{"name":"bufferView_3","buffer":0,"byteLength":48,"byteOffset":576,"target":34963}],"materials":[{"name":"241168","pbrMetallicRoughness":{"baseColorFactor":[0.282352941176471,0.474509803921569,0.509803921568627,1],"metallicFactor":0,"roughnessFactor":1},"emissiveFactor":[0,0,0],"alphaMode":"OPAQUE","doubleSided":false}],"meshes":[{"name":"270782-Mesh","primitives":[{"attributes":{"POSITION":0,"NORMAL":1,"TEXCOORD_0":2},"indices":3,"material":0,"mode":4}]}],"nodes":[{"name":"270782","mesh":0}],"scene":0,"scenes":[{"nodes":[0]}]}