{"accessors":[{"name":"276824-Mesh_0_positions","componentType":5126,"count":96,"min":[-2.8164000511169434,13.01449966430664,14.401100158691406],"max":[-2.216399908065796,13.464500427246094,16.89109992980957],"type":"VEC3","bufferView":0,"byteOffset":0},{"name":"276824-Mesh_0_normals","componentType":5126,"count":96,"min":[-1,-1,-1],"max":[1,1,1],"type":"VEC3","bufferView":1,"byteOffset":0},{"name":"276824-Mesh_0_texcoords","componentType":5126,"count":96,"min":[-2.490000009536743,-1.4900000095367432],"max":[2.490000009536743,3.490000009536743],"type":"VEC2","bufferView":2,"byteOffset":0},{"name":"276824-Mesh_0_indices","componentType":5123,"count":144,"min":[0],"max":[95],"type":"SCALAR","bufferView":3,"byteOffset":0},{"name":"276824-Mesh_1_positions","componentType":5126,"count":24,"min":[-2.8164000511169434,13.464500427246094,14.401100158691406],"max":[-2.216399908065796,13.654500007629395,16.89109992980957],"type":"VEC3","bufferView":0,"byteOffset":1152},{"name":"276824-Mesh_1_normals","componentType":5126,"count":24,"min":[-0.6206861138343811,-1,-1],"max":[0.6206861138343811,1,0.6206861138343811],"type":"VEC3","bufferView":1,"byteOffset":1152},{"name":"276824-Mesh_1_texcoords","componentType":5126,"count":24,"min":[-0.909600019454956,-1.4900000095367432],"max":[0.30000001192092896,3.490000009536743],"type":"VEC2","bufferView":2,"byteOffset":768},{"name":"276824-Mesh_1_indices","componentType":5123,"count":36,"min":[0],"max":[23],"type":"SCALAR","bufferView":3,"byteOffset":288}],"asset":{"generator":"obj2gltf","version":"2.0"},"buffers":[{"name":"276824","byteLength":4200,"uri":"data:application/octet-stream;base64,"}],"bufferViews":[{"name":"bufferView_0","buffer":0,"byteLength":1440,"byteOffset":0,"byteStride":12,"target":34962},{"name":"bufferView_1","buffer":0,"byteLength":1440,"byteOffset":1440,"byteStride":12,"target":34962},{"name":"bufferView_2","buffer":0,"byteLength":960,"byteOffset":2880,"byteStride":8,"target":34962},{"name":"bufferView_3","buffer":0,"byteLength":360,"byteOffset":3840,"target":34963}],"materials":[{"name":"90484","pbrMetallicRoughness":{"baseColorFactor":[0.784313725490196,0.784313725490196,0.784313725490196,1],"metallicFactor":0,"roughnessFactor":1},"emissiveFactor":[0,0,0],"alphaMode":"OPAQUE","doubleSided":false},{"name":"191881","pbrMetallicRoughness":{"baseColorFactor":[0.356862745098039,0.376470588235294,0.435294117647059,1],"metallicFactor":0,"roughnessFactor":1},"emissiveFactor":[0,0,0],"alphaMode":"OPAQUE","doubleSided":false}],"meshes":[{"name":"276824-Mesh","primitives":[{"attributes":{"POSITION":0,"NORMAL":1,"TEXCOORD_0":2},"indices":3,"material":0,"mode":4},{"attributes":{"POSITION":4,"NORMAL":5,"TEXCOORD_0":6},"indices":7,"material":1,"mode":4}]}],"nodes":[{"name":"276824","mesh":0}],"scene":0,"scenes":[{"nodes":[0]}]}