{"accessors":[{"name":"300004-Mesh_0_positions","componentType":5126,"count":9415,"min":[-1.0163999795913696,5.300000190734863,9.521499633789062],"max":[2.8835999965667725,7.7993998527526855,9.600799560546875],"type":"VEC3","bufferView":0,"byteOffset":0},{"name":"300004-Mesh_0_normals","componentType":5126,"count":9415,"min":[-1,-1,-1],"max":[1,1,1],"type":"VEC3","bufferView":1,"byteOffset":0},{"name":"300004-Mesh_0_texcoords","componentType":5126,"count":9415,"min":[-0.03959999978542328,-63.22309875488281],"max":[2.811300039291382,24.370399475097656],"type":"VEC2","bufferView":2,"byteOffset":0},{"name":"300004-Mesh_0_indices","componentType":5123,"count":31893,"min":[0],"max":[9414],"type":"SCALAR","bufferView":3,"byteOffset":0}],"asset":{"generator":"obj2gltf","version":"2.0"},"buffers":[{"name":"300004","byteLength":365068,"uri":"data:application/octet-stream;base64,"}],"bufferViews":[{"name":"bufferView_0","buffer":0,"byteLength":112980,"byteOffset":0,"byteStride":12,"target":34962},{"name":"bufferView_1","buffer":0,"byteLength":112980,"byteOffset":112980,"byteStride":12,"target":34962},{"name":"bufferView_2","buffer":0,"byteLength":75320,"byteOffset":225960,"byteStride":8,"target":34962},{"name":"bufferView_3","buffer":0,"byteLength":63788,"byteOffset":301280,"target":34963}],"materials":[{"name":"default","pbrMetallicRoughness":{"baseColorFactor":[0.498039215686275,0.498039215686275,0.498039215686275,1],"metallicFactor":0,"roughnessFactor":1},"emissiveFactor":[0,0,0],"alphaMode":"OPAQUE","doubleSided":false}],"meshes":[{"name":"300004-Mesh","primitives":[{"attributes":{"POSITION":0,"NORMAL":1,"TEXCOORD_0":2},"indices":3,"material":0,"mode":4}]}],"nodes":[{"name":"300004","mesh":0}],"scene":0,"scenes":[{"nodes":[0]}]}