{"accessors":[{"name":"300330-Mesh_0_positions","componentType":5126,"count":5600,"min":[-1.0163999795913696,7.059999942779541,9.371500015258789],"max":[1.3835999965667725,9.399399757385254,9.450799942016602],"type":"VEC3","bufferView":0,"byteOffset":0},{"name":"300330-Mesh_0_normals","componentType":5126,"count":5600,"min":[-1,-1,-1],"max":[1,0.8660544753074646,1],"type":"VEC3","bufferView":1,"byteOffset":0},{"name":"300330-Mesh_0_texcoords","componentType":5126,"count":5600,"min":[-0.03959999978542328,-63.22309875488281],"max":[2.8189001083374023,24.370399475097656],"type":"VEC2","bufferView":2,"byteOffset":0},{"name":"300330-Mesh_0_indices","componentType":5123,"count":19203,"min":[0],"max":[5599],"type":"SCALAR","bufferView":3,"byteOffset":0}],"asset":{"generator":"obj2gltf","version":"2.0"},"buffers":[{"name":"300330","byteLength":217608,"uri":"data:application/octet-stream;base64,"}],"bufferViews":[{"name":"bufferView_0","buffer":0,"byteLength":67200,"byteOffset":0,"byteStride":12,"target":34962},{"name":"bufferView_1","buffer":0,"byteLength":67200,"byteOffset":67200,"byteStride":12,"target":34962},{"name":"bufferView_2","buffer":0,"byteLength":44800,"byteOffset":134400,"byteStride":8,"target":34962},{"name":"bufferView_3","buffer":0,"byteLength":38408,"byteOffset":179200,"target":34963}],"materials":[{"name":"default","pbrMetallicRoughness":{"baseColorFactor":[0.498039215686275,0.498039215686275,0.498039215686275,1],"metallicFactor":0,"roughnessFactor":1},"emissiveFactor":[0,0,0],"alphaMode":"OPAQUE","doubleSided":false}],"meshes":[{"name":"300330-Mesh","primitives":[{"attributes":{"POSITION":0,"NORMAL":1,"TEXCOORD_0":2},"indices":3,"material":0,"mode":4}]}],"nodes":[{"name":"300330","mesh":0}],"scene":0,"scenes":[{"nodes":[0]}]}