{"accessors":[{"name":"333872-Mesh_0_positions","componentType":5126,"count":28,"min":[-2.3164000511169434,2.299999952316284,8.071100234985352],"max":[-0.6164000034332275,2.5999999046325684,8.271100044250488],"type":"VEC3","bufferView":0,"byteOffset":0},{"name":"333872-Mesh_0_normals","componentType":5126,"count":28,"min":[-1,-1,-1],"max":[1,1,1],"type":"VEC3","bufferView":1,"byteOffset":0},{"name":"333872-Mesh_0_texcoords","componentType":5126,"count":28,"min":[-1.7999999523162842,0.8999999761581421],"max":[1.7999999523162842,1.2999999523162842],"type":"VEC2","bufferView":2,"byteOffset":0},{"name":"333872-Mesh_0_indices","componentType":5123,"count":48,"min":[0],"max":[27],"type":"SCALAR","bufferView":3,"byteOffset":0}],"asset":{"generator":"obj2gltf","version":"2.0"},"buffers":[{"name":"333872","byteLength":992,"uri":"data:application/octet-stream;base64,"}],"bufferViews":[{"name":"bufferView_0","buffer":0,"byteLength":336,"byteOffset":0,"byteStride":12,"target":34962},{"name":"bufferView_1","buffer":0,"byteLength":336,"byteOffset":336,"byteStride":12,"target":34962},{"name":"bufferView_2","buffer":0,"byteLength":224,"byteOffset":672,"byteStride":8,"target":34962},{"name":"bufferView_3","buffer":0,"byteLength":96,"byteOffset":896,"target":34963}],"materials":[{"name":"54872","pbrMetallicRoughness":{"baseColorFactor":[0.909803921568627,0.909803921568627,0.909803921568627,1],"metallicFactor":0,"roughnessFactor":1},"emissiveFactor":[0,0,0],"alphaMode":"OPAQUE","doubleSided":false}],"meshes":[{"name":"333872-Mesh","primitives":[{"attributes":{"POSITION":0,"NORMAL":1,"TEXCOORD_0":2},"indices":3,"material":0,"mode":4}]}],"nodes":[{"name":"333872","mesh":0}],"scene":0,"scenes":[{"nodes":[0]}]}