{"accessors":[{"name":"363005-Mesh_0_positions","componentType":5126,"count":444,"min":[7.283599853515625,2.5999999046325684,9.38129997253418],"max":[8.204299926757812,3.3996999263763428,10.87090015411377],"type":"VEC3","bufferView":0,"byteOffset":0},{"name":"363005-Mesh_0_normals","componentType":5126,"count":444,"min":[-1,-1,-1],"max":[1,1,1],"type":"VEC3","bufferView":1,"byteOffset":0},{"name":"363005-Mesh_0_texcoords","componentType":5126,"count":444,"min":[-0.6000000238418579,0.2903999984264374],"max":[0.6000000238418579,1.4627000093460083],"type":"VEC2","bufferView":2,"byteOffset":0},{"name":"363005-Mesh_0_indices","componentType":5123,"count":876,"min":[0],"max":[443],"type":"SCALAR","bufferView":3,"byteOffset":0}],"asset":{"generator":"obj2gltf","version":"2.0"},"buffers":[{"name":"363005","byteLength":15960,"uri":"data:application/octet-stream;base64,"}],"bufferViews":[{"name":"bufferView_0","buffer":0,"byteLength":5328,"byteOffset":0,"byteStride":12,"target":34962},{"name":"bufferView_1","buffer":0,"byteLength":5328,"byteOffset":5328,"byteStride":12,"target":34962},{"name":"bufferView_2","buffer":0,"byteLength":3552,"byteOffset":10656,"byteStride":8,"target":34962},{"name":"bufferView_3","buffer":0,"byteLength":1752,"byteOffset":14208,"target":34963}],"materials":[{"name":"90484","pbrMetallicRoughness":{"baseColorFactor":[0.784313725490196,0.784313725490196,0.784313725490196,1],"metallicFactor":0,"roughnessFactor":1},"emissiveFactor":[0,0,0],"alphaMode":"OPAQUE","doubleSided":false}],"meshes":[{"name":"363005-Mesh","primitives":[{"attributes":{"POSITION":0,"NORMAL":1,"TEXCOORD_0":2},"indices":3,"material":0,"mode":4}]}],"nodes":[{"name":"363005","mesh":0}],"scene":0,"scenes":[{"nodes":[0]}]}