{"accessors":[{"name":"366904-Mesh_0_positions","componentType":5126,"count":8,"min":[1.3835999965667725,5.300000190734863,15.501099586486816],"max":[1.3835999965667725,9.123800277709961,16.80109977722168],"type":"VEC3","bufferView":0,"byteOffset":0},{"name":"366904-Mesh_0_normals","componentType":5126,"count":8,"min":[-1,0,0],"max":[-1,0,0],"type":"VEC3","bufferView":1,"byteOffset":0},{"name":"366904-Mesh_0_texcoords","componentType":5126,"count":8,"min":[0,-2.8238000869750977],"max":[1.2999999523162842,1],"type":"VEC2","bufferView":2,"byteOffset":0},{"name":"366904-Mesh_0_indices","componentType":5123,"count":18,"min":[0],"max":[7],"type":"SCALAR","bufferView":3,"byteOffset":0},{"name":"366904-Mesh_1_positions","componentType":5126,"count":34,"min":[1.3835999965667725,5.300000190734863,15.501099586486816],"max":[1.5836000442504883,9.123800277709961,16.80109977722168],"type":"VEC3","bufferView":0,"byteOffset":96},{"name":"366904-Mesh_1_normals","componentType":5126,"count":34,"min":[0,-1,-1],"max":[1,1,1],"type":"VEC3","bufferView":1,"byteOffset":96},{"name":"366904-Mesh_1_texcoords","componentType":5126,"count":34,"min":[-1.8252999782562256,-2.8238000869750977],"max":[1.2999999523162842,1.100000023841858],"type":"VEC2","bufferView":2,"byteOffset":64},{"name":"366904-Mesh_1_indices","componentType":5123,"count":60,"min":[0],"max":[33],"type":"SCALAR","bufferView":3,"byteOffset":36}],"asset":{"generator":"obj2gltf","version":"2.0"},"buffers":[{"name":"366904","byteLength":1500,"uri":"data:application/octet-stream;base64,"}],"bufferViews":[{"name":"bufferView_0","buffer":0,"byteLength":504,"byteOffset":0,"byteStride":12,"target":34962},{"name":"bufferView_1","buffer":0,"byteLength":504,"byteOffset":504,"byteStride":12,"target":34962},{"name":"bufferView_2","buffer":0,"byteLength":336,"byteOffset":1008,"byteStride":8,"target":34962},{"name":"bufferView_3","buffer":0,"byteLength":156,"byteOffset":1344,"target":34963}],"materials":[{"name":"90484","pbrMetallicRoughness":{"baseColorFactor":[0.784313725490196,0.784313725490196,0.784313725490196,1],"metallicFactor":0,"roughnessFactor":1},"emissiveFactor":[0,0,0],"alphaMode":"OPAQUE","doubleSided":false},{"name":"31","pbrMetallicRoughness":{"baseColorFactor":[0.356862745098039,0.376470588235294,0.435294117647059,1],"metallicFactor":0,"roughnessFactor":1},"emissiveFactor":[0,0,0],"alphaMode":"OPAQUE","doubleSided":false}],"meshes":[{"name":"366904-Mesh","primitives":[{"attributes":{"POSITION":0,"NORMAL":1,"TEXCOORD_0":2},"indices":3,"material":0,"mode":4},{"attributes":{"POSITION":4,"NORMAL":5,"TEXCOORD_0":6},"indices":7,"material":1,"mode":4}]}],"nodes":[{"name":"366904","mesh":0}],"scene":0,"scenes":[{"nodes":[0]}]}