{"accessors":[{"name":"367163-Mesh_0_positions","componentType":5126,"count":42,"min":[-6.616399765014648,5.300000190734863,15.501099586486816],"max":[-6.416399955749512,9.123800277709961,16.80109977722168],"type":"VEC3","bufferView":0,"byteOffset":0},{"name":"367163-Mesh_0_normals","componentType":5126,"count":42,"min":[-1,-1,-1],"max":[1,1,1],"type":"VEC3","bufferView":1,"byteOffset":0},{"name":"367163-Mesh_0_texcoords","componentType":5126,"count":42,"min":[-1.8252999782562256,-2.8238000869750977],"max":[1.2999999523162842,1.100000023841858],"type":"VEC2","bufferView":2,"byteOffset":0},{"name":"367163-Mesh_0_indices","componentType":5123,"count":78,"min":[0],"max":[41],"type":"SCALAR","bufferView":3,"byteOffset":0}],"asset":{"generator":"obj2gltf","version":"2.0"},"buffers":[{"name":"367163","byteLength":1500,"uri":"data:application/octet-stream;base64,"}],"bufferViews":[{"name":"bufferView_0","buffer":0,"byteLength":504,"byteOffset":0,"byteStride":12,"target":34962},{"name":"bufferView_1","buffer":0,"byteLength":504,"byteOffset":504,"byteStride":12,"target":34962},{"name":"bufferView_2","buffer":0,"byteLength":336,"byteOffset":1008,"byteStride":8,"target":34962},{"name":"bufferView_3","buffer":0,"byteLength":156,"byteOffset":1344,"target":34963}],"materials":[{"name":"31","pbrMetallicRoughness":{"baseColorFactor":[0.356862745098039,0.376470588235294,0.435294117647059,1],"metallicFactor":0,"roughnessFactor":1},"emissiveFactor":[0,0,0],"alphaMode":"OPAQUE","doubleSided":false}],"meshes":[{"name":"367163-Mesh","primitives":[{"attributes":{"POSITION":0,"NORMAL":1,"TEXCOORD_0":2},"indices":3,"material":0,"mode":4}]}],"nodes":[{"name":"367163","mesh":0}],"scene":0,"scenes":[{"nodes":[0]}]}