{"accessors":[{"name":"371415-Mesh_0_positions","componentType":5126,"count":20,"min":[-13.556400299072266,0.15000000596046448,9.446100234985352],"max":[-12.516400337219238,0.75,10.806099891662598],"type":"VEC3","bufferView":0,"byteOffset":0},{"name":"371415-Mesh_0_normals","componentType":5126,"count":20,"min":[-1,0,0],"max":[1,0,0],"type":"VEC3","bufferView":1,"byteOffset":0},{"name":"371415-Mesh_0_texcoords","componentType":5126,"count":20,"min":[-1.1399999856948853,1],"max":[1.1399999856948853,1.600000023841858],"type":"VEC2","bufferView":2,"byteOffset":0},{"name":"371415-Mesh_0_indices","componentType":5123,"count":48,"min":[0],"max":[19],"type":"SCALAR","bufferView":3,"byteOffset":0},{"name":"371415-Mesh_1_positions","componentType":5126,"count":328,"min":[-13.629199981689453,0.15000000596046448,9.38129997253418],"max":[-12.416399955749512,0.8500000238418579,10.87090015411377],"type":"VEC3","bufferView":0,"byteOffset":240},{"name":"371415-Mesh_1_normals","componentType":5126,"count":328,"min":[-1,-1,-1],"max":[1,1,1],"type":"VEC3","bufferView":1,"byteOffset":240},{"name":"371415-Mesh_1_texcoords","componentType":5126,"count":328,"min":[-1.2129000425338745,0.3903999924659729],"max":[1.2129000425338745,1.7173000574111938],"type":"VEC2","bufferView":2,"byteOffset":160},{"name":"371415-Mesh_1_indices","componentType":5123,"count":612,"min":[0],"max":[327],"type":"SCALAR","bufferView":3,"byteOffset":96}],"asset":{"generator":"obj2gltf","version":"2.0"},"buffers":[{"name":"371415","byteLength":12456,"uri":"data:application/octet-stream;base64,"}],"bufferViews":[{"name":"bufferView_0","buffer":0,"byteLength":4176,"byteOffset":0,"byteStride":12,"target":34962},{"name":"bufferView_1","buffer":0,"byteLength":4176,"byteOffset":4176,"byteStride":12,"target":34962},{"name":"bufferView_2","buffer":0,"byteLength":2784,"byteOffset":8352,"byteStride":8,"target":34962},{"name":"bufferView_3","buffer":0,"byteLength":1320,"byteOffset":11136,"target":34963}],"materials":[{"name":"31","pbrMetallicRoughness":{"baseColorFactor":[0.356862745098039,0.376470588235294,0.435294117647059,1],"metallicFactor":0,"roughnessFactor":1},"emissiveFactor":[0,0,0],"alphaMode":"OPAQUE","doubleSided":false},{"name":"90484","pbrMetallicRoughness":{"baseColorFactor":[0.784313725490196,0.784313725490196,0.784313725490196,1],"metallicFactor":0,"roughnessFactor":1},"emissiveFactor":[0,0,0],"alphaMode":"OPAQUE","doubleSided":false}],"meshes":[{"name":"371415-Mesh","primitives":[{"attributes":{"POSITION":0,"NORMAL":1,"TEXCOORD_0":2},"indices":3,"material":0,"mode":4},{"attributes":{"POSITION":4,"NORMAL":5,"TEXCOORD_0":6},"indices":7,"material":1,"mode":4}]}],"nodes":[{"name":"371415","mesh":0}],"scene":0,"scenes":[{"nodes":[0]}]}