{"accessors":[{"name":"200766-Mesh_0_positions","componentType":5126,"count":28,"min":[2.5443999767303467,0,-6.881800174713135],"max":[2.7444000244140625,4,-3.8817999362945557],"type":"VEC3","bufferView":0,"byteOffset":0},{"name":"200766-Mesh_0_normals","componentType":5126,"count":28,"min":[-1,-1,-1],"max":[1,1,1],"type":"VEC3","bufferView":1,"byteOffset":0},{"name":"200766-Mesh_0_texcoords","componentType":5126,"count":28,"min":[-3.0999999046325684,-3],"max":[3.0999999046325684,1.100000023841858],"type":"VEC2","bufferView":2,"byteOffset":0},{"name":"200766-Mesh_0_indices","componentType":5123,"count":48,"min":[0],"max":[27],"type":"SCALAR","bufferView":3,"byteOffset":0}],"asset":{"generator":"obj2gltf","version":"2.0"},"buffers":[{"name":"200766","byteLength":992,"uri":"data:application/octet-stream;base64,"}],"bufferViews":[{"name":"bufferView_0","buffer":0,"byteLength":336,"byteOffset":0,"byteStride":12,"target":34962},{"name":"bufferView_1","buffer":0,"byteLength":336,"byteOffset":336,"byteStride":12,"target":34962},{"name":"bufferView_2","buffer":0,"byteLength":224,"byteOffset":672,"byteStride":8,"target":34962},{"name":"bufferView_3","buffer":0,"byteLength":96,"byteOffset":896,"target":34963}],"images":[{"name":"33525","uri":"33525.png"}],"materials":[{"name":"33525","pbrMetallicRoughness":{"baseColorTexture":{"index":0},"baseColorFactor":[1,1,1,1],"metallicFactor":0,"roughnessFactor":1},"emissiveFactor":[0,0,0],"alphaMode":"OPAQUE","doubleSided":false}],"meshes":[{"name":"200766-Mesh","primitives":[{"attributes":{"POSITION":0,"NORMAL":1,"TEXCOORD_0":2},"indices":3,"material":0,"mode":4}]}],"nodes":[{"name":"200766","mesh":0}],"samplers":[{"magFilter":9729,"minFilter":9986,"wrapS":10497,"wrapT":10497}],"scene":0,"scenes":[{"nodes":[0]}],"textures":[{"name":"33525","sampler":0,"source":0}]}