{"accessors":[{"name":"200869-Mesh_0_positions","componentType":5126,"count":68,"min":[-8.255599975585938,4,-6.68179988861084],"max":[7.544400215148926,7.464099884033203,4.118199825286865],"type":"VEC3","bufferView":0,"byteOffset":0},{"name":"200869-Mesh_0_normals","componentType":5126,"count":68,"min":[-1,-0.8660544753074646,-1],"max":[1,0.8660544753074646,1],"type":"VEC3","bufferView":1,"byteOffset":0},{"name":"200869-Mesh_0_texcoords","componentType":5126,"count":68,"min":[-8.255599975585938,-3.2051000595092773],"max":[8.255599975585938,8.149499893188477],"type":"VEC2","bufferView":2,"byteOffset":0},{"name":"200869-Mesh_0_indices","componentType":5123,"count":96,"min":[0],"max":[67],"type":"SCALAR","bufferView":3,"byteOffset":0}],"asset":{"generator":"obj2gltf","version":"2.0"},"buffers":[{"name":"200869","byteLength":2368,"uri":"data:application/octet-stream;base64,"}],"bufferViews":[{"name":"bufferView_0","buffer":0,"byteLength":816,"byteOffset":0,"byteStride":12,"target":34962},{"name":"bufferView_1","buffer":0,"byteLength":816,"byteOffset":816,"byteStride":12,"target":34962},{"name":"bufferView_2","buffer":0,"byteLength":544,"byteOffset":1632,"byteStride":8,"target":34962},{"name":"bufferView_3","buffer":0,"byteLength":192,"byteOffset":2176,"target":34963}],"images":[{"name":"28309","uri":"28309.jpg"}],"materials":[{"name":"28309","pbrMetallicRoughness":{"baseColorTexture":{"index":0},"baseColorFactor":[1,1,1,1],"metallicFactor":0,"roughnessFactor":1},"emissiveFactor":[0,0,0],"alphaMode":"OPAQUE","doubleSided":false}],"meshes":[{"name":"200869-Mesh","primitives":[{"attributes":{"POSITION":0,"NORMAL":1,"TEXCOORD_0":2},"indices":3,"material":0,"mode":4}]}],"nodes":[{"name":"200869","mesh":0}],"samplers":[{"magFilter":9729,"minFilter":9986,"wrapS":10497,"wrapT":10497}],"scene":0,"scenes":[{"nodes":[0]}],"textures":[{"name":"28309","sampler":0,"source":0}]}