{"accessors":[{"name":"200804-Mesh_0_positions","componentType":5126,"count":24,"min":[-8.255599975585938,0,-6.881800174713135],"max":[2.5443999767303467,4,-6.68179988861084],"type":"VEC3","bufferView":0,"byteOffset":0},{"name":"200804-Mesh_0_normals","componentType":5126,"count":24,"min":[-1,-1,-1],"max":[1,1,1],"type":"VEC3","bufferView":1,"byteOffset":0},{"name":"200804-Mesh_0_texcoords","componentType":5126,"count":24,"min":[-10.899999618530273,-3],"max":[10.899999618530273,1.100000023841858],"type":"VEC2","bufferView":2,"byteOffset":0},{"name":"200804-Mesh_0_indices","componentType":5123,"count":36,"min":[0],"max":[23],"type":"SCALAR","bufferView":3,"byteOffset":0}],"asset":{"generator":"obj2gltf","version":"2.0"},"buffers":[{"name":"200804","byteLength":840,"uri":"data:application/octet-stream;base64,"}],"bufferViews":[{"name":"bufferView_0","buffer":0,"byteLength":288,"byteOffset":0,"byteStride":12,"target":34962},{"name":"bufferView_1","buffer":0,"byteLength":288,"byteOffset":288,"byteStride":12,"target":34962},{"name":"bufferView_2","buffer":0,"byteLength":192,"byteOffset":576,"byteStride":8,"target":34962},{"name":"bufferView_3","buffer":0,"byteLength":72,"byteOffset":768,"target":34963}],"images":[{"name":"33525","uri":"33525.png"}],"materials":[{"name":"33525","pbrMetallicRoughness":{"baseColorTexture":{"index":0},"baseColorFactor":[1,1,1,1],"metallicFactor":0,"roughnessFactor":1},"emissiveFactor":[0,0,0],"alphaMode":"OPAQUE","doubleSided":false}],"meshes":[{"name":"200804-Mesh","primitives":[{"attributes":{"POSITION":0,"NORMAL":1,"TEXCOORD_0":2},"indices":3,"material":0,"mode":4}]}],"nodes":[{"name":"200804","mesh":0}],"samplers":[{"magFilter":9729,"minFilter":9986,"wrapS":10497,"wrapT":10497}],"scene":0,"scenes":[{"nodes":[0]}],"textures":[{"name":"33525","sampler":0,"source":0}]}