{"accessors":[{"name":"200623-Mesh_0_positions","componentType":5126,"count":32,"min":[-8.455599784851074,0,-6.881800174713135],"max":[-8.255599975585938,4,4.31820011138916],"type":"VEC3","bufferView":0,"byteOffset":0},{"name":"200623-Mesh_0_normals","componentType":5126,"count":32,"min":[-1,-1,-1],"max":[1,1,1],"type":"VEC3","bufferView":1,"byteOffset":0},{"name":"200623-Mesh_0_texcoords","componentType":5126,"count":32,"min":[-11.100000381469727,-3],"max":[11.100000381469727,1.100000023841858],"type":"VEC2","bufferView":2,"byteOffset":0},{"name":"200623-Mesh_0_indices","componentType":5123,"count":60,"min":[0],"max":[31],"type":"SCALAR","bufferView":3,"byteOffset":0}],"asset":{"generator":"obj2gltf","version":"2.0"},"buffers":[{"name":"200623","byteLength":1144,"uri":"data:application/octet-stream;base64,"}],"bufferViews":[{"name":"bufferView_0","buffer":0,"byteLength":384,"byteOffset":0,"byteStride":12,"target":34962},{"name":"bufferView_1","buffer":0,"byteLength":384,"byteOffset":384,"byteStride":12,"target":34962},{"name":"bufferView_2","buffer":0,"byteLength":256,"byteOffset":768,"byteStride":8,"target":34962},{"name":"bufferView_3","buffer":0,"byteLength":120,"byteOffset":1024,"target":34963}],"images":[{"name":"33525","uri":"33525.png"}],"materials":[{"name":"33525","pbrMetallicRoughness":{"baseColorTexture":{"index":0},"baseColorFactor":[1,1,1,1],"metallicFactor":0,"roughnessFactor":1},"emissiveFactor":[0,0,0],"alphaMode":"OPAQUE","doubleSided":false}],"meshes":[{"name":"200623-Mesh","primitives":[{"attributes":{"POSITION":0,"NORMAL":1,"TEXCOORD_0":2},"indices":3,"material":0,"mode":4}]}],"nodes":[{"name":"200623","mesh":0}],"samplers":[{"magFilter":9729,"minFilter":9986,"wrapS":10497,"wrapT":10497}],"scene":0,"scenes":[{"nodes":[0]}],"textures":[{"name":"33525","sampler":0,"source":0}]}