{"accessors":[{"name":"200812-Mesh_0_positions","componentType":5126,"count":36,"min":[-8.255599975585938,-0.4000000059604645,-6.68179988861084],"max":[7.544400215148926,0,4.118199825286865],"type":"VEC3","bufferView":0,"byteOffset":0},{"name":"200812-Mesh_0_normals","componentType":5126,"count":36,"min":[-1,-1,-1],"max":[1,1,1],"type":"VEC3","bufferView":1,"byteOffset":0},{"name":"200812-Mesh_0_texcoords","componentType":5126,"count":36,"min":[-8.255599975585938,-5.68179988861084],"max":[7.544400215148926,7.68179988861084],"type":"VEC2","bufferView":2,"byteOffset":0},{"name":"200812-Mesh_0_indices","componentType":5123,"count":60,"min":[0],"max":[35],"type":"SCALAR","bufferView":3,"byteOffset":0}],"asset":{"generator":"obj2gltf","version":"2.0"},"buffers":[{"name":"200812","byteLength":1272,"uri":"data:application/octet-stream;base64,"}],"bufferViews":[{"name":"bufferView_0","buffer":0,"byteLength":432,"byteOffset":0,"byteStride":12,"target":34962},{"name":"bufferView_1","buffer":0,"byteLength":432,"byteOffset":432,"byteStride":12,"target":34962},{"name":"bufferView_2","buffer":0,"byteLength":288,"byteOffset":864,"byteStride":8,"target":34962},{"name":"bufferView_3","buffer":0,"byteLength":120,"byteOffset":1152,"target":34963}],"images":[{"name":"20490","uri":"20490.jpg"}],"materials":[{"name":"20490","pbrMetallicRoughness":{"baseColorTexture":{"index":0},"baseColorFactor":[1,1,1,1],"metallicFactor":0,"roughnessFactor":1},"emissiveFactor":[0,0,0],"alphaMode":"OPAQUE","doubleSided":false}],"meshes":[{"name":"200812-Mesh","primitives":[{"attributes":{"POSITION":0,"NORMAL":1,"TEXCOORD_0":2},"indices":3,"material":0,"mode":4}]}],"nodes":[{"name":"200812","mesh":0}],"samplers":[{"magFilter":9729,"minFilter":9986,"wrapS":10497,"wrapT":10497}],"scene":0,"scenes":[{"nodes":[0]}],"textures":[{"name":"20490","sampler":0,"source":0}]}